<svg width="192" height="108" viewBox="0 0 192 108" fill="none" xmlns="http://www.w3.org/2000/svg">
<rect width="192" height="108" rx="16" fill="#EBEBEB"/>
<path d="M122.86 49.4502C122.092 49.3641 122.523 50.3152 122.571 50.7684C123.084 55.5833 125.649 62.5549 131.084 63.457C130.233 68.8658 125.405 74.1983 119.773 74.5716C105.085 75.5452 107.634 57.1533 107.244 47.59C107.224 47.0901 107.555 46.0589 106.837 46.1547C105.947 52.7728 104.686 59.7121 106.202 66.348C106.533 67.7955 108.288 71.1683 108.005 72.21C103.238 79.3349 92.0103 86.8588 85.0558 78.0619C77.0412 67.9242 85.3935 50.5215 89.9749 40.3869C82.3174 50.2427 77.0593 62.8449 80.9358 75.3915C73.3517 77.0394 63.6758 77.297 61.2279 68.163C59.5403 61.8653 62.2758 57.3747 65.6345 52.4454L72.2986 43.2699C64.4184 49.6033 55.8564 59.5333 59.5572 70.45C52.3033 69.4795 43.6729 67.2094 43.5159 58.2818C43.2786 44.7882 66.7085 31.3349 76.9597 25.4892C84.2681 21.3217 97.0837 13.1537 105.351 14.0713C114.764 15.1159 130.645 28.6573 137.669 35.233C144.098 41.2514 154.004 52.132 144.656 60.3662C135.646 68.3026 124.458 59.3575 122.861 49.4504L122.86 49.4502Z" fill="white"/>
<path d="M130.726 76.6584C130.729 76.652 130.733 76.6456 130.737 76.6394C131.244 76.9734 131.751 77.3072 132.258 77.6413C129.464 82.5675 125.249 86.5889 120.51 89.6801C119.018 90.6527 117.441 91.5517 115.706 91.9469C113.352 92.4832 110.475 91.8548 108.668 90.2189C108.624 90.179 108.577 90.1311 108.578 90.0718C108.579 90.0344 108.599 90.0007 108.618 89.9687C109.111 89.1623 109.704 88.3487 110.003 87.4429C110.142 87.0198 110.19 86.5854 110.181 86.1411C110.169 85.5678 109.762 85.1086 109.245 85.5112C109.002 85.6998 108.811 86.4129 108.651 86.6955C108.412 87.1153 108.15 87.5212 107.865 87.9114C104.357 92.7302 97.9085 94.3428 92.2238 93.941C88.0848 93.6497 85.7834 91.1958 84.6288 87.3398C83.041 86.9618 84.3519 88.8797 83.5674 89.4436C76.1804 92.3809 66.5665 89.9024 64.4879 81.5747C63.642 81.6175 64.3525 82.9462 63.8927 83.6485C63.4502 84.3248 60.4202 84.6314 59.5053 84.6174C53.6965 84.5292 48.8588 79.637 47.2246 74.3674L52.7658 78.7002C56.2957 81.1797 60.6333 81.6381 64.2964 79.1482C67.9743 85.2053 73.7023 87.7125 80.7325 86.9285C81.8787 86.8007 84.2084 85.6595 84.7855 85.7723C85.3519 85.8831 86.0725 87.1114 86.7158 87.5183C90.5974 89.9739 95.2021 90.6413 99.6311 89.4734C101.86 88.8856 103.977 87.866 105.892 86.5908C107.157 85.7486 108.943 83.2411 110.618 83.7784C111.563 84.0819 112.271 84.8555 113.103 85.398C115.692 87.0857 119.177 86.3604 121.933 84.965C125.579 83.1193 128.673 80.196 130.726 76.658L130.726 76.6584Z" fill="white"/>
<path d="M86.6895 18.1418L73.5383 24.7345C73.2179 22.4572 74.7158 15.208 76.8298 14.2418C79.1286 13.1912 85.3757 15.8289 86.6893 18.1416L86.6895 18.1418Z" fill="white"/>
<path d="M117.522 16.5044C119.443 16.0933 121.589 15.1131 123.525 14.8956C125.311 14.6946 130.076 14.3172 130.87 16.0962C131.566 17.6573 129.796 24.6132 128.449 24.3008L117.522 16.5044Z" fill="white"/>
<path d="M131.908 81.9804C132.625 80.6046 133.339 79.4318 132.734 77.8666C137.161 79.6054 140.437 75.2305 143.218 72.5167L146.292 68.3953C145.487 75.2216 138.57 81.1479 131.908 81.9804Z" fill="white"/>
<path d="M135.982 65.1352L136.429 72.1025L135.207 72.0985C134.507 70.9667 135.418 65.5765 133.765 65.9246C132.834 66.1206 133.094 70.1179 133.145 71.0648C133.245 72.8941 134.869 74.8363 132.121 75.8068C131.318 75.6165 130.191 71.0886 130.272 70.259C130.391 69.0371 132.856 66.4098 131.911 64.2759L135.982 65.1352H135.982Z" fill="white"/>
<path d="M133.966 77.038C133.89 76.3396 134.895 76.6862 135.148 75.9649C135.369 75.3362 135.13 74.4343 135.201 73.7477L137.663 74.161L137.666 70.4548C138.244 69.7965 139.389 72.8999 141.376 71.0799C142.885 69.6981 143.015 68.3767 143.653 66.7751C144.293 65.1687 145.994 63.7828 142.812 65.5133L142.187 64.2772C143.703 64.4284 144.744 63.7425 145.679 62.6355C146.755 63.3575 146.191 64.3873 145.904 65.3255C144.896 68.6231 140.598 73.7601 137.797 75.7349C136.567 76.6021 135.591 77.3126 133.966 77.0382L133.966 77.038Z" fill="white"/>
<path d="M63.6703 77.8619C62.0111 79.1049 60.7175 72.6564 59.3602 72.926C57.8089 73.234 60.6092 77.7909 60.7882 78.4887C58.4963 80.0913 57.6701 71.5648 55.8621 73.3377C55.9155 75.0669 57.1485 76.3217 57.6043 77.9726C57.7604 78.5376 58.3557 78.7673 57.3043 78.6862C56.1483 78.1301 52.9506 71.7338 53.3957 71.2783C55.3033 72.235 59.3526 71.6667 60.7859 72.3126C62.4517 73.0633 62.5216 76.4558 63.6703 77.8617V77.8619Z" fill="white"/>
<path d="M113.408 82.3943C111.44 82.5705 110.327 79.9098 109.89 78.3037C109.46 76.7198 110.403 74.8193 108.063 74.9774L109.514 72.9263C112.942 75.2005 113.476 78.5057 113.408 82.3943Z" fill="white"/>
<path d="M82.1665 76.6323C81.7092 79.1666 82.3302 81.2365 82.9869 83.6319C81.2086 83.1008 81.5112 78.2023 79.9065 78.2876C78.9927 78.9701 79.1841 80.304 79.3876 81.273C79.5585 82.0876 82.6354 85.7636 80.37 84.8169C78.9587 84.2271 77.8729 80.3019 77.3657 78.8858C77.4635 77.9488 81.2001 77.0128 82.1667 76.6321L82.1665 76.6323Z" fill="white"/>
<path d="M108.064 75.8088C107.437 77.8201 109.04 80.0928 108.924 81.7824C108.634 86.0133 104.242 80.2572 105.991 77.2249C106.164 76.9256 107.737 75.42 108.064 75.8088Z" fill="white"/>
<path d="M114.872 76.2506C115.065 76.2132 117.177 76.7063 117.499 76.8595C119.466 77.797 119.467 83.6528 116.899 81.166C116.234 80.5217 113.177 76.5796 114.872 76.2506Z" fill="white"/>
<path d="M76.0022 77.864C75.3937 80.3375 77.1597 81.482 77.6451 83.6297C75.4111 85.5928 70.6969 76.7322 76.0022 77.864Z" fill="white"/>
<path d="M119.868 82.6768C120.1 82.5167 120.164 81.7394 120.628 81.6346C121.113 81.5251 122.174 82.1907 122.865 81.9885C122.27 83.769 113.964 85.398 113.833 83.8421L114.648 80.749C116.072 82.393 117.532 84.2856 119.868 82.6768Z" fill="white"/>
<path d="M129.44 77.864C126.009 77.4486 125.599 73.4743 128.829 72.103L129.44 77.864Z" fill="white"/>
<path d="M104.363 79.1011L104.776 84.8654C103.682 85.0922 104.069 84.5867 103.755 84.0542C102.775 82.3877 101.311 79.169 104.363 79.1011Z" fill="white"/>
<path d="M140.541 65.1021L140.543 69.4214C138.208 70.3027 138.599 66.6547 138.076 65.1011L140.541 65.1021Z" fill="white"/>
<path d="M52.1581 70.8662C51.9707 72.9528 53.1286 74.7488 53.8047 76.6262C52.7335 77.6582 50.4138 71.6305 50.1099 71.0654L52.1581 70.8662Z" fill="white"/>
<path d="M83.8171 79.9253C85.6874 80.602 87.8223 83.0115 86.0738 84.8592C84.5561 83.7149 84.032 81.7485 83.8171 79.9253Z" fill="white"/>
<path d="M122.039 80.749C120.581 79.9243 118.934 78.0447 120.648 76.6668C123.592 76.2774 122.052 79.0563 122.039 80.749Z" fill="white"/>
<path d="M125.329 74.9849L125.128 79.9231C123.427 78.3 121.949 75.3625 125.329 74.9849Z" fill="white"/>
<path d="M90.3909 86.9317C92.4494 85.6433 92.6135 86.7196 93.9162 86.9288C95.2152 87.1375 96.4737 85.9226 97.3698 87.1327C97.3549 87.9132 90.9183 88.3606 90.3909 86.9317Z" fill="white"/>
<path d="M47.927 69.3353C48.7211 70.3496 48.7747 72.5933 49.694 73.7435C48.8833 74.5157 45.5275 69.6318 46.4097 68.3933C46.4625 68.3213 47.8231 69.2025 47.927 69.3353Z" fill="white"/>
<path d="M98.6078 82.396C98.5627 83.1696 99.0379 83.9402 99.0433 84.6814C99.0697 88.3847 93.6128 83.3388 98.6078 82.396Z" fill="white"/>
<path d="M101.487 81.1628L102.309 85.6891C101.555 86.494 97.2391 81.2449 101.487 81.1628Z" fill="white"/>
<path d="M71.8898 83.6297C70.6748 84.2482 66.2795 80.5763 66.961 79.9272L71.0385 82.2215L71.8898 83.6295V83.6297Z" fill="white"/>
<path d="M73.536 82.8042C72.6692 83.6756 70.174 78.7596 70.6608 78.28C72.0733 76.8881 73.1657 82.283 73.536 82.8042Z" fill="white"/>
<path d="M87.9239 82.8122C88.954 82.76 91.646 83.0698 91.2088 84.657C90.6822 86.5686 87.9052 83.7918 87.9239 82.8122Z" fill="white"/>
<path d="M94.8707 83.258C96.1107 86.197 94.0717 86.2116 92.449 84.2442C92.0693 83.3344 94.4362 83.1027 94.8707 83.258Z" fill="white"/>
<path d="M69.3698 77.9214L70.2454 80.7467C69.7267 81.2892 67.4438 78.4161 66.9609 78.0699L69.3698 77.9214Z" fill="white"/>
</svg>
