<svg width="300" height="200" viewBox="0 0 300 200" fill="none" xmlns="http://www.w3.org/2000/svg">
<path d="M0 8C0 3.58173 3.58172 0 8 0H292C296.418 0 300 3.58172 300 8V192C300 196.418 296.418 200 292 200H7.99999C3.58171 200 0 196.418 0 192V8Z" fill="#1E2D45"/>
<g filter="url(#filter0_d_1_8272)">
<path d="M74.1113 62.3335C94.4919 62.3335 111.009 78.9017 111.009 99.3335C111.009 119.765 94.4919 136.333 74.1113 136.333C53.7307 136.333 37.2139 119.765 37.2139 99.3335C37.2139 78.9017 53.7307 62.3335 74.1113 62.3335Z" fill="#F1D6C8" stroke="#010B13" stroke-width="2"/>
<path d="M95.5638 90.2783C97.6629 88.3952 99.8715 85.3545 98.8016 83.8546C97.7317 82.3546 91.9804 82.358 89.9946 82.7598C87.417 80.3142 84.7458 77.5165 77.7076 79.2697C76.3161 77.6505 73.1632 75.446 72.0071 75.9644C69.6896 76.9298 68.7449 82.2461 68.7449 82.2461C62.2266 83.96 55.8316 87.3173 54.2571 88.2268C51.3142 89.8145 48.2614 92.9189 49.353 97.5068C46.6284 100.012 45.986 111.34 54.2267 113.664C57.5783 118.511 60.4748 118.293 64.2042 118.226C65.3669 121.108 69.7698 124.703 75.9324 120.908C80.1082 121.814 85.1783 122.03 89.0636 118.072C94.3527 117.888 100.837 113.231 99.0577 105.462C102.295 100.834 96.0848 91.2448 95.5642 90.2783H95.5638Z" fill="#010B13"/>
<path d="M88.1881 117.334C88.1454 117.379 88.101 117.424 88.0566 117.469C88.1007 117.425 88.1444 117.38 88.1881 117.334Z" fill="white"/>
<path d="M98.2531 98.7329C94.0069 87.4503 87.8636 81.3759 84.4344 80.3243C80.6497 79.1556 76.8419 80.6629 68.1019 83.6243C58.8371 86.7638 52.481 89.4392 50.795 93.3386C49.1658 97.1064 52.1785 101.865 55.8564 102.664C55.7983 102.139 55.8905 101.389 55.9098 101.269C56.0113 100.632 57.1844 95.3703 63.1745 93.0854C59.5557 95.1192 55.0116 100.353 57.4997 105.084C58.8033 106.749 61.0243 108.004 64.6715 107.063C64.9921 102.192 68.7745 96.2069 73.5523 92.2054C70.3737 95.9376 66.4867 101.141 65.9377 106.102C65.894 106.49 65.8833 108.256 66.8393 109.515C69.8721 112.356 75.582 113.552 79.0508 109.676C82.5457 105.368 81.7219 97.3924 81.2224 93.2301C82.7568 98.7758 83.0082 105.062 80.5415 109.226C82.5628 111.297 86.2837 111.647 89.6571 108.884C91.8951 103.671 91.8487 97.0062 87.2945 90.8792C91.9963 96.4634 92.4618 101.088 91.0209 108.279C95.3783 107.098 100.492 105.828 98.2538 98.7326L98.2531 98.7329Z" fill="#ABB0C0"/>
<path d="M54.3496 107.925C52.2789 107.319 48.9105 104.555 49.0107 100.91C48.5252 103.051 47.8366 110.415 54.8995 112.715C54.1636 111.189 54.1686 109.403 54.3496 107.925Z" fill="#ABB0C0"/>
<path d="M63.4171 112.9C60.8942 113.077 56.2443 110.844 55.7083 107.876C55.0267 108.698 54.1649 111.852 56.0626 114.286C58.5317 117.244 60.948 117.298 64.4569 117.08C63.6465 115.576 63.3767 114.153 63.4174 112.901L63.4171 112.9Z" fill="#ABB0C0"/>
<path d="M89.3218 113.613C89.3218 113.613 89.3218 113.612 89.3218 113.611C87.6151 115.481 82.9264 116.653 78.7636 114.72C78.6951 115.885 77.3831 118.625 75.9873 119.697C78.7062 120.331 84.0003 121.494 88.0211 117.504C88.9384 116.157 89.2767 114.797 89.3221 113.612L89.3218 113.613Z" fill="#ABB0C0"/>
<path d="M64.3025 112.961C64.1128 114.892 64.4067 116.29 64.8251 117.427C65.9251 119.724 69.7522 123.483 75.6231 119.868C77.1298 118.587 77.4961 116.575 77.4577 115.174C74.68 117.285 66.6176 117.194 64.3025 112.961Z" fill="#ABB0C0"/>
<path d="M90.2627 113.296V113.297C90.2404 114.103 89.9562 115.375 88.5229 116.988C93.5135 116.923 97.2599 113.497 97.9388 109.953C96.4464 112.294 92.9903 113.746 90.2627 113.296Z" fill="#ABB0C0"/>
<path d="M64.7247 117.138C64.7167 117.113 64.7084 117.089 64.7007 117.064C64.7087 117.089 64.7167 117.114 64.7247 117.138Z" fill="#717071"/>
<path d="M75.6235 119.868C76.1482 119.544 76.4565 119.017 76.716 118.506C76.4465 119.004 76.0899 119.471 75.6235 119.868Z" fill="#717071"/>
<path d="M48.8226 105.19C49.1686 108.027 50.5928 111.312 54.8998 112.715C54.6236 112.142 54.4516 111.533 54.3541 110.917C50.8455 110.855 49.1919 106.92 48.8223 105.191L48.8226 105.19Z" fill="#858B97"/>
<path d="M54.9351 111.376C55.0215 112.339 55.3441 113.364 56.0631 114.286C58.5322 117.244 60.9485 117.297 64.4574 117.079C64.2347 116.666 64.0543 116.259 63.9084 115.86C57.519 116.72 55.6497 113.216 54.9354 111.376L54.9351 111.376Z" fill="#858B97"/>
<path d="M76.7174 118.507C76.7451 118.452 76.7731 118.397 76.7999 118.343C75.3623 119.434 73.8813 120.339 70.701 120.202C66.8441 119.895 65.0004 117.941 64.4268 116.025C64.4498 116.14 64.4752 116.252 64.5016 116.362C64.5079 116.388 64.5142 116.415 64.5209 116.441C64.575 116.657 64.6355 116.865 64.7002 117.064C64.7083 117.089 64.7163 117.113 64.7243 117.138C64.757 117.235 64.7904 117.332 64.8251 117.426C65.9251 119.724 69.7523 123.483 75.6231 119.868C76.0899 119.471 76.4469 119.004 76.7167 118.506L76.7174 118.507Z" fill="#858B97"/>
<path d="M88.0218 117.504C88.3594 117.008 88.6182 116.511 88.8132 116.021C84.4096 120.318 78.5686 119.045 77.2919 118.221C76.8936 118.816 76.4458 119.346 75.9883 119.697C78.7071 120.332 84.0009 121.494 88.0218 117.504Z" fill="#858B97"/>
<path d="M89.478 115.713C89.2372 116.11 88.9253 116.535 88.5229 116.988C92.5989 116.935 95.8437 114.64 97.2666 111.87C95.7252 114.786 90.8241 115.852 89.478 115.713V115.713Z" fill="#858B97"/>
<path d="M49.8486 98.8109C49.3277 99.4971 49.1638 100.299 49.1638 100.299C49.0312 102.513 52.1357 107.715 56.1055 107.199C56.2745 110.108 61.7325 113.312 64.244 111.877C65.9791 116.008 74.8573 117.075 78.3519 113.684C80.465 115.632 87.9717 115.4 89.5248 112.289C91.9124 113.581 97.1311 111.346 98.1352 108.597C98.3469 107.563 98.0457 106.535 98.0457 106.535C96.9651 107.868 93.3527 110.539 90.5577 109.634C88.4619 111.561 83.6757 113.468 80.0058 110.35C75.78 115.735 65.8345 112.845 64.9429 108.184C62.161 108.933 56.9326 108.681 55.7652 103.83C54.902 103.467 51.9097 102.963 49.8486 98.8109Z" fill="#1E2D45"/>
<path d="M70.0532 81.7648C71.5539 81.1962 74.6671 80.2186 76.5067 79.6845C75.4402 78.5797 73.0977 76.8885 72.4361 77.0342C71.4851 77.2978 70.3841 80.2069 70.0532 81.7648Z" fill="white"/>
<path d="M90.9106 83.7657C92.9934 86.054 94.6406 88.7615 94.9772 89.2631C96.4228 88.0401 98.4237 84.9371 97.8076 84.4823C96.6125 83.5999 92.3886 83.5581 90.9106 83.7657Z" fill="white"/>
<path d="M67.4541 83.8451C67.3406 83.884 67.2274 83.9228 67.1149 83.9613C67.0588 83.9804 67.003 83.9998 66.9472 84.0189C66.8347 84.0578 66.7225 84.0963 66.6106 84.1351C66.5599 84.1526 66.5091 84.1703 66.4587 84.1877C66.3011 84.2423 66.1438 84.2969 65.9882 84.3515C65.9828 84.3535 65.9775 84.3552 65.9722 84.3572C65.8196 84.4104 65.6679 84.4637 65.5173 84.5169C65.4679 84.5343 65.4192 84.5517 65.3698 84.5692C65.2619 84.6073 65.154 84.6455 65.0472 84.6837C64.9944 84.7024 64.942 84.7212 64.8892 84.7399C64.781 84.7788 64.6732 84.8173 64.566 84.8558C64.5199 84.8726 64.4735 84.889 64.4277 84.9057C64.1262 85.0145 63.8283 85.1234 63.5348 85.2319C63.4897 85.2486 63.4453 85.265 63.4006 85.2818C63.2977 85.32 63.1952 85.3581 63.0934 85.3963C63.0436 85.4147 62.9942 85.4335 62.9447 85.4519C62.8426 85.4904 62.7411 85.5286 62.6399 85.5671C62.5968 85.5835 62.5537 85.5996 62.5106 85.616C62.3684 85.6703 62.2268 85.7245 62.0866 85.7784H62.0859C61.9466 85.8323 61.8084 85.8862 61.6711 85.9398C61.6304 85.9559 61.59 85.9716 61.5496 85.9877C61.4514 86.0266 61.3536 86.0651 61.2564 86.1039C61.2113 86.122 61.1662 86.1398 61.1212 86.1578C61.0247 86.1964 60.9292 86.2349 60.834 86.2737C60.7942 86.2898 60.7542 86.3059 60.7144 86.3223C60.4486 86.4304 60.1875 86.5386 59.9307 86.6471C59.894 86.6625 59.8572 86.6783 59.8208 86.6937C59.7283 86.7328 59.6365 86.772 59.5453 86.8112C59.5043 86.8289 59.4632 86.8467 59.4221 86.8644C59.3313 86.904 59.2408 86.9431 59.1513 86.9827C59.1159 86.9981 59.0805 87.0135 59.0455 87.0292C58.799 87.138 58.5569 87.2472 58.3198 87.3567C58.2858 87.3725 58.252 87.3882 58.218 87.4039C58.1328 87.4435 58.0483 87.483 57.9642 87.5228C57.9265 87.5406 57.8887 87.5583 57.8513 87.5764C57.7678 87.6163 57.6847 87.6561 57.6025 87.696C57.5702 87.7117 57.5374 87.7274 57.505 87.7432C57.279 87.8534 57.0576 87.9642 56.8409 88.0754C56.8101 88.0911 56.7797 88.1072 56.749 88.1229C56.6712 88.1631 56.5937 88.2036 56.5173 88.2438C56.4832 88.2619 56.4492 88.28 56.4151 88.2981C56.3386 88.3389 56.2628 88.3795 56.1877 88.4203C56.1586 88.4361 56.1296 88.4518 56.1009 88.4675C55.8958 88.5797 55.6958 88.6929 55.5008 88.8064C55.4727 88.8228 55.445 88.8393 55.417 88.8557C55.3472 88.8969 55.2777 88.9377 55.2093 88.9792C55.1789 88.9977 55.1485 89.0161 55.1181 89.0345C55.0493 89.0764 54.9812 89.1185 54.9134 89.1604C54.888 89.1761 54.862 89.1922 54.8369 89.208C54.7448 89.2659 54.6539 89.3238 54.5645 89.3821C58.2507 87.6397 70.8181 83.0032 77.1097 87.7114C83.4013 92.4195 91.6423 86.9143 87.3159 81.9587C86.2414 81.1219 85.2589 80.5777 84.4341 80.3248C80.6494 79.1561 76.8416 80.6634 68.1016 83.6248C67.9373 83.6804 67.7744 83.736 67.6121 83.7912C67.5593 83.8093 67.5069 83.827 67.4541 83.8451Z" fill="white"/>
<path d="M69.1424 96.8252C65.4579 101.477 64.5015 104.96 62.2418 105.37C60.4396 105.698 58.28 105.92 56.8735 103.255C56.9784 103.868 57.1811 104.481 57.4986 105.085C58.8023 106.749 61.0233 108.004 64.6705 107.064C64.8825 103.84 66.6123 100.127 69.1428 96.8252H69.1424Z" fill="#858B97"/>
<path d="M66.0864 107.844C66.218 108.4 66.4471 109 66.8384 109.515C69.8712 112.357 75.581 113.552 79.0499 109.677C81.0097 107.26 81.6111 103.692 81.6736 100.288C79.3711 112.338 67.8386 112.922 66.0864 107.844Z" fill="#858B97"/>
<path d="M89.9106 108.256C89.9513 108.15 89.9917 108.045 90.0304 107.938C90.0538 107.873 90.0762 107.808 90.0989 107.744C90.1326 107.648 90.166 107.552 90.1981 107.455C90.2215 107.385 90.2438 107.314 90.2665 107.243C90.2959 107.15 90.325 107.058 90.353 106.965C90.3754 106.891 90.3971 106.816 90.4185 106.741C90.4445 106.651 90.4696 106.56 90.4939 106.469C90.515 106.392 90.5353 106.314 90.5554 106.236C90.5781 106.147 90.5998 106.058 90.6212 105.968C90.6402 105.888 90.6596 105.808 90.6776 105.727C90.6973 105.639 90.7157 105.55 90.734 105.462C90.7514 105.379 90.7691 105.297 90.7851 105.213C90.8018 105.127 90.8165 105.041 90.8319 104.955C90.8472 104.868 90.8636 104.781 90.8776 104.694C90.8896 104.62 90.8997 104.545 90.9107 104.471C90.9411 104.266 90.9681 104.061 90.9915 103.854C90.9978 103.797 91.0055 103.74 91.0115 103.682C91.0225 103.574 91.0316 103.464 91.0406 103.355C91.0463 103.289 91.0523 103.224 91.0573 103.157C91.0653 103.048 91.071 102.938 91.077 102.829C91.0807 102.763 91.0843 102.697 91.0873 102.631C91.092 102.519 91.095 102.407 91.0977 102.296C91.099 102.231 91.1007 102.167 91.1014 102.102C91.1027 101.988 91.1027 101.873 91.1017 101.757C91.101 101.697 91.1004 101.635 91.099 101.574C91.0967 101.455 91.0937 101.336 91.0887 101.216C91.0863 101.161 91.0837 101.106 91.0807 101.05C91.0743 100.924 91.0676 100.798 91.0583 100.671C91.0553 100.628 91.0513 100.583 91.0476 100.54C91.0366 100.401 91.0249 100.263 91.0105 100.124C91.0089 100.108 91.0069 100.092 91.0052 100.076C90.9331 99.4002 90.8205 98.7191 90.6639 98.0352C90.6626 98.0296 90.6616 98.0235 90.6602 98.0178C90.6242 97.8618 90.5851 97.7054 90.5447 97.549C90.538 97.5232 90.5317 97.4971 90.5247 97.4713C90.4853 97.3223 90.4432 97.1733 90.3998 97.0242C90.3904 96.9918 90.3811 96.9593 90.3714 96.9268C90.3273 96.7798 90.2812 96.6324 90.2331 96.4854C90.2225 96.4526 90.2114 96.4198 90.2008 96.387C90.151 96.2376 90.0992 96.0886 90.0451 95.9392C90.0351 95.9121 90.0251 95.885 90.0151 95.8578C89.9577 95.7021 89.8985 95.5461 89.8364 95.3903C89.8314 95.3773 89.8257 95.3645 89.8207 95.3515C89.4704 94.4801 89.0437 93.6098 88.5341 92.7461C91.0109 99.0985 90.4889 106.775 86.3679 108.964C84.8669 109.761 82.7628 110.249 80.7015 108.946C80.7008 108.946 80.7001 108.946 80.6994 108.946C80.6477 109.04 80.5959 109.134 80.5415 109.226C82.5628 111.298 86.2838 111.648 89.6571 108.884C89.7236 108.729 89.788 108.572 89.8505 108.415C89.8712 108.362 89.8909 108.309 89.9112 108.256H89.9106Z" fill="#858B97"/>
<path d="M98.2529 98.7331C96.2393 93.3826 93.799 89.2043 91.4237 86.1763C95.5458 94.0159 97.8676 99.5703 96.1856 103.523C95.5398 104.867 94.6612 106.656 91.5687 107.464C91.5149 107.481 91.2661 107.462 91.2197 107.484C91.175 107.726 91.0698 108.03 91.02 108.279C92.8293 109.413 101.056 106.151 98.2529 98.7324V98.7331Z" fill="#858B97"/>
<path d="M97.258 86.4306C94.6837 87.8124 92.0253 84.6099 90.9106 83.7656C92.9934 86.0539 94.6406 88.7614 94.9772 89.2631C95.7379 88.6194 96.6519 87.4554 97.258 86.4306Z" fill="#858B97"/>
<path d="M58.8543 95.8682C55.2472 99.5251 52.8081 100.184 51.1455 98.7639C52.1259 100.689 53.8964 102.238 55.8556 102.664C55.7975 102.139 55.8897 101.389 55.909 101.269C55.9788 100.831 56.5548 98.2077 58.8543 95.8682Z" fill="#858B97"/>
<path d="M129.629 85.2437C132.386 85.2437 134.738 85.9378 136.603 87.4019C138.493 88.8859 139.529 90.9313 139.728 93.4438L139.813 94.5229H132.967L132.895 93.6011C132.842 92.9297 132.537 92.3354 131.875 91.7925C131.253 91.2814 130.383 90.979 129.168 90.979C128.089 90.979 127.302 91.2525 126.725 91.7192C126.21 92.1363 125.905 92.7494 125.905 93.7153C125.905 94.3183 126.08 94.7343 126.379 95.0493L126.531 95.1987C126.896 95.5411 127.356 95.8318 127.927 96.061L128.519 96.2827C128.95 96.4351 129.456 96.596 130.037 96.7651L130.964 97.0249L130.97 97.0269C132.762 97.5218 134.252 98.0239 135.425 98.5376C136.622 99.062 137.645 99.8504 138.492 100.886L138.659 101.097C139.611 102.336 140.038 103.926 140.038 105.77C140.038 107.224 139.67 108.6 138.948 109.884L138.798 110.139C137.963 111.52 136.756 112.61 135.219 113.416C133.654 114.236 131.844 114.627 129.821 114.627C127.911 114.627 126.159 114.292 124.582 113.6L124.289 113.466C122.841 112.78 121.664 111.822 120.788 110.585V110.584C119.838 109.245 119.375 107.691 119.375 105.963V104.963H125.976L126.056 105.875C126.137 106.798 126.488 107.513 127.101 108.079H127.102C127.669 108.603 128.529 108.93 129.822 108.93C131.177 108.93 132.092 108.603 132.7 108.077L132.917 107.87C133.389 107.372 133.623 106.768 133.623 106.001C133.623 105.311 133.427 104.836 133.102 104.487C132.688 104.041 132.163 103.685 131.509 103.427C130.783 103.141 129.746 102.819 128.379 102.463L128.375 102.462C126.827 102.052 125.51 101.63 124.433 101.194L123.987 101.006C122.812 100.494 121.806 99.7156 120.973 98.6919L120.809 98.4839C119.869 97.259 119.451 95.6881 119.451 93.8696C119.451 92.1549 119.881 90.6093 120.77 89.272L120.939 89.0269C121.807 87.8201 122.979 86.8978 124.421 86.2544C125.955 85.5708 127.699 85.2437 129.629 85.2437Z" fill="white" stroke="#010B13" stroke-width="2"/>
<path d="M153.479 90.79C156.2 90.7901 158.539 91.4404 160.423 92.8105C162.311 94.1835 163.562 96.1333 164.202 98.5859L164.528 99.8379H157.81L157.571 99.1807C157.291 98.4132 156.876 97.822 156.333 97.376L156.093 97.1934C155.454 96.7462 154.604 96.4883 153.478 96.4883C151.954 96.4884 150.819 97.0128 149.963 98.0361C149.1 99.0691 148.603 100.59 148.603 102.729C148.603 104.866 149.1 106.396 149.967 107.444C150.824 108.479 151.958 109.008 153.478 109.008C154.599 109.008 155.446 108.762 156.083 108.338C156.714 107.917 157.221 107.267 157.572 106.312L157.812 105.657H164.558L164.196 106.931C163.525 109.284 162.253 111.187 160.378 112.598C158.485 114.022 156.163 114.705 153.479 114.705C151.301 114.705 149.33 114.213 147.598 113.201C145.869 112.193 144.519 110.77 143.552 108.957C142.58 107.134 142.11 105.048 142.11 102.729C142.11 100.505 142.542 98.4975 143.434 96.7295V96.7197L143.552 96.499C144.52 94.6852 145.872 93.2681 147.603 92.2715C149.334 91.2754 151.303 90.79 153.479 90.79Z" fill="white" stroke="#010B13" stroke-width="2"/>
<path d="M176.483 90.79C178.279 90.7901 179.898 91.1444 181.308 91.8877L181.803 92.1641C182.161 92.3748 182.498 92.6022 182.818 92.8428V91.1367H189.235V114.358H182.818V112.601C182.338 112.964 181.814 113.295 181.247 113.591L181.246 113.59C179.804 114.341 178.183 114.705 176.406 114.705C174.531 114.705 172.79 114.249 171.202 113.337L170.886 113.148C169.213 112.111 167.897 110.663 166.937 108.835V108.836C165.969 106.994 165.498 104.924 165.498 102.651C165.498 100.379 165.97 98.3244 166.942 96.5156C167.906 94.7223 169.233 93.3078 170.918 92.2988H170.919C172.604 91.2914 174.466 90.79 176.483 90.79ZM177.405 96.6025C176.45 96.6025 175.57 96.835 174.75 97.3008C173.948 97.7557 173.285 98.4271 172.764 99.3496C172.262 100.238 171.992 101.326 171.992 102.651C171.992 103.975 172.263 105.09 172.772 106.024L172.975 106.373C173.465 107.157 174.068 107.746 174.78 108.163H174.781C175.618 108.654 176.488 108.893 177.405 108.893C178.355 108.893 179.231 108.656 180.051 108.18C180.85 107.716 181.516 107.028 182.041 106.077C182.547 105.158 182.818 104.052 182.818 102.729C182.818 101.57 182.61 100.584 182.22 99.75L182.042 99.4023C181.519 98.465 180.854 97.7814 180.051 97.3154V97.3145C179.231 96.8386 178.355 96.6026 177.405 96.6025Z" fill="white" stroke="#010B13" stroke-width="2"/>
<path d="M199.719 83.8574V114.358H193.341V83.8574H199.719Z" fill="white" stroke="#010B13" stroke-width="2"/>
<path d="M210.203 83.8574V114.358H203.825V83.8574H210.203Z" fill="white" stroke="#010B13" stroke-width="2"/>
<path d="M224.68 90.79C226.857 90.7901 228.855 91.275 230.653 92.2607V92.2617C232.345 93.1905 233.704 94.4947 234.721 96.1582L234.92 96.4961C235.962 98.3334 236.472 100.42 236.472 102.728C236.472 105.04 235.948 107.131 234.876 108.97C233.879 110.681 232.535 112.037 230.855 113.023L230.515 113.216C228.682 114.212 226.667 114.704 224.489 114.704C222.607 114.704 220.861 114.328 219.267 113.565L219.249 113.585L218.581 113.208C216.804 112.204 215.406 110.786 214.397 108.973C213.381 107.147 212.888 105.054 212.888 102.728C212.888 100.42 213.396 98.3337 214.439 96.4961C215.475 94.6706 216.901 93.2524 218.707 92.2617L218.708 92.2607C220.505 91.275 222.504 90.79 224.68 90.79ZM224.603 96.6025C223.644 96.6026 222.769 96.8301 221.962 97.2832C221.283 97.6648 220.714 98.2142 220.26 98.9561L220.073 99.2861C219.604 100.173 219.343 101.306 219.343 102.728C219.343 104.848 219.881 106.337 220.821 107.341H220.822C221.79 108.376 222.988 108.893 224.489 108.893C225.447 108.893 226.338 108.664 227.176 108.206L227.472 108.029C228.148 107.593 228.722 106.979 229.188 106.161C229.698 105.266 229.978 104.136 229.978 102.728C229.978 101.489 229.771 100.472 229.392 99.6455L229.22 99.3027C228.713 98.3855 228.06 97.7255 227.267 97.2861V97.2852C226.445 96.8296 225.562 96.6025 224.603 96.6025Z" fill="white" stroke="#010B13" stroke-width="2"/>
<path d="M251.909 90.79C253.8 90.79 255.554 91.231 257.154 92.1162L257.472 92.2988C259.054 93.2455 260.315 94.5497 261.25 96.1885L261.433 96.5215C262.39 98.329 262.855 100.381 262.855 102.651C262.855 104.78 262.446 106.731 261.611 108.482L261.438 108.83C260.489 110.664 259.17 112.113 257.483 113.15C255.797 114.188 253.931 114.705 251.909 114.705C250.157 114.705 248.56 114.349 247.144 113.609C246.566 113.308 246.03 112.968 245.535 112.598V124.449H239.157V91.1367H245.535V92.8896C246.015 92.5301 246.539 92.2005 247.107 91.9043C248.545 91.1542 250.154 90.79 251.909 90.79ZM250.949 96.6025C250.028 96.6025 249.154 96.8358 248.315 97.3164L248.316 97.3174C247.501 97.7842 246.832 98.4678 246.311 99.4014V99.4023C245.807 100.306 245.536 101.402 245.536 102.728C245.536 104.052 245.806 105.157 246.313 106.076V106.077C246.77 106.906 247.339 107.536 248.018 107.992L248.316 108.177C249.154 108.658 250.027 108.892 250.949 108.892C251.894 108.892 252.776 108.651 253.611 108.162C254.424 107.685 255.096 106.984 255.62 106.023C256.129 105.089 256.4 103.975 256.4 102.65C256.4 101.331 256.13 100.246 255.632 99.3594L255.627 99.3496C255.108 98.43 254.441 97.7585 253.628 97.3027C252.791 96.8342 251.903 96.6025 250.949 96.6025Z" fill="white" stroke="#010B13" stroke-width="2"/>
</g>
<circle cx="24" cy="176" r="14" fill="white" stroke="white" stroke-width="2"/>
<path fill-rule="evenodd" clip-rule="evenodd" d="M24 163C16.8203 163 11 168.82 11 176C11 183.18 16.8203 189 24 189C31.1797 189 37 183.18 37 176C37 168.82 31.1797 163 24 163ZM21.7071 172.293C21.3166 171.902 20.6834 171.902 20.2929 172.293C19.9024 172.683 19.9024 173.317 20.2929 173.707L22.5858 176L20.2929 178.293C19.9024 178.683 19.9024 179.317 20.2929 179.707C20.6834 180.098 21.3166 180.098 21.7071 179.707L24 177.414L26.2929 179.707C26.6834 180.098 27.3166 180.098 27.7071 179.707C28.0976 179.317 28.0976 178.683 27.7071 178.293L25.4142 176L27.7071 173.707C28.0976 173.317 28.0976 172.683 27.7071 172.293C27.3166 171.902 26.6834 171.902 26.2929 172.293L24 174.586L21.7071 172.293Z" fill="#CA6460"/>
<defs>
<filter id="filter0_d_1_8272" x="32.2139" y="61.3335" width="235.641" height="84" filterUnits="userSpaceOnUse" color-interpolation-filters="sRGB">
<feFlood flood-opacity="0" result="BackgroundImageFix"/>
<feColorMatrix in="SourceAlpha" type="matrix" values="0 0 0 0 0 0 0 0 0 0 0 0 0 0 0 0 0 0 127 0" result="hardAlpha"/>
<feOffset dy="4"/>
<feGaussianBlur stdDeviation="2"/>
<feComposite in2="hardAlpha" operator="out"/>
<feColorMatrix type="matrix" values="0 0 0 0 0 0 0 0 0 0 0 0 0 0 0 0 0 0 0.5 0"/>
<feBlend mode="normal" in2="BackgroundImageFix" result="effect1_dropShadow_1_8272"/>
<feBlend mode="normal" in="SourceGraphic" in2="effect1_dropShadow_1_8272" result="shape"/>
</filter>
</defs>
</svg>
