<svg width="302" height="202" viewBox="0 0 302 202" fill="none" xmlns="http://www.w3.org/2000/svg">
<path d="M293 0.5C297.694 0.5 301.5 4.30558 301.5 9V193C301.5 197.694 297.694 201.5 293 201.5H9C4.30558 201.5 0.5 197.694 0.5 193V9C0.500002 4.30558 4.30558 0.5 9 0.5H293Z" fill="#1E2D45"/>
<path d="M293 0.5C297.694 0.5 301.5 4.30558 301.5 9V193C301.5 197.694 297.694 201.5 293 201.5H9C4.30558 201.5 0.5 197.694 0.5 193V9C0.500002 4.30558 4.30558 0.5 9 0.5H293Z" stroke="#ABB0C0"/>
<path d="M1 9C1 4.58173 4.58172 1 9 1H293C297.418 1 301 4.58172 301 9V193C301 197.418 297.418 201 293 201H8.99999C4.58171 201 1 197.418 1 193V9Z" fill="#1E2D45"/>
<path d="M74.8599 137C94.7421 137 110.86 120.882 110.86 101C110.86 81.1178 94.7421 65 74.8599 65C54.9776 65 38.8599 81.1178 38.8599 101C38.8599 120.882 54.9776 137 74.8599 137Z" fill="#F1D6C8"/>
<path d="M62.6801 79.6291C62.447 77.7139 61.9162 75.7706 60.7686 74.196C60.6038 73.9753 60.424 73.767 60.2311 73.5717C60.0697 73.3882 60.3329 73.1491 60.5 73.3299C61.9644 75 62.5394 77.4611 62.6801 79.6291Z" fill="#F7E8A4"/>
<path style="mix-blend-mode:multiply" opacity="0.8" d="M60.3693 74.1766C60.7677 74.1766 61.0906 73.8536 61.0906 73.4552C61.0906 73.0568 60.7677 72.7339 60.3693 72.7339C59.9709 72.7339 59.6479 73.0568 59.6479 73.4552C59.6479 73.8536 59.9709 74.1766 60.3693 74.1766Z" fill="url(#paint0_radial_1_8340)"/>
<path d="M63.4927 81.5851C61.5902 79.0206 58.6764 74.6952 55.7863 73.4016C55.6952 73.3581 55.5542 73.3058 55.4605 73.268C55.3249 73.2214 55.2535 73.0701 55.3068 72.9364C55.358 72.8068 55.5044 72.7435 55.634 72.7944C55.637 72.7958 55.6406 72.7971 55.6437 72.7985L55.8201 72.8768C55.865 72.8956 55.9514 72.9371 55.9943 72.9595C58.9299 74.424 61.6441 78.8572 63.4927 81.5848V81.5851Z" fill="white"/>
<path d="M61.8111 80.2974C60.6517 78.7553 59.2201 77.3377 57.4389 76.5477C57.1857 76.4392 56.9258 76.3485 56.6613 76.2758C56.4295 76.1978 56.538 75.8589 56.7734 75.9322C58.8768 76.6462 60.6052 78.49 61.8111 80.2974Z" fill="#F7E8A4"/>
<path style="mix-blend-mode:multiply" opacity="0.8" d="M55.5811 73.9341C56.0897 73.9341 56.502 73.5218 56.502 73.0132C56.502 72.5046 56.0897 72.0923 55.5811 72.0923C55.0725 72.0923 54.6602 72.5046 54.6602 73.0132C54.6602 73.5218 55.0725 73.9341 55.5811 73.9341Z" fill="url(#paint1_radial_1_8340)"/>
<path style="mix-blend-mode:multiply" opacity="0.8" d="M56.7228 76.827C57.1212 76.827 57.4441 76.504 57.4441 76.1056C57.4441 75.7072 57.1212 75.3843 56.7228 75.3843C56.3244 75.3843 56.0015 75.7072 56.0015 76.1056C56.0015 76.504 56.3244 76.827 56.7228 76.827Z" fill="url(#paint2_radial_1_8340)"/>
<path d="M63.4926 81.5853C60.5617 80.3154 55.8783 78.0268 52.7271 78.351C52.6263 78.3587 52.4783 78.3841 52.3781 78.3982C52.2372 78.4256 52.0998 78.3302 52.0794 78.1879C52.059 78.0502 52.1541 77.922 52.2917 77.9015C52.2948 77.9012 52.2991 77.9005 52.3021 77.9002L52.4943 77.8798C52.5426 77.8737 52.638 77.8664 52.6866 77.8644C55.9611 77.6648 60.5282 80.1469 63.4929 81.5849L63.4926 81.5853Z" fill="white"/>
<path d="M61.3921 81.311C59.6169 80.5551 57.6685 80.0434 55.7309 80.2497C55.4573 80.2822 55.187 80.3338 54.9215 80.4031C54.6817 80.4513 54.6063 80.1034 54.8468 80.0495C57.0252 79.6161 59.4441 80.3488 61.3921 81.311Z" fill="#F7E8A4"/>
<path style="mix-blend-mode:multiply" opacity="0.8" d="M52.3545 79.0381C52.8631 79.0381 53.2755 78.6258 53.2755 78.1172C53.2755 77.6086 52.8631 77.1963 52.3545 77.1963C51.8459 77.1963 51.4336 77.6086 51.4336 78.1172C51.4336 78.6258 51.8459 79.0381 52.3545 79.0381Z" fill="url(#paint3_radial_1_8340)"/>
<path style="mix-blend-mode:multiply" opacity="0.8" d="M54.8898 80.9461C55.2882 80.9461 55.6111 80.6231 55.6111 80.2248C55.6111 79.8264 55.2882 79.5034 54.8898 79.5034C54.4914 79.5034 54.1685 79.8264 54.1685 80.2248C54.1685 80.6231 54.4914 80.9461 54.8898 80.9461Z" fill="url(#paint4_radial_1_8340)"/>
<path d="M63.4925 81.5854C60.3192 81.9511 55.1191 82.3111 52.5522 84.1674C52.4688 84.2243 52.3533 84.3204 52.2736 84.3831C52.1654 84.4775 51.9987 84.4634 51.9096 84.3502C51.8232 84.2411 51.8413 84.0827 51.9501 83.9959C51.9528 83.9939 51.9558 83.9916 51.9585 83.9896L52.1149 83.8757C52.1537 83.8462 52.2327 83.7923 52.2736 83.7665C55.0096 81.9565 60.206 81.8222 63.4925 81.5854Z" fill="white"/>
<path d="M61.5363 82.3979C59.6211 82.631 57.6778 83.1618 56.1032 84.3095C55.8825 84.4742 55.6742 84.6541 55.479 84.847C55.2954 85.0084 55.0563 84.7451 55.2372 84.578C56.9072 83.1136 59.3683 82.5386 61.5363 82.3979Z" fill="#F7E8A4"/>
<path style="mix-blend-mode:multiply" opacity="0.8" d="M52.1128 85.0718C52.6214 85.0718 53.0338 84.6595 53.0338 84.1509C53.0338 83.6423 52.6214 83.23 52.1128 83.23C51.6042 83.23 51.1919 83.6423 51.1919 84.1509C51.1919 84.6595 51.6042 85.0718 52.1128 85.0718Z" fill="url(#paint5_radial_1_8340)"/>
<path style="mix-blend-mode:multiply" opacity="0.8" d="M55.3625 85.43C55.7608 85.43 56.0838 85.107 56.0838 84.7086C56.0838 84.3103 55.7608 83.9873 55.3625 83.9873C54.9641 83.9873 54.6411 84.3103 54.6411 84.7086C54.6411 85.107 54.9641 85.43 55.3625 85.43Z" fill="url(#paint6_radial_1_8340)"/>
<path d="M63.4924 81.5854C60.9278 83.4879 56.6025 86.4017 55.3088 89.2918C55.2653 89.3829 55.213 89.5239 55.1752 89.6176C55.1286 89.7533 54.9773 89.8246 54.8437 89.7713C54.7141 89.7201 54.6508 89.5738 54.7017 89.4442C54.703 89.4412 54.7043 89.4375 54.7057 89.4345L54.7841 89.258C54.8028 89.2131 54.8443 89.1267 54.8668 89.0838C56.3312 86.1482 60.7644 83.434 63.492 81.5854H63.4924Z" fill="white"/>
<path d="M62.2041 83.2671C60.662 84.4265 59.2444 85.8581 58.4544 87.6393C58.3459 87.8925 58.2552 88.1524 58.1825 88.4169C58.1045 88.6487 57.7656 88.5402 57.8389 88.3047C58.5529 86.2013 60.3968 84.473 62.2041 83.2671Z" fill="#F7E8A4"/>
<path style="mix-blend-mode:multiply" opacity="0.8" d="M54.92 90.418C55.4286 90.418 55.8409 90.0057 55.8409 89.4971C55.8409 88.9885 55.4286 88.5762 54.92 88.5762C54.4113 88.5762 53.999 88.9885 53.999 89.4971C53.999 90.0057 54.4113 90.418 54.92 90.418Z" fill="url(#paint7_radial_1_8340)"/>
<path style="mix-blend-mode:multiply" opacity="0.8" d="M58.0128 89.0765C58.4112 89.0765 58.7342 88.7535 58.7342 88.3551C58.7342 87.9567 58.4112 87.6338 58.0128 87.6338C57.6145 87.6338 57.2915 87.9567 57.2915 88.3551C57.2915 88.7535 57.6145 89.0765 58.0128 89.0765Z" fill="url(#paint8_radial_1_8340)"/>
<path d="M63.4925 81.5853C62.2226 84.5162 59.934 89.1996 60.2582 92.3508C60.2659 92.4516 60.2913 92.5996 60.3054 92.6998C60.3329 92.8407 60.2374 92.978 60.0951 92.9985C59.9575 93.0189 59.8292 92.9238 59.8088 92.7862C59.8084 92.7831 59.8078 92.7788 59.8074 92.7758L59.787 92.5835C59.781 92.5353 59.7736 92.4399 59.7716 92.3913C59.572 89.1168 62.0542 84.5497 63.4922 81.585L63.4925 81.5853Z" fill="white"/>
<path d="M63.2182 83.6855C62.4624 85.4608 61.9507 87.4091 62.1569 89.3468C62.1894 89.6204 62.241 89.8906 62.3103 90.1562C62.3585 90.3959 62.0106 90.4713 61.9567 90.2308C61.5233 88.0521 62.2561 85.6336 63.2182 83.6855Z" fill="#F7E8A4"/>
<path style="mix-blend-mode:multiply" opacity="0.8" d="M60.0244 93.6436C60.5331 93.6436 60.9454 93.2313 60.9454 92.7227C60.9454 92.2141 60.5331 91.8018 60.0244 91.8018C59.5158 91.8018 59.1035 92.2141 59.1035 92.7227C59.1035 93.2313 59.5158 93.6436 60.0244 93.6436Z" fill="url(#paint9_radial_1_8340)"/>
<path style="mix-blend-mode:multiply" opacity="0.8" d="M62.132 90.9095C62.5304 90.9095 62.8533 90.5865 62.8533 90.1881C62.8533 89.7898 62.5304 89.4668 62.132 89.4668C61.7336 89.4668 61.4106 89.7898 61.4106 90.1881C61.4106 90.5865 61.7336 90.9095 62.132 90.9095Z" fill="url(#paint10_radial_1_8340)"/>
<path d="M63.9511 79.5173C63.7113 77.359 63.8479 74.8339 64.9982 72.9341C65.1258 72.7325 65.4242 72.906 65.31 73.1173C65.1533 73.3464 65.0096 73.5845 64.8847 73.8336C64.0294 75.5847 63.8459 77.5907 63.9507 79.5173H63.9511Z" fill="#F7E8A4"/>
<path style="mix-blend-mode:multiply" opacity="0.8" d="M65.1486 73.7562C65.547 73.7562 65.8699 73.4332 65.8699 73.0348C65.8699 72.6364 65.547 72.3135 65.1486 72.3135C64.7502 72.3135 64.4272 72.6364 64.4272 73.0348C64.4272 73.4332 64.7502 73.7562 65.1486 73.7562Z" fill="url(#paint11_radial_1_8340)"/>
<path d="M63.4927 81.5855C64.8349 78.5812 66.7347 73.7392 69.3706 71.7838C69.4077 71.755 69.4878 71.6974 69.5273 71.6719L69.6874 71.5638C69.8029 71.4857 69.9593 71.5162 70.0373 71.6317C70.1173 71.7496 70.0825 71.912 69.9613 71.987C69.8702 72.044 69.7383 72.121 69.6522 72.1826C67.0324 73.9615 64.921 78.7226 63.4927 81.5855Z" fill="white"/>
<path d="M64.9238 80.0237C65.7952 78.0349 67.1763 75.916 69.1223 74.8464C69.3336 74.7356 69.5054 75.035 69.3008 75.1609C69.0503 75.2808 68.8071 75.4154 68.5744 75.5688C66.9582 76.6575 65.7962 78.3031 64.9238 80.0237Z" fill="#F7E8A4"/>
<path style="mix-blend-mode:multiply" opacity="0.8" d="M69.7867 72.6846C70.2953 72.6846 70.7076 72.2723 70.7076 71.7637C70.7076 71.2551 70.2953 70.8428 69.7867 70.8428C69.278 70.8428 68.8657 71.2551 68.8657 71.7637C68.8657 72.2723 69.278 72.6846 69.7867 72.6846Z" fill="url(#paint12_radial_1_8340)"/>
<path style="mix-blend-mode:multiply" opacity="0.8" d="M69.2023 75.7298C69.6007 75.7298 69.9236 75.4068 69.9236 75.0084C69.9236 74.6101 69.6007 74.2871 69.2023 74.2871C68.8039 74.2871 68.481 74.6101 68.481 75.0084C68.481 75.4068 68.8039 75.7298 69.2023 75.7298Z" fill="url(#paint13_radial_1_8340)"/>
<path d="M63.4927 81.5855C66.1573 79.6549 70.2235 76.4113 73.4839 76.0359C73.5305 76.0295 73.6286 76.0198 73.6758 76.0174L73.8687 76.004C74.0077 75.9943 74.1279 76.0991 74.1376 76.2378C74.148 76.3801 74.0368 76.503 73.8942 76.5074C73.787 76.5111 73.6343 76.5117 73.5285 76.5221C70.3702 76.7528 66.161 79.8204 63.4927 81.5855Z" fill="white"/>
<path d="M65.5127 80.9487C67.2628 79.6618 69.5159 78.5178 71.7375 78.5644C71.976 78.5741 71.9749 78.9193 71.7348 78.926C71.4582 78.9046 71.1799 78.8996 70.902 78.916C68.958 79.0509 67.1288 79.8949 65.513 80.9491L65.5127 80.9487Z" fill="#F7E8A4"/>
<path style="mix-blend-mode:multiply" opacity="0.8" d="M73.854 77.1475C74.3627 77.1475 74.775 76.7352 74.775 76.2266C74.775 75.718 74.3627 75.3057 73.854 75.3057C73.3454 75.3057 72.9331 75.718 72.9331 76.2266C72.9331 76.7352 73.3454 77.1475 73.854 77.1475Z" fill="url(#paint14_radial_1_8340)"/>
<path style="mix-blend-mode:multiply" opacity="0.8" d="M71.7257 79.4656C72.1241 79.4656 72.4471 79.1427 72.4471 78.7443C72.4471 78.3459 72.1241 78.0229 71.7257 78.0229C71.3273 78.0229 71.0044 78.3459 71.0044 78.7443C71.0044 79.1427 71.3273 79.4656 71.7257 79.4656Z" fill="url(#paint15_radial_1_8340)"/>
<path d="M63.4927 81.5851C66.7655 81.2452 71.909 80.4696 74.9199 81.7746C74.9634 81.7924 75.0532 81.8329 75.0954 81.8547L75.2692 81.9394C75.3944 82.0003 75.4464 82.1514 75.3854 82.2763C75.3231 82.4045 75.1654 82.4555 75.0398 82.3881C74.945 82.3376 74.8124 82.2619 74.716 82.218C71.8654 80.8386 66.6861 81.3909 63.4927 81.5851Z" fill="white"/>
<path d="M65.5601 82.0438C67.7184 81.804 70.2434 81.9407 72.1432 83.091C72.3448 83.2186 72.1713 83.517 71.96 83.4028C71.731 83.2461 71.4929 83.1024 71.2437 82.9775C69.4926 82.1222 67.4866 81.9387 65.5601 82.0435V82.0438Z" fill="#F7E8A4"/>
<path style="mix-blend-mode:multiply" opacity="0.8" d="M75.1451 83.046C75.6537 83.046 76.066 82.6336 76.066 82.125C76.066 81.6164 75.6537 81.2041 75.1451 81.2041C74.6364 81.2041 74.2241 81.6164 74.2241 82.125C74.2241 82.6336 74.6364 83.046 75.1451 83.046Z" fill="url(#paint16_radial_1_8340)"/>
<path style="mix-blend-mode:multiply" opacity="0.8" d="M72.0431 83.9627C72.4415 83.9627 72.7645 83.6397 72.7645 83.2414C72.7645 82.843 72.4415 82.52 72.0431 82.52C71.6447 82.52 71.3218 82.843 71.3218 83.2414C71.3218 83.6397 71.6447 83.9627 72.0431 83.9627Z" fill="url(#paint17_radial_1_8340)"/>
<path d="M63.4925 81.5854C66.4968 82.9277 71.3389 84.8275 73.2942 87.4633C73.323 87.5005 73.3806 87.5805 73.4061 87.6201L73.5143 87.7801C73.5919 87.8957 73.5618 88.0521 73.4463 88.1301C73.3284 88.2101 73.166 88.1753 73.091 88.0541C73.034 87.963 72.957 87.831 72.8954 87.745C71.1165 85.1252 66.3551 83.0137 63.4922 81.5854H63.4925Z" fill="white"/>
<path d="M65.0537 83.0161C67.0426 83.8875 69.1614 85.2685 70.231 87.2146C70.3419 87.4259 70.0425 87.5977 69.9166 87.393C69.7967 87.1426 69.662 86.8994 69.5087 86.6667C68.42 85.0505 66.7743 83.8885 65.0537 83.0161Z" fill="#F7E8A4"/>
<path style="mix-blend-mode:multiply" opacity="0.8" d="M73.314 88.8004C73.8226 88.8004 74.2349 88.388 74.2349 87.8794C74.2349 87.3708 73.8226 86.9585 73.314 86.9585C72.8054 86.9585 72.3931 87.3708 72.3931 87.8794C72.3931 88.388 72.8054 88.8004 73.314 88.8004Z" fill="url(#paint18_radial_1_8340)"/>
<path style="mix-blend-mode:multiply" opacity="0.8" d="M70.0695 88.0164C70.4679 88.0164 70.7908 87.6935 70.7908 87.2951C70.7908 86.8967 70.4679 86.5737 70.0695 86.5737C69.6711 86.5737 69.3481 86.8967 69.3481 87.2951C69.3481 87.6935 69.6711 88.0164 70.0695 88.0164Z" fill="url(#paint19_radial_1_8340)"/>
<path d="M63.4927 81.5854C65.4233 84.2501 68.667 88.3163 69.0424 91.5767C69.0487 91.6233 69.0584 91.7214 69.0608 91.7686L69.0742 91.9615C69.0839 92.1005 68.9791 92.2207 68.8404 92.2304C68.6981 92.2408 68.5752 92.1296 68.5709 91.9869C68.5672 91.8798 68.5665 91.7267 68.5561 91.6212C68.3254 88.463 65.2578 84.2538 63.4927 81.5854Z" fill="white"/>
<path d="M64.1292 83.6055C65.4162 85.3556 66.5602 87.6087 66.5136 89.8303C66.5039 90.0687 66.1586 90.0677 66.1519 89.8276C66.1734 89.551 66.1784 89.2727 66.162 88.9948C66.027 87.0508 65.1831 85.2216 64.1289 83.6058L64.1292 83.6055Z" fill="#F7E8A4"/>
<path style="mix-blend-mode:multiply" opacity="0.8" d="M68.8511 92.8677C69.3597 92.8677 69.772 92.4554 69.772 91.9468C69.772 91.4382 69.3597 91.0259 68.8511 91.0259C68.3425 91.0259 67.9302 91.4382 67.9302 91.9468C67.9302 92.4554 68.3425 92.8677 68.8511 92.8677Z" fill="url(#paint20_radial_1_8340)"/>
<path style="mix-blend-mode:multiply" opacity="0.8" d="M66.3336 90.5398C66.732 90.5398 67.055 90.2169 67.055 89.8185C67.055 89.4201 66.732 89.0972 66.3336 89.0972C65.9353 89.0972 65.6123 89.4201 65.6123 89.8185C65.6123 90.2169 65.9353 90.5398 66.3336 90.5398Z" fill="url(#paint21_radial_1_8340)"/>
<path d="M63.4456 81.5896L62.0638 68.858C62.0454 68.6889 62.1677 68.5369 62.3368 68.5184C62.5059 68.5 62.6579 68.6223 62.6764 68.7914C62.6777 68.7977 63.538 81.5722 63.539 81.5812C63.5407 81.607 63.5213 81.6295 63.4955 81.6311C63.4704 81.6328 63.4483 81.6147 63.4456 81.5896Z" fill="white"/>
<path style="mix-blend-mode:multiply" opacity="0.8" d="M62.3441 69.8826C62.9236 69.8826 63.3933 69.4128 63.3933 68.8334C63.3933 68.2539 62.9236 67.7842 62.3441 67.7842C61.7647 67.7842 61.2949 68.2539 61.2949 68.8334C61.2949 69.4128 61.7647 69.8826 62.3441 69.8826Z" fill="url(#paint22_radial_1_8340)"/>
<path d="M96.3735 91.9448C98.4786 90.0617 100.693 87.021 99.6205 85.5211C98.5475 84.0211 92.7798 84.0245 90.7883 84.4263C88.2033 81.9807 85.5246 79.1831 78.4662 80.9362C77.0708 79.317 73.9088 77.1125 72.7494 77.6309C70.4253 78.5963 69.478 83.9126 69.478 83.9126C62.941 85.6265 56.5277 88.9838 54.9487 89.8933C51.9974 91.481 48.9359 94.5854 50.0306 99.1733C47.2983 101.678 46.654 113.007 54.9182 115.33C58.2794 120.178 61.1842 119.959 64.9242 119.893C66.0903 122.775 70.5057 126.37 76.686 122.575C80.8737 123.481 85.9583 123.696 89.8546 119.738C95.1589 119.554 101.661 114.897 99.8774 107.128C103.124 102.501 96.8959 92.9113 96.3738 91.9448H96.3735Z" fill="#010B13"/>
<path d="M88.9767 119.001C88.9338 119.046 88.8893 119.09 88.8447 119.135C88.8889 119.091 88.9328 119.047 88.9767 119.001Z" fill="white"/>
<path d="M99.0702 100.399C94.8118 89.1168 88.6509 83.0424 85.212 81.9909C81.4164 80.8221 77.5978 82.3294 68.8329 85.2908C59.5415 88.4303 53.1673 91.1057 51.4765 95.0051C49.8426 98.7729 52.8639 103.531 56.5523 104.331C56.4941 103.806 56.5865 103.055 56.6059 102.935C56.7077 102.299 57.8842 97.0368 63.8913 94.7519C60.2622 96.7857 55.7051 102.02 58.2003 106.751C59.5077 108.416 61.735 109.67 65.3926 108.73C65.7141 103.859 69.5073 97.8734 74.2988 93.8719C71.1111 97.6041 67.213 102.807 66.6625 107.769C66.6186 108.157 66.6079 109.923 67.5667 111.181C70.6081 114.023 76.3343 115.218 79.813 111.343C83.3179 107.034 82.4918 99.0589 81.9908 94.8966C83.5296 100.442 83.7817 106.728 81.3079 110.893C83.335 112.964 87.0666 113.314 90.4496 110.55C92.694 105.338 92.6474 98.6728 88.0803 92.5457C92.7955 98.1299 93.2623 102.755 91.8173 109.946C96.1872 108.765 101.316 107.495 99.0709 100.399L99.0702 100.399Z" fill="#ABB0C0"/>
<path d="M55.0414 109.591C52.9648 108.986 49.5868 106.221 49.6873 102.576C49.2004 104.718 48.5098 112.081 55.593 114.381C54.8549 112.855 54.8599 111.069 55.0414 109.591Z" fill="#ABB0C0"/>
<path d="M64.1347 114.566C61.6047 114.743 56.9414 112.51 56.4039 109.542C55.7204 110.364 54.8561 113.518 56.7593 115.952C59.2354 118.91 61.6586 118.964 65.1776 118.746C64.3648 117.242 64.0942 115.819 64.1351 114.567L64.1347 114.566Z" fill="#ABB0C0"/>
<path d="M90.1138 115.279C90.1138 115.279 90.1138 115.278 90.1138 115.277C88.4022 117.147 83.7001 118.319 79.5254 116.386C79.4568 117.551 78.141 120.291 76.7412 121.363C79.4678 121.997 84.7771 123.16 88.8094 119.17C89.7293 117.823 90.0686 116.463 90.1141 115.278L90.1138 115.279Z" fill="#ABB0C0"/>
<path d="M65.0229 114.627C64.8327 116.558 65.1274 117.956 65.547 119.093C66.6501 121.39 70.4882 125.15 76.3758 121.534C77.8868 120.253 78.2542 118.242 78.2156 116.84C75.4301 118.952 67.3446 118.861 65.0229 114.627Z" fill="#ABB0C0"/>
<path d="M91.0572 114.963V114.963C91.0348 115.769 90.7498 117.042 89.3125 118.654C94.3173 118.59 98.0744 115.164 98.7552 111.619C97.2586 113.961 93.7926 115.412 91.0572 114.963Z" fill="#ABB0C0"/>
<path d="M65.4465 118.804C65.4384 118.78 65.4301 118.755 65.4224 118.731C65.4304 118.755 65.4384 118.78 65.4465 118.804Z" fill="#717071"/>
<path d="M76.376 121.534C76.9027 121.211 77.2122 120.683 77.4727 120.173C77.2021 120.67 76.8441 121.138 76.376 121.534Z" fill="#717071"/>
<path d="M49.4984 106.857C49.8453 109.693 51.2736 112.979 55.5929 114.382C55.316 113.809 55.1435 113.199 55.0457 112.583C51.5271 112.521 49.8688 108.587 49.498 106.857L49.4984 106.857Z" fill="#858B97"/>
<path d="M55.6284 113.042C55.7152 114.005 56.0387 115.031 56.7597 115.953C59.2358 118.911 61.659 118.964 65.178 118.746C64.9546 118.333 64.7738 117.926 64.6274 117.527C58.2197 118.387 56.3451 114.882 55.6288 113.043L55.6284 113.042Z" fill="#858B97"/>
<path d="M77.4727 120.173C77.5005 120.118 77.5286 120.064 77.5554 120.009C76.1137 121.1 74.6285 122.006 71.4391 121.869C67.5712 121.561 65.7223 119.607 65.147 117.692C65.1701 117.807 65.1955 117.918 65.222 118.028C65.2283 118.055 65.2347 118.081 65.2414 118.107C65.2957 118.324 65.3563 118.531 65.4212 118.731C65.4293 118.755 65.4373 118.78 65.4454 118.804C65.4782 118.902 65.5117 118.999 65.5465 119.093C66.6496 121.39 70.4877 125.149 76.3753 121.534C76.8435 121.137 77.2014 120.67 77.472 120.172L77.4727 120.173Z" fill="#858B97"/>
<path d="M88.8096 119.17C89.1481 118.675 89.4077 118.177 89.6032 117.688C85.1871 121.984 79.3293 120.711 78.0491 119.887C77.6496 120.482 77.2005 121.013 76.7417 121.364C79.4683 121.998 84.7772 123.161 88.8096 119.17Z" fill="#858B97"/>
<path d="M90.2698 117.38C90.0283 117.776 89.7155 118.202 89.312 118.654C93.3996 118.602 96.6537 116.307 98.0806 113.536C96.5348 116.453 91.6197 117.519 90.2698 117.38V117.38Z" fill="#858B97"/>
<path d="M50.5279 100.477C50.0054 101.164 49.841 101.966 49.841 101.966C49.7081 104.179 52.8215 109.381 56.8026 108.866C56.972 111.775 62.4457 114.979 64.9644 113.543C66.7044 117.675 75.608 118.742 79.1125 115.351C81.2317 117.299 88.7599 117.067 90.3174 113.956C92.7118 115.247 97.9454 113.013 98.9524 110.263C99.1647 109.23 98.8626 108.201 98.8626 108.201C97.779 109.535 94.1562 112.205 91.3532 111.3C89.2515 113.228 84.4516 115.134 80.7712 112.017C76.5333 117.401 66.5594 114.512 65.6653 109.85C62.8754 110.599 57.6321 110.348 56.4613 105.496C55.5957 105.134 52.5948 104.63 50.5279 100.477Z" fill="#1A2544"/>
<path d="M70.7896 83.4308C72.2945 82.8622 75.4166 81.8846 77.2615 81.3505C76.1919 80.2457 73.8427 78.5546 73.1793 78.7002C72.2255 78.9638 71.1214 81.8729 70.7896 83.4308Z" fill="white"/>
<path d="M91.707 85.4317C93.7957 87.72 95.4477 90.4275 95.7852 90.9292C97.235 89.7062 99.2416 86.6031 98.6237 86.1484C97.4252 85.2659 93.1892 85.2241 91.707 85.4317Z" fill="white"/>
<path d="M68.1834 85.5111C68.0695 85.55 67.956 85.5888 67.8431 85.6274C67.7868 85.6464 67.7309 85.6659 67.675 85.685C67.5621 85.7238 67.4496 85.7623 67.3374 85.8012C67.2865 85.8186 67.2356 85.8363 67.1851 85.8537C67.027 85.9083 66.8693 85.9629 66.7132 86.0175C66.7079 86.0195 66.7025 86.0212 66.6971 86.0232C66.5441 86.0764 66.3921 86.1297 66.241 86.1829C66.1915 86.2003 66.1426 86.2178 66.093 86.2352C65.9848 86.2733 65.8767 86.3115 65.7695 86.3497C65.7166 86.3684 65.664 86.3872 65.6111 86.406C65.5026 86.4448 65.3944 86.4833 65.2869 86.5218C65.2407 86.5386 65.1942 86.555 65.1483 86.5717C64.8459 86.6806 64.5472 86.7894 64.2528 86.8979C64.2076 86.9146 64.1631 86.9311 64.1182 86.9478C64.015 86.986 63.9122 87.0242 63.8101 87.0623C63.7602 87.0807 63.7106 87.0995 63.6611 87.1179C63.5586 87.1564 63.4568 87.1946 63.3553 87.2331C63.3121 87.2495 63.2689 87.2656 63.2257 87.282C63.0831 87.3363 62.9411 87.3905 62.8004 87.4444H62.7998C62.6601 87.4984 62.5215 87.5523 62.3838 87.6058C62.343 87.6219 62.3025 87.6377 62.2619 87.6537C62.1635 87.6926 62.0654 87.7311 61.9679 87.7699C61.9227 87.788 61.8775 87.8058 61.8323 87.8239C61.7355 87.8624 61.6397 87.9009 61.5443 87.9397C61.5044 87.9558 61.4642 87.9719 61.4244 87.9883C61.1578 88.0965 60.8959 88.2046 60.6384 88.3131C60.6016 88.3285 60.5647 88.3443 60.5282 88.3597C60.4355 88.3989 60.3434 88.438 60.252 88.4772C60.2108 88.495 60.1696 88.5127 60.1284 88.5305C60.0373 88.57 59.9466 88.6092 59.8568 88.6487C59.8213 88.6641 59.7858 88.6795 59.7506 88.6952C59.5035 88.8041 59.2607 88.9132 59.0229 89.0227C58.9888 89.0385 58.955 89.0542 58.9208 89.07C58.8354 89.1095 58.7507 89.149 58.6663 89.1888C58.6284 89.2066 58.5906 89.2243 58.5531 89.2424C58.4694 89.2823 58.386 89.3221 58.3036 89.362C58.2711 89.3777 58.2383 89.3935 58.2058 89.4092C57.9791 89.5194 57.7571 89.6302 57.5397 89.7414C57.5089 89.7571 57.4785 89.7732 57.4476 89.789C57.3696 89.8291 57.2919 89.8697 57.2152 89.9098C57.1811 89.9279 57.1469 89.946 57.1128 89.9641C57.0361 90.005 56.9601 90.0455 56.8847 90.0863C56.8556 90.1021 56.8264 90.1178 56.7976 90.1336C56.592 90.2457 56.3914 90.3589 56.1959 90.4725C56.1677 90.4889 56.1399 90.5053 56.1118 90.5217C56.0418 90.5629 55.9721 90.6037 55.9035 90.6453C55.873 90.6637 55.8425 90.6821 55.8121 90.7005C55.7431 90.7424 55.6748 90.7846 55.6068 90.8264C55.5813 90.8422 55.5552 90.8582 55.5301 90.874C55.4377 90.9319 55.3466 90.9898 55.2568 91.0481C58.9536 89.3057 71.557 84.6692 77.8665 89.3774C84.1761 94.0855 92.4407 88.5804 88.1019 83.6247C87.0242 82.7879 86.039 82.2437 85.2119 81.9909C81.4163 80.8221 77.5976 82.3294 68.8327 85.2908C68.6679 85.3464 68.5045 85.402 68.3417 85.4572C68.2888 85.4753 68.2363 85.4931 68.1834 85.5111Z" fill="white"/>
<path d="M69.8767 98.4917C66.1816 103.143 65.2225 106.627 62.9563 107.037C61.149 107.364 58.9833 107.586 57.5728 104.922C57.6779 105.535 57.8812 106.147 58.1997 106.751C59.507 108.416 61.7344 109.671 65.392 108.73C65.6046 105.506 67.3393 101.794 69.8771 98.4917H69.8767Z" fill="#858B97"/>
<path d="M66.812 109.511C66.944 110.066 67.1737 110.667 67.5662 111.182C70.6076 114.023 76.3338 115.218 79.8125 111.343C81.778 108.927 82.3811 105.358 82.4437 101.955C80.1347 114.005 68.5691 114.589 66.812 109.511Z" fill="#858B97"/>
<path d="M90.7039 109.922C90.7448 109.817 90.7853 109.711 90.8242 109.605C90.8476 109.54 90.87 109.475 90.8928 109.41C90.9266 109.314 90.9601 109.218 90.9923 109.121C91.0157 109.051 91.0381 108.98 91.0609 108.909C91.0904 108.817 91.1195 108.724 91.1477 108.631C91.1701 108.557 91.1919 108.482 91.2133 108.408C91.2394 108.317 91.2645 108.227 91.289 108.136C91.3101 108.058 91.3305 107.981 91.3506 107.903C91.3734 107.814 91.3951 107.724 91.4166 107.635C91.4357 107.554 91.4551 107.474 91.4732 107.393C91.4929 107.306 91.5113 107.217 91.5298 107.129C91.5472 107.046 91.5649 106.963 91.581 106.88C91.5977 106.794 91.6125 106.708 91.6279 106.621C91.6433 106.534 91.6597 106.448 91.6738 106.361C91.6858 106.287 91.6959 106.212 91.7069 106.137C91.7374 105.933 91.7645 105.727 91.788 105.521C91.7943 105.463 91.802 105.406 91.808 105.349C91.8191 105.24 91.8281 105.131 91.8372 105.022C91.8429 104.956 91.8489 104.89 91.8539 104.824C91.862 104.715 91.8677 104.605 91.8737 104.495C91.8774 104.429 91.8811 104.363 91.8841 104.297C91.8888 104.186 91.8918 104.074 91.8945 103.962C91.8958 103.898 91.8975 103.833 91.8981 103.769C91.8995 103.654 91.8995 103.539 91.8985 103.424C91.8978 103.363 91.8971 103.302 91.8958 103.241C91.8934 103.122 91.8904 103.002 91.8854 102.883C91.8831 102.828 91.8804 102.772 91.8774 102.717C91.871 102.591 91.8643 102.465 91.8549 102.338C91.8519 102.294 91.8479 102.25 91.8442 102.206C91.8332 102.068 91.8214 101.929 91.807 101.79C91.8054 101.775 91.8034 101.759 91.8017 101.743C91.7294 101.067 91.6165 100.386 91.4594 99.7018C91.4581 99.6961 91.4571 99.69 91.4557 99.6843C91.4196 99.5283 91.3804 99.3719 91.3399 99.2155C91.3332 99.1897 91.3268 99.1636 91.3198 99.1378C91.2803 98.9888 91.2381 98.8398 91.1945 98.6907C91.1852 98.6583 91.1758 98.6258 91.1661 98.5933C91.1219 98.4463 91.0757 98.2989 91.0274 98.1519C91.0167 98.1191 91.0057 98.0863 90.995 98.0535C90.9451 97.9041 90.8931 97.7551 90.8389 97.6057C90.8288 97.5786 90.8188 97.5515 90.8088 97.5243C90.7512 97.3686 90.6919 97.2126 90.6296 97.0568C90.6246 97.0438 90.6189 97.0311 90.6139 97.018C90.2626 96.1466 89.8346 95.2763 89.3235 94.4126C91.8074 100.765 91.284 108.442 87.1512 110.63C85.6459 111.427 83.5357 111.916 81.4685 110.613C81.4678 110.613 81.4672 110.613 81.4665 110.612C81.4146 110.706 81.3627 110.801 81.3081 110.893C83.3352 112.964 87.0668 113.314 90.4498 110.55C90.5164 110.395 90.581 110.239 90.6437 110.081C90.6644 110.029 90.6842 109.975 90.7046 109.922H90.7039Z" fill="#858B97"/>
<path d="M99.07 100.399C97.0506 95.0486 94.6033 90.8703 92.2213 87.8423C96.3551 95.6819 98.6835 101.236 96.9967 105.189C96.3491 106.533 95.468 108.322 92.3666 109.131C92.3127 109.147 92.0632 109.128 92.0167 109.15C91.9718 109.392 91.8663 109.696 91.8164 109.945C93.6308 111.079 101.881 107.817 99.07 100.398V100.399Z" fill="#858B97"/>
<path d="M98.072 88.0971C95.4904 89.4789 92.8244 86.2764 91.7065 85.4321C93.7952 87.7204 95.4472 90.4279 95.7848 90.9296C96.5476 90.2859 97.4642 89.1219 98.072 88.0971Z" fill="#858B97"/>
<path d="M59.5589 97.5347C55.9415 101.192 53.4955 101.85 51.8281 100.43C52.8113 102.355 54.5869 103.905 56.5517 104.331C56.4934 103.805 56.5858 103.055 56.6052 102.935C56.6752 102.498 57.2529 99.8742 59.5589 97.5347Z" fill="#858B97"/>
<path d="M47.6676 114.802C47.2641 114.252 46.5795 107.619 46.7584 106.573C46.9369 105.527 48.259 103.853 48.7694 102.911C49.2797 101.97 48.5329 98.1974 48.3243 96.3083C48.1431 94.6687 47.3223 91.2636 47.109 90.3939C47.0779 90.267 46.973 90.1722 46.8438 90.1541C46.468 90.1015 45.6348 90.0158 44.6322 90.1039C43.6296 90.192 42.8242 90.422 42.4635 90.5392C42.3393 90.5798 42.2525 90.6913 42.2441 90.8219C42.1859 91.7153 41.9719 95.2112 42.0797 96.8575C42.204 98.7539 42.1269 102.599 42.7937 103.437C43.4604 104.274 45.0545 105.692 45.4128 106.691C45.7715 107.69 46.255 114.34 45.9537 114.953C45.6523 115.565 43.795 115.8 43.7977 116.384C43.7977 117.222 46.975 116.747 46.975 116.747C46.975 116.747 50.1869 116.66 50.0402 115.835C49.9411 115.26 48.0715 115.353 47.6676 114.802Z" fill="white"/>
<path d="M45.2764 117.15C44.6488 117.15 44.0306 117.076 43.7406 116.826C43.6033 116.708 43.5309 116.555 43.5309 116.384C43.5286 115.901 44.1113 115.66 44.7281 115.404C45.1233 115.241 45.6149 115.037 45.7144 114.835C45.9642 114.255 45.5205 107.78 45.1618 106.781C44.9341 106.146 44.0999 105.257 43.4298 104.543C43.106 104.199 42.8002 103.873 42.5849 103.602C42.0638 102.948 41.9607 100.987 41.8803 98.4908C41.8609 97.8904 41.8428 97.3231 41.8133 96.8747C41.7055 95.2297 41.9121 91.8122 41.9778 90.8042C41.9935 90.5634 42.1516 90.3598 42.381 90.2855C42.7768 90.1569 43.5929 89.9275 44.6086 89.8381C45.625 89.7487 46.4682 89.8321 46.8804 89.89C47.1192 89.9235 47.3104 90.0963 47.3677 90.3304C47.6085 91.3116 48.4082 94.6407 48.589 96.2789C48.6386 96.7256 48.7193 97.2872 48.805 97.882C49.1613 100.353 49.4025 102.302 49.0033 103.038C48.8385 103.342 48.5944 103.716 48.3359 104.112C47.8004 104.932 47.134 105.953 47.0208 106.617C46.8419 107.664 47.5345 114.113 47.8828 114.645C48.0167 114.826 48.5354 114.941 48.9524 115.032C49.6044 115.176 50.2202 115.312 50.3023 115.79C50.3321 115.957 50.2872 116.12 50.173 116.26C49.6503 116.902 47.4735 116.999 46.998 117.013C46.7452 117.05 46.0044 117.15 45.276 117.15L45.2764 117.15ZM45.5128 90.332C45.2486 90.332 44.9602 90.3424 44.6551 90.3692C43.6917 90.4539 42.9198 90.6709 42.5454 90.7925C42.525 90.7992 42.5109 90.8173 42.5095 90.8387C42.4442 91.8387 42.2396 95.227 42.3451 96.8395C42.3749 97.2969 42.3933 97.8683 42.4131 98.4734C42.4707 100.258 42.5494 102.701 43.0018 103.27C43.2034 103.523 43.5018 103.841 43.8179 104.178C44.5587 104.967 45.3979 105.862 45.6631 106.6C45.8634 107.158 46.0751 109.186 46.1963 110.948C46.289 112.296 46.4116 114.625 46.1926 115.07C46.0044 115.452 45.4592 115.678 44.9321 115.896C44.6722 116.004 44.0634 116.256 44.0641 116.382C44.0641 116.392 44.0641 116.401 44.0885 116.422C44.4197 116.707 45.9528 116.629 46.9354 116.483L46.9675 116.48C47.9608 116.453 49.4835 116.262 49.7601 115.923C49.7805 115.898 49.7789 115.889 49.7775 115.881C49.7558 115.756 49.1124 115.614 48.8378 115.553C48.2806 115.43 47.7046 115.303 47.4524 114.959C47.1587 114.559 46.8734 112.245 46.7294 110.901C46.5412 109.145 46.3955 107.111 46.4953 106.527C46.6276 105.753 47.298 104.726 47.8898 103.82C48.1423 103.433 48.3807 103.068 48.5348 102.783C48.881 102.145 48.5321 99.7245 48.2776 97.9577C48.1912 97.3586 48.1095 96.7926 48.0592 96.3372C47.8818 94.7311 47.0887 91.4305 46.85 90.4569C46.845 90.4358 46.8279 90.4204 46.8068 90.4178C46.5405 90.3806 46.0834 90.3317 45.5131 90.3317L45.5128 90.332Z" fill="#010B13"/>
<path d="M43.1242 103.173C43.2541 103.336 43.4269 103.529 43.6191 103.737C43.9292 104.014 45.0126 104.916 45.8913 104.839C46.8243 104.757 47.8035 103.608 47.99 103.378C48.1501 103.13 48.2938 102.9 48.3969 102.709C48.4706 102.573 48.5798 102.157 48.4826 100.899C48.4127 99.9941 48.2586 98.9245 48.1223 97.9805C48.0356 97.38 47.9539 96.8128 47.9033 96.3546C47.7302 94.7897 46.9495 91.5263 46.7141 90.5635C46.333 90.5139 45.5725 90.4456 44.6683 90.5253C43.7641 90.605 43.0284 90.8053 42.6607 90.9205C42.5971 91.9101 42.3978 95.2589 42.5006 96.8298C42.5308 97.29 42.5492 97.8626 42.5689 98.4691C42.5997 99.4222 42.6346 100.503 42.7237 101.405C42.8476 102.662 43.0281 103.052 43.1242 103.173Z" fill="white"/>
<mask id="mask0_1_8340" style="mask-type:luminance" maskUnits="userSpaceOnUse" x="42" y="90" width="7" height="15">
<path d="M43.1242 103.173C43.2541 103.336 43.4269 103.529 43.6191 103.737C43.9292 104.014 45.0126 104.916 45.8913 104.839C46.8243 104.757 47.8035 103.608 47.99 103.378C48.1501 103.13 48.2938 102.9 48.3969 102.709C48.4706 102.573 48.5798 102.157 48.4826 100.899C48.4127 99.9941 48.2586 98.9245 48.1223 97.9805C48.0356 97.38 47.9539 96.8128 47.9033 96.3546C47.7302 94.7897 46.9495 91.5263 46.7141 90.5635C46.333 90.5139 45.5725 90.4456 44.6683 90.5253C43.7641 90.605 43.0284 90.8053 42.6607 90.9205C42.5971 91.9101 42.3978 95.2589 42.5006 96.8298C42.5308 97.29 42.5492 97.8626 42.5689 98.4691C42.5997 99.4222 42.6346 100.503 42.7237 101.405C42.8476 102.662 43.0281 103.052 43.1242 103.173Z" fill="white"/>
</mask>
<g mask="url(#mask0_1_8340)">
<path d="M47.8882 95.7551C47.6873 95.4407 47.3293 95.5371 46.9673 95.4467C46.5353 95.3389 45.7145 95.4092 45.2721 95.3586C44.1512 95.23 43.4878 95.2786 42.375 95.6831L42.4256 96.0267C42.5783 96.2169 42.731 96.4075 42.8834 96.5977C42.9641 96.6985 43.0491 96.8026 43.167 96.8552C43.2675 96.9001 43.3807 96.9028 43.4905 96.9048C44.9506 96.9306 46.4931 96.9363 47.7589 96.2079C47.8329 96.1653 47.9103 96.1151 47.9418 96.0354C47.9779 95.9433 47.9418 95.8382 47.8885 95.7548L47.8882 95.7551Z" fill="#F2BAA6"/>
<path d="M48.5323 96.0874C48.477 95.987 48.4154 95.8852 48.3217 95.8192C48.1813 95.7208 47.9968 95.7204 47.8254 95.7241C46.6707 95.7479 45.5157 95.7717 44.361 95.7954C43.6273 95.8105 42.8523 95.8159 42.2157 95.4512L41.8628 95.4672C41.8393 96.0667 41.8701 96.6668 41.9009 97.2659C42.0195 99.5669 42.1548 101.938 43.1537 104.014C43.4109 104.549 43.781 105.103 44.3566 105.247C44.796 105.357 45.2524 105.202 45.7039 105.163C46.2598 105.117 46.8328 105.249 47.3713 105.102C48.0018 104.929 48.4814 104.391 48.7433 103.792C49.0052 103.193 49.0808 102.531 49.1485 101.881C49.3524 99.9179 49.483 97.8175 48.5326 96.0878L48.5323 96.0874Z" fill="url(#paint23_linear_1_8340)"/>
</g>
<path d="M43.3506 96.9292C43.486 96.9292 43.5957 96.8195 43.5957 96.6841C43.5957 96.5487 43.486 96.439 43.3506 96.439C43.2152 96.439 43.1055 96.5487 43.1055 96.6841C43.1055 96.8195 43.2152 96.9292 43.3506 96.9292Z" fill="white"/>
<path d="M44.1788 97.2885C44.1905 97.4235 44.0519 97.5189 43.9173 97.5307C43.7827 97.5424 43.6688 97.469 43.6567 97.3344C43.6447 97.1998 43.7448 97.1171 43.8798 97.105C44.0147 97.093 44.1671 97.1536 44.1788 97.2885Z" fill="white"/>
<path d="M43.4707 98.168C43.5608 98.168 43.6338 98.095 43.6338 98.0049C43.6338 97.9148 43.5608 97.8418 43.4707 97.8418C43.3806 97.8418 43.3076 97.9148 43.3076 98.0049C43.3076 98.095 43.3806 98.168 43.4707 98.168Z" fill="white"/>
<path d="M44.7626 91.1513C45.8859 91.0525 46.7853 90.8439 46.7713 90.6855C46.7574 90.527 45.8355 90.4787 44.7122 90.5775C43.5888 90.6763 42.6895 90.8848 42.7035 91.0432C42.7174 91.2017 43.6393 91.25 44.7626 91.1513Z" fill="white"/>
<path d="M43.6854 91.3026C43.5518 91.3026 43.4262 91.2995 43.3117 91.2935C42.7056 91.2617 42.6131 91.1586 42.6038 91.0517C42.5944 90.9452 42.6674 90.8274 43.2585 90.6901C43.6422 90.601 44.1553 90.5256 44.7031 90.4774C45.251 90.4292 45.7694 90.4141 46.1626 90.4349C46.7687 90.4667 46.8611 90.5698 46.8705 90.6767C46.8799 90.7831 46.8069 90.901 46.2155 91.038C45.8317 91.1271 45.3187 91.2024 44.7708 91.2506C44.383 91.2848 44.0096 91.3022 43.6851 91.3022L43.6854 91.3026ZM42.8419 91.031C43.0438 91.1003 43.7373 91.1411 44.7534 91.0517C45.7694 90.9623 46.4452 90.8012 46.6321 90.6978C46.4301 90.6284 45.7366 90.5876 44.7206 90.677C43.7045 90.7664 43.0287 90.9275 42.8419 91.031Z" fill="#010B13"/>
<path d="M90.202 85.408C90.1629 85.4026 90.1233 85.3922 90.0848 85.3758C86.7852 83.9968 83.4856 82.7855 80.1863 81.7417C80.0413 81.6958 79.9248 81.595 79.8756 81.4734C79.8263 81.3515 79.8508 81.2239 79.9409 81.1312C82.698 78.283 85.4554 74.7138 88.2128 70.4246C88.2996 70.2897 88.4352 70.1956 88.5758 70.1678C88.615 70.1601 88.6542 70.1574 88.6931 70.1604C88.8722 70.1741 89.0038 70.3061 89.0256 70.4933C89.5678 75.1344 90.1099 79.9447 90.6521 84.9241C90.6699 85.0865 90.6123 85.2389 90.4987 85.3293C90.4154 85.3956 90.3099 85.4224 90.2024 85.408H90.202Z" fill="#010B13"/>
<path d="M88.5757 70.6323C85.8182 74.9373 83.0608 78.5215 80.3037 81.3854C83.603 82.3978 86.9029 83.5779 90.2022 84.9255C89.66 79.992 89.1179 75.2276 88.5757 70.6323Z" fill="#1A2544"/>
<mask id="mask1_1_8340" style="mask-type:luminance" maskUnits="userSpaceOnUse" x="80" y="70" width="11" height="15">
<path d="M88.5757 70.6323C85.8182 74.9373 83.0608 78.5215 80.3037 81.3854C83.603 82.3978 86.9029 83.5779 90.2022 84.9255C89.66 79.992 89.1179 75.2276 88.5757 70.6323Z" fill="white"/>
</mask>
<g mask="url(#mask1_1_8340)">
<path d="M87.9222 69.021L89.3582 70.6284C89.3582 70.6284 83.0168 79.8732 81.3652 82.1216C80.3847 83.4565 79.2769 81.035 79.2769 81.035L87.9222 69.021Z" fill="url(#paint24_linear_1_8340)"/>
<path d="M85.5381 77.2354C85.7283 77.1373 85.8947 77.0281 86.0377 76.9085C86.1807 76.7887 86.2698 76.6631 86.305 76.5331C86.3261 76.4548 86.3247 76.3895 86.301 76.3382C86.2768 76.2867 86.2303 76.2542 86.161 76.2404C86.089 76.226 86.0254 76.2451 85.9694 76.2967C85.9135 76.3486 85.871 76.4317 85.8425 76.5462C85.6071 76.498 85.3717 76.4504 85.1362 76.4039C85.2029 76.1929 85.3 76.0254 85.4283 75.9009C85.5562 75.7766 85.7012 75.6936 85.8633 75.6527C86.0254 75.6122 86.1941 75.6075 86.3703 75.6403C86.675 75.6973 86.8817 75.8165 86.9898 75.9987C87.098 76.1805 87.1201 76.3945 87.0555 76.6363C86.9865 76.8958 86.8354 77.1188 86.6027 77.3034C86.3699 77.4879 86.1007 77.6362 85.7953 77.7491C86.1051 77.8214 86.4148 77.8951 86.7246 77.9701C86.6717 78.165 86.6191 78.3596 86.5662 78.5532C85.9343 78.3917 85.3023 78.2364 84.6704 78.087C84.7193 77.9155 84.7682 77.7434 84.8168 77.5706C85.1074 77.446 85.3482 77.3335 85.5384 77.2354H85.5381Z" fill="white"/>
<path d="M84.6284 80.1336C84.8186 80.0512 84.9851 79.9561 85.1281 79.849C85.2711 79.7418 85.3601 79.6253 85.3953 79.5003C85.4164 79.425 85.4151 79.3614 85.3913 79.3091C85.3672 79.2572 85.3206 79.2217 85.2513 79.2033C85.1793 79.1842 85.1153 79.1983 85.0598 79.2448C85.0038 79.2917 84.9613 79.3701 84.9328 79.4799C84.6974 79.4159 84.462 79.353 84.2266 79.291C84.2932 79.0894 84.3903 78.9324 84.5186 78.8195C84.6465 78.707 84.7915 78.6357 84.9536 78.6072C85.1157 78.5787 85.2845 78.5861 85.4606 78.6306C85.7654 78.7077 85.972 78.8389 86.0801 79.0248C86.1883 79.2107 86.2101 79.4213 86.1458 79.6537C86.0768 79.9029 85.9258 80.1105 85.693 80.2746C85.4603 80.4387 85.191 80.5649 84.8856 80.6537C85.1954 80.7464 85.5051 80.8405 85.8149 80.9363C85.762 81.1235 85.7094 81.3101 85.6565 81.4956C85.0246 81.2923 84.3927 81.0951 83.7607 80.9038C83.8096 80.7397 83.8585 80.5747 83.9071 80.4092C84.1978 80.3081 84.4382 80.215 84.6288 80.1326L84.6284 80.1336Z" fill="white"/>
<path d="M87.4182 77.2321C87.6574 77.0241 87.9631 76.9585 88.3348 77.0435C88.7065 77.1286 88.947 77.3211 89.0558 77.6209C89.1647 77.9206 89.1623 78.296 89.0478 78.7394C88.9323 79.1878 88.7548 79.512 88.5157 79.7122C88.2762 79.9125 87.9698 79.9543 87.5954 79.8458C87.221 79.7373 86.9809 79.5387 86.8744 79.2501C86.7679 78.9611 86.7726 78.6068 86.8881 78.1788C87.0023 77.7558 87.1791 77.4404 87.4182 77.2321ZM88.3931 78.0043C88.3777 77.8714 88.2966 77.787 88.1506 77.7511C88.0043 77.7153 87.8918 77.7521 87.8134 77.8603C87.7347 77.9685 87.6657 78.1352 87.6058 78.36C87.5448 78.5897 87.5211 78.7692 87.5355 78.8994C87.5499 79.0297 87.6312 79.1151 87.7799 79.156C87.9286 79.1968 88.0415 79.1643 88.1192 79.0572C88.1965 78.95 88.2658 78.7802 88.3268 78.5468C88.3867 78.3184 88.4088 78.1373 88.3931 78.0043Z" fill="white"/>
<path d="M88.2149 81.0827C87.8432 80.9638 87.4714 80.8473 87.0997 80.7327C87.0629 80.8677 87.026 81.0023 86.9892 81.1369C87.0495 81.1035 87.1245 81.085 87.2142 81.0817C87.304 81.0783 87.3984 81.0924 87.4976 81.1239C87.6761 81.1808 87.8144 81.2692 87.9128 81.3898C88.0109 81.5103 88.0709 81.6476 88.092 81.8004C88.1131 81.9531 88.1024 82.1091 88.0598 82.2668C87.9815 82.5579 87.8368 82.7561 87.6258 82.8606C87.4148 82.9654 87.162 82.9627 86.8673 82.8576C86.6617 82.7842 86.4932 82.6875 86.3623 82.5679C86.2314 82.4484 86.143 82.3154 86.0977 82.1687C86.0522 82.022 86.0502 81.871 86.0917 81.7146C86.3285 81.7923 86.5649 81.8707 86.8017 81.95C86.794 82.0076 86.8054 82.0639 86.8362 82.1188C86.867 82.1738 86.9232 82.2153 87.0049 82.2434C87.0917 82.2732 87.1654 82.2668 87.226 82.224C87.2866 82.1811 87.3301 82.1115 87.3566 82.014C87.3824 81.9192 87.3787 81.8389 87.3452 81.7736C87.3117 81.7079 87.2504 81.6607 87.161 81.6312C87.094 81.6091 87.0358 81.6078 86.9859 81.6269C86.936 81.646 86.9008 81.6785 86.88 81.724C86.6433 81.646 86.4068 81.5686 86.1701 81.4919C86.3168 80.9688 86.4638 80.4404 86.6105 79.9062C87.2029 80.0764 87.7949 80.2518 88.3873 80.433C88.3297 80.6504 88.2725 80.867 88.2149 81.0827Z" fill="white"/>
</g>
<path d="M88.1056 72.9643C87.982 72.9643 87.8688 72.8956 87.8035 72.7804C87.7167 72.6277 87.7077 72.3893 87.7737 72.0879C87.5463 72.255 87.34 72.3441 87.1729 72.3441C86.9502 72.3441 86.8407 72.196 86.8149 72.0694C86.7737 71.8689 86.91 71.624 87.1963 71.3692C87.1903 71.3692 87.1843 71.3692 87.1783 71.3692C86.473 71.3692 86.397 71.0638 86.397 70.9322C86.397 70.8294 86.4442 70.6405 86.7607 70.5283C86.8671 70.4905 86.9978 70.464 87.1464 70.4493C86.826 70.2195 86.6662 69.9835 86.6977 69.7742C86.7198 69.6275 86.8457 69.4795 87.0765 69.4795C87.2322 69.4795 87.4274 69.5478 87.6468 69.6764C87.545 69.371 87.5322 69.1248 87.6136 68.9627C87.6752 68.8398 87.7901 68.7662 87.9214 68.7662C88.1394 68.7662 88.344 68.9731 88.5077 69.3485C88.5794 69.1228 88.6712 68.9487 88.7773 68.8412C88.8872 68.7297 88.996 68.7065 89.068 68.7065C89.1916 68.7065 89.3048 68.7752 89.3701 68.8904C89.4568 69.0431 89.4658 69.2815 89.3999 69.5829C89.6276 69.4158 89.8336 69.3267 90.0007 69.3267C90.2234 69.3267 90.3325 69.4748 90.3586 69.6014C90.3998 69.8019 90.2635 70.0467 89.9772 70.3016C89.9832 70.3016 89.9893 70.3016 89.9953 70.3016C90.7006 70.3016 90.7766 70.607 90.7766 70.7386C90.7766 70.8414 90.7294 71.0303 90.4129 71.1425C90.3064 71.1803 90.1758 71.2068 90.0271 71.2215C90.3476 71.4512 90.5073 71.6873 90.4759 71.8966C90.4538 72.0433 90.3278 72.1913 90.0971 72.1913C89.9414 72.1913 89.7461 72.123 89.5268 71.9944C89.6286 72.2998 89.6413 72.546 89.56 72.7081C89.4983 72.831 89.3835 72.9046 89.2522 72.9046C89.0342 72.9046 88.8296 72.6977 88.6658 72.3223C88.5941 72.548 88.5024 72.7221 88.3962 72.8296C88.2864 72.9411 88.1776 72.9643 88.1056 72.9643Z" fill="#F3BBA7"/>
<path d="M89.0682 68.8476C89.1416 68.8476 89.2069 68.8885 89.2474 68.9598C89.3428 69.1279 89.3201 69.497 89.1155 70.0204C89.5073 69.6232 89.8194 69.4678 90.0009 69.4678C90.1382 69.4678 90.2042 69.5512 90.2202 69.6292C90.2611 69.8278 90.0186 70.1496 89.4899 70.4882C89.7032 70.453 89.8706 70.4423 89.9955 70.4423C90.3961 70.4423 90.6352 70.5528 90.6352 70.7377C90.6352 70.803 90.6 70.9249 90.3656 71.0079C90.2102 71.0629 89.9945 71.092 89.7417 71.092C89.671 71.092 89.598 71.0897 89.5227 71.0853C90.0943 71.3716 90.3666 71.6707 90.3358 71.8743C90.3231 71.9587 90.2534 72.0488 90.097 72.0488C89.9165 72.0488 89.6017 71.9185 89.1972 71.5876C89.4634 72.1003 89.5203 72.4697 89.4333 72.6439C89.3958 72.7192 89.3295 72.7621 89.2521 72.7621C89.0475 72.7621 88.8037 72.4299 88.6383 71.7999C88.5639 72.2926 88.4276 72.5956 88.2953 72.7296C88.2347 72.7909 88.1708 72.8223 88.1055 72.8223C88.0321 72.8223 87.9668 72.7815 87.9263 72.7102C87.8309 72.542 87.8536 72.173 88.0582 71.6499C87.6664 72.0471 87.3543 72.2025 87.1728 72.2025C87.0355 72.2025 86.9695 72.1191 86.9534 72.0411C86.9126 71.8425 87.155 71.5207 87.6838 71.1821C87.4705 71.2172 87.3031 71.228 87.1782 71.228C86.7776 71.228 86.5385 71.1175 86.5385 70.9326C86.5385 70.8673 86.5737 70.7454 86.8081 70.6623C86.9632 70.6074 87.1792 70.5783 87.4317 70.5783C87.5023 70.5783 87.5753 70.5806 87.6507 70.585C87.079 70.2987 86.8068 69.9996 86.8376 69.796C86.8503 69.7116 86.92 69.6215 87.0764 69.6215C87.2569 69.6215 87.5716 69.7518 87.9762 70.0827C87.71 69.57 87.653 69.2006 87.7401 69.0264C87.7776 68.9511 87.8439 68.9082 87.9213 68.9082C88.1259 68.9082 88.3697 69.2404 88.5351 69.8703C88.6095 69.3777 88.7458 69.0747 88.878 68.9407C88.9386 68.8794 89.0026 68.8479 89.0679 68.8479M89.0679 68.5646C88.9691 68.5646 88.8208 68.5954 88.6764 68.7415C88.6074 68.8111 88.5452 68.9019 88.4896 69.012C88.3258 68.7585 88.1329 68.6246 87.9213 68.6246C87.7354 68.6246 87.573 68.7274 87.4869 68.8992C87.4129 69.0469 87.4045 69.227 87.435 69.4159C87.3034 69.3647 87.1825 69.3379 87.076 69.3379C86.7612 69.3379 86.5884 69.5465 86.5573 69.7531C86.5271 69.9524 86.6189 70.1593 86.8215 70.362C86.7833 70.372 86.7472 70.3831 86.713 70.3951C86.2994 70.5418 86.2549 70.8197 86.2549 70.9323C86.2549 71.0505 86.3051 71.4008 86.8821 71.4898C86.7087 71.7035 86.637 71.9101 86.6755 72.0977C86.715 72.2906 86.8841 72.4851 87.1721 72.4851C87.297 72.4851 87.438 72.4446 87.5901 72.3672C87.58 72.5467 87.6031 72.7152 87.6795 72.8498C87.7706 73.0099 87.9296 73.1053 88.1048 73.1053C88.2036 73.1053 88.3519 73.0745 88.4963 72.9285C88.5652 72.8588 88.6275 72.7681 88.6831 72.6579C88.8469 72.9114 89.0398 73.045 89.2514 73.045C89.4373 73.045 89.5997 72.9422 89.6858 72.7704C89.7598 72.6228 89.7682 72.4426 89.7377 72.2537C89.8693 72.305 89.9902 72.3317 90.0967 72.3317C90.4115 72.3317 90.5843 72.1231 90.6154 71.9165C90.6455 71.7172 90.5541 71.5103 90.3512 71.3077C90.3894 71.2976 90.4255 71.2866 90.4597 71.2745C90.8733 71.1278 90.9178 70.8499 90.9178 70.737C90.9178 70.6188 90.8676 70.2685 90.2906 70.1794C90.464 69.9661 90.5357 69.7592 90.4972 69.5716C90.4577 69.3787 90.2886 69.1842 90.0006 69.1842C89.8756 69.1842 89.7343 69.2247 89.5826 69.302C89.5927 69.1226 89.5696 68.9541 89.4932 68.8195C89.4021 68.6594 89.2431 68.564 89.0679 68.564V68.5646Z" fill="#010B13"/>
<path d="M125.877 114.351C124.439 113.722 123.309 112.83 122.488 111.674C121.666 110.518 121.255 109.17 121.255 107.63H125.954C126.056 108.785 126.513 109.736 127.321 110.48C128.13 111.225 129.266 111.596 130.73 111.596C132.245 111.596 133.425 111.231 134.273 110.499C135.12 109.767 135.544 108.824 135.544 107.668C135.544 106.769 135.28 106.037 134.754 105.473C134.228 104.908 133.573 104.471 132.79 104.163C132.006 103.855 130.922 103.522 129.535 103.162C127.789 102.7 126.37 102.231 125.279 101.756C124.188 101.281 123.257 100.543 122.487 99.5417C121.716 98.5404 121.331 97.2055 121.331 95.5361C121.331 93.9957 121.716 92.6474 122.487 91.4921C123.257 90.3367 124.336 89.451 125.722 88.8344C127.108 88.2182 128.713 87.9102 130.536 87.9102C133.13 87.9102 135.255 88.5588 136.911 89.8552C138.567 91.1518 139.484 92.9301 139.664 95.1892H134.811C134.734 94.2137 134.273 93.3791 133.425 92.6856C132.578 91.9924 131.461 91.6458 130.074 91.6458C128.816 91.6458 127.789 91.9673 126.993 92.6086C126.197 93.2509 125.799 94.1752 125.799 95.3817C125.799 96.2039 126.049 96.8777 126.55 97.4038C127.051 97.9302 127.686 98.3475 128.456 98.6556C129.227 98.9637 130.279 99.2979 131.614 99.6569C133.386 100.145 134.831 100.633 135.947 101.12C137.064 101.609 138.014 102.359 138.797 103.374C139.58 104.388 139.972 105.742 139.972 107.437C139.972 108.798 139.606 110.082 138.874 111.288C138.142 112.496 137.076 113.465 135.677 114.196C134.277 114.928 132.628 115.294 130.728 115.294C128.931 115.294 127.313 114.98 125.875 114.35L125.877 114.351Z" fill="white"/>
<path d="M145.384 98.6365C146.27 96.9805 147.496 95.7036 149.062 94.8045C150.628 93.906 152.426 93.4565 154.454 93.4565C157.022 93.4565 159.147 94.0667 160.829 95.286C162.51 96.5057 163.646 98.2457 164.237 100.505H159.5C159.115 99.4523 158.499 98.6308 157.651 98.0401C156.804 97.4497 155.738 97.1543 154.454 97.1543C152.656 97.1543 151.225 97.7899 150.16 99.0608C149.094 100.332 148.562 102.11 148.562 104.395C148.562 106.679 149.094 108.465 150.16 109.749C151.225 111.033 152.656 111.674 154.454 111.674C156.996 111.674 158.677 110.557 159.5 108.323H164.237C163.621 110.48 162.465 112.194 160.771 113.465C159.076 114.736 156.97 115.372 154.454 115.372C152.426 115.372 150.628 114.916 149.062 114.004C147.496 113.093 146.27 111.809 145.384 110.153C144.498 108.497 144.056 106.578 144.056 104.395C144.056 102.212 144.498 100.293 145.384 98.6369V98.6365Z" fill="white"/>
<path d="M168.839 98.6559C169.725 97.013 170.932 95.7354 172.459 94.8239C173.987 93.9127 175.675 93.4565 177.524 93.4565C179.193 93.4565 180.65 93.7841 181.895 94.4388C183.14 95.0935 184.135 95.9089 184.88 96.8844V93.8031H189.31V115.025H184.88V111.867C184.135 112.868 183.122 113.703 181.838 114.37C180.553 115.037 179.09 115.371 177.447 115.371C175.623 115.371 173.955 114.903 172.44 113.965C170.925 113.028 169.725 111.719 168.839 110.037C167.953 108.356 167.51 106.449 167.51 104.318C167.51 102.187 167.953 100.3 168.839 98.6559ZM183.975 100.582C183.372 99.5032 182.582 98.6817 181.607 98.1168C180.631 97.5522 179.578 97.2695 178.449 97.2695C177.319 97.2695 176.266 97.5458 175.291 98.0977C174.314 98.6503 173.525 99.459 172.922 100.524C172.318 101.59 172.017 102.854 172.017 104.318C172.017 105.781 172.318 107.066 172.922 108.169C173.525 109.273 174.321 110.114 175.31 110.692C176.298 111.27 177.344 111.559 178.449 111.559C179.578 111.559 180.631 111.276 181.607 110.711C182.582 110.147 183.372 109.319 183.975 108.227C184.578 107.136 184.88 105.858 184.88 104.395C184.88 102.931 184.578 101.66 183.975 100.582Z" fill="white"/>
<path d="M199.824 86.5239V115.025H195.434V86.5239H199.824Z" fill="white"/>
<path d="M210.338 86.5239V115.025H205.947V86.5239H210.338Z" fill="white"/>
<path d="M220.236 114.004C218.618 113.093 217.347 111.809 216.423 110.153C215.498 108.497 215.036 106.577 215.036 104.395C215.036 102.238 215.511 100.325 216.461 98.6559C217.411 96.9872 218.708 95.7036 220.351 94.8044C221.994 93.906 223.83 93.4565 225.859 93.4565C227.887 93.4565 229.723 93.906 231.366 94.8044C233.009 95.7036 234.306 96.9872 235.256 98.6559C236.206 100.325 236.681 102.238 236.681 104.395C236.681 106.551 236.193 108.464 235.218 110.133C234.242 111.803 232.913 113.093 231.232 114.004C229.55 114.916 227.694 115.371 225.667 115.371C223.664 115.371 221.853 114.916 220.236 114.004L220.236 114.004ZM228.844 110.75C229.832 110.21 230.635 109.401 231.251 108.323C231.867 107.244 232.175 105.935 232.175 104.395C232.175 102.854 231.88 101.551 231.289 100.485C230.698 99.4205 229.915 98.6174 228.94 98.0783C227.964 97.5391 226.911 97.2695 225.782 97.2695C224.652 97.2695 223.605 97.5391 222.643 98.0783C221.68 98.6174 220.916 99.4205 220.351 100.485C219.786 101.551 219.504 102.854 219.504 104.395C219.504 106.68 220.088 108.445 221.257 109.69C222.425 110.936 223.895 111.559 225.667 111.559C226.796 111.559 227.855 111.289 228.844 110.75L228.844 110.75Z" fill="white"/>
<path d="M248.813 94.4578C250.097 93.7904 251.548 93.4565 253.165 93.4565C255.014 93.4565 256.702 93.9127 258.23 94.8239C259.757 95.7354 260.958 97.0133 261.831 98.6559C262.704 100.3 263.14 102.187 263.14 104.318C263.14 106.449 262.704 108.356 261.831 110.037C260.958 111.719 259.757 113.028 258.23 113.965C256.702 114.903 255.014 115.371 253.165 115.371C251.548 115.371 250.109 115.044 248.851 114.389C247.593 113.734 246.566 112.92 245.771 111.943V125.115H241.38V93.8031H245.771V96.9229C246.515 95.9474 247.529 95.1259 248.813 94.4578ZM257.768 100.524C257.164 99.4587 256.368 98.6499 255.38 98.0974C254.391 97.5455 253.332 97.2692 252.203 97.2692C251.098 97.2692 250.052 97.5522 249.063 98.1164C248.075 98.6814 247.279 99.5029 246.676 100.581C246.072 101.66 245.771 102.93 245.771 104.394C245.771 105.858 246.072 107.135 246.676 108.226C247.279 109.318 248.075 110.146 249.063 110.711C250.051 111.276 251.098 111.558 252.203 111.558C253.332 111.558 254.391 111.269 255.38 110.691C256.368 110.114 257.164 109.273 257.768 108.169C258.371 107.065 258.673 105.781 258.673 104.317C258.673 102.853 258.371 101.589 257.768 100.524V100.524Z" fill="white"/>
<circle cx="25" cy="177" r="14" fill="white" stroke="white" stroke-width="2"/>
<path fill-rule="evenodd" clip-rule="evenodd" d="M25 164C17.8203 164 12 169.82 12 177C12 184.18 17.8203 190 25 190C32.1797 190 38 184.18 38 177C38 169.82 32.1797 164 25 164ZM22.7071 173.293C22.3166 172.902 21.6834 172.902 21.2929 173.293C20.9024 173.683 20.9024 174.317 21.2929 174.707L23.5858 177L21.2929 179.293C20.9024 179.683 20.9024 180.317 21.2929 180.707C21.6834 181.098 22.3166 181.098 22.7071 180.707L25 178.414L27.2929 180.707C27.6834 181.098 28.3166 181.098 28.7071 180.707C29.0976 180.317 29.0976 179.683 28.7071 179.293L26.4142 177L28.7071 174.707C29.0976 174.317 29.0976 173.683 28.7071 173.293C28.3166 172.902 27.6834 172.902 27.2929 173.293L25 175.586L22.7071 173.293Z" fill="#CA6460"/>
<defs>
<radialGradient id="paint0_radial_1_8340" cx="0" cy="0" r="1" gradientUnits="userSpaceOnUse" gradientTransform="translate(60.369 73.4551) rotate(-0.658001) scale(0.721339 0.721341)">
<stop stop-color="#F3BBA7"/>
<stop offset="1" stop-color="white"/>
</radialGradient>
<radialGradient id="paint1_radial_1_8340" cx="0" cy="0" r="1" gradientUnits="userSpaceOnUse" gradientTransform="translate(55.5808 73.0131) rotate(-0.658) scale(0.92093)">
<stop stop-color="#F3BBA7"/>
<stop offset="1" stop-color="white"/>
</radialGradient>
<radialGradient id="paint2_radial_1_8340" cx="0" cy="0" r="1" gradientUnits="userSpaceOnUse" gradientTransform="translate(56.7226 76.1056) rotate(-0.658001) scale(0.721339 0.721341)">
<stop stop-color="#F3BBA7"/>
<stop offset="1" stop-color="white"/>
</radialGradient>
<radialGradient id="paint3_radial_1_8340" cx="0" cy="0" r="1" gradientUnits="userSpaceOnUse" gradientTransform="translate(52.3544 78.117) rotate(-0.658) scale(0.92093)">
<stop stop-color="#F3BBA7"/>
<stop offset="1" stop-color="white"/>
</radialGradient>
<radialGradient id="paint4_radial_1_8340" cx="0" cy="0" r="1" gradientUnits="userSpaceOnUse" gradientTransform="translate(54.8896 80.2247) rotate(-0.658002) scale(0.721339 0.721342)">
<stop stop-color="#F3BBA7"/>
<stop offset="1" stop-color="white"/>
</radialGradient>
<radialGradient id="paint5_radial_1_8340" cx="0" cy="0" r="1" gradientUnits="userSpaceOnUse" gradientTransform="translate(52.1126 84.1505) rotate(-0.658) scale(0.92093)">
<stop stop-color="#F3BBA7"/>
<stop offset="1" stop-color="white"/>
</radialGradient>
<radialGradient id="paint6_radial_1_8340" cx="0" cy="0" r="1" gradientUnits="userSpaceOnUse" gradientTransform="translate(55.3622 84.7085) rotate(-0.658) scale(0.167442)">
<stop stop-color="#F3BBA7"/>
<stop offset="1" stop-color="white"/>
</radialGradient>
<radialGradient id="paint7_radial_1_8340" cx="0" cy="0" r="1" gradientUnits="userSpaceOnUse" gradientTransform="translate(54.9197 89.4969) rotate(-0.658) scale(0.92093)">
<stop stop-color="#F3BBA7"/>
<stop offset="1" stop-color="white"/>
</radialGradient>
<radialGradient id="paint8_radial_1_8340" cx="0" cy="0" r="1" gradientUnits="userSpaceOnUse" gradientTransform="translate(58.0127 88.3552) rotate(-0.658002) scale(0.721339 0.721342)">
<stop stop-color="#F3BBA7"/>
<stop offset="1" stop-color="white"/>
</radialGradient>
<radialGradient id="paint9_radial_1_8340" cx="0" cy="0" r="1" gradientUnits="userSpaceOnUse" gradientTransform="translate(60.0241 92.7227) rotate(-0.658) scale(0.92093)">
<stop stop-color="#F3BBA7"/>
<stop offset="1" stop-color="white"/>
</radialGradient>
<radialGradient id="paint10_radial_1_8340" cx="0" cy="0" r="1" gradientUnits="userSpaceOnUse" gradientTransform="translate(62.1318 90.1879) rotate(-0.658) scale(0.721339)">
<stop stop-color="#F3BBA7"/>
<stop offset="1" stop-color="white"/>
</radialGradient>
<radialGradient id="paint11_radial_1_8340" cx="0" cy="0" r="1" gradientUnits="userSpaceOnUse" gradientTransform="translate(65.1482 73.0347) rotate(-0.658) scale(0.721339)">
<stop stop-color="#F3BBA7"/>
<stop offset="1" stop-color="white"/>
</radialGradient>
<radialGradient id="paint12_radial_1_8340" cx="0" cy="0" r="1" gradientUnits="userSpaceOnUse" gradientTransform="translate(69.7863 71.7634) rotate(-0.658) scale(0.92093)">
<stop stop-color="#F3BBA7"/>
<stop offset="1" stop-color="white"/>
</radialGradient>
<radialGradient id="paint13_radial_1_8340" cx="0" cy="0" r="1" gradientUnits="userSpaceOnUse" gradientTransform="translate(69.202 75.0084) rotate(-0.658001) scale(0.721339 0.721341)">
<stop stop-color="#F3BBA7"/>
<stop offset="1" stop-color="white"/>
</radialGradient>
<radialGradient id="paint14_radial_1_8340" cx="0" cy="0" r="1" gradientUnits="userSpaceOnUse" gradientTransform="translate(73.8537 76.2265) rotate(-0.658001) scale(0.92093 0.920932)">
<stop stop-color="#F3BBA7"/>
<stop offset="1" stop-color="white"/>
</radialGradient>
<radialGradient id="paint15_radial_1_8340" cx="0" cy="0" r="1" gradientUnits="userSpaceOnUse" gradientTransform="translate(71.7253 78.7443) rotate(-0.658) scale(0.721339)">
<stop stop-color="#F3BBA7"/>
<stop offset="1" stop-color="white"/>
</radialGradient>
<radialGradient id="paint16_radial_1_8340" cx="0" cy="0" r="1" gradientUnits="userSpaceOnUse" gradientTransform="translate(75.1449 82.1249) rotate(-0.658) scale(0.92093)">
<stop stop-color="#F3BBA7"/>
<stop offset="1" stop-color="white"/>
</radialGradient>
<radialGradient id="paint17_radial_1_8340" cx="0" cy="0" r="1" gradientUnits="userSpaceOnUse" gradientTransform="translate(72.0428 83.2414) rotate(-0.658) scale(0.721339)">
<stop stop-color="#F3BBA7"/>
<stop offset="1" stop-color="white"/>
</radialGradient>
<radialGradient id="paint18_radial_1_8340" cx="0" cy="0" r="1" gradientUnits="userSpaceOnUse" gradientTransform="translate(73.3138 87.8792) rotate(-0.658) scale(0.92093)">
<stop stop-color="#F3BBA7"/>
<stop offset="1" stop-color="white"/>
</radialGradient>
<radialGradient id="paint19_radial_1_8340" cx="0" cy="0" r="1" gradientUnits="userSpaceOnUse" gradientTransform="translate(70.0694 87.2949) rotate(-0.658002) scale(0.721339 0.721342)">
<stop stop-color="#F3BBA7"/>
<stop offset="1" stop-color="white"/>
</radialGradient>
<radialGradient id="paint20_radial_1_8340" cx="0" cy="0" r="1" gradientUnits="userSpaceOnUse" gradientTransform="translate(68.8511 91.9469) rotate(-0.658) scale(0.92093)">
<stop stop-color="#F3BBA7"/>
<stop offset="1" stop-color="white"/>
</radialGradient>
<radialGradient id="paint21_radial_1_8340" cx="0" cy="0" r="1" gradientUnits="userSpaceOnUse" gradientTransform="translate(66.3335 89.8182) rotate(-0.658) scale(0.721339)">
<stop stop-color="#F3BBA7"/>
<stop offset="1" stop-color="white"/>
</radialGradient>
<radialGradient id="paint22_radial_1_8340" cx="0" cy="0" r="1" gradientUnits="userSpaceOnUse" gradientTransform="translate(62.3438 68.833) rotate(-0.657999) scale(1.04919 1.04919)">
<stop stop-color="#F3BBA7"/>
<stop offset="1" stop-color="white"/>
</radialGradient>
<linearGradient id="paint23_linear_1_8340" x1="41.1774" y1="96.2855" x2="49.4033" y2="103.181" gradientUnits="userSpaceOnUse">
<stop offset="0.017" stop-color="#F7E8A4"/>
<stop offset="0.412" stop-color="#F6E5A4"/>
<stop offset="0.643" stop-color="#F6DDA4"/>
<stop offset="0.832" stop-color="#F4CFA5"/>
<stop offset="0.998" stop-color="#F3BBA6"/>
<stop offset="1" stop-color="#F3BBA7"/>
</linearGradient>
<linearGradient id="paint24_linear_1_8340" x1="89.3599" y1="80.3756" x2="83.7964" y2="75.433" gradientUnits="userSpaceOnUse">
<stop stop-color="#010B13" stop-opacity="0"/>
<stop offset="0.205" stop-color="#010B14" stop-opacity="0.034"/>
<stop offset="0.315" stop-color="#040E1A" stop-opacity="0.151"/>
<stop offset="0.402" stop-color="#091424" stop-opacity="0.35"/>
<stop offset="0.477" stop-color="#101B31" stop-opacity="0.631"/>
<stop offset="0.544" stop-color="#192443" stop-opacity="0.994"/>
<stop offset="0.545" stop-color="#1A2544"/>
<stop offset="0.593" stop-color="#1F2946"/>
<stop offset="0.655" stop-color="#2F374D"/>
<stop offset="0.723" stop-color="#494E58"/>
<stop offset="0.797" stop-color="#6D6E68"/>
<stop offset="0.875" stop-color="#9C987C"/>
<stop offset="0.955" stop-color="#D4C995"/>
<stop offset="1" stop-color="#F7E8A4"/>
</linearGradient>
</defs>
</svg>
