<svg width="500" height="281" viewBox="0 0 500 281" fill="none" xmlns="http://www.w3.org/2000/svg">
<rect width="500" height="281" fill="#010B13"/>
<path d="M122.936 200.5C156.038 200.5 182.872 173.637 182.872 140.5C182.872 107.363 156.038 80.5 122.936 80.5C89.8342 80.5 63 107.363 63 140.5C63 173.637 89.8342 200.5 122.936 200.5Z" fill="white"/>
<path d="M158.754 125.408C162.258 122.27 165.946 117.202 164.16 114.702C162.373 112.202 152.771 112.207 149.455 112.877C145.151 108.801 140.691 104.138 128.94 107.06C126.617 104.362 121.352 100.687 119.422 101.551C115.553 103.161 113.976 112.021 113.976 112.021C103.092 114.878 92.4149 120.473 89.786 121.989C84.8724 124.635 79.7753 129.809 81.598 137.455C77.049 141.63 75.9762 160.512 89.7353 164.383C95.3314 172.463 100.167 172.099 106.394 171.988C108.335 176.791 115.687 182.783 125.976 176.458C132.948 177.968 141.413 178.327 147.9 171.731C156.731 171.424 167.557 163.662 164.587 150.713C169.992 143.001 159.623 127.019 158.754 125.408H158.754Z" fill="#010B13"/>
<path d="M146.438 170.502C146.367 170.576 146.293 170.651 146.219 170.726C146.293 170.652 146.365 170.578 146.438 170.502Z" fill="white"/>
<path d="M163.244 139.499C156.154 120.694 145.897 110.57 140.171 108.818C133.852 106.87 127.494 109.382 112.902 114.318C97.4328 119.55 86.8206 124.009 84.0055 130.508C81.2853 136.788 86.3154 144.718 92.4562 146.051C92.3592 145.176 92.5131 143.925 92.5454 143.725C92.7149 142.664 94.6735 133.894 104.675 130.086C98.6327 133.476 91.0456 142.2 95.1999 150.084C97.3765 152.859 101.085 154.95 107.174 153.382C107.709 145.264 114.025 135.289 122.002 128.619C116.695 134.84 110.205 143.512 109.288 151.781C109.215 152.427 109.198 155.371 110.794 157.469C115.857 162.204 125.391 164.196 131.183 157.738C137.018 150.557 135.642 137.264 134.808 130.327C137.37 139.57 137.79 150.046 133.671 156.987C137.046 160.44 143.259 161.023 148.891 156.416C152.628 147.729 152.55 136.621 144.947 126.409C152.797 135.716 153.574 143.425 151.168 155.41C158.444 153.441 166.982 151.325 163.245 139.498L163.244 139.499Z" fill="white"/>
<path d="M89.9406 154.819C86.4833 153.81 80.8594 149.202 81.0266 143.127C80.216 146.696 79.0663 158.968 90.8589 162.802C89.6301 160.259 89.6384 157.282 89.9406 154.819Z" fill="white"/>
<path d="M105.08 163.111C100.868 163.405 93.1041 159.684 92.2092 154.737C91.0713 156.108 89.6323 161.364 92.8008 165.421C96.9233 170.351 100.958 170.44 106.816 170.076C105.463 167.57 105.013 165.198 105.081 163.111L105.08 163.111Z" fill="white"/>
<path d="M148.332 164.298C148.332 164.298 148.332 164.296 148.332 164.295C145.482 167.412 137.654 169.365 130.704 166.144C130.589 168.085 128.399 172.653 126.068 174.439C130.608 175.496 139.447 177.434 146.16 170.783C147.692 168.539 148.257 166.272 148.333 164.297L148.332 164.298Z" fill="white"/>
<path d="M106.559 163.212C106.242 166.43 106.733 168.76 107.431 170.655C109.268 174.484 115.658 180.75 125.46 174.724C127.976 172.589 128.587 169.236 128.523 166.9C123.885 170.42 110.424 170.268 106.559 163.212Z" fill="white"/>
<path d="M149.903 163.771V163.772C149.865 165.116 149.391 167.237 146.998 169.924C155.33 169.816 161.585 164.107 162.719 158.199C160.227 162.101 154.457 164.521 149.903 163.771Z" fill="white"/>
<path d="M107.263 170.174C107.25 170.133 107.236 170.092 107.223 170.051C107.237 170.092 107.25 170.133 107.263 170.174Z" fill="#717071"/>
<path d="M125.461 174.724C126.337 174.185 126.851 173.305 127.285 172.455C126.835 173.283 126.239 174.063 125.461 174.724Z" fill="#717071"/>
<path d="M80.7121 150.261C81.2897 154.988 83.6676 160.465 90.8588 162.803C90.3977 161.848 90.1106 160.832 89.9478 159.805C84.0897 159.702 81.3287 153.145 80.7115 150.262L80.7121 150.261Z" fill="white"/>
<path d="M90.9178 160.571C91.0623 162.175 91.6008 163.884 92.8012 165.421C96.9237 170.351 100.958 170.44 106.817 170.076C106.445 169.387 106.144 168.709 105.9 168.045C95.2321 169.478 92.111 163.637 90.9184 160.571L90.9178 160.571Z" fill="white"/>
<path d="M127.286 172.455C127.333 172.364 127.38 172.272 127.424 172.182C125.024 174 122.551 175.509 117.241 175.28C110.802 174.769 107.723 171.512 106.766 168.319C106.804 168.511 106.846 168.697 106.89 168.88C106.901 168.924 106.912 168.968 106.923 169.011C107.013 169.373 107.114 169.719 107.222 170.051C107.236 170.091 107.249 170.133 107.262 170.173C107.317 170.336 107.373 170.497 107.431 170.654C109.267 174.483 115.657 180.749 125.459 174.723C126.239 174.061 126.835 173.283 127.285 172.453L127.286 172.455Z" fill="white"/>
<path d="M146.16 170.783C146.724 169.957 147.156 169.129 147.482 168.312C140.129 175.474 130.377 173.352 128.245 171.978C127.58 172.97 126.833 173.854 126.069 174.439C130.608 175.496 139.447 177.434 146.16 170.783Z" fill="white"/>
<path d="M148.592 167.8C148.19 168.46 147.669 169.169 146.997 169.923C153.803 169.836 159.22 166.011 161.596 161.393C159.022 166.255 150.839 168.031 148.592 167.799V167.8Z" fill="white"/>
<path d="M82.426 139.629C81.5562 140.772 81.2825 142.11 81.2825 142.11C81.0611 145.798 86.2446 154.469 92.8727 153.609C93.1548 158.458 102.268 163.797 106.461 161.405C109.358 168.291 124.182 170.07 130.016 164.418C133.544 167.664 146.078 167.278 148.671 162.093C152.657 164.245 161.371 160.521 163.047 155.939C163.401 154.216 162.898 152.502 162.898 152.502C161.094 154.724 155.062 159.175 150.396 157.667C146.896 160.879 138.905 164.057 132.778 158.861C125.722 167.835 109.117 163.019 107.628 155.25C102.983 156.498 94.2537 156.079 92.3045 147.994C90.8633 147.389 85.8671 146.549 82.426 139.629Z" fill="white"/>
<path d="M116.16 111.218C118.665 110.271 123.863 108.641 126.935 107.751C125.154 105.91 121.243 103.091 120.138 103.334C118.55 103.773 116.712 108.622 116.16 111.218Z" fill="white"/>
<path d="M150.984 114.553C154.462 118.367 157.212 122.88 157.774 123.716C160.188 121.677 163.529 116.506 162.5 115.748C160.504 114.277 153.452 114.207 150.984 114.553Z" fill="white"/>
<path d="M111.82 114.685C111.631 114.75 111.442 114.815 111.254 114.879C111.16 114.911 111.067 114.943 110.974 114.975C110.786 115.04 110.599 115.104 110.412 115.169C110.327 115.198 110.243 115.227 110.158 115.256C109.895 115.347 109.633 115.438 109.373 115.529C109.364 115.533 109.355 115.535 109.346 115.539C109.091 115.628 108.838 115.716 108.587 115.805C108.504 115.834 108.423 115.863 108.34 115.892C108.16 115.956 107.98 116.019 107.802 116.083C107.714 116.114 107.626 116.145 107.538 116.177C107.357 116.241 107.177 116.306 106.998 116.37C106.921 116.398 106.844 116.425 106.767 116.453C106.264 116.634 105.767 116.816 105.276 116.997C105.201 117.025 105.127 117.052 105.052 117.08C104.881 117.143 104.709 117.207 104.539 117.271C104.456 117.301 104.374 117.333 104.291 117.363C104.121 117.428 103.951 117.491 103.782 117.555C103.71 117.583 103.638 117.61 103.566 117.637C103.329 117.727 103.093 117.818 102.858 117.908H102.857C102.625 117.997 102.394 118.087 102.165 118.177C102.097 118.203 102.029 118.23 101.962 118.256C101.798 118.321 101.635 118.385 101.472 118.45C101.397 118.48 101.322 118.51 101.247 118.54C101.085 118.604 100.926 118.668 100.767 118.733C100.701 118.76 100.634 118.787 100.567 118.814C100.124 118.994 99.6877 119.175 99.2589 119.355C99.1976 119.381 99.1363 119.407 99.0755 119.433C98.921 119.498 98.7677 119.564 98.6155 119.629C98.5469 119.658 98.4784 119.688 98.4098 119.718C98.2581 119.783 98.107 119.849 97.9576 119.915C97.8985 119.94 97.8394 119.966 97.7809 119.992C97.3694 120.174 96.9652 120.356 96.5693 120.538C96.5125 120.564 96.4561 120.591 96.3993 120.617C96.2571 120.683 96.116 120.748 95.9755 120.815C95.9125 120.844 95.8495 120.874 95.7871 120.904C95.6477 120.971 95.5089 121.037 95.3717 121.103C95.3176 121.13 95.263 121.156 95.2089 121.182C94.8315 121.366 94.4618 121.551 94.1 121.736C94.0487 121.762 93.9979 121.789 93.9466 121.815C93.8167 121.882 93.6874 121.95 93.5597 122.017C93.5028 122.047 93.446 122.077 93.3891 122.107C93.2614 122.175 93.1349 122.243 93.0094 122.311C92.9609 122.337 92.9124 122.363 92.8644 122.389C92.5221 122.576 92.1882 122.765 91.8625 122.954C91.8157 122.982 91.7694 123.009 91.7226 123.036C91.6061 123.105 91.4901 123.173 91.3758 123.242C91.3251 123.273 91.2743 123.304 91.2236 123.334C91.1087 123.404 90.995 123.474 90.8818 123.544C90.8395 123.57 90.796 123.597 90.7541 123.623C90.6003 123.72 90.4486 123.817 90.2992 123.914C96.4539 121.01 117.437 113.282 127.942 121.129C138.446 128.976 152.206 119.801 144.982 111.541C143.188 110.147 141.548 109.24 140.171 108.818C133.852 106.87 127.494 109.383 112.901 114.318C112.627 114.411 112.355 114.503 112.084 114.596C111.996 114.626 111.908 114.655 111.82 114.685Z" fill="white"/>
<path d="M114.64 136.319C108.488 144.071 106.891 149.877 103.118 150.561C100.109 151.106 96.5033 151.476 94.1549 147.036C94.33 148.057 94.6684 149.078 95.1986 150.085C97.3753 152.859 101.083 154.951 107.173 153.383C107.527 148.01 110.415 141.823 114.64 136.319H114.64Z" fill="white"/>
<path d="M109.537 154.684C109.757 155.61 110.139 156.611 110.793 157.469C115.856 162.205 125.39 164.197 131.181 157.738C134.454 153.711 135.458 147.763 135.562 142.091C131.718 162.174 112.462 163.148 109.537 154.684Z" fill="white"/>
<path d="M149.314 155.37C149.382 155.195 149.45 155.019 149.515 154.841C149.554 154.733 149.591 154.625 149.629 154.516C149.685 154.357 149.741 154.197 149.794 154.035C149.833 153.918 149.871 153.8 149.909 153.682C149.958 153.528 150.006 153.373 150.053 153.219C150.09 153.095 150.127 152.97 150.162 152.846C150.206 152.695 150.248 152.544 150.288 152.393C150.324 152.264 150.358 152.134 150.391 152.004C150.429 151.856 150.465 151.707 150.501 151.558C150.533 151.424 150.565 151.29 150.595 151.155C150.628 151.009 150.659 150.861 150.689 150.714C150.718 150.576 150.748 150.438 150.775 150.299C150.802 150.156 150.827 150.012 150.853 149.869C150.878 149.724 150.906 149.58 150.929 149.434C150.949 149.311 150.966 149.186 150.984 149.062C151.035 148.721 151.08 148.379 151.119 148.034C151.13 147.938 151.143 147.843 151.153 147.747C151.171 147.567 151.186 147.385 151.201 147.203C151.211 147.093 151.221 146.983 151.229 146.873C151.242 146.691 151.252 146.508 151.262 146.325C151.268 146.215 151.274 146.105 151.279 145.995C151.287 145.809 151.292 145.623 151.296 145.437C151.299 145.33 151.301 145.222 151.303 145.114C151.305 144.923 151.305 144.732 151.303 144.54C151.302 144.438 151.301 144.336 151.299 144.234C151.295 144.036 151.29 143.837 151.281 143.638C151.277 143.546 151.273 143.454 151.268 143.361C151.257 143.151 151.246 142.941 151.231 142.73C151.226 142.657 151.219 142.583 151.213 142.51C151.194 142.279 151.175 142.049 151.151 141.817C151.148 141.791 151.145 141.764 151.142 141.738C151.022 140.611 150.834 139.476 150.572 138.336C150.57 138.327 150.568 138.316 150.566 138.307C150.506 138.047 150.441 137.786 150.373 137.526C150.362 137.483 150.351 137.439 150.34 137.396C150.274 137.148 150.204 136.899 150.131 136.651C150.116 136.597 150.1 136.543 150.084 136.489C150.01 136.244 149.933 135.998 149.853 135.753C149.835 135.698 149.817 135.644 149.799 135.589C149.716 135.34 149.629 135.092 149.539 134.843C149.522 134.797 149.506 134.752 149.489 134.707C149.393 134.447 149.294 134.187 149.191 133.928C149.182 133.906 149.173 133.885 149.164 133.863C148.58 132.411 147.867 130.96 147.016 129.521C151.151 140.108 150.28 152.902 143.399 156.55C140.893 157.879 137.38 158.693 133.938 156.521C133.937 156.521 133.936 156.521 133.935 156.52C133.849 156.677 133.762 156.834 133.671 156.988C137.046 160.44 143.259 161.023 148.891 156.417C149.002 156.159 149.11 155.898 149.214 155.635C149.249 155.547 149.281 155.459 149.315 155.37H149.314Z" fill="white"/>
<path d="M163.244 139.499C159.882 130.581 155.807 123.617 151.841 118.571C158.724 131.637 162.6 140.894 159.792 147.482C158.713 149.722 157.247 152.704 152.083 154.051C151.993 154.079 151.578 154.047 151.501 154.083C151.426 154.488 151.25 154.994 151.167 155.409C154.188 157.298 167.924 151.863 163.244 139.498V139.499Z" fill="white"/>
<path d="M161.582 118.995C157.284 121.298 152.845 115.96 150.984 114.553C154.462 118.367 157.212 122.88 157.774 123.716C159.044 122.643 160.57 120.703 161.582 118.995Z" fill="white"/>
<path d="M97.4617 134.724C91.4391 140.819 87.3668 141.917 84.5908 139.551C86.2278 142.759 89.1839 145.341 92.455 146.051C92.358 145.176 92.5118 143.925 92.5442 143.725C92.6607 142.996 93.6225 138.624 97.4617 134.724Z" fill="white"/>
<path d="M207.874 162.751C205.479 161.703 203.598 160.216 202.231 158.289C200.863 156.364 200.179 154.117 200.179 151.549H208.002C208.172 153.475 208.932 155.059 210.278 156.299C211.624 157.541 213.516 158.161 215.952 158.161C218.475 158.161 220.441 157.551 221.852 156.331C223.262 155.111 223.968 153.539 223.968 151.613C223.968 150.116 223.529 148.895 222.653 147.954C221.777 147.013 220.686 146.286 219.382 145.772C218.078 145.259 216.272 144.703 213.964 144.103C211.057 143.333 208.695 142.552 206.878 141.76C205.061 140.969 203.511 139.738 202.23 138.069C200.947 136.4 200.306 134.176 200.306 131.393C200.306 128.826 200.947 126.579 202.23 124.653C203.511 122.728 205.307 121.251 207.615 120.224C209.924 119.197 212.595 118.683 215.631 118.683C219.948 118.683 223.486 119.764 226.243 121.925C229.001 124.086 230.528 127.05 230.828 130.815H222.748C222.62 129.189 221.851 127.798 220.44 126.642C219.029 125.487 217.17 124.909 214.861 124.909C212.766 124.909 211.056 125.445 209.732 126.514C208.406 127.585 207.744 129.125 207.744 131.136C207.744 132.506 208.16 133.629 208.994 134.506C209.827 135.383 210.885 136.079 212.168 136.592C213.451 137.106 215.203 137.663 217.425 138.261C220.375 139.074 222.78 139.888 224.639 140.7C226.499 141.514 228.08 142.765 229.384 144.456C230.687 146.147 231.339 148.404 231.339 151.228C231.339 153.497 230.731 155.636 229.512 157.647C228.294 159.659 226.519 161.274 224.19 162.493C221.859 163.713 219.113 164.323 215.95 164.323C212.957 164.323 210.264 163.799 207.871 162.75L207.874 162.751Z" fill="white"/>
<path d="M240.351 136.561C241.826 133.801 243.866 131.673 246.474 130.174C249.081 128.677 252.074 127.928 255.451 127.928C259.726 127.928 263.264 128.945 266.064 130.977C268.864 133.01 270.755 135.91 271.739 139.675H263.852C263.21 137.921 262.185 136.552 260.773 135.567C259.363 134.583 257.589 134.091 255.451 134.091C252.458 134.091 250.075 135.15 248.301 137.268C246.527 139.387 245.641 142.351 245.641 146.159C245.641 149.966 246.527 152.942 248.301 155.081C250.075 157.221 252.458 158.291 255.451 158.291C259.682 158.291 262.482 156.429 263.852 152.706H271.739C270.713 156.3 268.789 159.157 265.968 161.276C263.146 163.394 259.64 164.453 255.451 164.453C252.074 164.453 249.081 163.694 246.474 162.174C243.866 160.656 241.825 158.516 240.351 155.755C238.876 152.995 238.139 149.796 238.139 146.159C238.139 142.521 238.876 139.322 240.351 136.562V136.561Z" fill="white"/>
<path d="M279.4 136.593C280.875 133.855 282.884 131.725 285.427 130.206C287.97 128.687 290.781 127.927 293.86 127.927C296.638 127.927 299.064 128.473 301.137 129.564C303.21 130.655 304.867 132.014 306.107 133.64V128.505H313.481V163.874H306.107V158.611C304.867 160.279 303.179 161.671 301.041 162.783C298.903 163.895 296.466 164.452 293.731 164.452C290.696 164.452 287.917 163.671 285.396 162.109C282.873 160.547 280.875 158.364 279.4 155.561C277.925 152.759 277.188 149.581 277.188 146.029C277.188 142.477 277.925 139.332 279.4 136.593ZM304.601 139.802C303.595 138.005 302.281 136.636 300.657 135.694C299.032 134.753 297.28 134.282 295.399 134.282C293.518 134.282 291.765 134.743 290.141 135.662C288.516 136.583 287.201 137.931 286.197 139.707C285.193 141.483 284.691 143.59 284.691 146.029C284.691 148.468 285.193 150.609 286.197 152.449C287.201 154.289 288.527 155.69 290.173 156.653C291.818 157.616 293.561 158.097 295.399 158.097C297.28 158.097 299.032 157.627 300.657 156.685C302.281 155.744 303.595 154.364 304.601 152.545C305.604 150.726 306.107 148.597 306.107 146.158C306.107 143.719 305.604 141.599 304.601 139.802Z" fill="white"/>
<path d="M330.987 116.373V163.874H323.677V116.373H330.987Z" fill="white"/>
<path d="M348.491 116.373V163.874H341.181V116.373H348.491Z" fill="white"/>
<path d="M364.97 162.173C362.278 160.655 360.16 158.514 358.622 155.754C357.083 152.994 356.313 149.795 356.313 146.157C356.313 142.563 357.104 139.375 358.686 136.593C360.267 133.812 362.426 131.672 365.162 130.174C367.898 128.676 370.954 127.927 374.332 127.927C377.709 127.927 380.765 128.676 383.501 130.174C386.237 131.672 388.396 133.812 389.978 136.593C391.559 139.375 392.35 142.563 392.35 146.157C392.35 149.752 391.538 152.94 389.914 155.721C388.289 158.504 386.077 160.655 383.277 162.172C380.477 163.692 377.388 164.451 374.012 164.451C370.677 164.451 367.663 163.692 364.97 162.172L364.97 162.173ZM379.302 156.749C380.946 155.85 382.283 154.502 383.309 152.705C384.335 150.907 384.848 148.725 384.848 146.157C384.848 143.589 384.356 141.418 383.373 139.642C382.389 137.867 381.086 136.529 379.462 135.63C377.837 134.732 376.084 134.282 374.204 134.282C372.323 134.282 370.58 134.732 368.978 135.63C367.375 136.529 366.102 137.867 365.163 139.642C364.222 141.418 363.752 143.59 363.752 146.157C363.752 149.967 364.724 152.908 366.67 154.984C368.615 157.06 371.063 158.097 374.012 158.097C375.892 158.097 377.656 157.648 379.302 156.75L379.302 156.749Z" fill="white"/>
<path d="M412.548 129.596C414.685 128.484 417.101 127.927 419.794 127.927C422.872 127.927 425.682 128.687 428.226 130.206C430.769 131.725 432.768 133.855 434.222 136.593C435.675 139.332 436.401 142.477 436.401 146.029C436.401 149.581 435.674 152.759 434.222 155.561C432.768 158.365 430.769 160.547 428.226 162.109C425.682 163.671 422.872 164.452 419.794 164.452C417.101 164.452 414.706 163.906 412.612 162.815C410.517 161.724 408.807 160.366 407.483 158.739V180.692H400.173V128.505H407.483V133.705C408.722 132.079 410.41 130.71 412.548 129.596ZM427.457 139.706C426.451 137.931 425.126 136.583 423.481 135.662C421.835 134.742 420.071 134.282 418.191 134.282C416.353 134.282 414.61 134.753 412.965 135.694C411.319 136.635 409.994 138.004 408.99 139.802C407.984 141.599 407.483 143.717 407.483 146.157C407.483 148.596 407.984 150.725 408.99 152.543C409.994 154.363 411.319 155.743 412.965 156.684C414.61 157.626 416.353 158.096 418.191 158.096C420.071 158.096 421.835 157.615 423.481 156.652C425.126 155.689 426.452 154.288 427.457 152.447C428.461 150.608 428.963 148.468 428.963 146.028C428.963 143.589 428.461 141.482 427.457 139.706V139.706Z" fill="white"/>
</svg>
