<svg width="300" height="200" viewBox="0 0 300 200" fill="none" xmlns="http://www.w3.org/2000/svg">
<path d="M0 8C0 3.58173 3.58172 0 8 0H292C296.418 0 300 3.58172 300 8V192C300 196.418 296.418 200 292 200H7.99999C3.58171 200 0 196.418 0 192V8Z" fill="#1E2D45"/>
<g filter="url(#filter0_d_968_3535)">
<path d="M74.7207 62.9146C94.9344 62.9146 111.33 79.2148 111.33 99.3335C111.33 119.452 94.9344 135.752 74.7207 135.752C54.507 135.752 38.1113 119.452 38.1113 99.3335C38.1114 79.2148 54.507 62.9146 74.7207 62.9146Z" fill="#F1D6C8" stroke="black" stroke-width="2"/>
<path d="M96.0006 90.4245C98.0828 88.5718 100.274 85.5801 99.2124 84.1044C98.151 82.6287 92.4459 82.632 90.476 83.0273C87.919 80.6211 85.2694 77.8687 78.2876 79.5935C76.9073 78.0005 73.7796 75.8315 72.6329 76.3415C70.334 77.2914 69.3969 82.5219 69.3969 82.5219C62.9309 84.2082 56.5871 87.5112 55.0253 88.4061C52.106 89.9682 49.0777 93.0224 50.1605 97.5363C47.4579 100.001 46.8205 111.147 54.9951 113.432C58.3199 118.202 61.1931 117.987 64.8925 117.922C66.0459 120.757 70.4135 124.294 76.5267 120.56C80.669 121.452 85.6983 121.663 89.5524 117.77C94.7991 117.588 101.231 113.006 99.4664 105.363C102.678 100.81 96.517 91.3754 96.0006 90.4245Z" fill="black"/>
<path d="M98.6685 98.7424C94.4563 87.6419 88.3623 81.6655 84.9607 80.6309C81.2063 79.4811 77.429 80.964 68.7592 83.8776C59.5687 86.9665 53.2637 89.5987 51.5912 93.4352C49.975 97.1422 52.9636 101.824 56.612 102.611C56.5543 102.094 56.6457 101.356 56.665 101.238C56.7657 100.611 57.9293 95.4341 63.8713 93.1861C60.2815 95.187 55.7739 100.337 58.242 104.991C59.5352 106.629 61.7384 107.864 65.3563 106.938C65.6743 102.146 69.4264 96.2572 74.1659 92.3202C71.0127 95.9923 67.157 101.111 66.6124 105.993C66.569 106.375 66.5584 108.112 67.5068 109.35C70.5152 112.146 76.1792 113.322 79.6202 109.509C83.0871 105.27 82.2699 97.4235 81.7744 93.3284C83.2965 98.7846 83.5459 104.969 81.0989 109.066C83.104 111.104 86.7951 111.448 90.1414 108.729C92.3614 103.601 92.3154 97.0436 87.7978 91.0155C92.4618 96.5096 92.9236 101.06 91.4942 108.135C95.8167 106.973 100.89 105.723 98.6691 98.7421L98.6685 98.7424Z" fill="#ABB0C0"/>
<path d="M55.1175 107.786C53.0634 107.191 49.7221 104.471 49.8214 100.884C49.3398 102.991 48.6568 110.236 55.663 112.499C54.9329 110.998 54.9379 109.24 55.1175 107.786Z" fill="#ABB0C0"/>
<path d="M64.1125 112.681C61.6099 112.855 56.9972 110.658 56.4656 107.738C55.7895 108.547 54.9345 111.65 56.817 114.045C59.2663 116.955 61.6632 117.007 65.144 116.793C64.34 115.313 64.0724 113.913 64.1128 112.681L64.1125 112.681Z" fill="#ABB0C0"/>
<path d="M89.8095 113.382C89.8095 113.382 89.8095 113.381 89.8095 113.38C88.1165 115.22 83.4654 116.373 79.336 114.471C79.2681 115.617 77.9667 118.314 76.582 119.368C79.2791 119.992 84.5307 121.136 88.5193 117.21C89.4292 115.885 89.7648 114.547 89.8098 113.381L89.8095 113.382Z" fill="#ABB0C0"/>
<path d="M64.9905 112.741C64.8024 114.64 65.0939 116.016 65.5089 117.134C66.6001 119.395 70.3965 123.093 76.2202 119.536C77.7148 118.276 78.0782 116.297 78.0401 114.918C75.2848 116.995 67.2871 116.906 64.9905 112.741Z" fill="#ABB0C0"/>
<path d="M90.7424 113.071V113.072C90.7202 113.865 90.4383 115.117 89.0166 116.703C93.9671 116.64 97.6834 113.269 98.3569 109.782C96.8765 112.085 93.4484 113.514 90.7427 113.071H90.7424Z" fill="#ABB0C0"/>
<path d="M49.6346 105.096C49.9778 107.886 51.3906 111.119 55.663 112.499C55.3891 111.935 55.2185 111.336 55.1218 110.729C51.6413 110.669 50.001 106.798 49.6343 105.096L49.6346 105.096Z" fill="#858B97"/>
<path d="M55.6978 111.182C55.7835 112.129 56.1035 113.138 56.8167 114.045C59.266 116.955 61.6629 117.007 65.1437 116.793C64.9227 116.386 64.7439 115.986 64.5991 115.594C58.261 116.44 56.4066 112.992 55.6981 111.182L55.6978 111.182Z" fill="#858B97"/>
<path d="M77.3053 118.197C77.3328 118.143 77.3606 118.089 77.3871 118.036C75.9611 119.109 74.492 120 71.3371 119.865C67.5112 119.563 65.6824 117.64 65.1133 115.756C65.1361 115.869 65.1613 115.979 65.1875 116.087C65.1938 116.113 65.2001 116.139 65.2067 116.164C65.2604 116.378 65.3203 116.582 65.3846 116.778C65.3925 116.802 65.4005 116.826 65.4084 116.85C65.4409 116.946 65.474 117.041 65.5085 117.134C66.5996 119.394 70.3961 123.093 76.2198 119.536C76.6829 119.146 77.037 118.686 77.3046 118.196L77.3053 118.197Z" fill="#858B97"/>
<path d="M88.519 117.21C88.8538 116.723 89.1106 116.233 89.304 115.751C84.9358 119.979 79.1416 118.727 77.8752 117.915C77.48 118.501 77.0358 119.023 76.582 119.368C79.2791 119.993 84.5307 121.136 88.5193 117.21H88.519Z" fill="#858B97"/>
<path d="M89.9635 115.449C89.7247 115.839 89.4153 116.257 89.0161 116.702C93.0594 116.651 96.2781 114.393 97.6896 111.667C96.1605 114.537 91.2988 115.585 89.9635 115.448V115.449Z" fill="#858B97"/>
<path d="M50.6527 98.8192C50.1359 99.4943 49.9733 100.284 49.9733 100.284C49.8418 102.461 52.9214 107.579 56.8593 107.072C57.0269 109.934 62.4412 113.086 64.9325 111.674C66.6537 115.739 75.4607 116.789 78.9272 113.453C81.0233 115.369 88.4698 115.141 90.0105 112.08C92.3789 113.351 97.5557 111.152 98.5518 108.447C98.7618 107.43 98.463 106.419 98.463 106.419C97.3911 107.73 93.8076 110.358 91.035 109.467C88.9561 111.364 84.2083 113.24 80.5679 110.172C76.3759 115.47 66.5103 112.627 65.6259 108.041C62.8662 108.778 57.6798 108.53 56.5218 103.757C55.6655 103.4 52.6972 102.904 50.6527 98.8192Z" fill="#1E2D45"/>
<path d="M70.6948 82.0482C72.1835 81.4887 75.2717 80.527 77.0966 80.0014C76.0385 78.9145 73.7148 77.2506 73.0586 77.3939C72.1152 77.6532 71.0231 80.5154 70.6948 82.0482Z" fill="white"/>
<path d="M91.3853 84.017C93.4513 86.2683 95.0853 88.9321 95.4192 89.4257C96.8532 88.2224 98.8381 85.1695 98.2269 84.722C97.0414 83.8539 92.8514 83.8127 91.3853 84.017Z" fill="white"/>
<path d="M68.1168 84.0949C68.0042 84.1331 67.8919 84.1714 67.7803 84.2092C67.7246 84.228 67.6693 84.2471 67.614 84.2659C67.5024 84.3041 67.391 84.342 67.2801 84.3802C67.2297 84.3974 67.1794 84.4148 67.1294 84.432C66.973 84.4857 66.817 84.5394 66.6626 84.5931C66.6573 84.5951 66.652 84.5967 66.6467 84.5987C66.4953 84.6511 66.345 84.7035 66.1956 84.7559C66.1465 84.773 66.0982 84.7901 66.0492 84.8073C65.9422 84.8448 65.8352 84.8824 65.7292 84.9199C65.6768 84.9384 65.6248 84.9568 65.5725 84.9753C65.4652 85.0135 65.3582 85.0514 65.2518 85.0893C65.2061 85.1058 65.1601 85.1219 65.1147 85.1384C64.8156 85.2455 64.5201 85.3525 64.2289 85.4593C64.1842 85.4758 64.1402 85.4919 64.0958 85.5084C63.9938 85.5459 63.8921 85.5835 63.791 85.6211C63.7417 85.6392 63.6926 85.6576 63.6436 85.6758C63.5423 85.7137 63.4416 85.7512 63.3412 85.7891C63.2985 85.8052 63.2557 85.8211 63.213 85.8372C63.0719 85.8906 62.9314 85.944 62.7923 85.997H62.7916C62.6535 86.0501 62.5164 86.1031 62.3802 86.1558C62.3398 86.1716 62.2997 86.1871 62.2597 86.2029C62.1623 86.2411 62.0652 86.279 61.9688 86.3173C61.9241 86.3351 61.8794 86.3525 61.8347 86.3703C61.7389 86.4082 61.6442 86.4461 61.5498 86.4843C61.5104 86.5001 61.4706 86.5159 61.4312 86.5321C61.1675 86.6385 60.9085 86.7449 60.6538 86.8517C60.6173 86.8668 60.5809 86.8823 60.5448 86.8975C60.453 86.936 60.3619 86.9746 60.2715 87.0131C60.2308 87.0306 60.19 87.048 60.1493 87.0655C60.0592 87.1044 59.9694 87.1429 59.8806 87.1818C59.8455 87.197 59.8104 87.2121 59.7756 87.2276C59.5311 87.3347 59.291 87.4421 59.0558 87.5498C59.022 87.5653 58.9886 87.5808 58.9548 87.5963C58.8703 87.6352 58.7865 87.6741 58.703 87.7133C58.6656 87.7307 58.6282 87.7482 58.5911 87.766C58.5082 87.8052 58.4258 87.8444 58.3443 87.8836C58.3121 87.8991 58.2797 87.9146 58.2476 87.9301C58.0233 88.0385 57.8037 88.1475 57.5887 88.2569C57.5582 88.2724 57.5281 88.2882 57.4976 88.3037C57.4204 88.3432 57.3436 88.3831 57.2677 88.4226C57.2339 88.4404 57.2001 88.4582 57.1664 88.476C57.0905 88.5162 57.0153 88.5561 56.9408 88.5963C56.912 88.6118 56.8831 88.6272 56.8546 88.6427C56.6513 88.7531 56.4528 88.8645 56.2594 88.9762C56.2316 88.9923 56.2041 89.0084 56.1762 89.0246C56.107 89.0651 56.0381 89.1053 55.9702 89.1462C55.9401 89.1643 55.9099 89.1824 55.8798 89.2005C55.8115 89.2417 55.744 89.2832 55.6767 89.3244C55.6515 89.3399 55.6257 89.3557 55.6009 89.3712C55.5094 89.4282 55.4193 89.4852 55.3306 89.5425C58.9872 87.8283 71.4538 83.2666 77.6949 87.8988C83.936 92.5309 92.1109 87.1146 87.8192 82.239C86.7533 81.4156 85.7787 80.8802 84.9605 80.6314C81.2062 79.4815 77.4289 80.9645 68.7591 83.8781C68.5961 83.9328 68.4345 83.9875 68.2735 84.0419C68.2212 84.0597 68.1692 84.0771 68.1168 84.0949Z" fill="white"/>
<path d="M69.7916 96.8652C66.1365 101.442 65.1878 104.869 62.9463 105.273C61.1585 105.594 59.0163 105.813 57.6211 103.192C57.7251 103.795 57.9262 104.397 58.2412 104.992C59.5344 106.629 61.7375 107.864 65.3555 106.938C65.5658 103.767 67.2813 100.114 69.7916 96.8652Z" fill="#858B97"/>
<path d="M66.7603 107.707C66.8908 108.254 67.118 108.844 67.5062 109.351C70.5146 112.147 76.1787 113.323 79.6197 109.51C81.5638 107.133 82.1604 103.621 82.2223 100.273C79.9384 112.129 68.4983 112.703 66.7603 107.707Z" fill="#858B97"/>
<path d="M90.393 108.112C90.4334 108.008 90.4735 107.904 90.5119 107.799C90.5351 107.736 90.5573 107.672 90.5798 107.608C90.6133 107.514 90.6464 107.419 90.6782 107.324C90.7014 107.255 90.7236 107.185 90.7461 107.115C90.7753 107.024 90.8041 106.933 90.8319 106.842C90.8541 106.769 90.8756 106.695 90.8968 106.622C90.9227 106.533 90.9475 106.444 90.9717 106.354C90.9926 106.278 91.0128 106.202 91.0326 106.125C91.0552 106.037 91.0767 105.949 91.0979 105.861C91.1168 105.782 91.136 105.703 91.1539 105.624C91.1734 105.538 91.1916 105.45 91.2099 105.364C91.2271 105.282 91.2446 105.2 91.2605 105.118C91.2771 105.034 91.2917 104.949 91.3069 104.864C91.3222 104.779 91.3384 104.694 91.3523 104.608C91.3642 104.535 91.3742 104.461 91.3851 104.388C91.4152 104.187 91.4421 103.985 91.4653 103.781C91.4716 103.725 91.4792 103.669 91.4851 103.612C91.4961 103.505 91.505 103.398 91.5139 103.29C91.5196 103.226 91.5255 103.161 91.5305 103.096C91.5385 102.988 91.5441 102.88 91.5501 102.773C91.5537 102.708 91.5573 102.643 91.5603 102.577C91.565 102.468 91.5679 102.358 91.5706 102.248C91.5719 102.185 91.5736 102.121 91.5742 102.058C91.5756 101.945 91.5756 101.832 91.5746 101.719C91.5739 101.659 91.5732 101.598 91.5719 101.538C91.5696 101.421 91.5666 101.304 91.5617 101.186C91.5593 101.132 91.5567 101.077 91.5537 101.023C91.5474 100.899 91.5408 100.775 91.5315 100.65C91.5285 100.607 91.5246 100.563 91.5209 100.52C91.51 100.384 91.4984 100.248 91.4841 100.111C91.4825 100.096 91.4805 100.08 91.4788 100.065C91.4073 99.3993 91.2957 98.7291 91.1403 98.0563C91.139 98.0507 91.138 98.0448 91.1367 98.0392C91.1009 97.8857 91.0621 97.7318 91.022 97.5779C91.0154 97.5526 91.0091 97.5269 91.0022 97.5015C90.9631 97.3549 90.9213 97.2083 90.8783 97.0616C90.869 97.0297 90.8597 96.9977 90.8501 96.9658C90.8064 96.8211 90.7607 96.6762 90.713 96.5315C90.7024 96.4992 90.6915 96.4669 90.6809 96.4346C90.6315 96.2877 90.5802 96.1411 90.5265 95.9941C90.5166 95.9674 90.5066 95.9407 90.4967 95.9141C90.4397 95.7609 90.3811 95.6073 90.3195 95.4541C90.3145 95.4413 90.3089 95.4287 90.3039 95.4159C89.9564 94.5586 89.5331 93.7023 89.0276 92.8525C91.4845 99.1024 90.9667 106.655 86.8788 108.808C85.3898 109.593 83.3026 110.073 81.2578 108.791C81.2571 108.791 81.2565 108.791 81.2558 108.791C81.2045 108.883 81.1531 108.976 81.0991 109.067C83.1042 111.105 86.7953 111.449 90.1416 108.73C90.2075 108.577 90.2714 108.423 90.3334 108.268C90.3539 108.217 90.3735 108.164 90.3937 108.112H90.393Z" fill="#858B97"/>
<path d="M98.6685 98.7424C96.6711 93.4783 94.2503 89.3673 91.8941 86.3882C95.9831 94.1013 98.2863 99.5661 96.6178 103.455C95.9771 104.777 95.1056 106.538 92.0379 107.333C91.9846 107.349 91.7378 107.33 91.6917 107.352C91.6473 107.591 91.543 107.89 91.4937 108.135C93.2884 109.25 101.449 106.041 98.6685 98.7417V98.7424Z" fill="#858B97"/>
<path d="M97.6812 86.6386C95.1276 87.998 92.4905 84.8472 91.3848 84.0166C93.4508 86.2679 95.0848 88.9318 95.4187 89.4253C96.1733 88.7921 97.0799 87.6468 97.6812 86.6386Z" fill="#858B97"/>
<path d="M59.5859 95.9243C56.0077 99.5222 53.5883 100.17 51.939 98.7733C52.9115 100.667 54.6678 102.192 56.6112 102.611C56.5536 102.094 56.645 101.356 56.6642 101.238C56.7335 100.807 57.3049 98.2261 59.5859 95.9243Z" fill="#858B97"/>
<path d="M129.821 85.4556C132.549 85.4556 134.874 86.1423 136.712 87.5933H136.713C138.014 88.5877 138.927 89.8605 139.427 91.3931H139.426C139.71 92.2601 139.469 93.0993 138.957 93.6909C138.456 94.2682 137.698 94.6167 136.885 94.6167H135.306C134.031 94.6167 133.207 93.6289 132.826 92.8638L132.825 92.8628C132.686 92.5844 132.479 92.3097 132.18 92.0435L132.046 91.9302C131.43 91.4287 130.568 91.1313 129.363 91.1313C128.291 91.1314 127.512 91.4004 126.941 91.8589C126.433 92.2662 126.134 92.8632 126.134 93.8071C126.134 94.3903 126.299 94.8043 126.583 95.1245C126.979 95.5133 127.488 95.8419 128.132 96.0981C128.842 96.3805 129.841 96.6973 131.145 97.0464L131.151 97.0483C132.929 97.5354 134.403 98.0299 135.556 98.5366H135.555C136.828 99.0848 137.896 99.934 138.754 101.064L138.929 101.295C139.775 102.473 140.154 103.96 140.154 105.667C140.154 107.195 139.73 108.635 138.906 109.969L138.907 109.97C138.088 111.336 136.887 112.416 135.351 113.222L135.345 113.225C134.395 113.715 133.349 114.046 132.217 114.228L132.382 114.397H130.011L130.01 114.396C128.118 114.396 126.382 114.074 124.819 113.408L124.805 113.402C123.239 112.706 121.973 111.716 121.044 110.417V110.417C120.496 109.649 120.106 108.803 119.878 107.886L119.877 107.885C119.437 106.107 121 104.857 122.453 104.857H124.042C125.228 104.857 126.05 105.702 126.421 106.548L126.49 106.717V106.718C126.657 107.173 126.921 107.571 127.293 107.92C127.87 108.438 128.732 108.759 130.011 108.759C131.358 108.759 132.266 108.442 132.867 107.936C133.476 107.4 133.773 106.745 133.773 105.894C133.773 105.227 133.579 104.769 133.251 104.427L133.243 104.418L133.235 104.409C132.844 103.981 132.331 103.634 131.67 103.379L131.661 103.375C130.956 103.095 129.936 102.779 128.581 102.429L128.576 102.428C126.824 101.967 125.367 101.499 124.217 101.02L124.204 101.015L124.191 101.009C123.118 100.527 122.187 99.8229 121.397 98.9136L121.067 98.5112C120.132 97.3023 119.715 95.7514 119.715 93.9585C119.715 92.2669 120.144 90.7423 121.028 89.4233C121.905 88.1145 123.126 87.1262 124.654 86.4507C126.176 85.7779 127.906 85.4556 129.821 85.4556Z" fill="white" stroke="black" stroke-width="2"/>
<path d="M153.451 90.9121C156.15 90.9121 158.471 91.5523 160.342 92.9014C161.542 93.7668 162.491 94.8714 163.185 96.2021C163.648 97.0918 163.501 98.0418 162.999 98.7354C162.51 99.4115 161.691 99.8467 160.778 99.8467H159.711C158.496 99.8467 157.572 99.0693 157.045 98.2695C156.776 97.8608 156.444 97.5203 156.044 97.2432C155.411 96.8041 154.568 96.5498 153.451 96.5498C151.939 96.5498 150.815 97.0668 149.969 98.0703C149.115 99.0827 148.623 100.574 148.623 102.674C148.623 104.773 149.115 106.274 149.972 107.301C150.819 108.316 151.943 108.836 153.451 108.836C155.223 108.836 156.346 108.23 157.046 107.132L157.148 106.979C157.685 106.219 158.571 105.539 159.708 105.539H160.724C161.648 105.539 162.475 105.986 162.96 106.676C163.458 107.385 163.586 108.351 163.087 109.237C162.474 110.326 161.683 111.269 160.721 112.066L160.298 112.399C158.418 113.802 156.113 114.474 153.451 114.474C151.426 114.474 149.581 114.048 147.942 113.175L147.617 112.994C145.901 112.002 144.56 110.599 143.6 108.812C142.633 107.016 142.166 104.96 142.166 102.674C142.166 100.388 142.633 98.3322 143.6 96.5352L143.784 96.2041C144.73 94.5742 146.011 93.2899 147.622 92.3701C149.34 91.3897 151.293 90.9122 153.451 90.9121Z" fill="white" stroke="black" stroke-width="2"/>
<path d="M176.271 90.9121C178.056 90.9121 179.66 91.2677 181.05 92.0166H181.049C181.669 92.3324 182.237 92.6906 182.752 93.0908C183.18 92.013 184.234 91.2529 185.462 91.2529H185.981C187.604 91.2529 188.928 92.5629 188.928 94.1895V111.195C188.928 112.822 187.603 114.132 185.981 114.132H185.495C184.245 114.132 183.175 113.354 182.748 112.253C182.22 112.67 181.636 113.045 180.997 113.376C179.566 114.115 177.958 114.473 176.195 114.473C174.214 114.473 172.383 113.971 170.723 112.964L170.712 112.957C169.059 111.925 167.748 110.505 166.782 108.72L166.777 108.712L166.773 108.704C165.827 106.879 165.366 104.836 165.366 102.598V101.598H165.399C165.518 99.7545 165.971 98.0686 166.779 96.5566L166.785 96.5459C167.754 94.7833 169.069 93.3979 170.73 92.417L171.047 92.2354C172.646 91.3523 174.393 90.9121 176.271 90.9121ZM177.186 96.6631C176.243 96.6631 175.374 96.8953 174.561 97.3633L174.543 97.373C173.756 97.8055 173.096 98.4622 172.567 99.3828C172.086 100.239 171.824 101.297 171.824 102.598C171.824 103.895 172.085 104.986 172.575 105.902C173.106 106.848 173.773 107.545 174.57 108.026C175.411 108.495 176.279 108.722 177.186 108.722C178.129 108.722 178.998 108.49 179.811 108.021C180.604 107.565 181.254 106.896 181.757 105.98L181.761 105.974C182.275 105.059 182.547 103.969 182.547 102.674C182.547 101.378 182.274 100.304 181.766 99.4199L181.762 99.4121L181.757 99.4043C181.254 98.4892 180.604 97.82 179.811 97.3633C178.998 96.8952 178.129 96.6631 177.186 96.6631Z" fill="white" stroke="black" stroke-width="2"/>
<path d="M196.157 84.0913C197.897 84.0913 199.329 85.4879 199.329 87.2368V110.986C199.329 112.735 197.896 114.131 196.157 114.131C194.417 114.131 192.986 112.734 192.986 110.986V87.2368C192.986 85.4887 194.417 84.0914 196.157 84.0913Z" fill="white" stroke="black" stroke-width="2"/>
<path d="M206.557 84.0913C208.297 84.0913 209.728 85.4879 209.729 87.2368V110.986C209.729 112.735 208.296 114.131 206.557 114.131C204.817 114.131 203.386 112.734 203.386 110.986V87.2368C203.386 85.4887 204.817 84.0914 206.557 84.0913Z" fill="white" stroke="black" stroke-width="2"/>
<path d="M224.082 90.9121C226.106 90.9121 227.974 91.3316 229.67 92.1836L230.007 92.3594V92.3604C231.799 93.3356 233.216 94.7322 234.246 96.5312L234.433 96.874C235.342 98.6005 235.787 100.541 235.787 102.674C235.787 104.81 235.33 106.755 234.395 108.483L234.202 108.826C233.211 110.513 231.876 111.848 230.208 112.818L229.871 113.008C228.052 113.988 226.053 114.473 223.892 114.473C222.026 114.473 220.295 114.103 218.713 113.353L218.695 113.372L218.031 113C216.267 112.012 214.878 110.615 213.875 108.828C212.866 107.028 212.377 104.967 212.376 102.674C212.376 100.4 212.881 98.3425 213.917 96.5312H213.918C214.948 94.7321 216.364 93.3356 218.156 92.3604V92.3594C219.94 91.389 221.922 90.9121 224.082 90.9121ZM224.005 96.6641C223.054 96.6641 222.187 96.8877 221.387 97.333C220.618 97.7614 219.993 98.4042 219.517 99.2979L219.516 99.2988C219.053 100.168 218.796 101.278 218.796 102.674C218.796 104.755 219.328 106.214 220.256 107.198H220.257C221.216 108.214 222.403 108.723 223.892 108.723C224.843 108.723 225.726 108.498 226.557 108.048L226.85 107.874C227.52 107.445 228.088 106.843 228.548 106.041C229.052 105.163 229.33 104.056 229.33 102.674C229.33 101.284 229.062 100.18 228.58 99.3145V99.3135C228.14 98.5268 227.591 97.9331 226.935 97.5078L226.648 97.3359C225.832 96.8878 224.957 96.6641 224.005 96.6641Z" fill="white" stroke="black" stroke-width="2"/>
<path d="M251.092 90.9121C253.088 90.9121 254.927 91.4096 256.584 92.4111C258.275 93.3926 259.597 94.7827 260.545 96.5566C261.496 98.3381 261.959 100.36 261.959 102.598C261.959 104.836 261.497 106.879 260.552 108.704L260.549 108.709C259.605 110.504 258.289 111.928 256.605 112.961L256.601 112.964C254.939 113.972 253.095 114.473 251.092 114.473C249.358 114.473 247.776 114.13 246.372 113.417L246.365 113.414L246.358 113.41C245.791 113.111 245.265 112.778 244.777 112.415V120.9C244.777 122.65 243.352 124.061 241.605 124.061C239.859 124.06 238.435 122.65 238.435 120.9V94.4131C238.435 92.6632 239.859 91.2541 241.605 91.2539C242.91 91.2539 244.034 92.0399 244.521 93.167C245.063 92.7376 245.665 92.3509 246.327 92.0088C247.755 91.2704 249.351 90.9121 251.092 90.9121ZM250.14 96.6641C249.229 96.6641 248.358 96.8915 247.514 97.3633C246.716 97.8224 246.051 98.4976 245.521 99.4209C245.038 100.305 244.777 101.378 244.777 102.674C244.777 103.971 245.039 105.063 245.528 105.979C246.057 106.893 246.719 107.563 247.51 108.02C248.355 108.493 249.228 108.722 250.14 108.722C251.081 108.722 251.948 108.49 252.76 108.023C253.579 107.542 254.241 106.85 254.744 105.914L254.749 105.905L254.753 105.897C255.266 104.983 255.539 103.893 255.539 102.598C255.539 101.301 255.266 100.246 254.764 99.3916L254.756 99.3789L254.749 99.3672C254.251 98.4619 253.598 97.811 252.791 97.3789L252.777 97.3721L252.765 97.3643C251.952 96.8962 251.083 96.6641 250.14 96.6641Z" fill="white" stroke="black" stroke-width="2"/>
</g>
<circle cx="24" cy="176" r="14" fill="white" stroke="white" stroke-width="2"/>
<path fill-rule="evenodd" clip-rule="evenodd" d="M24 163C16.8203 163 11 168.82 11 176C11 183.18 16.8203 189 24 189C31.1797 189 37 183.18 37 176C37 168.82 31.1797 163 24 163ZM21.7071 172.293C21.3166 171.902 20.6834 171.902 20.2929 172.293C19.9024 172.683 19.9024 173.317 20.2929 173.707L22.5858 176L20.2929 178.293C19.9024 178.683 19.9024 179.317 20.2929 179.707C20.6834 180.098 21.3166 180.098 21.7071 179.707L24 177.414L26.2929 179.707C26.6834 180.098 27.3166 180.098 27.7071 179.707C28.0976 179.317 28.0976 178.683 27.7071 178.293L25.4142 176L27.7071 173.707C28.0976 173.317 28.0976 172.683 27.7071 172.293C27.3166 171.902 26.6834 171.902 26.2929 172.293L24 174.586L21.7071 172.293Z" fill="#CA6460"/>
<defs>
<filter id="filter0_d_968_3535" x="33.1113" y="61.9146" width="233.847" height="82.8384" filterUnits="userSpaceOnUse" color-interpolation-filters="sRGB">
<feFlood flood-opacity="0" result="BackgroundImageFix"/>
<feColorMatrix in="SourceAlpha" type="matrix" values="0 0 0 0 0 0 0 0 0 0 0 0 0 0 0 0 0 0 127 0" result="hardAlpha"/>
<feOffset dy="4"/>
<feGaussianBlur stdDeviation="2"/>
<feComposite in2="hardAlpha" operator="out"/>
<feColorMatrix type="matrix" values="0 0 0 0 0 0 0 0 0 0 0 0 0 0 0 0 0 0 0.5 0"/>
<feBlend mode="normal" in2="BackgroundImageFix" result="effect1_dropShadow_968_3535"/>
<feBlend mode="normal" in="SourceGraphic" in2="effect1_dropShadow_968_3535" result="shape"/>
</filter>
</defs>
</svg>
