<svg width="302" height="202" viewBox="0 0 302 202" fill="none" xmlns="http://www.w3.org/2000/svg">
<path d="M293 0.5C297.694 0.5 301.5 4.30558 301.5 9V193C301.5 197.694 297.694 201.5 293 201.5H9C4.30558 201.5 0.5 197.694 0.5 193V9C0.500002 4.30558 4.30558 0.5 9 0.5H293Z" fill="#1E2D45"/>
<path d="M293 0.5C297.694 0.5 301.5 4.30558 301.5 9V193C301.5 197.694 297.694 201.5 293 201.5H9C4.30558 201.5 0.5 197.694 0.5 193V9C0.500002 4.30558 4.30558 0.5 9 0.5H293Z" stroke="#ABB0C0"/>
<path d="M1 9C1 4.58173 4.58172 1 9 1H293C297.418 1 301 4.58172 301 9V193C301 197.418 297.418 201 293 201H8.99999C4.58171 201 1 197.418 1 193V9Z" fill="#1E2D45"/>
<path d="M74.8333 137.04C94.7225 137.04 110.846 120.905 110.846 101C110.846 81.0953 94.7225 64.9595 74.8333 64.9595C54.9441 64.9595 38.8208 81.0953 38.8208 101C38.8208 120.905 54.9441 137.04 74.8333 137.04Z" fill="#F1D6C8"/>
<path d="M96.3541 91.9346C98.4599 90.0494 100.676 87.0053 99.6022 85.5036C98.5289 84.002 92.7592 84.0054 90.7669 84.4077C88.1811 81.9593 85.5014 79.1585 78.4406 80.9136C77.0447 79.2926 73.8816 77.0856 72.7218 77.6046C70.3969 78.5711 69.4492 83.8934 69.4492 83.8934C62.91 85.6093 56.4944 88.9702 54.9149 89.8808C51.9625 91.4703 48.9 94.5781 49.9951 99.1712C47.2618 101.679 46.6173 113.02 54.8844 115.346C58.2468 120.199 61.1526 119.98 64.8939 119.914C66.0604 122.799 70.4773 126.398 76.6598 122.599C80.8489 123.506 85.9352 123.722 89.833 119.76C95.139 119.575 101.644 114.913 99.8592 107.135C103.107 102.502 96.8763 92.9022 96.3541 91.9346Z" fill="black"/>
<path d="M99.0522 100.399C94.7923 89.1033 88.6293 83.022 85.1892 81.9693C81.3923 80.7993 77.5723 82.3083 68.8044 85.273C59.5098 88.416 53.1334 91.0944 51.442 94.9982C49.8075 98.7702 52.8299 103.534 56.5196 104.335C56.4613 103.809 56.5538 103.058 56.5732 102.938C56.675 102.3 57.8519 97.0322 63.8611 94.7447C60.2307 96.7808 55.672 102.021 58.1681 106.757C59.476 108.424 61.7041 109.68 65.3629 108.738C65.6845 103.862 69.4791 97.8697 74.2722 93.8637C71.0834 97.6002 67.184 102.809 66.6332 107.776C66.5894 108.165 66.5786 109.932 67.5377 111.193C70.5802 114.037 76.3084 115.234 79.7883 111.354C83.2945 107.041 82.468 99.0565 81.9669 94.8896C83.5062 100.441 83.7584 106.734 81.2838 110.904C83.3115 112.977 87.0445 113.328 90.4286 110.561C92.6738 105.342 92.6272 98.67 88.0585 92.5361C92.7753 98.1265 93.2423 102.757 91.7968 109.956C96.1682 108.773 101.299 107.502 99.0529 100.398L99.0522 100.399Z" fill="#ABB0C0"/>
<path d="M55.0082 109.601C52.9309 108.995 49.5517 106.227 49.6522 102.578C49.1651 104.722 48.4744 112.094 55.5599 114.397C54.8216 112.869 54.8266 111.081 55.0082 109.601Z" fill="#ABB0C0"/>
<path d="M64.105 114.582C61.5741 114.758 56.9092 112.524 56.3715 109.552C55.6878 110.375 54.8231 113.533 56.7269 115.969C59.2039 118.931 61.628 118.984 65.1482 118.766C64.3351 117.26 64.0644 115.836 64.1053 114.582L64.105 114.582Z" fill="#ABB0C0"/>
<path d="M90.0925 115.295C90.0925 115.295 90.0925 115.294 90.0925 115.293C88.3804 117.165 83.6766 118.338 79.5005 116.404C79.4318 117.57 78.1156 120.313 76.7153 121.386C79.4429 122.021 84.754 123.185 88.7877 119.19C89.708 117.842 90.0473 116.48 90.0929 115.294L90.0925 115.295Z" fill="#ABB0C0"/>
<path d="M64.9931 114.643C64.8028 116.575 65.0976 117.975 65.5174 119.113C66.6209 121.413 70.4603 125.177 76.35 121.557C77.8615 120.275 78.229 118.261 78.1905 116.858C75.4039 118.972 67.3157 118.881 64.9931 114.643Z" fill="#ABB0C0"/>
<path d="M91.0364 114.979V114.979C91.0139 115.786 90.7288 117.06 89.291 118.674C94.2976 118.61 98.056 115.18 98.737 111.631C97.2399 113.975 93.773 115.429 91.0367 114.979H91.0364Z" fill="#ABB0C0"/>
<path d="M49.4632 106.863C49.8103 109.703 51.2391 112.992 55.5599 114.397C55.2828 113.823 55.1103 113.213 55.0125 112.596C51.4927 112.534 49.8337 108.595 49.4629 106.864L49.4632 106.863Z" fill="#858B97"/>
<path d="M55.5952 113.056C55.682 114.02 56.0056 115.046 56.7268 115.969C59.2038 118.93 61.6279 118.984 65.1481 118.765C64.9246 118.352 64.7437 117.944 64.5973 117.545C58.1874 118.406 56.3121 114.898 55.5955 113.056L55.5952 113.056Z" fill="#858B97"/>
<path d="M77.4472 120.194C77.475 120.14 77.5031 120.085 77.5299 120.03C76.0878 121.123 74.602 122.029 71.4115 121.892C67.5423 121.584 65.6927 119.628 65.1172 117.71C65.1403 117.825 65.1658 117.937 65.1922 118.047C65.1986 118.074 65.205 118.1 65.2117 118.126C65.2659 118.343 65.3266 118.551 65.3916 118.75C65.3996 118.775 65.4076 118.8 65.4157 118.824C65.4485 118.922 65.482 119.019 65.5168 119.113C66.6203 121.413 70.4598 125.176 76.3494 121.557C76.8177 121.16 77.1758 120.692 77.4465 120.194L77.4472 120.194Z" fill="#858B97"/>
<path d="M88.7874 119.191C89.1261 118.694 89.3857 118.197 89.5813 117.706C85.1637 122.008 79.3039 120.733 78.0232 119.908C77.6235 120.504 77.1743 121.035 76.7153 121.387C79.4429 122.022 84.754 123.186 88.7877 119.191H88.7874Z" fill="#858B97"/>
<path d="M90.2486 117.398C90.0071 117.795 89.6942 118.221 89.2905 118.674C93.3795 118.621 96.6347 116.323 98.0622 113.55C96.5158 116.47 91.599 117.537 90.2486 117.398V117.398Z" fill="#858B97"/>
<path d="M50.4929 100.477C49.9703 101.164 49.8059 101.967 49.8059 101.967C49.6729 104.183 52.7874 109.391 56.7698 108.874C56.9394 111.787 62.4149 114.994 64.9345 113.557C66.6751 117.694 75.5818 118.762 79.0875 115.367C81.2074 117.317 88.7382 117.085 90.2963 113.97C92.6916 115.264 97.9269 113.026 98.9343 110.274C99.1467 109.239 98.8445 108.21 98.8445 108.21C97.7604 109.544 94.1364 112.218 91.3325 111.312C89.23 113.242 84.4284 115.15 80.7468 112.029C76.5074 117.42 66.5301 114.527 65.6356 109.86C62.8447 110.61 57.5996 110.358 56.4285 105.501C55.5625 105.138 52.5606 104.634 50.4929 100.477Z" fill="#1E2D45"/>
<path d="M70.7617 83.4112C72.2672 82.8419 75.3904 81.8633 77.2359 81.3286C76.1659 80.2226 73.8159 78.5295 73.1523 78.6753C72.1982 78.9392 71.0937 81.8516 70.7617 83.4112Z" fill="white"/>
<path d="M91.6865 85.4142C93.7759 87.7051 95.4285 90.4157 95.7662 90.9179C97.2164 89.6935 99.2237 86.587 98.6056 86.1317C97.4067 85.2483 93.1692 85.2064 91.6865 85.4142Z" fill="white"/>
<path d="M68.1546 85.4941C68.0407 85.533 67.9272 85.5718 67.8143 85.6104C67.758 85.6295 67.7021 85.649 67.6461 85.6681C67.5332 85.707 67.4206 85.7455 67.3084 85.7844C67.2575 85.8018 67.2066 85.8196 67.156 85.837C66.9979 85.8917 66.8401 85.9463 66.684 86.001C66.6786 86.003 66.6733 86.0047 66.6679 86.0067C66.5148 86.06 66.3627 86.1133 66.2116 86.1666C66.1621 86.184 66.1131 86.2015 66.0636 86.2189C65.9554 86.2571 65.8472 86.2953 65.74 86.3336C65.687 86.3523 65.6344 86.3711 65.5815 86.3899C65.473 86.4288 65.3648 86.4673 65.2572 86.5059C65.211 86.5226 65.1644 86.5391 65.1185 86.5558C64.816 86.6648 64.5172 86.7738 64.2227 86.8824C64.1775 86.8991 64.133 86.9156 64.0881 86.9323C63.9849 86.9706 63.882 87.0088 63.7799 87.047C63.73 87.0654 63.6804 87.0842 63.6308 87.1026C63.5283 87.1412 63.4264 87.1794 63.3249 87.218C63.2817 87.2344 63.2385 87.2505 63.1953 87.2669C63.0526 87.3212 62.9105 87.3755 62.7698 87.4295H62.7692C62.6295 87.4835 62.4908 87.5375 62.3531 87.5911C62.3122 87.6072 62.2717 87.623 62.2312 87.6391C62.1327 87.678 62.0345 87.7165 61.937 87.7554C61.8918 87.7735 61.8466 87.7913 61.8014 87.8094C61.7045 87.8479 61.6087 87.8865 61.5133 87.9254C61.4734 87.9415 61.4332 87.9576 61.3933 87.974C61.1267 88.0823 60.8647 88.1906 60.6071 88.2992C60.5702 88.3146 60.5334 88.3304 60.4969 88.3458C60.4041 88.385 60.312 88.4242 60.2205 88.4635C60.1793 88.4812 60.1381 88.499 60.0969 88.5168C60.0058 88.5563 59.915 88.5956 59.8252 88.6351C59.7897 88.6505 59.7542 88.666 59.719 88.6817C59.4718 88.7907 59.2289 88.9 58.991 89.0096C58.9569 89.0254 58.923 89.0411 58.8889 89.0569C58.8034 89.0964 58.7187 89.136 58.6343 89.1759C58.5964 89.1937 58.5586 89.2114 58.521 89.2295C58.4373 89.2694 58.3539 89.3093 58.2715 89.3492C58.239 89.365 58.2061 89.3807 58.1736 89.3965C57.9468 89.5068 57.7247 89.6178 57.5073 89.7291C57.4765 89.7448 57.446 89.7609 57.4152 89.7767C57.3371 89.8169 57.2594 89.8575 57.1827 89.8977C57.1485 89.9158 57.1144 89.9339 57.0802 89.952C57.0035 89.9929 56.9274 90.0335 56.8521 90.0744C56.8229 90.0901 56.7938 90.1059 56.765 90.1217C56.5593 90.234 56.3586 90.3473 56.163 90.4609C56.1348 90.4774 56.107 90.4938 56.0789 90.5102C56.0089 90.5515 55.9392 90.5924 55.8705 90.6339C55.84 90.6524 55.8095 90.6708 55.7791 90.6893C55.7101 90.7312 55.6417 90.7734 55.5737 90.8153C55.5482 90.8311 55.5221 90.8472 55.497 90.8629C55.4045 90.9209 55.3134 90.9789 55.2236 91.0373C58.9217 89.2929 71.5294 84.6512 77.8412 89.3646C84.1529 94.0781 92.4204 88.5667 88.0801 83.6055C87.0021 82.7677 86.0165 82.2229 85.189 81.9698C81.3922 80.7998 77.5722 82.3088 68.8042 85.2735C68.6394 85.3291 68.4759 85.3848 68.3131 85.4401C68.2602 85.4582 68.2076 85.476 68.1546 85.4941Z" fill="white"/>
<path d="M69.8488 98.4888C66.1524 103.146 65.1929 106.633 62.926 107.044C61.118 107.371 58.9515 107.593 57.5405 104.926C57.6457 105.54 57.8491 106.153 58.1676 106.758C59.4755 108.424 61.7036 109.68 65.3624 108.739C65.5752 105.511 67.3101 101.795 69.8488 98.4888Z" fill="#858B97"/>
<path d="M66.7827 109.521C66.9147 110.077 67.1445 110.678 67.5371 111.193C70.5796 114.038 76.3078 115.235 79.7878 111.355C81.7539 108.936 82.3572 105.363 82.4198 101.956C80.11 114.02 68.5405 114.604 66.7827 109.521Z" fill="#858B97"/>
<path d="M90.6833 109.933C90.7241 109.827 90.7647 109.722 90.8035 109.615C90.827 109.55 90.8494 109.485 90.8722 109.42C90.906 109.324 90.9395 109.228 90.9717 109.131C90.9952 109.061 91.0176 108.99 91.0404 108.918C91.0699 108.826 91.099 108.733 91.1271 108.641C91.1496 108.566 91.1714 108.491 91.1928 108.417C91.2189 108.326 91.2441 108.235 91.2685 108.144C91.2896 108.067 91.3101 107.989 91.3302 107.911C91.3529 107.822 91.3747 107.732 91.3962 107.643C91.4152 107.562 91.4347 107.482 91.4528 107.401C91.4725 107.313 91.491 107.224 91.5094 107.136C91.5268 107.053 91.5446 106.97 91.5606 106.887C91.5774 106.801 91.5921 106.715 91.6075 106.628C91.6229 106.541 91.6394 106.455 91.6534 106.367C91.6655 106.293 91.6755 106.218 91.6866 106.144C91.7171 105.939 91.7442 105.733 91.7677 105.526C91.774 105.469 91.7817 105.412 91.7878 105.354C91.7988 105.245 91.8079 105.136 91.8169 105.027C91.8226 104.961 91.8286 104.895 91.8337 104.829C91.8417 104.719 91.8474 104.609 91.8534 104.5C91.8571 104.434 91.8608 104.368 91.8638 104.301C91.8685 104.19 91.8715 104.078 91.8742 103.966C91.8755 103.902 91.8772 103.837 91.8779 103.772C91.8792 103.658 91.8792 103.543 91.8782 103.427C91.8776 103.366 91.8769 103.305 91.8755 103.244C91.8732 103.125 91.8702 103.005 91.8652 102.885C91.8628 102.83 91.8601 102.775 91.8571 102.719C91.8507 102.593 91.844 102.467 91.8347 102.34C91.8317 102.296 91.8276 102.252 91.8239 102.208C91.8129 102.069 91.8012 101.931 91.7868 101.792C91.7851 101.776 91.7831 101.76 91.7814 101.744C91.709 101.067 91.5961 100.385 91.439 99.7009C91.4377 99.6952 91.4367 99.6891 91.4353 99.6834C91.3992 99.5272 91.36 99.3706 91.3194 99.2141C91.3127 99.1882 91.3064 99.1621 91.2993 99.1363C91.2598 98.9871 91.2176 98.8379 91.174 98.6887C91.1647 98.6562 91.1553 98.6237 91.1456 98.5911C91.1014 98.444 91.0551 98.2965 91.0069 98.1493C90.9962 98.1164 90.9851 98.0836 90.9744 98.0507C90.9245 97.9012 90.8726 97.752 90.8183 97.6025C90.8082 97.5753 90.7982 97.5482 90.7881 97.521C90.7305 97.3651 90.6712 97.2089 90.6089 97.053C90.6039 97.0399 90.5982 97.0272 90.5932 97.0141C90.2417 96.1417 89.8136 95.2704 89.3024 94.4058C91.7871 100.765 91.2635 108.45 87.1293 110.641C85.6234 111.44 83.5126 111.929 81.4446 110.624C81.444 110.624 81.4433 110.624 81.4426 110.624C81.3907 110.718 81.3388 110.812 81.2842 110.905C83.3119 112.978 87.0448 113.329 90.429 110.562C90.4957 110.406 90.5603 110.25 90.623 110.092C90.6437 110.039 90.6635 109.986 90.6839 109.933H90.6833Z" fill="#858B97"/>
<path d="M99.0525 100.399C97.0324 95.0421 94.5843 90.8591 92.2014 87.8276C96.3366 95.6761 98.6659 101.237 96.9785 105.194C96.3306 106.539 95.4492 108.33 92.3468 109.14C92.2929 109.156 92.0433 109.137 91.9967 109.159C91.9518 109.402 91.8463 109.706 91.7964 109.955C93.6114 111.09 101.865 107.825 99.0525 100.398V100.399Z" fill="#858B97"/>
<path d="M98.0542 88.0826C95.4717 89.4658 92.8048 86.2597 91.6865 85.4146C93.7759 87.7054 95.4285 90.416 95.7661 90.9182C96.5293 90.2738 97.4462 89.1084 98.0542 88.0826Z" fill="#858B97"/>
<path d="M59.5274 97.5312C55.9088 101.192 53.4619 101.852 51.7939 100.43C52.7775 102.357 54.5537 103.909 56.5191 104.335C56.4608 103.809 56.5533 103.058 56.5727 102.938C56.6427 102.5 57.2206 99.8734 59.5274 97.5312Z" fill="#858B97"/>
<path d="M130.749 115.311C128.951 115.311 127.333 115.002 125.895 114.385C124.456 113.743 123.326 112.843 122.504 111.686C122.024 111.009 121.683 110.266 121.483 109.457C121.241 108.472 122.092 107.637 123.106 107.637H124.712C125.425 107.637 125.994 108.195 126.239 108.865C126.465 109.486 126.826 110.028 127.32 110.491C128.142 111.236 129.285 111.609 130.749 111.609C132.265 111.609 133.446 111.249 134.294 110.529C135.142 109.784 135.565 108.833 135.565 107.676C135.565 106.776 135.296 106.043 134.756 105.478C134.243 104.912 133.588 104.476 132.792 104.167C132.021 103.859 130.942 103.524 129.555 103.165C127.808 102.702 126.383 102.239 125.279 101.777C124.2 101.288 123.275 100.543 122.504 99.5406C121.734 98.5382 121.349 97.2015 121.349 95.5305C121.349 93.9883 121.734 92.6386 122.504 91.4819C123.275 90.3253 124.354 89.4385 125.741 88.8213C127.128 88.2044 128.733 87.896 130.557 87.896C133.151 87.896 135.27 88.5514 136.914 89.8623C138.07 90.7524 138.869 91.8772 139.311 93.236C139.642 94.2549 138.772 95.1832 137.702 95.1832H136.105C135.387 95.1832 134.82 94.6069 134.501 93.9629C134.268 93.4908 133.917 93.062 133.446 92.6771C132.599 91.9832 131.481 91.6362 130.094 91.6362C128.836 91.6362 127.808 91.9573 127.012 92.6C126.216 93.2427 125.818 94.168 125.818 95.3763C125.818 96.1991 126.061 96.88 126.55 97.4197C127.063 97.9337 127.705 98.345 128.476 98.6535C129.246 98.9619 130.299 99.2962 131.635 99.6559C133.407 100.144 134.846 100.633 135.95 101.121C137.081 101.609 138.031 102.368 138.801 103.396C139.598 104.398 139.996 105.748 139.996 107.444C139.996 108.807 139.623 110.092 138.879 111.3C138.159 112.508 137.093 113.485 135.681 114.231C134.294 114.95 132.65 115.31 130.749 115.31L130.749 115.311Z" fill="white"/>
<path d="M145.382 98.634C146.269 96.9762 147.494 95.6978 149.061 94.7977C150.628 93.8982 152.426 93.4482 154.455 93.4482C157.024 93.4482 159.15 94.0591 160.832 95.2798C161.915 96.0656 162.771 97.0674 163.402 98.2844C163.955 99.3522 163.067 100.504 161.865 100.504H160.785C160.015 100.504 159.356 100.002 158.934 99.3575C158.591 98.8335 158.164 98.3933 157.653 98.0369C156.806 97.4459 155.74 97.1502 154.455 97.1502C152.657 97.1502 151.225 97.7865 150.159 99.0588C149.093 100.331 148.561 102.112 148.561 104.399C148.561 106.686 149.093 108.473 150.159 109.759C151.225 111.044 152.657 111.686 154.455 111.686C156.517 111.686 158.013 110.952 158.943 109.481C159.355 108.831 160.013 108.332 160.782 108.332H161.809C163.028 108.332 163.914 109.514 163.318 110.578C162.68 111.718 161.832 112.685 160.774 113.479C159.079 114.752 156.972 115.388 154.455 115.388C152.426 115.388 150.628 114.932 149.061 114.019C147.494 113.107 146.268 111.822 145.382 110.163C144.496 108.505 144.053 106.584 144.053 104.399C144.053 102.214 144.496 100.292 145.382 98.634Z" fill="white"/>
<path d="M167.516 104.321C167.516 102.188 167.952 100.299 168.826 98.6535C169.725 97.0084 170.932 95.7361 172.448 94.8362C173.989 93.9109 175.684 93.4482 177.533 93.4482C179.203 93.4482 180.654 93.7825 181.887 94.4507C182.757 94.8952 183.506 95.4199 184.13 96.0244C184.397 96.2822 184.892 96.1038 184.892 95.733C184.892 94.6629 185.759 93.7952 186.828 93.7952H187.353C188.441 93.7952 189.322 94.6776 189.322 95.7659V113.07C189.322 114.158 188.441 115.04 187.353 115.04H186.861C185.773 115.04 184.892 114.158 184.892 113.069C184.892 112.69 184.381 112.508 184.11 112.774C183.482 113.39 182.729 113.927 181.848 114.385C180.564 115.053 179.1 115.387 177.456 115.387C175.632 115.387 173.963 114.925 172.447 113.999C170.932 113.048 169.725 111.737 168.825 110.066C167.952 108.37 167.516 106.455 167.516 104.321H167.516ZM184.892 104.399C184.892 102.933 184.584 101.661 183.967 100.581C183.377 99.5017 182.593 98.679 181.617 98.1134C180.641 97.5478 179.588 97.2652 178.458 97.2652C177.328 97.2652 176.275 97.5478 175.299 98.1134C174.322 98.6532 173.527 99.4628 172.91 100.543C172.319 101.597 172.024 102.856 172.024 104.321C172.024 105.787 172.319 107.072 172.91 108.177C173.526 109.283 174.322 110.131 175.299 110.722C176.3 111.288 177.354 111.57 178.458 111.57C179.588 111.57 180.641 111.288 181.617 110.722C182.594 110.157 183.377 109.334 183.967 108.254C184.584 107.149 184.892 105.864 184.892 104.399Z" fill="white"/>
<path d="M197.644 86.5078C196.432 86.5078 195.449 87.4854 195.449 88.691V112.857C195.449 114.063 196.432 115.04 197.644 115.04C198.857 115.04 199.841 114.063 199.841 112.857V88.691C199.841 87.4851 198.858 86.5078 197.644 86.5078Z" fill="white"/>
<path d="M208.162 86.5078C206.95 86.5078 205.966 87.4854 205.966 88.691V112.857C205.966 114.063 206.95 115.04 208.162 115.04C209.374 115.04 210.359 114.063 210.359 112.857V88.691C210.359 87.4851 209.375 86.5078 208.162 86.5078Z" fill="white"/>
<path d="M220.26 114.019C218.642 113.107 217.37 111.821 216.445 110.163C215.521 108.505 215.059 106.584 215.059 104.399C215.059 102.239 215.534 100.325 216.484 98.6535C217.434 96.9829 218.732 95.6978 220.375 94.7977C222.019 93.8982 223.855 93.4482 225.885 93.4482C227.914 93.4482 229.75 93.8982 231.395 94.7977C233.038 95.6978 234.335 96.9829 235.286 98.6535C236.236 100.325 236.711 102.239 236.711 104.399C236.711 106.558 236.223 108.473 235.247 110.144C234.271 111.815 232.942 113.107 231.26 114.018C229.577 114.931 227.721 115.387 225.693 115.387C223.689 115.387 221.878 114.931 220.26 114.018L220.26 114.019ZM228.871 110.761C229.859 110.221 230.663 109.411 231.279 108.332C231.895 107.252 232.204 105.941 232.204 104.399C232.204 102.856 231.908 101.552 231.317 100.485C230.726 99.4192 229.943 98.6153 228.967 98.0755C227.991 97.5357 226.938 97.2658 225.808 97.2658C224.678 97.2658 223.631 97.5357 222.668 98.0755C221.705 98.6153 220.94 99.4192 220.376 100.485C219.81 101.552 219.528 102.857 219.528 104.399C219.528 106.687 220.112 108.454 221.281 109.701C222.45 110.948 223.921 111.571 225.693 111.571C226.822 111.571 227.882 111.301 228.871 110.761L228.871 110.761Z" fill="white"/>
<path d="M245.803 96.3513C245.803 96.5346 246.043 96.6181 246.164 96.481C246.864 95.6935 247.759 95.0166 248.847 94.4507C250.131 93.7825 251.583 93.4482 253.201 93.4482C255.05 93.4482 256.732 93.9109 258.248 94.8362C259.789 95.7361 260.996 97.0084 261.869 98.6535C262.743 100.299 263.179 102.188 263.179 104.321C263.179 106.455 262.743 108.37 261.869 110.066C260.996 111.737 259.789 113.048 258.248 113.999C256.732 114.925 255.05 115.387 253.201 115.387C251.583 115.387 250.144 115.066 248.885 114.423C247.883 113.891 247.027 113.261 246.318 112.533C246.137 112.347 245.803 112.47 245.803 112.729V122.945C245.803 124.159 244.82 125.143 243.608 125.143C242.395 125.143 241.412 124.159 241.412 122.945V95.9932C241.412 94.7796 242.395 93.7956 243.608 93.7956C244.82 93.7956 245.803 94.7796 245.803 95.9932L245.803 96.3513ZM258.71 104.322C258.71 102.857 258.402 101.597 257.785 100.543C257.195 99.4635 256.399 98.6538 255.397 98.1141C254.421 97.5485 253.368 97.2658 252.237 97.2658C251.133 97.2658 250.08 97.5485 249.078 98.1141C248.102 98.6796 247.306 99.502 246.69 100.582C246.099 101.661 245.803 102.933 245.803 104.399C245.803 105.864 246.099 107.149 246.69 108.255C247.306 109.334 248.102 110.157 249.078 110.722C250.08 111.288 251.133 111.57 252.237 111.57C253.368 111.57 254.421 111.288 255.397 110.722C256.399 110.131 257.195 109.283 257.785 108.177C258.402 107.072 258.71 105.787 258.71 104.322Z" fill="white"/>
<circle cx="25" cy="177" r="14" fill="white" stroke="white" stroke-width="2"/>
<path fill-rule="evenodd" clip-rule="evenodd" d="M12 177C12 169.82 17.8203 164 25 164C32.1797 164 38 169.82 38 177C38 184.18 32.1797 190 25 190C17.8203 190 12 184.18 12 177ZM29.8137 174.581C30.1347 174.132 30.0307 173.507 29.5812 173.186C29.1318 172.865 28.5073 172.969 28.1863 173.419L23.8724 179.458L21.7071 177.293C21.3166 176.902 20.6834 176.902 20.2929 177.293C19.9024 177.683 19.9024 178.317 20.2929 178.707L23.2929 181.707C23.5007 181.915 23.7895 182.021 24.0825 181.997C24.3754 181.972 24.6429 181.82 24.8137 181.581L29.8137 174.581Z" fill="#7BBBA7"/>
</svg>
