<svg width="760" height="305" viewBox="0 0 760 305" fill="none" xmlns="http://www.w3.org/2000/svg">
<path d="M156.147 259C214.689 259 262.147 211.542 262.147 153C262.147 94.4578 214.689 47 156.147 47C97.605 47 50.1472 94.4578 50.1472 153C50.1472 211.542 97.605 259 156.147 259Z" fill="#F1D6C8"/>
<path d="M219.492 126.337C225.69 120.792 232.212 111.839 229.052 107.422C225.893 103.006 208.911 103.016 203.046 104.199C195.435 96.9978 187.548 88.7604 166.765 93.9223C162.656 89.1548 153.346 82.6637 149.932 84.1901C143.089 87.0328 140.299 102.686 140.299 102.686C121.052 107.733 102.168 117.618 97.5188 120.296C88.8288 124.971 79.8144 134.112 83.0377 147.62C74.9926 154.996 73.0954 188.353 97.4291 195.193C107.326 209.467 115.879 208.823 126.891 208.628C130.325 217.114 143.326 227.698 161.523 216.525C173.854 219.193 188.825 219.827 200.297 208.174C215.915 207.631 235.061 193.918 229.809 171.043C239.368 157.418 221.029 129.182 219.492 126.337Z" fill="black"/>
<path d="M227.432 151.231C214.894 118.01 196.754 100.124 186.628 97.0282C175.452 93.5869 164.208 98.025 138.4 106.745C111.042 115.989 92.274 123.866 87.2955 135.348C82.4846 146.442 91.3807 160.453 102.241 162.807C102.069 161.26 102.342 159.051 102.399 158.698C102.699 156.823 106.163 141.33 123.85 134.602C113.164 140.591 99.7463 156.003 107.093 169.932C110.943 174.834 117.501 178.529 128.271 175.759C129.217 161.417 140.386 143.793 154.495 132.011C145.108 143.001 133.631 158.321 132.01 172.929C131.881 174.072 131.849 179.271 134.672 182.978C143.627 191.344 160.488 194.864 170.731 183.453C181.051 170.768 178.618 147.284 177.143 135.028C181.674 151.357 182.416 169.865 175.133 182.128C181.101 188.227 192.089 189.257 202.05 181.119C208.658 165.771 208.521 146.147 195.073 128.106C208.957 144.549 210.331 158.167 206.077 179.34C218.944 175.863 234.045 172.123 227.434 151.23L227.432 151.231Z" fill="#ABB0C0"/>
<path d="M97.7929 178.297C91.6784 176.515 81.7322 168.375 82.028 157.642C80.5943 163.947 78.5611 185.629 99.4169 192.402C97.2437 187.908 97.2585 182.649 97.7929 178.297Z" fill="#ABB0C0"/>
<path d="M124.568 192.946C117.118 193.466 103.388 186.893 101.805 178.152C99.7926 180.574 97.2476 189.861 102.851 197.027C110.142 205.737 117.277 205.894 127.639 205.252C125.245 200.824 124.449 196.634 124.569 192.947L124.568 192.946Z" fill="#ABB0C0"/>
<path d="M201.062 195.043C201.062 195.043 201.062 195.04 201.062 195.038C196.022 200.545 182.177 203.995 169.885 198.305C169.683 201.734 165.808 209.803 161.687 212.959C169.715 214.826 185.348 218.25 197.221 206.5C199.93 202.536 200.928 198.53 201.063 195.041L201.062 195.043Z" fill="#ABB0C0"/>
<path d="M127.183 193.126C126.623 198.811 127.491 202.927 128.726 206.275C131.974 213.039 143.275 224.109 160.611 213.463C165.06 209.692 166.142 203.768 166.028 199.641C157.826 205.859 134.019 205.591 127.183 193.126Z" fill="#ABB0C0"/>
<path d="M203.838 194.113V194.115C203.772 196.489 202.933 200.236 198.701 204.982C213.438 204.793 224.5 194.706 226.505 184.269C222.098 191.163 211.892 195.438 203.838 194.113Z" fill="#ABB0C0"/>
<path d="M81.471 170.244C82.4925 178.595 86.698 188.27 99.416 192.401C98.6006 190.713 98.0927 188.919 97.8048 187.105C87.4444 186.923 82.5615 175.338 81.47 170.245L81.471 170.244Z" fill="#858B97"/>
<path d="M99.5205 188.457C99.7759 191.292 100.728 194.311 102.851 197.026C110.142 205.736 117.277 205.892 127.639 205.25C126.981 204.034 126.448 202.836 126.018 201.661C107.151 204.193 101.631 193.874 99.5215 188.458L99.5205 188.457Z" fill="#858B97"/>
<path d="M163.84 209.452C163.922 209.291 164.005 209.13 164.084 208.97C159.839 212.182 155.466 214.849 146.075 214.444C134.686 213.54 129.242 207.787 127.548 202.146C127.616 202.485 127.691 202.813 127.769 203.136C127.787 203.214 127.806 203.292 127.826 203.369C127.986 204.007 128.164 204.619 128.355 205.205C128.379 205.277 128.403 205.35 128.426 205.421C128.523 205.709 128.622 205.994 128.724 206.271C131.972 213.035 143.273 224.105 160.609 213.459C161.988 212.291 163.042 210.915 163.838 209.45L163.84 209.452Z" fill="#858B97"/>
<path d="M197.22 206.5C198.217 205.041 198.981 203.576 199.557 202.134C186.554 214.786 169.306 211.038 165.536 208.61C164.36 210.362 163.038 211.924 161.687 212.959C169.715 214.826 185.348 218.25 197.221 206.5H197.22Z" fill="#858B97"/>
<path d="M201.521 201.229C200.81 202.395 199.889 203.649 198.701 204.981C210.737 204.826 220.318 198.069 224.52 189.911C219.968 198.5 205.496 201.638 201.521 201.228V201.229Z" fill="#858B97"/>
<path d="M84.503 151.46C82.9647 153.48 82.4806 155.843 82.4806 155.843C82.0891 162.36 91.2564 177.677 102.979 176.158C103.477 184.724 119.594 194.158 127.01 189.932C132.134 202.097 158.35 205.239 168.669 195.254C174.909 200.989 197.075 200.307 201.661 191.146C208.711 194.95 224.121 188.37 227.086 180.274C227.711 177.23 226.822 174.203 226.822 174.203C223.631 178.129 212.964 185.991 204.711 183.327C198.522 189.003 184.389 194.616 173.553 185.437C161.074 201.292 131.707 192.783 129.074 179.057C120.859 181.263 105.421 180.523 101.974 166.238C99.4248 165.17 90.5889 163.686 84.503 151.46Z" fill="#1E2D45"/>
<path d="M144.163 101.269C148.594 99.595 157.787 96.7167 163.219 95.144C160.07 91.891 153.153 86.9115 151.199 87.3404C148.391 88.1164 145.14 96.6822 144.163 101.269Z" fill="white"/>
<path d="M205.751 107.161C211.901 113.899 216.765 121.871 217.759 123.348C222.028 119.747 227.936 110.611 226.117 109.272C222.588 106.673 210.116 106.55 205.751 107.161Z" fill="white"/>
<path d="M136.487 107.394C136.152 107.509 135.818 107.623 135.486 107.737C135.32 107.793 135.155 107.85 134.991 107.906C134.658 108.021 134.327 108.134 133.997 108.248C133.847 108.3 133.697 108.352 133.548 108.403C133.083 108.564 132.618 108.725 132.159 108.885C132.143 108.891 132.127 108.896 132.111 108.902C131.661 109.059 131.213 109.216 130.768 109.372C130.622 109.424 130.478 109.475 130.333 109.526C130.014 109.639 129.696 109.751 129.38 109.864C129.224 109.919 129.069 109.974 128.914 110.029C128.594 110.144 128.276 110.257 127.959 110.37C127.823 110.42 127.686 110.468 127.551 110.517C126.66 110.838 125.781 111.158 124.914 111.478C124.781 111.527 124.65 111.575 124.518 111.625C124.214 111.737 123.911 111.849 123.611 111.962C123.464 112.016 123.318 112.071 123.172 112.126C122.87 112.239 122.57 112.351 122.272 112.465C122.144 112.513 122.017 112.56 121.89 112.609C121.47 112.768 121.052 112.928 120.638 113.087H120.636C120.225 113.246 119.816 113.404 119.411 113.562C119.291 113.61 119.171 113.656 119.052 113.703C118.762 113.818 118.473 113.931 118.186 114.045C118.053 114.099 117.92 114.151 117.787 114.204C117.502 114.317 117.22 114.431 116.939 114.545C116.822 114.593 116.703 114.64 116.586 114.688C115.801 115.007 115.03 115.325 114.272 115.645C114.163 115.69 114.055 115.736 113.947 115.782C113.674 115.897 113.403 116.013 113.134 116.128C113.013 116.18 112.891 116.232 112.77 116.285C112.502 116.401 112.235 116.516 111.97 116.633C111.866 116.678 111.761 116.723 111.658 116.77C110.93 117.09 110.215 117.412 109.515 117.734C109.415 117.78 109.315 117.827 109.214 117.873C108.963 117.99 108.713 118.106 108.465 118.223C108.354 118.275 108.242 118.328 108.132 118.381C107.885 118.498 107.64 118.616 107.397 118.733C107.301 118.779 107.205 118.826 107.109 118.872C106.442 119.196 105.788 119.523 105.148 119.85C105.057 119.897 104.967 119.944 104.877 119.99C104.647 120.109 104.418 120.228 104.192 120.346C104.092 120.399 103.991 120.453 103.891 120.506C103.665 120.626 103.441 120.746 103.219 120.866C103.133 120.912 103.048 120.959 102.963 121.005C102.357 121.335 101.767 121.668 101.191 122.003C101.108 122.051 101.026 122.099 100.943 122.148C100.737 122.269 100.532 122.389 100.33 122.512C100.24 122.566 100.151 122.62 100.061 122.674C99.8578 122.797 99.6566 122.922 99.4564 123.045C99.3815 123.091 99.3046 123.139 99.2306 123.185C98.9585 123.356 98.6903 123.526 98.426 123.698C109.311 118.567 146.421 104.916 164.999 118.778C183.577 132.641 207.912 116.432 195.136 101.84C191.963 99.3759 189.062 97.7736 186.627 97.0291C175.451 93.5878 164.207 98.026 138.399 106.746C137.914 106.909 137.433 107.073 136.954 107.236C136.798 107.289 136.643 107.341 136.487 107.394Z" fill="white"/>
<path d="M141.474 145.613C130.594 159.309 127.77 169.566 121.097 170.774C115.775 171.738 109.399 172.391 105.245 164.546C105.555 166.351 106.154 168.154 107.091 169.933C110.941 174.835 117.499 178.529 128.269 175.76C128.895 166.267 134.003 155.337 141.475 145.613H141.474Z" fill="#858B97"/>
<path d="M132.45 178.06C132.838 179.696 133.515 181.463 134.67 182.979C143.625 191.346 160.486 194.865 170.729 183.454C176.516 176.34 178.292 165.832 178.476 155.811C171.677 191.291 137.623 193.011 132.45 178.06Z" fill="#858B97"/>
<path d="M202.798 179.272C202.918 178.962 203.038 178.651 203.152 178.336C203.221 178.146 203.287 177.955 203.354 177.764C203.454 177.482 203.552 177.199 203.647 176.914C203.716 176.707 203.782 176.498 203.849 176.288C203.936 176.017 204.022 175.744 204.105 175.471C204.171 175.252 204.235 175.032 204.298 174.812C204.375 174.546 204.449 174.279 204.521 174.012C204.583 173.784 204.643 173.555 204.702 173.325C204.769 173.063 204.833 172.8 204.896 172.537C204.953 172.3 205.01 172.063 205.063 171.826C205.121 171.567 205.175 171.306 205.23 171.047C205.281 170.802 205.333 170.559 205.381 170.313C205.43 170.061 205.473 169.806 205.519 169.553C205.564 169.296 205.612 169.042 205.654 168.785C205.689 168.567 205.719 168.346 205.751 168.127C205.841 167.525 205.921 166.92 205.99 166.312C206.009 166.142 206.031 165.974 206.049 165.805C206.082 165.485 206.108 165.164 206.135 164.842C206.152 164.648 206.169 164.455 206.184 164.26C206.208 163.938 206.225 163.615 206.242 163.292C206.253 163.098 206.264 162.904 206.273 162.709C206.287 162.38 206.296 162.052 206.303 161.723C206.307 161.533 206.312 161.343 206.314 161.153C206.318 160.815 206.318 160.477 206.315 160.138C206.313 159.959 206.311 159.778 206.307 159.599C206.301 159.248 206.292 158.897 206.277 158.545C206.27 158.382 206.262 158.219 206.253 158.055C206.234 157.685 206.215 157.313 206.187 156.94C206.178 156.811 206.166 156.681 206.156 156.552C206.123 156.145 206.089 155.737 206.046 155.328C206.041 155.282 206.035 155.234 206.03 155.188C205.817 153.197 205.485 151.192 205.023 149.178C205.019 149.161 205.016 149.144 205.012 149.127C204.905 148.667 204.79 148.207 204.671 147.746C204.651 147.67 204.632 147.594 204.611 147.518C204.495 147.079 204.371 146.64 204.243 146.201C204.215 146.106 204.187 146.01 204.159 145.914C204.029 145.481 203.893 145.048 203.751 144.615C203.719 144.518 203.686 144.421 203.655 144.325C203.508 143.885 203.355 143.446 203.195 143.006C203.166 142.927 203.136 142.847 203.107 142.767C202.937 142.308 202.763 141.849 202.579 141.39C202.564 141.352 202.548 141.314 202.533 141.276C201.498 138.71 200.238 136.148 198.734 133.604C206.047 152.309 204.506 174.912 192.337 181.356C187.905 183.704 181.692 185.142 175.605 181.305C175.603 181.304 175.601 181.304 175.599 181.304C175.446 181.581 175.293 181.859 175.133 182.13C181.101 188.229 192.089 189.259 202.05 181.121C202.246 180.665 202.436 180.204 202.621 179.74C202.682 179.585 202.74 179.428 202.8 179.272H202.798Z" fill="#858B97"/>
<path d="M227.432 151.231C221.487 135.477 214.281 123.174 207.267 114.258C219.439 137.341 226.295 153.696 221.328 165.335C219.421 169.291 216.827 174.559 207.695 176.94C207.536 176.988 206.801 176.932 206.664 176.996C206.532 177.711 206.222 178.606 206.075 179.339C211.417 182.677 235.71 173.074 227.432 151.229V151.231Z" fill="#858B97"/>
<path d="M224.494 115.007C216.893 119.076 209.043 109.646 205.751 107.16C211.901 113.898 216.765 121.87 217.759 123.347C220.006 121.452 222.704 118.024 224.494 115.007Z" fill="#858B97"/>
<path d="M111.095 142.797C100.443 153.565 93.2413 155.504 88.3318 151.323C91.2268 156.991 96.4548 161.553 102.24 162.808C102.068 161.261 102.341 159.052 102.398 158.699C102.604 157.41 104.305 149.685 111.095 142.797Z" fill="#858B97"/>
<path d="M306.364 192.31C302.128 190.459 298.803 187.832 296.385 184.429C293.964 181.027 292.755 177.057 292.755 172.521H306.59C306.891 175.923 308.235 178.722 310.615 180.913C312.997 183.107 316.342 184.201 320.651 184.201C325.112 184.201 328.589 183.124 331.085 180.969C333.578 178.814 334.827 176.037 334.827 172.634C334.827 169.988 334.051 167.833 332.502 166.17C330.952 164.508 329.023 163.222 326.718 162.315C324.41 161.408 321.217 160.426 317.135 159.367C311.993 158.006 307.816 156.626 304.603 155.227C301.389 153.829 298.649 151.655 296.382 148.706C294.113 145.758 292.979 141.828 292.979 136.912C292.979 132.376 294.113 128.407 296.382 125.005C298.649 121.603 301.825 118.995 305.907 117.179C309.989 115.365 314.713 114.458 320.082 114.458C327.718 114.458 333.975 116.368 338.851 120.185C343.728 124.003 346.43 129.239 346.959 135.891H332.67C332.444 133.018 331.084 130.561 328.588 128.519C326.093 126.478 322.805 125.457 318.722 125.457C315.016 125.457 311.992 126.404 309.65 128.292C307.305 130.183 306.134 132.905 306.134 136.458C306.134 138.878 306.87 140.862 308.345 142.411C309.819 143.962 311.69 145.19 313.958 146.097C316.227 147.004 319.326 147.989 323.257 149.046C328.474 150.482 332.726 151.919 336.014 153.355C339.303 154.792 342.099 157.003 344.406 159.99C346.711 162.977 347.864 166.964 347.864 171.953C347.864 175.962 346.788 179.741 344.632 183.294C342.478 186.849 339.339 189.702 335.219 191.856C331.098 194.011 326.241 195.088 320.647 195.088C315.354 195.088 310.592 194.163 306.359 192.309L306.364 192.31Z" fill="white"/>
<path d="M363.801 146.042C366.41 141.166 370.018 137.406 374.63 134.759C379.241 132.113 384.534 130.79 390.507 130.79C398.067 130.79 404.324 132.587 409.276 136.177C414.228 139.768 417.572 144.891 419.312 151.543H405.364C404.23 148.444 402.415 146.025 399.919 144.286C397.425 142.548 394.287 141.678 390.506 141.678C385.213 141.678 380.999 143.549 377.862 147.292C374.724 151.034 373.156 156.27 373.156 162.997C373.156 169.724 374.724 174.981 377.862 178.761C380.999 182.542 385.214 184.431 390.506 184.431C397.99 184.431 402.942 181.143 405.364 174.565H419.312C417.498 180.915 414.095 185.961 409.107 189.704C404.116 193.446 397.916 195.318 390.507 195.318C384.534 195.318 379.241 193.977 374.63 191.292C370.018 188.61 366.409 184.828 363.801 179.951C361.193 175.075 359.889 169.424 359.889 162.997C359.889 156.57 361.193 150.92 363.801 146.043V146.042Z" fill="white"/>
<path d="M432.863 146.099C435.471 141.262 439.024 137.5 443.522 134.816C448.019 132.133 452.991 130.79 458.435 130.79C463.348 130.79 467.638 131.754 471.306 133.682C474.972 135.61 477.901 138.011 480.095 140.883V131.811H493.137V194.296H480.095V184.998C477.901 187.945 474.916 190.404 471.136 192.369C467.354 194.334 463.044 195.317 458.208 195.317C452.839 195.317 447.925 193.937 443.466 191.177C439.004 188.419 435.471 184.562 432.863 179.61C430.253 174.659 428.95 169.046 428.95 162.77C428.95 156.495 430.253 150.939 432.863 146.099ZM477.431 151.769C475.653 148.594 473.329 146.175 470.456 144.512C467.582 142.849 464.483 142.017 461.157 142.017C457.831 142.017 454.73 142.831 451.859 144.456C448.984 146.083 446.659 148.464 444.883 151.601C443.107 154.738 442.219 158.461 442.219 162.77C442.219 167.08 443.107 170.861 444.883 174.111C446.659 177.362 449.003 179.838 451.915 181.539C454.824 183.24 457.906 184.091 461.157 184.091C464.483 184.091 467.582 183.26 470.456 181.596C473.328 179.934 475.653 177.495 477.431 174.281C479.206 171.068 480.095 167.306 480.095 162.997C480.095 158.688 479.206 154.944 477.431 151.769Z" fill="white"/>
<path d="M524.096 110.377V194.295H511.168V110.377H524.096Z" fill="white"/>
<path d="M555.054 110.377V194.295H542.126V110.377H555.054Z" fill="white"/>
<path d="M584.198 191.29C579.436 188.608 575.692 184.826 572.971 179.949C570.249 175.073 568.889 169.422 568.889 162.995C568.889 156.645 570.287 151.014 573.084 146.098C575.881 141.185 579.7 137.405 584.538 134.758C589.376 132.112 594.781 130.789 600.755 130.789C606.728 130.789 612.133 132.112 616.972 134.758C621.81 137.405 625.629 141.185 628.426 146.098C631.222 151.014 632.622 156.645 632.622 162.995C632.622 169.345 631.185 174.979 628.313 179.892C625.439 184.809 621.527 188.608 616.576 191.289C611.623 193.974 606.16 195.315 600.19 195.315C594.292 195.315 588.962 193.974 584.199 191.289L584.198 191.29ZM609.544 181.709C612.453 180.121 614.818 177.739 616.632 174.564C618.446 171.388 619.354 167.533 619.354 162.996C619.354 158.459 618.484 154.624 616.745 151.486C615.005 148.351 612.7 145.986 609.827 144.398C606.954 142.811 603.855 142.017 600.529 142.017C597.203 142.017 594.121 142.811 591.286 144.398C588.451 145.986 586.201 148.351 584.539 151.486C582.875 154.624 582.044 158.46 582.044 162.996C582.044 169.727 583.763 174.924 587.204 178.59C590.645 182.258 594.974 184.091 600.19 184.091C603.515 184.091 606.635 183.296 609.545 181.709L609.544 181.709Z" fill="white"/>
<path d="M668.342 133.738C672.121 131.773 676.394 130.79 681.157 130.79C686.6 130.79 691.57 132.133 696.069 134.816C700.566 137.5 704.101 141.263 706.673 146.099C709.243 150.939 710.527 156.495 710.527 162.77C710.527 169.046 709.242 174.66 706.673 179.61C704.101 184.563 700.566 188.419 696.069 191.177C691.57 193.937 686.6 195.317 681.157 195.317C676.394 195.317 672.158 194.353 668.455 192.425C664.75 190.497 661.725 188.098 659.383 185.224V224.008H646.455V131.811H659.383V140.997C661.575 138.124 664.56 135.705 668.342 133.738ZM694.708 151.6C692.93 148.463 690.587 146.082 687.678 144.455C684.767 142.83 681.647 142.016 678.322 142.016C675.07 142.016 671.989 142.849 669.079 144.511C666.168 146.174 663.824 148.593 662.048 151.768C660.271 154.943 659.384 158.685 659.384 162.995C659.384 167.305 660.271 171.066 662.048 174.279C663.824 177.493 666.168 179.932 669.079 181.594C671.988 183.259 675.07 184.089 678.322 184.089C681.647 184.089 684.767 183.238 687.678 181.537C690.587 179.836 692.931 177.36 694.708 174.109C696.484 170.859 697.373 167.079 697.373 162.769C697.373 158.459 696.484 154.737 694.708 151.6Z" fill="white"/>
<path d="M156.171 259C214.713 259 262.171 211.542 262.171 153C262.171 94.4578 214.713 47 156.171 47C97.6287 47 50.1709 94.4578 50.1709 153C50.1709 211.542 97.6287 259 156.171 259Z" fill="#F1D6C8"/>
<path d="M219.516 126.337C225.714 120.792 232.236 111.839 229.076 107.422C225.917 103.006 208.934 103.016 203.07 104.199C195.459 96.9978 187.572 88.7604 166.789 93.9223C162.68 89.1548 153.37 82.6637 149.956 84.1901C143.113 87.0328 140.323 102.686 140.323 102.686C121.076 107.733 102.192 117.618 97.5426 120.296C88.8526 124.971 79.8382 134.112 83.0616 147.62C75.0164 154.996 73.1192 188.353 97.4529 195.193C107.35 209.467 115.903 208.823 126.915 208.628C130.348 217.114 143.349 227.698 161.547 216.525C173.877 219.193 188.849 219.827 200.321 208.174C215.939 207.631 235.085 193.918 229.833 171.043C239.391 157.418 221.053 129.182 219.516 126.337Z" fill="black"/>
<path d="M227.457 151.231C214.919 118.01 196.778 100.124 186.653 97.0282C175.477 93.5869 164.233 98.025 138.425 106.745C111.067 115.989 92.2988 123.866 87.3203 135.348C82.5094 146.442 91.4055 160.453 102.266 162.807C102.094 161.26 102.366 159.051 102.424 158.698C102.723 156.823 106.187 141.33 123.875 134.602C113.189 140.591 99.7711 156.003 107.118 169.932C110.968 174.834 117.526 178.529 128.295 175.759C129.242 161.417 140.411 143.793 154.519 132.011C145.133 143.001 133.656 158.321 132.035 172.929C131.905 174.072 131.874 179.271 134.697 182.978C143.652 191.344 160.513 194.864 170.756 183.453C181.076 170.768 178.643 147.284 177.168 135.028C181.699 151.357 182.441 169.865 175.157 182.128C181.126 188.227 192.113 189.257 202.074 181.119C208.683 165.771 208.546 146.147 195.098 128.106C208.982 144.549 210.356 158.167 206.101 179.34C218.968 175.863 234.07 172.123 227.459 151.23L227.457 151.231Z" fill="#ABB0C0"/>
<path d="M97.8167 178.297C91.7022 176.515 81.756 168.375 82.0518 157.642C80.6181 163.947 78.5849 185.629 99.4407 192.402C97.2675 187.908 97.2823 182.649 97.8167 178.297Z" fill="#ABB0C0"/>
<path d="M124.592 192.946C117.142 193.466 103.411 186.893 101.829 178.152C99.8163 180.574 97.2713 189.861 102.875 197.027C110.166 205.737 117.301 205.894 127.662 205.252C125.269 200.824 124.472 196.634 124.593 192.947L124.592 192.946Z" fill="#ABB0C0"/>
<path d="M201.085 195.043C201.085 195.043 201.085 195.04 201.085 195.038C196.046 200.545 182.201 203.995 169.909 198.305C169.706 201.734 165.832 209.803 161.711 212.959C169.739 214.826 185.372 218.25 197.245 206.5C199.953 202.536 200.952 198.53 201.086 195.041L201.085 195.043Z" fill="#ABB0C0"/>
<path d="M127.207 193.126C126.647 198.811 127.514 202.927 128.75 206.275C131.998 213.039 143.299 224.109 160.635 213.463C165.084 209.692 166.165 203.768 166.052 199.641C157.85 205.859 134.043 205.591 127.207 193.126Z" fill="#ABB0C0"/>
<path d="M203.863 194.113V194.115C203.797 196.489 202.958 200.236 198.726 204.982C213.462 204.793 224.525 194.706 226.529 184.269C222.123 191.163 211.918 195.438 203.864 194.113H203.863Z" fill="#ABB0C0"/>
<path d="M81.4956 170.244C82.5172 178.595 86.7226 188.27 99.4407 192.401C98.6252 190.713 98.1174 188.919 97.8295 187.105C87.4691 186.923 82.5862 175.338 81.4946 170.245L81.4956 170.244Z" fill="#858B97"/>
<path d="M99.5443 188.457C99.7997 191.292 100.752 194.311 102.875 197.026C110.166 205.736 117.301 205.892 127.662 205.25C127.005 204.034 126.472 202.836 126.041 201.661C107.174 204.193 101.654 193.874 99.5453 188.458L99.5443 188.457Z" fill="#858B97"/>
<path d="M163.864 209.452C163.946 209.291 164.029 209.13 164.108 208.97C159.863 212.182 155.49 214.849 146.098 214.444C134.71 213.54 129.266 207.787 127.572 202.146C127.64 202.485 127.715 202.813 127.793 203.136C127.811 203.214 127.83 203.292 127.85 203.369C128.009 204.007 128.188 204.619 128.379 205.205C128.403 205.277 128.427 205.35 128.45 205.421C128.547 205.709 128.645 205.994 128.748 206.271C131.996 213.035 143.297 224.105 160.633 213.459C162.011 212.291 163.065 210.915 163.862 209.45L163.864 209.452Z" fill="#858B97"/>
<path d="M197.244 206.5C198.241 205.041 199.005 203.576 199.581 202.134C186.578 214.786 169.33 211.038 165.56 208.61C164.384 210.362 163.061 211.924 161.71 212.959C169.739 214.826 185.372 218.25 197.245 206.5H197.244Z" fill="#858B97"/>
<path d="M201.545 201.229C200.834 202.395 199.913 203.649 198.725 204.981C210.76 204.826 220.342 198.069 224.543 189.911C219.992 198.5 205.52 201.638 201.545 201.228V201.229Z" fill="#858B97"/>
<path d="M84.5266 151.46C82.9884 153.48 82.5043 155.843 82.5043 155.843C82.1128 162.36 91.2801 177.677 103.002 176.158C103.501 184.724 119.618 194.158 127.034 189.932C132.158 202.097 158.374 205.239 168.693 195.254C174.932 200.989 197.099 200.307 201.685 191.146C208.735 194.95 224.145 188.37 227.11 180.274C227.735 177.23 226.846 174.203 226.846 174.203C223.655 178.129 212.988 185.991 204.735 183.327C198.546 189.003 184.413 194.616 173.577 185.437C161.098 201.292 131.731 192.783 129.098 179.057C120.883 181.263 105.445 180.523 101.997 166.238C99.4485 165.17 90.6125 163.686 84.5266 151.46Z" fill="#1E2D45"/>
<path d="M144.187 101.269C148.618 99.595 157.811 96.7167 163.243 95.144C160.094 91.891 153.176 86.9115 151.223 87.3404C148.415 88.1164 145.164 96.6822 144.187 101.269Z" fill="white"/>
<path d="M205.776 107.161C211.926 113.899 216.79 121.871 217.784 123.348C222.053 119.747 227.961 110.611 226.142 109.272C222.613 106.673 210.14 106.55 205.776 107.161Z" fill="white"/>
<path d="M136.512 107.394C136.177 107.509 135.843 107.623 135.51 107.737C135.345 107.793 135.18 107.85 135.015 107.906C134.683 108.021 134.352 108.134 134.021 108.248C133.871 108.3 133.722 108.352 133.573 108.403C133.107 108.564 132.643 108.725 132.183 108.885C132.168 108.891 132.152 108.896 132.136 108.902C131.685 109.059 131.238 109.216 130.793 109.372C130.647 109.424 130.503 109.475 130.357 109.526C130.039 109.639 129.72 109.751 129.405 109.864C129.249 109.919 129.094 109.974 128.938 110.029C128.619 110.144 128.3 110.257 127.984 110.37C127.848 110.42 127.711 110.468 127.576 110.517C126.685 110.838 125.806 111.158 124.939 111.478C124.806 111.527 124.675 111.575 124.542 111.625C124.239 111.737 123.936 111.849 123.635 111.962C123.488 112.016 123.342 112.071 123.197 112.126C122.895 112.239 122.595 112.351 122.296 112.465C122.169 112.513 122.042 112.56 121.915 112.609C121.495 112.768 121.077 112.928 120.662 113.087H120.66C120.249 113.246 119.841 113.404 119.436 113.562C119.315 113.61 119.196 113.656 119.077 113.703C118.787 113.818 118.498 113.931 118.211 114.045C118.078 114.099 117.945 114.151 117.812 114.204C117.527 114.317 117.245 114.431 116.964 114.545C116.846 114.593 116.728 114.64 116.611 114.688C115.826 115.007 115.055 115.325 114.296 115.645C114.188 115.69 114.08 115.736 113.972 115.782C113.699 115.897 113.428 116.013 113.159 116.128C113.037 116.18 112.916 116.232 112.795 116.285C112.527 116.401 112.259 116.516 111.995 116.633C111.89 116.678 111.786 116.723 111.682 116.77C110.955 117.09 110.24 117.412 109.54 117.734C109.439 117.78 109.34 117.827 109.239 117.873C108.988 117.99 108.738 118.106 108.49 118.223C108.378 118.275 108.267 118.328 108.156 118.381C107.91 118.498 107.664 118.616 107.422 118.733C107.326 118.779 107.229 118.826 107.134 118.872C106.466 119.196 105.813 119.523 105.173 119.85C105.082 119.897 104.992 119.944 104.901 119.99C104.672 120.109 104.443 120.228 104.217 120.346C104.117 120.399 104.016 120.453 103.915 120.506C103.69 120.626 103.466 120.746 103.244 120.866C103.158 120.912 103.072 120.959 102.987 121.005C102.382 121.335 101.791 121.668 101.216 122.003C101.133 122.051 101.051 122.099 100.968 122.148C100.762 122.269 100.557 122.389 100.355 122.512C100.265 122.566 100.175 122.62 100.086 122.674C99.8824 122.797 99.6813 122.922 99.4811 123.045C99.4062 123.091 99.3293 123.139 99.2553 123.185C98.9832 123.356 98.7149 123.526 98.4507 123.698C109.336 118.567 146.446 104.916 165.024 118.778C183.602 132.641 207.936 116.432 195.161 101.84C191.988 99.3759 189.087 97.7736 186.652 97.0291C175.476 93.5878 164.232 98.026 138.424 106.746C137.939 106.909 137.458 107.073 136.978 107.236C136.823 107.289 136.668 107.341 136.512 107.394Z" fill="white"/>
<path d="M141.499 145.613C130.619 159.309 127.795 169.566 121.122 170.774C115.8 171.738 109.423 172.391 105.27 164.546C105.58 166.351 106.178 168.154 107.116 169.933C110.966 174.835 117.524 178.529 128.293 175.76C128.92 166.267 134.026 155.337 141.499 145.613Z" fill="#858B97"/>
<path d="M132.474 178.06C132.863 179.696 133.539 181.463 134.695 182.979C143.65 191.346 160.511 194.865 170.754 183.454C176.541 176.34 178.317 165.832 178.501 155.811C171.702 191.291 137.648 193.011 132.474 178.06Z" fill="#858B97"/>
<path d="M202.823 179.272C202.943 178.962 203.062 178.651 203.177 178.336C203.246 178.146 203.312 177.955 203.379 177.764C203.478 177.482 203.577 177.199 203.672 176.914C203.741 176.707 203.807 176.498 203.874 176.288C203.961 176.017 204.046 175.744 204.129 175.471C204.195 175.252 204.259 175.032 204.323 174.812C204.399 174.546 204.473 174.279 204.545 174.012C204.607 173.784 204.668 173.555 204.727 173.325C204.794 173.063 204.858 172.8 204.921 172.537C204.977 172.3 205.034 172.063 205.088 171.826C205.146 171.567 205.2 171.306 205.254 171.047C205.306 170.802 205.358 170.559 205.405 170.313C205.454 170.061 205.498 169.806 205.543 169.553C205.589 169.296 205.637 169.042 205.678 168.785C205.714 168.567 205.743 168.346 205.776 168.127C205.866 167.525 205.946 166.92 206.015 166.312C206.033 166.142 206.056 165.974 206.074 165.805C206.106 165.485 206.133 165.164 206.16 164.842C206.176 164.648 206.194 164.455 206.209 164.26C206.232 163.938 206.249 163.615 206.267 163.292C206.278 163.098 206.289 162.904 206.298 162.709C206.311 162.38 206.32 162.052 206.328 161.723C206.332 161.533 206.337 161.343 206.339 161.153C206.343 160.815 206.343 160.477 206.34 160.138C206.338 159.959 206.336 159.778 206.332 159.599C206.325 159.248 206.316 158.897 206.302 158.545C206.295 158.382 206.287 158.219 206.278 158.055C206.259 157.685 206.239 157.313 206.212 156.94C206.203 156.811 206.191 156.681 206.18 156.552C206.148 156.145 206.113 155.737 206.071 155.328C206.066 155.282 206.06 155.234 206.055 155.188C205.842 153.197 205.51 151.192 205.047 149.178C205.043 149.161 205.04 149.144 205.036 149.127C204.93 148.667 204.815 148.207 204.695 147.746C204.676 147.67 204.657 147.594 204.636 147.518C204.52 147.079 204.395 146.64 204.267 146.201C204.24 146.106 204.212 146.01 204.183 145.914C204.053 145.481 203.917 145.048 203.775 144.615C203.744 144.518 203.711 144.421 203.68 144.325C203.533 143.885 203.38 143.446 203.22 143.006C203.191 142.927 203.161 142.847 203.131 142.767C202.962 142.308 202.787 141.849 202.604 141.39C202.589 141.352 202.572 141.314 202.557 141.276C201.523 138.71 200.263 136.148 198.758 133.604C206.072 152.309 204.531 174.912 192.362 181.356C187.929 183.704 181.716 185.142 175.63 181.305C175.628 181.304 175.626 181.304 175.624 181.304C175.471 181.581 175.318 181.859 175.157 182.13C181.126 188.229 192.113 189.259 202.074 181.121C202.271 180.665 202.461 180.204 202.645 179.74C202.706 179.585 202.765 179.428 202.825 179.272H202.823Z" fill="#858B97"/>
<path d="M227.457 151.231C221.511 135.477 214.305 123.174 207.291 114.258C219.463 137.341 226.319 153.696 221.353 165.335C219.445 169.291 216.851 174.559 207.719 176.94C207.561 176.988 206.826 176.932 206.689 176.996C206.557 177.711 206.246 178.606 206.099 179.339C211.442 182.677 235.735 173.074 227.457 151.229V151.231Z" fill="#858B97"/>
<path d="M224.519 115.007C216.917 119.076 209.067 109.646 205.776 107.16C211.926 113.898 216.79 121.87 217.784 123.347C220.03 121.452 222.729 118.024 224.519 115.007Z" fill="#858B97"/>
<path d="M111.118 142.797C100.467 153.565 93.2651 155.504 88.3556 151.323C91.2506 156.991 96.4786 161.553 102.264 162.808C102.092 161.261 102.364 159.052 102.422 158.699C102.628 157.41 104.329 149.685 111.118 142.797Z" fill="#858B97"/>
<path d="M306.387 192.31C302.152 190.459 298.826 187.832 296.408 184.429C293.988 181.027 292.779 177.057 292.779 172.521H306.614C306.915 175.923 308.259 178.722 310.639 180.913C313.02 183.107 316.366 184.201 320.675 184.201C325.136 184.201 328.613 183.124 331.108 180.969C333.602 178.814 334.85 176.037 334.85 172.634C334.85 169.988 334.074 167.833 332.525 166.17C330.975 164.508 329.047 163.222 326.741 162.315C324.434 161.408 321.241 160.426 317.159 159.367C312.017 158.006 307.84 156.626 304.627 155.227C301.413 153.829 298.672 151.655 296.405 148.706C294.137 145.758 293.003 141.828 293.003 136.912C293.003 132.376 294.137 128.407 296.405 125.005C298.672 121.603 301.848 118.995 305.931 117.179C310.013 115.365 314.737 114.458 320.106 114.458C327.742 114.458 333.998 116.368 338.874 120.185C343.751 124.003 346.453 129.239 346.983 135.891H332.694C332.467 133.018 331.107 130.561 328.612 128.519C326.117 126.478 322.829 125.457 318.745 125.457C315.04 125.457 312.016 126.404 309.674 128.292C307.329 130.183 306.157 132.905 306.157 136.458C306.157 138.878 306.894 140.862 308.368 142.411C309.842 143.962 311.714 145.19 313.982 146.097C316.251 147.004 319.35 147.989 323.28 149.046C328.497 150.482 332.75 151.919 336.038 153.355C339.327 154.792 342.123 157.003 344.43 159.99C346.734 162.977 347.888 166.964 347.888 171.953C347.888 175.962 346.811 179.741 344.656 183.294C342.501 186.849 339.363 189.702 335.243 191.856C331.121 194.011 326.265 195.088 320.671 195.088C315.378 195.088 310.615 194.163 306.382 192.309L306.387 192.31Z" fill="white"/>
<path d="M363.825 146.042C366.434 141.166 370.042 137.406 374.655 134.759C379.266 132.113 384.559 130.79 390.531 130.79C398.091 130.79 404.349 132.587 409.301 136.177C414.253 139.768 417.596 144.891 419.337 151.543H405.388C404.254 148.444 402.44 146.025 399.943 144.286C397.45 142.548 394.312 141.678 390.53 141.678C385.237 141.678 381.024 143.549 377.886 147.292C374.749 151.034 373.181 156.27 373.181 162.997C373.181 169.724 374.749 174.981 377.886 178.761C381.024 182.542 385.238 184.431 390.53 184.431C398.015 184.431 402.966 181.143 405.388 174.565H419.337C417.522 180.915 414.12 185.961 409.131 189.704C404.141 193.446 397.941 195.318 390.531 195.318C384.559 195.318 379.266 193.977 374.655 191.292C370.042 188.61 366.433 184.828 363.825 179.951C361.217 175.075 359.914 169.424 359.914 162.997C359.914 156.57 361.217 150.92 363.825 146.043V146.042Z" fill="white"/>
<path d="M432.887 146.099C435.495 141.262 439.049 137.5 443.546 134.816C448.044 132.133 453.015 130.79 458.459 130.79C463.373 130.79 467.663 131.754 471.33 133.682C474.996 135.61 477.926 138.011 480.12 140.883V131.811H493.161V194.296H480.12V184.998C477.926 187.945 474.941 190.404 471.161 192.369C467.379 194.334 463.069 195.317 458.232 195.317C452.863 195.317 447.95 193.937 443.49 191.177C439.028 188.419 435.495 184.562 432.887 179.61C430.278 174.659 428.974 169.046 428.974 162.77C428.974 156.495 430.278 150.939 432.887 146.099ZM477.455 151.769C475.678 148.594 473.353 146.175 470.48 144.512C467.607 142.849 464.508 142.017 461.182 142.017C457.856 142.017 454.755 142.831 451.883 144.456C449.009 146.083 446.684 148.464 444.908 151.601C443.131 154.738 442.244 158.461 442.244 162.77C442.244 167.08 443.131 170.861 444.908 174.111C446.684 177.362 449.028 179.838 451.94 181.539C454.848 183.24 457.931 184.091 461.182 184.091C464.508 184.091 467.607 183.26 470.48 181.596C473.353 179.934 475.678 177.495 477.455 174.281C479.23 171.068 480.12 167.306 480.12 162.997C480.12 158.688 479.23 154.944 477.455 151.769Z" fill="white"/>
<path d="M524.12 110.377V194.295H511.192V110.377H524.12Z" fill="white"/>
<path d="M555.078 110.377V194.295H542.15V110.377H555.078Z" fill="white"/>
<path d="M584.221 191.29C579.46 188.608 575.716 184.826 572.994 179.949C570.273 175.073 568.912 169.422 568.912 162.995C568.912 156.645 570.31 151.014 573.108 146.098C575.904 141.185 579.723 137.405 584.562 134.758C589.399 132.112 594.805 130.789 600.778 130.789C606.752 130.789 612.156 132.112 616.996 134.758C621.833 137.405 625.652 141.185 628.45 146.098C631.245 151.014 632.645 156.645 632.645 162.995C632.645 169.345 631.209 174.979 628.336 179.892C625.463 184.809 621.55 188.608 616.599 191.289C611.646 193.974 606.184 195.315 600.213 195.315C594.316 195.315 588.985 193.974 584.222 191.289L584.221 191.29ZM609.568 181.709C612.477 180.121 614.841 177.739 616.656 174.564C618.47 171.388 619.377 167.533 619.377 162.996C619.377 158.459 618.507 154.624 616.769 151.486C615.029 148.351 612.723 145.986 609.851 144.398C606.977 142.811 603.878 142.017 600.552 142.017C597.226 142.017 594.144 142.811 591.309 144.398C588.474 145.986 586.224 148.351 584.563 151.486C582.898 154.624 582.068 158.46 582.068 162.996C582.068 169.727 583.787 174.924 587.228 178.59C590.668 182.258 594.997 184.091 600.213 184.091C603.538 184.091 606.658 183.296 609.569 181.709L609.568 181.709Z" fill="white"/>
<path d="M668.366 133.738C672.144 131.773 676.418 130.79 681.18 130.79C686.623 130.79 691.593 132.133 696.092 134.816C700.59 137.5 704.125 141.263 706.696 146.099C709.266 150.939 710.551 156.495 710.551 162.77C710.551 169.046 709.265 174.66 706.696 179.61C704.125 184.563 700.59 188.419 696.092 191.177C691.593 193.937 686.623 195.317 681.18 195.317C676.418 195.317 672.182 194.353 668.478 192.425C664.774 190.497 661.748 188.098 659.407 185.224V224.008H646.479V131.811H659.407V140.997C661.599 138.124 664.583 135.705 668.366 133.738ZM694.733 151.6C692.955 148.463 690.611 146.082 687.702 144.455C684.791 142.83 681.672 142.016 678.347 142.016C675.095 142.016 672.013 142.849 669.103 144.511C666.193 146.174 663.849 148.593 662.073 151.768C660.295 154.943 659.409 158.685 659.409 162.995C659.409 167.305 660.295 171.066 662.073 174.279C663.849 177.493 666.193 179.932 669.103 181.594C672.012 183.259 675.095 184.089 678.347 184.089C681.672 184.089 684.791 183.238 687.702 181.537C690.611 179.836 692.956 177.36 694.733 174.109C696.509 170.859 697.397 167.079 697.397 162.769C697.397 158.459 696.509 154.737 694.733 151.6Z" fill="white"/>
</svg>
