<svg width="300" height="200" viewBox="0 0 300 200" fill="none" xmlns="http://www.w3.org/2000/svg">
<path d="M0 8C0 3.58173 3.58172 0 8 0H292C296.418 0 300 3.58172 300 8V192C300 196.418 296.418 200 292 200H7.99999C3.58171 200 0 196.418 0 192V8Z" fill="#1E2D45"/>
<g filter="url(#filter0_f_968_3590)">
<path d="M73.8333 136.04C93.7225 136.04 109.846 119.905 109.846 99.9999C109.846 80.0953 93.7225 63.9595 73.8333 63.9595C53.9441 63.9595 37.8208 80.0953 37.8208 99.9999C37.8208 119.905 53.9441 136.04 73.8333 136.04Z" fill="#F1D6C8"/>
<path d="M95.3541 90.9346C97.4599 89.0494 99.6756 86.0053 98.6022 84.5036C97.5289 83.002 91.7592 83.0054 89.7669 83.4077C87.1811 80.9593 84.5014 78.1585 77.4406 79.9136C76.0447 78.2926 72.8816 76.0856 71.7218 76.6046C69.3969 77.5711 68.4492 82.8934 68.4492 82.8934C61.91 84.6093 55.4944 87.9702 53.9149 88.8808C50.9625 90.4703 47.9 93.5781 48.9951 98.1712C46.2618 100.679 45.6173 112.02 53.8844 114.346C57.2468 119.199 60.1526 118.98 63.8939 118.914C65.0604 121.799 69.4773 125.398 75.6598 121.599C79.8489 122.506 84.9352 122.722 88.833 118.76C94.139 118.575 100.644 113.913 98.8592 106.135C102.107 101.502 95.8763 91.9022 95.3541 90.9346Z" fill="black"/>
<path d="M98.0522 99.3986C93.7923 88.1033 87.6293 82.022 84.1892 80.9693C80.3923 79.7993 76.5723 81.3083 67.8044 84.273C58.5098 87.416 52.1334 90.0944 50.442 93.9982C48.8075 97.7702 51.8299 102.534 55.5196 103.335C55.4613 102.809 55.5538 102.058 55.5732 101.938C55.675 101.3 56.8519 96.0322 62.8611 93.7447C59.2307 95.7808 54.672 101.021 57.1681 105.757C58.476 107.424 60.7041 108.68 64.3629 107.738C64.6845 102.862 68.4791 96.8697 73.2722 92.8637C70.0834 96.6002 66.184 101.809 65.6332 106.776C65.5894 107.165 65.5786 108.932 66.5377 110.193C69.5802 113.037 75.3084 114.234 78.7883 110.354C82.2945 106.041 81.468 98.0565 80.9669 93.8896C82.5062 99.4415 82.7584 105.734 80.2838 109.904C82.3115 111.977 86.0445 112.328 89.4286 109.561C91.6738 104.342 91.6272 97.67 87.0585 91.5361C91.7753 97.1265 92.2423 101.757 90.7968 108.956C95.1682 107.773 100.299 106.502 98.0529 99.3982L98.0522 99.3986Z" fill="#ABB0C0"/>
<path d="M54.0082 108.601C51.9309 107.995 48.5517 105.227 48.6522 101.578C48.1651 103.722 47.4744 111.094 54.5599 113.397C53.8216 111.869 53.8266 110.081 54.0082 108.601Z" fill="#ABB0C0"/>
<path d="M63.105 113.582C60.5741 113.758 55.9092 111.524 55.3715 108.552C54.6878 109.375 53.8231 112.533 55.7269 114.969C58.2039 117.931 60.628 117.984 64.1482 117.766C63.3351 116.26 63.0644 114.836 63.1053 113.582L63.105 113.582Z" fill="#ABB0C0"/>
<path d="M89.0925 114.295C89.0925 114.295 89.0925 114.294 89.0925 114.293C87.3804 116.165 82.6766 117.338 78.5005 115.404C78.4318 116.57 77.1156 119.313 75.7153 120.386C78.4429 121.021 83.754 122.185 87.7877 118.19C88.708 116.842 89.0473 115.48 89.0929 114.294L89.0925 114.295Z" fill="#ABB0C0"/>
<path d="M63.9931 113.643C63.8028 115.575 64.0976 116.975 64.5174 118.113C65.6209 120.413 69.4603 124.177 75.35 120.557C76.8615 119.275 77.229 117.261 77.1905 115.858C74.4039 117.972 66.3157 117.881 63.9931 113.643Z" fill="#ABB0C0"/>
<path d="M90.0364 113.979V113.979C90.0139 114.786 89.7288 116.06 88.291 117.674C93.2976 117.61 97.056 114.18 97.737 110.631C96.2399 112.975 92.773 114.429 90.0367 113.979H90.0364Z" fill="#ABB0C0"/>
<path d="M48.4632 105.863C48.8103 108.703 50.2391 111.992 54.5599 113.397C54.2828 112.823 54.1103 112.213 54.0125 111.596C50.4927 111.534 48.8337 107.595 48.4629 105.864L48.4632 105.863Z" fill="#858B97"/>
<path d="M54.5952 112.056C54.682 113.02 55.0056 114.046 55.7268 114.969C58.2038 117.93 60.6279 117.984 64.1481 117.765C63.9246 117.352 63.7437 116.944 63.5973 116.545C57.1874 117.406 55.3121 113.898 54.5955 112.056L54.5952 112.056Z" fill="#858B97"/>
<path d="M76.4472 119.194C76.475 119.14 76.5031 119.085 76.5299 119.03C75.0878 120.123 73.602 121.029 70.4115 120.892C66.5423 120.584 64.6927 118.628 64.1172 116.71C64.1403 116.825 64.1658 116.937 64.1922 117.047C64.1986 117.074 64.205 117.1 64.2117 117.126C64.2659 117.343 64.3266 117.551 64.3916 117.75C64.3996 117.775 64.4076 117.8 64.4157 117.824C64.4485 117.922 64.482 118.019 64.5168 118.113C65.6203 120.413 69.4598 124.176 75.3494 120.557C75.8177 120.16 76.1758 119.692 76.4465 119.194L76.4472 119.194Z" fill="#858B97"/>
<path d="M87.7874 118.191C88.1261 117.694 88.3857 117.197 88.5813 116.706C84.1637 121.008 78.3039 119.733 77.0232 118.908C76.6235 119.504 76.1743 120.035 75.7153 120.387C78.4429 121.022 83.754 122.186 87.7877 118.191H87.7874Z" fill="#858B97"/>
<path d="M89.2486 116.398C89.0071 116.795 88.6942 117.221 88.2905 117.674C92.3795 117.621 95.6347 115.323 97.0622 112.55C95.5158 115.47 90.599 116.537 89.2486 116.398V116.398Z" fill="#858B97"/>
<path d="M49.4929 99.4769C48.9703 100.164 48.8059 100.967 48.8059 100.967C48.6729 103.183 51.7874 108.391 55.7698 107.874C55.9394 110.787 61.4149 113.994 63.9345 112.557C65.6751 116.694 74.5818 117.762 78.0875 114.367C80.2074 116.317 87.7382 116.085 89.2963 112.97C91.6916 114.264 96.9269 112.026 97.9343 109.274C98.1467 108.239 97.8445 107.21 97.8445 107.21C96.7604 108.544 93.1364 111.218 90.3325 110.312C88.23 112.242 83.4284 114.15 79.7468 111.029C75.5074 116.42 65.5301 113.527 64.6356 108.86C61.8447 109.61 56.5996 109.358 55.4285 104.501C54.5625 104.138 51.5606 103.634 49.4929 99.4769Z" fill="#1E2D45"/>
<path d="M69.7617 82.4112C71.2672 81.8419 74.3904 80.8633 76.2359 80.3286C75.1659 79.2226 72.8159 77.5295 72.1523 77.6753C71.1982 77.9392 70.0937 80.8516 69.7617 82.4112Z" fill="white"/>
<path d="M90.6865 84.4142C92.7759 86.7051 94.4285 89.4157 94.7662 89.9179C96.2164 88.6935 98.2237 85.587 97.6056 85.1317C96.4067 84.2483 92.1692 84.2064 90.6865 84.4142Z" fill="white"/>
<path d="M67.1546 84.4941C67.0407 84.533 66.9272 84.5718 66.8143 84.6104C66.758 84.6295 66.7021 84.649 66.6461 84.6681C66.5332 84.707 66.4206 84.7455 66.3084 84.7844C66.2575 84.8018 66.2066 84.8196 66.156 84.837C65.9979 84.8917 65.8401 84.9463 65.684 85.001C65.6786 85.003 65.6733 85.0047 65.6679 85.0067C65.5148 85.06 65.3627 85.1133 65.2116 85.1666C65.1621 85.184 65.1131 85.2015 65.0636 85.2189C64.9554 85.2571 64.8472 85.2953 64.74 85.3336C64.687 85.3523 64.6344 85.3711 64.5815 85.3899C64.473 85.4288 64.3648 85.4673 64.2572 85.5059C64.211 85.5226 64.1644 85.5391 64.1185 85.5558C63.816 85.6648 63.5172 85.7738 63.2227 85.8824C63.1775 85.8991 63.133 85.9156 63.0881 85.9323C62.9849 85.9706 62.882 86.0088 62.7799 86.047C62.73 86.0654 62.6804 86.0842 62.6308 86.1026C62.5283 86.1412 62.4264 86.1794 62.3249 86.218C62.2817 86.2344 62.2385 86.2505 62.1953 86.2669C62.0526 86.3212 61.9105 86.3755 61.7698 86.4295H61.7692C61.6295 86.4835 61.4908 86.5375 61.3531 86.5911C61.3122 86.6072 61.2717 86.623 61.2312 86.6391C61.1327 86.678 61.0345 86.7165 60.937 86.7554C60.8918 86.7735 60.8466 86.7913 60.8014 86.8094C60.7045 86.8479 60.6087 86.8865 60.5133 86.9254C60.4734 86.9415 60.4332 86.9576 60.3933 86.974C60.1267 87.0823 59.8647 87.1906 59.6071 87.2992C59.5702 87.3146 59.5334 87.3304 59.4969 87.3458C59.4041 87.385 59.312 87.4242 59.2205 87.4635C59.1793 87.4812 59.1381 87.499 59.0969 87.5168C59.0058 87.5563 58.915 87.5956 58.8252 87.6351C58.7897 87.6505 58.7542 87.666 58.719 87.6817C58.4718 87.7907 58.2289 87.9 57.991 88.0096C57.9569 88.0254 57.923 88.0411 57.8889 88.0569C57.8034 88.0964 57.7187 88.136 57.6343 88.1759C57.5964 88.1937 57.5586 88.2114 57.521 88.2295C57.4373 88.2694 57.3539 88.3093 57.2715 88.3492C57.239 88.365 57.2061 88.3807 57.1736 88.3965C56.9468 88.5068 56.7247 88.6178 56.5073 88.7291C56.4765 88.7448 56.446 88.7609 56.4152 88.7767C56.3371 88.8169 56.2594 88.8575 56.1827 88.8977C56.1485 88.9158 56.1144 88.9339 56.0802 88.952C56.0035 88.9929 55.9274 89.0335 55.8521 89.0744C55.8229 89.0901 55.7938 89.1059 55.765 89.1217C55.5593 89.234 55.3586 89.3473 55.163 89.4609C55.1348 89.4774 55.107 89.4938 55.0789 89.5102C55.0089 89.5515 54.9392 89.5924 54.8705 89.6339C54.84 89.6524 54.8095 89.6708 54.7791 89.6893C54.7101 89.7312 54.6417 89.7734 54.5737 89.8153C54.5482 89.8311 54.5221 89.8472 54.497 89.8629C54.4045 89.9209 54.3134 89.9789 54.2236 90.0373C57.9217 88.2929 70.5294 83.6512 76.8412 88.3646C83.1529 93.0781 91.4204 87.5667 87.0801 82.6055C86.0021 81.7677 85.0165 81.2229 84.189 80.9698C80.3922 79.7998 76.5722 81.3088 67.8042 84.2735C67.6394 84.3291 67.4759 84.3848 67.3131 84.4401C67.2602 84.4582 67.2076 84.476 67.1546 84.4941Z" fill="white"/>
<path d="M68.8488 97.4888C65.1524 102.146 64.1929 105.633 61.926 106.044C60.118 106.371 57.9515 106.593 56.5405 103.926C56.6457 104.54 56.8491 105.153 57.1676 105.758C58.4755 107.424 60.7036 108.68 64.3624 107.739C64.5752 104.511 66.3101 100.795 68.8488 97.4888Z" fill="#858B97"/>
<path d="M65.7827 108.521C65.9147 109.077 66.1445 109.678 66.5371 110.193C69.5796 113.038 75.3078 114.235 78.7878 110.355C80.7539 107.936 81.3572 104.363 81.4198 100.956C79.11 113.02 67.5405 113.604 65.7827 108.521Z" fill="#858B97"/>
<path d="M89.6833 108.933C89.7241 108.827 89.7647 108.722 89.8035 108.615C89.827 108.55 89.8494 108.485 89.8722 108.42C89.906 108.324 89.9395 108.228 89.9717 108.131C89.9952 108.061 90.0176 107.99 90.0404 107.918C90.0699 107.826 90.099 107.733 90.1271 107.641C90.1496 107.566 90.1714 107.491 90.1928 107.417C90.2189 107.326 90.2441 107.235 90.2685 107.144C90.2896 107.067 90.3101 106.989 90.3302 106.911C90.3529 106.822 90.3747 106.732 90.3962 106.643C90.4152 106.562 90.4347 106.482 90.4528 106.401C90.4725 106.313 90.491 106.224 90.5094 106.136C90.5268 106.053 90.5446 105.97 90.5606 105.887C90.5774 105.801 90.5921 105.715 90.6075 105.628C90.6229 105.541 90.6394 105.455 90.6534 105.367C90.6655 105.293 90.6755 105.218 90.6866 105.144C90.7171 104.939 90.7442 104.733 90.7677 104.526C90.774 104.469 90.7817 104.412 90.7878 104.354C90.7988 104.245 90.8079 104.136 90.8169 104.027C90.8226 103.961 90.8286 103.895 90.8337 103.829C90.8417 103.719 90.8474 103.609 90.8534 103.5C90.8571 103.434 90.8608 103.368 90.8638 103.301C90.8685 103.19 90.8715 103.078 90.8742 102.966C90.8755 102.902 90.8772 102.837 90.8779 102.772C90.8792 102.658 90.8792 102.543 90.8782 102.427C90.8776 102.366 90.8769 102.305 90.8755 102.244C90.8732 102.125 90.8702 102.005 90.8652 101.885C90.8628 101.83 90.8601 101.775 90.8571 101.719C90.8507 101.593 90.844 101.467 90.8347 101.34C90.8317 101.296 90.8276 101.252 90.8239 101.208C90.8129 101.069 90.8012 100.931 90.7868 100.792C90.7851 100.776 90.7831 100.76 90.7814 100.744C90.709 100.067 90.5961 99.3855 90.439 98.7009C90.4377 98.6952 90.4367 98.6891 90.4353 98.6834C90.3992 98.5272 90.36 98.3706 90.3194 98.2141C90.3127 98.1882 90.3064 98.1621 90.2993 98.1363C90.2598 97.9871 90.2176 97.8379 90.174 97.6887C90.1647 97.6562 90.1553 97.6237 90.1456 97.5911C90.1014 97.444 90.0551 97.2965 90.0069 97.1493C89.9962 97.1164 89.9851 97.0836 89.9744 97.0507C89.9245 96.9012 89.8726 96.752 89.8183 96.6025C89.8082 96.5753 89.7982 96.5482 89.7881 96.521C89.7305 96.3651 89.6712 96.2089 89.6089 96.053C89.6039 96.0399 89.5982 96.0272 89.5932 96.0141C89.2417 95.1417 88.8136 94.2704 88.3024 93.4058C90.7871 99.7653 90.2635 107.45 86.1293 109.641C84.6234 110.44 82.5126 110.929 80.4446 109.624C80.444 109.624 80.4433 109.624 80.4426 109.624C80.3907 109.718 80.3388 109.812 80.2842 109.905C82.3119 111.978 86.0448 112.329 89.429 109.562C89.4957 109.406 89.5603 109.25 89.623 109.092C89.6437 109.039 89.6635 108.986 89.6839 108.933H89.6833Z" fill="#858B97"/>
<path d="M98.0525 99.3985C96.0324 94.0421 93.5843 89.8591 91.2014 86.8276C95.3366 94.6761 97.6659 100.237 95.9785 104.194C95.3306 105.539 94.4492 107.33 91.3468 108.14C91.2929 108.156 91.0433 108.137 90.9967 108.159C90.9518 108.402 90.8463 108.706 90.7964 108.955C92.6114 110.09 100.865 106.825 98.0525 99.3979V99.3985Z" fill="#858B97"/>
<path d="M97.0542 87.0826C94.4717 88.4658 91.8048 85.2597 90.6865 84.4146C92.7759 86.7054 94.4285 89.416 94.7661 89.9182C95.5293 89.2738 96.4462 88.1084 97.0542 87.0826Z" fill="#858B97"/>
<path d="M58.5274 96.5312C54.9088 100.192 52.4619 100.852 50.7939 99.4302C51.7775 101.357 53.5537 102.909 55.5191 103.335C55.4608 102.809 55.5533 102.058 55.5727 101.938C55.6427 101.5 56.2206 98.8734 58.5274 96.5312Z" fill="#858B97"/>
<path d="M129.749 114.311C127.951 114.311 126.333 114.002 124.895 113.385C123.456 112.743 122.326 111.843 121.504 110.686C121.024 110.009 120.683 109.266 120.483 108.457C120.241 107.472 121.092 106.637 122.106 106.637H123.712C124.425 106.637 124.994 107.195 125.239 107.865C125.465 108.486 125.826 109.028 126.32 109.491C127.142 110.236 128.285 110.609 129.749 110.609C131.265 110.609 132.446 110.249 133.294 109.529C134.142 108.784 134.565 107.833 134.565 106.676C134.565 105.776 134.296 105.043 133.756 104.478C133.243 103.912 132.588 103.476 131.792 103.167C131.021 102.859 129.942 102.524 128.555 102.165C126.808 101.702 125.383 101.239 124.279 100.777C123.2 100.288 122.275 99.543 121.504 98.5406C120.734 97.5382 120.349 96.2015 120.349 94.5305C120.349 92.9883 120.734 91.6386 121.504 90.4819C122.275 89.3253 123.354 88.4385 124.741 87.8213C126.128 87.2044 127.733 86.896 129.557 86.896C132.151 86.896 134.27 87.5514 135.914 88.8623C137.07 89.7524 137.869 90.8772 138.311 92.236C138.642 93.2549 137.772 94.1832 136.702 94.1832H135.105C134.387 94.1832 133.82 93.6069 133.501 92.9629C133.268 92.4908 132.917 92.062 132.446 91.6771C131.599 90.9832 130.481 90.6362 129.094 90.6362C127.836 90.6362 126.808 90.9573 126.012 91.6C125.216 92.2427 124.818 93.168 124.818 94.3763C124.818 95.1991 125.061 95.88 125.55 96.4197C126.063 96.9337 126.705 97.345 127.476 97.6535C128.246 97.9619 129.299 98.2962 130.635 98.6559C132.407 99.1444 133.846 99.6329 134.95 100.121C136.081 100.609 137.031 101.368 137.801 102.396C138.598 103.398 138.996 104.748 138.996 106.444C138.996 107.807 138.623 109.092 137.879 110.3C137.159 111.508 136.093 112.485 134.681 113.231C133.294 113.95 131.65 114.31 129.749 114.31L129.749 114.311Z" fill="white"/>
<path d="M144.382 97.634C145.269 95.9762 146.494 94.6978 148.061 93.7977C149.628 92.8982 151.426 92.4482 153.455 92.4482C156.024 92.4482 158.15 93.0591 159.832 94.2798C160.915 95.0656 161.771 96.0674 162.402 97.2844C162.955 98.3522 162.067 99.5045 160.865 99.5045H159.785C159.015 99.5045 158.356 99.0022 157.934 98.3575C157.591 97.8335 157.164 97.3933 156.653 97.0369C155.806 96.4459 154.74 96.1502 153.455 96.1502C151.657 96.1502 150.225 96.7865 149.159 98.0588C148.093 99.3311 147.561 101.112 147.561 103.399C147.561 105.686 148.093 107.473 149.159 108.759C150.225 110.044 151.657 110.686 153.455 110.686C155.517 110.686 157.013 109.952 157.943 108.481C158.355 107.831 159.013 107.332 159.782 107.332H160.809C162.028 107.332 162.914 108.514 162.318 109.578C161.68 110.718 160.832 111.685 159.774 112.479C158.079 113.752 155.972 114.388 153.455 114.388C151.426 114.388 149.628 113.932 148.061 113.019C146.494 112.107 145.268 110.822 144.382 109.163C143.496 107.505 143.053 105.584 143.053 103.399C143.053 101.214 143.496 99.2922 144.382 97.634Z" fill="white"/>
<path d="M166.516 103.321C166.516 101.188 166.952 99.2986 167.826 97.6535C168.725 96.0084 169.932 94.7361 171.448 93.8362C172.989 92.9109 174.684 92.4482 176.533 92.4482C178.203 92.4482 179.654 92.7825 180.887 93.4507C181.757 93.8952 182.506 94.4199 183.13 95.0244C183.397 95.2822 183.892 95.1038 183.892 94.733C183.892 93.6629 184.759 92.7952 185.828 92.7952H186.353C187.441 92.7952 188.322 93.6776 188.322 94.7659V112.07C188.322 113.158 187.441 114.04 186.353 114.04H185.861C184.773 114.04 183.892 113.158 183.892 112.069C183.892 111.69 183.381 111.508 183.11 111.774C182.482 112.39 181.729 112.927 180.848 113.385C179.564 114.053 178.1 114.387 176.456 114.387C174.632 114.387 172.963 113.925 171.447 112.999C169.932 112.048 168.725 110.737 167.825 109.066C166.952 107.37 166.516 105.455 166.516 103.321H166.516ZM183.892 103.399C183.892 101.933 183.584 100.661 182.967 99.5812C182.377 98.5017 181.593 97.679 180.617 97.1134C179.641 96.5478 178.588 96.2652 177.458 96.2652C176.328 96.2652 175.275 96.5478 174.299 97.1134C173.322 97.6532 172.527 98.4628 171.91 99.5427C171.319 100.597 171.024 101.856 171.024 103.321C171.024 104.787 171.319 106.072 171.91 107.177C172.526 108.283 173.322 109.131 174.299 109.722C175.3 110.288 176.354 110.57 177.458 110.57C178.588 110.57 179.641 110.288 180.617 109.722C181.594 109.157 182.377 108.334 182.967 107.254C183.584 106.149 183.892 104.864 183.892 103.399Z" fill="white"/>
<path d="M196.644 85.5078C195.432 85.5078 194.449 86.4854 194.449 87.691V111.857C194.449 113.063 195.432 114.04 196.644 114.04C197.857 114.04 198.841 113.063 198.841 111.857V87.691C198.841 86.4851 197.858 85.5078 196.644 85.5078Z" fill="white"/>
<path d="M207.162 85.5078C205.95 85.5078 204.966 86.4854 204.966 87.691V111.857C204.966 113.063 205.95 114.04 207.162 114.04C208.374 114.04 209.359 113.063 209.359 111.857V87.691C209.359 86.4851 208.375 85.5078 207.162 85.5078Z" fill="white"/>
<path d="M219.26 113.019C217.642 112.107 216.37 110.821 215.445 109.163C214.521 107.505 214.059 105.584 214.059 103.399C214.059 101.239 214.534 99.3248 215.484 97.6535C216.434 95.9829 217.732 94.6978 219.375 93.7977C221.019 92.8982 222.855 92.4482 224.885 92.4482C226.914 92.4482 228.75 92.8982 230.395 93.7977C232.038 94.6978 233.335 95.9829 234.286 97.6535C235.236 99.3248 235.711 101.239 235.711 103.399C235.711 105.558 235.223 107.473 234.247 109.144C233.271 110.815 231.942 112.107 230.26 113.018C228.577 113.931 226.721 114.387 224.693 114.387C222.689 114.387 220.878 113.931 219.26 113.018L219.26 113.019ZM227.871 109.761C228.859 109.221 229.663 108.411 230.279 107.332C230.895 106.252 231.204 104.941 231.204 103.399C231.204 101.856 230.908 100.552 230.317 99.4854C229.726 98.4192 228.943 97.6153 227.967 97.0755C226.991 96.5357 225.938 96.2658 224.808 96.2658C223.678 96.2658 222.631 96.5357 221.668 97.0755C220.705 97.6153 219.94 98.4192 219.376 99.4854C218.81 100.552 218.528 101.857 218.528 103.399C218.528 105.687 219.112 107.454 220.281 108.701C221.45 109.948 222.921 110.571 224.693 110.571C225.822 110.571 226.882 110.301 227.871 109.761L227.871 109.761Z" fill="white"/>
<path d="M244.803 95.3513C244.803 95.5346 245.043 95.6181 245.164 95.481C245.864 94.6935 246.759 94.0166 247.847 93.4507C249.131 92.7825 250.583 92.4482 252.201 92.4482C254.05 92.4482 255.732 92.9109 257.248 93.8362C258.789 94.7361 259.996 96.0084 260.869 97.6535C261.743 99.2986 262.179 101.188 262.179 103.321C262.179 105.455 261.743 107.37 260.869 109.066C259.996 110.737 258.789 112.048 257.248 112.999C255.732 113.925 254.05 114.387 252.201 114.387C250.583 114.387 249.144 114.066 247.885 113.423C246.883 112.891 246.027 112.261 245.318 111.533C245.137 111.347 244.803 111.47 244.803 111.729V121.945C244.803 123.159 243.82 124.143 242.608 124.143C241.395 124.143 240.412 123.159 240.412 121.945V94.9932C240.412 93.7796 241.395 92.7956 242.608 92.7956C243.82 92.7956 244.803 93.7796 244.803 94.9932L244.803 95.3513ZM257.71 103.322C257.71 101.857 257.402 100.597 256.785 99.543C256.195 98.4635 255.399 97.6538 254.397 97.1141C253.421 96.5485 252.368 96.2658 251.237 96.2658C250.133 96.2658 249.08 96.5485 248.078 97.1141C247.102 97.6796 246.306 98.502 245.69 99.5816C245.099 100.661 244.803 101.933 244.803 103.399C244.803 104.864 245.099 106.149 245.69 107.255C246.306 108.334 247.102 109.157 248.078 109.722C249.08 110.288 250.133 110.57 251.237 110.57C252.368 110.57 253.421 110.288 254.397 109.722C255.399 109.131 256.195 108.283 256.785 107.177C257.402 106.072 257.71 104.787 257.71 103.322Z" fill="white"/>
</g>
<circle cx="24" cy="176" r="14" fill="white" stroke="white" stroke-width="2"/>
<path fill-rule="evenodd" clip-rule="evenodd" d="M24 163C16.8203 163 11 168.82 11 176C11 183.18 16.8203 189 24 189C31.1797 189 37 183.18 37 176C37 168.82 31.1797 163 24 163ZM21.7071 172.293C21.3166 171.902 20.6834 171.902 20.2929 172.293C19.9024 172.683 19.9024 173.317 20.2929 173.707L22.5858 176L20.2929 178.293C19.9024 178.683 19.9024 179.317 20.2929 179.707C20.6834 180.098 21.3166 180.098 21.7071 179.707L24 177.414L26.2929 179.707C26.6834 180.098 27.3166 180.098 27.7071 179.707C28.0976 179.317 28.0976 178.683 27.7071 178.293L25.4142 176L27.7071 173.707C28.0976 173.317 28.0976 172.683 27.7071 172.293C27.3166 171.902 26.6834 171.902 26.2929 172.293L24 174.586L21.7071 172.293Z" fill="#CA6460"/>
<defs>
<filter id="filter0_f_968_3590" x="14" y="40" width="272" height="120" filterUnits="userSpaceOnUse" color-interpolation-filters="sRGB">
<feFlood flood-opacity="0" result="BackgroundImageFix"/>
<feBlend mode="normal" in="SourceGraphic" in2="BackgroundImageFix" result="shape"/>
<feGaussianBlur stdDeviation="1" result="effect1_foregroundBlur_968_3590"/>
</filter>
</defs>
</svg>
