<svg width="544" height="301" viewBox="0 0 544 301" fill="none" xmlns="http://www.w3.org/2000/svg">
<rect width="543.208" height="300.194" transform="translate(0.208252)" fill="white"/>
<path d="M141.94 212.236C176.227 212.236 204.021 184.415 204.021 150.097C204.021 115.779 176.227 87.9585 141.94 87.9585C107.654 87.9585 79.8589 115.779 79.8589 150.097C79.8589 184.415 107.654 212.236 141.94 212.236Z" fill="#F1D6C8"/>
<path d="M179.039 134.467C182.669 131.217 186.489 125.968 184.639 123.379C182.788 120.79 172.842 120.796 169.408 121.49C164.95 117.268 160.331 112.439 148.159 115.465C145.752 112.671 140.299 108.865 138.3 109.76C134.292 111.427 132.659 120.603 132.659 120.603C121.386 123.561 110.326 129.356 107.603 130.926C102.514 133.666 97.2341 139.025 99.122 146.944C94.4102 151.268 93.2991 170.822 107.551 174.832C113.347 183.199 118.356 182.822 124.806 182.708C126.817 187.682 134.431 193.887 145.089 187.337C152.31 188.901 161.078 189.272 167.798 182.441C176.945 182.123 188.158 174.084 185.082 160.675C190.68 152.687 179.94 136.135 179.039 134.467Z" fill="black"/>
<path d="M183.69 149.06C176.346 129.586 165.722 119.101 159.792 117.286C153.246 115.268 146.661 117.87 131.546 122.982C115.524 128.401 104.531 133.019 101.616 139.749C98.798 146.253 104.008 154.466 110.369 155.846C110.268 154.939 110.428 153.645 110.461 153.438C110.637 152.338 112.665 143.256 123.025 139.312C116.766 142.823 108.908 151.857 113.211 160.023C115.465 162.897 119.306 165.063 125.614 163.439C126.168 155.031 132.709 144.7 140.972 137.793C135.475 144.235 128.753 153.216 127.804 161.78C127.728 162.45 127.709 165.498 129.363 167.671C134.608 172.575 144.482 174.638 150.481 167.949C156.525 160.513 155.101 146.746 154.237 139.562C156.89 149.134 157.325 159.984 153.059 167.172C156.555 170.748 162.99 171.352 168.824 166.581C172.694 157.584 172.614 146.08 164.738 135.504C172.869 145.143 173.674 153.126 171.182 165.538C178.718 163.5 187.563 161.308 183.691 149.06L183.69 149.06Z" fill="#ABB0C0"/>
<path d="M107.764 164.927C104.183 163.881 98.3574 159.11 98.5306 152.818C97.6909 156.514 96.5001 169.224 108.715 173.195C107.442 170.561 107.451 167.477 107.764 164.927Z" fill="#ABB0C0"/>
<path d="M123.445 173.514C119.082 173.819 111.04 169.965 110.114 164.842C108.935 166.261 107.444 171.705 110.726 175.907C114.996 181.012 119.175 181.104 125.243 180.728C123.842 178.132 123.375 175.676 123.446 173.515L123.445 173.514Z" fill="#ABB0C0"/>
<path d="M168.245 174.743C168.245 174.743 168.245 174.741 168.245 174.74C165.294 177.969 157.185 179.991 149.986 176.655C149.868 178.666 147.599 183.396 145.185 185.245C149.887 186.34 159.042 188.347 165.996 181.459C167.582 179.136 168.167 176.787 168.246 174.742L168.245 174.743Z" fill="#ABB0C0"/>
<path d="M124.977 173.619C124.649 176.952 125.157 179.365 125.88 181.327C127.783 185.293 134.401 191.782 144.554 185.541C147.16 183.33 147.794 179.858 147.727 177.438C142.924 181.083 128.98 180.926 124.977 173.619Z" fill="#ABB0C0"/>
<path d="M169.872 174.198V174.2C169.833 175.591 169.341 177.787 166.863 180.57C175.493 180.459 181.972 174.546 183.147 168.427C180.566 172.469 174.589 174.975 169.872 174.198Z" fill="#ABB0C0"/>
<path d="M98.2043 160.207C98.8026 165.102 101.266 170.774 108.714 173.195C108.237 172.206 107.939 171.154 107.771 170.09C101.703 169.984 98.843 163.193 98.2037 160.207L98.2043 160.207Z" fill="#858B97"/>
<path d="M108.775 170.883C108.925 172.545 109.483 174.315 110.726 175.906C114.996 181.012 119.175 181.104 125.243 180.728C124.858 180.015 124.546 179.312 124.294 178.624C113.244 180.108 110.011 174.059 108.776 170.884L108.775 170.883Z" fill="#858B97"/>
<path d="M146.446 183.191C146.494 183.097 146.542 183.002 146.588 182.908C144.102 184.791 141.541 186.354 136.041 186.117C129.371 185.587 126.182 182.215 125.19 178.908C125.23 179.106 125.274 179.299 125.32 179.489C125.331 179.534 125.342 179.58 125.353 179.625C125.447 179.999 125.551 180.357 125.663 180.701C125.677 180.743 125.691 180.786 125.705 180.828C125.761 180.997 125.819 181.164 125.879 181.326C127.782 185.291 134.4 191.78 144.553 185.54C145.361 184.855 145.978 184.049 146.445 183.19L146.446 183.191Z" fill="#858B97"/>
<path d="M165.995 181.46C166.579 180.605 167.027 179.747 167.364 178.901C159.748 186.318 149.647 184.121 147.439 182.697C146.75 183.725 145.976 184.64 145.185 185.247C149.887 186.341 159.042 188.348 165.996 181.46H165.995Z" fill="#858B97"/>
<path d="M168.514 178.37C168.098 179.054 167.559 179.789 166.863 180.569C173.912 180.479 179.523 176.517 181.984 171.735C179.318 176.77 170.842 178.61 168.514 178.369V178.37Z" fill="#858B97"/>
<path d="M99.9802 149.195C99.0793 150.379 98.7957 151.764 98.7957 151.764C98.5664 155.585 103.935 164.564 110.801 163.674C111.093 168.695 120.532 174.225 124.876 171.748C127.876 178.879 143.23 180.721 149.274 174.868C152.928 178.23 165.91 177.83 168.596 172.46C172.726 174.689 181.751 170.832 183.487 166.086C183.853 164.302 183.332 162.527 183.332 162.527C181.464 164.828 175.216 169.438 170.383 167.876C166.758 171.203 158.481 174.494 152.134 169.113C144.826 178.407 127.626 173.419 126.084 165.373C121.273 166.666 112.231 166.232 110.212 157.858C108.719 157.232 103.544 156.362 99.9802 149.195Z" fill="#1E2D45"/>
<path d="M134.921 119.772C137.516 118.79 142.901 117.103 146.082 116.181C144.237 114.274 140.186 111.355 139.042 111.607C137.398 112.061 135.494 117.083 134.921 119.772Z" fill="white"/>
<path d="M170.992 123.226C174.594 127.175 177.443 131.849 178.025 132.715C180.525 130.604 183.985 125.248 182.92 124.463C180.853 122.94 173.548 122.867 170.992 123.226Z" fill="white"/>
<path d="M130.426 123.362C130.23 123.429 130.034 123.497 129.839 123.563C129.742 123.596 129.646 123.629 129.549 123.662C129.355 123.729 129.161 123.796 128.967 123.863C128.879 123.893 128.792 123.924 128.704 123.954C128.432 124.048 128.16 124.142 127.891 124.236C127.881 124.24 127.872 124.243 127.863 124.246C127.599 124.338 127.337 124.43 127.076 124.522C126.991 124.552 126.907 124.582 126.821 124.612C126.635 124.678 126.448 124.744 126.263 124.81C126.172 124.842 126.081 124.875 125.99 124.907C125.803 124.974 125.617 125.04 125.431 125.107C125.351 125.136 125.271 125.164 125.192 125.193C124.671 125.381 124.155 125.569 123.648 125.756C123.57 125.785 123.493 125.813 123.416 125.842C123.238 125.908 123.061 125.974 122.884 126.04C122.798 126.072 122.713 126.104 122.627 126.136C122.451 126.202 122.275 126.268 122.1 126.335C122.026 126.363 121.951 126.391 121.877 126.419C121.631 126.513 121.386 126.606 121.143 126.699H121.142C120.901 126.793 120.662 126.886 120.425 126.978C120.354 127.006 120.284 127.033 120.215 127.061C120.045 127.128 119.876 127.194 119.708 127.261C119.63 127.293 119.552 127.323 119.474 127.354C119.307 127.421 119.142 127.487 118.977 127.554C118.908 127.582 118.839 127.61 118.77 127.638C118.311 127.825 117.859 128.012 117.415 128.199C117.351 128.225 117.288 128.253 117.225 128.279C117.065 128.347 116.906 128.414 116.748 128.482C116.677 128.513 116.606 128.543 116.535 128.574C116.378 128.642 116.222 128.71 116.067 128.778C116.006 128.805 115.945 128.831 115.884 128.858C115.458 129.046 115.039 129.235 114.629 129.424C114.57 129.451 114.512 129.478 114.453 129.505C114.306 129.573 114.16 129.642 114.014 129.71C113.949 129.741 113.883 129.772 113.819 129.803C113.674 129.872 113.531 129.94 113.389 130.009C113.333 130.036 113.276 130.064 113.22 130.091C112.829 130.281 112.446 130.472 112.071 130.664C112.018 130.691 111.966 130.719 111.912 130.746C111.778 130.816 111.644 130.886 111.512 130.955C111.453 130.986 111.394 131.017 111.335 131.049C111.203 131.119 111.072 131.189 110.942 131.26C110.891 131.287 110.841 131.314 110.792 131.341C110.437 131.535 110.091 131.73 109.754 131.926C109.705 131.954 109.657 131.983 109.609 132.011C109.488 132.082 109.368 132.153 109.25 132.224C109.197 132.256 109.145 132.288 109.092 132.32C108.973 132.392 108.855 132.465 108.738 132.537C108.694 132.564 108.649 132.592 108.606 132.619C108.446 132.719 108.289 132.819 108.134 132.92C114.509 129.912 136.244 121.909 147.124 130.036C158.005 138.162 172.257 128.66 164.775 120.106C162.917 118.662 161.218 117.723 159.791 117.286C153.246 115.269 146.661 117.871 131.546 122.982C131.262 123.078 130.98 123.174 130.699 123.269C130.608 123.301 130.517 123.331 130.426 123.362Z" fill="white"/>
<path d="M133.347 145.767C126.975 153.796 125.321 159.809 121.413 160.517C118.296 161.082 114.561 161.465 112.129 156.866C112.31 157.924 112.661 158.981 113.21 160.024C115.465 162.897 119.306 165.063 125.613 163.439C125.98 157.875 128.971 151.467 133.347 145.767Z" fill="#858B97"/>
<path d="M128.061 164.788C128.289 165.747 128.685 166.783 129.362 167.672C134.606 172.576 144.481 174.639 150.48 167.95C153.87 163.78 154.91 157.62 155.018 151.745C151.036 172.545 131.091 173.553 128.061 164.788Z" fill="#858B97"/>
<path d="M169.262 165.499C169.333 165.317 169.403 165.134 169.47 164.95C169.51 164.839 169.549 164.726 169.588 164.614C169.646 164.449 169.704 164.283 169.759 164.116C169.8 163.995 169.839 163.872 169.878 163.75C169.929 163.591 169.979 163.43 170.027 163.27C170.066 163.142 170.104 163.013 170.141 162.884C170.186 162.728 170.229 162.571 170.271 162.415C170.308 162.281 170.343 162.147 170.377 162.013C170.417 161.859 170.454 161.704 170.491 161.55C170.524 161.411 170.558 161.273 170.589 161.133C170.623 160.982 170.655 160.829 170.686 160.677C170.716 160.533 170.747 160.391 170.775 160.247C170.804 160.099 170.829 159.95 170.856 159.801C170.882 159.651 170.91 159.502 170.935 159.351C170.955 159.223 170.973 159.093 170.992 158.965C171.044 158.613 171.091 158.258 171.132 157.901C171.143 157.802 171.156 157.703 171.166 157.604C171.185 157.417 171.201 157.228 171.217 157.04C171.226 156.926 171.237 156.813 171.245 156.698C171.259 156.51 171.269 156.32 171.279 156.131C171.286 156.017 171.292 155.903 171.297 155.789C171.305 155.596 171.311 155.404 171.315 155.211C171.318 155.1 171.32 154.988 171.322 154.877C171.324 154.679 171.324 154.481 171.322 154.282C171.321 154.177 171.32 154.071 171.318 153.966C171.314 153.76 171.308 153.554 171.3 153.348C171.296 153.252 171.291 153.157 171.286 153.061C171.275 152.844 171.263 152.626 171.247 152.407C171.242 152.332 171.235 152.255 171.229 152.18C171.21 151.941 171.189 151.702 171.165 151.462C171.162 151.435 171.158 151.407 171.155 151.38C171.031 150.213 170.836 149.037 170.565 147.857C170.563 147.847 170.561 147.837 170.559 147.827C170.496 147.558 170.429 147.288 170.359 147.018C170.347 146.973 170.336 146.928 170.324 146.884C170.256 146.626 170.183 146.369 170.108 146.112C170.092 146.056 170.076 146 170.059 145.944C169.983 145.69 169.903 145.436 169.82 145.182C169.802 145.125 169.783 145.069 169.764 145.012C169.678 144.754 169.589 144.497 169.495 144.239C169.478 144.192 169.46 144.145 169.443 144.099C169.344 143.83 169.241 143.56 169.134 143.292C169.125 143.269 169.116 143.247 169.107 143.225C168.501 141.721 167.763 140.218 166.882 138.728C171.165 149.692 170.262 162.943 163.136 166.72C160.54 168.096 156.901 168.94 153.336 166.691C153.335 166.69 153.334 166.69 153.332 166.689C153.243 166.852 153.153 167.015 153.059 167.174C156.555 170.749 162.99 171.353 168.824 166.582C168.939 166.315 169.05 166.045 169.158 165.773C169.194 165.682 169.228 165.59 169.263 165.499H169.262Z" fill="#858B97"/>
<path d="M183.69 149.06C180.208 139.825 175.987 132.613 171.879 127.386C179.008 140.918 183.023 150.505 180.115 157.328C178.998 159.647 177.478 162.736 172.13 164.131C172.037 164.16 171.607 164.127 171.527 164.164C171.449 164.583 171.267 165.108 171.181 165.538C174.31 167.494 188.538 161.865 183.69 149.059V149.06Z" fill="#858B97"/>
<path d="M181.969 127.826C177.517 130.211 172.92 124.683 170.992 123.226C174.594 127.175 177.443 131.849 178.025 132.715C179.34 131.604 180.921 129.594 181.969 127.826Z" fill="#858B97"/>
<path d="M115.554 144.116C109.316 150.428 105.098 151.565 102.223 149.114C103.918 152.437 106.98 155.112 110.368 155.847C110.268 154.94 110.427 153.645 110.461 153.438C110.581 152.683 111.578 148.154 115.554 144.116Z" fill="#858B97"/>
<path d="M238.332 174.77C235.232 174.77 232.443 174.238 229.963 173.175C227.483 172.066 225.536 170.516 224.118 168.521C223.29 167.354 222.703 166.072 222.358 164.677C221.941 162.98 223.408 161.54 225.156 161.54H227.925C229.154 161.54 230.134 162.502 230.556 163.657C230.947 164.728 231.569 165.662 232.42 166.459C233.838 167.744 235.808 168.387 238.332 168.387C240.944 168.387 242.981 167.767 244.442 166.526C245.903 165.241 246.634 163.601 246.634 161.606C246.634 160.055 246.169 158.792 245.239 157.817C244.354 156.842 243.224 156.089 241.852 155.557C240.524 155.025 238.664 154.449 236.273 153.829C233.262 153.031 230.805 152.233 228.901 151.436C227.041 150.594 225.447 149.309 224.118 147.58C222.79 145.852 222.126 143.547 222.126 140.666C222.126 138.007 222.79 135.68 224.118 133.686C225.447 131.692 227.306 130.163 229.698 129.099C232.088 128.035 234.856 127.503 238 127.503C242.472 127.503 246.125 128.633 248.958 130.894C250.952 132.428 252.33 134.368 253.09 136.71C253.662 138.467 252.162 140.068 250.317 140.068H247.564C246.327 140.068 245.348 139.074 244.799 137.964C244.397 137.15 243.792 136.41 242.981 135.747C241.52 134.55 239.594 133.952 237.202 133.952C235.033 133.952 233.261 134.506 231.889 135.614C230.516 136.722 229.83 138.317 229.83 140.401C229.83 141.819 230.25 142.993 231.092 143.924C231.977 144.81 233.084 145.519 234.412 146.051C235.741 146.583 237.556 147.159 239.859 147.779C242.914 148.621 245.393 149.464 247.297 150.305C249.246 151.147 250.884 152.455 252.213 154.227C253.585 155.955 254.271 158.282 254.271 161.207C254.271 163.557 253.629 165.772 252.345 167.855C251.105 169.939 249.268 171.622 246.833 172.908C244.442 174.149 241.608 174.769 238.331 174.769L238.332 174.77Z" fill="black"/>
<path d="M263.557 146.017C265.085 143.159 267.198 140.955 269.9 139.403C272.6 137.852 275.7 137.076 279.198 137.076C283.626 137.076 287.291 138.129 290.191 140.234C292.057 141.589 293.534 143.316 294.621 145.414C295.575 147.255 294.043 149.242 291.971 149.242H290.11C288.782 149.242 287.646 148.376 286.918 147.265C286.327 146.361 285.591 145.602 284.71 144.988C283.25 143.969 281.412 143.459 279.197 143.459C276.097 143.459 273.63 144.556 271.792 146.75C269.955 148.943 269.036 152.013 269.036 155.957C269.036 159.9 269.955 162.981 271.792 165.198C273.63 167.414 276.098 168.521 279.197 168.521C282.751 168.521 285.33 167.254 286.935 164.719C287.644 163.598 288.779 162.737 290.105 162.737H291.875C293.977 162.737 295.503 164.775 294.476 166.61C293.377 168.576 291.915 170.243 290.091 171.613C287.169 173.806 283.537 174.903 279.198 174.903C275.7 174.903 272.6 174.117 269.9 172.543C267.198 170.971 265.084 168.754 263.557 165.895C262.029 163.037 261.266 159.724 261.266 155.957C261.266 152.189 262.029 148.876 263.557 146.017Z" fill="black"/>
<path d="M301.713 155.823C301.713 152.145 302.465 148.888 303.971 146.051C305.521 143.215 307.602 141.021 310.214 139.47C312.871 137.874 315.794 137.077 318.981 137.077C321.86 137.077 324.361 137.653 326.487 138.805C327.988 139.571 329.277 140.476 330.354 141.518C330.813 141.963 331.667 141.655 331.667 141.016C331.667 139.171 333.162 137.675 335.005 137.675H335.91C337.785 137.675 339.305 139.196 339.305 141.073V170.907C339.305 172.783 337.785 174.304 335.91 174.304H335.062C333.187 174.304 331.667 172.783 331.667 170.906C331.667 170.252 330.785 169.939 330.318 170.397C329.237 171.458 327.938 172.384 326.42 173.174C324.205 174.326 321.682 174.903 318.848 174.903C315.704 174.903 312.826 174.105 310.214 172.51C307.601 170.87 305.52 168.61 303.97 165.729C302.465 162.804 301.712 159.502 301.712 155.823H301.713ZM331.667 155.956C331.667 153.43 331.136 151.236 330.073 149.375C329.055 147.514 327.705 146.095 326.022 145.12C324.339 144.145 322.524 143.658 320.576 143.658C318.627 143.658 316.812 144.145 315.129 145.12C313.447 146.051 312.074 147.447 311.011 149.308C309.993 151.126 309.484 153.297 309.484 155.823C309.484 158.35 309.993 160.566 311.011 162.471C312.074 164.377 313.447 165.84 315.129 166.859C316.856 167.834 318.672 168.322 320.576 168.322C322.524 168.322 324.339 167.834 326.022 166.859C327.705 165.884 329.055 164.466 330.073 162.604C331.136 160.699 331.667 158.482 331.667 155.956Z" fill="black"/>
<path d="M353.651 125.11C351.561 125.11 349.866 126.796 349.866 128.875V170.54C349.866 172.619 351.561 174.304 353.651 174.304C355.741 174.304 357.438 172.618 357.438 170.54V128.875C357.438 126.795 355.743 125.11 353.651 125.11Z" fill="black"/>
<path d="M371.782 125.11C369.692 125.11 367.997 126.796 367.997 128.875V170.54C367.997 172.619 369.692 174.304 371.782 174.304C373.872 174.304 375.569 172.618 375.569 170.54V128.875C375.569 126.795 373.874 125.11 371.782 125.11Z" fill="black"/>
<path d="M392.637 172.543C389.849 170.97 387.656 168.754 386.062 165.895C384.468 163.036 383.671 159.724 383.671 155.956C383.671 152.233 384.49 148.932 386.128 146.051C387.766 143.17 390.003 140.955 392.837 139.403C395.67 137.852 398.836 137.076 402.334 137.076C405.833 137.076 408.998 137.852 411.832 139.403C414.666 140.955 416.902 143.17 418.541 146.051C420.178 148.932 420.998 152.233 420.998 155.956C420.998 159.678 420.156 162.981 418.474 165.861C416.791 168.743 414.5 170.97 411.6 172.542C408.699 174.116 405.5 174.902 402.003 174.902C398.549 174.902 395.427 174.116 392.638 172.542L392.637 172.543ZM407.482 166.926C409.186 165.995 410.571 164.599 411.633 162.737C412.696 160.876 413.227 158.616 413.227 155.957C413.227 153.297 412.718 151.048 411.7 149.209C410.68 147.371 409.33 145.985 407.648 145.054C405.965 144.124 404.15 143.658 402.202 143.658C400.254 143.658 398.449 144.124 396.788 145.054C395.128 145.985 393.81 147.371 392.837 149.209C391.862 151.048 391.376 153.298 391.376 155.957C391.376 159.902 392.383 162.948 394.398 165.098C396.413 167.248 398.948 168.322 402.003 168.322C403.951 168.322 405.778 167.857 407.483 166.926L407.482 166.926Z" fill="black"/>
<path d="M436.671 142.081C436.671 142.398 437.084 142.541 437.293 142.305C438.501 140.947 440.043 139.78 441.918 138.804C444.133 137.652 446.634 137.076 449.424 137.076C452.611 137.076 455.512 137.874 458.124 139.469C460.781 141.021 462.862 143.214 464.368 146.051C465.873 148.887 466.626 152.144 466.626 155.823C466.626 159.502 465.873 162.803 464.368 165.728C462.862 168.609 460.781 170.869 458.124 172.509C455.512 174.104 452.611 174.902 449.424 174.902C446.634 174.902 444.155 174.348 441.985 173.24C440.256 172.322 438.781 171.236 437.559 169.98C437.248 169.661 436.672 169.873 436.672 170.32V187.933C436.672 190.025 434.977 191.722 432.886 191.722C430.796 191.722 429.101 190.025 429.101 187.933V141.464C429.101 139.372 430.796 137.675 432.886 137.675C434.977 137.675 436.672 139.372 436.672 141.464V142.081H436.671ZM458.921 155.824C458.921 153.298 458.39 151.126 457.327 149.309C456.309 147.447 454.936 146.051 453.21 145.121C451.527 144.146 449.712 143.658 447.763 143.658C445.859 143.658 444.044 144.146 442.317 145.121C440.634 146.096 439.262 147.514 438.199 149.375C437.181 151.236 436.672 153.43 436.672 155.957C436.672 158.483 437.181 160.699 438.199 162.604C439.262 164.466 440.635 165.884 442.317 166.859C444.044 167.834 445.859 168.321 447.763 168.321C449.712 168.321 451.527 167.834 453.21 166.859C454.936 165.84 456.309 164.377 457.327 162.471C458.39 160.565 458.921 158.35 458.921 155.824Z" fill="black"/>
</svg>
