<svg width="302" height="202" viewBox="0 0 302 202" fill="none" xmlns="http://www.w3.org/2000/svg">
<path d="M293 0.5C297.694 0.5 301.5 4.30558 301.5 9V193C301.5 197.694 297.694 201.5 293 201.5H9C4.30558 201.5 0.5 197.694 0.5 193V9C0.500002 4.30558 4.30558 0.5 9 0.5H293Z" fill="#1E2D45"/>
<path d="M293 0.5C297.694 0.5 301.5 4.30558 301.5 9V193C301.5 197.694 297.694 201.5 293 201.5H9C4.30558 201.5 0.5 197.694 0.5 193V9C0.500002 4.30558 4.30558 0.5 9 0.5H293Z" stroke="#ABB0C0"/>
<path d="M1 9C1 4.58173 4.58172 1 9 1H293C297.418 1 301 4.58172 301 9V193C301 197.418 297.418 201 293 201H8.99999C4.58171 201 1 197.418 1 193V9Z" fill="#1E2D45"/>
<path d="M75.983 139.642C95.8532 138.948 111.399 122.277 110.705 102.407C110.011 82.5371 93.3404 66.9916 73.4703 67.6855C53.6001 68.3794 38.0547 85.0498 38.7486 104.92C39.4425 124.79 56.1129 140.336 75.983 139.642Z" fill="#F1D6C8"/>
<path d="M95.9113 93.8629C97.9494 91.9075 100.057 88.7913 98.9322 87.3297C97.8075 85.8681 92.0434 86.0728 90.0671 86.5439C87.3984 84.1899 84.6236 81.4875 77.6308 83.4859C76.1797 81.9164 72.9427 79.8236 71.8021 80.3821C69.5131 81.4281 68.7519 86.7742 68.7519 86.7742C62.2787 88.7152 55.9864 92.2942 54.4402 93.2583C51.546 94.948 48.5947 98.1574 49.8489 102.704C47.2057 105.303 46.9571 116.647 55.2974 118.681C58.8258 123.408 61.7212 123.088 65.4566 122.891C66.7225 125.731 71.2607 129.169 77.3048 125.161C81.5216 125.921 86.6105 125.958 90.3664 121.867C95.661 121.498 101.997 116.617 99.943 108.915C103.026 104.177 96.4671 94.8105 95.9116 93.8629L95.9113 93.8629Z" fill="black"/>
<path d="M89.4638 121.161C89.4225 121.207 89.3796 121.253 89.3367 121.3C89.3793 121.254 89.4215 121.208 89.4638 121.161Z" fill="white"/>
<path d="M98.9023 102.218C94.2527 91.0909 87.8836 85.2351 84.4101 84.3042C80.5761 83.2687 76.8123 84.9083 68.1561 88.1738C58.98 91.6357 52.703 94.5319 51.1493 98.4879C49.6479 102.31 52.8335 106.96 56.5475 107.631C56.471 107.108 56.5372 106.355 56.5524 106.234C56.6319 105.594 57.624 100.295 63.5477 97.8016C59.9918 99.9608 55.6201 105.351 58.279 109.992C59.6436 111.61 61.9134 112.786 65.5359 111.718C65.6872 106.839 69.2693 100.725 73.9182 96.5589C70.8627 100.4 67.1486 105.736 66.7715 110.714C66.7412 111.103 66.7921 112.868 67.7942 114.093C70.933 116.826 76.6974 117.821 80.0388 113.827C83.3912 109.399 82.2872 101.457 81.6412 97.3145C83.3726 102.803 83.844 109.076 81.5171 113.325C83.6152 115.324 87.3567 115.543 90.6412 112.663C92.7023 107.376 92.4232 100.716 87.645 94.7526C92.5522 100.169 93.1801 104.775 91.987 112.012C96.313 110.679 101.394 109.231 98.9029 102.218L98.9023 102.218Z" fill="#ABB0C0"/>
<path d="M55.2208 112.941C53.1243 112.408 49.6519 109.764 49.6251 106.117C49.2132 108.274 48.7801 115.657 55.9392 117.709C55.1483 116.21 55.091 114.424 55.2208 112.941Z" fill="#ABB0C0"/>
<path d="M64.4816 117.596C61.9593 117.861 57.221 115.792 56.5802 112.845C55.9258 113.69 55.1721 116.873 57.159 119.239C59.7369 122.108 62.1605 122.077 65.6697 121.736C64.8049 120.262 64.4848 118.849 64.482 117.596L64.4816 117.596Z" fill="#ABB0C0"/>
<path d="M90.4709 117.401C90.4709 117.401 90.4709 117.4 90.4709 117.4C88.8256 119.328 84.1673 120.664 79.9277 118.878C79.8997 120.044 78.6804 122.829 77.3188 123.949C80.0659 124.487 85.4125 125.464 89.3032 121.335C90.1755 119.958 90.4671 118.586 90.4712 117.401L90.4709 117.401Z" fill="#ABB0C0"/>
<path d="M65.3725 117.626C65.2497 119.562 65.5931 120.949 66.0521 122.071C67.2347 124.328 71.2017 127.951 76.9595 124.132C78.4249 122.8 78.7218 120.776 78.6344 119.377C75.9242 121.584 67.8405 121.776 65.3725 117.626Z" fill="#ABB0C0"/>
<path d="M91.4019 117.053L91.4019 117.053C91.4076 117.86 91.1672 119.141 89.787 120.803C94.7866 120.564 98.4218 117.009 98.9785 113.442C97.5645 115.835 94.1512 117.407 91.4019 117.053Z" fill="#ABB0C0"/>
<path d="M65.9397 121.785C65.9308 121.761 65.9216 121.737 65.9131 121.713C65.922 121.737 65.9309 121.762 65.9397 121.785Z" fill="#717071"/>
<path d="M76.9591 124.132C77.4737 123.791 77.7642 123.252 78.0065 122.733C77.7537 123.24 77.4127 123.719 76.9591 124.132Z" fill="#717071"/>
<path d="M49.5853 110.402C50.031 113.224 51.5731 116.458 55.9387 117.709C55.642 117.146 55.4483 116.543 55.3291 115.931C51.8105 115.992 50.0158 112.118 49.585 110.402L49.5853 110.402Z" fill="#858B97"/>
<path d="M55.9272 116.37C56.0475 117.329 56.4066 118.342 57.1594 119.239C59.7372 122.108 62.1608 122.077 65.67 121.736C65.4324 121.331 65.2374 120.931 65.0773 120.537C58.7035 121.62 56.7077 118.183 55.9276 116.37L55.9272 116.37Z" fill="#858B97"/>
<path d="M78.0074 122.734C78.0332 122.678 78.0594 122.622 78.0843 122.567C76.6816 123.708 75.2289 124.665 72.0366 124.639C68.1603 124.467 66.2444 122.578 65.6025 120.684C65.6296 120.798 65.659 120.909 65.6892 121.017C65.6965 121.044 65.7038 121.07 65.7114 121.096C65.7732 121.31 65.841 121.516 65.9129 121.713C65.9218 121.737 65.9307 121.761 65.9396 121.785C65.9758 121.882 66.0126 121.977 66.0507 122.07C67.2333 124.328 71.2003 127.951 76.9581 124.132C77.4121 123.719 77.7536 123.24 78.0067 122.733L78.0074 122.734Z" fill="#858B97"/>
<path d="M89.3022 121.336C89.6233 120.829 89.8653 120.323 90.0437 119.826C85.7802 124.274 79.8815 123.207 78.5733 122.427C78.1948 123.036 77.7645 123.582 77.3182 123.949C80.0653 124.488 85.4116 125.464 89.3022 121.336Z" fill="#858B97"/>
<path d="M90.6997 119.496C90.4723 119.9 90.1745 120.336 89.787 120.802C93.8703 120.607 97.0423 118.2 98.3717 115.381C96.9286 118.35 92.0537 119.587 90.6997 119.495L90.6997 119.496Z" fill="#858B97"/>
<path d="M50.3912 103.99C49.8931 104.694 49.7567 105.502 49.7567 105.502C49.7011 107.719 52.9942 112.809 56.9549 112.154C57.2257 115.056 62.8079 118.067 65.2749 116.544C67.1581 120.613 76.0935 121.369 79.4776 117.857C81.6634 119.73 89.1789 119.235 90.6269 116.072C93.065 117.279 98.2173 114.863 99.1278 112.08C99.3039 111.04 98.9661 110.023 98.9661 110.023C97.9296 111.393 94.4023 114.188 91.5694 113.382C89.5362 115.382 84.8058 117.454 81.0189 114.467C76.9714 119.997 66.9028 117.457 65.8465 112.829C63.0844 113.675 57.8356 113.607 56.4962 108.799C55.6184 108.467 52.6018 108.068 50.3912 103.99Z" fill="#1E2D45"/>
<path d="M70.0463 86.2472C71.5305 85.6264 74.6166 84.5405 76.4417 83.9423C75.3342 82.8756 72.9274 81.2674 72.2694 81.4362C71.3255 81.7328 70.3236 84.6787 70.0463 86.2472Z" fill="white"/>
<path d="M91.0202 87.5166C93.1875 89.7306 94.9329 92.3788 95.2878 92.8684C96.694 91.5955 98.5911 88.4244 97.9577 87.9914C96.7291 87.1514 92.4943 87.2574 91.0202 87.5166Z" fill="white"/>
<path d="M67.5138 88.417C67.4014 88.4598 67.2893 88.5026 67.1779 88.545C67.1223 88.5661 67.0671 88.5874 67.0119 88.6084C66.9004 88.6512 66.7893 88.6936 66.6786 88.7364C66.6283 88.7555 66.578 88.7751 66.5281 88.7942C66.372 88.8543 66.2163 88.9144 66.0623 88.9744C66.057 88.9765 66.0517 88.9784 66.0464 88.9806C65.8953 89.0392 65.7452 89.0977 65.5961 89.1562C65.5472 89.1753 65.499 89.1944 65.45 89.2135C65.3433 89.2555 65.2365 89.2974 65.1307 89.3393C65.0785 89.3599 65.0266 89.3805 64.9744 89.401C64.8673 89.4436 64.7606 89.4859 64.6545 89.5282C64.6089 89.5465 64.5629 89.5645 64.5176 89.5829C64.2192 89.7022 63.9245 89.8214 63.6341 89.9401C63.5895 89.9584 63.5456 89.9764 63.5013 89.9947C63.3995 90.0364 63.2981 90.0782 63.1974 90.1199C63.1482 90.14 63.0993 90.1605 63.0504 90.1806C62.9493 90.2227 62.8489 90.2644 62.7489 90.3064C62.7062 90.3243 62.6636 90.3419 62.621 90.3598C62.4804 90.419 62.3403 90.4782 62.2017 90.537L62.201 90.537C62.0633 90.5958 61.9266 90.6545 61.791 90.7128C61.7507 90.7303 61.7107 90.7475 61.6708 90.7649C61.5738 90.8072 61.477 90.8491 61.381 90.8913C61.3365 90.911 61.2919 90.9303 61.2473 90.95C61.152 90.9918 61.0576 91.0337 60.9636 91.0758C60.9243 91.0933 60.8847 91.1107 60.8454 91.1285C60.5828 91.2459 60.3249 91.3632 60.0713 91.4806C60.035 91.4973 59.9987 91.5143 59.9628 91.531C59.8715 91.5734 59.7808 91.6157 59.6908 91.6581C59.6502 91.6772 59.6097 91.6964 59.5692 91.7156C59.4795 91.7583 59.3902 91.8006 59.3019 91.8432C59.2669 91.8598 59.232 91.8765 59.1974 91.8934C58.9542 92.0108 58.7154 92.1284 58.4816 92.2462C58.448 92.2631 58.4147 92.28 58.3811 92.2969C58.2972 92.3394 58.2139 92.3818 58.1309 92.4246C58.0937 92.4437 58.0565 92.4627 58.0197 92.4821C57.9374 92.5248 57.8554 92.5676 57.7745 92.6103C57.7426 92.6272 57.7103 92.644 57.6784 92.6609C57.4557 92.7789 57.2377 92.8974 57.0243 93.0161C56.9941 93.0329 56.9642 93.0501 56.934 93.0669C56.8574 93.1098 56.7812 93.153 56.7059 93.1958C56.6724 93.2151 56.6389 93.2343 56.6054 93.2536C56.5302 93.2971 56.4556 93.3403 56.3817 93.3837C56.3532 93.4005 56.3246 93.4172 56.2964 93.4339C56.0948 93.5532 55.8983 93.6734 55.7068 93.7936C55.6792 93.811 55.652 93.8284 55.6245 93.8458C55.556 93.8894 55.4878 93.9326 55.4206 93.9765C55.3908 93.996 55.361 94.0155 55.3312 94.035C55.2637 94.0792 55.1969 94.1238 55.1304 94.168C55.1055 94.1846 55.08 94.2016 55.0555 94.2182C54.9651 94.2793 54.8761 94.3404 54.7884 94.4017C58.4222 92.5314 70.856 87.4579 77.326 91.9429C83.796 96.428 91.8635 90.6378 87.3544 85.8366C86.2482 85.0379 85.2446 84.5284 84.4091 84.3046C80.5751 83.269 76.8113 84.9087 68.1551 88.1741C67.9924 88.2354 67.831 88.2967 67.6703 88.3576C67.618 88.3775 67.5661 88.3971 67.5138 88.417Z" fill="white"/>
<path d="M69.6588 101.33C66.1283 106.108 65.2913 109.623 63.0408 110.112C61.246 110.502 59.0894 110.799 57.5867 108.186C57.7132 108.795 57.9377 109.4 58.2771 109.992C59.6418 111.61 61.9115 112.787 65.5341 111.719C65.6341 108.49 67.2382 104.719 69.6591 101.33L69.6588 101.33Z" fill="#858B97"/>
<path d="M66.9805 112.45C67.1318 113.001 67.3823 113.593 67.7925 114.094C70.9312 116.827 76.6956 117.822 80.0371 113.827C81.917 111.344 82.3952 107.756 82.339 104.353C80.4519 116.476 68.9138 117.464 66.9805 112.45Z" fill="#858B97"/>
<path d="M90.8723 112.027C90.9095 111.921 90.9463 111.814 90.9814 111.706C91.0025 111.64 91.0227 111.574 91.0432 111.509C91.0736 111.412 91.1038 111.315 91.1325 111.217C91.1535 111.146 91.1734 111.074 91.1937 111.002C91.2199 110.909 91.2458 110.815 91.2707 110.722C91.2905 110.647 91.3097 110.571 91.3285 110.496C91.3514 110.405 91.3734 110.313 91.3946 110.221C91.413 110.143 91.4307 110.065 91.4481 109.986C91.4677 109.897 91.4864 109.806 91.5047 109.716C91.5209 109.635 91.5375 109.554 91.5528 109.473C91.5695 109.385 91.5848 109.295 91.6001 109.207C91.6146 109.123 91.6295 109.04 91.6426 108.956C91.6564 108.87 91.6681 108.783 91.6805 108.696C91.6928 108.609 91.7062 108.522 91.7172 108.434C91.7267 108.36 91.7341 108.284 91.7426 108.21C91.7659 108.004 91.7858 107.798 91.802 107.591C91.8064 107.533 91.8121 107.476 91.8161 107.418C91.8234 107.309 91.8286 107.2 91.8338 107.09C91.8372 107.024 91.841 106.958 91.8437 106.892C91.8479 106.782 91.8497 106.672 91.8519 106.563C91.8533 106.497 91.8547 106.431 91.8554 106.364C91.8562 106.253 91.8553 106.141 91.8541 106.029C91.8532 105.965 91.8526 105.9 91.851 105.836C91.8484 105.721 91.8443 105.606 91.8393 105.491C91.8365 105.43 91.8337 105.369 91.8303 105.308C91.8237 105.189 91.8166 105.07 91.8074 104.951C91.8031 104.896 91.7985 104.841 91.7936 104.785C91.7828 104.66 91.7717 104.534 91.7579 104.407C91.7534 104.364 91.7478 104.32 91.7426 104.276C91.7267 104.138 91.7102 104 91.6909 103.862C91.6887 103.846 91.6861 103.83 91.6839 103.815C91.588 103.141 91.4515 102.465 91.2706 101.787C91.2691 101.781 91.2679 101.775 91.2664 101.769C91.2248 101.615 91.1802 101.46 91.1342 101.305C91.1266 101.279 91.1193 101.253 91.1114 101.228C91.0667 101.08 91.0193 100.933 90.9706 100.785C90.9601 100.753 90.9496 100.721 90.9388 100.689C90.8895 100.544 90.8382 100.398 90.7848 100.253C90.773 100.22 90.7608 100.188 90.7489 100.156C90.6938 100.008 90.6368 99.8609 90.5773 99.7135C90.5664 99.6868 90.5554 99.66 90.5444 99.6333C90.4814 99.4796 90.4167 99.3257 90.349 99.1723C90.3435 99.1594 90.3374 99.1469 90.3319 99.134C89.9504 98.2754 89.4923 97.4205 88.9515 96.5752C91.6555 102.837 91.4003 110.527 87.3464 112.859C85.8698 113.708 83.7781 114.27 81.6666 113.04C81.6659 113.04 81.6653 113.04 81.6646 113.039C81.616 113.135 81.5674 113.231 81.5161 113.325C83.6142 115.324 87.3557 115.544 90.6402 112.664C90.7014 112.507 90.7605 112.348 90.8176 112.188C90.8365 112.135 90.8544 112.081 90.873 112.027L90.8723 112.027Z" fill="#858B97"/>
<path d="M98.9017 102.218C96.6969 96.9417 94.1052 92.8513 91.619 89.9082C96.0239 97.5988 98.5447 103.069 96.9969 107.078C96.3965 108.443 95.5784 110.262 92.5072 111.178C92.4539 111.197 92.2039 111.186 92.1581 111.21C92.1217 111.454 92.0269 111.761 91.9857 112.012C93.8386 113.081 101.97 109.534 98.9017 102.218L98.9017 102.218Z" fill="#858B97"/>
<path d="M97.4746 89.9583C94.9428 91.4293 92.1666 88.3218 91.02 87.5171C93.1873 89.7311 94.9327 92.3793 95.2876 92.8689C96.0275 92.199 96.9029 91.0037 97.4746 89.9583Z" fill="#858B97"/>
<path d="M59.314 100.734C55.8264 104.515 53.4049 105.259 51.689 103.898C52.7387 105.787 54.5673 107.274 56.5457 107.631C56.4692 107.108 56.5354 106.355 56.5506 106.235C56.6053 105.795 57.091 103.153 59.314 100.734Z" fill="#858B97"/>
<path d="M126.179 115.225C124.719 114.647 123.559 113.795 122.699 112.669C121.837 111.543 121.379 110.21 121.325 108.67L126.021 108.506C126.164 109.657 126.653 110.591 127.487 111.306C128.321 112.023 129.47 112.355 130.932 112.304C132.446 112.251 133.614 111.844 134.435 111.083C135.256 110.322 135.647 109.364 135.607 108.21C135.575 107.312 135.286 106.589 134.741 106.043C134.195 105.497 133.525 105.084 132.732 104.803C131.938 104.523 130.843 104.227 129.444 103.916C127.683 103.515 126.249 103.096 125.142 102.66C124.034 102.223 123.078 101.518 122.274 100.544C121.469 99.57 121.038 98.2495 120.979 96.5811C120.926 95.0415 121.263 93.6807 121.993 92.4992C122.722 91.3176 123.769 90.3948 125.133 89.7302C126.497 89.066 128.09 88.7021 129.913 88.6385C132.504 88.548 134.65 89.1221 136.351 90.3599C138.051 91.5979 139.03 93.3431 139.289 95.5945L134.439 95.7639C134.328 94.7917 133.837 93.9738 132.966 93.3102C132.095 92.647 130.967 92.3396 129.581 92.388C128.323 92.4319 127.308 92.789 126.536 93.4577C125.762 94.1274 125.397 95.065 125.439 96.2709C125.468 97.0925 125.741 97.7572 126.26 98.2655C126.779 98.7741 127.428 99.1689 128.209 99.45C128.99 99.731 130.053 100.028 131.4 100.34C133.188 100.766 134.648 101.203 135.781 101.652C136.915 102.101 137.89 102.818 138.708 103.804C139.526 104.791 139.964 106.131 140.024 107.824C140.071 109.185 139.75 110.48 139.061 111.712C138.372 112.944 137.34 113.949 135.968 114.729C134.594 115.51 132.959 115.933 131.06 115.999C129.263 116.062 127.636 115.804 126.177 115.225L126.179 115.225Z" fill="white"/>
<path d="M145.126 98.8404C145.953 97.1545 147.133 95.8356 148.668 94.8823C150.201 93.9297 151.982 93.4178 154.009 93.3471C156.575 93.2575 158.72 93.7931 160.444 94.953C162.167 96.1132 163.363 97.8125 164.032 100.05L159.298 100.215C158.876 99.1765 158.232 98.3771 157.364 97.8163C156.497 97.2558 155.422 96.9978 154.138 97.0426C152.341 97.1053 150.934 97.7905 149.913 99.0978C148.892 100.405 148.422 102.201 148.502 104.484C148.582 106.768 149.176 108.533 150.286 109.779C151.396 111.025 152.849 111.616 154.645 111.554C157.185 111.465 158.827 110.29 159.571 108.029L164.305 107.863C163.765 110.04 162.669 111.793 161.021 113.123C159.371 114.452 157.289 115.161 154.774 115.249C152.747 115.32 150.935 114.927 149.338 114.071C147.74 113.215 146.471 111.974 145.528 110.35C144.585 108.726 144.075 106.823 143.999 104.642C143.923 102.46 144.298 100.527 145.126 98.8408L145.126 98.8404Z" fill="white"/>
<path d="M168.567 98.041C169.395 96.3681 170.557 95.0492 172.051 94.0849C173.546 93.1209 175.217 92.6062 177.065 92.5416C178.733 92.4834 180.201 92.7599 181.468 93.3707C182.735 93.9815 183.758 94.7618 184.537 95.7107L184.429 92.6313L188.856 92.4767L189.596 113.685L185.17 113.84L185.06 110.684C184.35 111.71 183.366 112.58 182.106 113.292C180.846 114.004 179.395 114.388 177.753 114.446C175.931 114.509 174.247 114.099 172.7 113.216C171.153 112.332 169.908 111.065 168.964 109.415C168.02 107.766 167.511 105.876 167.437 103.746C167.362 101.616 167.739 99.7145 168.567 98.041ZM183.761 99.4371C183.12 98.3805 182.303 97.5871 181.308 97.0566C180.313 96.5264 179.251 96.2806 178.122 96.32C176.993 96.3595 175.951 96.6723 174.995 97.2579C174.039 97.8442 173.278 98.68 172.712 99.7657C172.146 100.852 171.889 102.126 171.94 103.589C171.992 105.051 172.338 106.324 172.979 107.406C173.62 108.488 174.445 109.301 175.454 109.844C176.461 110.387 177.518 110.639 178.621 110.6C179.75 110.561 180.792 110.242 181.747 109.644C182.703 109.045 183.463 108.19 184.028 107.078C184.593 105.966 184.85 104.679 184.799 103.217C184.748 101.754 184.402 100.494 183.761 99.4371Z" fill="white"/>
<path d="M199.11 84.835L200.105 113.318L195.717 113.472L194.722 84.9883L199.11 84.835Z" fill="white"/>
<path d="M209.616 84.4684L210.611 112.952L206.223 113.105L205.229 84.6216L209.616 84.4684Z" fill="white"/>
<path d="M220.468 111.586C218.82 110.732 217.504 109.493 216.522 107.87C215.541 106.247 215.012 104.345 214.936 102.164C214.861 100.008 215.268 98.0805 216.16 96.3789C217.051 94.6781 218.302 93.35 219.913 92.394C221.524 91.4387 223.343 90.9255 225.37 90.8547C227.398 90.7839 229.248 91.169 230.922 92.0096C232.595 92.8509 233.936 94.0884 234.944 95.723C235.951 97.3582 236.493 99.253 236.568 101.408C236.643 103.564 236.222 105.493 235.306 107.194C234.389 108.897 233.106 110.233 231.457 111.202C229.808 112.172 227.97 112.692 225.943 112.763C223.941 112.832 222.116 112.44 220.468 111.586L220.468 111.586ZM228.957 108.033C229.925 107.46 230.7 106.623 231.278 105.524C231.856 104.424 232.118 103.105 232.064 101.566C232.011 100.026 231.67 98.7341 231.043 97.6898C230.415 96.6461 229.604 95.8709 228.611 95.3661C227.617 94.8613 226.555 94.6286 225.426 94.6681C224.298 94.7075 223.261 95.0134 222.317 95.5859C221.374 96.1583 220.638 96.9875 220.112 98.0715C219.584 99.1562 219.347 100.468 219.401 102.008C219.481 104.292 220.126 106.036 221.337 107.239C222.549 108.443 224.04 109.014 225.81 108.953C226.939 108.913 227.988 108.606 228.957 108.033L228.957 108.033Z" fill="white"/>
<path d="M248.346 91.0543C249.605 90.3425 251.044 89.9581 252.661 89.9017C254.508 89.8372 256.211 90.2341 257.77 91.0914C259.328 91.9491 260.572 93.1844 261.503 94.7955C262.432 96.4076 262.934 98.2783 263.009 100.408C263.083 102.538 262.713 104.459 261.9 106.17C261.086 107.881 259.932 109.232 258.438 110.221C256.943 111.211 255.273 111.739 253.426 111.803C251.809 111.86 250.36 111.582 249.08 110.972C247.8 110.362 246.744 109.583 245.916 108.635L246.375 121.799L241.987 121.953L240.894 90.6594L245.282 90.5062L245.391 93.624C246.101 92.6231 247.086 91.7668 248.346 91.0543ZM257.507 96.8041C256.866 95.7606 256.043 94.9801 255.036 94.4624C254.029 93.9453 252.96 93.7062 251.832 93.7456C250.728 93.7842 249.692 94.1035 248.724 94.7019C247.756 95.301 246.989 96.1498 246.424 97.2485C245.858 98.3472 245.601 99.6278 245.652 101.091C245.703 102.554 246.049 103.82 246.69 104.889C247.331 105.959 248.156 106.759 249.163 107.289C250.17 107.819 251.226 108.064 252.33 108.026C253.459 107.986 254.508 107.661 255.475 107.049C256.443 106.437 257.209 105.569 257.774 104.444C258.338 103.32 258.595 102.026 258.544 100.563C258.492 99.1006 258.147 97.8477 257.507 96.8038L257.507 96.8041Z" fill="white"/>
<circle cx="25" cy="177" r="14" fill="white" stroke="white" stroke-width="2"/>
<path fill-rule="evenodd" clip-rule="evenodd" d="M25 164C17.8203 164 12 169.82 12 177C12 184.18 17.8203 190 25 190C32.1797 190 38 184.18 38 177C38 169.82 32.1797 164 25 164ZM22.7071 173.293C22.3166 172.902 21.6834 172.902 21.2929 173.293C20.9024 173.683 20.9024 174.317 21.2929 174.707L23.5858 177L21.2929 179.293C20.9024 179.683 20.9024 180.317 21.2929 180.707C21.6834 181.098 22.3166 181.098 22.7071 180.707L25 178.414L27.2929 180.707C27.6834 181.098 28.3166 181.098 28.7071 180.707C29.0976 180.317 29.0976 179.683 28.7071 179.293L26.4142 177L28.7071 174.707C29.0976 174.317 29.0976 173.683 28.7071 173.293C28.3166 172.902 27.6834 172.902 27.2929 173.293L25 175.586L22.7071 173.293Z" fill="#CA6460"/>
</svg>
