<?xml version="1.0" encoding="UTF-8"?>
<svg id="Layer_2" data-name="Layer 2" xmlns="http://www.w3.org/2000/svg" viewBox="0 0 573.263 215">
  <defs>
    <style>
      .cls-1 {
        fill: #abb0c0;
      }

      .cls-2, .cls-3 {
        fill: #fff;
      }

      .cls-3 {
        fill-rule: evenodd;
      }

      .cls-4 {
        fill: #1e2d45;
      }

      .cls-5 {
        fill: #f1d6c8;
      }

      .cls-6 {
        fill: #858b97;
      }
    </style>
  </defs>
  <g id="scallop_labs_primary_color">
    <g id="scallop_labs_primary_color-2" data-name="scallop_labs_primary_color">
      <g id="logomark">
        <circle class="cls-5" cx="107.5" cy="107.5" r="107.5"/>
        <g id="_主扇貝" data-name="主扇貝">
          <g>
            <path d="M171.741,80.46c6.286-5.623,12.9-14.703,9.696-19.182-3.204-4.479-20.427-4.469-26.374-3.269-7.719-7.303-15.718-15.657-36.795-10.422-4.167-4.835-13.609-11.418-17.071-9.87-6.94,2.883-9.769,18.758-9.769,18.758-19.52,5.118-38.671,15.143-43.386,17.859-8.813,4.741-17.955,14.011-14.686,27.711-8.159,7.48-10.083,41.309,14.595,48.246,10.037,14.476,18.711,13.823,29.879,13.625,3.482,8.606,16.667,19.34,35.122,8.009,12.505,2.705,27.688,3.348,39.323-8.47,15.839-.55,35.256-14.457,29.929-37.656,9.694-13.818-8.903-42.453-10.462-45.339Z"/>
            <g>
              <path class="cls-1" d="M179.795,105.706c-12.716-33.691-31.113-51.83-41.382-54.97-11.334-3.49-22.737,1.011-48.91,9.854-27.745,9.375-46.779,17.364-51.828,29.008-4.879,11.251,4.143,25.46,15.157,27.848-.174-1.569.102-3.809.16-4.167.304-1.902,3.817-17.614,21.755-24.437-10.837,6.073-24.445,21.703-16.994,35.83,3.904,4.971,10.555,8.718,21.477,5.909.96-14.545,12.287-32.418,26.595-44.367-9.519,11.145-21.159,26.682-22.803,41.497-.131,1.159-.163,6.432,2.7,10.191,9.082,8.485,26.181,12.054,36.569.482,10.466-12.865,7.999-36.681,6.503-49.11,4.595,16.56,5.348,35.33-2.039,47.766,6.053,6.185,17.196,7.23,27.298-1.023,6.702-15.565,6.563-35.467-7.075-53.763,14.08,16.675,15.474,30.486,11.159,51.959,13.049-3.527,28.364-7.319,21.66-28.508Z"/>
              <g>
                <path class="cls-1" d="M48.32,133.155c-6.201-1.808-16.288-10.063-15.988-20.948-1.454,6.395-3.516,28.383,17.635,35.252-2.204-4.557-2.189-9.891-1.647-14.304Z"/>
                <path class="cls-1" d="M75.474,148.011c-7.555.527-21.48-6.139-23.085-15.003-2.041,2.456-4.622,11.874,1.061,19.142h0c7.394,8.833,14.63,8.992,25.138,8.341-2.427-4.491-3.235-8.74-3.113-12.479Z"/>
                <path class="cls-1" d="M153.05,150.138s0-.003,0-.005c-5.111,5.585-19.152,9.084-31.618,3.313-.205,3.478-4.134,11.661-8.314,14.861,8.142,1.894,23.996,5.366,36.037-6.55,2.747-4.02,3.76-8.083,3.896-11.621Z"/>
                <path class="cls-1" d="M78.126,148.193c-.568,5.765.312,9.94,1.565,13.335,3.294,6.86,14.755,18.086,32.336,7.29,4.512-3.825,5.609-9.832,5.494-14.018-8.318,6.306-32.462,6.034-39.395-6.607Z"/>
                <path class="cls-1" d="M155.867,149.195s0,.002,0,.002c-.067,2.407-.918,6.207-5.21,11.021,14.945-.192,26.164-10.422,28.197-21.007-4.469,6.992-14.818,11.327-22.986,9.984Z"/>
              </g>
            </g>
            <g>
              <path class="cls-6" d="M31.768,124.989c1.036,8.469,5.301,18.281,18.199,22.47-.827-1.711-1.342-3.531-1.634-5.371,0,0,0,0,0,0-10.507-.184-15.459-11.933-16.566-17.098Z"/>
              <path class="cls-6" d="M50.072,143.46c.259,2.875,1.225,5.937,3.378,8.69h0c7.394,8.833,14.63,8.992,25.138,8.341-.667-1.234-1.207-2.449-1.644-3.64,0,0,0,0,0,0-19.134,2.568-24.732-7.897-26.871-13.39Z"/>
              <path class="cls-6" d="M115.302,164.752c.083-.163.167-.327.247-.489-4.305,3.258-8.74,5.962-18.264,5.552-11.55-.917-17.071-6.752-18.789-12.472.069.343.145.676.224,1.004.019.079.038.158.058.236.162.647.343,1.267.537,1.862.024.073.048.147.072.219.098.292.198.581.302.862,3.294,6.86,14.755,18.086,32.336,7.29,1.398-1.185,2.467-2.58,3.275-4.066Z"/>
              <path class="cls-6" d="M149.154,161.758c1.011-1.48,1.786-2.965,2.37-4.428-13.187,12.831-30.679,9.03-34.502,6.568h0c-1.193,1.777-2.534,3.361-3.904,4.41,8.142,1.894,23.996,5.366,36.037-6.55Z"/>
              <path class="cls-6" d="M153.516,156.412c-.721,1.183-1.655,2.454-2.86,3.805,12.206-.157,21.923-7.01,26.184-15.283-4.616,8.71-19.293,11.893-23.324,11.477Z"/>
            </g>
            <path class="cls-4" d="M34.842,105.939c-1.56,2.049-2.051,4.445-2.051,4.445-.397,6.609,8.9,22.143,20.788,20.603.506,8.687,16.851,18.254,24.372,13.968,5.196,12.338,31.783,15.524,42.248,5.398,6.328,5.816,28.808,5.124,33.459-4.166,7.15,3.857,22.778-2.816,25.785-11.026.634-3.087-.268-6.157-.268-6.157-3.236,3.981-14.054,11.955-22.424,9.253-6.276,5.756-20.609,11.449-31.599,2.14-12.655,16.079-42.438,7.45-45.108-6.47-8.331,2.237-23.988,1.486-27.484-13.001-2.585-1.083-11.546-2.589-17.718-14.988Z"/>
            <g>
              <path class="cls-2" d="M95.346,55.037c4.494-1.698,13.817-4.617,19.326-6.212-3.194-3.299-10.209-8.349-12.19-7.914-2.848.787-6.145,9.474-7.136,14.126Z"/>
              <path class="cls-2" d="M157.806,61.012c6.237,6.833,11.17,14.918,12.178,16.416,4.329-3.652,10.321-12.918,8.476-14.276-3.579-2.635-16.228-2.76-20.654-2.14Z"/>
              <path class="cls-2" d="M87.563,61.249c-.34.116-.679.232-1.016.347-.168.057-.335.115-.502.172-.337.116-.673.231-1.008.347-.152.052-.304.105-.455.157-.472.163-.943.326-1.409.489-.016.006-.032.011-.048.017-.457.159-.911.318-1.362.477-.148.052-.294.104-.442.156-.323.114-.646.228-.966.342-.158.056-.315.112-.473.168-.324.116-.647.231-.968.346-.138.05-.277.099-.414.149-.903.325-1.795.65-2.674.974-.135.05-.268.099-.402.149-.308.114-.615.228-.92.342-.149.055-.297.111-.445.166-.306.115-.61.229-.913.344-.129.049-.258.097-.387.146-.426.162-.85.324-1.27.485,0,0-.002,0-.002,0-.417.161-.831.322-1.242.482-.122.048-.243.095-.364.143-.294.116-.587.231-.878.347-.135.054-.27.107-.405.161-.289.115-.575.23-.86.346-.119.048-.239.096-.358.145-.796.323-1.578.646-2.347.97-.11.046-.22.093-.329.139-.277.117-.552.234-.825.351-.123.053-.246.106-.369.159-.272.118-.543.235-.811.353-.106.046-.212.092-.317.139-.738.325-1.463.651-2.173.978-.102.047-.203.094-.305.141-.255.118-.508.236-.76.355-.113.053-.226.106-.338.16-.25.119-.499.238-.745.357-.097.047-.195.094-.292.141-.677.329-1.34.66-1.989.992-.092.047-.183.095-.275.142-.233.12-.465.241-.694.361-.102.054-.204.108-.306.162-.229.122-.456.243-.681.365-.087.047-.174.094-.26.141-.614.335-1.213.673-1.797,1.012-.084.049-.167.098-.251.147-.209.123-.417.245-.622.369-.091.055-.182.11-.273.165-.206.125-.41.251-.613.376-.076.047-.154.095-.229.142-.276.173-.548.346-.816.52,0,0,0,0,0,0,11.039-5.203,48.674-19.048,67.515-4.989,18.841,14.059,43.52-2.38,30.564-17.178-3.218-2.499-6.16-4.124-8.63-4.879-11.334-3.49-22.737,1.011-48.91,9.854-.492.166-.98.332-1.466.497-.158.054-.315.107-.473.161Z"/>
            </g>
            <g>
              <path class="cls-6" d="M92.62,100.009c-11.034,13.89-13.898,24.292-20.665,25.517-5.397.977-11.864,1.64-16.076-6.316.314,1.83.921,3.659,1.872,5.463,3.904,4.971,10.555,8.718,21.477,5.909.635-9.627,5.815-20.712,13.393-30.573Z"/>
              <path class="cls-6" d="M83.468,132.915c.394,1.659,1.08,3.451,2.252,4.989,9.082,8.485,26.181,12.054,36.569.482,5.869-7.215,7.67-17.872,7.857-28.035-6.895,35.983-41.431,37.727-46.678,22.564Z"/>
              <path class="cls-6" d="M154.811,134.144c.122-.315.243-.63.359-.949.07-.193.137-.387.205-.581.101-.286.201-.573.297-.862.07-.21.137-.422.205-.634.088-.275.175-.552.259-.829.067-.222.132-.445.196-.668.078-.27.153-.541.226-.812.063-.231.124-.463.184-.696.068-.266.133-.533.197-.8.057-.24.115-.48.169-.721.059-.262.114-.527.169-.79.052-.248.105-.495.153-.744.05-.256.094-.514.14-.771.046-.26.095-.518.137-.779.036-.221.066-.445.099-.667.091-.61.172-1.224.242-1.841.019-.172.042-.342.06-.514.033-.324.06-.65.087-.976.017-.197.035-.393.05-.591.024-.326.041-.654.059-.981.011-.197.022-.394.031-.592.014-.333.023-.666.031-1,.004-.192.009-.385.011-.578.004-.342.004-.685.001-1.029-.002-.182-.004-.365-.008-.547-.007-.356-.016-.712-.031-1.069-.007-.165-.015-.33-.024-.496-.019-.376-.039-.753-.067-1.131-.009-.131-.021-.263-.032-.394-.033-.413-.068-.826-.111-1.241-.005-.047-.011-.095-.016-.142-.216-2.019-.553-4.053-1.022-6.095-.004-.017-.007-.035-.011-.052-.108-.466-.225-.933-.346-1.4-.02-.077-.039-.155-.06-.232-.118-.445-.244-.89-.374-1.335-.028-.097-.056-.194-.085-.291-.132-.439-.27-.879-.414-1.318-.032-.098-.065-.196-.097-.294-.149-.446-.304-.891-.466-1.337-.03-.081-.06-.162-.09-.243-.172-.465-.349-.931-.535-1.396-.015-.039-.032-.077-.047-.116-1.049-2.602-2.327-5.201-3.853-7.78,0,0,0,0,0,0,7.417,18.969,5.854,41.892-6.487,48.427-4.495,2.381-10.796,3.84-16.969-.051-.002-.001-.004-.001-.006-.002-.155.281-.31.563-.473.838,6.053,6.185,17.196,7.23,27.298-1.023.199-.463.392-.93.579-1.401.062-.157.121-.316.182-.474Z"/>
              <path class="cls-6" d="M179.795,105.706c-6.03-15.977-13.338-28.454-20.451-37.496,12.344,23.41,19.297,39.996,14.26,51.8-1.934,4.012-4.565,9.355-13.826,11.769-.161.049-.906-.008-1.045.057-.134.725-.449,1.633-.598,2.376,5.418,3.385,30.055-6.354,21.66-28.508Z"/>
              <path class="cls-6" d="M176.815,68.97c-7.709,4.126-15.67-5.437-19.008-7.958,6.237,6.833,11.17,14.918,12.178,16.416,2.278-1.922,5.015-5.398,6.83-8.458Z"/>
              <path class="cls-6" d="M61.81,97.153c-10.802,10.92-18.106,12.887-23.085,8.647,2.936,5.748,8.238,10.375,14.105,11.647-.174-1.569.102-3.809.16-4.167.209-1.307,1.934-9.141,8.82-16.127Z"/>
            </g>
          </g>
        </g>
      </g>
      <g id="Scallop">
        <path class="cls-2" d="M262.836,97.242c-4.215,0-8.008-.722-11.379-2.167-3.372-1.505-6.021-3.612-7.948-6.322-1.127-1.586-1.924-3.326-2.393-5.221-.568-2.306,1.428-4.261,3.804-4.261h3.765c1.671,0,3.004,1.307,3.578,2.876.531,1.454,1.376,2.724,2.535,3.807,1.927,1.746,4.606,2.619,8.038,2.619,3.552,0,6.322-.843,8.309-2.529,1.987-1.746,2.98-3.974,2.98-6.683,0-2.107-.632-3.823-1.897-5.148-1.204-1.325-2.74-2.348-4.606-3.071-1.806-.722-4.335-1.505-7.586-2.348-4.094-1.084-7.436-2.167-10.025-3.251-2.529-1.144-4.696-2.89-6.503-5.238-1.806-2.348-2.709-5.479-2.709-9.392,0-3.612.903-6.773,2.709-9.483,1.806-2.709,4.335-4.787,7.586-6.232,3.251-1.445,7.014-2.167,11.289-2.167,6.081,0,11.048,1.535,14.901,4.606,2.712,2.085,4.584,4.719,5.619,7.902.776,2.386-1.262,4.561-3.772,4.561h-3.744c-1.682,0-3.013-1.35-3.759-2.859-.546-1.106-1.37-2.11-2.473-3.012-1.987-1.626-4.606-2.438-7.857-2.438-2.95,0-5.359.753-7.225,2.258-1.866,1.505-2.8,3.673-2.8,6.502,0,1.927.572,3.522,1.716,4.787,1.204,1.204,2.709,2.167,4.516,2.89,1.806.722,4.275,1.505,7.406,2.348,4.154,1.144,7.526,2.288,10.115,3.432,2.649,1.144,4.877,2.92,6.683,5.328,1.866,2.348,2.8,5.509,2.8,9.483,0,3.191-.873,6.201-2.619,9.031-1.686,2.83-4.184,5.118-7.496,6.864-3.251,1.686-7.105,2.529-11.56,2.529Z"/>
        <path class="cls-2" d="M297.136,58.182c2.078-3.883,4.951-6.877,8.624-8.986,3.672-2.107,7.887-3.161,12.643-3.161,6.021,0,11.004,1.431,14.947,4.29,2.538,1.841,4.546,4.187,6.024,7.038,1.297,2.501-.785,5.2-3.602,5.2h-2.531c-1.805,0-3.351-1.176-4.34-2.687-.804-1.227-1.804-2.258-3.002-3.093-1.986-1.384-4.485-2.077-7.496-2.077-4.215,0-7.571,1.49-10.069,4.47-2.499,2.98-3.747,7.151-3.747,12.508s1.249,9.543,3.747,12.554c2.499,3.011,5.855,4.515,10.069,4.515,4.833,0,8.339-1.722,10.521-5.165.965-1.523,2.509-2.692,4.311-2.692h2.407c2.857,0,4.933,2.768,3.537,5.261-1.495,2.67-3.483,4.935-5.963,6.796-3.974,2.98-8.912,4.47-14.812,4.47-4.756,0-8.972-1.068-12.643-3.206-3.673-2.136-6.548-5.147-8.624-9.031-2.077-3.883-3.115-8.383-3.115-13.502s1.038-9.619,3.115-13.502Z"/>
        <path class="cls-2" d="M349.02,71.504c0-4.997,1.024-9.423,3.071-13.276,2.107-3.853,4.937-6.834,8.489-8.941,3.612-2.167,7.586-3.251,11.921-3.251,3.914,0,7.315.783,10.205,2.348,2.041,1.042,3.794,2.27,5.259,3.686.624.604,1.785.186,1.785-.683,0-2.507,2.032-4.539,4.539-4.539h1.231c2.549,0,4.616,2.067,4.616,4.616v40.53c0,2.549-2.067,4.616-4.616,4.616h-1.153c-2.55,0-4.616-2.067-4.616-4.616,0-.889-1.199-1.314-1.834-.691-1.47,1.441-3.237,2.699-5.301,3.772-3.01,1.565-6.442,2.348-10.296,2.348-4.275,0-8.188-1.084-11.741-3.251-3.552-2.228-6.382-5.298-8.489-9.212-2.047-3.974-3.071-8.459-3.071-13.457ZM389.751,71.684c0-3.432-.722-6.412-2.167-8.941-1.385-2.529-3.221-4.455-5.509-5.78-2.288-1.325-4.756-1.987-7.406-1.987s-5.118.662-7.406,1.987c-2.288,1.264-4.154,3.161-5.599,5.69-1.385,2.469-2.077,5.419-2.077,8.851s.692,6.442,2.077,9.031c1.445,2.589,3.311,4.576,5.599,5.961,2.348,1.325,4.817,1.987,7.406,1.987,2.649,0,5.118-.662,7.406-1.987,2.288-1.325,4.124-3.251,5.509-5.78,1.445-2.589,2.167-5.599,2.167-9.031Z"/>
        <path class="cls-2" d="M419.644,29.779c-2.842,0-5.147,2.29-5.147,5.114v56.603c0,2.824,2.305,5.114,5.147,5.114s5.149-2.29,5.149-5.114v-56.603c0-2.824-2.305-5.114-5.149-5.114Z"/>
        <path class="cls-2" d="M444.298,29.779c-2.842,0-5.147,2.29-5.147,5.114v56.603c0,2.824,2.305,5.114,5.147,5.114s5.149-2.29,5.149-5.114v-56.603c0-2.824-2.305-5.114-5.149-5.114Z"/>
        <path class="cls-2" d="M472.656,94.217c-3.792-2.136-6.773-5.148-8.941-9.031-2.167-3.883-3.251-8.383-3.251-13.502,0-5.057,1.114-9.542,3.341-13.456,2.227-3.913,5.268-6.923,9.122-9.031,3.852-2.107,8.158-3.161,12.914-3.161s9.061,1.054,12.915,3.161c3.852,2.108,6.894,5.118,9.122,9.031,2.226,3.914,3.341,8.399,3.341,13.456s-1.144,9.544-3.432,13.456c-2.288,3.915-5.404,6.941-9.347,9.076-3.944,2.138-8.295,3.206-13.05,3.206-4.697,0-8.942-1.068-12.735-3.206ZM492.841,86.586c2.317-1.265,4.2-3.161,5.645-5.69,1.445-2.529,2.167-5.599,2.167-9.212s-.693-6.668-2.077-9.167c-1.386-2.497-3.222-4.38-5.51-5.645-2.288-1.264-4.756-1.897-7.405-1.897s-5.103.632-7.361,1.897c-2.258,1.264-4.049,3.147-5.373,5.645-1.325,2.499-1.987,5.554-1.987,9.167,0,5.36,1.369,9.498,4.109,12.418,2.739,2.921,6.187,4.381,10.341,4.381,2.648,0,5.132-.633,7.451-1.897Z"/>
        <path class="cls-2" d="M532.532,52.835c0,.43.561.625.845.304,1.643-1.845,3.739-3.43,6.29-4.756,3.01-1.565,6.412-2.348,10.205-2.348,4.335,0,8.279,1.084,11.831,3.251,3.613,2.107,6.442,5.088,8.489,8.941,2.047,3.853,3.071,8.279,3.071,13.276s-1.023,9.483-3.071,13.456c-2.047,3.914-4.877,6.984-8.489,9.212-3.552,2.167-7.496,3.251-11.831,3.251-3.793,0-7.165-.753-10.115-2.258-2.35-1.247-4.356-2.723-6.019-4.429-.424-.434-1.206-.146-1.206.461v23.928c0,2.843-2.305,5.148-5.148,5.148s-5.148-2.305-5.148-5.148v-63.128c0-2.843,2.305-5.148,5.148-5.148s5.148,2.305,5.148,5.148v.839ZM562.787,71.503c0-3.432-.722-6.382-2.167-8.851-1.385-2.529-3.251-4.425-5.599-5.69-2.288-1.325-4.756-1.987-7.406-1.987-2.589,0-5.057.662-7.406,1.987-2.288,1.325-4.154,3.251-5.599,5.78-1.385,2.529-2.077,5.509-2.077,8.941s.692,6.442,2.077,9.031c1.445,2.529,3.311,4.455,5.599,5.78,2.348,1.325,4.817,1.987,7.406,1.987,2.649,0,5.118-.662,7.406-1.987,2.348-1.385,4.215-3.372,5.599-5.961,1.445-2.589,2.167-5.599,2.167-9.031Z"/>
      </g>
      <g id="Labs">
        <path class="cls-2" d="M389.585,185.222c-3.16,0-5.995-.527-8.503-1.581-2.508-1.104-4.49-2.608-5.945-4.515-.81-1.089-1.418-2.264-1.824-3.525-.537-1.67.896-3.172,2.65-3.172h1.889c1.107,0,1.993.862,2.388,1.895.466,1.22,1.273,2.268,2.422,3.147,1.756,1.305,4.039,1.957,6.848,1.957,2.609,0,4.666-.577,6.17-1.731,1.505-1.154,2.258-2.608,2.258-4.365,0-1.806-.803-3.135-2.408-3.988-1.605-.903-4.089-1.781-7.45-2.634-3.06-.802-5.568-1.605-7.525-2.408-1.906-.853-3.562-2.082-4.966-3.687-1.354-1.656-2.032-3.813-2.032-6.472,0-2.107.627-4.038,1.881-5.794,1.254-1.756,3.035-3.136,5.342-4.139,2.308-1.054,4.942-1.58,7.901-1.58,4.565,0,8.252,1.154,11.062,3.461,2.025,1.664,3.372,3.771,4.042,6.32.443,1.685-.987,3.161-2.729,3.161h-1.641c-1.13,0-2.026-.892-2.381-1.965-.421-1.27-1.173-2.347-2.258-3.227-1.555-1.305-3.662-1.957-6.321-1.957-2.458,0-4.415.527-5.869,1.58-1.455,1.054-2.182,2.433-2.182,4.139,0,1.354.426,2.483,1.28,3.387.903.853,2.007,1.555,3.311,2.107,1.354.502,3.211,1.079,5.569,1.731,2.96.802,5.368,1.605,7.224,2.408,1.856.753,3.436,1.906,4.741,3.462,1.354,1.555,2.057,3.587,2.107,6.095,0,2.258-.627,4.29-1.881,6.096-1.254,1.806-3.035,3.236-5.342,4.289-2.257,1.004-4.866,1.505-7.826,1.505Z"/>
        <path class="cls-2" d="M247.648,178.438c0,.297.24.537.537.537h15.039c1.538,0,2.784,1.247,2.784,2.784s-1.247,2.784-2.784,2.784h-18.841c-1.979,0-3.583-1.604-3.583-3.583v-45.442c0-1.891,1.533-3.424,3.424-3.424s3.424,1.533,3.424,3.424v42.919Z"/>
        <path class="cls-3" d="M327.558,128.859c1.891,0,3.425,1.534,3.425,3.425v17.011c0,.459.644.645.915.275,1.333-1.825,3.086-3.361,5.255-4.606,2.709-1.555,5.794-2.333,9.255-2.333,3.712,0,7.048.879,10.007,2.634,2.96,1.756,5.294,4.24,7,7.451,1.705,3.161,2.556,6.847,2.557,11.06,0,4.164-.851,7.877-2.557,11.138-1.705,3.26-4.063,5.795-7.073,7.601-2.96,1.806-6.272,2.707-9.934,2.707-3.561,0-6.697-.774-9.406-2.329-2.189-1.28-3.938-2.851-5.242-4.709-.227-.322-.778-.166-.778.228v2.711c0,1.891-1.538,3.42-3.429,3.42-1.772-.002-3.229-1.346-3.403-3.072l-.017-.348v-48.839c0-1.891,1.533-3.425,3.425-3.425ZM344.978,148.573c-2.508,0-4.843.628-7,1.882-2.107,1.204-3.809,2.988-5.114,5.345-1.254,2.308-1.882,4.992-1.882,8.052,0,3.11.628,5.845,1.882,8.203,1.304,2.306,3.008,4.088,5.114,5.341,2.157,1.204,4.491,1.804,7,1.805,2.559,0,4.892-.601,7-1.805,2.157-1.254,3.864-3.034,5.118-5.341,1.254-2.358,1.882-5.119,1.882-8.28,0-3.11-.628-5.818-1.882-8.126-1.254-2.307-2.961-4.064-5.118-5.268-2.107-1.204-4.441-1.809-7-1.809Z"/>
        <path class="cls-3" d="M290.288,142.63c3.612,0,6.749.779,9.408,2.334,1.584.926,2.927,1.996,4.03,3.208.59.647,1.912.251,1.912-.624v-.779c0-1.911,1.551-3.462,3.462-3.462,1.911,0,3.461,1.551,3.462,3.462v34.317c0,1.911-1.55,3.462-3.462,3.462-1.792,0-3.267-1.364-3.445-3.109l-.017-.353v-.892c0-.896-1.34-1.3-1.942-.637-1.139,1.255-2.522,2.367-4.151,3.332-2.659,1.556-5.773,2.334-9.335,2.334-3.66,0-6.97-.903-9.929-2.708-2.959-1.806-5.295-4.339-7.001-7.6-1.705-3.261-2.557-6.975-2.557-11.139,0-4.214.852-7.901,2.557-11.062,1.706-3.211,4.041-5.693,7.001-7.449,3.01-1.755,6.345-2.635,10.007-2.635ZM291.644,148.576c-2.559,0-4.894.6-7.001,1.804-2.107,1.204-3.788,2.962-5.042,5.27-1.253,2.307-1.881,5.016-1.881,8.125,0,3.16.628,5.918,1.881,8.275,1.254,2.307,2.936,4.089,5.042,5.343,2.107,1.204,4.443,1.809,7.001,1.809,2.558,0,4.89-.605,6.997-1.809,2.157-1.254,3.861-3.036,5.115-5.343,1.254-2.357,1.881-5.089,1.881-8.198s-.627-5.822-1.881-8.13c-1.254-2.307-2.959-4.062-5.115-5.266-2.107-1.254-4.439-1.881-6.997-1.882Z"/>
      </g>
    </g>
  </g>
</svg>