<?xml version="1.0" encoding="UTF-8"?>
<svg id="Layer_2" data-name="Layer 2" xmlns="http://www.w3.org/2000/svg" viewBox="0 0 579.351 215">
  <defs>
    <style>
      .cls-1 {
        fill: #abb0c0;
      }

      .cls-2 {
        fill: #fff;
      }

      .cls-3 {
        fill: #1e2d45;
      }

      .cls-4 {
        fill: #f1d6c8;
      }

      .cls-5 {
        fill: #858b97;
      }
    </style>
  </defs>
  <g id="scallop_tools_reversed_primary_color">
    <g id="scallop_tools_reversed_primary_color-2" data-name="scallop_tools_reversed_primary_color">
      <g id="logomark">
        <circle class="cls-4" cx="107.5" cy="107.5" r="107.5"/>
        <g id="_主扇貝" data-name="主扇貝">
          <g>
            <path d="M171.741,80.46c6.286-5.623,12.9-14.703,9.696-19.182-3.204-4.479-20.427-4.469-26.374-3.269-7.719-7.303-15.718-15.657-36.795-10.422-4.167-4.835-13.609-11.418-17.071-9.87-6.94,2.883-9.769,18.758-9.769,18.758-19.52,5.118-38.671,15.143-43.386,17.859-8.813,4.741-17.955,14.011-14.686,27.711-8.159,7.48-10.083,41.309,14.595,48.246,10.037,14.476,18.711,13.823,29.879,13.625,3.482,8.606,16.667,19.34,35.122,8.009,12.505,2.705,27.688,3.348,39.323-8.47,15.839-.55,35.256-14.457,29.929-37.656,9.694-13.818-8.903-42.453-10.462-45.339Z"/>
            <g>
              <path class="cls-1" d="M179.795,105.706c-12.716-33.691-31.113-51.83-41.382-54.97-11.334-3.49-22.737,1.011-48.91,9.854-27.745,9.375-46.779,17.364-51.828,29.008-4.879,11.251,4.143,25.46,15.157,27.848-.174-1.569.102-3.809.16-4.167.304-1.902,3.817-17.614,21.755-24.437-10.837,6.073-24.445,21.703-16.994,35.83,3.904,4.971,10.555,8.718,21.477,5.909.96-14.545,12.287-32.418,26.595-44.367-9.519,11.145-21.159,26.682-22.803,41.497-.131,1.159-.163,6.432,2.7,10.191,9.082,8.485,26.181,12.054,36.569.482,10.466-12.865,7.999-36.681,6.503-49.11,4.595,16.56,5.348,35.33-2.039,47.766,6.053,6.185,17.196,7.23,27.298-1.023,6.702-15.565,6.563-35.467-7.075-53.763,14.08,16.675,15.474,30.486,11.159,51.959,13.049-3.527,28.364-7.319,21.66-28.508Z"/>
              <g>
                <path class="cls-1" d="M48.32,133.155c-6.201-1.808-16.288-10.063-15.988-20.948-1.454,6.395-3.516,28.383,17.635,35.252-2.204-4.557-2.189-9.891-1.647-14.304Z"/>
                <path class="cls-1" d="M75.474,148.011c-7.555.527-21.48-6.139-23.085-15.003-2.041,2.456-4.622,11.874,1.061,19.142h0c7.394,8.833,14.63,8.992,25.138,8.341-2.427-4.491-3.235-8.74-3.113-12.479Z"/>
                <path class="cls-1" d="M153.05,150.138s0-.003,0-.005c-5.111,5.585-19.152,9.084-31.618,3.313-.205,3.478-4.134,11.661-8.314,14.861,8.142,1.894,23.996,5.366,36.037-6.55,2.747-4.02,3.76-8.083,3.896-11.621Z"/>
                <path class="cls-1" d="M78.126,148.193c-.568,5.765.312,9.94,1.565,13.335,3.294,6.86,14.755,18.086,32.336,7.29,4.512-3.825,5.609-9.832,5.494-14.018-8.318,6.306-32.462,6.034-39.395-6.607Z"/>
                <path class="cls-1" d="M155.867,149.195s0,.002,0,.002c-.067,2.407-.918,6.207-5.21,11.021,14.945-.192,26.164-10.422,28.197-21.007-4.469,6.992-14.818,11.327-22.986,9.984Z"/>
              </g>
            </g>
            <g>
              <path class="cls-5" d="M31.768,124.989c1.036,8.469,5.301,18.281,18.199,22.47-.827-1.711-1.342-3.531-1.634-5.371,0,0,0,0,0,0-10.507-.184-15.459-11.933-16.566-17.098Z"/>
              <path class="cls-5" d="M50.072,143.46c.259,2.875,1.225,5.937,3.378,8.69h0c7.394,8.833,14.63,8.992,25.138,8.341-.667-1.234-1.207-2.449-1.644-3.64,0,0,0,0,0,0-19.134,2.568-24.732-7.897-26.871-13.39Z"/>
              <path class="cls-5" d="M115.302,164.752c.083-.163.167-.327.247-.489-4.305,3.258-8.74,5.962-18.264,5.552-11.55-.917-17.071-6.752-18.789-12.472.069.343.145.676.224,1.004.019.079.038.158.058.236.162.647.343,1.267.537,1.862.024.073.048.147.072.219.098.292.198.581.302.862,3.294,6.86,14.755,18.086,32.336,7.29,1.398-1.185,2.467-2.58,3.275-4.066Z"/>
              <path class="cls-5" d="M149.154,161.758c1.011-1.48,1.786-2.965,2.37-4.428-13.187,12.831-30.679,9.03-34.502,6.568h0c-1.193,1.777-2.534,3.361-3.904,4.41,8.142,1.894,23.996,5.366,36.037-6.55Z"/>
              <path class="cls-5" d="M153.516,156.412c-.721,1.183-1.655,2.454-2.86,3.805,12.206-.157,21.923-7.01,26.184-15.283-4.616,8.71-19.293,11.893-23.324,11.477Z"/>
            </g>
            <path class="cls-3" d="M34.842,105.939c-1.56,2.049-2.051,4.445-2.051,4.445-.397,6.609,8.9,22.143,20.788,20.603.506,8.687,16.851,18.254,24.372,13.968,5.196,12.338,31.783,15.524,42.248,5.398,6.328,5.816,28.808,5.124,33.459-4.166,7.15,3.857,22.778-2.816,25.785-11.026.634-3.087-.268-6.157-.268-6.157-3.236,3.981-14.054,11.955-22.424,9.253-6.276,5.756-20.609,11.449-31.599,2.14-12.655,16.079-42.438,7.45-45.108-6.47-8.331,2.237-23.988,1.486-27.484-13.001-2.585-1.083-11.546-2.589-17.718-14.988Z"/>
            <g>
              <path class="cls-2" d="M95.346,55.037c4.494-1.698,13.817-4.617,19.326-6.212-3.194-3.299-10.209-8.349-12.19-7.914-2.848.787-6.145,9.474-7.136,14.126Z"/>
              <path class="cls-2" d="M157.806,61.012c6.237,6.833,11.17,14.918,12.178,16.416,4.329-3.652,10.321-12.918,8.476-14.276-3.579-2.635-16.228-2.76-20.654-2.14Z"/>
              <path class="cls-2" d="M87.563,61.249c-.34.116-.679.232-1.016.347-.168.057-.335.115-.502.172-.337.116-.673.231-1.008.347-.152.052-.304.105-.455.157-.472.163-.943.326-1.409.489-.016.006-.032.011-.048.017-.457.159-.911.318-1.362.477-.148.052-.294.104-.442.156-.323.114-.646.228-.966.342-.158.056-.315.112-.473.168-.324.116-.647.231-.968.346-.138.05-.277.099-.414.149-.903.325-1.795.65-2.674.974-.135.05-.268.099-.402.149-.308.114-.615.228-.92.342-.149.055-.297.111-.445.166-.306.115-.61.229-.913.344-.129.049-.258.097-.387.146-.426.162-.85.324-1.27.485,0,0-.002,0-.002,0-.417.161-.831.322-1.242.482-.122.048-.243.095-.364.143-.294.116-.587.231-.878.347-.135.054-.27.107-.405.161-.289.115-.575.23-.86.346-.119.048-.239.096-.358.145-.796.323-1.578.646-2.347.97-.11.046-.22.093-.329.139-.277.117-.552.234-.825.351-.123.053-.246.106-.369.159-.272.118-.543.235-.811.353-.106.046-.212.092-.317.139-.738.325-1.463.651-2.173.978-.102.047-.203.094-.305.141-.255.118-.508.236-.76.355-.113.053-.226.106-.338.16-.25.119-.499.238-.745.357-.097.047-.195.094-.292.141-.677.329-1.34.66-1.989.992-.092.047-.183.095-.275.142-.233.12-.465.241-.694.361-.102.054-.204.108-.306.162-.229.122-.456.243-.681.365-.087.047-.174.094-.26.141-.614.335-1.213.673-1.797,1.012-.084.049-.167.098-.251.147-.209.123-.417.245-.622.369-.091.055-.182.11-.273.165-.206.125-.41.251-.613.376-.076.047-.154.095-.229.142-.276.173-.548.346-.816.52,0,0,0,0,0,0,11.039-5.203,48.674-19.048,67.515-4.989,18.841,14.059,43.52-2.38,30.564-17.178-3.218-2.499-6.16-4.124-8.63-4.879-11.334-3.49-22.737,1.011-48.91,9.854-.492.166-.98.332-1.466.497-.158.054-.315.107-.473.161Z"/>
            </g>
            <g>
              <path class="cls-5" d="M92.62,100.009c-11.034,13.89-13.898,24.292-20.665,25.517-5.397.977-11.864,1.64-16.076-6.316.314,1.83.921,3.659,1.872,5.463,3.904,4.971,10.555,8.718,21.477,5.909.635-9.627,5.815-20.712,13.393-30.573Z"/>
              <path class="cls-5" d="M83.468,132.915c.394,1.659,1.08,3.451,2.252,4.989,9.082,8.485,26.181,12.054,36.569.482,5.869-7.215,7.67-17.872,7.857-28.035-6.895,35.983-41.431,37.727-46.678,22.564Z"/>
              <path class="cls-5" d="M154.811,134.144c.122-.315.243-.63.359-.949.07-.193.137-.387.205-.581.101-.286.201-.573.297-.862.07-.21.137-.422.205-.634.088-.275.175-.552.259-.829.067-.222.132-.445.196-.668.078-.27.153-.541.226-.812.063-.231.124-.463.184-.696.068-.266.133-.533.197-.8.057-.24.115-.48.169-.721.059-.262.114-.527.169-.79.052-.248.105-.495.153-.744.05-.256.094-.514.14-.771.046-.26.095-.518.137-.779.036-.221.066-.445.099-.667.091-.61.172-1.224.242-1.841.019-.172.042-.342.06-.514.033-.324.06-.65.087-.976.017-.197.035-.393.05-.591.024-.326.041-.654.059-.981.011-.197.022-.394.031-.592.014-.333.023-.666.031-1,.004-.192.009-.385.011-.578.004-.342.004-.685.001-1.029-.002-.182-.004-.365-.008-.547-.007-.356-.016-.712-.031-1.069-.007-.165-.015-.33-.024-.496-.019-.376-.039-.753-.067-1.131-.009-.131-.021-.263-.032-.394-.033-.413-.068-.826-.111-1.241-.005-.047-.011-.095-.016-.142-.216-2.019-.553-4.053-1.022-6.095-.004-.017-.007-.035-.011-.052-.108-.466-.225-.933-.346-1.4-.02-.077-.039-.155-.06-.232-.118-.445-.244-.89-.374-1.335-.028-.097-.056-.194-.085-.291-.132-.439-.27-.879-.414-1.318-.032-.098-.065-.196-.097-.294-.149-.446-.304-.891-.466-1.337-.03-.081-.06-.162-.09-.243-.172-.465-.349-.931-.535-1.396-.015-.039-.032-.077-.047-.116-1.049-2.602-2.327-5.201-3.853-7.78,0,0,0,0,0,0,7.417,18.969,5.854,41.892-6.487,48.427-4.495,2.381-10.796,3.84-16.969-.051-.002-.001-.004-.001-.006-.002-.155.281-.31.563-.473.838,6.053,6.185,17.196,7.23,27.298-1.023.199-.463.392-.93.579-1.401.062-.157.121-.316.182-.474Z"/>
              <path class="cls-5" d="M179.795,105.706c-6.03-15.977-13.338-28.454-20.451-37.496,12.344,23.41,19.297,39.996,14.26,51.8-1.934,4.012-4.565,9.355-13.826,11.769-.161.049-.906-.008-1.045.057-.134.725-.449,1.633-.598,2.376,5.418,3.385,30.055-6.354,21.66-28.508Z"/>
              <path class="cls-5" d="M176.815,68.97c-7.709,4.126-15.67-5.437-19.008-7.958,6.237,6.833,11.17,14.918,12.178,16.416,2.278-1.922,5.015-5.398,6.83-8.458Z"/>
              <path class="cls-5" d="M61.81,97.153c-10.802,10.92-18.106,12.887-23.085,8.647,2.936,5.748,8.238,10.375,14.105,11.647-.174-1.569.102-3.809.16-4.167.209-1.307,1.934-9.141,8.82-16.127Z"/>
            </g>
          </g>
        </g>
      </g>
      <g id="wordmark">
        <g id="Scallop">
          <path d="M257.527,99.47c-3.372-1.475-6.02-3.566-7.946-6.276-1.928-2.709-2.89-5.87-2.89-9.482h11.017c.239,2.709,1.31,4.937,3.205,6.682,1.896,1.747,4.56,2.619,7.992,2.619,3.552,0,6.321-.857,8.308-2.573,1.986-1.715,2.98-3.928,2.98-6.637,0-2.106-.618-3.823-1.851-5.147-1.235-1.324-2.77-2.348-4.605-3.07-1.837-.722-4.379-1.504-7.63-2.348-4.095-1.084-7.42-2.182-9.979-3.296-2.56-1.113-4.741-2.845-6.546-5.192-1.807-2.348-2.71-5.477-2.71-9.391,0-3.612.903-6.773,2.71-9.482,1.805-2.709,4.334-4.786,7.585-6.231,3.251-1.445,7.013-2.167,11.288-2.167,6.08,0,11.062,1.521,14.944,4.56,3.883,3.04,6.035,7.21,6.457,12.506h-11.378c-.18-2.287-1.264-4.244-3.251-5.87-1.987-1.625-4.605-2.438-7.856-2.438-2.951,0-5.358.753-7.223,2.258-1.867,1.506-2.8,3.673-2.8,6.502,0,1.927.587,3.507,1.761,4.741,1.174,1.235,2.664,2.212,4.47,2.935,1.807.722,4.274,1.506,7.404,2.348,4.155,1.144,7.541,2.288,10.159,3.431,2.619,1.144,4.845,2.905,6.683,5.283,1.835,2.379,2.754,5.553,2.754,9.526,0,3.191-.857,6.201-2.573,9.03-1.715,2.83-4.214,5.102-7.495,6.818-3.282,1.716-7.149,2.573-11.603,2.573-4.214,0-8.007-.736-11.378-2.212Z"/>
          <path d="M303.263,62.627c2.077-3.883,4.951-6.877,8.624-8.985,3.672-2.106,7.886-3.16,12.642-3.16,6.019,0,11.002,1.43,14.945,4.289,3.943,2.86,6.605,6.939,7.992,12.236h-11.107c-.903-2.468-2.348-4.394-4.336-5.779-1.986-1.384-4.484-2.077-7.495-2.077-4.214,0-7.57,1.49-10.068,4.47-2.498,2.98-3.747,7.149-3.747,12.506s1.248,9.542,3.747,12.552c2.498,3.011,5.854,4.515,10.068,4.515,5.96,0,9.903-2.619,11.83-7.856h11.107c-1.445,5.056-4.155,9.075-8.127,12.055-3.974,2.98-8.91,4.47-14.81,4.47-4.756,0-8.97-1.068-12.642-3.206-3.673-2.136-6.546-5.147-8.624-9.03-2.077-3.882-3.115-8.382-3.115-13.5s1.038-9.617,3.115-13.5Z"/>
          <path d="M358.255,62.673c2.077-3.852,4.906-6.847,8.488-8.985,3.581-2.136,7.54-3.206,11.875-3.206,3.912,0,7.328.768,10.248,2.303,2.919,1.535,5.252,3.447,6.999,5.734v-7.224h10.384v49.755h-10.384v-7.404c-1.747,2.347-4.124,4.305-7.134,5.869-3.011,1.565-6.443,2.348-10.294,2.348-4.275,0-8.187-1.098-11.739-3.296-3.553-2.197-6.366-5.267-8.443-9.211-2.077-3.942-3.116-8.412-3.116-13.409s1.038-9.421,3.116-13.274ZM393.743,67.188c-1.416-2.529-3.267-4.454-5.554-5.779-2.288-1.324-4.756-1.987-7.404-1.987s-5.118.648-7.404,1.942c-2.289,1.295-4.14,3.191-5.554,5.689-1.415,2.499-2.122,5.463-2.122,8.895s.707,6.442,2.122,9.03c1.414,2.589,3.28,4.56,5.599,5.914,2.317,1.354,4.77,2.032,7.359,2.032,2.649,0,5.116-.662,7.404-1.987,2.287-1.324,4.138-3.265,5.554-5.825,1.413-2.558,2.122-5.553,2.122-8.985s-.709-6.411-2.122-8.94Z"/>
          <path d="M430.901,34.228v66.822h-10.294V34.228h10.294Z"/>
          <path d="M455.552,34.228v66.822h-10.294V34.228h10.294Z"/>
          <path d="M478.758,98.657c-3.792-2.136-6.773-5.147-8.94-9.03-2.167-3.882-3.251-8.382-3.251-13.5,0-5.056,1.113-9.541,3.341-13.455,2.227-3.913,5.267-6.922,9.12-9.03,3.852-2.106,8.157-3.16,12.912-3.16s9.06,1.054,12.913,3.16c3.852,2.108,6.893,5.117,9.12,9.03,2.226,3.914,3.341,8.398,3.341,13.455s-1.144,9.542-3.431,13.455c-2.288,3.915-5.404,6.94-9.346,9.075-3.944,2.138-8.294,3.206-13.048,3.206-4.696,0-8.94-1.068-12.733-3.206ZM498.941,91.027c2.317-1.264,4.199-3.161,5.644-5.689,1.445-2.529,2.167-5.599,2.167-9.211s-.692-6.667-2.077-9.165c-1.386-2.497-3.221-4.38-5.509-5.644-2.288-1.264-4.756-1.896-7.404-1.896s-5.102.632-7.36,1.896-4.049,3.147-5.372,5.644c-1.325,2.499-1.987,5.554-1.987,9.165,0,5.359,1.369,9.497,4.109,12.416,2.739,2.921,6.186,4.38,10.34,4.38,2.648,0,5.132-.633,7.45-1.896Z"/>
          <path d="M545.76,52.83c3.009-1.565,6.411-2.348,10.204-2.348,4.334,0,8.292,1.069,11.874,3.206,3.581,2.137,6.396,5.133,8.443,8.985,2.046,3.853,3.07,8.278,3.07,13.274s-1.024,9.467-3.07,13.409c-2.047,3.944-4.862,7.014-8.443,9.211-3.583,2.198-7.54,3.296-11.874,3.296-3.793,0-7.165-.768-10.114-2.303-2.95-1.535-5.358-3.445-7.223-5.734v30.883h-10.294V51.295h10.294v7.315c1.745-2.287,4.122-4.213,7.134-5.779ZM566.755,67.052c-1.416-2.498-3.282-4.394-5.599-5.689-2.318-1.294-4.802-1.942-7.45-1.942-2.59,0-5.043.663-7.36,1.987-2.318,1.325-4.185,3.251-5.599,5.779-1.416,2.528-2.122,5.508-2.122,8.94s.706,6.427,2.122,8.985c1.414,2.56,3.28,4.501,5.599,5.825,2.317,1.325,4.77,1.987,7.36,1.987,2.648,0,5.132-.678,7.45-2.032,2.317-1.354,4.183-3.326,5.599-5.914,1.414-2.588,2.122-5.599,2.122-9.03s-.708-6.396-2.122-8.895Z"/>
        </g>
        <g id="Tools">
          <path d="M420.989,181.277c-3.161,0-5.994-.527-8.503-1.58-2.507-1.104-4.489-2.609-5.945-4.515-1.453-1.957-2.258-4.189-2.408-6.697h7.074c.202,2.057,1.155,3.737,2.86,5.042,1.757,1.304,4.04,1.957,6.848,1.957,2.61,0,4.665-.577,6.17-1.731,1.505-1.154,2.258-2.609,2.258-4.364,0-1.806-.802-3.135-2.408-3.988-1.604-.903-4.087-1.781-7.45-2.634-3.059-.803-5.568-1.605-7.525-2.408-1.905-.853-3.56-2.082-4.966-3.687-1.354-1.656-2.032-3.813-2.032-6.472,0-2.107.628-4.038,1.881-5.794,1.256-1.756,3.036-3.135,5.343-4.139,2.309-1.053,4.943-1.58,7.901-1.58,4.567,0,8.254,1.154,11.062,3.462,2.81,2.308,4.315,5.468,4.515,9.482h-6.848c-.151-2.157-1.028-3.888-2.634-5.192-1.554-1.304-3.661-1.957-6.321-1.957-2.457,0-4.414.527-5.869,1.58-1.453,1.054-2.182,2.433-2.182,4.139,0,1.354.428,2.483,1.279,3.386.903.853,2.008,1.555,3.311,2.107,1.355.502,3.212,1.079,5.569,1.731,2.961.803,5.369,1.605,7.224,2.408,1.858.753,3.438,1.906,4.741,3.462,1.355,1.555,2.058,3.587,2.107,6.095,0,2.257-.626,4.289-1.881,6.095-1.253,1.806-3.034,3.236-5.343,4.289-2.258,1.003-4.865,1.505-7.826,1.505Z"/>
          <path d="M394.721,124.915v55.685h-6.848v-55.685h6.848Z"/>
          <path d="M357.723,181.277c-3.861,0-7.374-.878-10.535-2.634-3.109-1.756-5.568-4.239-7.375-7.45-1.754-3.261-2.634-7.023-2.634-11.288,0-4.214.903-7.926,2.709-11.137,1.858-3.261,4.364-5.744,7.525-7.45,3.161-1.756,6.697-2.634,10.61-2.634s7.45.878,10.61,2.634c3.161,1.706,5.644,4.164,7.45,7.375,1.858,3.211,2.784,6.948,2.784,11.212s-.952,8.027-2.86,11.288c-1.855,3.211-4.388,5.694-7.6,7.45-3.21,1.756-6.772,2.634-10.686,2.634ZM357.723,175.257c2.46,0,4.767-.577,6.923-1.731,2.159-1.154,3.889-2.885,5.192-5.192,1.354-2.308,2.032-5.117,2.032-8.428s-.651-6.12-1.957-8.428c-1.303-2.308-3.01-4.013-5.117-5.117-2.107-1.154-4.388-1.731-6.848-1.731-2.507,0-4.816.577-6.923,1.731-2.055,1.104-3.711,2.809-4.967,5.117-1.253,2.308-1.881,5.117-1.881,8.428,0,3.361.602,6.196,1.806,8.503,1.256,2.308,2.911,4.038,4.966,5.192,2.058,1.104,4.315,1.655,6.772,1.655Z"/>
          <path d="M309.591,181.277c-3.864,0-7.375-.878-10.535-2.634-3.111-1.756-5.568-4.239-7.374-7.45-1.757-3.261-2.634-7.023-2.634-11.288,0-4.214.903-7.926,2.709-11.137,1.855-3.261,4.364-5.744,7.525-7.45,3.161-1.756,6.697-2.634,10.61-2.634s7.45.878,10.61,2.634c3.161,1.706,5.644,4.164,7.45,7.375,1.855,3.211,2.784,6.948,2.784,11.212s-.955,8.027-2.859,11.288c-1.858,3.211-4.39,5.694-7.6,7.45-3.212,1.756-6.773,2.634-10.686,2.634ZM309.591,175.257c2.457,0,4.764-.577,6.923-1.731,2.156-1.154,3.887-2.885,5.192-5.192,1.355-2.308,2.032-5.117,2.032-8.428s-.654-6.12-1.957-8.428c-1.305-2.308-3.01-4.013-5.117-5.117-2.107-1.154-4.39-1.731-6.848-1.731-2.509,0-4.816.577-6.923,1.731-2.058,1.104-3.713,2.809-4.966,5.117-1.256,2.308-1.881,5.117-1.881,8.428,0,3.361.602,6.196,1.806,8.503,1.253,2.308,2.909,4.038,4.966,5.192,2.055,1.104,4.313,1.655,6.773,1.655Z"/>
          <path d="M283.177,128.151v5.569h-14.298v46.881h-6.848v-46.881h-14.373v-5.569h35.518Z"/>
        </g>
      </g>
    </g>
  </g>
</svg>