<svg width="544" height="301" viewBox="0 0 544 301" fill="none" xmlns="http://www.w3.org/2000/svg">
<rect width="543.208" height="300.194" transform="translate(0 0.388184)" fill="#1E2D45"/>
<path d="M271.524 171.529C302.188 171.529 327.046 146.671 327.046 116.007C327.046 85.3433 302.188 60.4854 271.524 60.4854C240.86 60.4854 216.002 85.3433 216.002 116.007C216.002 146.671 240.86 171.529 271.524 171.529Z" fill="#F1D6C8"/>
<path d="M304.703 102.042C307.95 99.138 311.366 94.4483 309.711 92.135C308.056 89.8217 299.161 89.8268 296.089 90.4466C292.103 86.6747 287.971 82.3601 277.086 85.0638C274.933 82.5666 270.057 79.1666 268.269 79.9662C264.684 81.4552 263.223 89.6543 263.223 89.6543C253.141 92.2977 243.25 97.4754 240.815 98.8782C236.263 101.327 231.542 106.115 233.23 113.19C229.016 117.054 228.022 134.526 240.768 138.109C245.952 145.585 250.432 145.248 256.2 145.146C257.998 149.59 264.808 155.134 274.34 149.282C280.799 150.679 288.64 151.011 294.65 144.908C302.83 144.623 312.859 137.441 310.107 125.459C315.114 118.322 305.509 103.533 304.704 102.042H304.703Z" fill="black"/>
<path d="M308.863 115.081C302.295 97.6805 292.794 88.3121 287.49 86.6903C281.636 84.8878 275.747 87.2125 262.229 91.7797C247.899 96.6217 238.068 100.748 235.461 106.762C232.941 112.573 237.6 119.911 243.289 121.145C243.199 120.334 243.342 119.177 243.372 118.993C243.529 118.01 245.343 109.895 254.608 106.371C249.011 109.508 241.982 117.581 245.831 124.877C247.847 127.444 251.282 129.38 256.923 127.929C257.419 120.417 263.269 111.185 270.659 105.014C265.743 110.77 259.731 118.795 258.882 126.446C258.814 127.045 258.797 129.768 260.276 131.71C264.967 136.092 273.798 137.936 279.163 131.959C284.569 125.314 283.295 113.014 282.522 106.594C284.895 115.147 285.284 124.842 281.469 131.265C284.595 134.459 290.35 134.999 295.568 130.736C299.029 122.697 298.957 112.418 291.914 102.969C299.186 111.581 299.906 118.714 297.677 129.805C304.417 127.983 312.327 126.024 308.864 115.081L308.863 115.081Z" fill="#ABB0C0"/>
<path d="M240.959 129.257C237.756 128.323 232.546 124.06 232.701 118.438C231.95 121.741 230.885 133.097 241.809 136.645C240.671 134.291 240.679 131.536 240.959 129.257Z" fill="#ABB0C0"/>
<path d="M254.983 136.931C251.081 137.203 243.889 133.76 243.06 129.182C242.006 130.451 240.673 135.315 243.608 139.069C247.427 143.631 251.164 143.713 256.592 143.377C255.338 141.057 254.921 138.863 254.984 136.931L254.983 136.931Z" fill="#ABB0C0"/>
<path d="M295.05 138.029C295.05 138.029 295.05 138.027 295.05 138.026C292.41 140.911 285.158 142.718 278.72 139.737C278.614 141.534 276.585 145.76 274.426 147.413C278.631 148.391 286.819 150.184 293.038 144.03C294.457 141.954 294.98 139.855 295.05 138.028L295.05 138.029Z" fill="#ABB0C0"/>
<path d="M256.353 137.024C256.06 140.002 256.514 142.158 257.161 143.912C258.862 147.455 264.782 153.253 273.862 147.677C276.193 145.701 276.759 142.599 276.7 140.437C272.404 143.694 259.934 143.553 256.353 137.024Z" fill="#ABB0C0"/>
<path d="M296.505 137.542V137.543C296.47 138.786 296.031 140.749 293.814 143.235C301.533 143.136 307.327 137.852 308.377 132.385C306.069 135.996 300.724 138.235 296.505 137.542H296.505Z" fill="#ABB0C0"/>
<path d="M232.41 125.041C232.945 129.415 235.148 134.482 241.809 136.646C241.382 135.762 241.116 134.822 240.965 133.872C235.539 133.777 232.981 127.709 232.409 125.041L232.41 125.041Z" fill="#858B97"/>
<path d="M241.864 134.58C241.997 136.065 242.496 137.646 243.608 139.068C247.427 143.63 251.164 143.713 256.592 143.376C256.247 142.739 255.968 142.111 255.742 141.496C245.86 142.823 242.969 137.418 241.864 134.581L241.864 134.58Z" fill="#858B97"/>
<path d="M275.554 145.578C275.596 145.493 275.64 145.409 275.681 145.325C273.458 147.008 271.167 148.404 266.248 148.193C260.283 147.719 257.431 144.705 256.544 141.751C256.58 141.928 256.619 142.1 256.66 142.27C256.67 142.31 256.679 142.351 256.69 142.391C256.773 142.726 256.867 143.046 256.967 143.353C256.979 143.391 256.992 143.429 257.004 143.466C257.055 143.617 257.106 143.766 257.16 143.911C258.861 147.454 264.781 153.253 273.861 147.677C274.583 147.065 275.135 146.344 275.553 145.577L275.554 145.578Z" fill="#858B97"/>
<path d="M293.038 144.031C293.56 143.267 293.96 142.5 294.262 141.744C287.451 148.371 278.417 146.408 276.442 145.136C275.826 146.054 275.133 146.872 274.426 147.414C278.631 148.392 286.819 150.186 293.038 144.031H293.038Z" fill="#858B97"/>
<path d="M295.29 141.269C294.918 141.88 294.436 142.537 293.813 143.235C300.117 143.154 305.136 139.614 307.337 135.341C304.953 139.84 297.372 141.484 295.29 141.269V141.269Z" fill="#858B97"/>
<path d="M233.998 115.201C233.192 116.259 232.938 117.496 232.938 117.496C232.733 120.91 237.535 128.933 243.675 128.138C243.936 132.624 252.378 137.565 256.263 135.352C258.946 141.724 272.678 143.37 278.083 138.14C281.351 141.144 292.962 140.786 295.364 135.988C299.057 137.98 307.128 134.534 308.681 130.293C309.009 128.699 308.543 127.113 308.543 127.113C306.872 129.169 301.284 133.288 296.961 131.892C293.72 134.865 286.317 137.806 280.641 132.998C274.105 141.302 258.723 136.845 257.344 129.656C253.041 130.811 244.954 130.423 243.149 122.941C241.813 122.382 237.185 121.605 233.998 115.201Z" fill="#1E2D45"/>
<path d="M265.247 88.911C267.568 88.034 272.383 86.5264 275.228 85.7026C273.579 83.9987 269.956 81.3905 268.932 81.6152C267.461 82.0216 265.759 86.5083 265.247 88.911Z" fill="white"/>
<path d="M297.506 91.9972C300.728 95.5263 303.275 99.702 303.796 100.476C306.032 98.5895 309.127 93.8038 308.174 93.1024C306.325 91.7415 299.792 91.6769 297.506 91.9972Z" fill="white"/>
<path d="M261.227 92.1195C261.051 92.1795 260.876 92.2394 260.702 92.2988C260.616 92.3282 260.529 92.3582 260.443 92.3876C260.269 92.4475 260.095 92.5069 259.922 92.5668C259.844 92.5937 259.765 92.6211 259.687 92.6479C259.444 92.7321 259.2 92.8163 258.96 92.9005C258.951 92.9036 258.943 92.9062 258.935 92.9093C258.699 92.9914 258.464 93.0735 258.231 93.1556C258.155 93.1825 258.08 93.2093 258.003 93.2362C257.836 93.2951 257.669 93.3539 257.504 93.4128C257.423 93.4417 257.342 93.4707 257.26 93.4996C257.093 93.5595 256.926 93.6189 256.76 93.6783C256.689 93.7041 256.617 93.7294 256.546 93.7552C256.08 93.9231 255.619 94.091 255.165 94.2583C255.095 94.2841 255.027 94.3094 254.957 94.3353C254.798 94.3941 254.64 94.453 254.482 94.5119C254.405 94.5403 254.329 94.5692 254.252 94.5976C254.094 94.657 253.937 94.7159 253.781 94.7753C253.714 94.8006 253.648 94.8254 253.581 94.8507C253.361 94.9344 253.142 95.018 252.925 95.1012H252.924C252.709 95.1844 252.495 95.2675 252.283 95.3501C252.22 95.3749 252.157 95.3992 252.095 95.424C251.943 95.4839 251.791 95.5433 251.641 95.6032C251.571 95.6311 251.502 95.6585 251.432 95.6864C251.283 95.7458 251.135 95.8052 250.988 95.8651C250.926 95.8899 250.864 95.9147 250.803 95.94C250.392 96.1068 249.988 96.2736 249.591 96.441C249.534 96.4647 249.477 96.489 249.421 96.5127C249.278 96.5732 249.136 96.6336 248.995 96.694C248.931 96.7214 248.868 96.7488 248.804 96.7761C248.664 96.8371 248.524 96.8975 248.385 96.9585C248.33 96.9822 248.276 97.006 248.222 97.0303C247.84 97.1981 247.466 97.3665 247.099 97.5354C247.047 97.5597 246.994 97.5839 246.942 97.6082C246.81 97.6691 246.679 97.7301 246.549 97.7916C246.491 97.8189 246.432 97.8463 246.375 97.8742C246.245 97.9356 246.117 97.9971 245.99 98.0586C245.94 98.0828 245.889 98.1071 245.839 98.1314C245.489 98.3013 245.147 98.4723 244.812 98.6437C244.764 98.668 244.717 98.6928 244.67 98.7171C244.549 98.7791 244.429 98.8416 244.311 98.9035C244.259 98.9314 244.206 98.9593 244.153 98.9872C244.035 99.0502 243.918 99.1127 243.801 99.1757C243.757 99.2 243.712 99.2243 243.667 99.2485C243.35 99.4216 243.041 99.5961 242.739 99.7712C242.696 99.7965 242.653 99.8218 242.609 99.8471C242.501 99.9107 242.394 99.9737 242.288 100.038C242.241 100.066 242.194 100.095 242.147 100.123C242.041 100.188 241.935 100.253 241.831 100.317C241.791 100.341 241.751 100.366 241.712 100.39C241.57 100.48 241.429 100.569 241.291 100.659C246.992 97.9718 266.43 90.8211 276.161 98.0823C285.892 105.344 298.638 96.8531 291.947 89.2102C290.285 87.9195 288.765 87.0802 287.49 86.6903C281.636 84.8878 275.746 87.2125 262.228 91.7797C261.974 91.8654 261.722 91.9512 261.471 92.0364C261.39 92.0643 261.309 92.0917 261.227 92.1195Z" fill="white"/>
<path d="M263.839 112.138C258.14 119.312 256.661 124.685 253.166 125.317C250.378 125.822 247.038 126.164 244.863 122.055C245.025 123 245.338 123.945 245.83 124.877C247.846 127.444 251.281 129.379 256.922 127.929C257.25 122.956 259.925 117.231 263.839 112.138H263.839Z" fill="#858B97"/>
<path d="M259.112 129.133C259.315 129.99 259.67 130.916 260.275 131.71C264.966 136.092 273.797 137.936 279.162 131.959C282.194 128.233 283.124 122.728 283.22 117.479C279.659 136.064 261.822 136.965 259.112 129.133Z" fill="#858B97"/>
<path d="M295.959 129.768C296.022 129.606 296.085 129.443 296.145 129.278C296.181 129.179 296.215 129.078 296.251 128.978C296.303 128.831 296.354 128.682 296.404 128.533C296.44 128.425 296.475 128.315 296.51 128.206C296.555 128.064 296.6 127.92 296.644 127.777C296.678 127.663 296.712 127.548 296.745 127.432C296.785 127.293 296.824 127.153 296.862 127.013C296.894 126.894 296.926 126.774 296.957 126.654C296.992 126.516 297.025 126.378 297.058 126.24C297.088 126.116 297.118 125.992 297.146 125.868C297.176 125.733 297.205 125.596 297.233 125.46C297.26 125.332 297.287 125.204 297.312 125.076C297.338 124.943 297.361 124.81 297.384 124.678C297.408 124.543 297.433 124.41 297.455 124.275C297.474 124.161 297.489 124.045 297.506 123.931C297.553 123.616 297.595 123.299 297.631 122.98C297.641 122.891 297.653 122.803 297.662 122.714C297.679 122.547 297.693 122.379 297.707 122.21C297.716 122.109 297.725 122.007 297.733 121.905C297.745 121.737 297.754 121.567 297.763 121.398C297.769 121.297 297.775 121.195 297.779 121.093C297.787 120.921 297.791 120.749 297.795 120.576C297.797 120.477 297.8 120.377 297.801 120.278C297.803 120.101 297.803 119.924 297.802 119.746C297.801 119.652 297.8 119.558 297.797 119.464C297.794 119.28 297.789 119.096 297.781 118.912C297.778 118.826 297.774 118.741 297.769 118.655C297.759 118.461 297.749 118.266 297.734 118.071C297.73 118.004 297.724 117.935 297.718 117.868C297.701 117.654 297.683 117.441 297.661 117.227C297.658 117.202 297.655 117.178 297.652 117.153C297.541 116.111 297.367 115.06 297.124 114.005C297.122 113.997 297.121 113.987 297.119 113.979C297.063 113.738 297.003 113.497 296.94 113.256C296.93 113.216 296.92 113.175 296.909 113.136C296.848 112.906 296.783 112.676 296.716 112.446C296.701 112.396 296.687 112.346 296.672 112.296C296.604 112.069 296.533 111.842 296.458 111.615C296.442 111.565 296.425 111.514 296.408 111.463C296.331 111.233 296.251 111.003 296.167 110.773C296.152 110.731 296.136 110.689 296.121 110.647C296.032 110.407 295.941 110.166 295.845 109.926C295.837 109.906 295.828 109.887 295.82 109.866C295.279 108.522 294.619 107.18 293.83 105.848C297.661 115.645 296.854 127.485 290.48 130.86C288.158 132.09 284.904 132.843 281.716 130.833C281.715 130.833 281.714 130.833 281.713 130.832C281.633 130.978 281.553 131.123 281.468 131.265C284.595 134.46 290.35 134.999 295.567 130.737C295.67 130.498 295.77 130.257 295.866 130.013C295.898 129.932 295.929 129.85 295.96 129.768H295.959Z" fill="#858B97"/>
<path d="M308.863 115.081C305.749 106.829 301.974 100.385 298.301 95.7153C304.676 107.806 308.267 116.373 305.666 122.469C304.667 124.541 303.308 127.301 298.525 128.548C298.442 128.573 298.057 128.543 297.985 128.577C297.916 128.951 297.753 129.42 297.676 129.804C300.474 131.552 313.199 126.522 308.863 115.08V115.081Z" fill="#858B97"/>
<path d="M307.324 96.1072C303.342 98.2382 299.231 93.2991 297.507 91.9971C300.728 95.5262 303.276 99.7019 303.796 100.476C304.973 99.483 306.387 97.6877 307.324 96.1072Z" fill="#858B97"/>
<path d="M247.926 110.663C242.347 116.303 238.575 117.319 236.003 115.129C237.519 118.098 240.258 120.488 243.288 121.145C243.198 120.334 243.341 119.177 243.371 118.992C243.479 118.317 244.37 114.271 247.926 110.663Z" fill="#858B97"/>
<path d="M176.765 225.338C173.993 225.338 171.498 224.863 169.28 223.913C167.063 222.923 165.321 221.537 164.053 219.755C163.312 218.712 162.787 217.567 162.479 216.32C162.105 214.804 163.418 213.517 164.981 213.517H167.457C168.556 213.517 169.433 214.377 169.811 215.409C170.16 216.365 170.716 217.2 171.478 217.913C172.745 219.061 174.507 219.635 176.765 219.635C179.101 219.635 180.923 219.081 182.23 217.972C183.536 216.824 184.19 215.359 184.19 213.576C184.19 212.19 183.774 211.062 182.942 210.191C182.151 209.32 181.14 208.647 179.913 208.171C178.725 207.696 177.062 207.181 174.923 206.627C172.231 205.914 170.033 205.202 168.33 204.489C166.667 203.736 165.241 202.588 164.053 201.044C162.865 199.5 162.271 197.44 162.271 194.866C162.271 192.49 162.865 190.411 164.053 188.629C165.241 186.847 166.904 185.481 169.043 184.53C171.181 183.58 173.656 183.105 176.468 183.105C180.467 183.105 183.734 184.115 186.268 186.134C188.052 187.505 189.284 189.238 189.964 191.331C190.475 192.901 189.134 194.331 187.483 194.331H185.021C183.915 194.331 183.04 193.443 182.549 192.451C182.189 191.724 181.648 191.063 180.922 190.471C179.616 189.401 177.893 188.867 175.754 188.867C173.814 188.867 172.23 189.362 171.002 190.352C169.775 191.342 169.161 192.767 169.161 194.629C169.161 195.896 169.537 196.945 170.29 197.777C171.081 198.568 172.071 199.202 173.259 199.677C174.447 200.152 176.071 200.667 178.13 201.222C180.862 201.974 183.08 202.727 184.783 203.479C186.526 204.231 187.99 205.399 189.179 206.983C190.407 208.527 191.02 210.606 191.02 213.22C191.02 215.319 190.446 217.299 189.298 219.16C188.189 221.021 186.545 222.526 184.367 223.675C182.229 224.783 179.695 225.338 176.764 225.338L176.765 225.338Z" fill="white"/>
<path d="M199.325 199.648C200.691 197.094 202.581 195.124 204.997 193.738C207.412 192.352 210.185 191.659 213.313 191.659C217.273 191.659 220.55 192.6 223.144 194.48C224.814 195.691 226.134 197.234 227.106 199.109C227.959 200.754 226.59 202.529 224.737 202.529H223.072C221.885 202.529 220.868 201.755 220.217 200.762C219.688 199.955 219.03 199.277 218.243 198.728C216.937 197.817 215.293 197.362 213.313 197.362C210.54 197.362 208.333 198.342 206.69 200.302C205.046 202.262 204.225 205.005 204.225 208.529C204.225 212.052 205.046 214.805 206.69 216.786C208.333 218.766 210.541 219.755 213.313 219.755C216.491 219.755 218.798 218.623 220.232 216.358C220.867 215.356 221.882 214.587 223.068 214.587H224.651C226.53 214.587 227.895 216.408 226.977 218.048C225.994 219.804 224.686 221.294 223.055 222.517C220.442 224.477 217.194 225.458 213.313 225.458C210.185 225.458 207.412 224.755 204.997 223.349C202.581 221.944 200.691 219.963 199.325 217.409C197.959 214.855 197.276 211.895 197.276 208.529C197.276 205.162 197.959 202.202 199.325 199.648Z" fill="white"/>
<path d="M233.449 208.409C233.449 205.122 234.122 202.212 235.469 199.678C236.855 197.143 238.716 195.183 241.052 193.797C243.428 192.371 246.042 191.659 248.893 191.659C251.467 191.659 253.704 192.174 255.605 193.203C256.947 193.888 258.101 194.696 259.064 195.627C259.475 196.025 260.238 195.75 260.238 195.179C260.238 193.53 261.575 192.193 263.224 192.193H264.033C265.71 192.193 267.069 193.553 267.069 195.229V221.886C267.069 223.563 265.71 224.922 264.033 224.922H263.274C261.597 224.922 260.238 223.563 260.238 221.886C260.238 221.301 259.45 221.022 259.032 221.431C258.065 222.379 256.903 223.206 255.545 223.912C253.565 224.942 251.308 225.457 248.774 225.457C245.962 225.457 243.388 224.744 241.052 223.318C238.715 221.853 236.854 219.834 235.468 217.26C234.122 214.646 233.449 211.696 233.449 208.409ZM260.238 208.528C260.238 206.271 259.763 204.31 258.813 202.647C257.902 200.984 256.694 199.717 255.19 198.846C253.685 197.974 252.061 197.539 250.319 197.539C248.576 197.539 246.953 197.974 245.448 198.846C243.943 199.677 242.716 200.924 241.765 202.588C240.854 204.212 240.399 206.152 240.399 208.409C240.399 210.667 240.854 212.646 241.765 214.349C242.715 216.052 243.943 217.359 245.448 218.27C246.992 219.141 248.616 219.577 250.319 219.577C252.061 219.577 253.685 219.141 255.19 218.27C256.695 217.399 257.902 216.132 258.813 214.468C259.763 212.765 260.238 210.785 260.238 208.528Z" fill="white"/>
<path d="M279.899 180.966C278.03 180.966 276.514 182.472 276.514 184.33V221.558C276.514 223.416 278.03 224.921 279.899 224.921C281.769 224.921 283.286 223.415 283.286 221.558V184.33C283.286 182.472 281.77 180.966 279.899 180.966Z" fill="white"/>
<path d="M296.114 180.966C294.245 180.966 292.729 182.472 292.729 184.33V221.558C292.729 223.416 294.245 224.921 296.114 224.921C297.983 224.921 299.501 223.415 299.501 221.558V184.33C299.501 182.472 297.985 180.966 296.114 180.966Z" fill="white"/>
<path d="M314.766 223.348C312.272 221.944 310.311 219.963 308.885 217.408C307.46 214.854 306.747 211.894 306.747 208.528C306.747 205.202 307.479 202.252 308.945 199.678C310.409 197.104 312.41 195.124 314.944 193.738C317.478 192.352 320.309 191.659 323.438 191.659C326.567 191.659 329.398 192.352 331.933 193.738C334.467 195.124 336.467 197.104 337.932 199.678C339.396 202.252 340.13 205.202 340.13 208.528C340.13 211.854 339.377 214.805 337.873 217.378C336.368 219.954 334.318 221.944 331.725 223.348C329.131 224.754 326.27 225.457 323.142 225.457C320.053 225.457 317.261 224.754 314.766 223.348L314.766 223.348ZM328.042 218.329C329.566 217.498 330.804 216.25 331.755 214.587C332.705 212.923 333.18 210.904 333.18 208.528C333.18 206.152 332.725 204.143 331.814 202.499C330.902 200.857 329.695 199.618 328.19 198.787C326.685 197.955 325.062 197.539 323.32 197.539C321.578 197.539 319.963 197.955 318.478 198.787C316.994 199.618 315.815 200.857 314.945 202.499C314.073 204.143 313.638 206.152 313.638 208.528C313.638 212.054 314.538 214.775 316.341 216.696C318.143 218.617 320.41 219.577 323.142 219.577C324.884 219.577 326.518 219.161 328.043 218.33L328.042 218.329Z" fill="white"/>
<path d="M354.148 196.131C354.148 196.413 354.517 196.542 354.703 196.331C355.784 195.118 357.163 194.075 358.84 193.203C360.821 192.174 363.058 191.659 365.553 191.659C368.404 191.659 370.997 192.371 373.334 193.797C375.71 195.183 377.571 197.143 378.918 199.678C380.264 202.212 380.937 205.122 380.937 208.409C380.937 211.696 380.264 214.646 378.918 217.26C377.571 219.834 375.71 221.853 373.334 223.318C370.997 224.744 368.404 225.457 365.553 225.457C363.058 225.457 360.84 224.962 358.9 223.972C357.354 223.152 356.034 222.181 354.942 221.059C354.663 220.773 354.148 220.963 354.148 221.362V237.1C354.148 238.969 352.632 240.485 350.763 240.485C348.893 240.485 347.377 238.969 347.377 237.1V195.579C347.377 193.71 348.893 192.194 350.763 192.194C352.632 192.194 354.148 193.71 354.148 195.579V196.131H354.148ZM374.046 208.409C374.046 206.152 373.571 204.212 372.621 202.588C371.71 200.925 370.482 199.678 368.938 198.846C367.433 197.975 365.81 197.539 364.067 197.539C362.364 197.539 360.741 197.975 359.196 198.846C357.691 199.717 356.464 200.984 355.514 202.647C354.603 204.31 354.148 206.27 354.148 208.528C354.148 210.786 354.603 212.765 355.514 214.468C356.464 216.131 357.692 217.399 359.196 218.269C360.741 219.141 362.364 219.576 364.067 219.576C365.81 219.576 367.433 219.141 368.938 218.269C370.482 217.359 371.71 216.052 372.621 214.349C373.571 212.646 374.046 210.666 374.046 208.409V208.409Z" fill="white"/>
</svg>
