<svg width="576" height="324" viewBox="0 0 576 324" fill="none" xmlns="http://www.w3.org/2000/svg">
<path d="M0 16C0 7.16343 7.16344 0 16 0H560C568.837 0 576 7.16344 576 16V308C576 316.837 568.837 324 560 324H16C7.16345 324 0 316.837 0 308V16Z" fill="#EBEBEB"/>
<path d="M30.0469 38.0146H26.8037L26.7861 36.6523H29.7305C30.2168 36.6523 30.6416 36.5703 31.0049 36.4062C31.3682 36.2422 31.6494 36.0078 31.8486 35.7031C32.0537 35.3926 32.1562 35.0234 32.1562 34.5957C32.1562 34.127 32.0654 33.7461 31.8838 33.4531C31.708 33.1543 31.4355 32.9375 31.0664 32.8027C30.7031 32.6621 30.2402 32.5918 29.6777 32.5918H27.1816V44H25.4854V31.2031H29.6777C30.334 31.2031 30.9199 31.2705 31.4355 31.4053C31.9512 31.5342 32.3877 31.7393 32.7451 32.0205C33.1084 32.2959 33.3838 32.6475 33.5713 33.0752C33.7588 33.5029 33.8525 34.0156 33.8525 34.6133C33.8525 35.1406 33.7178 35.6182 33.4482 36.0459C33.1787 36.4678 32.8037 36.8135 32.3232 37.083C31.8486 37.3525 31.292 37.5254 30.6533 37.6016L30.0469 38.0146ZM29.9678 44H26.1357L27.0938 42.6201H29.9678C30.5068 42.6201 30.9639 42.5264 31.3389 42.3389C31.7197 42.1514 32.0098 41.8877 32.209 41.5479C32.4082 41.2021 32.5078 40.7949 32.5078 40.3262C32.5078 39.8516 32.4229 39.4414 32.2529 39.0957C32.083 38.75 31.8164 38.4834 31.4531 38.2959C31.0898 38.1084 30.6211 38.0146 30.0469 38.0146H27.6299L27.6475 36.6523H30.9521L31.3125 37.1445C31.9277 37.1973 32.4492 37.373 32.877 37.6719C33.3047 37.9648 33.6299 38.3398 33.8525 38.7969C34.0811 39.2539 34.1953 39.7578 34.1953 40.3086C34.1953 41.1055 34.0195 41.7793 33.668 42.3301C33.3223 42.875 32.833 43.291 32.2002 43.5781C31.5674 43.8594 30.8232 44 29.9678 44ZM36.0234 39.3506V39.1484C36.0234 38.4629 36.123 37.8271 36.3223 37.2412C36.5215 36.6494 36.8086 36.1367 37.1836 35.7031C37.5586 35.2637 38.0127 34.9238 38.5459 34.6836C39.0791 34.4375 39.6768 34.3145 40.3389 34.3145C41.0068 34.3145 41.6074 34.4375 42.1406 34.6836C42.6797 34.9238 43.1367 35.2637 43.5117 35.7031C43.8926 36.1367 44.1826 36.6494 44.3818 37.2412C44.5811 37.8271 44.6807 38.4629 44.6807 39.1484V39.3506C44.6807 40.0361 44.5811 40.6719 44.3818 41.2578C44.1826 41.8438 43.8926 42.3564 43.5117 42.7959C43.1367 43.2295 42.6826 43.5693 42.1494 43.8154C41.6221 44.0557 41.0244 44.1758 40.3564 44.1758C39.6885 44.1758 39.0879 44.0557 38.5547 43.8154C38.0215 43.5693 37.5645 43.2295 37.1836 42.7959C36.8086 42.3564 36.5215 41.8438 36.3223 41.2578C36.123 40.6719 36.0234 40.0361 36.0234 39.3506ZM37.6494 39.1484V39.3506C37.6494 39.8252 37.7051 40.2734 37.8164 40.6953C37.9277 41.1113 38.0947 41.4805 38.3174 41.8027C38.5459 42.125 38.8301 42.3799 39.1699 42.5674C39.5098 42.749 39.9053 42.8398 40.3564 42.8398C40.8018 42.8398 41.1914 42.749 41.5254 42.5674C41.8652 42.3799 42.1465 42.125 42.3691 41.8027C42.5918 41.4805 42.7588 41.1113 42.8701 40.6953C42.9873 40.2734 43.0459 39.8252 43.0459 39.3506V39.1484C43.0459 38.6797 42.9873 38.2373 42.8701 37.8213C42.7588 37.3994 42.5889 37.0273 42.3604 36.7051C42.1377 36.377 41.8564 36.1191 41.5166 35.9316C41.1826 35.7441 40.79 35.6504 40.3389 35.6504C39.8936 35.6504 39.501 35.7441 39.1611 35.9316C38.8271 36.1191 38.5459 36.377 38.3174 36.7051C38.0947 37.0273 37.9277 37.3994 37.8164 37.8213C37.7051 38.2373 37.6494 38.6797 37.6494 39.1484ZM52.7139 42.1543V30.5H54.3486V44H52.8545L52.7139 42.1543ZM46.3154 39.3506V39.166C46.3154 38.4395 46.4033 37.7803 46.5791 37.1885C46.7607 36.5908 47.0156 36.0781 47.3438 35.6504C47.6777 35.2227 48.0732 34.8945 48.5303 34.666C48.9932 34.4316 49.5088 34.3145 50.0771 34.3145C50.6748 34.3145 51.1963 34.4199 51.6416 34.6309C52.0928 34.8359 52.4736 35.1377 52.7842 35.5361C53.1006 35.9287 53.3496 36.4033 53.5312 36.96C53.7129 37.5166 53.8389 38.1465 53.9092 38.8496V39.6582C53.8447 40.3555 53.7188 40.9824 53.5312 41.5391C53.3496 42.0957 53.1006 42.5703 52.7842 42.9629C52.4736 43.3555 52.0928 43.6572 51.6416 43.8682C51.1904 44.0732 50.6631 44.1758 50.0596 44.1758C49.5029 44.1758 48.9932 44.0557 48.5303 43.8154C48.0732 43.5752 47.6777 43.2383 47.3438 42.8047C47.0156 42.3711 46.7607 41.8613 46.5791 41.2754C46.4033 40.6836 46.3154 40.042 46.3154 39.3506ZM47.9502 39.166V39.3506C47.9502 39.8252 47.9971 40.2705 48.0908 40.6865C48.1904 41.1025 48.3428 41.4688 48.5479 41.7852C48.7529 42.1016 49.0137 42.3506 49.3301 42.5322C49.6465 42.708 50.0244 42.7959 50.4639 42.7959C51.0029 42.7959 51.4453 42.6816 51.791 42.4531C52.1426 42.2246 52.4238 41.9229 52.6348 41.5479C52.8457 41.1729 53.0098 40.7656 53.127 40.3262V38.208C53.0566 37.8857 52.9541 37.5752 52.8193 37.2764C52.6904 36.9717 52.5205 36.7021 52.3096 36.4678C52.1045 36.2275 51.8496 36.0371 51.5449 35.8965C51.2461 35.7559 50.8916 35.6855 50.4814 35.6855C50.0361 35.6855 49.6523 35.7793 49.3301 35.9668C49.0137 36.1484 48.7529 36.4004 48.5479 36.7227C48.3428 37.0391 48.1904 37.4082 48.0908 37.8301C47.9971 38.2461 47.9502 38.6914 47.9502 39.166ZM59.5518 43.0156L62.1973 34.4902H63.9375L60.123 45.4678C60.0352 45.7021 59.918 45.9541 59.7715 46.2236C59.6309 46.499 59.4492 46.7598 59.2266 47.0059C59.0039 47.252 58.7344 47.4512 58.418 47.6035C58.1074 47.7617 57.7354 47.8408 57.3018 47.8408C57.1729 47.8408 57.0088 47.8232 56.8096 47.7881C56.6104 47.7529 56.4697 47.7236 56.3877 47.7002L56.3789 46.3818C56.4258 46.3877 56.499 46.3936 56.5986 46.3994C56.7041 46.4111 56.7773 46.417 56.8184 46.417C57.1875 46.417 57.501 46.3672 57.7588 46.2676C58.0166 46.1738 58.2334 46.0127 58.4092 45.7842C58.5908 45.5615 58.7461 45.2539 58.875 44.8613L59.5518 43.0156ZM57.6094 34.4902L60.0791 41.873L60.501 43.5869L59.332 44.1846L55.834 34.4902H57.6094ZM74.4932 31.2031V44H72.8232V31.2031H74.4932ZM78.6064 31.2031V32.5918H68.7188V31.2031H78.6064ZM82.2979 43.0156L84.9434 34.4902H86.6836L82.8691 45.4678C82.7812 45.7021 82.6641 45.9541 82.5176 46.2236C82.377 46.499 82.1953 46.7598 81.9727 47.0059C81.75 47.252 81.4805 47.4512 81.1641 47.6035C80.8535 47.7617 80.4814 47.8408 80.0479 47.8408C79.9189 47.8408 79.7549 47.8232 79.5557 47.7881C79.3564 47.7529 79.2158 47.7236 79.1338 47.7002L79.125 46.3818C79.1719 46.3877 79.2451 46.3936 79.3447 46.3994C79.4502 46.4111 79.5234 46.417 79.5645 46.417C79.9336 46.417 80.2471 46.3672 80.5049 46.2676C80.7627 46.1738 80.9795 46.0127 81.1553 45.7842C81.3369 45.5615 81.4922 45.2539 81.6211 44.8613L82.2979 43.0156ZM80.3555 34.4902L82.8252 41.873L83.2471 43.5869L82.0781 44.1846L78.5801 34.4902H80.3555ZM89.7773 36.3184V47.6562H88.1426V34.4902H89.6367L89.7773 36.3184ZM96.1846 39.166V39.3506C96.1846 40.042 96.1025 40.6836 95.9385 41.2754C95.7744 41.8613 95.5342 42.3711 95.2178 42.8047C94.9072 43.2383 94.5234 43.5752 94.0664 43.8154C93.6094 44.0557 93.085 44.1758 92.4932 44.1758C91.8896 44.1758 91.3564 44.0762 90.8936 43.877C90.4307 43.6777 90.0381 43.3877 89.7158 43.0068C89.3936 42.626 89.1357 42.1689 88.9424 41.6357C88.7549 41.1025 88.626 40.502 88.5557 39.834V38.8496C88.626 38.1465 88.7578 37.5166 88.9512 36.96C89.1445 36.4033 89.3994 35.9287 89.7158 35.5361C90.0381 35.1377 90.4277 34.8359 90.8848 34.6309C91.3418 34.4199 91.8691 34.3145 92.4668 34.3145C93.0645 34.3145 93.5947 34.4316 94.0576 34.666C94.5205 34.8945 94.9102 35.2227 95.2266 35.6504C95.543 36.0781 95.7803 36.5908 95.9385 37.1885C96.1025 37.7803 96.1846 38.4395 96.1846 39.166ZM94.5498 39.3506V39.166C94.5498 38.6914 94.5 38.2461 94.4004 37.8301C94.3008 37.4082 94.1455 37.0391 93.9346 36.7227C93.7295 36.4004 93.4658 36.1484 93.1436 35.9668C92.8213 35.7793 92.4375 35.6855 91.9922 35.6855C91.582 35.6855 91.2246 35.7559 90.9199 35.8965C90.6211 36.0371 90.3662 36.2275 90.1553 36.4678C89.9443 36.7021 89.7715 36.9717 89.6367 37.2764C89.5078 37.5752 89.4111 37.8857 89.3467 38.208V40.4844C89.4639 40.8945 89.6279 41.2812 89.8389 41.6445C90.0498 42.002 90.3311 42.292 90.6826 42.5146C91.0342 42.7314 91.4766 42.8398 92.0098 42.8398C92.4492 42.8398 92.8271 42.749 93.1436 42.5674C93.4658 42.3799 93.7295 42.125 93.9346 41.8027C94.1455 41.4805 94.3008 41.1113 94.4004 40.6953C94.5 40.2734 94.5498 39.8252 94.5498 39.3506ZM102.205 44.1758C101.543 44.1758 100.942 44.0645 100.403 43.8418C99.8701 43.6133 99.4102 43.2939 99.0234 42.8838C98.6426 42.4736 98.3496 41.9873 98.1445 41.4248C97.9395 40.8623 97.8369 40.2471 97.8369 39.5791V39.21C97.8369 38.4365 97.9512 37.748 98.1797 37.1445C98.4082 36.5352 98.7188 36.0195 99.1113 35.5977C99.5039 35.1758 99.9492 34.8564 100.447 34.6396C100.945 34.4229 101.461 34.3145 101.994 34.3145C102.674 34.3145 103.26 34.4316 103.752 34.666C104.25 34.9004 104.657 35.2285 104.974 35.6504C105.29 36.0664 105.524 36.5586 105.677 37.127C105.829 37.6895 105.905 38.3047 105.905 38.9727V39.7021H98.8037V38.375H104.279V38.252C104.256 37.8301 104.168 37.4199 104.016 37.0215C103.869 36.623 103.635 36.2949 103.312 36.0371C102.99 35.7793 102.551 35.6504 101.994 35.6504C101.625 35.6504 101.285 35.7295 100.975 35.8877C100.664 36.04 100.397 36.2686 100.175 36.5732C99.9521 36.8779 99.7793 37.25 99.6562 37.6895C99.5332 38.1289 99.4717 38.6357 99.4717 39.21V39.5791C99.4717 40.0303 99.5332 40.4551 99.6562 40.8535C99.7852 41.2461 99.9697 41.5918 100.21 41.8906C100.456 42.1895 100.752 42.4238 101.098 42.5938C101.449 42.7637 101.848 42.8486 102.293 42.8486C102.867 42.8486 103.354 42.7314 103.752 42.4971C104.15 42.2627 104.499 41.9492 104.798 41.5566L105.782 42.3389C105.577 42.6494 105.316 42.9453 105 43.2266C104.684 43.5078 104.294 43.7363 103.831 43.9121C103.374 44.0879 102.832 44.1758 102.205 44.1758ZM110.229 44H108.604V33.4883C108.604 32.8027 108.727 32.2256 108.973 31.7568C109.225 31.2822 109.585 30.9248 110.054 30.6846C110.522 30.4385 111.079 30.3154 111.724 30.3154C111.911 30.3154 112.099 30.3271 112.286 30.3506C112.479 30.374 112.667 30.4092 112.849 30.4561L112.761 31.7832C112.638 31.7539 112.497 31.7334 112.339 31.7217C112.187 31.71 112.034 31.7041 111.882 31.7041C111.536 31.7041 111.237 31.7744 110.985 31.915C110.739 32.0498 110.552 32.249 110.423 32.5127C110.294 32.7764 110.229 33.1016 110.229 33.4883V44ZM112.251 34.4902V35.7383H107.101V34.4902H112.251ZM119.669 42.374V37.4785C119.669 37.1035 119.593 36.7783 119.44 36.5029C119.294 36.2217 119.071 36.0049 118.772 35.8525C118.474 35.7002 118.104 35.624 117.665 35.624C117.255 35.624 116.895 35.6943 116.584 35.835C116.279 35.9756 116.039 36.1602 115.863 36.3887C115.693 36.6172 115.608 36.8633 115.608 37.127H113.982C113.982 36.7871 114.07 36.4502 114.246 36.1162C114.422 35.7822 114.674 35.4805 115.002 35.2109C115.336 34.9355 115.734 34.7188 116.197 34.5605C116.666 34.3965 117.188 34.3145 117.762 34.3145C118.453 34.3145 119.062 34.4316 119.59 34.666C120.123 34.9004 120.539 35.2549 120.838 35.7295C121.143 36.1982 121.295 36.7871 121.295 37.4961V41.9258C121.295 42.2422 121.321 42.5791 121.374 42.9365C121.433 43.2939 121.518 43.6016 121.629 43.8594V44H119.933C119.851 43.8125 119.786 43.5635 119.739 43.2529C119.692 42.9365 119.669 42.6436 119.669 42.374ZM119.95 38.2344L119.968 39.377H118.324C117.861 39.377 117.448 39.415 117.085 39.4912C116.722 39.5615 116.417 39.6699 116.171 39.8164C115.925 39.9629 115.737 40.1475 115.608 40.3701C115.479 40.5869 115.415 40.8418 115.415 41.1348C115.415 41.4336 115.482 41.7061 115.617 41.9521C115.752 42.1982 115.954 42.3945 116.224 42.541C116.499 42.6816 116.836 42.752 117.234 42.752C117.732 42.752 118.172 42.6465 118.553 42.4355C118.934 42.2246 119.235 41.9668 119.458 41.6621C119.687 41.3574 119.81 41.0615 119.827 40.7744L120.521 41.5566C120.48 41.8027 120.369 42.0752 120.188 42.374C120.006 42.6729 119.763 42.96 119.458 43.2354C119.159 43.5049 118.802 43.7305 118.386 43.9121C117.976 44.0879 117.513 44.1758 116.997 44.1758C116.353 44.1758 115.787 44.0498 115.301 43.7979C114.82 43.5459 114.445 43.209 114.176 42.7871C113.912 42.3594 113.78 41.8818 113.78 41.3545C113.78 40.8447 113.88 40.3965 114.079 40.0098C114.278 39.6172 114.565 39.292 114.94 39.0342C115.315 38.7705 115.767 38.5713 116.294 38.4365C116.821 38.3018 117.41 38.2344 118.061 38.2344H119.95ZM127.658 42.8398C128.045 42.8398 128.402 42.7607 128.73 42.6025C129.059 42.4443 129.328 42.2275 129.539 41.9521C129.75 41.6709 129.87 41.3516 129.899 40.9941H131.446C131.417 41.5566 131.227 42.0811 130.875 42.5674C130.529 43.0479 130.075 43.4375 129.513 43.7363C128.95 44.0293 128.332 44.1758 127.658 44.1758C126.943 44.1758 126.319 44.0498 125.786 43.7979C125.259 43.5459 124.819 43.2002 124.468 42.7607C124.122 42.3213 123.861 41.8174 123.686 41.249C123.516 40.6748 123.431 40.0684 123.431 39.4297V39.0605C123.431 38.4219 123.516 37.8184 123.686 37.25C123.861 36.6758 124.122 36.1689 124.468 35.7295C124.819 35.29 125.259 34.9443 125.786 34.6924C126.319 34.4404 126.943 34.3145 127.658 34.3145C128.402 34.3145 129.053 34.4668 129.609 34.7715C130.166 35.0703 130.603 35.4805 130.919 36.002C131.241 36.5176 131.417 37.1035 131.446 37.7598H129.899C129.87 37.3672 129.759 37.0127 129.565 36.6963C129.378 36.3799 129.12 36.1279 128.792 35.9404C128.47 35.7471 128.092 35.6504 127.658 35.6504C127.16 35.6504 126.741 35.75 126.401 35.9492C126.067 36.1426 125.801 36.4062 125.602 36.7402C125.408 37.0684 125.268 37.4346 125.18 37.8389C125.098 38.2373 125.057 38.6445 125.057 39.0605V39.4297C125.057 39.8457 125.098 40.2559 125.18 40.6602C125.262 41.0645 125.399 41.4307 125.593 41.7588C125.792 42.0869 126.059 42.3506 126.393 42.5498C126.732 42.7432 127.154 42.8398 127.658 42.8398ZM137.221 44.1758C136.559 44.1758 135.958 44.0645 135.419 43.8418C134.886 43.6133 134.426 43.2939 134.039 42.8838C133.658 42.4736 133.365 41.9873 133.16 41.4248C132.955 40.8623 132.853 40.2471 132.853 39.5791V39.21C132.853 38.4365 132.967 37.748 133.195 37.1445C133.424 36.5352 133.734 36.0195 134.127 35.5977C134.52 35.1758 134.965 34.8564 135.463 34.6396C135.961 34.4229 136.477 34.3145 137.01 34.3145C137.689 34.3145 138.275 34.4316 138.768 34.666C139.266 34.9004 139.673 35.2285 139.989 35.6504C140.306 36.0664 140.54 36.5586 140.692 37.127C140.845 37.6895 140.921 38.3047 140.921 38.9727V39.7021H133.819V38.375H139.295V38.252C139.271 37.8301 139.184 37.4199 139.031 37.0215C138.885 36.623 138.65 36.2949 138.328 36.0371C138.006 35.7793 137.566 35.6504 137.01 35.6504C136.641 35.6504 136.301 35.7295 135.99 35.8877C135.68 36.04 135.413 36.2686 135.19 36.5732C134.968 36.8779 134.795 37.25 134.672 37.6895C134.549 38.1289 134.487 38.6357 134.487 39.21V39.5791C134.487 40.0303 134.549 40.4551 134.672 40.8535C134.801 41.2461 134.985 41.5918 135.226 41.8906C135.472 42.1895 135.768 42.4238 136.113 42.5938C136.465 42.7637 136.863 42.8486 137.309 42.8486C137.883 42.8486 138.369 42.7314 138.768 42.4971C139.166 42.2627 139.515 41.9492 139.813 41.5566L140.798 42.3389C140.593 42.6494 140.332 42.9453 140.016 43.2266C139.699 43.5078 139.31 43.7363 138.847 43.9121C138.39 44.0879 137.848 44.1758 137.221 44.1758Z" fill="#101629"/>
<path d="M29.2812 92.5H44.3438C47.7604 92.5 50.6458 93.0208 53 94.0625C55.375 95.1042 57.1771 96.6458 58.4062 98.6875C59.6562 100.708 60.2812 103.198 60.2812 106.156C60.2812 108.24 59.8542 110.146 59 111.875C58.1667 113.583 56.9583 115.042 55.375 116.25C53.8125 117.438 51.9375 118.323 49.75 118.906L48.0625 119.562H33.9062L33.8438 114.656H44.5312C46.6979 114.656 48.5 114.281 49.9375 113.531C51.375 112.76 52.4583 111.729 53.1875 110.438C53.9167 109.146 54.2812 107.719 54.2812 106.156C54.2812 104.406 53.9375 102.875 53.25 101.562C52.5625 100.25 51.4792 99.2396 50 98.5312C48.5417 97.8021 46.6562 97.4375 44.3438 97.4375H35.3125V138H29.2812V92.5ZM55.875 138L44.8125 117.375L51.0938 117.344L62.3125 137.625V138H55.875ZM66.3125 121.469V120.75C66.3125 118.312 66.6667 116.052 67.375 113.969C68.0833 111.865 69.1042 110.042 70.4375 108.5C71.7708 106.938 73.3854 105.729 75.2812 104.875C77.1771 104 79.3021 103.562 81.6562 103.562C84.0312 103.562 86.1667 104 88.0625 104.875C89.9792 105.729 91.6042 106.938 92.9375 108.5C94.2917 110.042 95.3229 111.865 96.0312 113.969C96.7396 116.052 97.0938 118.312 97.0938 120.75V121.469C97.0938 123.906 96.7396 126.167 96.0312 128.25C95.3229 130.333 94.2917 132.156 92.9375 133.719C91.6042 135.26 89.9896 136.469 88.0938 137.344C86.2188 138.198 84.0938 138.625 81.7188 138.625C79.3438 138.625 77.2083 138.198 75.3125 137.344C73.4167 136.469 71.7917 135.26 70.4375 133.719C69.1042 132.156 68.0833 130.333 67.375 128.25C66.6667 126.167 66.3125 123.906 66.3125 121.469ZM72.0938 120.75V121.469C72.0938 123.156 72.2917 124.75 72.6875 126.25C73.0833 127.729 73.6771 129.042 74.4688 130.188C75.2812 131.333 76.2917 132.24 77.5 132.906C78.7083 133.552 80.1146 133.875 81.7188 133.875C83.3021 133.875 84.6875 133.552 85.875 132.906C87.0833 132.24 88.0833 131.333 88.875 130.188C89.6667 129.042 90.2604 127.729 90.6562 126.25C91.0729 124.75 91.2812 123.156 91.2812 121.469V120.75C91.2812 119.083 91.0729 117.51 90.6562 116.031C90.2604 114.531 89.6562 113.208 88.8438 112.062C88.0521 110.896 87.0521 109.979 85.8438 109.312C84.6562 108.646 83.2604 108.312 81.6562 108.312C80.0729 108.312 78.6771 108.646 77.4688 109.312C76.2812 109.979 75.2812 110.896 74.4688 112.062C73.6771 113.208 73.0833 114.531 72.6875 116.031C72.2917 117.51 72.0938 119.083 72.0938 120.75ZM104.312 90H110.125V131.438L109.625 138H104.312V90ZM132.969 120.812V121.469C132.969 123.927 132.677 126.208 132.094 128.312C131.51 130.396 130.656 132.208 129.531 133.75C128.406 135.292 127.031 136.49 125.406 137.344C123.781 138.198 121.917 138.625 119.812 138.625C117.667 138.625 115.781 138.26 114.156 137.531C112.552 136.781 111.198 135.708 110.094 134.312C108.99 132.917 108.104 131.229 107.438 129.25C106.792 127.271 106.344 125.042 106.094 122.562V119.688C106.344 117.188 106.792 114.948 107.438 112.969C108.104 110.99 108.99 109.302 110.094 107.906C111.198 106.49 112.552 105.417 114.156 104.688C115.76 103.938 117.625 103.562 119.75 103.562C121.875 103.562 123.76 103.979 125.406 104.812C127.052 105.625 128.427 106.792 129.531 108.312C130.656 109.833 131.51 111.656 132.094 113.781C132.677 115.885 132.969 118.229 132.969 120.812ZM127.156 121.469V120.812C127.156 119.125 127 117.542 126.688 116.062C126.375 114.562 125.875 113.25 125.188 112.125C124.5 110.979 123.594 110.083 122.469 109.438C121.344 108.771 119.958 108.438 118.312 108.438C116.854 108.438 115.583 108.688 114.5 109.188C113.438 109.688 112.531 110.365 111.781 111.219C111.031 112.052 110.417 113.01 109.938 114.094C109.479 115.156 109.135 116.26 108.906 117.406V124.938C109.24 126.396 109.781 127.802 110.531 129.156C111.302 130.49 112.323 131.583 113.594 132.438C114.885 133.292 116.479 133.719 118.375 133.719C119.938 133.719 121.271 133.406 122.375 132.781C123.5 132.135 124.406 131.25 125.094 130.125C125.802 129 126.323 127.698 126.656 126.219C126.99 124.74 127.156 123.156 127.156 121.469ZM138.75 121.469V120.75C138.75 118.312 139.104 116.052 139.812 113.969C140.521 111.865 141.542 110.042 142.875 108.5C144.208 106.938 145.823 105.729 147.719 104.875C149.615 104 151.74 103.562 154.094 103.562C156.469 103.562 158.604 104 160.5 104.875C162.417 105.729 164.042 106.938 165.375 108.5C166.729 110.042 167.76 111.865 168.469 113.969C169.177 116.052 169.531 118.312 169.531 120.75V121.469C169.531 123.906 169.177 126.167 168.469 128.25C167.76 130.333 166.729 132.156 165.375 133.719C164.042 135.26 162.427 136.469 160.531 137.344C158.656 138.198 156.531 138.625 154.156 138.625C151.781 138.625 149.646 138.198 147.75 137.344C145.854 136.469 144.229 135.26 142.875 133.719C141.542 132.156 140.521 130.333 139.812 128.25C139.104 126.167 138.75 123.906 138.75 121.469ZM144.531 120.75V121.469C144.531 123.156 144.729 124.75 145.125 126.25C145.521 127.729 146.115 129.042 146.906 130.188C147.719 131.333 148.729 132.24 149.938 132.906C151.146 133.552 152.552 133.875 154.156 133.875C155.74 133.875 157.125 133.552 158.312 132.906C159.521 132.24 160.521 131.333 161.312 130.188C162.104 129.042 162.698 127.729 163.094 126.25C163.51 124.75 163.719 123.156 163.719 121.469V120.75C163.719 119.083 163.51 117.51 163.094 116.031C162.698 114.531 162.094 113.208 161.281 112.062C160.49 110.896 159.49 109.979 158.281 109.312C157.094 108.646 155.698 108.312 154.094 108.312C152.51 108.312 151.115 108.646 149.906 109.312C148.719 109.979 147.719 110.896 146.906 112.062C146.115 113.208 145.521 114.531 145.125 116.031C144.729 117.51 144.531 119.083 144.531 120.75ZM190.938 104.188V108.625H172.656V104.188H190.938ZM178.844 95.9688H184.625V129.625C184.625 130.771 184.802 131.635 185.156 132.219C185.51 132.802 185.969 133.188 186.531 133.375C187.094 133.562 187.698 133.656 188.344 133.656C188.823 133.656 189.323 133.615 189.844 133.531C190.385 133.427 190.792 133.344 191.062 133.281L191.094 138C190.635 138.146 190.031 138.281 189.281 138.406C188.552 138.552 187.667 138.625 186.625 138.625C185.208 138.625 183.906 138.344 182.719 137.781C181.531 137.219 180.583 136.281 179.875 134.969C179.188 133.635 178.844 131.844 178.844 129.594V95.9688ZM195.562 121.469V120.75C195.562 118.312 195.917 116.052 196.625 113.969C197.333 111.865 198.354 110.042 199.688 108.5C201.021 106.938 202.635 105.729 204.531 104.875C206.427 104 208.552 103.562 210.906 103.562C213.281 103.562 215.417 104 217.312 104.875C219.229 105.729 220.854 106.938 222.188 108.5C223.542 110.042 224.573 111.865 225.281 113.969C225.99 116.052 226.344 118.312 226.344 120.75V121.469C226.344 123.906 225.99 126.167 225.281 128.25C224.573 130.333 223.542 132.156 222.188 133.719C220.854 135.26 219.24 136.469 217.344 137.344C215.469 138.198 213.344 138.625 210.969 138.625C208.594 138.625 206.458 138.198 204.562 137.344C202.667 136.469 201.042 135.26 199.688 133.719C198.354 132.156 197.333 130.333 196.625 128.25C195.917 126.167 195.562 123.906 195.562 121.469ZM201.344 120.75V121.469C201.344 123.156 201.542 124.75 201.938 126.25C202.333 127.729 202.927 129.042 203.719 130.188C204.531 131.333 205.542 132.24 206.75 132.906C207.958 133.552 209.365 133.875 210.969 133.875C212.552 133.875 213.938 133.552 215.125 132.906C216.333 132.24 217.333 131.333 218.125 130.188C218.917 129.042 219.51 127.729 219.906 126.25C220.323 124.75 220.531 123.156 220.531 121.469V120.75C220.531 119.083 220.323 117.51 219.906 116.031C219.51 114.531 218.906 113.208 218.094 112.062C217.302 110.896 216.302 109.979 215.094 109.312C213.906 108.646 212.51 108.312 210.906 108.312C209.323 108.312 207.927 108.646 206.719 109.312C205.531 109.979 204.531 110.896 203.719 112.062C202.927 113.208 202.333 114.531 201.938 116.031C201.542 117.51 201.344 119.083 201.344 120.75Z" fill="#101629"/>
<path d="M32.2969 188.449L26.6484 204H24.3398L30.8438 186.938H32.332L32.2969 188.449ZM37.0312 204L31.3711 188.449L31.3359 186.938H32.8242L39.3516 204H37.0312ZM36.7383 197.684V199.535H27.1523V197.684H36.7383ZM48.7852 201.832V195.305C48.7852 194.805 48.6836 194.371 48.4805 194.004C48.2852 193.629 47.9883 193.34 47.5898 193.137C47.1914 192.934 46.6992 192.832 46.1133 192.832C45.5664 192.832 45.0859 192.926 44.6719 193.113C44.2656 193.301 43.9453 193.547 43.7109 193.852C43.4844 194.156 43.3711 194.484 43.3711 194.836H41.2031C41.2031 194.383 41.3203 193.934 41.5547 193.488C41.7891 193.043 42.125 192.641 42.5625 192.281C43.0078 191.914 43.5391 191.625 44.1562 191.414C44.7812 191.195 45.4766 191.086 46.2422 191.086C47.1641 191.086 47.9766 191.242 48.6797 191.555C49.3906 191.867 49.9453 192.34 50.3438 192.973C50.75 193.598 50.9531 194.383 50.9531 195.328V201.234C50.9531 201.656 50.9883 202.105 51.0586 202.582C51.1367 203.059 51.25 203.469 51.3984 203.812V204H49.1367C49.0273 203.75 48.9414 203.418 48.8789 203.004C48.8164 202.582 48.7852 202.191 48.7852 201.832ZM49.1602 196.312L49.1836 197.836H46.9922C46.375 197.836 45.8242 197.887 45.3398 197.988C44.8555 198.082 44.4492 198.227 44.1211 198.422C43.793 198.617 43.543 198.863 43.3711 199.16C43.1992 199.449 43.1133 199.789 43.1133 200.18C43.1133 200.578 43.2031 200.941 43.3828 201.27C43.5625 201.598 43.832 201.859 44.1914 202.055C44.5586 202.242 45.0078 202.336 45.5391 202.336C46.2031 202.336 46.7891 202.195 47.2969 201.914C47.8047 201.633 48.207 201.289 48.5039 200.883C48.8086 200.477 48.9727 200.082 48.9961 199.699L49.9219 200.742C49.8672 201.07 49.7188 201.434 49.4766 201.832C49.2344 202.23 48.9102 202.613 48.5039 202.98C48.1055 203.34 47.6289 203.641 47.0742 203.883C46.5273 204.117 45.9102 204.234 45.2227 204.234C44.3633 204.234 43.6094 204.066 42.9609 203.73C42.3203 203.395 41.8203 202.945 41.4609 202.383C41.1094 201.812 40.9336 201.176 40.9336 200.473C40.9336 199.793 41.0664 199.195 41.332 198.68C41.5977 198.156 41.9805 197.723 42.4805 197.379C42.9805 197.027 43.582 196.762 44.2852 196.582C44.9883 196.402 45.7734 196.312 46.6406 196.312H49.1602ZM60.7734 196.02H56.4492L56.4258 194.203H60.3516C61 194.203 61.5664 194.094 62.0508 193.875C62.5352 193.656 62.9102 193.344 63.1758 192.938C63.4492 192.523 63.5859 192.031 63.5859 191.461C63.5859 190.836 63.4648 190.328 63.2227 189.938C62.9883 189.539 62.625 189.25 62.1328 189.07C61.6484 188.883 61.0312 188.789 60.2812 188.789H56.9531V204H54.6914V186.938H60.2812C61.1562 186.938 61.9375 187.027 62.625 187.207C63.3125 187.379 63.8945 187.652 64.3711 188.027C64.8555 188.395 65.2227 188.863 65.4727 189.434C65.7227 190.004 65.8477 190.688 65.8477 191.484C65.8477 192.188 65.668 192.824 65.3086 193.395C64.9492 193.957 64.4492 194.418 63.8086 194.777C63.1758 195.137 62.4336 195.367 61.582 195.469L60.7734 196.02ZM60.668 204H55.5586L56.8359 202.16H60.668C61.3867 202.16 61.9961 202.035 62.4961 201.785C63.0039 201.535 63.3906 201.184 63.6562 200.73C63.9219 200.27 64.0547 199.727 64.0547 199.102C64.0547 198.469 63.9414 197.922 63.7148 197.461C63.4883 197 63.1328 196.645 62.6484 196.395C62.1641 196.145 61.5391 196.02 60.7734 196.02H57.5508L57.5742 194.203H61.9805L62.4609 194.859C63.2812 194.93 63.9766 195.164 64.5469 195.562C65.1172 195.953 65.5508 196.453 65.8477 197.062C66.1523 197.672 66.3047 198.344 66.3047 199.078C66.3047 200.141 66.0703 201.039 65.6016 201.773C65.1406 202.5 64.4883 203.055 63.6445 203.438C62.8008 203.812 61.8086 204 60.668 204ZM69.3047 186H71.4844V201.539L71.2969 204H69.3047V186ZM80.0508 197.555V197.801C80.0508 198.723 79.9414 199.578 79.7227 200.367C79.5039 201.148 79.1836 201.828 78.7617 202.406C78.3398 202.984 77.8242 203.434 77.2148 203.754C76.6055 204.074 75.9062 204.234 75.1172 204.234C74.3125 204.234 73.6055 204.098 72.9961 203.824C72.3945 203.543 71.8867 203.141 71.4727 202.617C71.0586 202.094 70.7266 201.461 70.4766 200.719C70.2344 199.977 70.0664 199.141 69.9727 198.211V197.133C70.0664 196.195 70.2344 195.355 70.4766 194.613C70.7266 193.871 71.0586 193.238 71.4727 192.715C71.8867 192.184 72.3945 191.781 72.9961 191.508C73.5977 191.227 74.2969 191.086 75.0938 191.086C75.8906 191.086 76.5977 191.242 77.2148 191.555C77.832 191.859 78.3477 192.297 78.7617 192.867C79.1836 193.438 79.5039 194.121 79.7227 194.918C79.9414 195.707 80.0508 196.586 80.0508 197.555ZM77.8711 197.801V197.555C77.8711 196.922 77.8125 196.328 77.6953 195.773C77.5781 195.211 77.3906 194.719 77.1328 194.297C76.875 193.867 76.5352 193.531 76.1133 193.289C75.6914 193.039 75.1719 192.914 74.5547 192.914C74.0078 192.914 73.5312 193.008 73.125 193.195C72.7266 193.383 72.3867 193.637 72.1055 193.957C71.8242 194.27 71.5938 194.629 71.4141 195.035C71.2422 195.434 71.1133 195.848 71.0273 196.277V199.102C71.1523 199.648 71.3555 200.176 71.6367 200.684C71.9258 201.184 72.3086 201.594 72.7852 201.914C73.2695 202.234 73.8672 202.395 74.5781 202.395C75.1641 202.395 75.6641 202.277 76.0781 202.043C76.5 201.801 76.8398 201.469 77.0977 201.047C77.3633 200.625 77.5586 200.137 77.6836 199.582C77.8086 199.027 77.8711 198.434 77.8711 197.801ZM93.4219 198.574H95.6719C95.5547 199.652 95.2461 200.617 94.7461 201.469C94.2461 202.32 93.5391 202.996 92.625 203.496C91.7109 203.988 90.5703 204.234 89.2031 204.234C88.2031 204.234 87.293 204.047 86.4727 203.672C85.6602 203.297 84.9609 202.766 84.375 202.078C83.7891 201.383 83.3359 200.551 83.0156 199.582C82.7031 198.605 82.5469 197.52 82.5469 196.324V194.625C82.5469 193.43 82.7031 192.348 83.0156 191.379C83.3359 190.402 83.793 189.566 84.3867 188.871C84.9883 188.176 85.7109 187.641 86.5547 187.266C87.3984 186.891 88.3477 186.703 89.4023 186.703C90.6914 186.703 91.7812 186.945 92.6719 187.43C93.5625 187.914 94.2539 188.586 94.7461 189.445C95.2461 190.297 95.5547 191.285 95.6719 192.41H93.4219C93.3125 191.613 93.1094 190.93 92.8125 190.359C92.5156 189.781 92.0938 189.336 91.5469 189.023C91 188.711 90.2852 188.555 89.4023 188.555C88.6445 188.555 87.9766 188.699 87.3984 188.988C86.8281 189.277 86.3477 189.688 85.957 190.219C85.5742 190.75 85.2852 191.387 85.0898 192.129C84.8945 192.871 84.7969 193.695 84.7969 194.602V196.324C84.7969 197.16 84.8828 197.945 85.0547 198.68C85.2344 199.414 85.5039 200.059 85.8633 200.613C86.2227 201.168 86.6797 201.605 87.2344 201.926C87.7891 202.238 88.4453 202.395 89.2031 202.395C90.1641 202.395 90.9297 202.242 91.5 201.938C92.0703 201.633 92.5 201.195 92.7891 200.625C93.0859 200.055 93.2969 199.371 93.4219 198.574ZM103.5 202.453C104.016 202.453 104.492 202.348 104.93 202.137C105.367 201.926 105.727 201.637 106.008 201.27C106.289 200.895 106.449 200.469 106.488 199.992H108.551C108.512 200.742 108.258 201.441 107.789 202.09C107.328 202.73 106.723 203.25 105.973 203.648C105.223 204.039 104.398 204.234 103.5 204.234C102.547 204.234 101.715 204.066 101.004 203.73C100.301 203.395 99.7148 202.934 99.2461 202.348C98.7852 201.762 98.4375 201.09 98.2031 200.332C97.9766 199.566 97.8633 198.758 97.8633 197.906V197.414C97.8633 196.562 97.9766 195.758 98.2031 195C98.4375 194.234 98.7852 193.559 99.2461 192.973C99.7148 192.387 100.301 191.926 101.004 191.59C101.715 191.254 102.547 191.086 103.5 191.086C104.492 191.086 105.359 191.289 106.102 191.695C106.844 192.094 107.426 192.641 107.848 193.336C108.277 194.023 108.512 194.805 108.551 195.68H106.488C106.449 195.156 106.301 194.684 106.043 194.262C105.793 193.84 105.449 193.504 105.012 193.254C104.582 192.996 104.078 192.867 103.5 192.867C102.836 192.867 102.277 193 101.824 193.266C101.379 193.523 101.023 193.875 100.758 194.32C100.5 194.758 100.312 195.246 100.195 195.785C100.086 196.316 100.031 196.859 100.031 197.414V197.906C100.031 198.461 100.086 199.008 100.195 199.547C100.305 200.086 100.488 200.574 100.746 201.012C101.012 201.449 101.367 201.801 101.812 202.066C102.266 202.324 102.828 202.453 103.5 202.453ZM115.934 204H112.371L112.395 202.16H115.934C117.152 202.16 118.168 201.906 118.98 201.398C119.793 200.883 120.402 200.164 120.809 199.242C121.223 198.312 121.43 197.227 121.43 195.984V194.941C121.43 193.965 121.312 193.098 121.078 192.34C120.844 191.574 120.5 190.93 120.047 190.406C119.594 189.875 119.039 189.473 118.383 189.199C117.734 188.926 116.988 188.789 116.145 188.789H112.301V186.938H116.145C117.262 186.938 118.281 187.125 119.203 187.5C120.125 187.867 120.918 188.402 121.582 189.105C122.254 189.801 122.77 190.645 123.129 191.637C123.488 192.621 123.668 193.73 123.668 194.965V195.984C123.668 197.219 123.488 198.332 123.129 199.324C122.77 200.309 122.25 201.148 121.57 201.844C120.898 202.539 120.086 203.074 119.133 203.449C118.188 203.816 117.121 204 115.934 204ZM113.578 186.938V204H111.316V186.938H113.578ZM134.73 201.539V186H136.91V204H134.918L134.73 201.539ZM126.199 197.801V197.555C126.199 196.586 126.316 195.707 126.551 194.918C126.793 194.121 127.133 193.438 127.57 192.867C128.016 192.297 128.543 191.859 129.152 191.555C129.77 191.242 130.457 191.086 131.215 191.086C132.012 191.086 132.707 191.227 133.301 191.508C133.902 191.781 134.41 192.184 134.824 192.715C135.246 193.238 135.578 193.871 135.82 194.613C136.062 195.355 136.23 196.195 136.324 197.133V198.211C136.238 199.141 136.07 199.977 135.82 200.719C135.578 201.461 135.246 202.094 134.824 202.617C134.41 203.141 133.902 203.543 133.301 203.824C132.699 204.098 131.996 204.234 131.191 204.234C130.449 204.234 129.77 204.074 129.152 203.754C128.543 203.434 128.016 202.984 127.57 202.406C127.133 201.828 126.793 201.148 126.551 200.367C126.316 199.578 126.199 198.723 126.199 197.801ZM128.379 197.555V197.801C128.379 198.434 128.441 199.027 128.566 199.582C128.699 200.137 128.902 200.625 129.176 201.047C129.449 201.469 129.797 201.801 130.219 202.043C130.641 202.277 131.145 202.395 131.73 202.395C132.449 202.395 133.039 202.242 133.5 201.938C133.969 201.633 134.344 201.23 134.625 200.73C134.906 200.23 135.125 199.688 135.281 199.102V196.277C135.188 195.848 135.051 195.434 134.871 195.035C134.699 194.629 134.473 194.27 134.191 193.957C133.918 193.637 133.578 193.383 133.172 193.195C132.773 193.008 132.301 192.914 131.754 192.914C131.16 192.914 130.648 193.039 130.219 193.289C129.797 193.531 129.449 193.867 129.176 194.297C128.902 194.719 128.699 195.211 128.566 195.773C128.441 196.328 128.379 196.922 128.379 197.555ZM151.453 202.16V204H142.418V202.16H151.453ZM142.875 186.938V204H140.613V186.938H142.875ZM150.258 194.273V196.113H142.418V194.273H150.258ZM151.336 186.938V188.789H142.418V186.938H151.336ZM158.953 204.234C158.07 204.234 157.27 204.086 156.551 203.789C155.84 203.484 155.227 203.059 154.711 202.512C154.203 201.965 153.812 201.316 153.539 200.566C153.266 199.816 153.129 198.996 153.129 198.105V197.613C153.129 196.582 153.281 195.664 153.586 194.859C153.891 194.047 154.305 193.359 154.828 192.797C155.352 192.234 155.945 191.809 156.609 191.52C157.273 191.23 157.961 191.086 158.672 191.086C159.578 191.086 160.359 191.242 161.016 191.555C161.68 191.867 162.223 192.305 162.645 192.867C163.066 193.422 163.379 194.078 163.582 194.836C163.785 195.586 163.887 196.406 163.887 197.297V198.27H154.418V196.5H161.719V196.336C161.688 195.773 161.57 195.227 161.367 194.695C161.172 194.164 160.859 193.727 160.43 193.383C160 193.039 159.414 192.867 158.672 192.867C158.18 192.867 157.727 192.973 157.312 193.184C156.898 193.387 156.543 193.691 156.246 194.098C155.949 194.504 155.719 195 155.555 195.586C155.391 196.172 155.309 196.848 155.309 197.613V198.105C155.309 198.707 155.391 199.273 155.555 199.805C155.727 200.328 155.973 200.789 156.293 201.188C156.621 201.586 157.016 201.898 157.477 202.125C157.945 202.352 158.477 202.465 159.07 202.465C159.836 202.465 160.484 202.309 161.016 201.996C161.547 201.684 162.012 201.266 162.41 200.742L163.723 201.785C163.449 202.199 163.102 202.594 162.68 202.969C162.258 203.344 161.738 203.648 161.121 203.883C160.512 204.117 159.789 204.234 158.953 204.234ZM169.008 186.938V204H166.746V186.938H169.008ZM176.156 194.613V196.465H168.516V194.613H176.156ZM177.316 186.938V188.789H168.516V186.938H177.316ZM182.918 204H180.75V189.984C180.75 189.07 180.914 188.301 181.242 187.676C181.578 187.043 182.059 186.566 182.684 186.246C183.309 185.918 184.051 185.754 184.91 185.754C185.16 185.754 185.41 185.77 185.66 185.801C185.918 185.832 186.168 185.879 186.41 185.941L186.293 187.711C186.129 187.672 185.941 187.645 185.73 187.629C185.527 187.613 185.324 187.605 185.121 187.605C184.66 187.605 184.262 187.699 183.926 187.887C183.598 188.066 183.348 188.332 183.176 188.684C183.004 189.035 182.918 189.469 182.918 189.984V204ZM185.613 191.32V192.984H178.746V191.32H185.613ZM200.965 195.504V201.75C200.754 202.062 200.418 202.414 199.957 202.805C199.496 203.188 198.859 203.523 198.047 203.812C197.242 204.094 196.203 204.234 194.93 204.234C193.891 204.234 192.934 204.055 192.059 203.695C191.191 203.328 190.438 202.797 189.797 202.102C189.164 201.398 188.672 200.547 188.32 199.547C187.977 198.539 187.805 197.398 187.805 196.125V194.801C187.805 193.527 187.953 192.391 188.25 191.391C188.555 190.391 189 189.543 189.586 188.848C190.172 188.145 190.891 187.613 191.742 187.254C192.594 186.887 193.57 186.703 194.672 186.703C195.977 186.703 197.066 186.93 197.941 187.383C198.824 187.828 199.512 188.445 200.004 189.234C200.504 190.023 200.824 190.922 200.965 191.93H198.703C198.602 191.312 198.398 190.75 198.094 190.242C197.797 189.734 197.371 189.328 196.816 189.023C196.262 188.711 195.547 188.555 194.672 188.555C193.883 188.555 193.199 188.699 192.621 188.988C192.043 189.277 191.566 189.691 191.191 190.23C190.816 190.77 190.535 191.422 190.348 192.188C190.168 192.953 190.078 193.816 190.078 194.777V196.125C190.078 197.109 190.191 197.988 190.418 198.762C190.652 199.535 190.984 200.195 191.414 200.742C191.844 201.281 192.355 201.691 192.949 201.973C193.551 202.254 194.215 202.395 194.941 202.395C195.746 202.395 196.398 202.328 196.898 202.195C197.398 202.055 197.789 201.891 198.07 201.703C198.352 201.508 198.566 201.324 198.715 201.152V197.332H194.766V195.504H200.965ZM212.602 191.32H214.57V203.73C214.57 204.848 214.344 205.801 213.891 206.59C213.438 207.379 212.805 207.977 211.992 208.383C211.188 208.797 210.258 209.004 209.203 209.004C208.766 209.004 208.25 208.934 207.656 208.793C207.07 208.66 206.492 208.43 205.922 208.102C205.359 207.781 204.887 207.348 204.504 206.801L205.641 205.512C206.172 206.152 206.727 206.598 207.305 206.848C207.891 207.098 208.469 207.223 209.039 207.223C209.727 207.223 210.32 207.094 210.82 206.836C211.32 206.578 211.707 206.195 211.98 205.688C212.262 205.188 212.402 204.57 212.402 203.836V194.109L212.602 191.32ZM203.871 197.801V197.555C203.871 196.586 203.984 195.707 204.211 194.918C204.445 194.121 204.777 193.438 205.207 192.867C205.645 192.297 206.172 191.859 206.789 191.555C207.406 191.242 208.102 191.086 208.875 191.086C209.672 191.086 210.367 191.227 210.961 191.508C211.562 191.781 212.07 192.184 212.484 192.715C212.906 193.238 213.238 193.871 213.48 194.613C213.723 195.355 213.891 196.195 213.984 197.133V198.211C213.898 199.141 213.73 199.977 213.48 200.719C213.238 201.461 212.906 202.094 212.484 202.617C212.07 203.141 211.562 203.543 210.961 203.824C210.359 204.098 209.656 204.234 208.852 204.234C208.094 204.234 207.406 204.074 206.789 203.754C206.18 203.434 205.656 202.984 205.219 202.406C204.781 201.828 204.445 201.148 204.211 200.367C203.984 199.578 203.871 198.723 203.871 197.801ZM206.039 197.555V197.801C206.039 198.434 206.102 199.027 206.227 199.582C206.359 200.137 206.559 200.625 206.824 201.047C207.098 201.469 207.445 201.801 207.867 202.043C208.289 202.277 208.793 202.395 209.379 202.395C210.098 202.395 210.691 202.242 211.16 201.938C211.629 201.633 212 201.23 212.273 200.73C212.555 200.23 212.773 199.688 212.93 199.102V196.277C212.844 195.848 212.711 195.434 212.531 195.035C212.359 194.629 212.133 194.27 211.852 193.957C211.578 193.637 211.238 193.383 210.832 193.195C210.426 193.008 209.949 192.914 209.402 192.914C208.809 192.914 208.297 193.039 207.867 193.289C207.445 193.531 207.098 193.867 206.824 194.297C206.559 194.719 206.359 195.211 206.227 195.773C206.102 196.328 206.039 196.922 206.039 197.555ZM229.336 194.273V196.113H220.102V194.273H229.336ZM220.453 186.938V204H218.191V186.938H220.453ZM231.305 186.938V204H229.055V186.938H231.305ZM237.164 186V204H234.996V186H237.164ZM236.648 197.18L235.746 197.145C235.754 196.277 235.883 195.477 236.133 194.742C236.383 194 236.734 193.355 237.188 192.809C237.641 192.262 238.18 191.84 238.805 191.543C239.438 191.238 240.137 191.086 240.902 191.086C241.527 191.086 242.09 191.172 242.59 191.344C243.09 191.508 243.516 191.773 243.867 192.141C244.227 192.508 244.5 192.984 244.688 193.57C244.875 194.148 244.969 194.855 244.969 195.691V204H242.789V195.668C242.789 195.004 242.691 194.473 242.496 194.074C242.301 193.668 242.016 193.375 241.641 193.195C241.266 193.008 240.805 192.914 240.258 192.914C239.719 192.914 239.227 193.027 238.781 193.254C238.344 193.48 237.965 193.793 237.645 194.191C237.332 194.59 237.086 195.047 236.906 195.562C236.734 196.07 236.648 196.609 236.648 197.18ZM250.969 186.938V204H248.707V186.938H250.969ZM257.109 191.32V204H254.93V191.32H257.109ZM254.766 187.957C254.766 187.605 254.871 187.309 255.082 187.066C255.301 186.824 255.621 186.703 256.043 186.703C256.457 186.703 256.773 186.824 256.992 187.066C257.219 187.309 257.332 187.605 257.332 187.957C257.332 188.293 257.219 188.582 256.992 188.824C256.773 189.059 256.457 189.176 256.043 189.176C255.621 189.176 255.301 189.059 255.082 188.824C254.871 188.582 254.766 188.293 254.766 187.957ZM268.078 199.02V186.938H270.328V199.02C270.328 200.145 270.098 201.094 269.637 201.867C269.176 202.641 268.539 203.23 267.727 203.637C266.922 204.035 265.996 204.234 264.949 204.234C263.902 204.234 262.973 204.055 262.16 203.695C261.348 203.336 260.711 202.789 260.25 202.055C259.789 201.32 259.559 200.395 259.559 199.277H261.82C261.82 199.996 261.953 200.586 262.219 201.047C262.484 201.508 262.852 201.848 263.32 202.066C263.797 202.285 264.34 202.395 264.949 202.395C265.543 202.395 266.074 202.27 266.543 202.02C267.02 201.762 267.395 201.383 267.668 200.883C267.941 200.375 268.078 199.754 268.078 199.02ZM273.891 191.32H276.07V205.512C276.07 206.285 275.945 206.941 275.695 207.48C275.453 208.02 275.086 208.426 274.594 208.699C274.109 208.98 273.496 209.121 272.754 209.121C272.559 209.121 272.332 209.102 272.074 209.062C271.809 209.023 271.586 208.977 271.406 208.922L271.418 207.176C271.566 207.207 271.734 207.23 271.922 207.246C272.109 207.27 272.273 207.281 272.414 207.281C272.734 207.281 273.004 207.223 273.223 207.105C273.441 206.988 273.605 206.801 273.715 206.543C273.832 206.285 273.891 205.941 273.891 205.512V191.32ZM273.668 187.957C273.668 187.605 273.777 187.309 273.996 187.066C274.215 186.824 274.531 186.703 274.945 186.703C275.367 186.703 275.688 186.824 275.906 187.066C276.125 187.309 276.234 187.605 276.234 187.957C276.234 188.293 276.125 188.582 275.906 188.824C275.688 189.059 275.367 189.176 274.945 189.176C274.531 189.176 274.215 189.059 273.996 188.824C273.777 188.582 273.668 188.293 273.668 187.957ZM282.164 186.938V204H279.902V186.938H282.164ZM292.465 186.938L285.375 194.895L281.391 199.031L281.016 196.617L284.016 193.312L289.746 186.938H292.465ZM290.285 204L283.969 195.68L285.316 193.887L292.98 204H290.285ZM296.824 186V204H294.645V186H296.824ZM304.57 191.32L299.039 197.238L295.945 200.449L295.77 198.141L297.984 195.492L301.922 191.32H304.57ZM302.59 204L298.066 197.953L299.191 196.02L305.145 204H302.59ZM317.484 202.16V204H308.953V202.16H317.484ZM309.398 186.938V204H307.137V186.938H309.398ZM322.102 186V204H319.922V186H322.102ZM326.625 186.938H328.816L334.406 200.848L339.984 186.938H342.188L335.25 204H333.539L326.625 186.938ZM325.91 186.938H327.844L328.16 197.344V204H325.91V186.938ZM340.957 186.938H342.891V204H340.641V197.344L340.957 186.938ZM348.691 193.84V204H346.512V191.32H348.574L348.691 193.84ZM348.246 197.18L347.238 197.145C347.246 196.277 347.359 195.477 347.578 194.742C347.797 194 348.121 193.355 348.551 192.809C348.98 192.262 349.516 191.84 350.156 191.543C350.797 191.238 351.539 191.086 352.383 191.086C352.977 191.086 353.523 191.172 354.023 191.344C354.523 191.508 354.957 191.77 355.324 192.129C355.691 192.488 355.977 192.949 356.18 193.512C356.383 194.074 356.484 194.754 356.484 195.551V204H354.316V195.656C354.316 194.992 354.203 194.461 353.977 194.062C353.758 193.664 353.445 193.375 353.039 193.195C352.633 193.008 352.156 192.914 351.609 192.914C350.969 192.914 350.434 193.027 350.004 193.254C349.574 193.48 349.23 193.793 348.973 194.191C348.715 194.59 348.527 195.047 348.41 195.562C348.301 196.07 348.246 196.609 348.246 197.18ZM356.461 195.984L355.008 196.43C355.016 195.734 355.129 195.066 355.348 194.426C355.574 193.785 355.898 193.215 356.32 192.715C356.75 192.215 357.277 191.82 357.902 191.531C358.527 191.234 359.242 191.086 360.047 191.086C360.727 191.086 361.328 191.176 361.852 191.355C362.383 191.535 362.828 191.812 363.188 192.188C363.555 192.555 363.832 193.027 364.02 193.605C364.207 194.184 364.301 194.871 364.301 195.668V204H362.121V195.645C362.121 194.934 362.008 194.383 361.781 193.992C361.562 193.594 361.25 193.316 360.844 193.16C360.445 192.996 359.969 192.914 359.414 192.914C358.938 192.914 358.516 192.996 358.148 193.16C357.781 193.324 357.473 193.551 357.223 193.84C356.973 194.121 356.781 194.445 356.648 194.812C356.523 195.18 356.461 195.57 356.461 195.984ZM381.035 186.938V204H378.762L370.172 190.84V204H367.91V186.938H370.172L378.797 200.133V186.938H381.035ZM386.883 194.027V204H384.715V191.32H386.766L386.883 194.027ZM386.367 197.18L385.465 197.145C385.473 196.277 385.602 195.477 385.852 194.742C386.102 194 386.453 193.355 386.906 192.809C387.359 192.262 387.898 191.84 388.523 191.543C389.156 191.238 389.855 191.086 390.621 191.086C391.246 191.086 391.809 191.172 392.309 191.344C392.809 191.508 393.234 191.773 393.586 192.141C393.945 192.508 394.219 192.984 394.406 193.57C394.594 194.148 394.688 194.855 394.688 195.691V204H392.508V195.668C392.508 195.004 392.41 194.473 392.215 194.074C392.02 193.668 391.734 193.375 391.359 193.195C390.984 193.008 390.523 192.914 389.977 192.914C389.438 192.914 388.945 193.027 388.5 193.254C388.062 193.48 387.684 193.793 387.363 194.191C387.051 194.59 386.805 195.047 386.625 195.562C386.453 196.07 386.367 196.609 386.367 197.18ZM39.1172 225.93V227.008C39.1172 228.289 38.957 229.438 38.6367 230.453C38.3164 231.469 37.8555 232.332 37.2539 233.043C36.6523 233.754 35.9297 234.297 35.0859 234.672C34.25 235.047 33.3125 235.234 32.2734 235.234C31.2656 235.234 30.3398 235.047 29.4961 234.672C28.6602 234.297 27.9336 233.754 27.3164 233.043C26.707 232.332 26.2344 231.469 25.8984 230.453C25.5625 229.438 25.3945 228.289 25.3945 227.008V225.93C25.3945 224.648 25.5586 223.504 25.8867 222.496C26.2227 221.48 26.6953 220.617 27.3047 219.906C27.9141 219.188 28.6367 218.641 29.4727 218.266C30.3164 217.891 31.2422 217.703 32.25 217.703C33.2891 217.703 34.2266 217.891 35.0625 218.266C35.9062 218.641 36.6289 219.188 37.2305 219.906C37.8398 220.617 38.3047 221.48 38.625 222.496C38.9531 223.504 39.1172 224.648 39.1172 225.93ZM36.8789 227.008V225.906C36.8789 224.891 36.7734 223.992 36.5625 223.211C36.3594 222.43 36.0586 221.773 35.6602 221.242C35.2617 220.711 34.7734 220.309 34.1953 220.035C33.625 219.762 32.9766 219.625 32.25 219.625C31.5469 219.625 30.9102 219.762 30.3398 220.035C29.7773 220.309 29.293 220.711 28.8867 221.242C28.4883 221.773 28.1797 222.43 27.9609 223.211C27.7422 223.992 27.6328 224.891 27.6328 225.906V227.008C27.6328 228.031 27.7422 228.938 27.9609 229.727C28.1797 230.508 28.4922 231.168 28.8984 231.707C29.3125 232.238 29.8008 232.641 30.3633 232.914C30.9336 233.188 31.5703 233.324 32.2734 233.324C33.0078 233.324 33.6602 233.188 34.2305 232.914C34.8008 232.641 35.2812 232.238 35.6719 231.707C36.0703 231.168 36.3711 230.508 36.5742 229.727C36.7773 228.938 36.8789 228.031 36.8789 227.008ZM41.6016 228.801V228.531C41.6016 227.617 41.7344 226.77 42 225.988C42.2656 225.199 42.6484 224.516 43.1484 223.938C43.6484 223.352 44.2539 222.898 44.9648 222.578C45.6758 222.25 46.4727 222.086 47.3555 222.086C48.2461 222.086 49.0469 222.25 49.7578 222.578C50.4766 222.898 51.0859 223.352 51.5859 223.938C52.0938 224.516 52.4805 225.199 52.7461 225.988C53.0117 226.77 53.1445 227.617 53.1445 228.531V228.801C53.1445 229.715 53.0117 230.562 52.7461 231.344C52.4805 232.125 52.0938 232.809 51.5859 233.395C51.0859 233.973 50.4805 234.426 49.7695 234.754C49.0664 235.074 48.2695 235.234 47.3789 235.234C46.4883 235.234 45.6875 235.074 44.9766 234.754C44.2656 234.426 43.6562 233.973 43.1484 233.395C42.6484 232.809 42.2656 232.125 42 231.344C41.7344 230.562 41.6016 229.715 41.6016 228.801ZM43.7695 228.531V228.801C43.7695 229.434 43.8438 230.031 43.9922 230.594C44.1406 231.148 44.3633 231.641 44.6602 232.07C44.9648 232.5 45.3438 232.84 45.7969 233.09C46.25 233.332 46.7773 233.453 47.3789 233.453C47.9727 233.453 48.4922 233.332 48.9375 233.09C49.3906 232.84 49.7656 232.5 50.0625 232.07C50.3594 231.641 50.582 231.148 50.7305 230.594C50.8867 230.031 50.9648 229.434 50.9648 228.801V228.531C50.9648 227.906 50.8867 227.316 50.7305 226.762C50.582 226.199 50.3555 225.703 50.0508 225.273C49.7539 224.836 49.3789 224.492 48.9258 224.242C48.4805 223.992 47.957 223.867 47.3555 223.867C46.7617 223.867 46.2383 223.992 45.7852 224.242C45.3398 224.492 44.9648 224.836 44.6602 225.273C44.3633 225.703 44.1406 226.199 43.9922 226.762C43.8438 227.316 43.7695 227.906 43.7695 228.531ZM62.4844 228.309H57.9258V226.469H62.4844C63.3672 226.469 64.082 226.328 64.6289 226.047C65.1758 225.766 65.5742 225.375 65.8242 224.875C66.082 224.375 66.2109 223.805 66.2109 223.164C66.2109 222.578 66.082 222.027 65.8242 221.512C65.5742 220.996 65.1758 220.582 64.6289 220.27C64.082 219.949 63.3672 219.789 62.4844 219.789H58.4531V235H56.1914V217.938H62.4844C63.7734 217.938 64.8633 218.16 65.7539 218.605C66.6445 219.051 67.3203 219.668 67.7812 220.457C68.2422 221.238 68.4727 222.133 68.4727 223.141C68.4727 224.234 68.2422 225.168 67.7812 225.941C67.3203 226.715 66.6445 227.305 65.7539 227.711C64.8633 228.109 63.7734 228.309 62.4844 228.309ZM73.1719 224.758V239.875H70.9922V222.32H72.9844L73.1719 224.758ZM81.7148 228.555V228.801C81.7148 229.723 81.6055 230.578 81.3867 231.367C81.168 232.148 80.8477 232.828 80.4258 233.406C80.0117 233.984 79.5 234.434 78.8906 234.754C78.2812 235.074 77.582 235.234 76.793 235.234C75.9883 235.234 75.2773 235.102 74.6602 234.836C74.043 234.57 73.5195 234.184 73.0898 233.676C72.6602 233.168 72.3164 232.559 72.0586 231.848C71.8086 231.137 71.6367 230.336 71.543 229.445V228.133C71.6367 227.195 71.8125 226.355 72.0703 225.613C72.3281 224.871 72.668 224.238 73.0898 223.715C73.5195 223.184 74.0391 222.781 74.6484 222.508C75.2578 222.227 75.9609 222.086 76.7578 222.086C77.5547 222.086 78.2617 222.242 78.8789 222.555C79.4961 222.859 80.0156 223.297 80.4375 223.867C80.8594 224.438 81.1758 225.121 81.3867 225.918C81.6055 226.707 81.7148 227.586 81.7148 228.555ZM79.5352 228.801V228.555C79.5352 227.922 79.4688 227.328 79.3359 226.773C79.2031 226.211 78.9961 225.719 78.7148 225.297C78.4414 224.867 78.0898 224.531 77.6602 224.289C77.2305 224.039 76.7188 223.914 76.125 223.914C75.5781 223.914 75.1016 224.008 74.6953 224.195C74.2969 224.383 73.957 224.637 73.6758 224.957C73.3945 225.27 73.1641 225.629 72.9844 226.035C72.8125 226.434 72.6836 226.848 72.5977 227.277V230.312C72.7539 230.859 72.9727 231.375 73.2539 231.859C73.5352 232.336 73.9102 232.723 74.3789 233.02C74.8477 233.309 75.4375 233.453 76.1484 233.453C76.7344 233.453 77.2383 233.332 77.6602 233.09C78.0898 232.84 78.4414 232.5 78.7148 232.07C78.9961 231.641 79.2031 231.148 79.3359 230.594C79.4688 230.031 79.5352 229.434 79.5352 228.801ZM93.5625 233.043L97.8984 236.477L96.375 237.883L92.1094 234.496L93.5625 233.043ZM97.8398 225.93V227.008C97.8398 228.289 97.6797 229.438 97.3594 230.453C97.0391 231.469 96.5781 232.332 95.9766 233.043C95.375 233.754 94.6523 234.297 93.8086 234.672C92.9727 235.047 92.0352 235.234 90.9961 235.234C89.9883 235.234 89.0625 235.047 88.2188 234.672C87.3828 234.297 86.6562 233.754 86.0391 233.043C85.4297 232.332 84.957 231.469 84.6211 230.453C84.2852 229.438 84.1172 228.289 84.1172 227.008V225.93C84.1172 224.648 84.2812 223.504 84.6094 222.496C84.9453 221.48 85.418 220.617 86.0273 219.906C86.6367 219.188 87.3594 218.641 88.1953 218.266C89.0391 217.891 89.9648 217.703 90.9727 217.703C92.0117 217.703 92.9531 217.891 93.7969 218.266C94.6406 218.641 95.3633 219.188 95.9648 219.906C96.5664 220.617 97.0273 221.48 97.3477 222.496C97.6758 223.504 97.8398 224.648 97.8398 225.93ZM95.6016 227.008V225.906C95.6016 224.891 95.4961 223.992 95.2852 223.211C95.082 222.43 94.7812 221.773 94.3828 221.242C93.9844 220.711 93.5 220.309 92.9297 220.035C92.3594 219.762 91.707 219.625 90.9727 219.625C90.2773 219.625 89.6445 219.762 89.0742 220.035C88.5117 220.309 88.0273 220.711 87.6211 221.242C87.2148 221.773 86.9023 222.43 86.6836 223.211C86.4648 223.992 86.3555 224.891 86.3555 225.906V227.008C86.3555 228.031 86.4648 228.938 86.6836 229.727C86.9023 230.508 87.2148 231.168 87.6211 231.707C88.0352 232.238 88.5273 232.641 89.0977 232.914C89.668 233.188 90.3008 233.324 90.9961 233.324C91.7305 233.324 92.3828 233.188 92.9531 232.914C93.5234 232.641 94.0039 232.238 94.3945 231.707C94.793 231.168 95.0938 230.508 95.2969 229.727C95.5 228.938 95.6016 228.031 95.6016 227.008ZM108.984 239.875V224.758L109.172 222.32H111.164V239.875H108.984ZM100.465 228.801V228.555C100.465 227.586 100.578 226.707 100.805 225.918C101.031 225.121 101.363 224.438 101.801 223.867C102.238 223.297 102.766 222.859 103.383 222.555C104.008 222.242 104.719 222.086 105.516 222.086C106.312 222.086 107.012 222.227 107.613 222.508C108.223 222.781 108.738 223.184 109.16 223.715C109.59 224.238 109.93 224.871 110.18 225.613C110.43 226.355 110.602 227.195 110.695 228.133V229.211C110.609 230.141 110.441 230.977 110.191 231.719C109.941 232.461 109.602 233.094 109.172 233.617C108.75 234.141 108.23 234.543 107.613 234.824C107.004 235.098 106.297 235.234 105.492 235.234C104.711 235.234 104.008 235.074 103.383 234.754C102.766 234.434 102.238 233.984 101.801 233.406C101.371 232.828 101.039 232.148 100.805 231.367C100.578 230.578 100.465 229.723 100.465 228.801ZM102.645 228.555V228.801C102.645 229.434 102.711 230.031 102.844 230.594C102.977 231.148 103.18 231.641 103.453 232.07C103.734 232.5 104.086 232.84 104.508 233.09C104.938 233.332 105.445 233.453 106.031 233.453C106.75 233.453 107.348 233.297 107.824 232.984C108.309 232.672 108.695 232.262 108.984 231.754C109.273 231.238 109.496 230.688 109.652 230.102V227.277C109.566 226.848 109.43 226.43 109.242 226.023C109.062 225.617 108.828 225.254 108.539 224.934C108.25 224.605 107.898 224.348 107.484 224.16C107.078 223.965 106.602 223.867 106.055 223.867C105.461 223.867 104.949 223.992 104.52 224.242C104.09 224.492 103.734 224.836 103.453 225.273C103.18 225.703 102.977 226.199 102.844 226.762C102.711 227.324 102.645 227.922 102.645 228.555ZM114.973 217.938H120.621C121.902 217.938 122.984 218.133 123.867 218.523C124.758 218.914 125.434 219.492 125.895 220.258C126.363 221.016 126.598 221.949 126.598 223.059C126.598 223.84 126.438 224.555 126.117 225.203C125.805 225.844 125.352 226.391 124.758 226.844C124.172 227.289 123.469 227.621 122.648 227.84L122.016 228.086H116.707L116.684 226.246H120.691C121.504 226.246 122.18 226.105 122.719 225.824C123.258 225.535 123.664 225.148 123.938 224.664C124.211 224.18 124.348 223.645 124.348 223.059C124.348 222.402 124.219 221.828 123.961 221.336C123.703 220.844 123.297 220.465 122.742 220.199C122.195 219.926 121.488 219.789 120.621 219.789H117.234V235H114.973V217.938ZM124.945 235L120.797 227.266L123.152 227.254L127.359 234.859V235H124.945ZM131.602 224.312V235H129.434V222.32H131.543L131.602 224.312ZM135.562 222.25L135.551 224.266C135.371 224.227 135.199 224.203 135.035 224.195C134.879 224.18 134.699 224.172 134.496 224.172C133.996 224.172 133.555 224.25 133.172 224.406C132.789 224.562 132.465 224.781 132.199 225.062C131.934 225.344 131.723 225.68 131.566 226.07C131.418 226.453 131.32 226.875 131.273 227.336L130.664 227.688C130.664 226.922 130.738 226.203 130.887 225.531C131.043 224.859 131.281 224.266 131.602 223.75C131.922 223.227 132.328 222.82 132.82 222.531C133.32 222.234 133.914 222.086 134.602 222.086C134.758 222.086 134.938 222.105 135.141 222.145C135.344 222.176 135.484 222.211 135.562 222.25ZM146.988 230.688C146.988 230.289 146.926 229.938 146.801 229.633C146.684 229.32 146.473 229.039 146.168 228.789C145.871 228.539 145.457 228.301 144.926 228.074C144.402 227.848 143.738 227.617 142.934 227.383C142.09 227.133 141.328 226.855 140.648 226.551C139.969 226.238 139.387 225.883 138.902 225.484C138.418 225.086 138.047 224.629 137.789 224.113C137.531 223.598 137.402 223.008 137.402 222.344C137.402 221.68 137.539 221.066 137.812 220.504C138.086 219.941 138.477 219.453 138.984 219.039C139.5 218.617 140.113 218.289 140.824 218.055C141.535 217.82 142.328 217.703 143.203 217.703C144.484 217.703 145.57 217.949 146.461 218.441C147.359 218.926 148.043 219.562 148.512 220.352C148.98 221.133 149.215 221.969 149.215 222.859H146.965C146.965 222.219 146.828 221.652 146.555 221.16C146.281 220.66 145.867 220.27 145.312 219.988C144.758 219.699 144.055 219.555 143.203 219.555C142.398 219.555 141.734 219.676 141.211 219.918C140.688 220.16 140.297 220.488 140.039 220.902C139.789 221.316 139.664 221.789 139.664 222.32C139.664 222.68 139.738 223.008 139.887 223.305C140.043 223.594 140.281 223.863 140.602 224.113C140.93 224.363 141.344 224.594 141.844 224.805C142.352 225.016 142.957 225.219 143.66 225.414C144.629 225.688 145.465 225.992 146.168 226.328C146.871 226.664 147.449 227.043 147.902 227.465C148.363 227.879 148.703 228.352 148.922 228.883C149.148 229.406 149.262 230 149.262 230.664C149.262 231.359 149.121 231.988 148.84 232.551C148.559 233.113 148.156 233.594 147.633 233.992C147.109 234.391 146.48 234.699 145.746 234.918C145.02 235.129 144.207 235.234 143.309 235.234C142.52 235.234 141.742 235.125 140.977 234.906C140.219 234.688 139.527 234.359 138.902 233.922C138.285 233.484 137.789 232.945 137.414 232.305C137.047 231.656 136.863 230.906 136.863 230.055H139.113C139.113 230.641 139.227 231.145 139.453 231.566C139.68 231.98 139.988 232.324 140.379 232.598C140.777 232.871 141.227 233.074 141.727 233.207C142.234 233.332 142.762 233.395 143.309 233.395C144.098 233.395 144.766 233.285 145.312 233.066C145.859 232.848 146.273 232.535 146.555 232.129C146.844 231.723 146.988 231.242 146.988 230.688ZM159.199 231.637C159.199 231.324 159.129 231.035 158.988 230.77C158.855 230.496 158.578 230.25 158.156 230.031C157.742 229.805 157.117 229.609 156.281 229.445C155.578 229.297 154.941 229.121 154.371 228.918C153.809 228.715 153.328 228.469 152.93 228.18C152.539 227.891 152.238 227.551 152.027 227.16C151.816 226.77 151.711 226.312 151.711 225.789C151.711 225.289 151.82 224.816 152.039 224.371C152.266 223.926 152.582 223.531 152.988 223.188C153.402 222.844 153.898 222.574 154.477 222.379C155.055 222.184 155.699 222.086 156.41 222.086C157.426 222.086 158.293 222.266 159.012 222.625C159.73 222.984 160.281 223.465 160.664 224.066C161.047 224.66 161.238 225.32 161.238 226.047H159.07C159.07 225.695 158.965 225.355 158.754 225.027C158.551 224.691 158.25 224.414 157.852 224.195C157.461 223.977 156.98 223.867 156.41 223.867C155.809 223.867 155.32 223.961 154.945 224.148C154.578 224.328 154.309 224.559 154.137 224.84C153.973 225.121 153.891 225.418 153.891 225.73C153.891 225.965 153.93 226.176 154.008 226.363C154.094 226.543 154.242 226.711 154.453 226.867C154.664 227.016 154.961 227.156 155.344 227.289C155.727 227.422 156.215 227.555 156.809 227.688C157.848 227.922 158.703 228.203 159.375 228.531C160.047 228.859 160.547 229.262 160.875 229.738C161.203 230.215 161.367 230.793 161.367 231.473C161.367 232.027 161.25 232.535 161.016 232.996C160.789 233.457 160.457 233.855 160.02 234.191C159.59 234.52 159.074 234.777 158.473 234.965C157.879 235.145 157.211 235.234 156.469 235.234C155.352 235.234 154.406 235.035 153.633 234.637C152.859 234.238 152.273 233.723 151.875 233.09C151.477 232.457 151.277 231.789 151.277 231.086H153.457C153.488 231.68 153.66 232.152 153.973 232.504C154.285 232.848 154.668 233.094 155.121 233.242C155.574 233.383 156.023 233.453 156.469 233.453C157.062 233.453 157.559 233.375 157.957 233.219C158.363 233.062 158.672 232.848 158.883 232.574C159.094 232.301 159.199 231.988 159.199 231.637ZM170.848 217.938V235H168.621V217.938H170.848ZM176.332 217.938V219.789H163.148V217.938H176.332ZM183.844 222.32V223.984H176.988V222.32H183.844ZM179.309 219.238H181.477V231.859C181.477 232.289 181.543 232.613 181.676 232.832C181.809 233.051 181.98 233.195 182.191 233.266C182.402 233.336 182.629 233.371 182.871 233.371C183.051 233.371 183.238 233.355 183.434 233.324C183.637 233.285 183.789 233.254 183.891 233.23L183.902 235C183.73 235.055 183.504 235.105 183.223 235.152C182.949 235.207 182.617 235.234 182.227 235.234C181.695 235.234 181.207 235.129 180.762 234.918C180.316 234.707 179.961 234.355 179.695 233.863C179.438 233.363 179.309 232.691 179.309 231.848V219.238ZM196.477 217.938H198.727V229.48C198.727 230.762 198.441 231.828 197.871 232.68C197.301 233.531 196.543 234.172 195.598 234.602C194.66 235.023 193.641 235.234 192.539 235.234C191.383 235.234 190.336 235.023 189.398 234.602C188.469 234.172 187.73 233.531 187.184 232.68C186.645 231.828 186.375 230.762 186.375 229.48V217.938H188.613V229.48C188.613 230.371 188.777 231.105 189.105 231.684C189.434 232.262 189.891 232.691 190.477 232.973C191.07 233.254 191.758 233.395 192.539 233.395C193.328 233.395 194.016 233.254 194.602 232.973C195.195 232.691 195.656 232.262 195.984 231.684C196.312 231.105 196.477 230.371 196.477 229.48V217.938ZM209.707 232.07V222.32H211.887V235H209.812L209.707 232.07ZM210.117 229.398L211.02 229.375C211.02 230.219 210.93 231 210.75 231.719C210.578 232.43 210.297 233.047 209.906 233.57C209.516 234.094 209.004 234.504 208.371 234.801C207.738 235.09 206.969 235.234 206.062 235.234C205.445 235.234 204.879 235.145 204.363 234.965C203.855 234.785 203.418 234.508 203.051 234.133C202.684 233.758 202.398 233.27 202.195 232.668C202 232.066 201.902 231.344 201.902 230.5V222.32H204.07V230.523C204.07 231.094 204.133 231.566 204.258 231.941C204.391 232.309 204.566 232.602 204.785 232.82C205.012 233.031 205.262 233.18 205.535 233.266C205.816 233.352 206.105 233.395 206.402 233.395C207.324 233.395 208.055 233.219 208.594 232.867C209.133 232.508 209.52 232.027 209.754 231.426C209.996 230.816 210.117 230.141 210.117 229.398ZM221.027 232.41L226.055 217.938H228.504L222.188 235H220.441L221.027 232.41ZM216.328 217.938L221.309 232.41L221.93 235H220.184L213.879 217.938H216.328ZM234.188 233.043L237.656 222.32H239.871L235.312 235H233.859L234.188 233.043ZM231.293 222.32L234.867 233.102L235.113 235H233.66L229.066 222.32H231.293ZM246.773 229.844L250.16 217.938H251.801L250.852 222.566L247.207 235H245.578L246.773 229.844ZM243.27 217.938L245.965 229.609L246.773 235H245.156L241.02 217.938H243.27ZM256.184 229.598L258.82 217.938H261.082L256.957 235H255.34L256.184 229.598ZM252.047 217.938L255.34 229.844L256.535 235H254.906L251.391 222.566L250.43 217.938H252.047ZM266.473 232.75L269.73 222.32H271.16L270.879 224.395L267.562 235H266.168L266.473 232.75ZM264.281 222.32L267.059 232.867L267.258 235H265.793L262.113 222.32H264.281ZM274.277 232.785L276.926 222.32H279.082L275.402 235H273.949L274.277 232.785ZM271.477 222.32L274.664 232.574L275.027 235H273.645L270.234 224.371L269.953 222.32H271.477ZM283.102 217.938L287.203 224.477L291.305 217.938H293.941L288.551 226.387L294.07 235H291.41L287.203 228.332L282.996 235H280.336L285.855 226.387L280.465 217.938H283.102ZM297.82 222.32L300.598 226.938L303.41 222.32H305.953L301.805 228.578L306.082 235H303.574L300.645 230.242L297.715 235H295.195L299.461 228.578L295.324 222.32H297.82ZM309.375 217.938L313.805 226.504L318.246 217.938H320.812L314.93 228.625V235H312.668V228.625L306.785 217.938H309.375ZM326.004 233.688L329.531 222.32H331.852L326.766 236.957C326.648 237.27 326.492 237.605 326.297 237.965C326.109 238.332 325.867 238.68 325.57 239.008C325.273 239.336 324.914 239.602 324.492 239.805C324.078 240.016 323.582 240.121 323.004 240.121C322.832 240.121 322.613 240.098 322.348 240.051C322.082 240.004 321.895 239.965 321.785 239.934L321.773 238.176C321.836 238.184 321.934 238.191 322.066 238.199C322.207 238.215 322.305 238.223 322.359 238.223C322.852 238.223 323.27 238.156 323.613 238.023C323.957 237.898 324.246 237.684 324.48 237.379C324.723 237.082 324.93 236.672 325.102 236.148L326.004 233.688ZM323.414 222.32L326.707 232.164L327.27 234.449L325.711 235.246L321.047 222.32H323.414ZM345.586 233.16V235H334.031V233.16H345.586ZM345.211 219.578L334.57 235H333.176V233.312L343.805 217.938H345.211V219.578ZM344.25 217.938V219.789H333.328V217.938H344.25ZM357.645 233.219V235H348.422V233.219H357.645ZM357.305 223.855L348.914 235H347.59V233.406L355.922 222.32H357.305V223.855ZM356.344 222.32V224.113H347.684V222.32H356.344ZM32.543 248.844V266H30.375V251.551L26.0039 253.145V251.188L32.2031 248.844H32.543ZM50.0977 264.219V266H38.9297V264.441L44.5195 258.219C45.207 257.453 45.7383 256.805 46.1133 256.273C46.4961 255.734 46.7617 255.254 46.9102 254.832C47.0664 254.402 47.1445 253.965 47.1445 253.52C47.1445 252.957 47.0273 252.449 46.793 251.996C46.5664 251.535 46.2305 251.168 45.7852 250.895C45.3398 250.621 44.8008 250.484 44.168 250.484C43.4102 250.484 42.7773 250.633 42.2695 250.93C41.7695 251.219 41.3945 251.625 41.1445 252.148C40.8945 252.672 40.7695 253.273 40.7695 253.953H38.6016C38.6016 252.992 38.8125 252.113 39.2344 251.316C39.6562 250.52 40.2812 249.887 41.1094 249.418C41.9375 248.941 42.957 248.703 44.168 248.703C45.2461 248.703 46.168 248.895 46.9336 249.277C47.6992 249.652 48.2852 250.184 48.6914 250.871C49.1055 251.551 49.3125 252.348 49.3125 253.262C49.3125 253.762 49.2266 254.27 49.0547 254.785C48.8906 255.293 48.6602 255.801 48.3633 256.309C48.0742 256.816 47.7344 257.316 47.3438 257.809C46.9609 258.301 46.5508 258.785 46.1133 259.262L41.543 264.219H50.0977ZM55.582 256.402H57.1289C57.8867 256.402 58.5117 256.277 59.0039 256.027C59.5039 255.77 59.875 255.422 60.1172 254.984C60.3672 254.539 60.4922 254.039 60.4922 253.484C60.4922 252.828 60.3828 252.277 60.1641 251.832C59.9453 251.387 59.6172 251.051 59.1797 250.824C58.7422 250.598 58.1875 250.484 57.5156 250.484C56.9062 250.484 56.3672 250.605 55.8984 250.848C55.4375 251.082 55.0742 251.418 54.8086 251.855C54.5508 252.293 54.4219 252.809 54.4219 253.402H52.2539C52.2539 252.535 52.4727 251.746 52.9102 251.035C53.3477 250.324 53.9609 249.758 54.75 249.336C55.5469 248.914 56.4688 248.703 57.5156 248.703C58.5469 248.703 59.4492 248.887 60.2227 249.254C60.9961 249.613 61.5977 250.152 62.0273 250.871C62.457 251.582 62.6719 252.469 62.6719 253.531C62.6719 253.961 62.5703 254.422 62.3672 254.914C62.1719 255.398 61.8633 255.852 61.4414 256.273C61.0273 256.695 60.4883 257.043 59.8242 257.316C59.1602 257.582 58.3633 257.715 57.4336 257.715H55.582V256.402ZM55.582 258.184V256.883H57.4336C58.5195 256.883 59.418 257.012 60.1289 257.27C60.8398 257.527 61.3984 257.871 61.8047 258.301C62.2188 258.73 62.5078 259.203 62.6719 259.719C62.8438 260.227 62.9297 260.734 62.9297 261.242C62.9297 262.039 62.793 262.746 62.5195 263.363C62.2539 263.98 61.875 264.504 61.3828 264.934C60.8984 265.363 60.3281 265.688 59.6719 265.906C59.0156 266.125 58.3008 266.234 57.5273 266.234C56.7852 266.234 56.0859 266.129 55.4297 265.918C54.7812 265.707 54.207 265.402 53.707 265.004C53.207 264.598 52.8164 264.102 52.5352 263.516C52.2539 262.922 52.1133 262.246 52.1133 261.488H54.2812C54.2812 262.082 54.4102 262.602 54.668 263.047C54.9336 263.492 55.3086 263.84 55.793 264.09C56.2852 264.332 56.8633 264.453 57.5273 264.453C58.1914 264.453 58.7617 264.34 59.2383 264.113C59.7227 263.879 60.0938 263.527 60.3516 263.059C60.6172 262.59 60.75 262 60.75 261.289C60.75 260.578 60.6016 259.996 60.3047 259.543C60.0078 259.082 59.5859 258.742 59.0391 258.523C58.5 258.297 57.8633 258.184 57.1289 258.184H55.582ZM77.4492 260.258V262.039H65.1211V260.762L72.7617 248.938H74.5312L72.6328 252.359L67.582 260.258H77.4492ZM75.0703 248.938V266H72.9023V248.938H75.0703ZM82.1602 257.879L80.4258 257.434L81.2812 248.938H90.0352V250.941H83.1211L82.6055 255.582C82.918 255.402 83.3125 255.234 83.7891 255.078C84.2734 254.922 84.8281 254.844 85.4531 254.844C86.2422 254.844 86.9492 254.98 87.5742 255.254C88.1992 255.52 88.7305 255.902 89.168 256.402C89.6133 256.902 89.9531 257.504 90.1875 258.207C90.4219 258.91 90.5391 259.695 90.5391 260.562C90.5391 261.383 90.4258 262.137 90.1992 262.824C89.9805 263.512 89.6484 264.113 89.2031 264.629C88.7578 265.137 88.1953 265.531 87.5156 265.812C86.8438 266.094 86.0508 266.234 85.1367 266.234C84.4492 266.234 83.7969 266.141 83.1797 265.953C82.5703 265.758 82.0234 265.465 81.5391 265.074C81.0625 264.676 80.6719 264.184 80.3672 263.598C80.0703 263.004 79.8828 262.309 79.8047 261.512H81.8672C81.9609 262.152 82.1484 262.691 82.4297 263.129C82.7109 263.566 83.0781 263.898 83.5312 264.125C83.9922 264.344 84.5273 264.453 85.1367 264.453C85.6523 264.453 86.1094 264.363 86.5078 264.184C86.9062 264.004 87.2422 263.746 87.5156 263.41C87.7891 263.074 87.9961 262.668 88.1367 262.191C88.2852 261.715 88.3594 261.18 88.3594 260.586C88.3594 260.047 88.2852 259.547 88.1367 259.086C87.9883 258.625 87.7656 258.223 87.4688 257.879C87.1797 257.535 86.8242 257.27 86.4023 257.082C85.9805 256.887 85.4961 256.789 84.9492 256.789C84.2227 256.789 83.6719 256.887 83.2969 257.082C82.9297 257.277 82.5508 257.543 82.1602 257.879ZM101.238 248.914H101.426V250.754H101.238C100.09 250.754 99.1289 250.941 98.3555 251.316C97.582 251.684 96.9688 252.18 96.5156 252.805C96.0625 253.422 95.7344 254.117 95.5312 254.891C95.3359 255.664 95.2383 256.449 95.2383 257.246V259.754C95.2383 260.512 95.3281 261.184 95.5078 261.77C95.6875 262.348 95.9336 262.836 96.2461 263.234C96.5586 263.633 96.9102 263.934 97.3008 264.137C97.6992 264.34 98.1133 264.441 98.543 264.441C99.043 264.441 99.4883 264.348 99.8789 264.16C100.27 263.965 100.598 263.695 100.863 263.352C101.137 263 101.344 262.586 101.484 262.109C101.625 261.633 101.695 261.109 101.695 260.539C101.695 260.031 101.633 259.543 101.508 259.074C101.383 258.598 101.191 258.176 100.934 257.809C100.676 257.434 100.352 257.141 99.9609 256.93C99.5781 256.711 99.1211 256.602 98.5898 256.602C97.9883 256.602 97.4258 256.75 96.9023 257.047C96.3867 257.336 95.9609 257.719 95.625 258.195C95.2969 258.664 95.1094 259.176 95.0625 259.73L93.9141 259.719C94.0234 258.844 94.2266 258.098 94.5234 257.48C94.8281 256.855 95.2031 256.348 95.6484 255.957C96.1016 255.559 96.6055 255.27 97.1602 255.09C97.7227 254.902 98.3164 254.809 98.9414 254.809C99.793 254.809 100.527 254.969 101.145 255.289C101.762 255.609 102.27 256.039 102.668 256.578C103.066 257.109 103.359 257.711 103.547 258.383C103.742 259.047 103.84 259.73 103.84 260.434C103.84 261.238 103.727 261.992 103.5 262.695C103.273 263.398 102.934 264.016 102.48 264.547C102.035 265.078 101.484 265.492 100.828 265.789C100.172 266.086 99.4102 266.234 98.543 266.234C97.6211 266.234 96.8164 266.047 96.1289 265.672C95.4414 265.289 94.8711 264.781 94.418 264.148C93.9648 263.516 93.625 262.812 93.3984 262.039C93.1719 261.266 93.0586 260.48 93.0586 259.684V258.664C93.0586 257.461 93.1797 256.281 93.4219 255.125C93.6641 253.969 94.082 252.922 94.6758 251.984C95.2773 251.047 96.1094 250.301 97.1719 249.746C98.2344 249.191 99.5898 248.914 101.238 248.914ZM117.445 248.938V250.156L110.379 266H108.094L115.148 250.719H105.914V248.938H117.445ZM130.676 261.383C130.676 262.422 130.434 263.305 129.949 264.031C129.473 264.75 128.824 265.297 128.004 265.672C127.191 266.047 126.273 266.234 125.25 266.234C124.227 266.234 123.305 266.047 122.484 265.672C121.664 265.297 121.016 264.75 120.539 264.031C120.062 263.305 119.824 262.422 119.824 261.383C119.824 260.703 119.953 260.082 120.211 259.52C120.477 258.949 120.848 258.453 121.324 258.031C121.809 257.609 122.379 257.285 123.035 257.059C123.699 256.824 124.43 256.707 125.227 256.707C126.273 256.707 127.207 256.91 128.027 257.316C128.848 257.715 129.492 258.266 129.961 258.969C130.438 259.672 130.676 260.477 130.676 261.383ZM128.496 261.336C128.496 260.703 128.359 260.145 128.086 259.66C127.812 259.168 127.43 258.785 126.938 258.512C126.445 258.238 125.875 258.102 125.227 258.102C124.562 258.102 123.988 258.238 123.504 258.512C123.027 258.785 122.656 259.168 122.391 259.66C122.125 260.145 121.992 260.703 121.992 261.336C121.992 261.992 122.121 262.555 122.379 263.023C122.645 263.484 123.02 263.84 123.504 264.09C123.996 264.332 124.578 264.453 125.25 264.453C125.922 264.453 126.5 264.332 126.984 264.09C127.469 263.84 127.84 263.484 128.098 263.023C128.363 262.555 128.496 261.992 128.496 261.336ZM130.277 253.379C130.277 254.207 130.059 254.953 129.621 255.617C129.184 256.281 128.586 256.805 127.828 257.188C127.07 257.57 126.211 257.762 125.25 257.762C124.273 257.762 123.402 257.57 122.637 257.188C121.879 256.805 121.285 256.281 120.855 255.617C120.426 254.953 120.211 254.207 120.211 253.379C120.211 252.387 120.426 251.543 120.855 250.848C121.293 250.152 121.891 249.621 122.648 249.254C123.406 248.887 124.27 248.703 125.238 248.703C126.215 248.703 127.082 248.887 127.84 249.254C128.598 249.621 129.191 250.152 129.621 250.848C130.059 251.543 130.277 252.387 130.277 253.379ZM128.109 253.414C128.109 252.844 127.988 252.34 127.746 251.902C127.504 251.465 127.168 251.121 126.738 250.871C126.309 250.613 125.809 250.484 125.238 250.484C124.668 250.484 124.168 250.605 123.738 250.848C123.316 251.082 122.984 251.418 122.742 251.855C122.508 252.293 122.391 252.812 122.391 253.414C122.391 254 122.508 254.512 122.742 254.949C122.984 255.387 123.32 255.727 123.75 255.969C124.18 256.211 124.68 256.332 125.25 256.332C125.82 256.332 126.316 256.211 126.738 255.969C127.168 255.727 127.504 255.387 127.746 254.949C127.988 254.512 128.109 254 128.109 253.414ZM135.574 264.184H135.797C137.047 264.184 138.062 264.008 138.844 263.656C139.625 263.305 140.227 262.832 140.648 262.238C141.07 261.645 141.359 260.977 141.516 260.234C141.672 259.484 141.75 258.715 141.75 257.926V255.312C141.75 254.539 141.66 253.852 141.48 253.25C141.309 252.648 141.066 252.145 140.754 251.738C140.449 251.332 140.102 251.023 139.711 250.812C139.32 250.602 138.906 250.496 138.469 250.496C137.969 250.496 137.52 250.598 137.121 250.801C136.73 250.996 136.398 251.273 136.125 251.633C135.859 251.992 135.656 252.414 135.516 252.898C135.375 253.383 135.305 253.91 135.305 254.48C135.305 254.988 135.367 255.48 135.492 255.957C135.617 256.434 135.809 256.863 136.066 257.246C136.324 257.629 136.645 257.934 137.027 258.16C137.418 258.379 137.875 258.488 138.398 258.488C138.883 258.488 139.336 258.395 139.758 258.207C140.188 258.012 140.566 257.75 140.895 257.422C141.23 257.086 141.496 256.707 141.691 256.285C141.895 255.863 142.012 255.422 142.043 254.961H143.074C143.074 255.609 142.945 256.25 142.688 256.883C142.438 257.508 142.086 258.078 141.633 258.594C141.18 259.109 140.648 259.523 140.039 259.836C139.43 260.141 138.766 260.293 138.047 260.293C137.203 260.293 136.473 260.129 135.855 259.801C135.238 259.473 134.73 259.035 134.332 258.488C133.941 257.941 133.648 257.332 133.453 256.66C133.266 255.98 133.172 255.293 133.172 254.598C133.172 253.785 133.285 253.023 133.512 252.312C133.738 251.602 134.074 250.977 134.52 250.438C134.965 249.891 135.516 249.465 136.172 249.16C136.836 248.855 137.602 248.703 138.469 248.703C139.445 248.703 140.277 248.898 140.965 249.289C141.652 249.68 142.211 250.203 142.641 250.859C143.078 251.516 143.398 252.254 143.602 253.074C143.805 253.895 143.906 254.738 143.906 255.605V256.391C143.906 257.273 143.848 258.172 143.73 259.086C143.621 259.992 143.406 260.859 143.086 261.688C142.773 262.516 142.316 263.258 141.715 263.914C141.113 264.562 140.328 265.078 139.359 265.461C138.398 265.836 137.211 266.023 135.797 266.023H135.574V264.184ZM157.629 256.109V258.711C157.629 260.109 157.504 261.289 157.254 262.25C157.004 263.211 156.645 263.984 156.176 264.57C155.707 265.156 155.141 265.582 154.477 265.848C153.82 266.105 153.078 266.234 152.25 266.234C151.594 266.234 150.988 266.152 150.434 265.988C149.879 265.824 149.379 265.562 148.934 265.203C148.496 264.836 148.121 264.359 147.809 263.773C147.496 263.188 147.258 262.477 147.094 261.641C146.93 260.805 146.848 259.828 146.848 258.711V256.109C146.848 254.711 146.973 253.539 147.223 252.594C147.48 251.648 147.844 250.891 148.312 250.32C148.781 249.742 149.344 249.328 150 249.078C150.664 248.828 151.406 248.703 152.227 248.703C152.891 248.703 153.5 248.785 154.055 248.949C154.617 249.105 155.117 249.359 155.555 249.711C155.992 250.055 156.363 250.516 156.668 251.094C156.98 251.664 157.219 252.363 157.383 253.191C157.547 254.02 157.629 254.992 157.629 256.109ZM155.449 259.062V255.746C155.449 254.98 155.402 254.309 155.309 253.73C155.223 253.145 155.094 252.645 154.922 252.23C154.75 251.816 154.531 251.48 154.266 251.223C154.008 250.965 153.707 250.777 153.363 250.66C153.027 250.535 152.648 250.473 152.227 250.473C151.711 250.473 151.254 250.57 150.855 250.766C150.457 250.953 150.121 251.254 149.848 251.668C149.582 252.082 149.379 252.625 149.238 253.297C149.098 253.969 149.027 254.785 149.027 255.746V259.062C149.027 259.828 149.07 260.504 149.156 261.09C149.25 261.676 149.387 262.184 149.566 262.613C149.746 263.035 149.965 263.383 150.223 263.656C150.48 263.93 150.777 264.133 151.113 264.266C151.457 264.391 151.836 264.453 152.25 264.453C152.781 264.453 153.246 264.352 153.645 264.148C154.043 263.945 154.375 263.629 154.641 263.199C154.914 262.762 155.117 262.203 155.25 261.523C155.383 260.836 155.449 260.016 155.449 259.062ZM160.57 259.18V259.062C160.57 257.359 160.762 255.82 161.145 254.445C161.527 253.062 162.016 251.852 162.609 250.812C163.203 249.773 163.828 248.914 164.484 248.234C165.141 247.547 165.746 247.051 166.301 246.746L166.758 248.176C166.297 248.527 165.828 249.012 165.352 249.629C164.883 250.246 164.449 251.004 164.051 251.902C163.66 252.801 163.344 253.844 163.102 255.031C162.859 256.219 162.738 257.555 162.738 259.039V259.203C162.738 260.688 162.859 262.027 163.102 263.223C163.344 264.41 163.66 265.457 164.051 266.363C164.449 267.27 164.883 268.039 165.352 268.672C165.828 269.312 166.297 269.82 166.758 270.195L166.301 271.508C165.746 271.203 165.141 270.707 164.484 270.02C163.828 269.34 163.203 268.48 162.609 267.441C162.016 266.41 161.527 265.203 161.145 263.82C160.762 262.438 160.57 260.891 160.57 259.18ZM173.871 259.062V259.18C173.871 260.891 173.68 262.438 173.297 263.82C172.914 265.203 172.426 266.41 171.832 267.441C171.238 268.48 170.613 269.34 169.957 270.02C169.301 270.707 168.695 271.203 168.141 271.508L167.684 270.195C168.145 269.844 168.609 269.352 169.078 268.719C169.547 268.094 169.98 267.32 170.379 266.398C170.777 265.484 171.098 264.43 171.34 263.234C171.582 262.031 171.703 260.688 171.703 259.203V259.039C171.703 257.555 171.574 256.215 171.316 255.02C171.059 253.816 170.723 252.758 170.309 251.844C169.902 250.93 169.465 250.16 168.996 249.535C168.535 248.902 168.098 248.414 167.684 248.07L168.141 246.746C168.695 247.051 169.301 247.547 169.957 248.234C170.613 248.914 171.238 249.773 171.832 250.812C172.426 251.852 172.914 253.062 173.297 254.445C173.68 255.82 173.871 257.359 173.871 259.062ZM179.824 248.938L179.672 261.184H177.715L177.551 248.938H179.824ZM177.48 264.91C177.48 264.559 177.586 264.262 177.797 264.02C178.016 263.777 178.336 263.656 178.758 263.656C179.172 263.656 179.488 263.777 179.707 264.02C179.934 264.262 180.047 264.559 180.047 264.91C180.047 265.246 179.934 265.535 179.707 265.777C179.488 266.02 179.172 266.141 178.758 266.141C178.336 266.141 178.016 266.02 177.797 265.777C177.586 265.535 177.48 265.246 177.48 264.91ZM202.125 260.105C202.094 260.824 201.984 261.547 201.797 262.273C201.609 262.992 201.328 263.652 200.953 264.254C200.578 264.855 200.09 265.34 199.488 265.707C198.895 266.066 198.176 266.246 197.332 266.246C196.793 266.246 196.32 266.152 195.914 265.965C195.516 265.77 195.188 265.492 194.93 265.133C194.68 264.773 194.504 264.34 194.402 263.832C194.309 263.324 194.293 262.758 194.355 262.133L194.953 255.641H196.676L196.078 262.133C196.031 262.703 196.043 263.168 196.113 263.527C196.191 263.887 196.309 264.164 196.465 264.359C196.621 264.547 196.797 264.676 196.992 264.746C197.195 264.816 197.391 264.852 197.578 264.852C198.047 264.852 198.465 264.73 198.832 264.488C199.199 264.238 199.508 263.898 199.758 263.469C200.016 263.031 200.215 262.527 200.355 261.957C200.496 261.379 200.582 260.762 200.613 260.105C200.668 258.941 200.613 257.871 200.449 256.895C200.293 255.918 200.023 255.051 199.641 254.293C199.266 253.535 198.773 252.895 198.164 252.371C197.555 251.848 196.828 251.449 195.984 251.176C195.141 250.902 194.176 250.766 193.09 250.766C192.105 250.766 191.195 250.918 190.359 251.223C189.531 251.52 188.785 251.949 188.121 252.512C187.465 253.074 186.898 253.75 186.422 254.539C185.953 255.328 185.582 256.219 185.309 257.211C185.043 258.195 184.887 259.258 184.84 260.398C184.785 261.57 184.848 262.648 185.027 263.633C185.207 264.609 185.496 265.48 185.895 266.246C186.301 267.02 186.812 267.672 187.43 268.203C188.047 268.742 188.762 269.148 189.574 269.422C190.387 269.703 191.293 269.844 192.293 269.844C192.98 269.844 193.676 269.762 194.379 269.598C195.09 269.434 195.684 269.211 196.16 268.93L196.605 270.266C196.059 270.617 195.375 270.879 194.555 271.051C193.742 271.223 192.973 271.309 192.246 271.309C191.059 271.309 189.973 271.145 188.988 270.816C188.012 270.496 187.145 270.023 186.387 269.398C185.637 268.781 185.012 268.027 184.512 267.137C184.012 266.254 183.645 265.246 183.41 264.113C183.176 262.98 183.086 261.742 183.141 260.398C183.195 259.117 183.387 257.91 183.715 256.777C184.051 255.645 184.508 254.617 185.086 253.695C185.664 252.773 186.352 251.98 187.148 251.316C187.953 250.645 188.855 250.129 189.855 249.77C190.863 249.41 191.957 249.23 193.137 249.23C194.34 249.23 195.43 249.395 196.406 249.723C197.383 250.051 198.238 250.523 198.973 251.141C199.715 251.758 200.328 252.512 200.812 253.402C201.297 254.293 201.648 255.301 201.867 256.426C202.094 257.551 202.18 258.777 202.125 260.105ZM190.09 261.102C190.035 261.648 190.035 262.137 190.09 262.566C190.145 262.996 190.25 263.359 190.406 263.656C190.562 263.953 190.766 264.18 191.016 264.336C191.273 264.484 191.574 264.559 191.918 264.559C192.145 264.559 192.383 264.504 192.633 264.395C192.883 264.277 193.129 264.098 193.371 263.855C193.613 263.613 193.84 263.297 194.051 262.906C194.262 262.516 194.438 262.047 194.578 261.5L195.352 262.344C195.172 262.984 194.938 263.547 194.648 264.031C194.367 264.516 194.051 264.922 193.699 265.25C193.348 265.578 192.973 265.828 192.574 266C192.184 266.164 191.785 266.246 191.379 266.246C190.809 266.246 190.309 266.125 189.879 265.883C189.449 265.633 189.102 265.281 188.836 264.828C188.57 264.375 188.383 263.836 188.273 263.211C188.172 262.578 188.156 261.875 188.227 261.102C188.297 260.281 188.441 259.523 188.66 258.828C188.879 258.133 189.148 257.512 189.469 256.965C189.797 256.418 190.164 255.953 190.57 255.57C190.984 255.188 191.422 254.898 191.883 254.703C192.344 254.5 192.816 254.398 193.301 254.398C194.145 254.398 194.809 254.523 195.293 254.773C195.777 255.016 196.238 255.305 196.676 255.641L195.68 256.801C195.453 256.582 195.156 256.379 194.789 256.191C194.422 256.004 193.988 255.91 193.488 255.91C193.059 255.91 192.656 256.02 192.281 256.238C191.906 256.457 191.566 256.785 191.262 257.223C190.965 257.66 190.715 258.203 190.512 258.852C190.309 259.492 190.168 260.242 190.09 261.102ZM206.613 266L209.93 248.938H211.617L208.289 266H206.613ZM211.383 266L214.711 248.938H216.387L213.059 266H211.383ZM217.816 255.441H205.629V253.812H217.816V255.441ZM216.938 261.195H204.738V259.578H216.938V261.195ZM226.031 246.172V249.746H224.273V246.172H226.031ZM225.82 265.309V268.438H224.074V265.309H225.82ZM228.164 261.605C228.164 261.137 228.059 260.715 227.848 260.34C227.637 259.965 227.289 259.621 226.805 259.309C226.32 258.996 225.672 258.707 224.859 258.441C223.875 258.137 223.023 257.766 222.305 257.328C221.594 256.891 221.043 256.348 220.652 255.699C220.27 255.051 220.078 254.266 220.078 253.344C220.078 252.383 220.285 251.555 220.699 250.859C221.113 250.164 221.699 249.629 222.457 249.254C223.215 248.879 224.105 248.691 225.129 248.691C225.926 248.691 226.637 248.812 227.262 249.055C227.887 249.289 228.414 249.641 228.844 250.109C229.281 250.578 229.613 251.152 229.84 251.832C230.074 252.512 230.191 253.297 230.191 254.188H228.035C228.035 253.664 227.973 253.184 227.848 252.746C227.723 252.309 227.535 251.93 227.285 251.609C227.035 251.281 226.73 251.031 226.371 250.859C226.012 250.68 225.598 250.59 225.129 250.59C224.473 250.59 223.93 250.703 223.5 250.93C223.078 251.156 222.766 251.477 222.562 251.891C222.359 252.297 222.258 252.77 222.258 253.309C222.258 253.809 222.359 254.246 222.562 254.621C222.766 254.996 223.109 255.336 223.594 255.641C224.086 255.938 224.762 256.23 225.621 256.52C226.629 256.84 227.484 257.219 228.188 257.656C228.891 258.086 229.426 258.617 229.793 259.25C230.16 259.875 230.344 260.652 230.344 261.582C230.344 262.59 230.117 263.441 229.664 264.137C229.211 264.824 228.574 265.348 227.754 265.707C226.934 266.066 225.973 266.246 224.871 266.246C224.207 266.246 223.551 266.156 222.902 265.977C222.254 265.797 221.668 265.504 221.145 265.098C220.621 264.684 220.203 264.141 219.891 263.469C219.578 262.789 219.422 261.957 219.422 260.973H221.602C221.602 261.637 221.695 262.188 221.883 262.625C222.078 263.055 222.336 263.398 222.656 263.656C222.977 263.906 223.328 264.086 223.711 264.195C224.102 264.297 224.488 264.348 224.871 264.348C225.574 264.348 226.168 264.238 226.652 264.02C227.145 263.793 227.52 263.473 227.777 263.059C228.035 262.645 228.164 262.16 228.164 261.605ZM232.863 253.121V252.219C232.863 251.57 233.004 250.98 233.285 250.449C233.566 249.918 233.969 249.492 234.492 249.172C235.016 248.852 235.637 248.691 236.355 248.691C237.09 248.691 237.715 248.852 238.23 249.172C238.754 249.492 239.156 249.918 239.438 250.449C239.719 250.98 239.859 251.57 239.859 252.219V253.121C239.859 253.754 239.719 254.336 239.438 254.867C239.164 255.398 238.766 255.824 238.242 256.145C237.727 256.465 237.105 256.625 236.379 256.625C235.652 256.625 235.023 256.465 234.492 256.145C233.969 255.824 233.566 255.398 233.285 254.867C233.004 254.336 232.863 253.754 232.863 253.121ZM234.492 252.219V253.121C234.492 253.48 234.559 253.82 234.691 254.141C234.832 254.461 235.043 254.723 235.324 254.926C235.605 255.121 235.957 255.219 236.379 255.219C236.801 255.219 237.148 255.121 237.422 254.926C237.695 254.723 237.898 254.461 238.031 254.141C238.164 253.82 238.23 253.48 238.23 253.121V252.219C238.23 251.852 238.16 251.508 238.02 251.188C237.887 250.859 237.68 250.598 237.398 250.402C237.125 250.199 236.777 250.098 236.355 250.098C235.941 250.098 235.594 250.199 235.312 250.402C235.039 250.598 234.832 250.859 234.691 251.188C234.559 251.508 234.492 251.852 234.492 252.219ZM241.172 262.73V261.816C241.172 261.176 241.312 260.59 241.594 260.059C241.875 259.527 242.277 259.102 242.801 258.781C243.324 258.461 243.945 258.301 244.664 258.301C245.398 258.301 246.023 258.461 246.539 258.781C247.062 259.102 247.465 259.527 247.746 260.059C248.027 260.59 248.168 261.176 248.168 261.816V262.73C248.168 263.371 248.027 263.957 247.746 264.488C247.473 265.02 247.074 265.445 246.551 265.766C246.035 266.086 245.414 266.246 244.688 266.246C243.961 266.246 243.336 266.086 242.812 265.766C242.289 265.445 241.883 265.02 241.594 264.488C241.312 263.957 241.172 263.371 241.172 262.73ZM242.801 261.816V262.73C242.801 263.09 242.867 263.434 243 263.762C243.141 264.082 243.352 264.344 243.633 264.547C243.914 264.742 244.266 264.84 244.688 264.84C245.109 264.84 245.457 264.742 245.73 264.547C246.012 264.344 246.219 264.082 246.352 263.762C246.484 263.441 246.551 263.098 246.551 262.73V261.816C246.551 261.449 246.48 261.105 246.34 260.785C246.207 260.465 246 260.207 245.719 260.012C245.445 259.809 245.094 259.707 244.664 259.707C244.25 259.707 243.902 259.809 243.621 260.012C243.348 260.207 243.141 260.465 243 260.785C242.867 261.105 242.801 261.449 242.801 261.816ZM245.203 251.363L236.871 264.699L235.652 263.926L243.984 250.59L245.203 251.363ZM254.355 251.445L251.977 257.457H249.961L253.465 248.938H254.777L254.355 251.445ZM256.441 257.457L254.074 251.445L253.641 248.938H254.965L258.457 257.457H256.441ZM264.047 256.531L266.602 254.715C267.094 254.379 267.473 254.043 267.738 253.707C268.012 253.363 268.148 252.895 268.148 252.301C268.148 251.84 267.969 251.422 267.609 251.047C267.25 250.664 266.742 250.473 266.086 250.473C265.633 250.473 265.25 250.578 264.938 250.789C264.625 251 264.391 251.281 264.234 251.633C264.078 251.977 264 252.355 264 252.77C264 253.121 264.086 253.484 264.258 253.859C264.43 254.234 264.668 254.625 264.973 255.031C265.277 255.438 265.625 255.867 266.016 256.32L274.09 266H271.488L264.867 258.078C264.281 257.391 263.758 256.762 263.297 256.191C262.836 255.613 262.473 255.055 262.207 254.516C261.949 253.977 261.82 253.418 261.82 252.84C261.82 251.949 261.996 251.199 262.348 250.59C262.707 249.973 263.207 249.504 263.848 249.184C264.488 248.863 265.238 248.703 266.098 248.703C266.934 248.703 267.652 248.871 268.254 249.207C268.863 249.535 269.332 249.973 269.66 250.52C269.988 251.059 270.152 251.652 270.152 252.301C270.152 252.848 270.055 253.34 269.859 253.777C269.664 254.207 269.391 254.602 269.039 254.961C268.695 255.32 268.293 255.672 267.832 256.016L264.445 258.535C263.883 258.949 263.473 259.344 263.215 259.719C262.957 260.094 262.789 260.426 262.711 260.715C262.641 261.004 262.605 261.234 262.605 261.406C262.605 261.961 262.727 262.469 262.969 262.93C263.211 263.391 263.578 263.762 264.07 264.043C264.57 264.316 265.195 264.453 265.945 264.453C266.602 264.453 267.238 264.305 267.855 264.008C268.48 263.703 269.039 263.273 269.531 262.719C270.023 262.156 270.414 261.488 270.703 260.715C271 259.934 271.148 259.07 271.148 258.125H273.094C273.094 258.898 273.02 259.629 272.871 260.316C272.723 261.004 272.492 261.645 272.18 262.238C271.875 262.824 271.484 263.359 271.008 263.844C270.938 263.914 270.883 263.996 270.844 264.09C270.805 264.184 270.75 264.266 270.68 264.336C270.094 264.969 269.371 265.445 268.512 265.766C267.66 266.078 266.805 266.234 265.945 266.234C264.812 266.234 263.832 266.027 263.004 265.613C262.184 265.199 261.551 264.629 261.105 263.902C260.66 263.176 260.438 262.344 260.438 261.406C260.438 260.688 260.59 260.055 260.895 259.508C261.207 258.961 261.633 258.449 262.172 257.973C262.719 257.496 263.344 257.016 264.047 256.531ZM275.684 257.703L278.039 254.469L274.5 253.414L275.051 251.656L278.59 252.957L278.484 248.926H280.266L280.148 253.027L283.641 251.727L284.18 253.52L280.582 254.586L282.891 257.762L281.438 258.852L279.27 255.477L277.148 258.77L275.684 257.703Z" fill="#101629"/>
</svg>
