<svg width="576" height="324" viewBox="0 0 576 324" fill="none" xmlns="http://www.w3.org/2000/svg">
<path d="M0 16C0 7.16343 7.16344 0 16 0H560C568.837 0 576 7.16344 576 16V308C576 316.837 568.837 324 560 324H16C7.16345 324 0 316.837 0 308V16Z" fill="#EBEBEB"/>
<path d="M33.8438 36.7051V38.085H26.918V36.7051H33.8438ZM27.1816 31.2031V44H25.4854V31.2031H27.1816ZM35.3203 31.2031V44H33.6328V31.2031H35.3203ZM42.0352 44.1758C41.373 44.1758 40.7725 44.0645 40.2334 43.8418C39.7002 43.6133 39.2402 43.2939 38.8535 42.8838C38.4727 42.4736 38.1797 41.9873 37.9746 41.4248C37.7695 40.8623 37.667 40.2471 37.667 39.5791V39.21C37.667 38.4365 37.7812 37.748 38.0098 37.1445C38.2383 36.5352 38.5488 36.0195 38.9414 35.5977C39.334 35.1758 39.7793 34.8564 40.2773 34.6396C40.7754 34.4229 41.291 34.3145 41.8242 34.3145C42.5039 34.3145 43.0898 34.4316 43.582 34.666C44.0801 34.9004 44.4873 35.2285 44.8037 35.6504C45.1201 36.0664 45.3545 36.5586 45.5068 37.127C45.6592 37.6895 45.7354 38.3047 45.7354 38.9727V39.7021H38.6338V38.375H44.1094V38.252C44.0859 37.8301 43.998 37.4199 43.8457 37.0215C43.6992 36.623 43.4648 36.2949 43.1426 36.0371C42.8203 35.7793 42.3809 35.6504 41.8242 35.6504C41.4551 35.6504 41.1152 35.7295 40.8047 35.8877C40.4941 36.04 40.2275 36.2686 40.0049 36.5732C39.7822 36.8779 39.6094 37.25 39.4863 37.6895C39.3633 38.1289 39.3018 38.6357 39.3018 39.21V39.5791C39.3018 40.0303 39.3633 40.4551 39.4863 40.8535C39.6152 41.2461 39.7998 41.5918 40.04 41.8906C40.2861 42.1895 40.582 42.4238 40.9277 42.5938C41.2793 42.7637 41.6777 42.8486 42.123 42.8486C42.6973 42.8486 43.1836 42.7314 43.582 42.4971C43.9805 42.2627 44.3291 41.9492 44.6279 41.5566L45.6123 42.3389C45.4072 42.6494 45.1465 42.9453 44.8301 43.2266C44.5137 43.5078 44.124 43.7363 43.6611 43.9121C43.2041 44.0879 42.6621 44.1758 42.0352 44.1758ZM53.2412 42.374V37.4785C53.2412 37.1035 53.165 36.7783 53.0127 36.5029C52.8662 36.2217 52.6436 36.0049 52.3447 35.8525C52.0459 35.7002 51.6768 35.624 51.2373 35.624C50.8271 35.624 50.4668 35.6943 50.1562 35.835C49.8516 35.9756 49.6113 36.1602 49.4355 36.3887C49.2656 36.6172 49.1807 36.8633 49.1807 37.127H47.5547C47.5547 36.7871 47.6426 36.4502 47.8184 36.1162C47.9941 35.7822 48.2461 35.4805 48.5742 35.2109C48.9082 34.9355 49.3066 34.7188 49.7695 34.5605C50.2383 34.3965 50.7598 34.3145 51.334 34.3145C52.0254 34.3145 52.6348 34.4316 53.1621 34.666C53.6953 34.9004 54.1113 35.2549 54.4102 35.7295C54.7148 36.1982 54.8672 36.7871 54.8672 37.4961V41.9258C54.8672 42.2422 54.8936 42.5791 54.9463 42.9365C55.0049 43.2939 55.0898 43.6016 55.2012 43.8594V44H53.5049C53.4229 43.8125 53.3584 43.5635 53.3115 43.2529C53.2646 42.9365 53.2412 42.6436 53.2412 42.374ZM53.5225 38.2344L53.54 39.377H51.8965C51.4336 39.377 51.0205 39.415 50.6572 39.4912C50.2939 39.5615 49.9893 39.6699 49.7432 39.8164C49.4971 39.9629 49.3096 40.1475 49.1807 40.3701C49.0518 40.5869 48.9873 40.8418 48.9873 41.1348C48.9873 41.4336 49.0547 41.7061 49.1895 41.9521C49.3242 42.1982 49.5264 42.3945 49.7959 42.541C50.0713 42.6816 50.4082 42.752 50.8066 42.752C51.3047 42.752 51.7441 42.6465 52.125 42.4355C52.5059 42.2246 52.8076 41.9668 53.0303 41.6621C53.2588 41.3574 53.3818 41.0615 53.3994 40.7744L54.0938 41.5566C54.0527 41.8027 53.9414 42.0752 53.7598 42.374C53.5781 42.6729 53.335 42.96 53.0303 43.2354C52.7314 43.5049 52.374 43.7305 51.958 43.9121C51.5479 44.0879 51.085 44.1758 50.5693 44.1758C49.9248 44.1758 49.3594 44.0498 48.873 43.7979C48.3926 43.5459 48.0176 43.209 47.748 42.7871C47.4844 42.3594 47.3525 41.8818 47.3525 41.3545C47.3525 40.8447 47.4521 40.3965 47.6514 40.0098C47.8506 39.6172 48.1377 39.292 48.5127 39.0342C48.8877 38.7705 49.3389 38.5713 49.8662 38.4365C50.3936 38.3018 50.9824 38.2344 51.6328 38.2344H53.5225ZM63.4189 42.1543V30.5H65.0537V44H63.5596L63.4189 42.1543ZM57.0205 39.3506V39.166C57.0205 38.4395 57.1084 37.7803 57.2842 37.1885C57.4658 36.5908 57.7207 36.0781 58.0488 35.6504C58.3828 35.2227 58.7783 34.8945 59.2354 34.666C59.6982 34.4316 60.2139 34.3145 60.7822 34.3145C61.3799 34.3145 61.9014 34.4199 62.3467 34.6309C62.7979 34.8359 63.1787 35.1377 63.4893 35.5361C63.8057 35.9287 64.0547 36.4033 64.2363 36.96C64.418 37.5166 64.5439 38.1465 64.6143 38.8496V39.6582C64.5498 40.3555 64.4238 40.9824 64.2363 41.5391C64.0547 42.0957 63.8057 42.5703 63.4893 42.9629C63.1787 43.3555 62.7979 43.6572 62.3467 43.8682C61.8955 44.0732 61.3682 44.1758 60.7646 44.1758C60.208 44.1758 59.6982 44.0557 59.2354 43.8154C58.7783 43.5752 58.3828 43.2383 58.0488 42.8047C57.7207 42.3711 57.4658 41.8613 57.2842 41.2754C57.1084 40.6836 57.0205 40.042 57.0205 39.3506ZM58.6553 39.166V39.3506C58.6553 39.8252 58.7021 40.2705 58.7959 40.6865C58.8955 41.1025 59.0479 41.4688 59.2529 41.7852C59.458 42.1016 59.7188 42.3506 60.0352 42.5322C60.3516 42.708 60.7295 42.7959 61.1689 42.7959C61.708 42.7959 62.1504 42.6816 62.4961 42.4531C62.8477 42.2246 63.1289 41.9229 63.3398 41.5479C63.5508 41.1729 63.7148 40.7656 63.832 40.3262V38.208C63.7617 37.8857 63.6592 37.5752 63.5244 37.2764C63.3955 36.9717 63.2256 36.7021 63.0146 36.4678C62.8096 36.2275 62.5547 36.0371 62.25 35.8965C61.9512 35.7559 61.5967 35.6855 61.1865 35.6855C60.7412 35.6855 60.3574 35.7793 60.0352 35.9668C59.7188 36.1484 59.458 36.4004 59.2529 36.7227C59.0479 37.0391 58.8955 37.4082 58.7959 37.8301C58.7021 38.2461 58.6553 38.6914 58.6553 39.166ZM69.3516 30.5V44H67.7168V30.5H69.3516ZM73.7285 34.4902V44H72.0938V34.4902H73.7285ZM71.9707 31.9678C71.9707 31.7041 72.0498 31.4814 72.208 31.2998C72.3721 31.1182 72.6123 31.0273 72.9287 31.0273C73.2393 31.0273 73.4766 31.1182 73.6406 31.2998C73.8105 31.4814 73.8955 31.7041 73.8955 31.9678C73.8955 32.2197 73.8105 32.4365 73.6406 32.6182C73.4766 32.7939 73.2393 32.8818 72.9287 32.8818C72.6123 32.8818 72.3721 32.7939 72.208 32.6182C72.0498 32.4365 71.9707 32.2197 71.9707 31.9678ZM77.9648 36.5205V44H76.3389V34.4902H77.877L77.9648 36.5205ZM77.5781 38.8848L76.9014 38.8584C76.9072 38.208 77.0039 37.6074 77.1914 37.0566C77.3789 36.5 77.6426 36.0166 77.9824 35.6064C78.3223 35.1963 78.7266 34.8799 79.1953 34.6572C79.6699 34.4287 80.1943 34.3145 80.7686 34.3145C81.2373 34.3145 81.6592 34.3789 82.0342 34.5078C82.4092 34.6309 82.7285 34.8301 82.9922 35.1055C83.2617 35.3809 83.4668 35.7383 83.6074 36.1777C83.748 36.6113 83.8184 37.1416 83.8184 37.7686V44H82.1836V37.751C82.1836 37.2529 82.1104 36.8545 81.9639 36.5557C81.8174 36.251 81.6035 36.0312 81.3223 35.8965C81.041 35.7559 80.6953 35.6855 80.2852 35.6855C79.8809 35.6855 79.5117 35.7705 79.1777 35.9404C78.8496 36.1104 78.5654 36.3447 78.3252 36.6436C78.0908 36.9424 77.9062 37.2852 77.7715 37.6719C77.6426 38.0527 77.5781 38.457 77.5781 38.8848ZM90.2344 44.1758C89.5723 44.1758 88.9717 44.0645 88.4326 43.8418C87.8994 43.6133 87.4395 43.2939 87.0527 42.8838C86.6719 42.4736 86.3789 41.9873 86.1738 41.4248C85.9688 40.8623 85.8662 40.2471 85.8662 39.5791V39.21C85.8662 38.4365 85.9805 37.748 86.209 37.1445C86.4375 36.5352 86.748 36.0195 87.1406 35.5977C87.5332 35.1758 87.9785 34.8564 88.4766 34.6396C88.9746 34.4229 89.4902 34.3145 90.0234 34.3145C90.7031 34.3145 91.2891 34.4316 91.7812 34.666C92.2793 34.9004 92.6865 35.2285 93.0029 35.6504C93.3193 36.0664 93.5537 36.5586 93.7061 37.127C93.8584 37.6895 93.9346 38.3047 93.9346 38.9727V39.7021H86.833V38.375H92.3086V38.252C92.2852 37.8301 92.1973 37.4199 92.0449 37.0215C91.8984 36.623 91.6641 36.2949 91.3418 36.0371C91.0195 35.7793 90.5801 35.6504 90.0234 35.6504C89.6543 35.6504 89.3145 35.7295 89.0039 35.8877C88.6934 36.04 88.4268 36.2686 88.2041 36.5732C87.9814 36.8779 87.8086 37.25 87.6855 37.6895C87.5625 38.1289 87.501 38.6357 87.501 39.21V39.5791C87.501 40.0303 87.5625 40.4551 87.6855 40.8535C87.8145 41.2461 87.999 41.5918 88.2393 41.8906C88.4854 42.1895 88.7812 42.4238 89.127 42.5938C89.4785 42.7637 89.877 42.8486 90.3223 42.8486C90.8965 42.8486 91.3828 42.7314 91.7812 42.4971C92.1797 42.2627 92.5283 41.9492 92.8271 41.5566L93.8115 42.3389C93.6064 42.6494 93.3457 42.9453 93.0293 43.2266C92.7129 43.5078 92.3232 43.7363 91.8604 43.9121C91.4033 44.0879 90.8613 44.1758 90.2344 44.1758ZM104.921 31.2031V44H103.251V31.2031H104.921ZM109.034 31.2031V32.5918H99.1465V31.2031H109.034ZM112.726 43.0156L115.371 34.4902H117.111L113.297 45.4678C113.209 45.7021 113.092 45.9541 112.945 46.2236C112.805 46.499 112.623 46.7598 112.4 47.0059C112.178 47.252 111.908 47.4512 111.592 47.6035C111.281 47.7617 110.909 47.8408 110.476 47.8408C110.347 47.8408 110.183 47.8232 109.983 47.7881C109.784 47.7529 109.644 47.7236 109.562 47.7002L109.553 46.3818C109.6 46.3877 109.673 46.3936 109.772 46.3994C109.878 46.4111 109.951 46.417 109.992 46.417C110.361 46.417 110.675 46.3672 110.933 46.2676C111.19 46.1738 111.407 46.0127 111.583 45.7842C111.765 45.5615 111.92 45.2539 112.049 44.8613L112.726 43.0156ZM110.783 34.4902L113.253 41.873L113.675 43.5869L112.506 44.1846L109.008 34.4902H110.783ZM120.205 36.3184V47.6562H118.57V34.4902H120.064L120.205 36.3184ZM126.612 39.166V39.3506C126.612 40.042 126.53 40.6836 126.366 41.2754C126.202 41.8613 125.962 42.3711 125.646 42.8047C125.335 43.2383 124.951 43.5752 124.494 43.8154C124.037 44.0557 123.513 44.1758 122.921 44.1758C122.317 44.1758 121.784 44.0762 121.321 43.877C120.858 43.6777 120.466 43.3877 120.144 43.0068C119.821 42.626 119.563 42.1689 119.37 41.6357C119.183 41.1025 119.054 40.502 118.983 39.834V38.8496C119.054 38.1465 119.186 37.5166 119.379 36.96C119.572 36.4033 119.827 35.9287 120.144 35.5361C120.466 35.1377 120.855 34.8359 121.312 34.6309C121.77 34.4199 122.297 34.3145 122.895 34.3145C123.492 34.3145 124.022 34.4316 124.485 34.666C124.948 34.8945 125.338 35.2227 125.654 35.6504C125.971 36.0781 126.208 36.5908 126.366 37.1885C126.53 37.7803 126.612 38.4395 126.612 39.166ZM124.978 39.3506V39.166C124.978 38.6914 124.928 38.2461 124.828 37.8301C124.729 37.4082 124.573 37.0391 124.362 36.7227C124.157 36.4004 123.894 36.1484 123.571 35.9668C123.249 35.7793 122.865 35.6855 122.42 35.6855C122.01 35.6855 121.652 35.7559 121.348 35.8965C121.049 36.0371 120.794 36.2275 120.583 36.4678C120.372 36.7021 120.199 36.9717 120.064 37.2764C119.936 37.5752 119.839 37.8857 119.774 38.208V40.4844C119.892 40.8945 120.056 41.2812 120.267 41.6445C120.478 42.002 120.759 42.292 121.11 42.5146C121.462 42.7314 121.904 42.8398 122.438 42.8398C122.877 42.8398 123.255 42.749 123.571 42.5674C123.894 42.3799 124.157 42.125 124.362 41.8027C124.573 41.4805 124.729 41.1113 124.828 40.6953C124.928 40.2734 124.978 39.8252 124.978 39.3506ZM132.633 44.1758C131.971 44.1758 131.37 44.0645 130.831 43.8418C130.298 43.6133 129.838 43.2939 129.451 42.8838C129.07 42.4736 128.777 41.9873 128.572 41.4248C128.367 40.8623 128.265 40.2471 128.265 39.5791V39.21C128.265 38.4365 128.379 37.748 128.607 37.1445C128.836 36.5352 129.146 36.0195 129.539 35.5977C129.932 35.1758 130.377 34.8564 130.875 34.6396C131.373 34.4229 131.889 34.3145 132.422 34.3145C133.102 34.3145 133.688 34.4316 134.18 34.666C134.678 34.9004 135.085 35.2285 135.401 35.6504C135.718 36.0664 135.952 36.5586 136.104 37.127C136.257 37.6895 136.333 38.3047 136.333 38.9727V39.7021H129.231V38.375H134.707V38.252C134.684 37.8301 134.596 37.4199 134.443 37.0215C134.297 36.623 134.062 36.2949 133.74 36.0371C133.418 35.7793 132.979 35.6504 132.422 35.6504C132.053 35.6504 131.713 35.7295 131.402 35.8877C131.092 36.04 130.825 36.2686 130.603 36.5732C130.38 36.8779 130.207 37.25 130.084 37.6895C129.961 38.1289 129.899 38.6357 129.899 39.21V39.5791C129.899 40.0303 129.961 40.4551 130.084 40.8535C130.213 41.2461 130.397 41.5918 130.638 41.8906C130.884 42.1895 131.18 42.4238 131.525 42.5938C131.877 42.7637 132.275 42.8486 132.721 42.8486C133.295 42.8486 133.781 42.7314 134.18 42.4971C134.578 42.2627 134.927 41.9492 135.226 41.5566L136.21 42.3389C136.005 42.6494 135.744 42.9453 135.428 43.2266C135.111 43.5078 134.722 43.7363 134.259 43.9121C133.802 44.0879 133.26 44.1758 132.633 44.1758ZM140.657 44H139.031V33.4883C139.031 32.8027 139.154 32.2256 139.4 31.7568C139.652 31.2822 140.013 30.9248 140.481 30.6846C140.95 30.4385 141.507 30.3154 142.151 30.3154C142.339 30.3154 142.526 30.3271 142.714 30.3506C142.907 30.374 143.095 30.4092 143.276 30.4561L143.188 31.7832C143.065 31.7539 142.925 31.7334 142.767 31.7217C142.614 31.71 142.462 31.7041 142.31 31.7041C141.964 31.7041 141.665 31.7744 141.413 31.915C141.167 32.0498 140.979 32.249 140.851 32.5127C140.722 32.7764 140.657 33.1016 140.657 33.4883V44ZM142.679 34.4902V35.7383H137.528V34.4902H142.679ZM150.097 42.374V37.4785C150.097 37.1035 150.021 36.7783 149.868 36.5029C149.722 36.2217 149.499 36.0049 149.2 35.8525C148.901 35.7002 148.532 35.624 148.093 35.624C147.683 35.624 147.322 35.6943 147.012 35.835C146.707 35.9756 146.467 36.1602 146.291 36.3887C146.121 36.6172 146.036 36.8633 146.036 37.127H144.41C144.41 36.7871 144.498 36.4502 144.674 36.1162C144.85 35.7822 145.102 35.4805 145.43 35.2109C145.764 34.9355 146.162 34.7188 146.625 34.5605C147.094 34.3965 147.615 34.3145 148.189 34.3145C148.881 34.3145 149.49 34.4316 150.018 34.666C150.551 34.9004 150.967 35.2549 151.266 35.7295C151.57 36.1982 151.723 36.7871 151.723 37.4961V41.9258C151.723 42.2422 151.749 42.5791 151.802 42.9365C151.86 43.2939 151.945 43.6016 152.057 43.8594V44H150.36C150.278 43.8125 150.214 43.5635 150.167 43.2529C150.12 42.9365 150.097 42.6436 150.097 42.374ZM150.378 38.2344L150.396 39.377H148.752C148.289 39.377 147.876 39.415 147.513 39.4912C147.149 39.5615 146.845 39.6699 146.599 39.8164C146.353 39.9629 146.165 40.1475 146.036 40.3701C145.907 40.5869 145.843 40.8418 145.843 41.1348C145.843 41.4336 145.91 41.7061 146.045 41.9521C146.18 42.1982 146.382 42.3945 146.651 42.541C146.927 42.6816 147.264 42.752 147.662 42.752C148.16 42.752 148.6 42.6465 148.98 42.4355C149.361 42.2246 149.663 41.9668 149.886 41.6621C150.114 41.3574 150.237 41.0615 150.255 40.7744L150.949 41.5566C150.908 41.8027 150.797 42.0752 150.615 42.374C150.434 42.6729 150.19 42.96 149.886 43.2354C149.587 43.5049 149.229 43.7305 148.813 43.9121C148.403 44.0879 147.94 44.1758 147.425 44.1758C146.78 44.1758 146.215 44.0498 145.729 43.7979C145.248 43.5459 144.873 43.209 144.604 42.7871C144.34 42.3594 144.208 41.8818 144.208 41.3545C144.208 40.8447 144.308 40.3965 144.507 40.0098C144.706 39.6172 144.993 39.292 145.368 39.0342C145.743 38.7705 146.194 38.5713 146.722 38.4365C147.249 38.3018 147.838 38.2344 148.488 38.2344H150.378ZM158.086 42.8398C158.473 42.8398 158.83 42.7607 159.158 42.6025C159.486 42.4443 159.756 42.2275 159.967 41.9521C160.178 41.6709 160.298 41.3516 160.327 40.9941H161.874C161.845 41.5566 161.654 42.0811 161.303 42.5674C160.957 43.0479 160.503 43.4375 159.94 43.7363C159.378 44.0293 158.76 44.1758 158.086 44.1758C157.371 44.1758 156.747 44.0498 156.214 43.7979C155.687 43.5459 155.247 43.2002 154.896 42.7607C154.55 42.3213 154.289 41.8174 154.113 41.249C153.943 40.6748 153.858 40.0684 153.858 39.4297V39.0605C153.858 38.4219 153.943 37.8184 154.113 37.25C154.289 36.6758 154.55 36.1689 154.896 35.7295C155.247 35.29 155.687 34.9443 156.214 34.6924C156.747 34.4404 157.371 34.3145 158.086 34.3145C158.83 34.3145 159.48 34.4668 160.037 34.7715C160.594 35.0703 161.03 35.4805 161.347 36.002C161.669 36.5176 161.845 37.1035 161.874 37.7598H160.327C160.298 37.3672 160.187 37.0127 159.993 36.6963C159.806 36.3799 159.548 36.1279 159.22 35.9404C158.897 35.7471 158.52 35.6504 158.086 35.6504C157.588 35.6504 157.169 35.75 156.829 35.9492C156.495 36.1426 156.229 36.4062 156.029 36.7402C155.836 37.0684 155.695 37.4346 155.607 37.8389C155.525 38.2373 155.484 38.6445 155.484 39.0605V39.4297C155.484 39.8457 155.525 40.2559 155.607 40.6602C155.689 41.0645 155.827 41.4307 156.021 41.7588C156.22 42.0869 156.486 42.3506 156.82 42.5498C157.16 42.7432 157.582 42.8398 158.086 42.8398ZM167.648 44.1758C166.986 44.1758 166.386 44.0645 165.847 43.8418C165.313 43.6133 164.854 43.2939 164.467 42.8838C164.086 42.4736 163.793 41.9873 163.588 41.4248C163.383 40.8623 163.28 40.2471 163.28 39.5791V39.21C163.28 38.4365 163.395 37.748 163.623 37.1445C163.852 36.5352 164.162 36.0195 164.555 35.5977C164.947 35.1758 165.393 34.8564 165.891 34.6396C166.389 34.4229 166.904 34.3145 167.438 34.3145C168.117 34.3145 168.703 34.4316 169.195 34.666C169.693 34.9004 170.101 35.2285 170.417 35.6504C170.733 36.0664 170.968 36.5586 171.12 37.127C171.272 37.6895 171.349 38.3047 171.349 38.9727V39.7021H164.247V38.375H169.723V38.252C169.699 37.8301 169.611 37.4199 169.459 37.0215C169.312 36.623 169.078 36.2949 168.756 36.0371C168.434 35.7793 167.994 35.6504 167.438 35.6504C167.068 35.6504 166.729 35.7295 166.418 35.8877C166.107 36.04 165.841 36.2686 165.618 36.5732C165.396 36.8779 165.223 37.25 165.1 37.6895C164.977 38.1289 164.915 38.6357 164.915 39.21V39.5791C164.915 40.0303 164.977 40.4551 165.1 40.8535C165.229 41.2461 165.413 41.5918 165.653 41.8906C165.899 42.1895 166.195 42.4238 166.541 42.5938C166.893 42.7637 167.291 42.8486 167.736 42.8486C168.311 42.8486 168.797 42.7314 169.195 42.4971C169.594 42.2627 169.942 41.9492 170.241 41.5566L171.226 42.3389C171.021 42.6494 170.76 42.9453 170.443 43.2266C170.127 43.5078 169.737 43.7363 169.274 43.9121C168.817 44.0879 168.275 44.1758 167.648 44.1758Z" fill="#101629"/>
<path d="M60.992 107.152C60.992 109.541 60.416 111.781 59.264 113.872C58.1547 115.963 56.384 117.648 53.952 118.928C51.5627 120.208 48.5333 120.848 44.864 120.848H37.376V138H28.416V93.328H44.864C48.32 93.328 51.264 93.9253 53.696 95.12C56.128 96.3147 57.9413 97.9573 59.136 100.048C60.3733 102.139 60.992 104.507 60.992 107.152ZM44.48 113.616C46.9547 113.616 48.7893 113.061 49.984 111.952C51.1787 110.8 51.776 109.2 51.776 107.152C51.776 102.8 49.344 100.624 44.48 100.624H37.376V113.616H44.48ZM83.0975 138.576C79.6842 138.576 76.6122 137.829 73.8815 136.336C71.1508 134.8 68.9962 132.645 67.4175 129.872C65.8815 127.099 65.1135 123.899 65.1135 120.272C65.1135 116.645 65.9028 113.445 67.4815 110.672C69.1028 107.899 71.3002 105.765 74.0735 104.272C76.8468 102.736 79.9402 101.968 83.3535 101.968C86.7668 101.968 89.8602 102.736 92.6335 104.272C95.4068 105.765 97.5828 107.899 99.1615 110.672C100.783 113.445 101.594 116.645 101.594 120.272C101.594 123.899 100.762 127.099 99.0975 129.872C97.4762 132.645 95.2575 134.8 92.4415 136.336C89.6682 137.829 86.5535 138.576 83.0975 138.576ZM83.0975 130.768C84.7188 130.768 86.2335 130.384 87.6415 129.616C89.0922 128.805 90.2442 127.611 91.0975 126.032C91.9508 124.453 92.3775 122.533 92.3775 120.272C92.3775 116.901 91.4815 114.32 89.6895 112.528C87.9402 110.693 85.7855 109.776 83.2255 109.776C80.6655 109.776 78.5108 110.693 76.7615 112.528C75.0548 114.32 74.2015 116.901 74.2015 120.272C74.2015 123.643 75.0335 126.245 76.6975 128.08C78.4042 129.872 80.5375 130.768 83.0975 130.768ZM117.126 107.664C118.278 106.043 119.857 104.699 121.862 103.632C123.91 102.523 126.235 101.968 128.838 101.968C131.867 101.968 134.598 102.715 137.03 104.208C139.505 105.701 141.446 107.835 142.854 110.608C144.305 113.339 145.03 116.517 145.03 120.144C145.03 123.771 144.305 126.992 142.854 129.808C141.446 132.581 139.505 134.736 137.03 136.272C134.598 137.808 131.867 138.576 128.838 138.576C126.235 138.576 123.931 138.043 121.926 136.976C119.963 135.909 118.363 134.565 117.126 132.944V154.896H108.166V102.544H117.126V107.664ZM135.878 120.144C135.878 118.011 135.43 116.176 134.534 114.64C133.681 113.061 132.529 111.867 131.078 111.056C129.67 110.245 128.134 109.84 126.47 109.84C124.849 109.84 123.313 110.267 121.862 111.12C120.454 111.931 119.302 113.125 118.406 114.704C117.553 116.283 117.126 118.139 117.126 120.272C117.126 122.405 117.553 124.261 118.406 125.84C119.302 127.419 120.454 128.635 121.862 129.488C123.313 130.299 124.849 130.704 126.47 130.704C128.134 130.704 129.67 130.277 131.078 129.424C132.529 128.571 133.681 127.355 134.534 125.776C135.43 124.197 135.878 122.32 135.878 120.144ZM160.501 107.664C161.653 106.043 163.232 104.699 165.237 103.632C167.285 102.523 169.61 101.968 172.213 101.968C175.242 101.968 177.973 102.715 180.405 104.208C182.88 105.701 184.821 107.835 186.229 110.608C187.68 113.339 188.405 116.517 188.405 120.144C188.405 123.771 187.68 126.992 186.229 129.808C184.821 132.581 182.88 134.736 180.405 136.272C177.973 137.808 175.242 138.576 172.213 138.576C169.61 138.576 167.306 138.043 165.301 136.976C163.338 135.909 161.738 134.565 160.501 132.944V154.896H151.541V102.544H160.501V107.664ZM179.253 120.144C179.253 118.011 178.805 116.176 177.909 114.64C177.056 113.061 175.904 111.867 174.453 111.056C173.045 110.245 171.509 109.84 169.845 109.84C168.224 109.84 166.688 110.267 165.237 111.12C163.829 111.931 162.677 113.125 161.781 114.704C160.928 116.283 160.501 118.139 160.501 120.272C160.501 122.405 160.928 124.261 161.781 125.84C162.677 127.419 163.829 128.635 165.237 129.488C166.688 130.299 168.224 130.704 169.845 130.704C171.509 130.704 173.045 130.277 174.453 129.424C175.904 128.571 177.056 127.355 177.909 125.776C178.805 124.197 179.253 122.32 179.253 120.144ZM199.46 98.32C197.881 98.32 196.559 97.8293 195.492 96.848C194.468 95.824 193.956 94.5653 193.956 93.072C193.956 91.5787 194.468 90.3413 195.492 89.36C196.559 88.336 197.881 87.824 199.46 87.824C201.039 87.824 202.34 88.336 203.364 89.36C204.431 90.3413 204.964 91.5787 204.964 93.072C204.964 94.5653 204.431 95.824 203.364 96.848C202.34 97.8293 201.039 98.32 199.46 98.32ZM203.876 102.544V138H194.916V102.544H203.876ZM232.377 102.032C236.601 102.032 240.014 103.376 242.617 106.064C245.219 108.709 246.521 112.421 246.521 117.2V138H237.561V118.416C237.561 115.6 236.857 113.445 235.449 111.952C234.041 110.416 232.121 109.648 229.689 109.648C227.214 109.648 225.251 110.416 223.801 111.952C222.393 113.445 221.689 115.6 221.689 118.416V138H212.729V102.544H221.689V106.96C222.883 105.424 224.398 104.229 226.233 103.376C228.11 102.48 230.158 102.032 232.377 102.032ZM268.609 138.576C265.708 138.576 263.105 138.064 260.801 137.04C258.497 135.973 256.662 134.544 255.297 132.752C253.974 130.96 253.249 128.976 253.121 126.8H262.145C262.316 128.165 262.977 129.296 264.129 130.192C265.324 131.088 266.796 131.536 268.545 131.536C270.252 131.536 271.574 131.195 272.513 130.512C273.494 129.829 273.985 128.955 273.985 127.888C273.985 126.736 273.388 125.883 272.193 125.328C271.041 124.731 269.185 124.091 266.625 123.408C263.98 122.768 261.804 122.107 260.097 121.424C258.433 120.741 256.982 119.696 255.745 118.288C254.55 116.88 253.953 114.981 253.953 112.592C253.953 110.629 254.508 108.837 255.617 107.216C256.769 105.595 258.39 104.315 260.481 103.376C262.614 102.437 265.11 101.968 267.969 101.968C272.193 101.968 275.564 103.035 278.081 105.168C280.598 107.259 281.985 110.096 282.241 113.68H273.665C273.537 112.272 272.94 111.163 271.873 110.352C270.849 109.499 269.462 109.072 267.713 109.072C266.092 109.072 264.833 109.371 263.937 109.968C263.084 110.565 262.657 111.397 262.657 112.464C262.657 113.659 263.254 114.576 264.449 115.216C265.644 115.813 267.5 116.432 270.017 117.072C272.577 117.712 274.689 118.373 276.353 119.056C278.017 119.739 279.446 120.805 280.641 122.256C281.878 123.664 282.518 125.541 282.561 127.888C282.561 129.936 281.985 131.771 280.833 133.392C279.724 135.013 278.102 136.293 275.969 137.232C273.878 138.128 271.425 138.576 268.609 138.576Z" fill="#101629"/>
<path d="M35.928 200.808H29.256L28.152 204H24.624L30.648 187.224H34.56L40.584 204H37.032L35.928 200.808ZM35.016 198.12L32.592 191.112L30.168 198.12H35.016ZM41.9717 197.304C41.9717 195.96 42.2357 194.768 42.7637 193.728C43.3077 192.688 44.0357 191.888 44.9477 191.328C45.8757 190.768 46.9077 190.488 48.0437 190.488C49.0357 190.488 49.8997 190.688 50.6357 191.088C51.3877 191.488 51.9877 191.992 52.4357 192.6V190.704H55.8197V204H52.4357V202.056C52.0037 202.68 51.4037 203.2 50.6357 203.616C49.8837 204.016 49.0117 204.216 48.0197 204.216C46.8997 204.216 45.8757 203.928 44.9477 203.352C44.0357 202.776 43.3077 201.968 42.7637 200.928C42.2357 199.872 41.9717 198.664 41.9717 197.304ZM52.4357 197.352C52.4357 196.536 52.2757 195.84 51.9557 195.264C51.6357 194.672 51.2037 194.224 50.6597 193.92C50.1157 193.6 49.5317 193.44 48.9077 193.44C48.2837 193.44 47.7077 193.592 47.1797 193.896C46.6517 194.2 46.2197 194.648 45.8837 195.24C45.5637 195.816 45.4037 196.504 45.4037 197.304C45.4037 198.104 45.5637 198.808 45.8837 199.416C46.2197 200.008 46.6517 200.464 47.1797 200.784C47.7237 201.104 48.2997 201.264 48.9077 201.264C49.5317 201.264 50.1157 201.112 50.6597 200.808C51.2037 200.488 51.6357 200.04 51.9557 199.464C52.2757 198.872 52.4357 198.168 52.4357 197.352ZM68.6053 195.408C69.5493 195.584 70.3253 196.056 70.9333 196.824C71.5413 197.592 71.8453 198.472 71.8453 199.464C71.8453 200.36 71.6213 201.152 71.1733 201.84C70.7413 202.512 70.1093 203.04 69.2773 203.424C68.4453 203.808 67.4613 204 66.3253 204H59.1013V187.248H66.0133C67.1493 187.248 68.1253 187.432 68.9413 187.8C69.7733 188.168 70.3973 188.68 70.8133 189.336C71.2453 189.992 71.4613 190.736 71.4613 191.568C71.4613 192.544 71.1973 193.36 70.6693 194.016C70.1573 194.672 69.4693 195.136 68.6053 195.408ZM62.4613 194.16H65.5333C66.3333 194.16 66.9493 193.984 67.3813 193.632C67.8133 193.264 68.0293 192.744 68.0293 192.072C68.0293 191.4 67.8133 190.88 67.3813 190.512C66.9493 190.144 66.3333 189.96 65.5333 189.96H62.4613V194.16ZM65.8453 201.264C66.6613 201.264 67.2933 201.072 67.7413 200.688C68.2053 200.304 68.4373 199.76 68.4373 199.056C68.4373 198.336 68.1973 197.776 67.7173 197.376C67.2373 196.96 66.5893 196.752 65.7733 196.752H62.4613V201.264H65.8453ZM77.8832 192.648C78.3152 192.008 78.9072 191.488 79.6592 191.088C80.4272 190.688 81.2992 190.488 82.2752 190.488C83.4112 190.488 84.4352 190.768 85.3472 191.328C86.2752 191.888 87.0032 192.688 87.5312 193.728C88.0752 194.752 88.3472 195.944 88.3472 197.304C88.3472 198.664 88.0752 199.872 87.5312 200.928C87.0032 201.968 86.2752 202.776 85.3472 203.352C84.4352 203.928 83.4112 204.216 82.2752 204.216C81.2832 204.216 80.4112 204.024 79.6592 203.64C78.9232 203.24 78.3312 202.728 77.8832 202.104V204H74.5232V186.24H77.8832V192.648ZM84.9152 197.304C84.9152 196.504 84.7472 195.816 84.4112 195.24C84.0912 194.648 83.6592 194.2 83.1152 193.896C82.5872 193.592 82.0112 193.44 81.3872 193.44C80.7792 193.44 80.2032 193.6 79.6592 193.92C79.1312 194.224 78.6992 194.672 78.3632 195.264C78.0432 195.856 77.8832 196.552 77.8832 197.352C77.8832 198.152 78.0432 198.848 78.3632 199.44C78.6992 200.032 79.1312 200.488 79.6592 200.808C80.2032 201.112 80.7792 201.264 81.3872 201.264C82.0112 201.264 82.5872 201.104 83.1152 200.784C83.6592 200.464 84.0912 200.008 84.4112 199.416C84.7472 198.824 84.9152 198.12 84.9152 197.304ZM89.9728 195.6C89.9728 193.952 90.3408 192.48 91.0768 191.184C91.8288 189.872 92.8448 188.856 94.1248 188.136C95.4208 187.4 96.8688 187.032 98.4688 187.032C100.341 187.032 101.981 187.512 103.389 188.472C104.797 189.432 105.781 190.76 106.341 192.456H102.477C102.093 191.656 101.549 191.056 100.845 190.656C100.157 190.256 99.3568 190.056 98.4448 190.056C97.4688 190.056 96.5968 190.288 95.8288 190.752C95.0768 191.2 94.4848 191.84 94.0528 192.672C93.6368 193.504 93.4288 194.48 93.4288 195.6C93.4288 196.704 93.6368 197.68 94.0528 198.528C94.4848 199.36 95.0768 200.008 95.8288 200.472C96.5968 200.92 97.4688 201.144 98.4448 201.144C99.3568 201.144 100.157 200.944 100.845 200.544C101.549 200.128 102.093 199.52 102.477 198.72H106.341C105.781 200.432 104.797 201.768 103.389 202.728C101.997 203.672 100.357 204.144 98.4688 204.144C96.8688 204.144 95.4208 203.784 94.1248 203.064C92.8448 202.328 91.8288 201.312 91.0768 200.016C90.3408 198.72 89.9728 197.248 89.9728 195.6ZM108.347 197.352C108.347 195.976 108.627 194.776 109.187 193.752C109.747 192.712 110.523 191.912 111.515 191.352C112.507 190.776 113.643 190.488 114.923 190.488C116.571 190.488 117.931 190.904 119.003 191.736C120.091 192.552 120.819 193.704 121.187 195.192H117.563C117.371 194.616 117.043 194.168 116.579 193.848C116.131 193.512 115.571 193.344 114.899 193.344C113.939 193.344 113.179 193.696 112.619 194.4C112.059 195.088 111.779 196.072 111.779 197.352C111.779 198.616 112.059 199.6 112.619 200.304C113.179 200.992 113.939 201.336 114.899 201.336C116.259 201.336 117.147 200.728 117.563 199.512H121.187C120.819 200.952 120.091 202.096 119.003 202.944C117.915 203.792 116.555 204.216 114.923 204.216C113.643 204.216 112.507 203.936 111.515 203.376C110.523 202.8 109.747 202 109.187 200.976C108.627 199.936 108.347 198.728 108.347 197.352ZM129.504 187.248C131.264 187.248 132.808 187.592 134.136 188.28C135.48 188.968 136.512 189.952 137.232 191.232C137.968 192.496 138.336 193.968 138.336 195.648C138.336 197.328 137.968 198.8 137.232 200.064C136.512 201.312 135.48 202.28 134.136 202.968C132.808 203.656 131.264 204 129.504 204H123.648V187.248H129.504ZM129.384 201.144C131.144 201.144 132.504 200.664 133.464 199.704C134.424 198.744 134.904 197.392 134.904 195.648C134.904 193.904 134.424 192.544 133.464 191.568C132.504 190.576 131.144 190.08 129.384 190.08H127.008V201.144H129.384ZM139.987 197.304C139.987 195.96 140.251 194.768 140.779 193.728C141.323 192.688 142.059 191.888 142.987 191.328C143.915 190.768 144.947 190.488 146.083 190.488C146.947 190.488 147.771 190.68 148.555 191.064C149.339 191.432 149.963 191.928 150.427 192.552V186.24H153.835V204H150.427V202.032C150.011 202.688 149.427 203.216 148.675 203.616C147.923 204.016 147.051 204.216 146.059 204.216C144.939 204.216 143.915 203.928 142.987 203.352C142.059 202.776 141.323 201.968 140.779 200.928C140.251 199.872 139.987 198.664 139.987 197.304ZM150.451 197.352C150.451 196.536 150.291 195.84 149.971 195.264C149.651 194.672 149.219 194.224 148.675 193.92C148.131 193.6 147.547 193.44 146.923 193.44C146.299 193.44 145.723 193.592 145.195 193.896C144.667 194.2 144.235 194.648 143.899 195.24C143.579 195.816 143.419 196.504 143.419 197.304C143.419 198.104 143.579 198.808 143.899 199.416C144.235 200.008 144.667 200.464 145.195 200.784C145.739 201.104 146.315 201.264 146.923 201.264C147.547 201.264 148.131 201.112 148.675 200.808C149.219 200.488 149.651 200.04 149.971 199.464C150.291 198.872 150.451 198.168 150.451 197.352ZM160.477 189.96V194.16H166.117V196.824H160.477V201.264H166.837V204H157.117V187.224H166.837V189.96H160.477ZM182.25 197.064C182.25 197.544 182.218 197.976 182.154 198.36H172.434C172.514 199.32 172.85 200.072 173.442 200.616C174.034 201.16 174.762 201.432 175.626 201.432C176.874 201.432 177.762 200.896 178.29 199.824H181.914C181.53 201.104 180.794 202.16 179.706 202.992C178.618 203.808 177.282 204.216 175.698 204.216C174.418 204.216 173.266 203.936 172.242 203.376C171.234 202.8 170.442 201.992 169.866 200.952C169.306 199.912 169.026 198.712 169.026 197.352C169.026 195.976 169.306 194.768 169.866 193.728C170.426 192.688 171.21 191.888 172.218 191.328C173.226 190.768 174.386 190.488 175.698 190.488C176.962 190.488 178.09 190.76 179.082 191.304C180.09 191.848 180.866 192.624 181.41 193.632C181.97 194.624 182.25 195.768 182.25 197.064ZM178.77 196.104C178.754 195.24 178.442 194.552 177.834 194.04C177.226 193.512 176.482 193.248 175.602 193.248C174.77 193.248 174.066 193.504 173.49 194.016C172.93 194.512 172.586 195.208 172.458 196.104H178.77ZM195.047 187.248V189.96H188.063V194.256H193.415V196.92H188.063V204H184.703V187.248H195.047ZM203.525 193.464H201.197V204H197.789V193.464H196.277V190.704H197.789V190.032C197.789 188.4 198.253 187.2 199.181 186.432C200.109 185.664 201.509 185.304 203.381 185.352V188.184C202.565 188.168 201.997 188.304 201.677 188.592C201.357 188.88 201.197 189.4 201.197 190.152V190.704H203.525V193.464ZM217.367 192.288C216.983 191.584 216.455 191.048 215.783 190.68C215.111 190.312 214.327 190.128 213.431 190.128C212.439 190.128 211.559 190.352 210.791 190.8C210.023 191.248 209.423 191.888 208.991 192.72C208.559 193.552 208.343 194.512 208.343 195.6C208.343 196.72 208.559 197.696 208.991 198.528C209.439 199.36 210.055 200 210.839 200.448C211.623 200.896 212.535 201.12 213.575 201.12C214.855 201.12 215.903 200.784 216.719 200.112C217.535 199.424 218.071 198.472 218.327 197.256H212.567V194.688H221.639V197.616C221.415 198.784 220.935 199.864 220.199 200.856C219.463 201.848 218.511 202.648 217.343 203.256C216.191 203.848 214.895 204.144 213.455 204.144C211.839 204.144 210.375 203.784 209.063 203.064C207.767 202.328 206.743 201.312 205.991 200.016C205.255 198.72 204.887 197.248 204.887 195.6C204.887 193.952 205.255 192.48 205.991 191.184C206.743 189.872 207.767 188.856 209.063 188.136C210.375 187.4 211.831 187.032 213.431 187.032C215.319 187.032 216.959 187.496 218.351 188.424C219.743 189.336 220.703 190.624 221.231 192.288H217.367ZM229.333 190.488C230.325 190.488 231.197 190.688 231.949 191.088C232.701 191.472 233.293 191.976 233.725 192.6V190.704H237.109V204.096C237.109 205.328 236.861 206.424 236.365 207.384C235.869 208.36 235.125 209.128 234.133 209.688C233.141 210.264 231.941 210.552 230.533 210.552C228.645 210.552 227.093 210.112 225.877 209.232C224.677 208.352 223.997 207.152 223.837 205.632H227.173C227.349 206.24 227.725 206.72 228.301 207.072C228.893 207.44 229.605 207.624 230.437 207.624C231.413 207.624 232.205 207.328 232.813 206.736C233.421 206.16 233.725 205.28 233.725 204.096V202.032C233.293 202.656 232.693 203.176 231.925 203.592C231.173 204.008 230.309 204.216 229.333 204.216C228.213 204.216 227.189 203.928 226.261 203.352C225.333 202.776 224.597 201.968 224.053 200.928C223.525 199.872 223.261 198.664 223.261 197.304C223.261 195.96 223.525 194.768 224.053 193.728C224.597 192.688 225.325 191.888 226.237 191.328C227.165 190.768 228.197 190.488 229.333 190.488ZM233.725 197.352C233.725 196.536 233.565 195.84 233.245 195.264C232.925 194.672 232.493 194.224 231.949 193.92C231.405 193.6 230.821 193.44 230.197 193.44C229.573 193.44 228.997 193.592 228.469 193.896C227.941 194.2 227.509 194.648 227.173 195.24C226.853 195.816 226.693 196.504 226.693 197.304C226.693 198.104 226.853 198.808 227.173 199.416C227.509 200.008 227.941 200.464 228.469 200.784C229.013 201.104 229.589 201.264 230.197 201.264C230.821 201.264 231.405 201.112 231.949 200.808C232.493 200.488 232.925 200.04 233.245 199.464C233.565 198.872 233.725 198.168 233.725 197.352ZM254.286 187.248V204H250.926V196.872H243.75V204H240.39V187.248H243.75V194.136H250.926V187.248H254.286ZM265.082 190.512C266.09 190.512 266.986 190.736 267.77 191.184C268.554 191.616 269.162 192.264 269.594 193.128C270.042 193.976 270.266 195 270.266 196.2V204H266.906V196.656C266.906 195.6 266.642 194.792 266.114 194.232C265.586 193.656 264.866 193.368 263.954 193.368C263.026 193.368 262.29 193.656 261.746 194.232C261.218 194.792 260.954 195.6 260.954 196.656V204H257.594V186.24H260.954V192.36C261.386 191.784 261.962 191.336 262.682 191.016C263.402 190.68 264.202 190.512 265.082 190.512ZM276.821 187.248V204H273.461V187.248H276.821ZM281.844 189.12C281.252 189.12 280.756 188.936 280.356 188.568C279.972 188.184 279.78 187.712 279.78 187.152C279.78 186.592 279.972 186.128 280.356 185.76C280.756 185.376 281.252 185.184 281.844 185.184C282.436 185.184 282.924 185.376 283.308 185.76C283.708 186.128 283.908 186.592 283.908 187.152C283.908 187.712 283.708 188.184 283.308 188.568C282.924 188.936 282.436 189.12 281.844 189.12ZM283.5 190.704V204H280.14V190.704H283.5ZM296.588 187.248V199.008C296.588 200.64 296.116 201.912 295.172 202.824C294.228 203.72 292.964 204.168 291.38 204.168C289.78 204.168 288.484 203.704 287.492 202.776C286.516 201.848 286.028 200.552 286.028 198.888H289.388C289.404 199.608 289.572 200.168 289.892 200.568C290.228 200.968 290.708 201.168 291.332 201.168C291.94 201.168 292.404 200.976 292.724 200.592C293.044 200.208 293.204 199.68 293.204 199.008V187.248H296.588ZM302.212 189.12C301.604 189.12 301.1 188.936 300.7 188.568C300.316 188.184 300.124 187.712 300.124 187.152C300.124 186.592 300.316 186.128 300.7 185.76C301.1 185.376 301.604 185.184 302.212 185.184C302.804 185.184 303.292 185.376 303.676 185.76C304.06 186.128 304.252 186.592 304.252 187.152C304.252 187.712 304.06 188.184 303.676 188.568C303.292 188.936 302.804 189.12 302.212 189.12ZM303.868 206.184C303.868 207.656 303.5 208.712 302.764 209.352C302.044 210.008 301.004 210.336 299.644 210.336H298.156V207.48H299.116C299.628 207.48 299.988 207.376 300.196 207.168C300.404 206.976 300.508 206.656 300.508 206.208V190.704H303.868V206.184ZM316.643 204L310.547 196.536V204H307.187V187.248H310.547V194.76L316.643 187.248H320.699L313.787 195.552L320.891 204H316.643ZM330.973 204L326.461 198.336V204H323.101V186.24H326.461V196.344L330.925 190.704H335.293L329.437 197.376L335.341 204H330.973ZM340.477 201.336H345.997V204H337.117V187.248H340.477V201.336ZM351.493 186.24V204H348.133V186.24H351.493ZM373.076 187.248V204H369.716V193.104L365.228 204H362.684L358.172 193.104V204H354.812V187.248H358.628L363.956 199.704L369.284 187.248H373.076ZM392.91 190.512C394.542 190.512 395.854 191.016 396.846 192.024C397.854 193.016 398.358 194.408 398.358 196.2V204H394.998V196.656C394.998 195.616 394.734 194.824 394.206 194.28C393.678 193.72 392.958 193.44 392.046 193.44C391.134 193.44 390.406 193.72 389.862 194.28C389.334 194.824 389.07 195.616 389.07 196.656V204H385.71V196.656C385.71 195.616 385.446 194.824 384.918 194.28C384.39 193.72 383.67 193.44 382.758 193.44C381.83 193.44 381.094 193.72 380.55 194.28C380.022 194.824 379.758 195.616 379.758 196.656V204H376.398V190.704H379.758V192.312C380.19 191.752 380.742 191.312 381.414 190.992C382.102 190.672 382.854 190.512 383.67 190.512C384.71 190.512 385.638 190.736 386.454 191.184C387.27 191.616 387.902 192.24 388.35 193.056C388.782 192.288 389.406 191.672 390.222 191.208C391.054 190.744 391.95 190.512 392.91 190.512ZM415.875 204H412.515L404.907 192.504V204H401.547V187.224H404.907L412.515 198.744V187.224H415.875V204ZM426.563 190.512C428.147 190.512 429.427 191.016 430.403 192.024C431.379 193.016 431.867 194.408 431.867 196.2V204H428.507V196.656C428.507 195.6 428.243 194.792 427.715 194.232C427.187 193.656 426.467 193.368 425.555 193.368C424.627 193.368 423.891 193.656 423.347 194.232C422.819 194.792 422.555 195.6 422.555 196.656V204H419.195V190.704H422.555V192.36C423.003 191.784 423.571 191.336 424.259 191.016C424.963 190.68 425.731 190.512 426.563 190.512ZM33.432 235.168C31.864 235.168 30.424 234.8 29.112 234.064C27.8 233.328 26.76 232.312 25.992 231.016C25.224 229.704 24.84 228.224 24.84 226.576C24.84 224.944 25.224 223.48 25.992 222.184C26.76 220.872 27.8 219.848 29.112 219.112C30.424 218.376 31.864 218.008 33.432 218.008C35.016 218.008 36.456 218.376 37.752 219.112C39.064 219.848 40.096 220.872 40.848 222.184C41.616 223.48 42 224.944 42 226.576C42 228.224 41.616 229.704 40.848 231.016C40.096 232.312 39.064 233.328 37.752 234.064C36.44 234.8 35 235.168 33.432 235.168ZM33.432 232.168C34.44 232.168 35.328 231.944 36.096 231.496C36.864 231.032 37.464 230.376 37.896 229.528C38.328 228.68 38.544 227.696 38.544 226.576C38.544 225.456 38.328 224.48 37.896 223.648C37.464 222.8 36.864 222.152 36.096 221.704C35.328 221.256 34.44 221.032 33.432 221.032C32.424 221.032 31.528 221.256 30.744 221.704C29.976 222.152 29.376 222.8 28.944 223.648C28.512 224.48 28.296 225.456 28.296 226.576C28.296 227.696 28.512 228.68 28.944 229.528C29.376 230.376 29.976 231.032 30.744 231.496C31.528 231.944 32.424 232.168 33.432 232.168ZM50.4038 235.216C49.1238 235.216 47.9718 234.936 46.9478 234.376C45.9238 233.8 45.1158 232.992 44.5238 231.952C43.9478 230.912 43.6598 229.712 43.6598 228.352C43.6598 226.992 43.9558 225.792 44.5478 224.752C45.1558 223.712 45.9798 222.912 47.0198 222.352C48.0598 221.776 49.2198 221.488 50.4998 221.488C51.7798 221.488 52.9398 221.776 53.9798 222.352C55.0198 222.912 55.8358 223.712 56.4278 224.752C57.0358 225.792 57.3398 226.992 57.3398 228.352C57.3398 229.712 57.0278 230.912 56.4037 231.952C55.7958 232.992 54.9638 233.8 53.9078 234.376C52.8678 234.936 51.6998 235.216 50.4038 235.216ZM50.4038 232.288C51.0118 232.288 51.5798 232.144 52.1078 231.856C52.6518 231.552 53.0838 231.104 53.4038 230.512C53.7238 229.92 53.8838 229.2 53.8838 228.352C53.8838 227.088 53.5478 226.12 52.8758 225.448C52.2198 224.76 51.4118 224.416 50.4518 224.416C49.4918 224.416 48.6838 224.76 48.0278 225.448C47.3878 226.12 47.0678 227.088 47.0678 228.352C47.0678 229.616 47.3798 230.592 48.0038 231.28C48.6438 231.952 49.4438 232.288 50.4038 232.288ZM72.0204 223.432C72.0204 224.328 71.8044 225.168 71.3724 225.952C70.9564 226.736 70.2924 227.368 69.3804 227.848C68.4844 228.328 67.3484 228.568 65.9724 228.568H63.1644V235H59.8044V218.248H65.9724C67.2684 218.248 68.3724 218.472 69.2844 218.92C70.1964 219.368 70.8764 219.984 71.3244 220.768C71.7884 221.552 72.0204 222.44 72.0204 223.432ZM65.8284 225.856C66.7564 225.856 67.4444 225.648 67.8924 225.232C68.3404 224.8 68.5644 224.2 68.5644 223.432C68.5644 221.8 67.6524 220.984 65.8284 220.984H63.1644V225.856H65.8284ZM77.766 223.624C78.198 223.016 78.79 222.512 79.542 222.112C80.31 221.696 81.182 221.488 82.158 221.488C83.294 221.488 84.318 221.768 85.23 222.328C86.158 222.888 86.886 223.688 87.414 224.728C87.958 225.752 88.23 226.944 88.23 228.304C88.23 229.664 87.958 230.872 87.414 231.928C86.886 232.968 86.158 233.776 85.23 234.352C84.318 234.928 83.294 235.216 82.158 235.216C81.182 235.216 80.318 235.016 79.566 234.616C78.83 234.216 78.23 233.712 77.766 233.104V241.336H74.406V221.704H77.766V223.624ZM84.798 228.304C84.798 227.504 84.63 226.816 84.294 226.24C83.974 225.648 83.542 225.2 82.998 224.896C82.47 224.592 81.894 224.44 81.27 224.44C80.662 224.44 80.086 224.6 79.542 224.92C79.014 225.224 78.582 225.672 78.246 226.264C77.926 226.856 77.766 227.552 77.766 228.352C77.766 229.152 77.926 229.848 78.246 230.44C78.582 231.032 79.014 231.488 79.542 231.808C80.086 232.112 80.662 232.264 81.27 232.264C81.894 232.264 82.47 232.104 82.998 231.784C83.542 231.464 83.974 231.008 84.294 230.416C84.63 229.824 84.798 229.12 84.798 228.304ZM103.152 237.952L100.608 234.904C99.9036 235.08 99.1836 235.168 98.4476 235.168C96.8796 235.168 95.4396 234.8 94.1276 234.064C92.8156 233.328 91.7756 232.312 91.0076 231.016C90.2396 229.704 89.8556 228.224 89.8556 226.576C89.8556 224.944 90.2396 223.48 91.0076 222.184C91.7756 220.872 92.8156 219.848 94.1276 219.112C95.4396 218.376 96.8796 218.008 98.4476 218.008C100.032 218.008 101.472 218.376 102.768 219.112C104.08 219.848 105.112 220.872 105.864 222.184C106.632 223.48 107.016 224.944 107.016 226.576C107.016 228.064 106.696 229.424 106.056 230.656C105.432 231.872 104.576 232.864 103.488 233.632L107.328 237.952H103.152ZM93.3116 226.576C93.3116 227.696 93.5276 228.68 93.9596 229.528C94.3916 230.376 94.9916 231.032 95.7596 231.496C96.5436 231.944 97.4396 232.168 98.4476 232.168C99.4556 232.168 100.344 231.944 101.112 231.496C101.88 231.032 102.48 230.376 102.912 229.528C103.344 228.68 103.56 227.696 103.56 226.576C103.56 225.456 103.344 224.48 102.912 223.648C102.48 222.8 101.88 222.152 101.112 221.704C100.344 221.256 99.4556 221.032 98.4476 221.032C97.4396 221.032 96.5436 221.256 95.7596 221.704C94.9916 222.152 94.3916 222.8 93.9596 223.648C93.5276 224.48 93.3116 225.456 93.3116 226.576ZM108.698 228.328C108.698 227 108.97 225.824 109.514 224.8C110.074 223.76 110.826 222.952 111.77 222.376C112.714 221.8 113.754 221.512 114.89 221.512C115.834 221.512 116.666 221.696 117.386 222.064C118.122 222.416 118.714 222.872 119.162 223.432V221.704H122.546V241.336H119.162V233.176C118.714 233.752 118.114 234.232 117.362 234.616C116.61 235 115.762 235.192 114.818 235.192C113.698 235.192 112.666 234.904 111.722 234.328C110.794 233.736 110.058 232.92 109.514 231.88C108.97 230.84 108.698 229.656 108.698 228.328ZM119.162 228.352C119.162 227.536 118.994 226.832 118.658 226.24C118.322 225.648 117.882 225.2 117.338 224.896C116.81 224.592 116.242 224.44 115.634 224.44C115.042 224.44 114.474 224.592 113.93 224.896C113.402 225.2 112.97 225.648 112.634 226.24C112.298 226.816 112.13 227.512 112.13 228.328C112.13 229.144 112.298 229.856 112.634 230.464C112.97 231.056 113.402 231.504 113.93 231.808C114.474 232.112 115.042 232.264 115.634 232.264C116.242 232.264 116.81 232.112 117.338 231.808C117.882 231.504 118.322 231.056 118.658 230.464C118.994 229.872 119.162 229.168 119.162 228.352ZM134.468 235L130.772 228.472H129.188V235H125.828V218.248H132.116C133.412 218.248 134.516 218.48 135.428 218.944C136.34 219.392 137.02 220.008 137.468 220.792C137.932 221.56 138.164 222.424 138.164 223.384C138.164 224.488 137.844 225.488 137.204 226.384C136.564 227.264 135.612 227.872 134.348 228.208L138.356 235H134.468ZM129.188 225.952H131.996C132.908 225.952 133.588 225.736 134.036 225.304C134.484 224.856 134.708 224.24 134.708 223.456C134.708 222.688 134.484 222.096 134.036 221.68C133.588 221.248 132.908 221.032 131.996 221.032H129.188V225.952ZM144.563 223.768C144.995 223.064 145.555 222.512 146.243 222.112C146.947 221.712 147.747 221.512 148.643 221.512V225.04H147.755C146.699 225.04 145.899 225.288 145.355 225.784C144.827 226.28 144.563 227.144 144.563 228.376V235H141.203V221.704H144.563V223.768ZM156.69 235.168C155.522 235.168 154.466 234.968 153.522 234.568C152.594 234.168 151.858 233.592 151.314 232.84C150.77 232.088 150.49 231.2 150.474 230.176H154.074C154.122 230.864 154.362 231.408 154.794 231.808C155.242 232.208 155.85 232.408 156.618 232.408C157.402 232.408 158.018 232.224 158.466 231.856C158.914 231.472 159.138 230.976 159.138 230.368C159.138 229.872 158.986 229.464 158.682 229.144C158.378 228.824 157.994 228.576 157.53 228.4C157.082 228.208 156.458 228 155.658 227.776C154.57 227.456 153.682 227.144 152.994 226.84C152.322 226.52 151.738 226.048 151.242 225.424C150.762 224.784 150.522 223.936 150.522 222.88C150.522 221.888 150.77 221.024 151.266 220.288C151.762 219.552 152.458 218.992 153.354 218.608C154.25 218.208 155.274 218.008 156.426 218.008C158.154 218.008 159.554 218.432 160.626 219.28C161.714 220.112 162.314 221.28 162.426 222.784H158.73C158.698 222.208 158.45 221.736 157.986 221.368C157.538 220.984 156.938 220.792 156.186 220.792C155.53 220.792 155.002 220.96 154.602 221.296C154.218 221.632 154.026 222.12 154.026 222.76C154.026 223.208 154.17 223.584 154.458 223.888C154.762 224.176 155.13 224.416 155.562 224.608C156.01 224.784 156.634 224.992 157.434 225.232C158.522 225.552 159.41 225.872 160.098 226.192C160.786 226.512 161.378 226.992 161.874 227.632C162.37 228.272 162.618 229.112 162.618 230.152C162.618 231.048 162.386 231.88 161.922 232.648C161.458 233.416 160.778 234.032 159.882 234.496C158.986 234.944 157.922 235.168 156.69 235.168ZM170.619 235.216C169.531 235.216 168.555 235.024 167.691 234.64C166.827 234.24 166.139 233.704 165.627 233.032C165.131 232.36 164.859 231.616 164.811 230.8H168.195C168.259 231.312 168.507 231.736 168.939 232.072C169.387 232.408 169.939 232.576 170.595 232.576C171.235 232.576 171.731 232.448 172.083 232.192C172.451 231.936 172.635 231.608 172.635 231.208C172.635 230.776 172.411 230.456 171.963 230.248C171.531 230.024 170.835 229.784 169.875 229.528C168.883 229.288 168.067 229.04 167.427 228.784C166.803 228.528 166.259 228.136 165.795 227.608C165.347 227.08 165.123 226.368 165.123 225.472C165.123 224.736 165.331 224.064 165.747 223.456C166.179 222.848 166.787 222.368 167.571 222.016C168.371 221.664 169.307 221.488 170.379 221.488C171.963 221.488 173.227 221.888 174.171 222.688C175.115 223.472 175.635 224.536 175.731 225.88H172.515C172.467 225.352 172.243 224.936 171.843 224.632C171.459 224.312 170.939 224.152 170.283 224.152C169.675 224.152 169.203 224.264 168.867 224.488C168.547 224.712 168.387 225.024 168.387 225.424C168.387 225.872 168.611 226.216 169.059 226.456C169.507 226.68 170.203 226.912 171.147 227.152C172.107 227.392 172.899 227.64 173.523 227.896C174.147 228.152 174.683 228.552 175.131 229.096C175.595 229.624 175.835 230.328 175.851 231.208C175.851 231.976 175.635 232.664 175.203 233.272C174.787 233.88 174.179 234.36 173.379 234.712C172.595 235.048 171.675 235.216 170.619 235.216ZM190.009 218.248V220.96H185.545V235H182.185V220.96H177.721V218.248H190.009ZM196.373 224.464V230.896C196.373 231.344 196.477 231.672 196.685 231.88C196.909 232.072 197.277 232.168 197.789 232.168H199.349V235H197.237C194.405 235 192.989 233.624 192.989 230.872V224.464H191.405V221.704H192.989V218.416H196.373V221.704H199.349V224.464H196.373ZM205.077 218.248V228.616C205.077 229.752 205.373 230.624 205.965 231.232C206.557 231.824 207.389 232.12 208.461 232.12C209.549 232.12 210.389 231.824 210.981 231.232C211.573 230.624 211.869 229.752 211.869 228.616V218.248H215.253V228.592C215.253 230.016 214.941 231.224 214.317 232.216C213.709 233.192 212.885 233.928 211.845 234.424C210.821 234.92 209.677 235.168 208.413 235.168C207.165 235.168 206.029 234.92 205.005 234.424C203.997 233.928 203.197 233.192 202.605 232.216C202.013 231.224 201.717 230.016 201.717 228.592V218.248H205.077ZM231.052 221.704V235H227.668V233.32C227.236 233.896 226.668 234.352 225.964 234.688C225.276 235.008 224.524 235.168 223.708 235.168C222.668 235.168 221.748 234.952 220.948 234.52C220.148 234.072 219.516 233.424 219.052 232.576C218.604 231.712 218.38 230.688 218.38 229.504V221.704H221.74V229.024C221.74 230.08 222.004 230.896 222.532 231.472C223.06 232.032 223.78 232.312 224.692 232.312C225.62 232.312 226.348 232.032 226.876 231.472C227.404 230.896 227.668 230.08 227.668 229.024V221.704H231.052ZM249.415 218.248L243.271 235H239.191L233.047 218.248H236.647L241.255 231.568L245.839 218.248H249.415ZM256.973 231.904L260.333 221.704H263.909L258.989 235H254.909L250.013 221.704H253.613L256.973 231.904ZM288.189 218.248L283.509 235H279.549L276.405 223.072L273.117 235L269.181 235.024L264.669 218.248H268.269L271.221 231.256L274.629 218.248H278.373L281.589 231.184L284.565 218.248H288.189ZM308.815 221.704L304.927 235H301.303L298.879 225.712L296.455 235H292.807L288.895 221.704H292.303L294.655 231.832L297.199 221.704H300.751L303.247 231.808L305.599 221.704H308.815ZM320.665 235L317.041 229.36L313.753 235H309.961L315.241 226.552L309.889 218.248H313.753L317.377 223.864L320.641 218.248H324.433L319.177 226.672L324.529 235H320.665ZM334.43 235L331.694 230.872L329.27 235H325.67L330.014 228.328L325.622 221.704H329.414L332.126 225.808L334.574 221.704H338.174L333.806 228.328L338.222 235H334.43ZM353.367 218.248L347.703 229.168V235H344.343V229.168L338.655 218.248H342.447L346.047 225.904L349.623 218.248H353.367ZM368.024 221.704L359.792 241.288H356.216L359.096 234.664L353.768 221.704H357.536L360.968 230.992L364.448 221.704H368.024ZM373.268 232.168H380.804V235H369.38V232.408L376.868 221.08H369.38V218.248H380.804V220.84L373.268 232.168ZM386.736 232.24H392.664V235H382.92V232.288L388.728 224.464H382.944V221.704H392.592V224.416L386.736 232.24ZM24.864 251.6V248.504H30.648V266H27.192V251.6H24.864ZM35.0233 262.208C36.5593 260.928 37.7833 259.864 38.6953 259.016C39.6073 258.152 40.3673 257.256 40.9753 256.328C41.5833 255.4 41.8873 254.488 41.8873 253.592C41.8873 252.776 41.6953 252.136 41.3113 251.672C40.9273 251.208 40.3353 250.976 39.5353 250.976C38.7353 250.976 38.1193 251.248 37.6873 251.792C37.2553 252.32 37.0313 253.048 37.0153 253.976H33.7513C33.8153 252.056 34.3833 250.6 35.4553 249.608C36.5433 248.616 37.9193 248.12 39.5833 248.12C41.4073 248.12 42.8073 248.608 43.7833 249.584C44.7593 250.544 45.2473 251.816 45.2473 253.4C45.2473 254.648 44.9113 255.84 44.2393 256.976C43.5673 258.112 42.7993 259.104 41.9353 259.952C41.0713 260.784 39.9433 261.792 38.5513 262.976H45.6313V265.76H33.7753V263.264L35.0233 262.208ZM47.7966 253.112C47.8766 251.512 48.4366 250.28 49.4766 249.416C50.5326 248.536 51.9166 248.096 53.6286 248.096C54.7966 248.096 55.7966 248.304 56.6286 248.72C57.4606 249.12 58.0846 249.672 58.5006 250.376C58.9326 251.064 59.1486 251.848 59.1486 252.728C59.1486 253.736 58.8846 254.592 58.3566 255.296C57.8446 255.984 57.2286 256.448 56.5086 256.688V256.784C57.4366 257.072 58.1566 257.584 58.6686 258.32C59.1966 259.056 59.4606 260 59.4606 261.152C59.4606 262.112 59.2366 262.968 58.7886 263.72C58.3566 264.472 57.7086 265.064 56.8446 265.496C55.9966 265.912 54.9726 266.12 53.7726 266.12C51.9646 266.12 50.4926 265.664 49.3566 264.752C48.2206 263.84 47.6206 262.496 47.5566 260.72H50.8206C50.8526 261.504 51.1166 262.136 51.6126 262.616C52.1246 263.08 52.8206 263.312 53.7006 263.312C54.5166 263.312 55.1406 263.088 55.5726 262.64C56.0206 262.176 56.2446 261.584 56.2446 260.864C56.2446 259.904 55.9406 259.216 55.3326 258.8C54.7246 258.384 53.7806 258.176 52.5006 258.176H51.8046V255.416H52.5006C54.7726 255.416 55.9086 254.656 55.9086 253.136C55.9086 252.448 55.7006 251.912 55.2846 251.528C54.8846 251.144 54.3006 250.952 53.5326 250.952C52.7806 250.952 52.1966 251.16 51.7806 251.576C51.3806 251.976 51.1486 252.488 51.0846 253.112H47.7966ZM61.9718 262.592V259.952L69.8198 248.72H73.7318V259.664H75.8438V262.592H73.7318V266H70.3718V262.592H61.9718ZM70.5878 252.32L65.6678 259.664H70.5878V252.32ZM89.7429 251.408H81.9669V255.512C82.3029 255.096 82.7829 254.76 83.4069 254.504C84.0309 254.232 84.6949 254.096 85.3989 254.096C86.6789 254.096 87.7269 254.376 88.5429 254.936C89.3589 255.496 89.9509 256.216 90.3189 257.096C90.6869 257.96 90.8709 258.888 90.8709 259.88C90.8709 261.72 90.3429 263.2 89.2869 264.32C88.2469 265.44 86.7589 266 84.8229 266C82.9989 266 81.5429 265.544 80.4549 264.632C79.3669 263.72 78.7509 262.528 78.6069 261.056H81.8709C82.0149 261.696 82.3349 262.208 82.8309 262.592C83.3429 262.976 83.9909 263.168 84.7749 263.168C85.7189 263.168 86.4309 262.872 86.9109 262.28C87.3909 261.688 87.6309 260.904 87.6309 259.928C87.6309 258.936 87.3829 258.184 86.8869 257.672C86.4069 257.144 85.6949 256.88 84.7509 256.88C84.0789 256.88 83.5189 257.048 83.0709 257.384C82.6229 257.72 82.3029 258.168 82.1109 258.728H78.8949V248.456H89.7429V251.408ZM102.5 252.872C102.34 252.2 102.06 251.696 101.66 251.36C101.276 251.024 100.716 250.856 99.9803 250.856C98.8763 250.856 98.0603 251.304 97.5323 252.2C97.0203 253.08 96.7563 254.52 96.7403 256.52C97.1243 255.88 97.6843 255.384 98.4203 255.032C99.1563 254.664 99.9563 254.48 100.82 254.48C101.86 254.48 102.78 254.704 103.58 255.152C104.38 255.6 105.004 256.256 105.452 257.12C105.9 257.968 106.124 258.992 106.124 260.192C106.124 261.328 105.892 262.344 105.428 263.24C104.98 264.12 104.316 264.808 103.436 265.304C102.556 265.8 101.508 266.048 100.292 266.048C98.6283 266.048 97.3163 265.68 96.3563 264.944C95.4123 264.208 94.7483 263.184 94.3643 261.872C93.9963 260.544 93.8123 258.912 93.8123 256.976C93.8123 254.048 94.3163 251.84 95.3242 250.352C96.3323 248.848 97.9243 248.096 100.1 248.096C101.78 248.096 103.084 248.552 104.012 249.464C104.94 250.376 105.476 251.512 105.62 252.872H102.5ZM100.052 257.24C99.2043 257.24 98.4923 257.488 97.9163 257.984C97.3403 258.48 97.0523 259.2 97.0523 260.144C97.0523 261.088 97.3163 261.832 97.8443 262.376C98.3883 262.92 99.1483 263.192 100.124 263.192C100.988 263.192 101.668 262.928 102.164 262.4C102.676 261.872 102.932 261.16 102.932 260.264C102.932 259.336 102.684 258.6 102.188 258.056C101.708 257.512 100.996 257.24 100.052 257.24ZM119.916 251.048L113.532 266H110.124L116.556 251.432H108.348V248.552H119.916V251.048ZM124.856 256.736C123.256 255.904 122.456 254.616 122.456 252.872C122.456 252.008 122.672 251.224 123.104 250.52C123.552 249.8 124.216 249.232 125.096 248.816C125.992 248.384 127.08 248.168 128.36 248.168C129.64 248.168 130.72 248.384 131.6 248.816C132.496 249.232 133.16 249.8 133.592 250.52C134.04 251.224 134.264 252.008 134.264 252.872C134.264 253.752 134.048 254.528 133.616 255.2C133.184 255.856 132.608 256.368 131.888 256.736C132.768 257.12 133.456 257.68 133.952 258.416C134.448 259.152 134.696 260.024 134.696 261.032C134.696 262.12 134.416 263.072 133.856 263.888C133.312 264.688 132.56 265.304 131.6 265.736C130.64 266.168 129.56 266.384 128.36 266.384C127.16 266.384 126.08 266.168 125.12 265.736C124.176 265.304 123.424 264.688 122.864 263.888C122.32 263.072 122.048 262.12 122.048 261.032C122.048 260.024 122.296 259.152 122.792 258.416C123.288 257.664 123.976 257.104 124.856 256.736ZM131 253.352C131 252.568 130.76 251.96 130.28 251.528C129.816 251.096 129.176 250.88 128.36 250.88C127.56 250.88 126.92 251.096 126.44 251.528C125.976 251.96 125.744 252.576 125.744 253.376C125.744 254.096 125.984 254.672 126.464 255.104C126.96 255.536 127.592 255.752 128.36 255.752C129.128 255.752 129.76 255.536 130.256 255.104C130.752 254.656 131 254.072 131 253.352ZM128.36 258.2C127.448 258.2 126.704 258.432 126.128 258.896C125.568 259.36 125.288 260.024 125.288 260.888C125.288 261.688 125.56 262.344 126.104 262.856C126.664 263.352 127.416 263.6 128.36 263.6C129.304 263.6 130.048 263.344 130.592 262.832C131.136 262.32 131.408 261.672 131.408 260.888C131.408 260.04 131.128 259.384 130.568 258.92C130.008 258.44 129.272 258.2 128.36 258.2ZM141.238 261.08C141.366 261.784 141.654 262.328 142.102 262.712C142.566 263.08 143.182 263.264 143.95 263.264C144.942 263.264 145.662 262.856 146.11 262.04C146.558 261.208 146.782 259.816 146.782 257.864C146.414 258.376 145.894 258.776 145.222 259.064C144.566 259.352 143.854 259.496 143.086 259.496C142.062 259.496 141.134 259.288 140.302 258.872C139.486 258.44 138.838 257.808 138.358 256.976C137.878 256.128 137.638 255.104 137.638 253.904C137.638 252.128 138.166 250.72 139.222 249.68C140.278 248.624 141.718 248.096 143.542 248.096C145.814 248.096 147.414 248.824 148.342 250.28C149.286 251.736 149.758 253.928 149.758 256.856C149.758 258.936 149.574 260.64 149.206 261.968C148.854 263.296 148.238 264.304 147.358 264.992C146.494 265.68 145.31 266.024 143.806 266.024C142.622 266.024 141.614 265.8 140.782 265.352C139.95 264.888 139.31 264.288 138.862 263.552C138.43 262.8 138.182 261.976 138.118 261.08H141.238ZM143.782 256.76C144.614 256.76 145.27 256.504 145.75 255.992C146.23 255.48 146.47 254.792 146.47 253.928C146.47 252.984 146.214 252.256 145.702 251.744C145.206 251.216 144.526 250.952 143.662 250.952C142.798 250.952 142.11 251.224 141.598 251.768C141.102 252.296 140.854 253 140.854 253.88C140.854 254.728 141.094 255.424 141.574 255.968C142.07 256.496 142.806 256.76 143.782 256.76ZM152.374 257.024C152.374 254.256 152.87 252.088 153.862 250.52C154.87 248.952 156.534 248.168 158.854 248.168C161.174 248.168 162.83 248.952 163.822 250.52C164.83 252.088 165.334 254.256 165.334 257.024C165.334 259.808 164.83 261.992 163.822 263.576C162.83 265.16 161.174 265.952 158.854 265.952C156.534 265.952 154.87 265.16 153.862 263.576C152.87 261.992 152.374 259.808 152.374 257.024ZM162.022 257.024C162.022 255.84 161.942 254.848 161.782 254.048C161.638 253.232 161.334 252.568 160.87 252.056C160.422 251.544 159.75 251.288 158.854 251.288C157.958 251.288 157.278 251.544 156.814 252.056C156.366 252.568 156.062 253.232 155.902 254.048C155.758 254.848 155.686 255.84 155.686 257.024C155.686 258.24 155.758 259.264 155.902 260.096C156.046 260.912 156.35 261.576 156.814 262.088C157.278 262.584 157.958 262.832 158.854 262.832C159.75 262.832 160.43 262.584 160.894 262.088C161.358 261.576 161.662 260.912 161.806 260.096C161.95 259.264 162.022 258.24 162.022 257.024ZM174.081 270.728C172.529 269.224 171.321 267.304 170.457 264.968C169.609 262.632 169.185 260.128 169.185 257.456C169.185 254.72 169.633 252.152 170.529 249.752C171.425 247.336 172.729 245.36 174.441 243.824H177.825V244.136C176.065 245.816 174.721 247.832 173.793 250.184C172.881 252.536 172.425 254.96 172.425 257.456C172.425 259.888 172.857 262.24 173.721 264.512C174.601 266.768 175.849 268.728 177.465 270.392V270.728H174.081ZM179.058 270.728V270.392C180.674 268.728 181.914 266.768 182.778 264.512C183.658 262.24 184.098 259.888 184.098 257.456C184.098 254.96 183.634 252.536 182.706 250.184C181.794 247.832 180.458 245.816 178.698 244.136V243.824H182.082C183.794 245.36 185.098 247.336 185.994 249.752C186.89 252.152 187.338 254.72 187.338 257.456C187.338 260.128 186.906 262.632 186.042 264.968C185.194 267.304 183.994 269.224 182.442 270.728H179.058ZM195.914 248.96L195.53 260.552H192.698L192.29 248.96H195.914ZM194.186 266.168C193.578 266.168 193.074 265.984 192.674 265.616C192.29 265.232 192.098 264.76 192.098 264.2C192.098 263.64 192.29 263.176 192.674 262.808C193.074 262.424 193.578 262.232 194.186 262.232C194.778 262.232 195.266 262.424 195.65 262.808C196.034 263.176 196.226 263.64 196.226 264.2C196.226 264.76 196.034 265.232 195.65 265.616C195.266 265.984 194.778 266.168 194.186 266.168ZM212.846 250.256C214.702 250.256 216.31 250.6 217.67 251.288C219.03 251.976 220.07 252.944 220.79 254.192C221.526 255.44 221.894 256.88 221.894 258.512C221.894 259.824 221.662 261.064 221.198 262.232C220.75 263.4 220.094 264.344 219.23 265.064C218.366 265.784 217.342 266.144 216.158 266.144C215.326 266.144 214.654 265.976 214.142 265.64C213.63 265.288 213.302 264.792 213.158 264.152C212.694 264.776 212.094 265.272 211.358 265.64C210.622 265.992 209.846 266.168 209.03 266.168C207.814 266.168 206.862 265.808 206.174 265.088C205.486 264.352 205.142 263.352 205.142 262.088C205.142 260.888 205.39 259.768 205.886 258.728C206.382 257.688 207.07 256.856 207.95 256.232C208.83 255.592 209.822 255.272 210.926 255.272C212.302 255.272 213.246 255.752 213.758 256.712L213.974 255.464H216.782L215.654 261.944C215.606 262.248 215.582 262.528 215.582 262.784C215.582 263.168 215.662 263.456 215.822 263.648C215.982 263.84 216.254 263.936 216.638 263.936C217.214 263.936 217.694 263.664 218.078 263.12C218.478 262.576 218.774 261.896 218.966 261.08C219.174 260.264 219.278 259.448 219.278 258.632C219.278 256.696 218.686 255.2 217.502 254.144C216.318 253.072 214.646 252.536 212.486 252.536C210.646 252.536 208.982 252.984 207.494 253.88C206.006 254.76 204.838 255.968 203.99 257.504C203.158 259.024 202.742 260.72 202.742 262.592C202.742 264.576 203.326 266.104 204.494 267.176C205.678 268.248 207.35 268.784 209.51 268.784C211.062 268.784 212.43 268.504 213.614 267.944L214.094 270.152C212.574 270.792 210.886 271.112 209.03 271.112C207.238 271.112 205.67 270.768 204.326 270.08C202.982 269.408 201.942 268.448 201.206 267.2C200.47 265.952 200.102 264.504 200.102 262.856C200.102 260.504 200.646 258.368 201.734 256.448C202.838 254.528 204.358 253.016 206.294 251.912C208.246 250.808 210.43 250.256 212.846 250.256ZM210.086 263.672C210.662 263.672 211.19 263.504 211.67 263.168C212.15 262.832 212.526 262.384 212.798 261.824C213.086 261.264 213.23 260.664 213.23 260.024C213.23 259.352 213.046 258.808 212.678 258.392C212.31 257.976 211.798 257.768 211.142 257.768C210.55 257.768 210.03 257.952 209.582 258.32C209.134 258.672 208.782 259.136 208.526 259.712C208.286 260.288 208.166 260.896 208.166 261.536C208.166 262.192 208.326 262.712 208.646 263.096C208.966 263.48 209.446 263.672 210.086 263.672ZM240.033 255.224L239.241 258.92H242.289V261.92H238.593L237.729 266H234.537L235.401 261.92H231.033L230.169 266H227.001L227.865 261.92H224.241V258.92H228.513L229.305 255.224H225.705V252.224H229.953L230.793 248.24H233.961L233.121 252.224H237.489L238.329 248.24H241.521L240.681 252.224H243.753V255.224H240.033ZM236.841 255.224H232.473L231.681 258.92H236.049L236.841 255.224ZM258.506 261.176C258.506 262.008 258.29 262.792 257.858 263.528C257.442 264.248 256.818 264.848 255.986 265.328C255.17 265.792 254.202 266.064 253.082 266.144V268.088H251.546V266.12C249.946 265.976 248.658 265.496 247.682 264.68C246.706 263.848 246.202 262.728 246.17 261.32H249.77C249.866 262.472 250.458 263.168 251.546 263.408V258.824C250.394 258.536 249.466 258.248 248.762 257.96C248.058 257.672 247.45 257.208 246.938 256.568C246.426 255.928 246.17 255.056 246.17 253.952C246.17 252.56 246.666 251.424 247.658 250.544C248.666 249.664 249.962 249.16 251.546 249.032V247.088H253.082V249.032C254.618 249.16 255.842 249.624 256.754 250.424C257.682 251.224 258.202 252.328 258.314 253.736H254.69C254.642 253.272 254.474 252.872 254.186 252.536C253.914 252.184 253.546 251.936 253.082 251.792V256.328C254.282 256.632 255.226 256.928 255.914 257.216C256.618 257.488 257.226 257.944 257.738 258.584C258.25 259.208 258.506 260.072 258.506 261.176ZM249.674 253.784C249.674 254.312 249.834 254.744 250.154 255.08C250.474 255.4 250.938 255.664 251.546 255.872V251.72C250.97 251.8 250.514 252.016 250.178 252.368C249.842 252.72 249.674 253.192 249.674 253.784ZM253.082 263.456C253.69 263.344 254.162 263.096 254.498 262.712C254.85 262.328 255.026 261.864 255.026 261.32C255.026 260.792 254.858 260.368 254.522 260.048C254.186 259.728 253.706 259.464 253.082 259.256V263.456ZM261.49 252.8C261.49 251.584 261.842 250.632 262.546 249.944C263.266 249.256 264.186 248.912 265.306 248.912C266.426 248.912 267.338 249.256 268.042 249.944C268.762 250.632 269.122 251.584 269.122 252.8C269.122 254.032 268.762 254.992 268.042 255.68C267.338 256.368 266.426 256.712 265.306 256.712C264.186 256.712 263.266 256.368 262.546 255.68C261.842 254.992 261.49 254.032 261.49 252.8ZM276.898 249.2L267.466 266H264.202L273.61 249.2H276.898ZM265.282 250.928C264.402 250.928 263.962 251.552 263.962 252.8C263.962 254.064 264.402 254.696 265.282 254.696C265.714 254.696 266.05 254.544 266.29 254.24C266.53 253.92 266.65 253.44 266.65 252.8C266.65 251.552 266.194 250.928 265.282 250.928ZM272.026 262.376C272.026 261.144 272.378 260.192 273.082 259.52C273.802 258.832 274.722 258.488 275.842 258.488C276.962 258.488 277.866 258.832 278.554 259.52C279.258 260.192 279.61 261.144 279.61 262.376C279.61 263.608 279.258 264.568 278.554 265.256C277.866 265.944 276.962 266.288 275.842 266.288C274.706 266.288 273.786 265.944 273.082 265.256C272.378 264.568 272.026 263.608 272.026 262.376ZM275.818 260.504C274.906 260.504 274.45 261.128 274.45 262.376C274.45 263.64 274.906 264.272 275.818 264.272C276.714 264.272 277.162 263.64 277.162 262.376C277.162 261.128 276.714 260.504 275.818 260.504ZM284.724 261.992H281.292L287.052 249.2H290.268L296.028 261.992H292.572L288.684 253.184L284.724 261.992ZM311.357 266L309.533 264.2C307.981 265.592 306.085 266.288 303.845 266.288C302.613 266.288 301.525 266.08 300.581 265.664C299.653 265.232 298.933 264.632 298.421 263.864C297.909 263.08 297.653 262.176 297.653 261.152C297.653 260.048 297.965 259.056 298.589 258.176C299.213 257.296 300.133 256.584 301.349 256.04C300.917 255.512 300.605 255.008 300.413 254.528C300.221 254.032 300.125 253.504 300.125 252.944C300.125 252.176 300.325 251.488 300.725 250.88C301.125 250.256 301.693 249.768 302.429 249.416C303.181 249.064 304.053 248.888 305.045 248.888C306.053 248.888 306.917 249.08 307.637 249.464C308.357 249.848 308.893 250.36 309.245 251C309.597 251.64 309.749 252.352 309.701 253.136H306.437C306.453 252.608 306.325 252.208 306.053 251.936C305.781 251.648 305.413 251.504 304.949 251.504C304.501 251.504 304.125 251.64 303.821 251.912C303.533 252.168 303.389 252.504 303.389 252.92C303.389 253.32 303.509 253.72 303.749 254.12C303.989 254.504 304.381 254.984 304.925 255.56L309.148 259.736C309.181 259.704 309.205 259.672 309.221 259.64C309.237 259.608 309.253 259.576 309.269 259.544L310.637 257.264H314.141L312.461 260.216C312.141 260.84 311.797 261.432 311.429 261.992L315.485 266H311.357ZM303.941 263.504C305.253 263.504 306.413 263.04 307.421 262.112L303.293 258.032C301.741 258.72 300.965 259.696 300.965 260.96C300.965 261.68 301.237 262.288 301.781 262.784C302.325 263.264 303.045 263.504 303.941 263.504ZM325.068 249.536L326.268 251.696L323.148 252.824L326.268 253.952L325.02 256.184L322.428 254.048L322.98 257.36H320.484L321.012 254.048L318.444 256.232L317.124 253.928L320.244 252.8L317.148 251.72L318.372 249.512L321.036 251.624L320.484 248.288H323.004L322.428 251.624L325.068 249.536Z" fill="#101629"/>
</svg>
