<svg width="500" height="281" viewBox="0 0 500 281" fill="none" xmlns="http://www.w3.org/2000/svg">
<rect width="500" height="281" fill="#1E2D45"/>
<g clip-path="url(#clip0_486_19924)">
<path d="M250 200.5C283.137 200.5 310 173.637 310 140.5C310 107.363 283.137 80.5 250 80.5C216.863 80.5 190 107.363 190 140.5C190 173.637 216.863 200.5 250 200.5Z" fill="#F1D6C8"/>
<path d="M285.855 125.408C289.364 122.27 293.055 117.202 291.267 114.702C289.479 112.202 279.866 112.207 276.547 112.877C272.239 108.801 267.774 104.138 256.01 107.06C253.684 104.362 248.414 100.687 246.482 101.551C242.609 103.161 241.03 112.021 241.03 112.021C230.135 114.878 219.446 120.473 216.814 121.989C211.895 124.635 206.793 129.809 208.617 137.455C204.063 141.63 202.99 160.512 216.763 164.383C222.365 172.463 227.207 172.099 233.44 171.988C235.383 176.791 242.743 182.783 253.043 176.458C260.023 177.968 268.497 178.327 274.991 171.731C283.831 171.424 294.669 163.662 291.695 150.713C297.106 143.001 286.726 127.019 285.856 125.408H285.855Z" fill="#010B13"/>
<path d="M273.528 170.502C273.456 170.576 273.382 170.651 273.308 170.726C273.382 170.652 273.455 170.578 273.528 170.502Z" fill="white"/>
<path d="M290.351 139.499C283.253 120.694 272.985 110.57 267.254 108.818C260.928 106.87 254.563 109.382 239.955 114.318C224.47 119.55 213.846 124.009 211.028 130.508C208.305 136.788 213.34 144.718 219.488 146.051C219.391 145.176 219.545 143.925 219.577 143.725C219.747 142.664 221.707 133.894 231.719 130.086C225.671 133.476 218.076 142.2 222.234 150.084C224.413 152.859 228.125 154.95 234.221 153.382C234.757 145.264 241.079 135.289 249.065 128.619C243.752 134.84 237.255 143.512 236.338 151.781C236.265 152.427 236.247 155.371 237.845 157.469C242.914 162.204 252.458 164.196 258.255 157.738C264.097 150.557 262.72 137.264 261.885 130.327C264.45 139.57 264.87 150.046 260.747 156.987C264.125 160.44 270.345 161.023 275.983 156.416C279.724 147.729 279.646 136.621 272.034 126.409C279.893 135.716 280.671 143.425 278.263 155.41C285.546 153.441 294.094 151.325 290.352 139.498L290.351 139.499Z" fill="#ABB0C0"/>
<path d="M216.969 154.819C213.508 153.81 207.878 149.203 208.046 143.127C207.234 146.696 206.083 158.969 217.889 162.803C216.658 160.259 216.667 157.282 216.969 154.819Z" fill="#ABB0C0"/>
<path d="M232.125 163.111C227.908 163.405 220.136 159.684 219.24 154.737C218.101 156.108 216.661 161.364 219.833 165.421C223.96 170.351 227.998 170.44 233.863 170.076C232.509 167.57 232.058 165.198 232.126 163.111L232.125 163.111Z" fill="#ABB0C0"/>
<path d="M275.423 164.298C275.423 164.298 275.423 164.296 275.423 164.295C272.571 167.412 264.734 169.365 257.776 166.144C257.662 168.085 255.469 172.653 253.136 174.439C257.68 175.496 266.529 177.434 273.249 170.783C274.783 168.539 275.348 166.272 275.424 164.297L275.423 164.298Z" fill="#ABB0C0"/>
<path d="M233.605 163.212C233.288 166.43 233.779 168.76 234.479 170.655C236.317 174.484 242.714 180.75 252.527 174.724C255.045 172.589 255.657 169.236 255.593 166.9C250.951 170.42 237.475 170.268 233.605 163.212Z" fill="#ABB0C0"/>
<path d="M276.996 163.772V163.773C276.958 165.116 276.483 167.237 274.088 169.924C282.429 169.817 288.691 164.107 289.826 158.199C287.331 162.102 281.554 164.521 276.996 163.772Z" fill="#ABB0C0"/>
<path d="M234.31 170.174C234.297 170.133 234.283 170.093 234.27 170.052C234.283 170.093 234.297 170.134 234.31 170.174Z" fill="#717071"/>
<path d="M252.527 174.724C253.405 174.185 253.92 173.305 254.355 172.455C253.904 173.283 253.307 174.063 252.527 174.724Z" fill="#717071"/>
<path d="M207.731 150.261C208.309 154.988 210.69 160.465 217.889 162.803C217.427 161.848 217.14 160.832 216.977 159.805C211.112 159.702 208.348 153.145 207.73 150.262L207.731 150.261Z" fill="#858B97"/>
<path d="M217.947 160.571C218.092 162.175 218.631 163.884 219.833 165.421C223.96 170.351 227.998 170.44 233.863 170.076C233.491 169.388 233.189 168.71 232.946 168.045C222.266 169.478 219.142 163.637 217.948 160.571L217.947 160.571Z" fill="#858B97"/>
<path d="M254.355 172.455C254.401 172.364 254.448 172.272 254.493 172.182C252.09 174 249.614 175.51 244.299 175.281C237.852 174.769 234.771 171.512 233.812 168.32C233.85 168.511 233.893 168.697 233.937 168.88C233.947 168.924 233.958 168.968 233.969 169.012C234.06 169.373 234.161 169.719 234.269 170.051C234.282 170.092 234.296 170.133 234.309 170.173C234.364 170.336 234.42 170.497 234.478 170.654C236.316 174.483 242.713 180.749 252.526 174.723C253.306 174.062 253.903 173.283 254.354 172.454L254.355 172.455Z" fill="#858B97"/>
<path d="M273.249 170.784C273.813 169.958 274.246 169.129 274.572 168.312C267.211 175.474 257.448 173.352 255.315 171.978C254.649 172.97 253.9 173.854 253.136 174.44C257.68 175.497 266.528 177.434 273.249 170.784Z" fill="#858B97"/>
<path d="M275.683 167.8C275.281 168.46 274.76 169.17 274.087 169.924C280.9 169.836 286.323 166.011 288.701 161.394C286.125 166.255 277.933 168.031 275.683 167.799V167.8Z" fill="#858B97"/>
<path d="M209.447 139.629C208.576 140.772 208.302 142.11 208.302 142.11C208.08 145.798 213.269 154.469 219.905 153.609C220.187 158.458 229.31 163.797 233.508 161.405C236.408 168.291 251.247 170.07 257.088 164.418C260.62 167.664 273.167 167.278 275.763 162.093C279.753 164.245 288.476 160.521 290.154 155.939C290.508 154.216 290.005 152.502 290.005 152.502C288.199 154.724 282.161 159.175 277.489 157.667C273.986 160.879 265.986 164.057 259.852 158.861C252.789 167.835 236.166 163.019 234.676 155.25C230.026 156.498 221.287 156.079 219.336 147.994C217.893 147.389 212.892 146.549 209.447 139.629Z" fill="#1E2D45"/>
<path d="M243.216 111.218C245.725 110.271 250.928 108.641 254.003 107.751C252.22 105.91 248.305 103.091 247.199 103.334C245.61 103.773 243.77 108.622 243.216 111.218Z" fill="white"/>
<path d="M278.078 114.553C281.559 118.367 284.312 122.88 284.875 123.716C287.291 121.677 290.635 116.506 289.606 115.748C287.608 114.277 280.548 114.207 278.078 114.553Z" fill="white"/>
<path d="M238.872 114.685C238.683 114.75 238.493 114.815 238.305 114.879C238.212 114.911 238.118 114.943 238.025 114.975C237.837 115.04 237.65 115.104 237.463 115.169C237.378 115.198 237.293 115.227 237.209 115.256C236.945 115.347 236.682 115.438 236.422 115.529C236.413 115.533 236.404 115.535 236.395 115.539C236.14 115.628 235.887 115.716 235.635 115.805C235.553 115.834 235.471 115.863 235.389 115.892C235.208 115.956 235.028 116.019 234.849 116.083C234.761 116.114 234.674 116.146 234.585 116.177C234.405 116.242 234.224 116.306 234.045 116.37C233.968 116.398 233.89 116.425 233.814 116.453C233.31 116.634 232.812 116.816 232.322 116.997C232.246 117.025 232.172 117.052 232.097 117.08C231.925 117.143 231.754 117.207 231.584 117.271C231.501 117.301 231.418 117.333 231.335 117.363C231.165 117.428 230.995 117.491 230.826 117.555C230.754 117.583 230.682 117.61 230.61 117.637C230.372 117.727 230.135 117.818 229.901 117.908H229.9C229.667 117.997 229.436 118.087 229.207 118.177C229.138 118.203 229.071 118.23 229.003 118.256C228.839 118.321 228.676 118.385 228.513 118.45C228.438 118.48 228.363 118.51 228.287 118.54C228.126 118.604 227.966 118.668 227.807 118.733C227.741 118.76 227.674 118.787 227.608 118.814C227.163 118.994 226.727 119.175 226.298 119.355C226.236 119.381 226.175 119.407 226.114 119.433C225.959 119.498 225.806 119.564 225.653 119.629C225.585 119.658 225.516 119.688 225.448 119.718C225.296 119.783 225.144 119.849 224.995 119.915C224.936 119.94 224.877 119.966 224.818 119.992C224.406 120.174 224.001 120.356 223.605 120.538C223.548 120.564 223.492 120.591 223.435 120.617C223.293 120.683 223.151 120.748 223.011 120.815C222.948 120.844 222.885 120.874 222.822 120.904C222.682 120.971 222.544 121.037 222.406 121.103C222.352 121.13 222.297 121.156 222.243 121.182C221.865 121.366 221.495 121.551 221.133 121.736C221.082 121.762 221.031 121.789 220.98 121.815C220.85 121.882 220.72 121.95 220.592 122.017C220.535 122.047 220.478 122.077 220.421 122.107C220.294 122.175 220.167 122.243 220.041 122.311C219.993 122.337 219.944 122.363 219.896 122.389C219.554 122.576 219.219 122.765 218.893 122.954C218.846 122.982 218.8 123.009 218.753 123.036C218.637 123.105 218.52 123.173 218.406 123.242C218.355 123.273 218.304 123.304 218.254 123.334C218.139 123.404 218.025 123.474 217.912 123.544C217.869 123.57 217.826 123.597 217.784 123.623C217.63 123.72 217.478 123.817 217.328 123.914C223.49 121.01 244.495 113.282 255.011 121.129C265.527 128.976 279.301 119.801 272.07 111.541C270.274 110.147 268.632 109.24 267.253 108.818C260.927 106.87 254.563 109.383 239.955 114.318C239.68 114.411 239.408 114.503 239.136 114.596C239.048 114.626 238.961 114.655 238.872 114.685Z" fill="white"/>
<path d="M241.695 136.319C235.536 144.072 233.938 149.877 230.161 150.561C227.149 151.106 223.539 151.476 221.188 147.036C221.364 148.057 221.702 149.078 222.233 150.085C224.412 152.86 228.124 154.951 234.22 153.383C234.575 148.01 237.465 141.823 241.695 136.319Z" fill="#858B97"/>
<path d="M236.587 154.685C236.807 155.611 237.19 156.611 237.844 157.47C242.913 162.206 252.456 164.198 258.254 157.739C261.53 153.712 262.535 147.764 262.64 142.091C258.791 162.175 239.515 163.148 236.587 154.685Z" fill="#858B97"/>
<path d="M276.406 155.371C276.474 155.195 276.542 155.02 276.607 154.841C276.646 154.734 276.683 154.625 276.721 154.517C276.777 154.358 276.833 154.197 276.887 154.036C276.926 153.919 276.963 153.801 277.001 153.682C277.05 153.529 277.099 153.374 277.146 153.22C277.183 153.096 277.219 152.971 277.255 152.847C277.299 152.696 277.341 152.545 277.381 152.393C277.416 152.265 277.45 152.135 277.484 152.005C277.522 151.857 277.558 151.708 277.594 151.559C277.626 151.425 277.658 151.291 277.688 151.156C277.721 151.01 277.752 150.862 277.783 150.715C277.812 150.577 277.841 150.439 277.868 150.3C277.896 150.157 277.92 150.013 277.946 149.87C277.972 149.724 277.999 149.58 278.023 149.435C278.043 149.311 278.059 149.186 278.078 149.063C278.129 148.722 278.174 148.379 278.213 148.035C278.223 147.939 278.236 147.844 278.246 147.748C278.265 147.567 278.28 147.385 278.295 147.203C278.304 147.093 278.314 146.984 278.323 146.873C278.336 146.692 278.346 146.508 278.356 146.326C278.362 146.216 278.368 146.106 278.373 145.996C278.381 145.81 278.386 145.624 278.39 145.437C278.393 145.33 278.395 145.223 278.397 145.115C278.399 144.924 278.399 144.732 278.397 144.54C278.396 144.439 278.395 144.337 278.393 144.235C278.389 144.036 278.384 143.838 278.375 143.639C278.371 143.546 278.367 143.454 278.362 143.362C278.351 143.152 278.34 142.941 278.325 142.73C278.319 142.657 278.313 142.584 278.307 142.511C278.288 142.28 278.269 142.049 278.245 141.818C278.242 141.792 278.239 141.765 278.236 141.739C278.115 140.612 277.927 139.476 277.665 138.337C277.663 138.327 277.661 138.317 277.659 138.308C277.599 138.048 277.534 137.787 277.466 137.526C277.455 137.483 277.444 137.44 277.433 137.397C277.367 137.148 277.296 136.9 277.224 136.652C277.208 136.598 277.193 136.543 277.176 136.489C277.103 136.244 277.026 135.999 276.945 135.754C276.927 135.699 276.909 135.644 276.891 135.59C276.808 135.341 276.722 135.092 276.631 134.843C276.614 134.798 276.598 134.753 276.581 134.708C276.485 134.448 276.386 134.188 276.282 133.929C276.274 133.907 276.264 133.886 276.256 133.864C275.671 132.412 274.957 130.961 274.106 129.521C278.245 140.109 277.373 152.903 270.485 156.551C267.976 157.879 264.459 158.694 261.014 156.522C261.013 156.521 261.012 156.521 261.01 156.521C260.924 156.678 260.837 156.835 260.746 156.989C264.125 160.441 270.344 161.024 275.983 156.418C276.094 156.159 276.201 155.899 276.306 155.636C276.34 155.548 276.373 155.459 276.407 155.371H276.406Z" fill="#858B97"/>
<path d="M290.351 139.499C286.985 130.581 282.906 123.617 278.936 118.571C285.826 131.637 289.707 140.894 286.895 147.482C285.816 149.722 284.347 152.704 279.179 154.051C279.089 154.079 278.673 154.047 278.595 154.083C278.52 154.488 278.345 154.994 278.261 155.409C281.285 157.298 295.036 151.863 290.351 139.498V139.499Z" fill="#858B97"/>
<path d="M288.687 118.995C284.385 121.298 279.941 115.96 278.078 114.553C281.559 118.367 284.313 122.88 284.875 123.716C286.147 122.643 287.674 120.703 288.687 118.995Z" fill="#858B97"/>
<path d="M224.499 134.725C218.47 140.82 214.393 141.918 211.614 139.551C213.253 142.759 216.212 145.342 219.487 146.052C219.389 145.176 219.544 143.926 219.576 143.726C219.693 142.996 220.655 138.624 224.499 134.725Z" fill="#858B97"/>
</g>
<defs>
<clipPath id="clip0_486_19924">
<rect width="120" height="120" fill="white" transform="translate(190 80.5)"/>
</clipPath>
</defs>
</svg>
