<svg width="544" height="301" viewBox="0 0 544 301" fill="none" xmlns="http://www.w3.org/2000/svg">
<rect width="543.208" height="300.194" fill="#1E2D45"/>
<path d="M144.897 208.986C177.999 208.986 204.833 182.123 204.833 148.986C204.833 115.849 177.999 88.9858 144.897 88.9858C111.796 88.9858 84.9613 115.849 84.9613 148.986C84.9613 182.123 111.796 208.986 144.897 208.986Z" fill="#F1D6C8"/>
<path d="M180.715 133.894C184.22 130.755 187.907 125.688 186.121 123.188C184.334 120.688 174.732 120.693 171.416 121.363C167.113 117.287 162.653 112.624 150.901 115.546C148.578 112.848 143.314 109.173 141.384 110.037C137.514 111.646 135.937 120.507 135.937 120.507C125.054 123.363 114.376 128.959 111.747 130.475C106.834 133.121 101.737 138.295 103.559 145.941C99.0103 150.116 97.9376 168.997 111.697 172.869C117.293 180.949 122.129 180.584 128.355 180.474C130.297 185.277 137.648 191.268 147.937 184.944C154.91 186.454 163.375 186.813 169.862 180.217C178.693 179.91 189.519 172.148 186.548 159.199C191.953 151.487 181.585 135.505 180.715 133.894H180.715Z" fill="black"/>
<path d="M168.4 178.988C168.328 179.062 168.254 179.137 168.18 179.211C168.254 179.138 168.327 179.063 168.4 178.988Z" fill="white"/>
<path d="M185.205 147.985C178.115 129.18 167.858 119.056 162.132 117.304C155.813 115.356 149.456 117.868 134.863 122.804C119.394 128.036 108.782 132.495 105.967 138.994C103.246 145.274 108.277 153.204 114.417 154.537C114.32 153.661 114.474 152.411 114.507 152.211C114.676 151.15 116.635 142.38 126.636 138.572C120.594 141.962 113.007 150.685 117.161 158.57C119.338 161.345 123.046 163.436 129.135 161.868C129.671 153.75 135.986 143.774 143.963 137.105C138.656 143.326 132.166 151.998 131.25 160.266C131.177 160.913 131.159 163.856 132.755 165.954C137.819 170.69 147.352 172.682 153.144 166.223C158.979 159.043 157.604 145.75 156.769 138.813C159.331 148.056 159.751 158.532 155.633 165.473C159.007 168.925 165.22 169.509 170.852 164.902C174.589 156.215 174.512 145.107 166.908 134.895C174.758 144.202 175.535 151.91 173.129 163.895C180.405 161.927 188.944 159.81 185.206 147.984L185.205 147.985Z" fill="#ABB0C0"/>
<path d="M111.902 163.304C108.444 162.295 102.82 157.688 102.988 151.613C102.177 155.182 101.027 167.454 112.82 171.288C111.591 168.745 111.6 165.768 111.902 163.304Z" fill="#ABB0C0"/>
<path d="M127.041 171.597C122.829 171.891 115.065 168.17 114.17 163.223C113.032 164.594 111.593 169.85 114.762 173.907C118.884 178.837 122.919 178.926 128.777 178.562C127.424 176.056 126.974 173.684 127.042 171.597L127.041 171.597Z" fill="#ABB0C0"/>
<path d="M170.293 172.784C170.293 172.784 170.293 172.782 170.293 172.781C167.444 175.898 159.615 177.851 152.665 174.63C152.551 176.571 150.36 181.139 148.029 182.925C152.569 183.982 161.408 185.92 168.122 179.269C169.653 177.025 170.218 174.757 170.294 172.783L170.293 172.784Z" fill="#ABB0C0"/>
<path d="M128.52 171.698C128.203 174.916 128.694 177.246 129.392 179.141C131.229 182.97 137.619 189.236 147.421 183.21C149.937 181.075 150.548 177.722 150.484 175.386C145.847 178.906 132.385 178.754 128.52 171.698Z" fill="#ABB0C0"/>
<path d="M171.864 172.257V172.258C171.826 173.602 171.352 175.723 168.959 178.409C177.291 178.302 183.547 172.592 184.68 166.685C182.188 170.587 176.418 173.007 171.864 172.257Z" fill="#ABB0C0"/>
<path d="M129.225 178.659C129.211 178.619 129.197 178.578 129.185 178.537C129.198 178.578 129.211 178.619 129.225 178.659Z" fill="#717071"/>
<path d="M147.422 183.21C148.298 182.671 148.812 181.791 149.246 180.94C148.796 181.769 148.2 182.548 147.422 183.21Z" fill="#717071"/>
<path d="M102.673 158.747C103.251 163.474 105.629 168.951 112.82 171.289C112.359 170.334 112.072 169.318 111.909 168.291C106.051 168.188 103.29 161.631 102.673 158.748L102.673 158.747Z" fill="#858B97"/>
<path d="M112.879 169.057C113.023 170.661 113.562 172.37 114.762 173.907C118.885 178.837 122.919 178.926 128.778 178.562C128.406 177.874 128.105 177.195 127.861 176.531C117.193 177.964 114.072 172.123 112.88 169.057L112.879 169.057Z" fill="#858B97"/>
<path d="M149.248 180.941C149.294 180.85 149.341 180.758 149.385 180.668C146.985 182.486 144.512 183.995 139.202 183.767C132.763 183.255 129.685 179.998 128.727 176.805C128.765 176.997 128.808 177.183 128.852 177.366C128.862 177.41 128.873 177.454 128.884 177.498C128.974 177.859 129.075 178.205 129.183 178.537C129.197 178.578 129.21 178.619 129.223 178.659C129.278 178.822 129.334 178.983 129.392 179.14C131.228 182.969 137.618 189.235 147.421 183.209C148.2 182.548 148.796 181.769 149.247 180.94L149.248 180.941Z" fill="#858B97"/>
<path d="M168.122 179.27C168.685 178.443 169.117 177.615 169.443 176.798C162.091 183.96 152.338 181.838 150.207 180.464C149.541 181.456 148.794 182.34 148.03 182.925C152.569 183.982 161.408 185.92 168.122 179.27Z" fill="#858B97"/>
<path d="M170.553 176.286C170.151 176.946 169.63 177.655 168.958 178.409C175.764 178.322 181.181 174.497 183.557 169.879C180.984 174.741 172.8 176.517 170.553 176.285V176.286Z" fill="#858B97"/>
<path d="M104.387 148.115C103.517 149.258 103.244 150.596 103.244 150.596C103.022 154.284 108.206 162.955 114.834 162.095C115.116 166.944 124.229 172.283 128.422 169.891C131.319 176.778 146.143 178.556 151.977 172.904C155.506 176.15 168.039 175.764 170.632 170.579C174.619 172.732 183.332 169.007 185.009 164.425C185.362 162.702 184.859 160.988 184.859 160.988C183.055 163.21 177.023 167.661 172.357 166.153C168.858 169.365 160.866 172.543 154.739 167.347C147.683 176.322 131.078 171.505 129.589 163.736C124.944 164.985 116.215 164.565 114.266 156.48C112.825 155.875 107.828 155.035 104.387 148.115Z" fill="#1E2D45"/>
<path d="M138.121 119.704C140.626 118.756 145.824 117.127 148.896 116.237C147.115 114.396 143.204 111.577 142.099 111.82C140.512 112.259 138.673 117.108 138.121 119.704Z" fill="white"/>
<path d="M172.946 123.039C176.423 126.853 179.173 131.365 179.735 132.202C182.149 130.163 185.49 124.991 184.461 124.234C182.466 122.763 175.413 122.693 172.946 123.039Z" fill="white"/>
<path d="M133.781 123.171C133.592 123.236 133.403 123.301 133.215 123.365C133.121 123.397 133.028 123.429 132.935 123.461C132.747 123.526 132.56 123.59 132.373 123.655C132.288 123.684 132.204 123.713 132.119 123.742C131.856 123.833 131.594 123.924 131.334 124.015C131.325 124.019 131.316 124.021 131.307 124.025C131.052 124.113 130.799 124.202 130.548 124.291C130.465 124.32 130.384 124.349 130.301 124.378C130.121 124.442 129.941 124.505 129.763 124.569C129.675 124.6 129.587 124.631 129.499 124.663C129.318 124.727 129.138 124.792 128.959 124.856C128.882 124.884 128.805 124.911 128.728 124.939C128.225 125.12 127.728 125.302 127.238 125.483C127.162 125.51 127.088 125.538 127.013 125.566C126.842 125.629 126.671 125.693 126.501 125.757C126.417 125.787 126.335 125.819 126.252 125.849C126.082 125.913 125.912 125.977 125.743 126.041C125.671 126.069 125.6 126.095 125.528 126.123C125.29 126.213 125.054 126.304 124.82 126.393H124.818C124.586 126.483 124.355 126.573 124.126 126.662C124.058 126.689 123.99 126.715 123.923 126.742C123.759 126.807 123.596 126.871 123.433 126.936C123.358 126.966 123.283 126.996 123.208 127.026C123.047 127.09 122.887 127.154 122.728 127.219C122.662 127.246 122.595 127.272 122.529 127.3C122.085 127.48 121.649 127.66 121.22 127.841C121.159 127.867 121.097 127.893 121.037 127.919C120.882 127.984 120.729 128.049 120.577 128.115C120.508 128.144 120.439 128.174 120.371 128.203C120.219 128.269 120.068 128.335 119.919 128.4C119.86 128.426 119.801 128.452 119.742 128.478C119.331 128.659 118.926 128.841 118.53 129.024C118.474 129.05 118.417 129.076 118.36 129.103C118.218 129.168 118.077 129.234 117.937 129.301C117.874 129.33 117.811 129.36 117.748 129.39C117.609 129.456 117.47 129.523 117.333 129.589C117.279 129.616 117.224 129.642 117.17 129.668C116.793 129.852 116.423 130.036 116.061 130.222C116.01 130.248 115.959 130.275 115.908 130.301C115.778 130.368 115.648 130.435 115.521 130.502C115.464 130.533 115.407 130.563 115.35 130.593C115.223 130.661 115.096 130.728 114.971 130.797C114.922 130.823 114.874 130.849 114.826 130.875C114.483 131.062 114.149 131.251 113.824 131.44C113.777 131.467 113.731 131.495 113.684 131.522C113.567 131.591 113.451 131.659 113.337 131.728C113.286 131.759 113.235 131.789 113.185 131.82C113.07 131.89 112.956 131.96 112.843 132.03C112.801 132.056 112.757 132.083 112.715 132.109C112.561 132.206 112.41 132.302 112.26 132.4C118.415 129.496 139.398 121.768 149.903 129.615C160.408 137.462 174.167 128.287 166.944 120.027C165.149 118.632 163.509 117.725 162.132 117.304C155.813 115.356 149.455 117.868 134.863 122.804C134.588 122.897 134.316 122.989 134.045 123.081C133.957 123.112 133.87 123.141 133.781 123.171Z" fill="white"/>
<path d="M136.601 144.805C130.449 152.557 128.852 158.363 125.079 159.047C122.07 159.592 118.465 159.962 116.116 155.522C116.291 156.543 116.63 157.564 117.16 158.571C119.337 161.345 123.045 163.437 129.134 161.869C129.488 156.496 132.376 150.309 136.602 144.805H136.601Z" fill="#858B97"/>
<path d="M131.498 163.171C131.718 164.096 132.1 165.097 132.754 165.955C137.818 170.691 147.351 172.683 153.143 166.224C156.415 162.197 157.419 156.249 157.523 150.577C153.679 170.66 134.424 171.634 131.498 163.171Z" fill="#858B97"/>
<path d="M171.276 163.857C171.344 163.681 171.411 163.505 171.476 163.327C171.515 163.219 171.552 163.111 171.59 163.003C171.646 162.843 171.702 162.683 171.756 162.521C171.795 162.404 171.832 162.286 171.87 162.168C171.919 162.014 171.968 161.859 172.014 161.705C172.052 161.581 172.088 161.457 172.124 161.332C172.167 161.181 172.209 161.03 172.25 160.879C172.285 160.75 172.319 160.62 172.352 160.49C172.39 160.342 172.426 160.193 172.462 160.044C172.494 159.91 172.526 159.776 172.556 159.641C172.589 159.495 172.62 159.347 172.651 159.201C172.68 159.062 172.709 158.924 172.736 158.785C172.764 158.642 172.788 158.498 172.814 158.355C172.84 158.21 172.867 158.066 172.89 157.92C172.91 157.797 172.927 157.672 172.946 157.548C172.996 157.207 173.041 156.865 173.08 156.52C173.091 156.424 173.104 156.329 173.114 156.233C173.132 156.053 173.147 155.871 173.162 155.689C173.172 155.579 173.182 155.469 173.19 155.359C173.204 155.177 173.213 154.994 173.223 154.811C173.229 154.701 173.235 154.591 173.24 154.481C173.248 154.295 173.253 154.109 173.258 153.923C173.26 153.816 173.263 153.708 173.264 153.6C173.266 153.409 173.266 153.218 173.264 153.026C173.263 152.924 173.262 152.822 173.26 152.721C173.256 152.522 173.251 152.323 173.243 152.124C173.239 152.032 173.234 151.94 173.229 151.847C173.219 151.637 173.208 151.427 173.192 151.216C173.187 151.143 173.18 151.069 173.174 150.996C173.156 150.765 173.136 150.535 173.112 150.303C173.109 150.277 173.106 150.25 173.103 150.224C172.983 149.097 172.795 147.962 172.534 146.822C172.531 146.813 172.53 146.803 172.527 146.793C172.467 146.533 172.402 146.272 172.334 146.012C172.323 145.969 172.313 145.925 172.301 145.882C172.235 145.634 172.165 145.385 172.093 145.137C172.077 145.083 172.061 145.029 172.045 144.975C171.972 144.73 171.895 144.484 171.814 144.239C171.796 144.184 171.778 144.13 171.76 144.075C171.677 143.826 171.591 143.578 171.5 143.329C171.484 143.283 171.467 143.238 171.45 143.193C171.354 142.934 171.256 142.673 171.152 142.414C171.144 142.392 171.134 142.371 171.126 142.349C170.541 140.897 169.828 139.446 168.978 138.007C173.113 148.594 172.241 161.388 165.361 165.036C162.855 166.365 159.341 167.179 155.9 165.007C155.899 165.007 155.898 165.007 155.896 165.006C155.81 165.163 155.724 165.321 155.633 165.474C159.008 168.926 165.22 169.509 170.853 164.903C170.963 164.645 171.071 164.384 171.175 164.121C171.21 164.033 171.243 163.945 171.277 163.857H171.276Z" fill="#858B97"/>
<path d="M185.205 147.985C181.843 139.067 177.768 132.103 173.802 127.057C180.685 140.123 184.561 149.38 181.753 155.968C180.675 158.208 179.208 161.19 174.044 162.537C173.955 162.564 173.539 162.533 173.462 162.569C173.387 162.973 173.211 163.48 173.128 163.895C176.149 165.784 189.885 160.349 185.205 147.984V147.985Z" fill="#858B97"/>
<path d="M183.543 127.481C179.245 129.784 174.807 124.446 172.946 123.039C176.423 126.853 179.173 131.365 179.735 132.201C181.005 131.129 182.531 129.189 183.543 127.481Z" fill="#858B97"/>
<path d="M119.423 143.21C113.4 149.305 109.328 150.403 106.552 148.036C108.189 151.245 111.145 153.827 114.416 154.537C114.319 153.661 114.473 152.411 114.506 152.211C114.622 151.482 115.584 147.109 119.423 143.21Z" fill="#858B97"/>
<path d="M229.835 171.237C227.44 170.188 225.56 168.701 224.193 166.775C222.824 164.85 222.14 162.603 222.14 160.035H229.963C230.133 161.961 230.893 163.545 232.239 164.785C233.586 166.027 235.477 166.646 237.914 166.646C240.436 166.646 242.402 166.037 243.813 164.817C245.223 163.597 245.929 162.025 245.929 160.099C245.929 158.601 245.49 157.381 244.614 156.44C243.738 155.499 242.647 154.771 241.344 154.258C240.039 153.744 238.234 153.189 235.926 152.589C233.018 151.819 230.656 151.038 228.84 150.246C227.022 149.455 225.473 148.224 224.191 146.555C222.908 144.886 222.267 142.661 222.267 139.879C222.267 137.312 222.908 135.065 224.191 133.139C225.473 131.213 227.269 129.737 229.577 128.71C231.885 127.683 234.556 127.169 237.592 127.169C241.91 127.169 245.447 128.25 248.204 130.411C250.962 132.572 252.49 135.536 252.789 139.301H244.71C244.582 137.675 243.813 136.284 242.402 135.128C240.991 133.973 239.132 133.395 236.823 133.395C234.728 133.395 233.018 133.931 231.693 135C230.368 136.07 229.705 137.611 229.705 139.622C229.705 140.992 230.122 142.115 230.955 142.992C231.789 143.869 232.847 144.565 234.129 145.078C235.412 145.592 237.165 146.149 239.387 146.747C242.337 147.56 244.742 148.373 246.6 149.186C248.46 150 250.041 151.251 251.346 152.942C252.649 154.633 253.301 156.89 253.301 159.714C253.301 161.983 252.692 164.122 251.473 166.133C250.255 168.145 248.48 169.76 246.151 170.979C243.821 172.199 241.075 172.809 237.912 172.809C234.919 172.809 232.226 172.285 229.832 171.236L229.835 171.237Z" fill="white"/>
<path d="M262.312 145.047C263.787 142.287 265.827 140.159 268.435 138.66C271.043 137.163 274.035 136.414 277.412 136.414C281.687 136.414 285.225 137.431 288.025 139.463C290.825 141.496 292.716 144.396 293.7 148.161H285.813C285.172 146.407 284.146 145.038 282.734 144.053C281.324 143.069 279.55 142.577 277.412 142.577C274.419 142.577 272.037 143.636 270.263 145.754C268.488 147.872 267.602 150.837 267.602 154.644C267.602 158.452 268.488 161.427 270.263 163.567C272.037 165.707 274.42 166.777 277.412 166.777C281.644 166.777 284.444 164.915 285.813 161.192H293.7C292.674 164.786 290.75 167.643 287.929 169.762C285.108 171.88 281.602 172.939 277.412 172.939C274.035 172.939 271.043 172.18 268.435 170.66C265.827 169.142 263.787 167.002 262.312 164.241C260.837 161.481 260.1 158.282 260.1 154.644C260.1 151.006 260.837 147.808 262.312 145.048V145.047Z" fill="white"/>
<path d="M301.362 145.079C302.836 142.341 304.846 140.211 307.389 138.692C309.932 137.173 312.743 136.413 315.821 136.413C318.599 136.413 321.025 136.959 323.099 138.05C325.172 139.141 326.828 140.5 328.069 142.126V136.991H335.443V172.36H328.069V167.097C326.828 168.765 325.14 170.157 323.003 171.269C320.865 172.381 318.428 172.938 315.693 172.938C312.657 172.938 309.879 172.157 307.357 170.595C304.834 169.033 302.836 166.85 301.362 164.047C299.886 161.245 299.149 158.067 299.149 154.515C299.149 150.963 299.886 147.818 301.362 145.079ZM326.562 148.288C325.557 146.491 324.243 145.122 322.618 144.18C320.993 143.239 319.241 142.768 317.36 142.768C315.48 142.768 313.726 143.229 312.103 144.148C310.478 145.069 309.163 146.417 308.159 148.193C307.154 149.969 306.652 152.076 306.652 154.515C306.652 156.954 307.154 159.095 308.159 160.934C309.163 162.775 310.488 164.176 312.135 165.139C313.779 166.102 315.522 166.583 317.36 166.583C319.241 166.583 320.993 166.113 322.618 165.171C324.242 164.23 325.557 162.85 326.562 161.03C327.566 159.212 328.069 157.083 328.069 154.644C328.069 152.205 327.566 150.085 326.562 148.288Z" fill="white"/>
<path d="M352.948 124.859V172.36H345.638V124.859H352.948Z" fill="white"/>
<path d="M370.453 124.859V172.36H363.143V124.859H370.453Z" fill="white"/>
<path d="M386.931 170.659C384.239 169.141 382.122 167 380.583 164.24C379.044 161.48 378.275 158.281 378.275 154.643C378.275 151.049 379.065 147.861 380.647 145.079C382.228 142.298 384.388 140.158 387.124 138.66C389.859 137.162 392.915 136.413 396.293 136.413C399.671 136.413 402.726 137.162 405.463 138.66C408.198 140.158 410.358 142.298 411.939 145.079C413.52 147.861 414.312 151.049 414.312 154.643C414.312 158.237 413.499 161.426 411.875 164.207C410.25 166.99 408.038 169.141 405.239 170.658C402.438 172.178 399.349 172.937 395.973 172.937C392.639 172.937 389.625 172.178 386.932 170.658L386.931 170.659ZM401.263 165.235C402.908 164.336 404.245 162.988 405.271 161.191C406.296 159.393 406.809 157.211 406.809 154.643C406.809 152.075 406.318 149.904 405.335 148.128C404.351 146.353 403.047 145.015 401.423 144.116C399.798 143.217 398.046 142.768 396.165 142.768C394.285 142.768 392.542 143.217 390.939 144.116C389.336 145.015 388.064 146.353 387.124 148.128C386.183 149.904 385.714 152.076 385.714 154.643C385.714 158.453 386.685 161.394 388.631 163.469C390.576 165.546 393.024 166.583 395.973 166.583C397.854 166.583 399.618 166.133 401.263 165.235L401.263 165.235Z" fill="white"/>
<path d="M434.51 138.082C436.646 136.97 439.063 136.413 441.756 136.413C444.833 136.413 447.643 137.173 450.187 138.692C452.73 140.211 454.729 142.341 456.183 145.079C457.636 147.818 458.363 150.963 458.363 154.515C458.363 158.067 457.636 161.245 456.183 164.047C454.729 166.851 452.73 169.033 450.187 170.595C447.643 172.157 444.833 172.938 441.756 172.938C439.063 172.938 436.667 172.392 434.573 171.301C432.479 170.21 430.768 168.852 429.444 167.225V189.178H422.134V136.991H429.444V142.19C430.683 140.565 432.371 139.195 434.51 138.082ZM449.418 148.192C448.413 146.417 447.087 145.069 445.443 144.148C443.797 143.228 442.033 142.768 440.153 142.768C438.314 142.768 436.572 143.239 434.926 144.18C433.28 145.121 431.955 146.49 430.951 148.288C429.946 150.085 429.444 152.203 429.444 154.642C429.444 157.082 429.946 159.211 430.951 161.029C431.955 162.849 433.28 164.229 434.926 165.17C436.571 166.112 438.314 166.582 440.153 166.582C442.033 166.582 443.797 166.101 445.443 165.138C447.087 164.175 448.413 162.773 449.418 160.933C450.422 159.094 450.924 156.954 450.924 154.514C450.924 152.074 450.422 149.968 449.418 148.192V148.192Z" fill="white"/>
</svg>
