<svg width="500" height="281" viewBox="0 0 500 281" fill="none" xmlns="http://www.w3.org/2000/svg">
<rect width="500" height="281" fill="#1E2D45"/>
<path d="M123.293 199.389C156.395 199.389 183.229 172.526 183.229 139.389C183.229 106.252 156.395 79.3889 123.293 79.3889C90.1914 79.3889 63.3572 106.252 63.3572 139.389C63.3572 172.526 90.1914 199.389 123.293 199.389Z" fill="#F1D6C8"/>
<path d="M159.111 124.297C162.615 121.158 166.303 116.091 164.517 113.591C162.73 111.091 153.128 111.096 149.812 111.766C145.508 107.69 141.049 103.027 129.297 105.949C126.974 103.251 121.71 99.5764 119.779 100.44C115.91 102.049 114.333 110.91 114.333 110.91C103.45 113.766 92.772 119.362 90.1432 120.878C85.2296 123.524 80.1325 128.698 81.9551 136.344C77.4061 140.519 76.3334 159.401 90.0925 163.272C95.6885 171.352 100.525 170.988 106.751 170.877C108.693 175.68 116.044 181.671 126.333 175.347C133.305 176.857 141.771 177.216 148.258 170.62C157.089 170.313 167.914 162.551 164.944 149.602C170.349 141.89 159.981 125.908 159.111 124.297H159.111Z" fill="#010B13"/>
<path d="M146.795 169.391C146.724 169.465 146.65 169.54 146.576 169.614C146.65 169.541 146.723 169.467 146.795 169.391Z" fill="white"/>
<path d="M163.601 138.388C156.511 119.583 146.254 109.459 140.528 107.707C134.209 105.759 127.852 108.271 113.259 113.207C97.7899 118.439 87.1776 122.898 84.3626 129.397C81.6423 135.677 86.6725 143.607 92.8133 144.94C92.7162 144.064 92.8701 142.814 92.9025 142.614C93.072 141.553 95.0306 132.783 105.032 128.975C98.9897 132.365 91.4027 141.088 95.5569 148.973C97.7336 151.748 101.442 153.839 107.531 152.271C108.067 144.153 114.382 134.178 122.359 127.508C117.052 133.729 110.562 142.401 109.645 150.669C109.572 151.316 109.555 154.259 111.151 156.357C116.214 161.093 125.748 163.085 131.54 156.626C137.375 149.446 135.999 136.153 135.165 129.216C137.727 138.459 138.147 148.935 134.029 155.876C137.403 159.328 143.616 159.912 149.248 155.305C152.985 146.618 152.908 135.51 145.304 125.298C153.154 134.605 153.931 142.314 151.525 154.298C158.801 152.33 167.34 150.213 163.602 138.387L163.601 138.388Z" fill="#ABB0C0"/>
<path d="M90.2977 153.708C86.8404 152.698 81.2164 148.091 81.3837 142.016C80.573 145.585 79.4234 157.857 91.216 161.691C89.9871 159.148 89.9955 156.171 90.2977 153.708Z" fill="#ABB0C0"/>
<path d="M105.437 162C101.225 162.294 93.4612 158.573 92.5663 153.626C91.4284 154.997 89.9893 160.253 93.1579 164.31C97.2803 169.24 101.315 169.329 107.173 168.965C105.82 166.459 105.37 164.087 105.438 162L105.437 162Z" fill="#ABB0C0"/>
<path d="M148.689 163.187C148.689 163.187 148.689 163.185 148.689 163.184C145.84 166.301 138.011 168.254 131.061 165.033C130.946 166.974 128.756 171.542 126.425 173.328C130.965 174.385 139.804 176.323 146.517 169.672C148.049 167.428 148.614 165.16 148.69 163.186L148.689 163.187Z" fill="#ABB0C0"/>
<path d="M106.916 162.101C106.599 165.319 107.09 167.649 107.788 169.544C109.625 173.373 116.015 179.639 125.817 173.613C128.333 171.478 128.944 168.125 128.88 165.789C124.243 169.309 110.781 169.157 106.916 162.101Z" fill="#ABB0C0"/>
<path d="M150.26 162.66V162.661C150.222 164.005 149.748 166.126 147.355 168.812C155.687 168.705 161.943 162.996 163.076 157.088C160.584 160.99 154.814 163.41 150.26 162.66Z" fill="#ABB0C0"/>
<path d="M107.62 169.062C107.607 169.022 107.593 168.981 107.58 168.94C107.594 168.981 107.607 169.022 107.62 169.062Z" fill="#717071"/>
<path d="M125.818 173.613C126.694 173.074 127.208 172.194 127.642 171.344C127.192 172.172 126.596 172.952 125.818 173.613Z" fill="#717071"/>
<path d="M81.0692 149.15C81.6468 153.877 84.0247 159.354 91.2159 161.692C90.7548 160.737 90.4677 159.721 90.3049 158.694C84.4468 158.591 81.6858 152.034 81.0686 149.151L81.0692 149.15Z" fill="#858B97"/>
<path d="M91.2749 159.46C91.4193 161.064 91.9579 162.773 93.1583 164.31C97.2808 169.24 101.315 169.329 107.174 168.965C106.802 168.277 106.501 167.599 106.257 166.934C95.5892 168.367 92.468 162.526 91.2755 159.46L91.2749 159.46Z" fill="#858B97"/>
<path d="M127.643 171.344C127.69 171.253 127.737 171.161 127.781 171.071C125.381 172.889 122.908 174.398 117.598 174.17C111.159 173.658 108.08 170.401 107.123 167.208C107.161 167.4 107.203 167.586 107.247 167.769C107.258 167.813 107.269 167.857 107.28 167.901C107.37 168.262 107.471 168.608 107.579 168.94C107.593 168.981 107.606 169.022 107.619 169.062C107.674 169.225 107.73 169.386 107.788 169.543C109.624 173.372 116.014 179.638 125.816 173.612C126.596 172.951 127.192 172.172 127.642 171.343L127.643 171.344Z" fill="#858B97"/>
<path d="M146.517 169.673C147.081 168.847 147.513 168.018 147.839 167.201C140.486 174.363 130.734 172.241 128.602 170.867C127.937 171.859 127.19 172.743 126.426 173.328C130.965 174.386 139.804 176.323 146.517 169.673Z" fill="#858B97"/>
<path d="M148.949 166.689C148.547 167.349 148.026 168.058 147.354 168.813C154.16 168.725 159.577 164.9 161.953 160.282C159.379 165.144 151.196 166.92 148.949 166.688V166.689Z" fill="#858B97"/>
<path d="M82.783 138.518C81.9133 139.661 81.6395 140.999 81.6395 140.999C81.4182 144.687 86.6017 153.357 93.2297 152.498C93.5118 157.346 102.625 162.686 106.818 160.294C109.715 167.18 124.539 168.959 130.373 163.307C133.901 166.553 146.435 166.167 149.028 160.982C153.015 163.134 161.728 159.41 163.404 154.828C163.758 153.105 163.255 151.391 163.255 151.391C161.451 153.613 155.419 158.064 150.753 156.556C147.253 159.768 139.262 162.946 133.135 157.75C126.079 166.724 109.474 161.908 107.985 154.139C103.34 155.387 94.6108 154.968 92.6616 146.882C91.2203 146.278 86.2242 145.438 82.783 138.518Z" fill="#1E2D45"/>
<path d="M116.517 110.107C119.022 109.16 124.22 107.53 127.292 106.64C125.511 104.799 121.6 101.98 120.495 102.223C118.907 102.662 117.069 107.511 116.517 110.107Z" fill="white"/>
<path d="M151.341 113.442C154.819 117.256 157.569 121.768 158.131 122.605C160.545 120.566 163.886 115.395 162.857 114.637C160.861 113.166 153.809 113.096 151.341 113.442Z" fill="white"/>
<path d="M112.177 113.574C111.988 113.639 111.799 113.704 111.611 113.768C111.517 113.8 111.424 113.832 111.331 113.864C111.143 113.929 110.956 113.993 110.769 114.058C110.684 114.087 110.599 114.116 110.515 114.145C110.252 114.236 109.99 114.327 109.73 114.418C109.721 114.422 109.712 114.424 109.703 114.428C109.448 114.516 109.195 114.605 108.944 114.694C108.861 114.723 108.78 114.752 108.697 114.781C108.517 114.845 108.337 114.908 108.159 114.972C108.07 115.003 107.983 115.034 107.895 115.066C107.714 115.13 107.534 115.195 107.355 115.259C107.278 115.287 107.201 115.314 107.124 115.342C106.621 115.523 106.123 115.705 105.633 115.886C105.558 115.913 105.484 115.941 105.409 115.969C105.238 116.032 105.066 116.096 104.896 116.16C104.813 116.19 104.731 116.222 104.648 116.252C104.478 116.316 104.308 116.38 104.139 116.444C104.067 116.472 103.995 116.498 103.923 116.526C103.686 116.616 103.45 116.707 103.215 116.796H103.214C102.982 116.886 102.751 116.976 102.522 117.065C102.454 117.092 102.386 117.119 102.319 117.145C102.155 117.21 101.992 117.274 101.829 117.339C101.754 117.369 101.679 117.399 101.603 117.429C101.442 117.493 101.283 117.557 101.124 117.622C101.058 117.649 100.991 117.676 100.924 117.703C100.481 117.883 100.045 118.063 99.6159 118.244C99.5545 118.27 99.4932 118.296 99.4324 118.322C99.278 118.387 99.1247 118.452 98.9724 118.518C98.9039 118.547 98.8353 118.577 98.7667 118.607C98.6151 118.672 98.464 118.738 98.3145 118.804C98.2554 118.829 98.1963 118.855 98.1378 118.881C97.7263 119.063 97.3221 119.244 96.9263 119.427C96.8694 119.453 96.8131 119.479 96.7562 119.506C96.614 119.572 96.473 119.637 96.3325 119.704C96.2695 119.733 96.2065 119.763 96.144 119.793C96.0046 119.86 95.8658 119.926 95.7287 119.992C95.6746 120.019 95.6199 120.045 95.5659 120.071C95.1884 120.255 94.8187 120.439 94.4569 120.625C94.4056 120.651 94.3549 120.678 94.3036 120.704C94.1737 120.771 94.0443 120.839 93.9166 120.905C93.8598 120.936 93.8029 120.966 93.746 120.996C93.6184 121.064 93.4918 121.132 93.3664 121.2C93.3178 121.226 93.2693 121.252 93.2214 121.278C92.8791 121.465 92.5451 121.654 92.2195 121.843C92.1726 121.871 92.1264 121.898 92.0795 121.925C91.963 121.994 91.847 122.062 91.7327 122.131C91.682 122.162 91.6313 122.193 91.5805 122.223C91.4657 122.293 91.3519 122.363 91.2388 122.433C91.1964 122.459 91.1529 122.486 91.1111 122.512C90.9572 122.609 90.8055 122.705 90.6561 122.803C96.8108 119.899 117.794 112.171 128.299 120.018C138.803 127.865 152.563 118.69 145.339 110.43C143.545 109.036 141.905 108.129 140.528 107.707C134.209 105.759 127.851 108.271 113.258 113.207C112.984 113.3 112.712 113.392 112.441 113.484C112.353 113.515 112.265 113.544 112.177 113.574Z" fill="white"/>
<path d="M114.997 135.208C108.845 142.961 107.248 148.766 103.475 149.45C100.466 149.995 96.8605 150.365 94.5121 145.925C94.6872 146.946 95.0256 147.967 95.5558 148.974C97.7325 151.748 101.441 153.84 107.53 152.272C107.884 146.899 110.772 140.712 114.997 135.208H114.997Z" fill="#858B97"/>
<path d="M109.894 153.574C110.114 154.5 110.496 155.5 111.15 156.358C116.213 161.094 125.747 163.086 131.539 156.627C134.811 152.6 135.815 146.652 135.919 140.98C132.075 161.063 112.82 162.037 109.894 153.574Z" fill="#858B97"/>
<path d="M149.672 154.26C149.74 154.084 149.807 153.908 149.872 153.73C149.911 153.622 149.948 153.514 149.986 153.406C150.042 153.246 150.098 153.086 150.152 152.925C150.191 152.807 150.228 152.689 150.266 152.571C150.315 152.417 150.363 152.263 150.41 152.108C150.448 151.984 150.484 151.86 150.52 151.735C150.563 151.584 150.605 151.433 150.646 151.282C150.681 151.153 150.715 151.024 150.748 150.893C150.786 150.745 150.822 150.596 150.858 150.447C150.89 150.313 150.922 150.179 150.952 150.045C150.985 149.898 151.016 149.75 151.046 149.604C151.075 149.465 151.105 149.327 151.132 149.188C151.16 149.045 151.184 148.901 151.21 148.758C151.235 148.613 151.263 148.469 151.286 148.323C151.306 148.2 151.323 148.075 151.341 147.951C151.392 147.61 151.437 147.268 151.476 146.923C151.487 146.827 151.5 146.733 151.51 146.637C151.528 146.456 151.543 146.274 151.558 146.092C151.568 145.982 151.578 145.872 151.586 145.762C151.6 145.58 151.609 145.397 151.619 145.214C151.625 145.104 151.631 144.994 151.636 144.884C151.644 144.698 151.649 144.512 151.654 144.326C151.656 144.219 151.659 144.111 151.66 144.003C151.662 143.812 151.662 143.621 151.66 143.429C151.659 143.327 151.658 143.225 151.656 143.124C151.652 142.925 151.647 142.726 151.639 142.527C151.635 142.435 151.63 142.343 151.625 142.25C151.615 142.04 151.603 141.83 151.588 141.619C151.583 141.546 151.576 141.472 151.57 141.399C151.552 141.168 151.532 140.938 151.508 140.706C151.505 140.68 151.502 140.653 151.499 140.627C151.379 139.5 151.191 138.365 150.929 137.225C150.927 137.216 150.925 137.206 150.923 137.196C150.863 136.936 150.798 136.675 150.73 136.415C150.719 136.372 150.709 136.328 150.697 136.285C150.631 136.037 150.561 135.789 150.488 135.54C150.473 135.486 150.457 135.432 150.441 135.378C150.367 135.133 150.29 134.887 150.21 134.642C150.192 134.587 150.174 134.533 150.156 134.478C150.073 134.229 149.987 133.981 149.896 133.732C149.88 133.687 149.863 133.641 149.846 133.596C149.75 133.337 149.651 133.077 149.548 132.817C149.539 132.795 149.53 132.774 149.522 132.752C148.937 131.3 148.224 129.849 147.373 128.41C151.509 138.997 150.637 151.792 143.757 155.439C141.25 156.768 137.737 157.582 134.296 155.41C134.295 155.41 134.293 155.41 134.292 155.409C134.206 155.566 134.119 155.724 134.029 155.877C137.403 159.329 143.616 159.912 149.248 155.306C149.359 155.048 149.467 154.787 149.571 154.524C149.606 154.437 149.639 154.348 149.673 154.26H149.672Z" fill="#858B97"/>
<path d="M163.601 138.388C160.239 129.47 156.164 122.506 152.198 117.46C159.081 130.526 162.957 139.783 160.149 146.371C159.071 148.611 157.604 151.593 152.44 152.94C152.351 152.967 151.935 152.936 151.858 152.972C151.783 153.377 151.607 153.883 151.524 154.298C154.545 156.187 168.281 150.752 163.601 138.387V138.388Z" fill="#858B97"/>
<path d="M161.939 117.884C157.641 120.187 153.203 114.849 151.341 113.442C154.819 117.256 157.569 121.768 158.131 122.605C159.401 121.532 160.927 119.592 161.939 117.884Z" fill="#858B97"/>
<path d="M97.8189 133.613C91.7963 139.708 87.724 140.806 84.948 138.44C86.5849 141.648 89.541 144.23 92.8122 144.94C92.7151 144.064 92.869 142.814 92.9014 142.614C93.0179 141.885 93.9796 137.512 97.8189 133.613Z" fill="#858B97"/>
<path d="M208.231 161.64C205.836 160.591 203.956 159.105 202.589 157.178C201.22 155.253 200.536 153.006 200.536 150.438H208.359C208.529 152.364 209.289 153.948 210.635 155.188C211.981 156.43 213.873 157.049 216.31 157.049C218.832 157.049 220.798 156.44 222.209 155.22C223.619 154 224.325 152.428 224.325 150.502C224.325 149.004 223.886 147.784 223.01 146.843C222.134 145.902 221.043 145.175 219.74 144.661C218.435 144.148 216.63 143.592 214.321 142.992C211.414 142.222 209.052 141.441 207.236 140.649C205.418 139.858 203.869 138.627 202.587 136.958C201.304 135.289 200.663 133.065 200.663 130.282C200.663 127.715 201.304 125.468 202.587 123.542C203.869 121.617 205.665 120.14 207.973 119.113C210.281 118.086 212.952 117.572 215.988 117.572C220.306 117.572 223.843 118.653 226.6 120.814C229.358 122.975 230.886 125.939 231.185 129.704H223.106C222.977 128.078 222.209 126.687 220.797 125.531C219.387 124.376 217.527 123.798 215.219 123.798C213.123 123.798 211.413 124.334 210.089 125.403C208.763 126.473 208.101 128.014 208.101 130.025C208.101 131.395 208.517 132.518 209.351 133.395C210.185 134.272 211.243 134.968 212.525 135.481C213.808 135.995 215.56 136.552 217.783 137.15C220.733 137.963 223.137 138.777 224.996 139.589C226.856 140.403 228.437 141.654 229.741 143.345C231.044 145.036 231.697 147.293 231.697 150.117C231.697 152.386 231.088 154.525 229.869 156.536C228.651 158.548 226.876 160.163 224.547 161.382C222.216 162.602 219.47 163.212 216.307 163.212C213.315 163.212 210.622 162.688 208.228 161.639L208.231 161.64Z" fill="white"/>
<path d="M240.708 135.45C242.183 132.69 244.223 130.562 246.831 129.063C249.438 127.566 252.431 126.817 255.808 126.817C260.083 126.817 263.621 127.834 266.421 129.866C269.221 131.899 271.112 134.799 272.096 138.564H264.209C263.568 136.81 262.542 135.441 261.13 134.456C259.72 133.472 257.946 132.98 255.808 132.98C252.815 132.98 250.433 134.039 248.658 136.157C246.884 138.276 245.998 141.24 245.998 145.047C245.998 148.855 246.884 151.83 248.658 153.97C250.433 156.11 252.815 157.18 255.808 157.18C260.04 157.18 262.84 155.318 264.209 151.595H272.096C271.07 155.189 269.146 158.046 266.325 160.165C263.504 162.283 259.998 163.342 255.808 163.342C252.431 163.342 249.438 162.583 246.831 161.063C244.223 159.545 242.183 157.405 240.708 154.644C239.233 151.884 238.496 148.685 238.496 145.047C238.496 141.409 239.233 138.211 240.708 135.451V135.45Z" fill="white"/>
<path d="M279.758 135.482C281.232 132.744 283.242 130.614 285.785 129.095C288.328 127.576 291.139 126.816 294.217 126.816C296.995 126.816 299.421 127.362 301.495 128.453C303.568 129.544 305.224 130.903 306.465 132.529V127.394H313.839V162.763H306.465V157.5C305.224 159.168 303.536 160.56 301.399 161.672C299.26 162.784 296.823 163.341 294.089 163.341C291.053 163.341 288.275 162.56 285.753 160.998C283.23 159.436 281.232 157.253 279.758 154.45C278.282 151.648 277.545 148.47 277.545 144.918C277.545 141.366 278.282 138.221 279.758 135.482ZM304.958 138.691C303.953 136.894 302.639 135.525 301.014 134.583C299.389 133.642 297.637 133.171 295.756 133.171C293.876 133.171 292.122 133.632 290.499 134.551C288.873 135.472 287.559 136.82 286.555 138.596C285.55 140.372 285.048 142.479 285.048 144.918C285.048 147.357 285.55 149.498 286.555 151.337C287.559 153.178 288.884 154.579 290.53 155.542C292.175 156.505 293.918 156.986 295.756 156.986C297.637 156.986 299.389 156.516 301.014 155.574C302.638 154.633 303.953 153.253 304.958 151.433C305.962 149.615 306.465 147.486 306.465 145.047C306.465 142.608 305.962 140.488 304.958 138.691Z" fill="white"/>
<path d="M331.344 115.262V162.763H324.034V115.262H331.344Z" fill="white"/>
<path d="M348.848 115.262V162.763H341.538V115.262H348.848Z" fill="white"/>
<path d="M365.327 161.062C362.635 159.544 360.518 157.403 358.979 154.643C357.44 151.883 356.671 148.684 356.671 145.046C356.671 141.452 357.461 138.264 359.043 135.482C360.624 132.701 362.784 130.561 365.519 129.063C368.255 127.565 371.311 126.816 374.689 126.816C378.066 126.816 381.122 127.565 383.859 129.063C386.594 130.561 388.753 132.701 390.335 135.482C391.916 138.264 392.707 141.452 392.707 145.046C392.707 148.641 391.895 151.829 390.271 154.61C388.646 157.393 386.434 159.544 383.635 161.061C380.834 162.581 377.745 163.34 374.369 163.34C371.035 163.34 368.021 162.581 365.328 161.061L365.327 161.062ZM379.659 155.638C381.303 154.739 382.64 153.391 383.666 151.594C384.692 149.796 385.205 147.614 385.205 145.046C385.205 142.478 384.713 140.307 383.73 138.531C382.746 136.756 381.443 135.418 379.819 134.519C378.194 133.62 376.442 133.171 374.561 133.171C372.68 133.171 370.938 133.62 369.335 134.519C367.732 135.418 366.459 136.756 365.52 138.531C364.579 140.307 364.109 142.479 364.109 145.046C364.109 148.856 365.081 151.797 367.027 153.873C368.972 155.949 371.42 156.986 374.369 156.986C376.249 156.986 378.013 156.537 379.659 155.638L379.659 155.638Z" fill="white"/>
<path d="M412.906 128.485C415.042 127.373 417.459 126.816 420.152 126.816C423.229 126.816 426.039 127.576 428.583 129.095C431.126 130.614 433.125 132.744 434.579 135.482C436.032 138.221 436.759 141.366 436.759 144.918C436.759 148.47 436.031 151.648 434.579 154.45C433.125 157.254 431.126 159.436 428.583 160.998C426.039 162.56 423.229 163.341 420.152 163.341C417.459 163.341 415.063 162.795 412.969 161.704C410.875 160.613 409.164 159.255 407.84 157.628V179.581H400.53V127.394H407.84V132.593C409.079 130.968 410.767 129.598 412.906 128.485ZM427.814 138.595C426.809 136.82 425.483 135.472 423.839 134.551C422.193 133.631 420.429 133.171 418.549 133.171C416.71 133.171 414.968 133.642 413.322 134.583C411.676 135.524 410.351 136.893 409.347 138.691C408.342 140.488 407.84 142.606 407.84 145.046C407.84 147.485 408.342 149.614 409.347 151.432C410.351 153.252 411.676 154.632 413.322 155.573C414.967 156.515 416.71 156.985 418.549 156.985C420.429 156.985 422.193 156.504 423.839 155.541C425.483 154.578 426.809 153.177 427.814 151.336C428.818 149.497 429.32 147.357 429.32 144.917C429.32 142.478 428.818 140.371 427.814 138.595V138.595Z" fill="white"/>
</svg>
