<svg width="544" height="301" viewBox="0 0 544 301" fill="none" xmlns="http://www.w3.org/2000/svg">
<rect width="543.208" height="300.194" transform="translate(0.208252)" fill="white"/>
<path d="M144.748 208.986C177.85 208.986 204.684 182.123 204.684 148.986C204.684 115.849 177.85 88.9858 144.748 88.9858C111.647 88.9858 84.8124 115.849 84.8124 148.986C84.8124 182.123 111.647 208.986 144.748 208.986Z" fill="#F1D6C8"/>
<path d="M180.566 133.894C184.071 130.755 187.758 125.688 185.972 123.188C184.186 120.688 174.583 120.693 171.267 121.363C166.964 117.287 162.504 112.624 150.752 115.546C148.429 112.848 143.165 109.173 141.235 110.037C137.365 111.646 135.788 120.507 135.788 120.507C124.905 123.363 114.227 128.959 111.598 130.475C106.685 133.121 101.588 138.295 103.41 145.941C98.8613 150.116 97.7886 168.997 111.548 172.869C117.144 180.949 121.98 180.584 128.207 180.474C130.148 185.277 137.499 191.268 147.789 184.944C154.761 186.454 163.226 186.813 169.713 180.217C178.544 179.91 189.37 172.148 186.4 159.199C191.804 151.487 181.436 135.505 180.567 133.894H180.566Z" fill="black"/>
<path d="M168.251 178.988C168.18 179.062 168.106 179.137 168.031 179.211C168.105 179.138 168.178 179.063 168.251 178.988Z" fill="white"/>
<path d="M185.056 147.985C177.966 129.18 167.709 119.056 161.984 117.304C155.665 115.356 149.307 117.868 134.714 122.804C119.245 128.036 108.633 132.495 105.818 138.994C103.098 145.274 108.128 153.204 114.269 154.537C114.172 153.661 114.326 152.411 114.358 152.211C114.527 151.15 116.486 142.38 126.487 138.572C120.445 141.962 112.858 150.685 117.012 158.57C119.189 161.345 122.897 163.436 128.987 161.868C129.522 153.75 135.837 143.774 143.815 137.105C138.507 143.326 132.017 151.998 131.101 160.266C131.028 160.913 131.01 163.856 132.606 165.954C137.67 170.69 147.203 172.682 152.995 166.223C158.83 159.043 157.455 145.75 156.621 138.813C159.183 148.056 159.602 158.532 155.484 165.473C158.859 168.925 165.071 169.509 170.704 164.902C174.44 156.215 174.363 145.107 166.759 134.895C174.609 144.202 175.387 151.91 172.981 163.895C180.256 161.927 188.795 159.81 185.057 147.984L185.056 147.985Z" fill="#ABB0C0"/>
<path d="M111.753 163.304C108.296 162.295 102.672 157.688 102.839 151.612C102.028 155.182 100.879 167.454 112.671 171.288C111.442 168.744 111.451 165.767 111.753 163.304Z" fill="#ABB0C0"/>
<path d="M126.892 171.596C122.68 171.891 114.916 168.17 114.022 163.223C112.884 164.593 111.445 169.85 114.613 173.907C118.736 178.837 122.77 178.925 128.629 178.562C127.275 176.055 126.825 173.684 126.893 171.597L126.892 171.596Z" fill="#ABB0C0"/>
<path d="M170.144 172.784C170.144 172.784 170.144 172.782 170.144 172.781C167.295 175.898 159.466 177.851 152.516 174.63C152.402 176.571 150.211 181.138 147.881 182.924C152.42 183.982 161.259 185.919 167.973 179.269C169.504 177.025 170.069 174.757 170.145 172.782L170.144 172.784Z" fill="#ABB0C0"/>
<path d="M128.371 171.698C128.054 174.916 128.545 177.246 129.244 179.141C131.08 182.97 137.47 189.235 147.272 183.21C149.788 181.075 150.4 177.722 150.335 175.386C145.698 178.905 132.236 178.753 128.371 171.698Z" fill="#ABB0C0"/>
<path d="M171.715 172.257V172.258C171.678 173.601 171.203 175.722 168.81 178.409C177.143 178.302 183.398 172.592 184.531 166.684C182.04 170.587 176.269 173.006 171.715 172.257Z" fill="#ABB0C0"/>
<path d="M129.076 178.659C129.062 178.619 129.049 178.578 129.036 178.537C129.049 178.578 129.062 178.619 129.076 178.659Z" fill="#717071"/>
<path d="M147.273 183.21C148.149 182.671 148.664 181.791 149.097 180.94C148.647 181.769 148.052 182.548 147.273 183.21Z" fill="#717071"/>
<path d="M102.525 158.747C103.102 163.474 105.48 168.951 112.671 171.289C112.21 170.334 111.923 169.318 111.76 168.291C105.902 168.188 103.141 161.631 102.524 158.748L102.525 158.747Z" fill="#858B97"/>
<path d="M112.73 169.057C112.875 170.661 113.413 172.37 114.614 173.907C118.736 178.837 122.771 178.926 128.629 178.562C128.257 177.874 127.956 177.195 127.713 176.531C117.045 177.964 113.923 172.123 112.731 169.057L112.73 169.057Z" fill="#858B97"/>
<path d="M149.099 180.941C149.145 180.85 149.192 180.758 149.237 180.668C146.836 182.486 144.364 183.995 139.054 183.767C132.614 183.255 129.536 179.998 128.578 176.805C128.616 176.997 128.659 177.183 128.703 177.366C128.713 177.41 128.724 177.454 128.735 177.498C128.825 177.859 128.926 178.205 129.035 178.537C129.048 178.578 129.061 178.619 129.075 178.659C129.129 178.822 129.185 178.983 129.243 179.14C131.08 182.969 137.47 189.235 147.272 183.209C148.051 182.548 148.647 181.769 149.098 180.94L149.099 180.941Z" fill="#858B97"/>
<path d="M167.973 179.27C168.537 178.443 168.969 177.615 169.294 176.798C161.942 183.96 152.189 181.838 150.058 180.464C149.393 181.456 148.645 182.34 147.881 182.925C152.421 183.982 161.259 185.92 167.973 179.27Z" fill="#858B97"/>
<path d="M170.404 176.286C170.002 176.946 169.482 177.655 168.81 178.409C175.615 178.322 181.033 174.497 183.408 169.879C180.835 174.741 172.652 176.517 170.404 176.285V176.286Z" fill="#858B97"/>
<path d="M104.238 148.115C103.369 149.258 103.095 150.596 103.095 150.596C102.874 154.284 108.057 162.954 114.685 162.095C114.967 166.943 124.08 172.283 128.274 169.891C131.171 176.777 145.994 178.556 151.829 172.904C155.357 176.15 167.89 175.764 170.483 170.579C174.47 172.731 183.183 169.007 184.86 164.425C185.213 162.702 184.71 160.988 184.71 160.988C182.906 163.21 176.875 167.661 172.208 166.153C168.709 169.365 160.718 172.543 154.59 167.347C147.534 176.321 130.929 171.505 129.44 163.736C124.796 164.984 116.066 164.565 114.117 156.479C112.676 155.875 107.68 155.035 104.238 148.115Z" fill="#1E2D45"/>
<path d="M137.972 119.704C140.478 118.756 145.676 117.127 148.747 116.237C146.966 114.396 143.055 111.577 141.951 111.82C140.363 112.259 138.525 117.108 137.972 119.704Z" fill="white"/>
<path d="M172.797 123.039C176.274 126.853 179.025 131.365 179.587 132.202C182 130.163 185.341 124.991 184.312 124.234C182.317 122.763 175.264 122.693 172.797 123.039Z" fill="white"/>
<path d="M133.633 123.171C133.443 123.236 133.254 123.301 133.066 123.365C132.973 123.397 132.88 123.429 132.786 123.461C132.599 123.526 132.411 123.59 132.224 123.655C132.14 123.684 132.055 123.713 131.971 123.742C131.708 123.833 131.445 123.924 131.185 124.015C131.176 124.019 131.167 124.021 131.158 124.025C130.904 124.113 130.65 124.202 130.399 124.291C130.316 124.32 130.235 124.349 130.153 124.378C129.972 124.442 129.792 124.505 129.614 124.569C129.526 124.6 129.438 124.631 129.35 124.663C129.17 124.727 128.99 124.792 128.811 124.856C128.734 124.884 128.656 124.911 128.58 124.939C128.076 125.12 127.579 125.302 127.089 125.483C127.014 125.51 126.939 125.538 126.865 125.566C126.693 125.629 126.522 125.693 126.352 125.757C126.269 125.787 126.186 125.819 126.104 125.849C125.933 125.913 125.764 125.977 125.595 126.041C125.523 126.069 125.451 126.095 125.379 126.123C125.141 126.213 124.905 126.304 124.671 126.393H124.67C124.437 126.483 124.206 126.573 123.977 126.662C123.909 126.689 123.842 126.715 123.774 126.742C123.61 126.807 123.447 126.871 123.285 126.936C123.209 126.966 123.134 126.996 123.059 127.026C122.898 127.09 122.738 127.154 122.579 127.219C122.513 127.246 122.446 127.272 122.38 127.3C121.936 127.48 121.5 127.66 121.071 127.841C121.01 127.867 120.949 127.893 120.888 127.919C120.733 127.984 120.58 128.049 120.428 128.115C120.359 128.144 120.291 128.174 120.222 128.203C120.071 128.269 119.919 128.335 119.77 128.4C119.711 128.426 119.652 128.452 119.593 128.478C119.182 128.659 118.778 128.841 118.382 129.024C118.325 129.05 118.269 129.076 118.212 129.103C118.069 129.168 117.928 129.234 117.788 129.301C117.725 129.33 117.662 129.36 117.599 129.39C117.46 129.456 117.321 129.523 117.184 129.589C117.13 129.616 117.075 129.642 117.021 129.668C116.644 129.852 116.274 130.036 115.912 130.222C115.861 130.248 115.81 130.275 115.759 130.301C115.629 130.368 115.5 130.435 115.372 130.502C115.315 130.533 115.258 130.563 115.201 130.593C115.074 130.661 114.947 130.728 114.822 130.797C114.773 130.823 114.725 130.849 114.677 130.875C114.334 131.062 114.001 131.251 113.675 131.44C113.628 131.467 113.582 131.495 113.535 131.522C113.418 131.591 113.302 131.659 113.188 131.728C113.137 131.759 113.087 131.789 113.036 131.82C112.921 131.89 112.807 131.96 112.694 132.03C112.652 132.056 112.608 132.083 112.567 132.109C112.413 132.206 112.261 132.302 112.112 132.4C118.266 129.496 139.249 121.768 149.754 129.615C160.259 137.462 174.018 128.287 166.795 120.027C165.001 118.632 163.36 117.725 161.983 117.304C155.664 115.356 149.306 117.868 134.714 122.804C134.44 122.897 134.167 122.989 133.896 123.081C133.808 123.112 133.721 123.141 133.633 123.171Z" fill="white"/>
<path d="M136.452 144.805C130.3 152.557 128.703 158.363 124.93 159.047C121.921 159.592 118.316 159.962 115.967 155.522C116.142 156.543 116.481 157.564 117.011 158.571C119.188 161.345 122.896 163.437 128.985 161.869C129.34 156.496 132.228 150.309 136.453 144.805H136.452Z" fill="#858B97"/>
<path d="M131.349 163.17C131.569 164.096 131.952 165.096 132.605 165.955C137.669 170.691 147.202 172.683 152.994 166.224C156.266 162.197 157.27 156.249 157.374 150.576C153.53 170.66 134.275 171.633 131.349 163.17Z" fill="#858B97"/>
<path d="M171.127 163.856C171.195 163.68 171.262 163.505 171.327 163.327C171.366 163.219 171.403 163.111 171.441 163.002C171.498 162.843 171.553 162.682 171.607 162.521C171.646 162.404 171.683 162.286 171.721 162.167C171.77 162.014 171.819 161.859 171.866 161.705C171.903 161.581 171.939 161.456 171.975 161.332C172.018 161.181 172.06 161.03 172.101 160.879C172.136 160.75 172.17 160.62 172.203 160.49C172.241 160.342 172.278 160.193 172.313 160.044C172.345 159.91 172.377 159.776 172.407 159.641C172.44 159.495 172.471 159.347 172.502 159.2C172.531 159.062 172.56 158.924 172.587 158.785C172.615 158.642 172.639 158.498 172.665 158.355C172.691 158.21 172.718 158.066 172.741 157.92C172.762 157.797 172.778 157.672 172.797 157.548C172.847 157.207 172.893 156.864 172.932 156.52C172.942 156.424 172.955 156.329 172.965 156.233C172.983 156.052 172.998 155.87 173.014 155.688C173.023 155.579 173.033 155.469 173.041 155.359C173.055 155.177 173.064 154.994 173.074 154.811C173.08 154.701 173.087 154.591 173.092 154.481C173.099 154.295 173.104 154.109 173.109 153.923C173.111 153.815 173.114 153.708 173.115 153.6C173.117 153.409 173.117 153.218 173.116 153.026C173.114 152.924 173.113 152.822 173.111 152.72C173.107 152.522 173.102 152.323 173.094 152.124C173.09 152.032 173.085 151.939 173.08 151.847C173.07 151.637 173.059 151.426 173.043 151.216C173.038 151.142 173.031 151.069 173.025 150.996C173.007 150.765 172.987 150.535 172.963 150.303C172.961 150.277 172.957 150.25 172.954 150.224C172.834 149.097 172.646 147.962 172.385 146.822C172.382 146.812 172.381 146.802 172.378 146.793C172.318 146.533 172.253 146.272 172.186 146.011C172.174 145.968 172.164 145.925 172.152 145.882C172.086 145.634 172.016 145.385 171.944 145.137C171.928 145.083 171.912 145.029 171.896 144.974C171.823 144.729 171.746 144.484 171.665 144.239C171.648 144.184 171.629 144.129 171.611 144.075C171.528 143.826 171.442 143.577 171.352 143.328C171.335 143.283 171.318 143.238 171.301 143.193C171.205 142.933 171.107 142.673 171.003 142.414C170.995 142.392 170.985 142.371 170.977 142.349C170.392 140.897 169.679 139.446 168.829 138.007C172.964 148.594 172.092 161.388 165.212 165.036C162.706 166.365 159.193 167.179 155.751 165.007C155.75 165.007 155.749 165.007 155.748 165.006C155.661 165.163 155.575 165.32 155.484 165.474C158.859 168.926 165.071 169.509 170.704 164.903C170.815 164.644 170.922 164.384 171.026 164.121C171.061 164.033 171.094 163.944 171.128 163.856H171.127Z" fill="#858B97"/>
<path d="M185.056 147.985C181.694 139.067 177.619 132.103 173.654 127.057C180.536 140.123 184.412 149.38 181.604 155.968C180.526 158.208 179.059 161.19 173.896 162.537C173.806 162.564 173.39 162.533 173.313 162.569C173.238 162.973 173.063 163.48 172.979 163.895C176 165.784 189.736 160.349 185.056 147.984V147.985Z" fill="#858B97"/>
<path d="M183.394 127.481C179.096 129.784 174.658 124.446 172.797 123.039C176.274 126.853 179.024 131.365 179.586 132.201C180.856 131.129 182.382 129.189 183.394 127.481Z" fill="#858B97"/>
<path d="M119.274 143.21C113.252 149.305 109.179 150.403 106.403 148.036C108.04 151.245 110.996 153.827 114.267 154.537C114.17 153.661 114.324 152.411 114.357 152.211C114.473 151.482 115.435 147.109 119.274 143.21Z" fill="#858B97"/>
<path d="M229.686 171.237C227.291 170.188 225.411 168.701 224.044 166.775C222.675 164.85 221.991 162.603 221.991 160.035H229.814C229.984 161.961 230.744 163.545 232.09 164.785C233.437 166.027 235.328 166.646 237.765 166.646C240.287 166.646 242.253 166.037 243.664 164.817C245.074 163.597 245.78 162.025 245.78 160.099C245.78 158.601 245.341 157.381 244.465 156.44C243.589 155.499 242.498 154.771 241.195 154.258C239.89 153.744 238.085 153.189 235.777 152.589C232.869 151.819 230.507 151.038 228.691 150.246C226.873 149.455 225.324 148.224 224.042 146.555C222.759 144.886 222.118 142.661 222.118 139.879C222.118 137.312 222.759 135.065 224.042 133.139C225.324 131.213 227.12 129.737 229.428 128.71C231.736 127.683 234.407 127.169 237.443 127.169C241.761 127.169 245.298 128.25 248.055 130.411C250.813 132.572 252.341 135.536 252.64 139.301H244.561C244.432 137.675 243.664 136.284 242.252 135.128C240.842 133.973 238.982 133.395 236.674 133.395C234.578 133.395 232.868 133.931 231.544 135C230.218 136.07 229.556 137.611 229.556 139.622C229.556 140.992 229.973 142.115 230.806 142.992C231.64 143.869 232.698 144.565 233.98 145.078C235.263 145.592 237.015 146.149 239.238 146.747C242.188 147.56 244.592 148.373 246.451 149.186C248.311 150 249.892 151.251 251.197 152.942C252.5 154.633 253.152 156.89 253.152 159.714C253.152 161.983 252.543 164.122 251.324 166.133C250.106 168.145 248.331 169.76 246.002 170.979C243.671 172.199 240.925 172.809 237.763 172.809C234.77 172.809 232.077 172.285 229.683 171.236L229.686 171.237Z" fill="black"/>
<path d="M262.163 145.047C263.638 142.287 265.678 140.159 268.286 138.66C270.893 137.163 273.886 136.414 277.263 136.414C281.538 136.414 285.076 137.431 287.876 139.463C290.676 141.496 292.567 144.396 293.551 148.161H285.664C285.023 146.407 283.997 145.038 282.585 144.053C281.175 143.069 279.401 142.577 277.263 142.577C274.27 142.577 271.888 143.636 270.113 145.754C268.339 147.872 267.453 150.837 267.453 154.644C267.453 158.452 268.339 161.427 270.113 163.567C271.888 165.707 274.271 166.777 277.263 166.777C281.495 166.777 284.295 164.915 285.664 161.192H293.551C292.525 164.786 290.601 167.643 287.78 169.762C284.959 171.88 281.453 172.939 277.263 172.939C273.886 172.939 270.893 172.18 268.286 170.66C265.678 169.142 263.638 167.002 262.163 164.241C260.688 161.481 259.951 158.282 259.951 154.644C259.951 151.006 260.688 147.808 262.163 145.048V145.047Z" fill="black"/>
<path d="M301.213 145.079C302.687 142.341 304.697 140.211 307.24 138.692C309.783 137.173 312.594 136.413 315.672 136.413C318.45 136.413 320.876 136.959 322.95 138.05C325.023 139.141 326.679 140.5 327.92 142.126V136.991H335.294V172.36H327.92V167.097C326.679 168.765 324.991 170.157 322.854 171.269C320.716 172.381 318.278 172.938 315.544 172.938C312.508 172.938 309.73 172.157 307.208 170.595C304.685 169.033 302.687 166.85 301.213 164.047C299.737 161.245 299 158.067 299 154.515C299 150.963 299.737 147.818 301.213 145.079ZM326.413 148.288C325.408 146.491 324.094 145.122 322.469 144.18C320.844 143.239 319.092 142.768 317.211 142.768C315.331 142.768 313.577 143.229 311.954 144.148C310.328 145.069 309.014 146.417 308.01 148.193C307.005 149.969 306.503 152.076 306.503 154.515C306.503 156.954 307.005 159.095 308.01 160.934C309.014 162.775 310.339 164.176 311.985 165.139C313.63 166.102 315.373 166.583 317.211 166.583C319.092 166.583 320.844 166.113 322.469 165.171C324.093 164.23 325.408 162.85 326.413 161.03C327.417 159.212 327.92 157.083 327.92 154.644C327.92 152.205 327.417 150.085 326.413 148.288Z" fill="black"/>
<path d="M352.799 124.859V172.36H345.489V124.859H352.799Z" fill="black"/>
<path d="M370.303 124.859V172.36H362.994V124.859H370.303Z" fill="black"/>
<path d="M386.782 170.659C384.09 169.141 381.973 167 380.434 164.24C378.895 161.48 378.126 158.281 378.126 154.643C378.126 151.049 378.916 147.861 380.498 145.079C382.079 142.298 384.239 140.158 386.975 138.66C389.71 137.162 392.766 136.413 396.144 136.413C399.521 136.413 402.577 137.162 405.314 138.66C408.049 140.158 410.208 142.298 411.79 145.079C413.371 147.861 414.163 151.049 414.163 154.643C414.163 158.237 413.35 161.426 411.726 164.207C410.101 166.99 407.889 169.141 405.09 170.658C402.289 172.178 399.2 172.937 395.824 172.937C392.49 172.937 389.476 172.178 386.783 170.658L386.782 170.659ZM401.114 165.235C402.759 164.336 404.096 162.988 405.121 161.191C406.147 159.393 406.66 157.211 406.66 154.643C406.66 152.075 406.169 149.904 405.186 148.128C404.202 146.353 402.898 145.015 401.274 144.116C399.649 143.217 397.897 142.768 396.016 142.768C394.136 142.768 392.393 143.217 390.79 144.116C389.187 145.015 387.915 146.353 386.975 148.128C386.034 149.904 385.565 152.076 385.565 154.643C385.565 158.453 386.536 161.394 388.482 163.469C390.427 165.546 392.875 166.583 395.824 166.583C397.704 166.583 399.469 166.133 401.114 165.235L401.114 165.235Z" fill="black"/>
<path d="M434.361 138.082C436.497 136.97 438.914 136.413 441.606 136.413C444.684 136.413 447.494 137.173 450.038 138.692C452.581 140.211 454.58 142.341 456.034 145.079C457.487 147.818 458.213 150.963 458.213 154.515C458.213 158.067 457.486 161.245 456.034 164.047C454.58 166.851 452.581 169.033 450.038 170.595C447.494 172.157 444.684 172.938 441.606 172.938C438.914 172.938 436.518 172.392 434.424 171.301C432.33 170.21 430.619 168.852 429.295 167.225V189.178H421.985V136.991H429.295V142.19C430.534 140.565 432.222 139.195 434.361 138.082ZM449.269 148.192C448.264 146.417 446.938 145.069 445.294 144.148C443.648 143.228 441.884 142.768 440.004 142.768C438.165 142.768 436.422 143.239 434.777 144.18C433.131 145.121 431.806 146.49 430.802 148.288C429.797 150.085 429.295 152.203 429.295 154.642C429.295 157.082 429.797 159.211 430.802 161.029C431.806 162.849 433.131 164.229 434.777 165.17C436.422 166.112 438.165 166.582 440.004 166.582C441.884 166.582 443.648 166.101 445.294 165.138C446.938 164.175 448.264 162.773 449.269 160.933C450.273 159.094 450.775 156.954 450.775 154.514C450.775 152.074 450.273 149.968 449.269 148.192V148.192Z" fill="black"/>
</svg>
