<svg width="500" height="281" viewBox="0 0 500 281" fill="none" xmlns="http://www.w3.org/2000/svg">
<rect width="500" height="281" fill="white"/>
<path d="M122.936 199.389C156.038 199.389 182.872 172.526 182.872 139.389C182.872 106.252 156.038 79.3889 122.936 79.3889C89.8342 79.3889 63 106.252 63 139.389C63 172.526 89.8342 199.389 122.936 199.389Z" fill="#F1D6C8"/>
<path d="M158.754 124.297C162.258 121.158 165.946 116.091 164.16 113.591C162.373 111.091 152.771 111.096 149.455 111.766C145.151 107.69 140.691 103.027 128.94 105.949C126.617 103.251 121.352 99.5764 119.422 100.44C115.553 102.049 113.976 110.91 113.976 110.91C103.092 113.766 92.4149 119.362 89.786 120.878C84.8724 123.524 79.7753 128.698 81.598 136.344C77.049 140.519 75.9762 159.401 89.7353 163.272C95.3314 171.352 100.167 170.988 106.394 170.877C108.335 175.68 115.687 181.671 125.976 175.347C132.948 176.857 141.413 177.216 147.9 170.62C156.731 170.313 167.557 162.551 164.587 149.602C169.992 141.89 159.623 125.908 158.754 124.297H158.754Z" fill="#010B13"/>
<path d="M146.438 169.391C146.367 169.465 146.293 169.54 146.219 169.614C146.293 169.541 146.365 169.467 146.438 169.391Z" fill="white"/>
<path d="M163.244 138.388C156.154 119.583 145.897 109.459 140.171 107.707C133.852 105.759 127.494 108.271 112.902 113.207C97.4328 118.439 86.8206 122.898 84.0055 129.397C81.2853 135.677 86.3154 143.607 92.4562 144.94C92.3592 144.064 92.5131 142.814 92.5454 142.614C92.7149 141.553 94.6735 132.783 104.675 128.975C98.6327 132.365 91.0456 141.088 95.1999 148.973C97.3765 151.748 101.085 153.839 107.174 152.271C107.709 144.153 114.025 134.178 122.002 127.508C116.695 133.729 110.205 142.401 109.288 150.669C109.215 151.316 109.198 154.259 110.794 156.357C115.857 161.093 125.391 163.085 131.183 156.627C137.018 149.446 135.642 136.153 134.808 129.216C137.37 138.459 137.79 148.935 133.671 155.876C137.046 159.328 143.259 159.912 148.891 155.305C152.628 146.618 152.55 135.51 144.947 125.298C152.797 134.605 153.574 142.314 151.168 154.299C158.444 152.33 166.982 150.213 163.245 138.387L163.244 138.388Z" fill="#ABB0C0"/>
<path d="M89.9406 153.707C86.4833 152.698 80.8594 148.091 81.0266 142.015C80.216 145.585 79.0663 157.857 90.8589 161.691C89.6301 159.147 89.6384 156.17 89.9406 153.707Z" fill="#ABB0C0"/>
<path d="M105.08 162C100.868 162.294 93.1041 158.573 92.2092 153.626C91.0713 154.997 89.6323 160.253 92.8008 164.31C96.9233 169.24 100.958 169.328 106.816 168.965C105.463 166.458 105.013 164.087 105.081 162L105.08 162Z" fill="#ABB0C0"/>
<path d="M148.332 163.187C148.332 163.187 148.332 163.185 148.332 163.184C145.482 166.301 137.654 168.254 130.704 165.033C130.589 166.974 128.399 171.541 126.068 173.327C130.608 174.385 139.447 176.322 146.16 169.672C147.692 167.428 148.257 165.16 148.333 163.186L148.332 163.187Z" fill="#ABB0C0"/>
<path d="M106.559 162.101C106.242 165.319 106.733 167.649 107.431 169.544C109.268 173.373 115.658 179.638 125.46 173.613C127.976 171.478 128.587 168.125 128.523 165.789C123.885 169.308 110.424 169.157 106.559 162.101Z" fill="#ABB0C0"/>
<path d="M149.903 162.66V162.661C149.865 164.004 149.391 166.125 146.998 168.812C155.33 168.705 161.585 162.995 162.719 157.087C160.227 160.99 154.457 163.409 149.903 162.66Z" fill="#ABB0C0"/>
<path d="M107.263 169.062C107.25 169.022 107.236 168.981 107.223 168.94C107.237 168.981 107.25 169.022 107.263 169.062Z" fill="#717071"/>
<path d="M125.461 173.613C126.337 173.074 126.851 172.194 127.285 171.344C126.835 172.172 126.239 172.952 125.461 173.613Z" fill="#717071"/>
<path d="M80.7121 149.15C81.2897 153.877 83.6676 159.354 90.8588 161.692C90.3977 160.737 90.1106 159.721 89.9478 158.694C84.0897 158.591 81.3287 152.034 80.7115 149.151L80.7121 149.15Z" fill="#858B97"/>
<path d="M90.9178 159.46C91.0623 161.064 91.6008 162.773 92.8012 164.31C96.9237 169.24 100.958 169.329 106.817 168.965C106.445 168.277 106.144 167.599 105.9 166.934C95.2321 168.367 92.111 162.526 90.9184 159.46L90.9178 159.46Z" fill="#858B97"/>
<path d="M127.286 171.344C127.333 171.253 127.38 171.161 127.424 171.071C125.024 172.889 122.551 174.398 117.241 174.17C110.802 173.658 107.723 170.401 106.766 167.208C106.804 167.4 106.846 167.586 106.89 167.769C106.901 167.813 106.912 167.857 106.923 167.901C107.013 168.262 107.114 168.608 107.222 168.94C107.236 168.981 107.249 169.022 107.262 169.062C107.317 169.225 107.373 169.386 107.431 169.543C109.267 173.372 115.657 179.638 125.459 173.612C126.239 172.951 126.835 172.172 127.285 171.343L127.286 171.344Z" fill="#858B97"/>
<path d="M146.16 169.673C146.724 168.847 147.156 168.018 147.482 167.201C140.129 174.363 130.377 172.241 128.245 170.867C127.58 171.859 126.833 172.743 126.069 173.328C130.608 174.386 139.447 176.323 146.16 169.673Z" fill="#858B97"/>
<path d="M148.592 166.689C148.19 167.349 147.669 168.058 146.997 168.813C153.803 168.725 159.22 164.9 161.596 160.282C159.022 165.144 150.839 166.92 148.592 166.688V166.689Z" fill="#858B97"/>
<path d="M82.426 138.518C81.5562 139.661 81.2825 140.999 81.2825 140.999C81.0611 144.687 86.2446 153.357 92.8727 152.498C93.1548 157.346 102.268 162.686 106.461 160.294C109.358 167.18 124.182 168.959 130.016 163.307C133.544 166.553 146.078 166.167 148.671 160.982C152.657 163.134 161.371 159.41 163.047 154.828C163.401 153.105 162.898 151.391 162.898 151.391C161.094 153.613 155.062 158.064 150.396 156.556C146.896 159.768 138.905 162.946 132.778 157.75C125.722 166.724 109.117 161.908 107.628 154.139C102.983 155.387 94.2537 154.968 92.3045 146.882C90.8633 146.278 85.8671 145.438 82.426 138.518Z" fill="#1A2544"/>
<path d="M116.16 110.107C118.665 109.16 123.863 107.53 126.935 106.64C125.154 104.799 121.243 101.98 120.138 102.223C118.55 102.662 116.712 107.511 116.16 110.107Z" fill="white"/>
<path d="M150.984 113.442C154.462 117.256 157.212 121.768 157.774 122.605C160.188 120.566 163.529 115.395 162.5 114.637C160.504 113.166 153.452 113.096 150.984 113.442Z" fill="white"/>
<path d="M111.82 113.574C111.631 113.639 111.442 113.704 111.254 113.768C111.16 113.8 111.067 113.832 110.974 113.864C110.786 113.929 110.599 113.993 110.412 114.058C110.327 114.087 110.243 114.116 110.158 114.145C109.895 114.236 109.633 114.327 109.373 114.418C109.364 114.422 109.355 114.424 109.346 114.428C109.091 114.516 108.838 114.605 108.587 114.694C108.504 114.723 108.423 114.752 108.34 114.781C108.16 114.845 107.98 114.908 107.802 114.972C107.714 115.003 107.626 115.034 107.538 115.066C107.357 115.13 107.177 115.195 106.998 115.259C106.921 115.287 106.844 115.314 106.767 115.342C106.264 115.523 105.767 115.705 105.276 115.886C105.201 115.913 105.127 115.941 105.052 115.969C104.881 116.032 104.709 116.096 104.539 116.16C104.456 116.19 104.374 116.222 104.291 116.252C104.121 116.316 103.951 116.38 103.782 116.444C103.71 116.472 103.638 116.498 103.566 116.526C103.329 116.616 103.093 116.707 102.858 116.796H102.857C102.625 116.886 102.394 116.976 102.165 117.065C102.097 117.092 102.029 117.119 101.962 117.145C101.798 117.21 101.635 117.274 101.472 117.339C101.397 117.369 101.322 117.399 101.247 117.429C101.085 117.493 100.926 117.557 100.767 117.622C100.701 117.649 100.634 117.676 100.567 117.703C100.124 117.883 99.6877 118.063 99.2589 118.244C99.1976 118.27 99.1363 118.296 99.0755 118.322C98.921 118.387 98.7677 118.452 98.6155 118.518C98.5469 118.547 98.4784 118.577 98.4098 118.607C98.2581 118.672 98.107 118.738 97.9576 118.804C97.8985 118.829 97.8394 118.855 97.7809 118.881C97.3694 119.063 96.9652 119.244 96.5693 119.427C96.5125 119.453 96.4561 119.479 96.3993 119.506C96.2571 119.572 96.116 119.637 95.9755 119.704C95.9125 119.733 95.8495 119.763 95.7871 119.793C95.6477 119.86 95.5089 119.926 95.3717 119.992C95.3176 120.019 95.263 120.045 95.2089 120.071C94.8315 120.255 94.4618 120.439 94.1 120.625C94.0487 120.651 93.9979 120.678 93.9466 120.704C93.8167 120.771 93.6874 120.839 93.5597 120.905C93.5028 120.936 93.446 120.966 93.3891 120.996C93.2614 121.064 93.1349 121.132 93.0094 121.2C92.9609 121.226 92.9124 121.252 92.8644 121.278C92.5221 121.465 92.1882 121.654 91.8625 121.843C91.8157 121.871 91.7694 121.898 91.7226 121.925C91.6061 121.994 91.4901 122.062 91.3758 122.131C91.3251 122.162 91.2743 122.193 91.2236 122.223C91.1087 122.293 90.995 122.363 90.8818 122.433C90.8395 122.459 90.796 122.486 90.7541 122.512C90.6003 122.609 90.4486 122.705 90.2992 122.803C96.4539 119.899 117.437 112.171 127.942 120.018C138.446 127.865 152.206 118.69 144.982 110.43C143.188 109.036 141.548 108.129 140.171 107.707C133.852 105.759 127.494 108.271 112.901 113.207C112.627 113.3 112.355 113.392 112.084 113.484C111.996 113.515 111.908 113.544 111.82 113.574Z" fill="white"/>
<path d="M114.64 135.208C108.488 142.961 106.891 148.766 103.118 149.45C100.109 149.995 96.5033 150.365 94.1549 145.925C94.33 146.946 94.6684 147.967 95.1986 148.974C97.3753 151.748 101.083 153.84 107.173 152.272C107.527 146.899 110.415 140.712 114.64 135.208H114.64Z" fill="#858B97"/>
<path d="M109.537 153.573C109.757 154.499 110.139 155.5 110.793 156.358C115.856 161.094 125.39 163.086 131.181 156.627C134.454 152.6 135.458 146.652 135.562 140.979C131.718 161.063 112.462 162.036 109.537 153.573Z" fill="#858B97"/>
<path d="M149.314 154.259C149.382 154.084 149.45 153.908 149.515 153.73C149.554 153.622 149.591 153.514 149.629 153.405C149.685 153.246 149.741 153.086 149.794 152.924C149.833 152.807 149.871 152.689 149.909 152.57C149.958 152.417 150.006 152.262 150.053 152.108C150.09 151.984 150.127 151.859 150.162 151.735C150.206 151.584 150.248 151.433 150.288 151.282C150.324 151.153 150.358 151.023 150.391 150.893C150.429 150.745 150.465 150.596 150.501 150.447C150.533 150.313 150.565 150.179 150.595 150.044C150.628 149.898 150.659 149.75 150.689 149.603C150.718 149.465 150.748 149.327 150.775 149.188C150.802 149.045 150.827 148.901 150.853 148.758C150.878 148.613 150.906 148.469 150.929 148.323C150.949 148.2 150.966 148.075 150.984 147.951C151.035 147.61 151.08 147.268 151.119 146.923C151.13 146.827 151.143 146.732 151.153 146.636C151.171 146.455 151.186 146.273 151.201 146.092C151.211 145.982 151.221 145.872 151.229 145.762C151.242 145.58 151.252 145.397 151.262 145.214C151.268 145.104 151.274 144.994 151.279 144.884C151.287 144.698 151.292 144.512 151.296 144.326C151.299 144.218 151.301 144.111 151.303 144.003C151.305 143.812 151.305 143.621 151.303 143.429C151.302 143.327 151.301 143.225 151.299 143.123C151.295 142.925 151.29 142.726 151.281 142.527C151.277 142.435 151.273 142.343 151.268 142.25C151.257 142.04 151.246 141.83 151.231 141.619C151.226 141.545 151.219 141.472 151.213 141.399C151.194 141.168 151.175 140.938 151.151 140.706C151.148 140.68 151.145 140.653 151.142 140.627C151.022 139.5 150.834 138.365 150.572 137.225C150.57 137.215 150.568 137.205 150.566 137.196C150.506 136.936 150.441 136.675 150.373 136.415C150.362 136.372 150.351 136.328 150.34 136.285C150.274 136.037 150.204 135.788 150.131 135.54C150.116 135.486 150.1 135.432 150.084 135.377C150.01 135.132 149.933 134.887 149.853 134.642C149.835 134.587 149.817 134.532 149.799 134.478C149.716 134.229 149.629 133.98 149.539 133.732C149.522 133.686 149.506 133.641 149.489 133.596C149.393 133.336 149.294 133.076 149.191 132.817C149.182 132.795 149.173 132.774 149.164 132.752C148.58 131.3 147.867 129.849 147.016 128.41C151.151 138.997 150.28 151.791 143.399 155.439C140.893 156.768 137.38 157.582 133.938 155.41C133.937 155.41 133.936 155.41 133.935 155.409C133.849 155.566 133.762 155.723 133.671 155.877C137.046 159.329 143.259 159.912 148.891 155.306C149.002 155.047 149.11 154.787 149.214 154.524C149.249 154.436 149.281 154.348 149.315 154.259H149.314Z" fill="#858B97"/>
<path d="M163.244 138.388C159.882 129.47 155.807 122.506 151.841 117.46C158.724 130.526 162.6 139.783 159.792 146.371C158.713 148.611 157.247 151.593 152.083 152.94C151.993 152.967 151.578 152.936 151.501 152.972C151.426 153.377 151.25 153.883 151.167 154.298C154.188 156.187 167.924 150.752 163.244 138.387V138.388Z" fill="#858B97"/>
<path d="M161.582 117.884C157.284 120.187 152.845 114.849 150.984 113.442C154.462 117.256 157.212 121.768 157.774 122.605C159.044 121.532 160.57 119.592 161.582 117.884Z" fill="#858B97"/>
<path d="M97.4617 133.613C91.4391 139.708 87.3668 140.806 84.5908 138.44C86.2278 141.648 89.1839 144.23 92.455 144.94C92.358 144.064 92.5118 142.814 92.5442 142.614C92.6607 141.885 93.6225 137.512 97.4617 133.613Z" fill="#858B97"/>
<path d="M207.874 161.64C205.479 160.591 203.598 159.105 202.231 157.178C200.863 155.253 200.179 153.006 200.179 150.438H208.002C208.172 152.364 208.932 153.948 210.278 155.188C211.624 156.43 213.516 157.049 215.952 157.049C218.475 157.049 220.441 156.44 221.852 155.22C223.262 154 223.968 152.428 223.968 150.502C223.968 149.004 223.529 147.784 222.653 146.843C221.777 145.902 220.686 145.175 219.382 144.661C218.078 144.148 216.272 143.592 213.964 142.992C211.057 142.222 208.695 141.441 206.878 140.649C205.061 139.858 203.511 138.627 202.23 136.958C200.947 135.289 200.306 133.065 200.306 130.282C200.306 127.715 200.947 125.468 202.23 123.542C203.511 121.617 205.307 120.14 207.615 119.113C209.924 118.086 212.595 117.572 215.631 117.572C219.948 117.572 223.486 118.653 226.243 120.814C229.001 122.975 230.528 125.939 230.828 129.704H222.748C222.62 128.078 221.851 126.687 220.44 125.531C219.029 124.376 217.17 123.798 214.861 123.798C212.766 123.798 211.056 124.334 209.732 125.403C208.406 126.473 207.744 128.014 207.744 130.025C207.744 131.395 208.16 132.518 208.994 133.395C209.827 134.272 210.885 134.968 212.168 135.481C213.451 135.995 215.203 136.552 217.425 137.15C220.375 137.963 222.78 138.777 224.639 139.589C226.499 140.403 228.08 141.654 229.384 143.345C230.687 145.036 231.339 147.293 231.339 150.117C231.339 152.386 230.731 154.525 229.512 156.536C228.294 158.548 226.519 160.163 224.19 161.382C221.859 162.602 219.113 163.212 215.95 163.212C212.957 163.212 210.264 162.688 207.871 161.639L207.874 161.64Z" fill="#010B13"/>
<path d="M240.351 135.45C241.826 132.69 243.866 130.562 246.474 129.063C249.081 127.566 252.074 126.817 255.451 126.817C259.726 126.817 263.264 127.834 266.064 129.866C268.864 131.899 270.755 134.799 271.739 138.564H263.852C263.21 136.81 262.185 135.441 260.773 134.456C259.363 133.472 257.589 132.98 255.451 132.98C252.458 132.98 250.075 134.039 248.301 136.157C246.527 138.276 245.641 141.24 245.641 145.047C245.641 148.855 246.527 151.83 248.301 153.97C250.075 156.11 252.458 157.18 255.451 157.18C259.682 157.18 262.482 155.318 263.852 151.595H271.739C270.713 155.189 268.789 158.046 265.968 160.165C263.146 162.283 259.64 163.342 255.451 163.342C252.074 163.342 249.081 162.583 246.474 161.063C243.866 159.545 241.825 157.405 240.351 154.644C238.876 151.884 238.139 148.685 238.139 145.047C238.139 141.409 238.876 138.211 240.351 135.451V135.45Z" fill="#010B13"/>
<path d="M279.4 135.482C280.875 132.744 282.884 130.614 285.427 129.095C287.97 127.576 290.781 126.816 293.86 126.816C296.638 126.816 299.064 127.362 301.137 128.453C303.21 129.544 304.867 130.903 306.107 132.529V127.394H313.481V162.763H306.107V157.5C304.867 159.168 303.179 160.56 301.041 161.672C298.903 162.784 296.466 163.341 293.731 163.341C290.696 163.341 287.917 162.56 285.396 160.998C282.873 159.436 280.875 157.253 279.4 154.45C277.925 151.648 277.188 148.47 277.188 144.918C277.188 141.366 277.925 138.221 279.4 135.482ZM304.601 138.691C303.595 136.894 302.281 135.525 300.657 134.583C299.032 133.642 297.28 133.171 295.399 133.171C293.518 133.171 291.765 133.632 290.141 134.551C288.516 135.472 287.201 136.82 286.197 138.596C285.193 140.372 284.691 142.479 284.691 144.918C284.691 147.357 285.193 149.498 286.197 151.337C287.201 153.178 288.527 154.579 290.173 155.542C291.818 156.505 293.561 156.986 295.399 156.986C297.28 156.986 299.032 156.516 300.657 155.574C302.281 154.633 303.595 153.253 304.601 151.433C305.604 149.615 306.107 147.486 306.107 145.047C306.107 142.608 305.604 140.488 304.601 138.691Z" fill="#010B13"/>
<path d="M330.987 115.262V162.763H323.677V115.262H330.987Z" fill="#010B13"/>
<path d="M348.491 115.262V162.763H341.181V115.262H348.491Z" fill="#010B13"/>
<path d="M364.97 161.062C362.278 159.544 360.16 157.403 358.622 154.643C357.083 151.883 356.313 148.684 356.313 145.046C356.313 141.452 357.104 138.264 358.686 135.482C360.267 132.701 362.426 130.561 365.162 129.063C367.898 127.565 370.954 126.816 374.332 126.816C377.709 126.816 380.765 127.565 383.501 129.063C386.237 130.561 388.396 132.701 389.978 135.482C391.559 138.264 392.35 141.452 392.35 145.046C392.35 148.641 391.538 151.829 389.914 154.61C388.289 157.393 386.077 159.544 383.277 161.061C380.477 162.581 377.388 163.34 374.012 163.34C370.677 163.34 367.663 162.581 364.97 161.061L364.97 161.062ZM379.302 155.638C380.946 154.739 382.283 153.391 383.309 151.594C384.335 149.796 384.848 147.614 384.848 145.046C384.848 142.478 384.356 140.307 383.373 138.531C382.389 136.756 381.086 135.418 379.462 134.519C377.837 133.62 376.084 133.171 374.204 133.171C372.323 133.171 370.58 133.62 368.978 134.519C367.375 135.418 366.102 136.756 365.163 138.531C364.222 140.307 363.752 142.479 363.752 145.046C363.752 148.856 364.724 151.797 366.67 153.873C368.615 155.949 371.063 156.986 374.012 156.986C375.892 156.986 377.656 156.537 379.302 155.638L379.302 155.638Z" fill="#010B13"/>
<path d="M412.548 128.485C414.685 127.373 417.101 126.816 419.794 126.816C422.872 126.816 425.682 127.576 428.226 129.095C430.769 130.614 432.768 132.744 434.222 135.482C435.675 138.221 436.401 141.366 436.401 144.918C436.401 148.47 435.674 151.648 434.222 154.45C432.768 157.254 430.769 159.436 428.226 160.998C425.682 162.56 422.872 163.341 419.794 163.341C417.101 163.341 414.706 162.795 412.612 161.704C410.517 160.613 408.807 159.255 407.482 157.628V179.581H400.172V127.394H407.482V132.593C408.722 130.968 410.41 129.598 412.548 128.485ZM427.456 138.595C426.451 136.82 425.126 135.472 423.481 134.551C421.835 133.631 420.071 133.171 418.191 133.171C416.352 133.171 414.61 133.642 412.965 134.583C411.319 135.524 409.994 136.893 408.989 138.691C407.984 140.488 407.483 142.606 407.483 145.046C407.483 147.485 407.984 149.614 408.989 151.432C409.994 153.252 411.319 154.632 412.965 155.573C414.61 156.515 416.352 156.985 418.191 156.985C420.071 156.985 421.835 156.504 423.481 155.541C425.126 154.578 426.452 153.177 427.456 151.336C428.461 149.497 428.963 147.357 428.963 144.917C428.963 142.478 428.461 140.371 427.456 138.595V138.595Z" fill="#010B13"/>
</svg>
