<?xml version="1.0" encoding="UTF-8"?>
<svg id="logotype" xmlns="http://www.w3.org/2000/svg" viewBox="0 0 800 346">
  <defs>
    <style>
      .cls-1 {
        fill: #abb0c0;
      }

      .cls-2 {
        fill: #fff;
      }

      .cls-3 {
        fill: #1e2d45;
      }

      .cls-4 {
        fill: #f1d6c8;
      }

      .cls-5 {
        fill: #858b97;
      }
    </style>
  </defs>
  <g id="logotype_reversed_primary_color">
    <g id="logo-reversed-primary-color">
      <g>
        <circle class="cls-4" cx="175.113" cy="173" r="107.5"/>
        <g id="_主扇貝" data-name="主扇貝">
          <g>
            <path d="M239.354,145.96c6.286-5.623,12.9-14.703,9.696-19.182-3.204-4.479-20.427-4.469-26.374-3.269-7.719-7.303-15.718-15.657-36.795-10.422-4.167-4.835-13.609-11.418-17.071-9.87-6.94,2.883-9.769,18.758-9.769,18.758-19.52,5.118-38.671,15.143-43.386,17.859-8.813,4.741-17.955,14.011-14.686,27.711-8.159,7.48-10.083,41.309,14.595,48.246,10.037,14.476,18.711,13.823,29.879,13.625,3.482,8.606,16.667,19.34,35.122,8.009,12.505,2.705,27.688,3.348,39.323-8.47,15.839-.55,35.256-14.457,29.929-37.656,9.694-13.818-8.903-42.453-10.462-45.339Z"/>
            <g>
              <path class="cls-1" d="M247.407,171.206c-12.716-33.691-31.113-51.83-41.382-54.97-11.334-3.49-22.737,1.011-48.91,9.854-27.745,9.375-46.779,17.364-51.828,29.008-4.879,11.251,4.143,25.46,15.157,27.848-.174-1.569.102-3.809.16-4.167.304-1.902,3.817-17.614,21.755-24.437-10.837,6.073-24.445,21.703-16.994,35.83,3.904,4.971,10.555,8.718,21.477,5.909.96-14.545,12.287-32.418,26.595-44.367-9.519,11.145-21.159,26.682-22.803,41.497-.131,1.159-.163,6.432,2.7,10.191,9.082,8.485,26.181,12.054,36.569.482,10.466-12.865,7.999-36.681,6.503-49.11,4.595,16.56,5.348,35.33-2.039,47.766,6.053,6.185,17.196,7.23,27.298-1.023,6.702-15.565,6.563-35.467-7.075-53.763,14.08,16.675,15.474,30.486,11.159,51.959,13.049-3.527,28.364-7.319,21.66-28.508Z"/>
              <g>
                <path class="cls-1" d="M115.933,198.655c-6.201-1.808-16.288-10.063-15.988-20.948-1.454,6.395-3.516,28.383,17.635,35.252-2.204-4.557-2.189-9.891-1.647-14.304Z"/>
                <path class="cls-1" d="M143.087,213.511c-7.555.527-21.48-6.139-23.085-15.003-2.041,2.456-4.622,11.874,1.061,19.142h0c7.394,8.833,14.63,8.992,25.138,8.341-2.427-4.491-3.235-8.74-3.113-12.479Z"/>
                <path class="cls-1" d="M220.663,215.638s0-.003,0-.005c-5.111,5.585-19.152,9.084-31.618,3.313-.205,3.478-4.134,11.661-8.314,14.861,8.142,1.894,23.996,5.366,36.037-6.55,2.747-4.02,3.76-8.083,3.896-11.621Z"/>
                <path class="cls-1" d="M145.739,213.693c-.568,5.765.312,9.94,1.565,13.335,3.294,6.86,14.755,18.086,32.336,7.29,4.512-3.825,5.609-9.832,5.494-14.018-8.318,6.306-32.462,6.034-39.395-6.607Z"/>
                <path class="cls-1" d="M223.479,214.695s0,.002,0,.002c-.067,2.407-.918,6.207-5.21,11.021,14.945-.192,26.164-10.422,28.197-21.007-4.469,6.992-14.818,11.327-22.986,9.984Z"/>
              </g>
            </g>
            <g>
              <path class="cls-5" d="M99.38,190.489c1.036,8.469,5.301,18.281,18.199,22.47-.827-1.711-1.342-3.531-1.634-5.371,0,0,0,0,0,0-10.507-.184-15.459-11.933-16.566-17.098Z"/>
              <path class="cls-5" d="M117.685,208.96c.259,2.875,1.225,5.937,3.378,8.69h0c7.394,8.833,14.63,8.992,25.138,8.341-.667-1.234-1.207-2.449-1.644-3.64,0,0,0,0,0,0-19.134,2.568-24.732-7.897-26.871-13.39Z"/>
              <path class="cls-5" d="M182.915,230.252c.083-.163.167-.327.247-.489-4.305,3.258-8.74,5.962-18.264,5.552-11.55-.917-17.071-6.752-18.789-12.472.069.343.145.676.224,1.004.019.079.038.158.058.236.162.647.343,1.267.537,1.862.024.073.048.147.072.219.098.292.198.581.302.862,3.294,6.86,14.755,18.086,32.336,7.29,1.398-1.185,2.467-2.58,3.275-4.066Z"/>
              <path class="cls-5" d="M216.767,227.258c1.011-1.48,1.786-2.965,2.37-4.428-13.187,12.831-30.679,9.03-34.502,6.568h0c-1.193,1.777-2.534,3.361-3.904,4.41,8.142,1.894,23.996,5.366,36.037-6.55Z"/>
              <path class="cls-5" d="M221.129,221.912c-.721,1.183-1.655,2.454-2.86,3.805,12.206-.157,21.923-7.01,26.184-15.283-4.616,8.71-19.293,11.893-23.324,11.477Z"/>
            </g>
            <path class="cls-3" d="M102.455,171.439c-1.56,2.049-2.051,4.445-2.051,4.445-.397,6.609,8.9,22.143,20.788,20.603.506,8.687,16.851,18.254,24.372,13.968,5.196,12.338,31.783,15.524,42.248,5.398,6.328,5.816,28.808,5.124,33.459-4.166,7.15,3.857,22.778-2.816,25.785-11.026.634-3.087-.268-6.157-.268-6.157-3.236,3.981-14.054,11.955-22.424,9.253-6.276,5.756-20.609,11.449-31.599,2.14-12.655,16.079-42.438,7.45-45.108-6.47-8.331,2.237-23.988,1.486-27.484-13.001-2.585-1.083-11.546-2.589-17.718-14.988Z"/>
            <g>
              <path class="cls-2" d="M162.959,120.537c4.494-1.698,13.817-4.617,19.326-6.212-3.194-3.299-10.209-8.349-12.19-7.914-2.848.787-6.145,9.474-7.136,14.126Z"/>
              <path class="cls-2" d="M225.419,126.512c6.237,6.833,11.17,14.918,12.178,16.416,4.329-3.652,10.321-12.918,8.476-14.276-3.579-2.635-16.228-2.76-20.654-2.14Z"/>
              <path class="cls-2" d="M155.175,126.749c-.34.116-.679.232-1.016.347-.168.057-.335.115-.502.172-.337.116-.673.231-1.008.347-.152.052-.304.105-.455.157-.472.163-.943.326-1.409.489-.016.006-.032.011-.048.017-.457.159-.911.318-1.362.477-.148.052-.294.104-.442.156-.323.114-.646.228-.966.342-.158.056-.315.112-.473.168-.324.116-.647.231-.968.346-.138.05-.277.099-.414.149-.903.325-1.795.65-2.674.974-.135.05-.268.099-.402.149-.308.114-.615.228-.92.342-.149.055-.297.111-.445.166-.306.115-.61.229-.913.344-.129.049-.258.097-.387.146-.426.162-.85.324-1.27.485,0,0-.002,0-.002,0-.417.161-.831.322-1.242.482-.122.048-.243.095-.364.143-.294.116-.587.231-.878.347-.135.054-.27.107-.405.161-.289.115-.575.23-.86.346-.119.048-.239.096-.358.145-.796.323-1.578.646-2.347.97-.11.046-.22.093-.329.139-.277.117-.552.234-.825.351-.123.053-.246.106-.369.159-.272.118-.543.235-.811.353-.106.046-.212.092-.317.139-.738.325-1.463.651-2.173.978-.102.047-.203.094-.305.141-.255.118-.508.236-.76.355-.113.053-.226.106-.338.16-.25.119-.499.238-.745.357-.097.047-.195.094-.292.141-.677.329-1.34.66-1.989.992-.092.047-.183.095-.275.142-.233.12-.465.241-.694.361-.102.054-.204.108-.306.162-.229.122-.456.243-.681.365-.087.047-.174.094-.26.141-.614.335-1.213.673-1.797,1.012-.084.049-.167.098-.251.147-.209.123-.417.245-.622.369-.091.055-.182.11-.273.165-.206.125-.41.251-.613.376-.076.047-.154.095-.229.142-.276.173-.548.346-.816.52,0,0,0,0,0,0,11.039-5.203,48.674-19.048,67.515-4.989,18.841,14.059,43.52-2.38,30.564-17.178-3.218-2.499-6.16-4.124-8.63-4.879-11.334-3.49-22.737,1.011-48.91,9.854-.492.166-.98.332-1.466.497-.158.054-.315.107-.473.161Z"/>
            </g>
            <g>
              <path class="cls-5" d="M160.233,165.509c-11.034,13.89-13.898,24.292-20.665,25.517-5.397.977-11.864,1.64-16.076-6.316.314,1.83.921,3.659,1.872,5.463,3.904,4.971,10.555,8.718,21.477,5.909.635-9.627,5.815-20.712,13.393-30.573Z"/>
              <path class="cls-5" d="M151.08,198.415c.394,1.659,1.08,3.451,2.252,4.989,9.082,8.485,26.181,12.054,36.569.482,5.869-7.215,7.67-17.872,7.857-28.035-6.895,35.983-41.431,37.727-46.678,22.564Z"/>
              <path class="cls-5" d="M222.424,199.644c.122-.315.243-.63.359-.949.07-.193.137-.387.205-.581.101-.286.201-.573.297-.862.07-.21.137-.422.205-.634.088-.275.175-.552.259-.829.067-.222.132-.445.196-.668.078-.27.153-.541.226-.812.063-.231.124-.463.184-.696.068-.266.133-.533.197-.8.057-.24.115-.48.169-.721.059-.262.114-.527.169-.79.052-.248.105-.495.153-.744.05-.256.094-.514.14-.771.046-.26.095-.518.137-.779.036-.221.066-.445.099-.667.091-.61.172-1.224.242-1.841.019-.172.042-.342.06-.514.033-.324.06-.65.087-.976.017-.197.035-.393.05-.591.024-.326.041-.654.059-.981.011-.197.022-.394.031-.592.014-.333.023-.666.031-1,.004-.192.009-.385.011-.578.004-.342.004-.685.001-1.029-.002-.182-.004-.365-.008-.547-.007-.356-.016-.712-.031-1.069-.007-.165-.015-.33-.024-.496-.019-.376-.039-.753-.067-1.131-.009-.131-.021-.263-.032-.394-.033-.413-.068-.826-.111-1.241-.005-.047-.011-.095-.016-.142-.216-2.019-.553-4.053-1.022-6.095-.004-.017-.007-.035-.011-.052-.108-.466-.225-.933-.346-1.4-.02-.077-.039-.155-.06-.232-.118-.445-.244-.89-.374-1.335-.028-.097-.056-.194-.085-.291-.132-.439-.27-.879-.414-1.318-.032-.098-.065-.196-.097-.294-.149-.446-.304-.891-.466-1.337-.03-.081-.06-.162-.09-.243-.172-.465-.349-.931-.535-1.396-.015-.039-.032-.077-.047-.116-1.049-2.602-2.327-5.201-3.853-7.78,0,0,0,0,0,0,7.417,18.969,5.854,41.892-6.487,48.427-4.495,2.381-10.796,3.84-16.969-.051-.002-.001-.004-.001-.006-.002-.155.281-.31.563-.473.838,6.053,6.185,17.196,7.23,27.298-1.023.199-.463.392-.93.579-1.401.062-.157.121-.316.182-.474Z"/>
              <path class="cls-5" d="M247.407,171.206c-6.03-15.977-13.338-28.454-20.451-37.496,12.344,23.41,19.297,39.996,14.26,51.8-1.934,4.012-4.565,9.355-13.826,11.769-.161.049-.906-.008-1.045.057-.134.725-.449,1.633-.598,2.376,5.418,3.385,30.055-6.354,21.66-28.508Z"/>
              <path class="cls-5" d="M244.427,134.47c-7.709,4.126-15.67-5.437-19.008-7.958,6.237,6.833,11.17,14.918,12.178,16.416,2.278-1.922,5.015-5.398,6.83-8.458Z"/>
              <path class="cls-5" d="M129.423,162.653c-10.802,10.92-18.106,12.887-23.085,8.647,2.936,5.748,8.238,10.375,14.105,11.647-.174-1.569.102-3.809.16-4.167.209-1.307,1.934-9.141,8.82-16.127Z"/>
            </g>
          </g>
        </g>
      </g>
      <g>
        <path d="M327.455,212.866c-4.295-1.878-7.668-4.542-10.12-7.993-2.455-3.45-3.681-7.476-3.681-12.076h14.031c.305,3.45,1.668,6.288,4.082,8.51,2.415,2.225,5.808,3.335,10.178,3.335,4.524,0,8.05-1.092,10.581-3.278,2.529-2.185,3.795-5.002,3.795-8.453,0-2.683-.787-4.869-2.358-6.555-1.572-1.686-3.528-2.99-5.866-3.91-2.34-.92-5.578-1.916-9.718-2.99-5.215-1.38-9.451-2.779-12.709-4.198-3.26-1.418-6.039-3.623-8.338-6.613-2.301-2.99-3.451-6.976-3.451-11.961,0-4.6,1.15-8.626,3.451-12.076,2.299-3.45,5.52-6.095,9.66-7.936,4.14-1.84,8.931-2.76,14.376-2.76,7.744,0,14.089,1.937,19.034,5.808,4.946,3.872,7.686,9.182,8.223,15.928h-14.491c-.23-2.913-1.609-5.405-4.14-7.476-2.53-2.07-5.865-3.105-10.006-3.105-3.758,0-6.825.96-9.2,2.875-2.378,1.918-3.566,4.678-3.566,8.281,0,2.455.747,4.467,2.242,6.038,1.495,1.572,3.393,2.818,5.693,3.738,2.301.92,5.444,1.918,9.43,2.99,5.291,1.457,9.604,2.914,12.938,4.37,3.336,1.458,6.171,3.7,8.511,6.729,2.337,3.03,3.507,7.073,3.507,12.133,0,4.065-1.092,7.898-3.278,11.501-2.185,3.605-5.368,6.499-9.546,8.683-4.18,2.186-9.105,3.278-14.778,3.278-5.368,0-10.198-.938-14.491-2.818Z"/>
        <path d="M385.705,165.943c2.646-4.945,6.305-8.758,10.983-11.443,4.676-2.683,10.044-4.025,16.101-4.025,7.667,0,14.013,1.822,19.035,5.463,5.022,3.642,8.413,8.838,10.178,15.584h-14.146c-1.15-3.143-2.99-5.596-5.522-7.36-2.529-1.763-5.711-2.645-9.546-2.645-5.368,0-9.641,1.898-12.823,5.693-3.182,3.795-4.772,9.106-4.772,15.928s1.59,12.153,4.772,15.987c3.182,3.834,7.456,5.75,12.823,5.75,7.59,0,12.612-3.335,15.068-10.006h14.146c-1.84,6.44-5.291,11.558-10.35,15.354-5.061,3.795-11.349,5.693-18.863,5.693-6.057,0-11.425-1.36-16.101-4.083-4.678-2.72-8.338-6.555-10.983-11.501-2.645-4.945-3.967-10.676-3.967-17.194s1.322-12.248,3.967-17.194Z"/>
        <path d="M455.744,166.001c2.645-4.906,6.249-8.721,10.81-11.443,4.561-2.721,9.603-4.083,15.124-4.083,4.983,0,9.334.978,13.053,2.933,3.718,1.955,6.689,4.39,8.914,7.303v-9.201h13.226v63.37h-13.226v-9.43c-2.225,2.989-5.252,5.483-9.086,7.475-3.835,1.993-8.206,2.99-13.111,2.99-5.445,0-10.428-1.399-14.951-4.198-4.525-2.798-8.108-6.709-10.753-11.731-2.646-5.021-3.968-10.714-3.968-17.078s1.322-11.999,3.968-16.907ZM500.943,171.751c-1.803-3.22-4.16-5.673-7.074-7.36-2.914-1.686-6.057-2.53-9.43-2.53s-6.518.825-9.43,2.473c-2.915,1.65-5.273,4.065-7.074,7.246-1.802,3.182-2.702,6.958-2.702,11.328s.9,8.205,2.702,11.501c1.801,3.297,4.178,5.808,7.131,7.533,2.95,1.725,6.076,2.588,9.373,2.588,3.373,0,6.516-.843,9.43-2.53,2.913-1.686,5.271-4.159,7.074-7.419,1.8-3.258,2.702-7.073,2.702-11.443s-.902-8.166-2.702-11.386Z"/>
        <path d="M548.269,129.773v85.106h-13.111v-85.106h13.111Z"/>
        <path d="M579.665,129.773v85.106h-13.111v-85.106h13.111Z"/>
        <path d="M609.221,211.831c-4.829-2.72-8.626-6.555-11.386-11.501-2.76-4.945-4.14-10.676-4.14-17.194,0-6.44,1.418-12.151,4.255-17.136,2.836-4.983,6.709-8.816,11.616-11.501,4.906-2.683,10.388-4.025,16.446-4.025s11.539,1.342,16.447,4.025c4.906,2.685,8.779,6.518,11.616,11.501,2.835,4.985,4.255,10.696,4.255,17.136s-1.457,12.153-4.37,17.136c-2.914,4.986-6.882,8.839-11.903,11.558-5.023,2.723-10.563,4.083-16.618,4.083-5.981,0-11.387-1.36-16.217-4.083ZM634.926,202.114c2.95-1.61,5.348-4.026,7.188-7.246,1.84-3.221,2.76-7.13,2.76-11.731s-.882-8.491-2.645-11.673c-1.765-3.18-4.103-5.578-7.016-7.188-2.914-1.61-6.057-2.415-9.43-2.415s-6.499.805-9.374,2.415-5.157,4.008-6.842,7.188c-1.688,3.182-2.53,7.073-2.53,11.673,0,6.826,1.743,12.096,5.233,15.814,3.489,3.72,7.879,5.579,13.169,5.579,3.372,0,6.536-.806,9.488-2.415Z"/>
        <path d="M694.556,153.465c3.832-1.993,8.166-2.99,12.996-2.99,5.52,0,10.56,1.362,15.123,4.083,4.561,2.722,8.146,6.538,10.754,11.443,2.606,4.908,3.909,10.543,3.909,16.907s-1.304,12.058-3.909,17.078c-2.608,5.023-6.193,8.933-10.754,11.731-4.563,2.799-9.603,4.198-15.123,4.198-4.83,0-9.126-.978-12.882-2.933-3.757-1.955-6.825-4.388-9.2-7.303v39.333h-13.111v-93.502h13.111v9.316c2.223-2.913,5.25-5.366,9.086-7.361ZM721.295,171.579c-1.803-3.181-4.18-5.596-7.13-7.246-2.952-1.648-6.116-2.473-9.488-2.473-3.298,0-6.423.845-9.374,2.53-2.952,1.687-5.329,4.14-7.13,7.36-1.803,3.22-2.702,7.015-2.702,11.386s.899,8.185,2.702,11.443c1.801,3.26,4.178,5.733,7.13,7.419,2.95,1.688,6.076,2.53,9.374,2.53,3.372,0,6.536-.863,9.488-2.588,2.95-1.725,5.328-4.236,7.13-7.533,1.801-3.296,2.702-7.13,2.702-11.501s-.901-8.146-2.702-11.328Z"/>
      </g>
    </g>
  </g>
</svg>