<svg width="269" height="100" viewBox="0 0 269 100" fill="none" xmlns="http://www.w3.org/2000/svg">
<g clip-path="url(#clip0_116_3022)">
<path d="M50 100C77.6142 100 100 77.6142 100 50C100 22.3858 77.6142 0 50 0C22.3858 0 0 22.3858 0 50C0 77.6142 22.3858 100 50 100Z" fill="#F1D6C8"/>
<path d="M79.8795 37.4233C82.8032 34.8079 85.8795 30.5847 84.3893 28.5014C82.899 26.4181 74.8883 26.4228 72.1223 26.9809C68.5321 23.5842 64.8116 19.6986 55.0083 22.1335C53.0702 19.8847 48.6786 16.8228 47.0683 17.5428C43.8404 18.8837 42.5246 26.2674 42.5246 26.2674C33.4456 28.6479 24.5381 33.3107 22.3451 34.574C18.246 36.7791 13.9939 41.0907 15.5144 47.4628C11.7195 50.9419 10.8246 66.6763 22.3028 69.9028C26.9711 76.6358 31.0056 76.3321 36.2 76.24C37.8195 80.2428 43.9521 85.2354 52.5358 79.9651C58.3521 81.2233 65.4139 81.5223 70.8256 76.0256C78.1925 75.7698 87.2237 69.3014 84.746 58.5112C89.2549 52.0842 80.6051 38.7656 79.88 37.4233H79.8795Z" fill="black"/>
<path d="M69.6065 75.0014C69.5469 75.0633 69.4851 75.1256 69.4232 75.1879C69.4846 75.1265 69.5455 75.0647 69.6065 75.0014Z" fill="white"/>
<path d="M83.6256 49.1656C77.7112 33.4954 69.1544 25.0586 64.3781 23.5982C59.1065 21.9749 53.8028 24.0684 41.6293 28.1814C28.7247 32.5419 19.8716 36.2577 17.5233 41.6735C15.254 46.9065 19.4502 53.5154 24.573 54.6261C24.4921 53.8963 24.6205 52.8544 24.6474 52.6879C24.7888 51.8033 26.4228 44.4954 34.7661 41.3219C29.7256 44.1465 23.3963 51.4163 26.8619 57.987C28.6777 60.2991 31.7712 62.0419 36.8512 60.7354C37.2977 53.9702 42.5661 45.6572 49.2209 40.0995C44.7935 45.2833 39.3795 52.5098 38.6149 59.4005C38.554 59.9396 38.5391 62.3921 39.8707 64.1405C44.0949 68.087 52.0479 69.747 56.8795 64.3647C61.7474 58.3809 60.6 47.3037 59.9042 41.5228C62.0414 49.2251 62.3916 57.9554 58.9558 63.7395C61.7712 66.6163 66.954 67.1023 71.6526 63.2637C74.7698 56.0242 74.7051 46.7675 68.3619 38.2577C74.9107 46.0135 75.5591 52.4372 73.5521 62.4247C79.6214 60.7842 86.7447 59.0205 83.6265 49.1651L83.6256 49.1656Z" fill="#ABB0C0"/>
<path d="M22.4744 61.9326C19.5903 61.0916 14.8986 57.2521 15.0382 52.1893C14.3619 55.1637 13.4028 65.3907 23.2405 68.5856C22.2154 66.466 22.2223 63.9851 22.4744 61.9326Z" fill="#ABB0C0"/>
<path d="M35.1042 68.8423C31.5902 69.0875 25.1135 65.987 24.367 61.8642C23.4177 63.0065 22.2172 67.387 24.8605 70.7675C28.2995 74.8758 31.6651 74.9498 36.5525 74.647C35.4237 72.5582 35.0479 70.5819 35.1046 68.8428L35.1042 68.8423Z" fill="#ABB0C0"/>
<path d="M71.1861 69.8316C71.1861 69.8316 71.1861 69.8302 71.1861 69.8293C68.8089 72.427 62.2782 74.0544 56.48 71.3702C56.3847 72.9879 54.5572 76.7939 52.613 78.2823C56.4 79.1632 63.774 80.7781 69.3744 75.2358C70.6521 73.366 71.1233 71.4763 71.1865 69.8307L71.1861 69.8316Z" fill="#ABB0C0"/>
<path d="M36.3377 68.927C36.0735 71.6084 36.4828 73.5502 37.0656 75.1293C38.5977 78.32 43.9284 83.5414 52.1056 78.52C54.2042 76.7409 54.7145 73.947 54.661 72C50.7921 74.933 39.5624 74.8065 36.3377 68.927Z" fill="#ABB0C0"/>
<path d="M72.4963 69.393V69.394C72.4651 70.5135 72.0693 72.2809 70.073 74.52C77.0242 74.4307 82.2423 69.6726 83.1879 64.7493C81.1093 68.0014 76.2953 70.0177 72.4963 69.393Z" fill="#ABB0C0"/>
<path d="M36.9251 74.7284C36.9139 74.6944 36.9023 74.6605 36.8916 74.6265C36.9028 74.6605 36.9139 74.6949 36.9251 74.7284Z" fill="#717071"/>
<path d="M52.1056 78.52C52.8372 78.0707 53.267 77.3377 53.6288 76.6288C53.253 77.3195 52.7558 77.9688 52.1056 78.52Z" fill="#717071"/>
<path d="M14.7757 58.1344C15.2576 62.0735 17.2413 66.6372 23.2404 68.5856C22.8557 67.7898 22.6162 66.9433 22.4804 66.0875C17.5934 66.0019 15.2902 60.5372 14.7753 58.1349L14.7757 58.1344Z" fill="#858B97"/>
<path d="M23.2892 66.7256C23.4096 68.0628 23.859 69.487 24.8603 70.7674C28.2994 74.8758 31.665 74.9498 36.5524 74.647C36.2422 74.073 35.991 73.5079 35.7878 72.954C26.8883 74.1484 24.2845 69.2809 23.2897 66.726L23.2892 66.7256Z" fill="#858B97"/>
<path d="M53.6287 76.6288C53.6673 76.553 53.7064 76.4768 53.7436 76.4014C51.7413 77.9168 49.6785 79.1744 45.2487 78.9837C39.8766 78.5572 37.3087 75.8433 36.5096 73.1828C36.5417 73.3423 36.5771 73.4972 36.6138 73.6498C36.6227 73.6865 36.6315 73.7233 36.6408 73.7595C36.7162 74.0605 36.8003 74.3488 36.8906 74.6256C36.9017 74.6595 36.9129 74.694 36.9241 74.7275C36.9696 74.8633 37.0162 74.9977 37.0645 75.1284C38.5966 78.3191 43.9273 83.5405 52.1045 78.5191C52.7548 77.9679 53.252 77.3191 53.6278 76.6279L53.6287 76.6288Z" fill="#858B97"/>
<path d="M69.3738 75.2363C69.8441 74.5479 70.2045 73.8572 70.4762 73.1768C64.3427 79.1447 56.2069 77.3768 54.4287 76.2316C53.8738 77.0582 53.2501 77.7949 52.6129 78.2828C56.3999 79.1637 63.7734 80.7786 69.3738 75.2363Z" fill="#858B97"/>
<path d="M71.4027 72.7498C71.0674 73.3 70.633 73.8912 70.0725 74.5196C75.7497 74.4465 80.2693 71.2591 82.2511 67.4112C80.1041 71.4624 73.2776 72.9428 71.4027 72.7493V72.7498Z" fill="#858B97"/>
<path d="M16.2055 49.274C15.4799 50.227 15.2515 51.3414 15.2515 51.3414C15.0669 54.4154 19.3911 61.6405 24.9204 60.9242C25.1557 64.9647 32.7581 69.4144 36.2562 67.4209C38.6729 73.1595 51.039 74.6414 55.9064 69.9316C58.8497 72.6368 69.3055 72.3149 71.4688 67.994C74.7943 69.7879 82.0632 66.6842 83.4618 62.8656C83.7567 61.4298 83.3371 60.0019 83.3371 60.0019C81.832 61.8535 76.8004 65.5623 72.9074 64.3056C69.9883 66.9828 63.3218 69.6307 58.2102 65.3009C52.3241 72.7796 38.4716 68.7661 37.2297 62.2916C33.3548 63.3321 26.0725 62.9828 24.4464 56.2447C23.2441 55.7409 19.0762 55.0409 16.2055 49.274Z" fill="#1E2D45"/>
<path d="M44.3469 25.5986C46.4372 24.8088 50.7734 23.4512 53.3358 22.7093C51.8502 21.1749 48.5874 18.826 47.666 19.0284C46.3413 19.3944 44.8079 23.4349 44.3469 25.5986Z" fill="white"/>
<path d="M73.3981 28.3777C76.299 31.5558 78.5934 35.3163 79.0623 36.013C81.0757 34.3144 83.8627 30.0046 83.0046 29.373C81.3399 28.1474 75.4567 28.0893 73.3981 28.3777Z" fill="white"/>
<path d="M40.7269 28.4879C40.5688 28.5419 40.4111 28.5958 40.2544 28.6493C40.1762 28.6758 40.0986 28.7028 40.0209 28.7293C39.8641 28.7833 39.7079 28.8368 39.552 28.8907C39.4813 28.9149 39.4106 28.9395 39.3404 28.9637C39.1209 29.0395 38.9018 29.1154 38.6851 29.1912C38.6776 29.194 38.6702 29.1963 38.6627 29.1991C38.4502 29.273 38.239 29.347 38.0292 29.4209C37.9604 29.4451 37.8925 29.4693 37.8237 29.4935C37.6734 29.5465 37.5232 29.5995 37.3744 29.6526C37.3009 29.6786 37.2279 29.7047 37.1544 29.7307C37.0037 29.7847 36.8534 29.8381 36.7041 29.8916C36.6399 29.9149 36.5753 29.9377 36.5116 29.9609C36.0916 30.1121 35.6767 30.2633 35.2679 30.414C35.2051 30.4372 35.1432 30.46 35.0809 30.4833C34.9376 30.5363 34.7948 30.5893 34.653 30.6423C34.5837 30.6679 34.5148 30.694 34.446 30.7195C34.3037 30.773 34.1623 30.8261 34.0213 30.8795C33.9613 30.9023 33.9013 30.9247 33.8413 30.9474C33.6432 31.0228 33.446 31.0981 33.2506 31.173H33.2497C33.0558 31.2479 32.8632 31.3228 32.672 31.3972C32.6153 31.4195 32.559 31.4414 32.5027 31.4637C32.366 31.5177 32.2297 31.5712 32.0944 31.6251C32.0316 31.6502 31.9688 31.6749 31.906 31.7C31.7716 31.7535 31.6386 31.807 31.506 31.8609C31.4506 31.8833 31.3948 31.9056 31.3395 31.9284C30.9692 32.0786 30.6055 32.2288 30.2479 32.3795C30.1967 32.4009 30.1455 32.4228 30.0948 32.4442C29.966 32.4986 29.8381 32.553 29.7111 32.6074C29.6539 32.6321 29.5967 32.6568 29.5395 32.6814C29.413 32.7363 29.2869 32.7907 29.1623 32.8456C29.113 32.867 29.0637 32.8884 29.0148 32.9102C28.6716 33.0614 28.3344 33.213 28.0041 33.3651C27.9567 33.387 27.9097 33.4088 27.8623 33.4307C27.7437 33.4856 27.626 33.5405 27.5088 33.5958C27.4562 33.6205 27.4037 33.6451 27.3516 33.6702C27.2353 33.7256 27.1195 33.7809 27.0051 33.8363C26.9599 33.8581 26.9144 33.88 26.8693 33.9019C26.5544 34.0549 26.246 34.2088 25.9441 34.3633C25.9013 34.3851 25.859 34.4074 25.8162 34.4293C25.7079 34.4851 25.5999 34.5414 25.4934 34.5972C25.446 34.6223 25.3986 34.6474 25.3511 34.6726C25.2446 34.7293 25.139 34.7856 25.0344 34.8423C24.9939 34.8642 24.9534 34.8861 24.9134 34.9079C24.6279 35.0637 24.3492 35.2209 24.0776 35.3786C24.0386 35.4014 23.9999 35.4242 23.9609 35.447C23.8637 35.5042 23.7669 35.5609 23.6716 35.6186C23.6293 35.6442 23.5869 35.6698 23.5446 35.6954C23.4488 35.7535 23.3539 35.8121 23.2595 35.8702C23.2241 35.8921 23.1879 35.9144 23.153 35.9363C23.0246 36.0168 22.8981 36.0972 22.7734 36.1781C27.9079 33.7581 45.4125 27.3186 54.1758 33.8577C62.939 40.3967 74.4176 32.7507 68.3916 25.8679C66.8948 24.7056 65.5265 23.9498 64.3776 23.5986C59.106 21.9754 53.8023 24.0688 41.6288 28.1819C41.3999 28.2591 41.173 28.3363 40.9469 28.413C40.8734 28.4381 40.8004 28.4628 40.7269 28.4879Z" fill="white"/>
<path d="M43.0791 46.5158C37.947 52.9763 36.6149 57.8144 33.4674 58.3842C30.9572 58.8386 27.9493 59.147 25.9902 55.4465C26.1363 56.2977 26.4186 57.1484 26.8609 57.9875C28.6767 60.2996 31.7702 62.0423 36.8502 60.7358C37.1456 56.2582 39.5544 51.1024 43.0791 46.5158Z" fill="#858B97"/>
<path d="M38.8223 61.8209C39.0055 62.5926 39.3246 63.4261 39.8697 64.1414C44.0939 68.0879 52.0469 69.7479 56.8785 64.3656C59.6083 61.0098 60.446 56.053 60.533 51.326C57.326 68.0623 41.2627 68.8735 38.8223 61.8209Z" fill="#858B97"/>
<path d="M72.0051 62.3926C72.0618 62.246 72.1181 62.0995 72.1721 61.9512C72.2046 61.8614 72.2358 61.7712 72.2674 61.6809C72.3144 61.5479 72.3609 61.4144 72.4056 61.28C72.4381 61.1823 72.4693 61.0837 72.5009 60.9851C72.5418 60.8572 72.5823 60.7284 72.6214 60.5995C72.6525 60.4963 72.6828 60.3926 72.7125 60.2888C72.7488 60.1633 72.7837 60.0372 72.8176 59.9112C72.847 59.8037 72.8753 59.6958 72.9032 59.5874C72.9349 59.4637 72.9651 59.3395 72.9949 59.2153C73.0214 59.1037 73.0483 58.9921 73.0735 58.88C73.1009 58.7581 73.1265 58.6349 73.1521 58.5126C73.1763 58.3972 73.2009 58.2823 73.2232 58.1665C73.2465 58.0474 73.267 57.9274 73.2884 57.8079C73.3097 57.687 73.3325 57.567 73.3521 57.4456C73.3688 57.3428 73.3828 57.2386 73.3981 57.1353C73.4404 56.8516 73.4781 56.566 73.5107 56.2791C73.5195 56.1991 73.5302 56.12 73.5386 56.04C73.5539 55.8893 73.5665 55.7377 73.579 55.586C73.587 55.4944 73.5953 55.4033 73.6023 55.3112C73.6135 55.1595 73.6214 55.007 73.6297 54.8549C73.6349 54.7633 73.64 54.6716 73.6442 54.5795C73.6507 54.4247 73.6549 54.2698 73.6586 54.1144C73.6604 54.0251 73.6628 53.9353 73.6637 53.8456C73.6656 53.6865 73.6656 53.527 73.6642 53.367C73.6632 53.2823 73.6623 53.1972 73.6604 53.1126C73.6572 52.947 73.653 52.7814 73.646 52.6153C73.6428 52.5386 73.639 52.4619 73.6349 52.3847C73.626 52.2098 73.6167 52.0344 73.6037 51.8586C73.5995 51.7977 73.5939 51.7363 73.5888 51.6753C73.5735 51.4833 73.5572 51.2912 73.5372 51.0981C73.5349 51.0763 73.5321 51.054 73.5297 51.0321C73.4293 50.093 73.2725 49.147 73.0544 48.1972C73.0525 48.1893 73.0511 48.1809 73.0493 48.173C72.999 47.9563 72.9446 47.7391 72.8884 47.5219C72.879 47.486 72.8702 47.4498 72.8604 47.414C72.8056 47.207 72.747 47 72.6865 46.793C72.6735 46.7479 72.6604 46.7028 72.6469 46.6577C72.5856 46.4535 72.5214 46.2488 72.4544 46.0447C72.4395 45.9991 72.4242 45.9535 72.4093 45.9079C72.34 45.7005 72.2679 45.4935 72.1925 45.286C72.1786 45.2484 72.1646 45.2107 72.1507 45.173C72.0707 44.9567 71.9883 44.74 71.9018 44.5237C71.8949 44.5056 71.887 44.4879 71.88 44.4698C71.3921 43.2595 70.7976 42.0507 70.0879 40.8512C73.5376 49.674 72.8107 60.3358 67.0707 63.3753C64.98 64.4828 62.0493 65.1614 59.1781 63.3516C59.1772 63.3512 59.1763 63.3512 59.1753 63.3507C59.1032 63.4814 59.0311 63.6126 58.9553 63.7405C61.7707 66.6172 66.9535 67.1033 71.6521 63.2646C71.7446 63.0493 71.8344 62.8321 71.9214 62.613C71.9502 62.54 71.9777 62.466 72.006 62.3926H72.0051Z" fill="#858B97"/>
<path d="M83.6256 49.1656C80.8209 41.7344 77.4218 35.9312 74.1135 31.7256C79.8549 42.614 83.0888 50.3284 80.746 55.8186C79.8465 57.6847 78.6228 60.1698 74.3153 61.2926C74.2405 61.3154 73.8939 61.2888 73.8293 61.3191C73.767 61.6563 73.6204 62.0786 73.5511 62.4242C76.0711 63.9986 87.5302 59.4688 83.6256 49.1647V49.1656Z" fill="#858B97"/>
<path d="M82.2395 32.0791C78.6539 33.9982 74.9511 29.5502 73.3986 28.3777C76.2995 31.5558 78.5939 35.3163 79.0627 36.013C80.1223 35.1191 81.3953 33.5023 82.2395 32.0791Z" fill="#858B97"/>
<path d="M28.7488 45.1874C23.7246 50.2665 20.3274 51.1814 18.0116 49.2093C19.3772 51.8828 21.8432 54.0349 24.5721 54.6265C24.4911 53.8967 24.6195 52.8549 24.6465 52.6884C24.7437 52.0805 25.546 48.4367 28.7488 45.1874Z" fill="#858B97"/>
</g>
<path d="M125.072 45.794C123.112 45.794 121.348 45.458 119.78 44.786C118.212 44.086 116.98 43.106 116.084 41.846C115.188 40.586 114.74 39.116 114.74 37.436H119.864C119.976 38.696 120.466 39.732 121.334 40.544C122.23 41.356 123.476 41.762 125.072 41.762C126.724 41.762 128.012 41.37 128.936 40.586C129.86 39.774 130.322 38.738 130.322 37.478C130.322 36.498 130.028 35.7 129.44 35.084C128.88 34.468 128.166 33.992 127.298 33.656C126.458 33.32 125.282 32.956 123.77 32.564C121.866 32.06 120.312 31.556 119.108 31.052C117.932 30.52 116.924 29.708 116.084 28.616C115.244 27.524 114.824 26.068 114.824 24.248C114.824 22.568 115.244 21.098 116.084 19.838C116.924 18.578 118.1 17.612 119.612 16.94C121.124 16.268 122.874 15.932 124.862 15.932C127.69 15.932 130 16.646 131.792 18.074C133.612 19.474 134.62 21.406 134.816 23.87H129.524C129.44 22.806 128.936 21.896 128.012 21.14C127.088 20.384 125.87 20.006 124.358 20.006C122.986 20.006 121.866 20.356 120.998 21.056C120.13 21.756 119.696 22.764 119.696 24.08C119.696 24.976 119.962 25.718 120.494 26.306C121.054 26.866 121.754 27.314 122.594 27.65C123.434 27.986 124.582 28.35 126.038 28.742C127.97 29.274 129.538 29.806 130.742 30.338C131.974 30.87 133.01 31.696 133.85 32.816C134.718 33.908 135.152 35.378 135.152 37.226C135.152 38.71 134.746 40.11 133.934 41.426C133.15 42.742 131.988 43.806 130.448 44.618C128.936 45.402 127.144 45.794 125.072 45.794ZM139.205 33.908C139.205 31.528 139.681 29.442 140.633 27.65C141.613 25.83 142.957 24.43 144.665 23.45C146.373 22.47 148.333 21.98 150.545 21.98C153.345 21.98 155.655 22.652 157.475 23.996C159.323 25.312 160.569 27.202 161.213 29.666H156.047C155.627 28.518 154.955 27.622 154.031 26.978C153.107 26.334 151.945 26.012 150.545 26.012C148.585 26.012 147.017 26.712 145.841 28.112C144.693 29.484 144.119 31.416 144.119 33.908C144.119 36.4 144.693 38.346 145.841 39.746C147.017 41.146 148.585 41.846 150.545 41.846C153.317 41.846 155.151 40.628 156.047 38.192H161.213C160.541 40.544 159.281 42.42 157.433 43.82C155.585 45.192 153.289 45.878 150.545 45.878C148.333 45.878 146.373 45.388 144.665 44.408C142.957 43.4 141.613 42 140.633 40.208C139.681 38.388 139.205 36.288 139.205 33.908ZM164.389 33.824C164.389 31.5 164.865 29.442 165.817 27.65C166.797 25.858 168.113 24.472 169.765 23.492C171.445 22.484 173.293 21.98 175.309 21.98C177.129 21.98 178.711 22.344 180.055 23.072C181.427 23.772 182.519 24.654 183.331 25.718V22.358H188.161V45.5H183.331V42.056C182.519 43.148 181.413 44.058 180.013 44.786C178.613 45.514 177.017 45.878 175.225 45.878C173.237 45.878 171.417 45.374 169.765 44.366C168.113 43.33 166.797 41.902 165.817 40.082C164.865 38.234 164.389 36.148 164.389 33.824ZM183.331 33.908C183.331 32.312 182.995 30.926 182.323 29.75C181.679 28.574 180.825 27.678 179.761 27.062C178.697 26.446 177.549 26.138 176.317 26.138C175.085 26.138 173.937 26.446 172.873 27.062C171.809 27.65 170.941 28.532 170.269 29.708C169.625 30.856 169.303 32.228 169.303 33.824C169.303 35.42 169.625 36.82 170.269 38.024C170.941 39.228 171.809 40.152 172.873 40.796C173.965 41.412 175.113 41.72 176.317 41.72C177.549 41.72 178.697 41.412 179.761 40.796C180.825 40.18 181.679 39.284 182.323 38.108C182.995 36.904 183.331 35.504 183.331 33.908ZM199.238 14.42V45.5H194.45V14.42H199.238ZM210.312 14.42V45.5H205.524V14.42H210.312ZM226.636 45.878C224.452 45.878 222.478 45.388 220.714 44.408C218.95 43.4 217.564 42 216.556 40.208C215.548 38.388 215.044 36.288 215.044 33.908C215.044 31.556 215.562 29.47 216.598 27.65C217.634 25.83 219.048 24.43 220.84 23.45C222.632 22.47 224.634 21.98 226.846 21.98C229.058 21.98 231.06 22.47 232.852 23.45C234.644 24.43 236.058 25.83 237.094 27.65C238.13 29.47 238.648 31.556 238.648 33.908C238.648 36.26 238.116 38.346 237.052 40.166C235.988 41.986 234.532 43.4 232.684 44.408C230.864 45.388 228.848 45.878 226.636 45.878ZM226.636 41.72C227.868 41.72 229.016 41.426 230.08 40.838C231.172 40.25 232.054 39.368 232.726 38.192C233.398 37.016 233.734 35.588 233.734 33.908C233.734 32.228 233.412 30.814 232.768 29.666C232.124 28.49 231.27 27.608 230.206 27.02C229.142 26.432 227.994 26.138 226.762 26.138C225.53 26.138 224.382 26.432 223.318 27.02C222.282 27.608 221.456 28.49 220.84 29.666C220.224 30.814 219.916 32.228 219.916 33.908C219.916 36.4 220.546 38.332 221.806 39.704C223.094 41.048 224.704 41.72 226.636 41.72ZM248.169 25.76C248.981 24.696 250.087 23.8 251.487 23.072C252.887 22.344 254.469 21.98 256.233 21.98C258.249 21.98 260.083 22.484 261.735 23.492C263.415 24.472 264.731 25.858 265.683 27.65C266.635 29.442 267.111 31.5 267.111 33.824C267.111 36.148 266.635 38.234 265.683 40.082C264.731 41.902 263.415 43.33 261.735 44.366C260.083 45.374 258.249 45.878 256.233 45.878C254.469 45.878 252.901 45.528 251.529 44.828C250.157 44.1 249.037 43.204 248.169 42.14V56.504H243.381V22.358H248.169V25.76ZM262.239 33.824C262.239 32.228 261.903 30.856 261.231 29.708C260.587 28.532 259.719 27.65 258.627 27.062C257.563 26.446 256.415 26.138 255.183 26.138C253.979 26.138 252.831 26.446 251.739 27.062C250.675 27.678 249.807 28.574 249.135 29.75C248.491 30.926 248.169 32.312 248.169 33.908C248.169 35.504 248.491 36.904 249.135 38.108C249.807 39.284 250.675 40.18 251.739 40.796C252.831 41.412 253.979 41.72 255.183 41.72C256.415 41.72 257.563 41.412 258.627 40.796C259.719 40.152 260.587 39.228 261.231 38.024C261.903 36.82 262.239 35.42 262.239 33.824Z" fill="black"/>
<path d="M129.71 61.105V63.695H123.06V85.5H119.875V63.695H113.19V61.105H129.71ZM141.996 85.815C140.199 85.815 138.566 85.4067 137.096 84.59C135.649 83.7733 134.506 82.6183 133.666 81.125C132.849 79.6083 132.441 77.8583 132.441 75.875C132.441 73.915 132.861 72.1883 133.701 70.695C134.564 69.1783 135.731 68.0233 137.201 67.23C138.671 66.4133 140.316 66.005 142.136 66.005C143.956 66.005 145.601 66.4133 147.071 67.23C148.541 68.0233 149.696 69.1667 150.536 70.66C151.399 72.1533 151.831 73.8917 151.831 75.875C151.831 77.8583 151.387 79.6083 150.501 81.125C149.637 82.6183 148.459 83.7733 146.966 84.59C145.472 85.4067 143.816 85.815 141.996 85.815ZM141.996 83.015C143.139 83.015 144.212 82.7467 145.216 82.21C146.219 81.6733 147.024 80.8683 147.631 79.795C148.261 78.7217 148.576 77.415 148.576 75.875C148.576 74.335 148.272 73.0283 147.666 71.955C147.059 70.8817 146.266 70.0883 145.286 69.575C144.306 69.0383 143.244 68.77 142.101 68.77C140.934 68.77 139.861 69.0383 138.881 69.575C137.924 70.0883 137.154 70.8817 136.571 71.955C135.987 73.0283 135.696 74.335 135.696 75.875C135.696 77.4383 135.976 78.7567 136.536 79.83C137.119 80.9033 137.889 81.7083 138.846 82.245C139.802 82.7583 140.852 83.015 141.996 83.015ZM164.383 85.815C162.587 85.815 160.953 85.4067 159.483 84.59C158.037 83.7733 156.893 82.6183 156.053 81.125C155.237 79.6083 154.828 77.8583 154.828 75.875C154.828 73.915 155.248 72.1883 156.088 70.695C156.952 69.1783 158.118 68.0233 159.588 67.23C161.058 66.4133 162.703 66.005 164.523 66.005C166.343 66.005 167.988 66.4133 169.458 67.23C170.928 68.0233 172.083 69.1667 172.923 70.66C173.787 72.1533 174.218 73.8917 174.218 75.875C174.218 77.8583 173.775 79.6083 172.888 81.125C172.025 82.6183 170.847 83.7733 169.353 84.59C167.86 85.4067 166.203 85.815 164.383 85.815ZM164.383 83.015C165.527 83.015 166.6 82.7467 167.603 82.21C168.607 81.6733 169.412 80.8683 170.018 79.795C170.648 78.7217 170.963 77.415 170.963 75.875C170.963 74.335 170.66 73.0283 170.053 71.955C169.447 70.8817 168.653 70.0883 167.673 69.575C166.693 69.0383 165.632 68.77 164.488 68.77C163.322 68.77 162.248 69.0383 161.268 69.575C160.312 70.0883 159.542 70.8817 158.958 71.955C158.375 73.0283 158.083 74.335 158.083 75.875C158.083 77.4383 158.363 78.7567 158.923 79.83C159.507 80.9033 160.277 81.7083 161.233 82.245C162.19 82.7583 163.24 83.015 164.383 83.015ZM181.591 59.6V85.5H178.406V59.6H181.591ZM193.809 85.815C192.339 85.815 191.021 85.57 189.854 85.08C188.688 84.5667 187.766 83.8667 187.089 82.98C186.413 82.07 186.039 81.0317 185.969 79.865H189.259C189.353 80.8217 189.796 81.6033 190.589 82.21C191.406 82.8167 192.468 83.12 193.774 83.12C194.988 83.12 195.944 82.8517 196.644 82.315C197.344 81.7783 197.694 81.1017 197.694 80.285C197.694 79.445 197.321 78.8267 196.574 78.43C195.828 78.01 194.673 77.6017 193.109 77.205C191.686 76.8317 190.519 76.4583 189.609 76.085C188.723 75.6883 187.953 75.1167 187.299 74.37C186.669 73.6 186.354 72.5967 186.354 71.36C186.354 70.38 186.646 69.4817 187.229 68.665C187.813 67.8483 188.641 67.2067 189.714 66.74C190.788 66.25 192.013 66.005 193.389 66.005C195.513 66.005 197.228 66.5417 198.534 67.615C199.841 68.6883 200.541 70.1583 200.634 72.025H197.449C197.379 71.0217 196.971 70.2167 196.224 69.61C195.501 69.0033 194.521 68.7 193.284 68.7C192.141 68.7 191.231 68.945 190.554 69.435C189.878 69.925 189.539 70.5667 189.539 71.36C189.539 71.99 189.738 72.515 190.134 72.935C190.554 73.3317 191.068 73.6583 191.674 73.915C192.304 74.1483 193.168 74.4167 194.264 74.72C195.641 75.0933 196.761 75.4667 197.624 75.84C198.488 76.19 199.223 76.7267 199.829 77.45C200.459 78.1733 200.786 79.1183 200.809 80.285C200.809 81.335 200.518 82.28 199.934 83.12C199.351 83.96 198.523 84.625 197.449 85.115C196.399 85.5817 195.186 85.815 193.809 85.815Z" fill="black"/>
<defs>
<clipPath id="clip0_116_3022">
<rect width="100" height="100" fill="white"/>
</clipPath>
</defs>
</svg>
