<svg width="299" height="245" viewBox="0 0 299 245" fill="none" xmlns="http://www.w3.org/2000/svg">
<rect width="299" height="244.999" rx="16" fill="#EBEBEB"/>
<path d="M207.585 112.661C205.924 112.475 206.855 114.531 206.96 115.511C208.07 125.923 213.615 140.999 225.369 142.95C223.529 154.647 213.088 166.178 200.91 166.986C169.147 169.091 174.658 129.319 173.816 108.638C173.771 107.557 174.487 105.327 172.935 105.534C171.011 119.846 168.284 134.852 171.563 149.202C172.278 152.332 176.073 159.626 175.46 161.879C165.152 177.286 140.872 193.556 125.833 174.533C108.502 152.611 126.564 114.978 136.471 93.0614C119.912 114.374 108.541 141.627 116.924 168.759C100.523 172.322 79.5993 172.879 74.3059 153.127C70.6564 139.508 76.5718 129.797 83.835 119.138L98.246 99.2958C81.2053 112.992 62.6901 134.465 70.693 158.073C55.0064 155.974 36.3432 151.065 36.0039 131.759C35.4907 102.579 86.1576 73.4866 108.326 60.8453C124.13 51.8332 151.844 34.1698 169.722 36.1542C190.077 38.4132 224.42 67.6962 239.61 81.9162C253.512 94.9309 274.933 118.46 254.718 136.266C235.235 153.429 211.041 134.085 207.586 112.661L207.585 112.661Z" fill="#1E2D45"/>
<path d="M224.594 171.498C224.602 171.484 224.61 171.471 224.618 171.457C225.715 172.18 226.811 172.901 227.907 173.624C221.865 184.277 212.751 192.973 202.502 199.658C199.277 201.761 195.867 203.705 192.115 204.56C187.023 205.719 180.802 204.36 176.895 200.823C176.8 200.737 176.698 200.633 176.701 200.505C176.702 200.424 176.746 200.351 176.788 200.282C177.852 198.538 179.136 196.779 179.781 194.82C180.082 193.905 180.186 192.965 180.166 192.005C180.141 190.765 179.26 189.772 178.142 190.643C177.618 191.05 177.205 192.592 176.858 193.204C176.341 194.111 175.774 194.989 175.159 195.833C167.572 206.254 153.627 209.741 141.334 208.872C132.384 208.242 127.407 202.935 124.91 194.597C121.476 193.779 124.311 197.927 122.615 199.146C106.641 205.498 85.8505 200.138 81.3557 182.13C79.5263 182.222 81.0628 185.096 80.0685 186.614C79.1117 188.077 72.5592 188.74 70.5808 188.71C58.0193 188.519 47.5579 177.94 44.0239 166.544L56.0067 175.914C63.64 181.276 73.0202 182.267 80.9415 176.883C88.8949 189.981 101.282 195.403 116.484 193.707C118.963 193.431 124.001 190.963 125.249 191.207C126.474 191.447 128.032 194.103 129.423 194.983C137.817 200.293 147.775 201.736 157.352 199.211C162.171 197.94 166.751 195.735 170.893 192.977C173.628 191.156 177.489 185.734 181.111 186.895C183.156 187.552 184.686 189.225 186.486 190.398C192.083 194.047 199.62 192.479 205.58 189.461C213.464 185.47 220.155 179.148 224.595 171.497L224.594 171.498Z" fill="#1E2D45"/>
<path d="M129.366 44.9564L100.927 59.213C100.234 54.2883 103.473 38.612 108.045 36.5227C113.016 34.2507 126.525 39.9549 129.366 44.9559L129.366 44.9564Z" fill="#1E2D45"/>
<path d="M196.041 41.4156C200.195 40.5267 204.837 38.407 209.022 37.9366C212.885 37.5019 223.189 36.6858 224.906 40.5329C226.412 43.9088 222.585 58.9507 219.672 58.2753L196.041 41.4156Z" fill="#1E2D45"/>
<path d="M227.152 183.007C228.702 180.032 230.246 177.496 228.937 174.111C238.511 177.871 245.596 168.411 251.608 162.542L258.256 153.63C256.516 168.391 241.559 181.207 227.152 183.007Z" fill="#1E2D45"/>
<path d="M235.96 146.579L236.927 161.646L234.285 161.637C232.772 159.19 234.742 147.534 231.166 148.286C229.153 148.71 229.716 157.354 229.827 159.402C230.042 163.358 233.555 167.558 227.611 169.657C225.875 169.245 223.439 159.453 223.613 157.659C223.871 155.017 229.201 149.336 227.157 144.721L235.96 146.579H235.96Z" fill="#1E2D45"/>
<path d="M231.601 172.319C231.437 170.809 233.61 171.558 234.158 169.998C234.636 168.639 234.118 166.689 234.272 165.204L239.596 166.098L239.602 158.083C240.853 156.659 243.329 163.37 247.625 159.435C250.888 156.447 251.17 153.589 252.549 150.126C253.933 146.652 257.611 143.655 250.731 147.397L249.38 144.724C252.658 145.051 254.908 143.568 256.931 141.174C259.256 142.735 258.038 144.962 257.417 146.991C255.236 154.122 245.943 165.23 239.886 169.501C237.226 171.376 235.116 172.913 231.6 172.319L231.601 172.319Z" fill="#1E2D45"/>
<path d="M79.5874 174.1C75.9995 176.788 73.2021 162.844 70.267 163.427C66.9122 164.093 72.968 173.947 73.3551 175.456C68.3988 178.921 66.6122 160.483 62.7023 164.317C62.8178 168.056 65.4841 170.77 66.4699 174.34C66.8075 175.562 68.0947 176.058 65.8212 175.883C63.3212 174.68 56.4062 160.849 57.3688 159.864C61.494 161.932 70.2505 160.703 73.3502 162.1C76.9523 163.724 77.1035 171.06 79.5874 174.1V174.1Z" fill="#1E2D45"/>
<path d="M187.145 183.902C182.888 184.283 180.482 178.529 179.538 175.056C178.607 171.631 180.647 167.521 175.587 167.863L178.723 163.427C186.137 168.345 187.291 175.493 187.145 183.902Z" fill="#1E2D45"/>
<path d="M119.585 171.442C118.596 176.922 119.939 181.398 121.359 186.578C117.514 185.43 118.168 174.837 114.698 175.021C112.722 176.497 113.136 179.382 113.576 181.477C113.945 183.239 120.599 191.188 115.7 189.141C112.648 187.865 110.3 179.377 109.204 176.315C109.415 174.289 117.495 172.264 119.586 171.441L119.585 171.442Z" fill="#1E2D45"/>
<path d="M175.589 169.661C174.233 174.01 177.699 178.925 177.448 182.579C176.821 191.728 167.322 179.281 171.105 172.723C171.479 172.076 174.88 168.82 175.589 169.661Z" fill="#1E2D45"/>
<path d="M190.311 170.617C190.727 170.536 195.294 171.602 195.99 171.933C200.245 173.961 200.247 186.624 194.694 181.246C193.255 179.853 186.645 171.328 190.311 170.617Z" fill="#1E2D45"/>
<path d="M106.255 174.105C104.939 179.454 108.758 181.929 109.808 186.573C104.977 190.819 94.7823 171.657 106.255 174.105Z" fill="#1E2D45"/>
<path d="M201.114 184.513C201.617 184.167 201.755 182.486 202.759 182.259C203.807 182.023 206.101 183.462 207.595 183.025C206.309 186.875 188.347 190.398 188.065 187.033L189.825 180.344C192.905 183.899 196.062 187.992 201.114 184.513Z" fill="#1E2D45"/>
<path d="M221.814 174.105C214.394 173.207 213.508 164.613 220.492 161.647L221.814 174.105Z" fill="#1E2D45"/>
<path d="M167.584 176.78L168.477 189.246C166.112 189.736 166.949 188.643 166.271 187.491C164.151 183.888 160.984 176.927 167.584 176.78Z" fill="#1E2D45"/>
<path d="M245.819 146.508L245.824 155.848C240.774 157.754 241.621 149.866 240.49 146.506L245.819 146.508Z" fill="#1E2D45"/>
<path d="M54.6922 158.973C54.2869 163.485 56.7909 167.369 58.2529 171.429C55.9366 173.66 50.9202 160.626 50.2629 159.403L54.6922 158.973Z" fill="#1E2D45"/>
<path d="M123.155 178.563C127.199 180.026 131.816 185.237 128.035 189.232C124.753 186.758 123.619 182.505 123.155 178.563Z" fill="#1E2D45"/>
<path d="M205.808 180.344C202.657 178.561 199.095 174.496 202.801 171.516C209.168 170.674 205.837 176.684 205.808 180.344Z" fill="#1E2D45"/>
<path d="M212.924 167.88L212.489 178.558C208.812 175.048 205.616 168.696 212.924 167.88Z" fill="#1E2D45"/>
<path d="M137.371 193.714C141.822 190.928 142.177 193.255 144.994 193.708C147.803 194.159 150.525 191.532 152.463 194.149C152.431 195.837 138.511 196.804 137.371 193.714Z" fill="#1E2D45"/>
<path d="M45.5427 155.662C47.2597 157.856 47.3756 162.707 49.3638 165.195C47.6106 166.865 40.3536 156.303 42.2615 153.625C42.3756 153.469 45.3179 155.375 45.5427 155.662Z" fill="#1E2D45"/>
<path d="M155.14 183.906C155.042 185.579 156.07 187.245 156.081 188.848C156.138 196.856 144.338 185.944 155.14 183.906Z" fill="#1E2D45"/>
<path d="M161.366 181.239L163.144 191.027C161.514 192.768 152.18 181.416 161.366 181.239Z" fill="#1E2D45"/>
<path d="M97.3621 186.574C94.7346 187.911 85.23 179.971 86.7036 178.567L95.5211 183.529L97.3621 186.573V186.574Z" fill="#1E2D45"/>
<path d="M100.922 184.788C99.0475 186.673 93.6515 176.042 94.7042 175.005C97.7589 171.995 100.121 183.661 100.922 184.788Z" fill="#1E2D45"/>
<path d="M132.036 184.806C134.263 184.693 140.084 185.363 139.139 188.795C138 192.929 131.995 186.924 132.036 184.806Z" fill="#1E2D45"/>
<path d="M147.058 185.77C149.739 192.125 145.33 192.157 141.821 187.902C141 185.935 146.118 185.434 147.058 185.77Z" fill="#1E2D45"/>
<path d="M91.9127 174.23L93.8063 180.339C92.6845 181.512 87.7478 175.3 86.7036 174.551L91.9127 174.23Z" fill="#1E2D45"/>
</svg>
