<svg width="500" height="281" viewBox="0 0 500 281" fill="none" xmlns="http://www.w3.org/2000/svg">
<rect width="500" height="281" fill="#1E2D45"/>
<path d="M250.454 161.793C280.978 161.793 305.723 136.935 305.723 106.271C305.723 75.6068 280.978 50.7488 250.454 50.7488C219.929 50.7488 195.184 75.6068 195.184 106.271C195.184 136.935 219.929 161.793 250.454 161.793Z" fill="#F1D6C8"/>
<path d="M283.482 92.3047C286.714 89.4005 290.114 84.7108 288.467 82.3975C286.82 80.0842 277.965 80.0893 274.907 80.7091C270.939 76.9372 266.826 72.6225 255.99 75.3263C253.847 72.8291 248.993 69.4291 247.213 70.2286C243.645 71.7176 242.19 79.9168 242.19 79.9168C232.154 82.5602 222.308 87.7379 219.884 89.1407C215.353 91.5894 210.653 96.3772 212.333 103.453C208.139 107.316 207.149 124.788 219.837 128.371C224.998 135.848 229.457 135.511 235.199 135.408C236.989 139.853 243.768 145.397 253.257 139.545C259.686 140.942 267.492 141.274 273.474 135.17C281.617 134.886 291.6 127.703 288.861 115.722C293.845 108.585 284.284 93.7953 283.483 92.3047H283.482Z" fill="#010B13"/>
<path d="M272.127 134.033C272.061 134.102 271.992 134.171 271.924 134.24C271.992 134.172 272.059 134.103 272.127 134.033Z" fill="white"/>
<path d="M287.623 105.344C281.085 87.943 271.627 78.5745 266.347 76.9528C260.52 75.1502 254.657 77.4749 241.201 82.0422C226.936 86.8842 217.15 91.0104 214.554 97.0244C212.045 102.835 216.684 110.174 222.347 111.407C222.257 110.597 222.399 109.44 222.429 109.255C222.585 108.273 224.391 100.158 233.614 96.6339C228.042 99.7705 221.046 107.843 224.877 115.14C226.884 117.707 230.303 119.642 235.919 118.191C236.412 110.679 242.236 101.448 249.592 95.2766C244.698 101.033 238.714 109.057 237.868 116.709C237.801 117.308 237.785 120.031 239.257 121.973C243.926 126.355 252.717 128.198 258.058 122.222C263.439 115.577 262.171 103.276 261.401 96.857C263.764 105.41 264.151 115.104 260.353 121.527C263.465 124.722 269.194 125.262 274.388 120.999C277.834 112.96 277.762 102.681 270.75 93.2313C277.989 101.844 278.706 108.977 276.488 120.067C283.197 118.246 291.071 116.287 287.624 105.343L287.623 105.344Z" fill="#ABB0C0"/>
<path d="M220.027 119.52C216.839 118.586 211.653 114.323 211.807 108.701C211.059 112.004 209.999 123.36 220.874 126.908C219.741 124.554 219.748 121.799 220.027 119.52Z" fill="#ABB0C0"/>
<path d="M233.988 127.194C230.104 127.466 222.944 124.023 222.119 119.445C221.07 120.714 219.743 125.578 222.665 129.332C226.466 133.894 230.186 133.976 235.589 133.64C234.341 131.32 233.926 129.126 233.988 127.194L233.988 127.194Z" fill="#ABB0C0"/>
<path d="M273.872 128.292C273.872 128.292 273.872 128.291 273.872 128.29C271.245 131.174 264.026 132.982 257.616 130.001C257.511 131.797 255.491 136.024 253.342 137.676C257.528 138.655 265.679 140.448 271.87 134.293C273.282 132.217 273.803 130.119 273.873 128.291L273.872 128.292Z" fill="#ABB0C0"/>
<path d="M235.351 127.288C235.059 130.266 235.512 132.422 236.156 134.175C237.849 137.718 243.742 143.517 252.781 137.941C255.101 135.965 255.665 132.863 255.606 130.701C251.329 133.957 238.916 133.817 235.351 127.288Z" fill="#ABB0C0"/>
<path d="M275.321 127.805V127.806C275.286 129.049 274.849 131.012 272.642 133.498C280.326 133.399 286.094 128.115 287.139 122.648C284.842 126.259 279.52 128.498 275.321 127.805Z" fill="#ABB0C0"/>
<path d="M236.001 133.732C235.989 133.693 235.976 133.655 235.964 133.616C235.976 133.655 235.989 133.694 236.001 133.732Z" fill="#717071"/>
<path d="M252.781 137.94C253.59 137.441 254.065 136.627 254.465 135.84C254.049 136.607 253.5 137.328 252.781 137.94Z" fill="#717071"/>
<path d="M211.517 115.303C212.05 119.677 214.242 124.745 220.874 126.909C220.449 126.025 220.184 125.085 220.034 124.135C214.632 124.04 212.086 117.971 211.516 115.304L211.517 115.303Z" fill="#858B97"/>
<path d="M220.928 124.843C221.061 126.328 221.557 127.91 222.664 129.332C226.466 133.894 230.186 133.976 235.589 133.64C235.246 133.002 234.968 132.375 234.743 131.759C224.906 133.086 222.028 127.681 220.928 124.844L220.928 124.843Z" fill="#858B97"/>
<path d="M254.465 135.841C254.507 135.757 254.551 135.672 254.592 135.588C252.378 137.271 250.098 138.668 245.202 138.456C239.263 137.982 236.425 134.968 235.542 132.014C235.577 132.191 235.616 132.363 235.657 132.533C235.666 132.574 235.676 132.614 235.686 132.655C235.77 132.989 235.863 133.309 235.963 133.616C235.975 133.654 235.987 133.692 236 133.729C236.05 133.88 236.101 134.029 236.155 134.175C237.848 137.718 243.741 143.516 252.78 137.94C253.499 137.328 254.048 136.607 254.464 135.84L254.465 135.841Z" fill="#858B97"/>
<path d="M271.869 134.294C272.389 133.53 272.787 132.763 273.088 132.007C266.308 138.634 257.315 136.671 255.349 135.399C254.736 136.317 254.046 137.135 253.342 137.677C257.528 138.655 265.679 140.448 271.87 134.294H271.869Z" fill="#858B97"/>
<path d="M274.112 131.533C273.741 132.144 273.261 132.8 272.641 133.498C278.917 133.417 283.913 129.878 286.104 125.605C283.73 130.103 276.184 131.747 274.112 131.532V131.533Z" fill="#858B97"/>
<path d="M213.098 105.464C212.295 106.522 212.043 107.76 212.043 107.76C211.839 111.173 216.619 119.196 222.731 118.401C222.991 122.888 231.395 127.829 235.261 125.615C237.933 131.988 251.602 133.633 256.983 128.403C260.236 131.407 271.794 131.05 274.185 126.252C277.861 128.244 285.896 124.797 287.442 120.557C287.768 118.962 287.304 117.377 287.304 117.377C285.64 119.433 280.079 123.551 275.775 122.156C272.549 125.129 265.179 128.069 259.529 123.261C253.023 131.566 237.71 127.109 236.337 119.919C232.054 121.075 224.004 120.687 222.207 113.205C220.878 112.645 216.271 111.868 213.098 105.464Z" fill="#1E2D45"/>
<path d="M244.205 79.1742C246.515 78.2972 251.309 76.7896 254.141 75.9658C252.499 74.2619 248.892 71.6537 247.874 71.8784C246.409 72.2848 244.714 76.7715 244.205 79.1742Z" fill="white"/>
<path d="M276.318 82.2606C279.524 85.7897 282.061 89.9655 282.579 90.7392C284.805 88.853 287.885 84.0672 286.937 83.3659C285.097 82.0049 278.593 81.9404 276.318 82.2606Z" fill="white"/>
<path d="M240.203 82.3825C240.028 82.4424 239.854 82.5023 239.681 82.5617C239.595 82.5912 239.509 82.6211 239.423 82.6506C239.25 82.7105 239.077 82.7699 238.905 82.8298C238.826 82.8566 238.748 82.884 238.671 82.9109C238.428 82.9951 238.186 83.0793 237.946 83.1634C237.938 83.1665 237.93 83.1691 237.922 83.1722C237.687 83.2543 237.453 83.3365 237.221 83.4186C237.145 83.4454 237.07 83.4723 236.994 83.4992C236.828 83.558 236.662 83.6169 236.497 83.6758C236.416 83.7047 236.335 83.7336 236.254 83.7626C236.088 83.8225 235.922 83.8819 235.757 83.9413C235.686 83.9671 235.614 83.9924 235.544 84.0182C235.079 84.1861 234.621 84.3539 234.169 84.5213C234.099 84.5471 234.031 84.5724 233.962 84.5982C233.804 84.6571 233.646 84.716 233.489 84.7749C233.413 84.8033 233.336 84.8322 233.26 84.8606C233.103 84.92 232.947 84.9789 232.791 85.0383C232.725 85.0636 232.658 85.0884 232.592 85.1137C232.373 85.1974 232.155 85.281 231.939 85.3642H231.938C231.724 85.4473 231.511 85.5305 231.299 85.6131C231.237 85.6379 231.175 85.6622 231.112 85.687C230.961 85.7469 230.811 85.8063 230.661 85.8662C230.592 85.8941 230.522 85.9215 230.453 85.9494C230.304 86.0088 230.157 86.0681 230.011 86.1281C229.949 86.1529 229.888 86.1776 229.827 86.203C229.417 86.3698 229.015 86.5366 228.62 86.7039C228.563 86.7277 228.507 86.752 228.451 86.7757C228.308 86.8362 228.167 86.8966 228.027 86.957C227.963 86.9844 227.9 87.0118 227.837 87.0391C227.697 87.1001 227.558 87.1605 227.42 87.2215C227.365 87.2452 227.311 87.269 227.257 87.2933C226.877 87.4611 226.505 87.6295 226.14 87.7984C226.087 87.8226 226.035 87.8469 225.983 87.8712C225.852 87.9321 225.722 87.9931 225.592 88.0546C225.534 88.0819 225.476 88.1093 225.418 88.1372C225.29 88.1986 225.162 88.2601 225.035 88.3216C224.985 88.3458 224.935 88.3701 224.885 88.3944C224.537 88.5643 224.196 88.7353 223.863 88.9067C223.815 88.931 223.768 88.9558 223.721 88.9801C223.601 89.0421 223.482 89.1046 223.364 89.1665C223.312 89.1944 223.259 89.2223 223.207 89.2502C223.089 89.3132 222.973 89.3757 222.857 89.4387C222.812 89.463 222.767 89.4873 222.723 89.5116C222.408 89.6846 222.1 89.8591 221.799 90.0342C221.756 90.0595 221.713 90.0848 221.67 90.1102C221.563 90.1737 221.456 90.2367 221.35 90.3007C221.304 90.3291 221.257 90.3575 221.21 90.386C221.104 90.4505 220.999 90.5156 220.895 90.5802C220.856 90.6044 220.816 90.6292 220.777 90.6535C220.635 90.7428 220.495 90.8322 220.358 90.9221C226.033 88.2348 245.383 81.0841 255.07 88.3453C264.756 95.6066 277.445 87.1161 270.784 79.4732C269.129 78.1825 267.616 77.3432 266.347 76.9532C260.519 75.1507 254.657 77.4754 241.2 82.0427C240.947 82.1284 240.696 82.2141 240.446 82.2994C240.365 82.3273 240.285 82.3546 240.203 82.3825Z" fill="white"/>
<path d="M242.803 102.401C237.13 109.575 235.658 114.948 232.179 115.58C229.404 116.085 226.079 116.428 223.913 112.318C224.075 113.264 224.387 114.208 224.876 115.14C226.883 117.707 230.302 119.643 235.918 118.192C236.244 113.22 238.908 107.494 242.804 102.401H242.803Z" fill="#858B97"/>
<path d="M238.098 119.396C238.3 120.253 238.653 121.178 239.256 121.973C243.925 126.355 252.716 128.198 258.057 122.222C261.074 118.495 262 112.991 262.097 107.742C258.552 126.327 240.795 127.227 238.098 119.396Z" fill="#858B97"/>
<path d="M274.778 120.032C274.84 119.869 274.903 119.706 274.962 119.541C274.998 119.442 275.033 119.342 275.068 119.241C275.12 119.094 275.171 118.945 275.22 118.796C275.256 118.688 275.291 118.578 275.326 118.469C275.371 118.327 275.416 118.184 275.459 118.04C275.493 117.926 275.527 117.811 275.56 117.695C275.6 117.556 275.638 117.416 275.676 117.276C275.708 117.157 275.74 117.037 275.771 116.917C275.806 116.779 275.839 116.641 275.872 116.503C275.901 116.379 275.931 116.256 275.959 116.131C275.989 115.996 276.017 115.859 276.046 115.723C276.072 115.595 276.1 115.467 276.124 115.339C276.15 115.207 276.173 115.073 276.196 114.941C276.22 114.806 276.245 114.673 276.267 114.538C276.285 114.424 276.301 114.308 276.318 114.194C276.364 113.879 276.406 113.562 276.442 113.243C276.452 113.154 276.464 113.066 276.473 112.977C276.49 112.81 276.504 112.642 276.518 112.473C276.526 112.372 276.536 112.27 276.543 112.168C276.556 112 276.564 111.83 276.574 111.661C276.579 111.56 276.585 111.458 276.59 111.356C276.597 111.184 276.601 111.012 276.606 110.839C276.608 110.74 276.61 110.64 276.611 110.541C276.613 110.364 276.613 110.187 276.612 110.009C276.611 109.915 276.61 109.821 276.608 109.727C276.604 109.543 276.599 109.359 276.592 109.175C276.588 109.089 276.584 109.004 276.579 108.918C276.57 108.724 276.559 108.529 276.545 108.334C276.54 108.267 276.534 108.198 276.528 108.131C276.511 107.917 276.493 107.704 276.471 107.49C276.469 107.465 276.466 107.441 276.463 107.416C276.352 106.374 276.179 105.323 275.938 104.268C275.936 104.26 275.934 104.25 275.932 104.242C275.876 104.001 275.816 103.76 275.754 103.518C275.744 103.479 275.734 103.438 275.723 103.399C275.663 103.169 275.598 102.939 275.531 102.709C275.517 102.659 275.502 102.609 275.487 102.559C275.419 102.332 275.348 102.105 275.274 101.878C275.258 101.828 275.241 101.777 275.225 101.726C275.148 101.496 275.068 101.266 274.985 101.036C274.97 100.994 274.954 100.952 274.939 100.91C274.85 100.67 274.759 100.429 274.664 100.189C274.656 100.169 274.647 100.149 274.639 100.129C274.1 98.7854 273.443 97.4431 272.658 96.1111C276.472 105.908 275.668 117.748 269.323 121.123C267.012 122.353 263.773 123.106 260.599 121.097C260.598 121.096 260.597 121.096 260.596 121.095C260.516 121.241 260.436 121.386 260.353 121.528C263.465 124.723 269.194 125.262 274.388 121C274.49 120.761 274.589 120.52 274.685 120.276C274.717 120.195 274.747 120.113 274.779 120.032H274.778Z" fill="#858B97"/>
<path d="M287.623 105.344C284.523 97.0918 280.765 90.6476 277.108 85.9775C283.455 98.0684 287.03 106.635 284.44 112.731C283.446 114.804 282.093 117.563 277.332 118.81C277.249 118.835 276.866 118.806 276.794 118.839C276.725 119.214 276.563 119.683 276.487 120.067C279.272 121.815 291.939 116.785 287.623 105.343V105.344Z" fill="#858B97"/>
<path d="M286.091 86.3702C282.127 88.5012 278.034 83.5621 276.318 82.26C279.525 85.7891 282.061 89.9649 282.579 90.7386C283.75 89.7459 285.158 87.9506 286.091 86.3702Z" fill="#858B97"/>
<path d="M226.963 100.926C221.409 106.566 217.654 107.582 215.094 105.392C216.603 108.361 219.329 110.751 222.346 111.408C222.256 110.597 222.398 109.44 222.428 109.255C222.535 108.58 223.422 104.534 226.963 100.926Z" fill="#858B97"/>
<path d="M148.634 214.146C146.425 213.176 144.691 211.8 143.431 210.018C142.168 208.236 141.538 206.157 141.538 203.781H148.752C148.909 205.563 149.609 207.028 150.851 208.176C152.092 209.325 153.837 209.899 156.083 209.899C158.409 209.899 160.222 209.335 161.524 208.206C162.824 207.077 163.475 205.622 163.475 203.84C163.475 202.454 163.07 201.325 162.262 200.454C161.454 199.583 160.448 198.91 159.246 198.435C158.043 197.96 156.379 197.445 154.25 196.89C151.569 196.178 149.391 195.455 147.716 194.722C146.04 193.99 144.611 192.851 143.429 191.307C142.246 189.762 141.655 187.704 141.655 185.129C141.655 182.753 142.246 180.674 143.429 178.892C144.611 177.11 146.267 175.744 148.396 174.793C150.524 173.843 152.987 173.368 155.787 173.368C159.768 173.368 163.03 174.368 165.573 176.367C168.116 178.367 169.525 181.11 169.801 184.594H162.35C162.232 183.089 161.523 181.802 160.222 180.733C158.921 179.664 157.206 179.129 155.077 179.129C153.145 179.129 151.568 179.625 150.347 180.614C149.125 181.605 148.514 183.03 148.514 184.891C148.514 186.159 148.898 187.198 149.667 188.009C150.435 188.821 151.411 189.465 152.594 189.94C153.777 190.415 155.392 190.931 157.442 191.484C160.162 192.237 162.38 192.989 164.094 193.741C165.809 194.494 167.266 195.652 168.47 197.217C169.671 198.782 170.273 200.87 170.273 203.483C170.273 205.583 169.711 207.563 168.587 209.423C167.464 211.285 165.827 212.78 163.679 213.908C161.53 215.037 158.998 215.601 156.081 215.601C153.322 215.601 150.838 215.117 148.631 214.146L148.634 214.146Z" fill="white"/>
<path d="M178.582 189.911C179.942 187.357 181.824 185.388 184.229 184.001C186.633 182.615 189.393 181.922 192.507 181.922C196.449 181.922 199.711 182.863 202.293 184.744C204.875 186.625 206.619 189.309 207.526 192.793H200.253C199.662 191.169 198.716 189.903 197.414 188.991C196.114 188.081 194.478 187.625 192.506 187.625C189.747 187.625 187.55 188.606 185.914 190.566C184.278 192.526 183.46 195.269 183.46 198.792C183.46 202.316 184.278 205.069 185.914 207.049C187.55 209.03 189.747 210.019 192.506 210.019C196.409 210.019 198.991 208.297 200.253 204.851H207.526C206.58 208.177 204.806 210.821 202.205 212.781C199.603 214.741 196.37 215.722 192.507 215.722C189.393 215.722 186.633 215.019 184.229 213.613C181.824 212.208 179.942 210.227 178.582 207.673C177.222 205.119 176.542 202.159 176.542 198.792C176.542 195.426 177.222 192.466 178.582 189.911Z" fill="white"/>
<path d="M214.592 189.941C215.951 187.407 217.804 185.437 220.149 184.031C222.494 182.626 225.087 181.922 227.925 181.922C230.487 181.922 232.724 182.427 234.636 183.437C236.548 184.447 238.075 185.704 239.219 187.209V182.457H246.019V215.186H239.219V210.316C238.075 211.86 236.519 213.148 234.548 214.177C232.576 215.206 230.329 215.721 227.807 215.721C225.007 215.721 222.446 214.998 220.12 213.553C217.794 212.108 215.951 210.088 214.592 207.494C213.231 204.901 212.552 201.96 212.552 198.673C212.552 195.386 213.231 192.476 214.592 189.941ZM237.83 192.911C236.903 191.248 235.691 189.981 234.193 189.11C232.695 188.239 231.079 187.803 229.345 187.803C227.611 187.803 225.994 188.229 224.496 189.08C222.998 189.932 221.785 191.18 220.859 192.823C219.933 194.466 219.47 196.416 219.47 198.673C219.47 200.93 219.933 202.911 220.859 204.613C221.785 206.316 223.007 207.613 224.526 208.504C226.042 209.395 227.65 209.841 229.345 209.841C231.079 209.841 232.695 209.405 234.193 208.534C235.691 207.663 236.903 206.386 237.83 204.702C238.755 203.019 239.219 201.049 239.219 198.792C239.219 196.535 238.755 194.574 237.83 192.911V192.911Z" fill="white"/>
<path d="M262.162 171.23V215.186H255.421V171.23H262.162Z" fill="white"/>
<path d="M278.304 171.23V215.186H271.563V171.23H278.304Z" fill="white"/>
<path d="M293.499 213.612C291.016 212.207 289.064 210.226 287.645 207.672C286.226 205.118 285.516 202.158 285.516 198.792C285.516 195.465 286.246 192.516 287.704 189.941C289.162 187.367 291.153 185.388 293.676 184.001C296.199 182.615 299.017 181.922 302.132 181.922C305.246 181.922 308.064 182.615 310.588 184.001C313.11 185.388 315.101 187.367 316.56 189.941C318.018 192.516 318.748 195.465 318.748 198.792C318.748 202.118 317.999 205.068 316.501 207.642C315.003 210.217 312.963 212.207 310.381 213.612C307.799 215.018 304.95 215.72 301.837 215.72C298.762 215.72 295.983 215.018 293.499 213.612L293.499 213.612ZM306.715 208.593C308.231 207.761 309.464 206.513 310.41 204.85C311.356 203.187 311.829 201.168 311.829 198.792C311.829 196.415 311.376 194.406 310.47 192.763C309.562 191.12 308.36 189.882 306.862 189.05C305.364 188.219 303.748 187.803 302.014 187.803C300.28 187.803 298.673 188.219 297.195 189.05C295.716 189.882 294.543 191.12 293.677 192.763C292.809 194.406 292.376 196.416 292.376 198.792C292.376 202.317 293.272 205.039 295.067 206.959C296.86 208.881 299.117 209.841 301.837 209.841C303.571 209.841 305.198 209.424 306.715 208.593L306.715 208.593Z" fill="white"/>
<path d="M337.373 183.466C339.343 182.437 341.572 181.922 344.055 181.922C346.893 181.922 349.484 182.626 351.83 184.031C354.175 185.437 356.018 187.408 357.359 189.941C358.699 192.476 359.369 195.386 359.369 198.673C359.369 201.96 358.699 204.901 357.359 207.494C356.018 210.088 354.175 212.108 351.83 213.553C349.484 214.998 346.893 215.721 344.055 215.721C341.572 215.721 339.363 215.216 337.432 214.206C335.5 213.196 333.923 211.94 332.702 210.434V230.749H325.961V182.457H332.702V187.268C333.845 185.764 335.401 184.497 337.373 183.466ZM351.121 192.822C350.194 191.179 348.972 189.932 347.455 189.08C345.937 188.228 344.31 187.802 342.577 187.802C340.881 187.802 339.274 188.239 337.757 189.109C336.24 189.98 335.017 191.247 334.091 192.91C333.164 194.573 332.702 196.533 332.702 198.791C332.702 201.049 333.164 203.018 334.091 204.701C335.017 206.385 336.24 207.662 337.757 208.533C339.274 209.405 340.881 209.84 342.577 209.84C344.31 209.84 345.937 209.394 347.455 208.503C348.972 207.612 350.194 206.315 351.121 204.612C352.047 202.91 352.51 200.93 352.51 198.672C352.51 196.415 352.047 194.465 351.121 192.822Z" fill="white"/>
</svg>
