<svg width="544" height="301" viewBox="0 0 544 301" fill="none" xmlns="http://www.w3.org/2000/svg">
<rect width="543.208" height="300.194" transform="translate(0.208252)" fill="#1E2D45"/>
<path d="M272.266 171.39C302.79 171.39 327.535 146.532 327.535 115.868C327.535 85.2038 302.79 60.3457 272.266 60.3457C241.741 60.3457 216.996 85.2038 216.996 115.868C216.996 146.532 241.741 171.39 272.266 171.39Z" fill="#F1D6C8"/>
<path d="M305.294 101.902C308.526 98.9974 311.927 94.3078 310.28 91.9944C308.632 89.6811 299.777 89.6863 296.72 90.306C292.751 86.5342 288.639 82.2194 277.802 84.9232C275.66 82.426 270.805 79.026 269.025 79.8255C265.457 81.3146 264.003 89.5137 264.003 89.5137C253.967 92.1571 244.121 97.3349 241.696 98.7376C237.165 101.186 232.465 105.974 234.146 113.05C229.951 116.913 228.962 134.385 241.65 137.968C246.81 145.445 251.27 145.108 257.012 145.005C258.802 149.45 265.581 154.994 275.069 149.142C281.498 150.539 289.304 150.871 295.286 144.767C303.43 144.483 313.413 137.3 310.674 125.318C315.658 118.182 306.097 103.392 305.295 101.902H305.294Z" fill="black"/>
<path d="M293.939 143.63C293.873 143.698 293.805 143.768 293.736 143.837C293.804 143.769 293.872 143.7 293.939 143.63Z" fill="white"/>
<path d="M309.435 114.941C302.898 97.5399 293.439 88.1714 288.159 86.5497C282.332 84.7471 276.47 87.0718 263.013 91.6391C248.748 96.4812 238.962 100.607 236.366 106.621C233.858 112.432 238.497 119.771 244.159 121.004C244.07 120.194 244.212 119.037 244.241 118.852C244.398 117.87 246.204 109.755 255.426 106.231C249.855 109.367 242.858 117.44 246.689 124.736C248.696 127.304 252.116 129.239 257.731 127.788C258.225 120.276 264.049 111.045 271.405 104.874C266.511 110.63 260.526 118.654 259.681 126.306C259.614 126.905 259.597 129.628 261.069 131.57C265.738 135.952 274.53 137.795 279.871 131.818C285.251 125.174 283.983 112.873 283.214 106.454C285.576 115.007 285.964 124.701 282.166 131.124C285.278 134.319 291.007 134.859 296.201 130.596C299.646 122.557 299.575 112.278 292.563 102.828C299.802 111.441 300.519 118.574 298.3 129.664C305.009 127.843 312.883 125.884 309.436 114.94L309.435 114.941Z" fill="#ABB0C0"/>
<path d="M241.839 129.117C238.651 128.183 233.465 123.92 233.619 118.298C232.872 121.601 231.812 132.957 242.686 136.505C241.553 134.151 241.561 131.396 241.839 129.117Z" fill="#ABB0C0"/>
<path d="M255.8 136.791C251.916 137.063 244.757 133.62 243.932 129.042C242.882 130.31 241.555 135.175 244.477 138.929C248.279 143.491 251.999 143.573 257.401 143.237C256.154 140.917 255.738 138.722 255.801 136.791L255.8 136.791Z" fill="#ABB0C0"/>
<path d="M295.685 137.889C295.685 137.889 295.685 137.888 295.685 137.887C293.057 140.771 285.838 142.578 279.429 139.598C279.324 141.394 277.304 145.621 275.154 147.273C279.341 148.252 287.492 150.045 293.682 143.89C295.095 141.814 295.615 139.716 295.685 137.888L295.685 137.889Z" fill="#ABB0C0"/>
<path d="M257.164 136.885C256.872 139.863 257.324 142.019 257.968 143.772C259.662 147.315 265.554 153.113 274.593 147.538C276.913 145.562 277.477 142.459 277.418 140.297C273.142 143.554 260.728 143.414 257.164 136.885Z" fill="#ABB0C0"/>
<path d="M297.133 137.402V137.403C297.099 138.646 296.661 140.609 294.455 143.095C302.138 142.996 307.906 137.712 308.952 132.245C306.654 135.856 301.333 138.095 297.133 137.402Z" fill="#ABB0C0"/>
<path d="M257.814 143.329C257.801 143.29 257.788 143.252 257.776 143.213C257.789 143.252 257.801 143.291 257.814 143.329Z" fill="#717071"/>
<path d="M274.593 147.537C275.402 147.038 275.877 146.224 276.277 145.437C275.862 146.204 275.312 146.925 274.593 147.537Z" fill="#717071"/>
<path d="M233.329 124.9C233.862 129.274 236.055 134.342 242.686 136.506C242.261 135.622 241.996 134.682 241.846 133.732C236.444 133.636 233.898 127.568 233.329 124.901L233.329 124.9Z" fill="#858B97"/>
<path d="M242.74 134.44C242.873 135.925 243.37 137.507 244.477 138.928C248.278 143.491 251.999 143.573 257.401 143.236C257.058 142.599 256.781 141.972 256.556 141.356C246.718 142.683 243.84 137.278 242.741 134.441L242.74 134.44Z" fill="#858B97"/>
<path d="M276.277 145.438C276.32 145.354 276.363 145.269 276.404 145.185C274.191 146.868 271.911 148.264 267.014 148.053C261.076 147.579 258.237 144.565 257.354 141.611C257.389 141.788 257.428 141.96 257.469 142.13C257.479 142.17 257.489 142.211 257.499 142.252C257.582 142.586 257.675 142.906 257.775 143.213C257.787 143.251 257.8 143.289 257.812 143.326C257.862 143.477 257.914 143.626 257.967 143.772C259.661 147.315 265.553 153.113 274.592 147.537C275.311 146.925 275.861 146.204 276.276 145.437L276.277 145.438Z" fill="#858B97"/>
<path d="M293.682 143.891C294.201 143.127 294.6 142.36 294.9 141.604C288.12 148.231 279.127 146.268 277.161 144.996C276.548 145.914 275.859 146.732 275.154 147.274C279.34 148.252 287.491 150.045 293.682 143.891H293.682Z" fill="#858B97"/>
<path d="M295.924 141.13C295.554 141.741 295.073 142.397 294.454 143.095C300.729 143.014 305.725 139.475 307.916 135.202C305.543 139.7 297.997 141.344 295.924 141.129V141.13Z" fill="#858B97"/>
<path d="M234.91 115.061C234.108 116.119 233.855 117.357 233.855 117.357C233.651 120.77 238.431 128.793 244.543 127.998C244.803 132.485 253.207 137.426 257.074 135.212C259.745 141.585 273.415 143.23 278.795 138C282.048 141.004 293.606 140.647 295.997 135.849C299.674 137.841 307.708 134.394 309.254 130.154C309.58 128.559 309.117 126.974 309.117 126.974C307.453 129.03 301.891 133.148 297.588 131.753C294.361 134.726 286.992 137.666 281.342 132.858C274.835 141.163 259.523 136.706 258.15 129.516C253.867 130.672 245.817 130.284 244.019 122.802C242.69 122.242 238.083 121.465 234.91 115.061Z" fill="#1E2D45"/>
<path d="M266.017 88.7711C268.328 87.8941 273.121 86.3865 275.953 85.5627C274.311 83.8589 270.705 81.2506 269.686 81.4753C268.222 81.8817 266.527 86.3684 266.017 88.7711Z" fill="white"/>
<path d="M298.13 91.8575C301.337 95.3866 303.873 99.5624 304.391 100.336C306.617 98.4499 309.698 93.6642 308.749 92.9628C306.909 91.6018 300.406 91.5373 298.13 91.8575Z" fill="white"/>
<path d="M262.016 91.9794C261.841 92.0394 261.667 92.0993 261.493 92.1587C261.407 92.1881 261.321 92.2181 261.235 92.2475C261.062 92.3074 260.889 92.3668 260.717 92.4267C260.639 92.4536 260.561 92.481 260.483 92.5078C260.24 92.592 259.998 92.6762 259.759 92.7604C259.75 92.7635 259.742 92.7661 259.734 92.7691C259.499 92.8513 259.266 92.9334 259.034 93.0155C258.958 93.0424 258.883 93.0692 258.806 93.0961C258.64 93.155 258.474 93.2138 258.31 93.2727C258.229 93.3016 258.148 93.3306 258.067 93.3595C257.9 93.4194 257.734 93.4788 257.569 93.5382C257.498 93.564 257.427 93.5893 257.356 93.6152C256.892 93.783 256.433 93.9509 255.981 94.1182C255.912 94.144 255.844 94.1693 255.775 94.1952C255.616 94.254 255.458 94.3129 255.302 94.3718C255.225 94.4002 255.149 94.4291 255.073 94.4575C254.916 94.5169 254.759 94.5758 254.603 94.6352C254.537 94.6605 254.471 94.6853 254.404 94.7106C254.185 94.7943 253.967 94.878 253.752 94.9611H253.75C253.536 95.0443 253.323 95.1274 253.112 95.2101C253.049 95.2348 252.987 95.2591 252.925 95.2839C252.774 95.3438 252.623 95.4032 252.473 95.4631C252.404 95.491 252.335 95.5184 252.265 95.5463C252.117 95.6057 251.97 95.6651 251.823 95.725C251.762 95.7498 251.7 95.7746 251.639 95.7999C251.23 95.9667 250.828 96.1335 250.432 96.3009C250.376 96.3246 250.319 96.3489 250.263 96.3727C250.121 96.4331 249.979 96.4935 249.839 96.5539C249.776 96.5813 249.712 96.6087 249.649 96.6361C249.509 96.697 249.37 96.7574 249.232 96.8184C249.178 96.8421 249.123 96.8659 249.069 96.8902C248.69 97.058 248.317 97.2264 247.952 97.3953C247.9 97.4196 247.848 97.4438 247.795 97.4681C247.664 97.5291 247.534 97.59 247.405 97.6515C247.346 97.6788 247.288 97.7062 247.231 97.7341C247.102 97.7956 246.974 97.857 246.848 97.9185C246.798 97.9428 246.747 97.967 246.698 97.9913C246.35 98.1612 246.009 98.3322 245.675 98.5037C245.628 98.5279 245.581 98.5527 245.534 98.577C245.414 98.639 245.295 98.7015 245.177 98.7635C245.124 98.7914 245.072 98.8192 245.019 98.8471C244.902 98.9101 244.785 98.9726 244.669 99.0356C244.625 99.0599 244.58 99.0842 244.536 99.1085C244.22 99.2815 243.912 99.4561 243.612 99.6312C243.569 99.6565 243.526 99.6818 243.483 99.7071C243.375 99.7706 243.268 99.8336 243.163 99.8977C243.116 99.9261 243.069 99.9545 243.023 99.9829C242.917 100.047 242.812 100.113 242.707 100.177C242.668 100.201 242.628 100.226 242.59 100.25C242.448 100.34 242.308 100.429 242.17 100.519C247.846 97.8317 267.195 90.681 276.882 97.9422C286.569 105.203 299.257 96.713 292.596 89.0701C290.941 87.7794 289.429 86.9401 288.159 86.5502C282.332 84.7476 276.469 87.0723 263.013 91.6396C262.76 91.7253 262.509 91.8111 262.259 91.8963C262.178 91.9242 262.097 91.9516 262.016 91.9794Z" fill="white"/>
<path d="M264.616 111.998C258.943 119.172 257.47 124.545 253.991 125.177C251.216 125.682 247.891 126.024 245.726 121.915C245.887 122.86 246.199 123.805 246.688 124.737C248.695 127.304 252.115 129.24 257.73 127.789C258.057 122.817 260.72 117.091 264.616 111.998H264.616Z" fill="#858B97"/>
<path d="M259.91 128.993C260.113 129.85 260.466 130.775 261.068 131.57C265.737 135.952 274.529 137.795 279.87 131.819C282.887 128.092 283.813 122.588 283.909 117.339C280.364 135.924 262.608 136.824 259.91 128.993Z" fill="#858B97"/>
<path d="M296.59 129.628C296.653 129.466 296.715 129.303 296.775 129.138C296.811 129.039 296.845 128.938 296.88 128.838C296.932 128.691 296.984 128.542 297.033 128.393C297.069 128.285 297.103 128.175 297.138 128.066C297.184 127.924 297.228 127.78 297.271 127.637C297.306 127.523 297.339 127.408 297.372 127.292C297.412 127.153 297.451 127.013 297.488 126.873C297.521 126.754 297.552 126.634 297.583 126.514C297.618 126.376 297.651 126.238 297.684 126.1C297.714 125.976 297.743 125.852 297.771 125.728C297.802 125.593 297.83 125.456 297.858 125.32C297.885 125.192 297.912 125.064 297.937 124.936C297.962 124.803 297.985 124.67 298.009 124.537C298.032 124.403 298.058 124.27 298.079 124.135C298.098 124.021 298.113 123.905 298.13 123.791C298.177 123.476 298.218 123.158 298.254 122.84C298.264 122.751 298.276 122.663 298.285 122.574C298.302 122.407 298.316 122.239 298.33 122.07C298.339 121.968 298.348 121.867 298.356 121.765C298.368 121.597 298.377 121.427 298.386 121.258C298.392 121.157 298.397 121.055 298.402 120.953C298.409 120.781 298.414 120.609 298.418 120.436C298.42 120.337 298.423 120.237 298.424 120.138C298.426 119.961 298.426 119.784 298.424 119.606C298.423 119.512 298.422 119.418 298.42 119.324C298.416 119.14 298.412 118.956 298.404 118.771C298.4 118.686 298.396 118.601 298.392 118.515C298.382 118.321 298.372 118.126 298.357 117.931C298.353 117.863 298.346 117.795 298.341 117.728C298.324 117.514 298.306 117.301 298.284 117.087C298.281 117.062 298.278 117.038 298.276 117.013C298.164 115.971 297.991 114.92 297.75 113.865C297.748 113.857 297.746 113.847 297.744 113.839C297.689 113.598 297.629 113.357 297.567 113.115C297.556 113.076 297.546 113.035 297.536 112.996C297.475 112.766 297.41 112.536 297.343 112.306C297.329 112.256 297.315 112.206 297.3 112.156C297.232 111.929 297.161 111.702 297.087 111.475C297.07 111.424 297.053 111.374 297.037 111.323C296.96 111.093 296.881 110.863 296.797 110.633C296.782 110.591 296.767 110.549 296.751 110.507C296.663 110.267 296.572 110.026 296.476 109.786C296.468 109.766 296.46 109.746 296.452 109.726C295.913 108.382 295.256 107.04 294.471 105.708C298.284 115.505 297.481 127.345 291.136 130.72C288.825 131.95 285.585 132.703 282.411 130.693C282.41 130.693 282.409 130.693 282.408 130.692C282.329 130.838 282.249 130.983 282.165 131.125C285.277 134.32 291.006 134.859 296.2 130.597C296.302 130.358 296.402 130.117 296.498 129.873C296.53 129.792 296.56 129.71 296.591 129.628H296.59Z" fill="#858B97"/>
<path d="M309.435 114.941C306.335 106.689 302.578 100.245 298.921 95.5745C305.267 107.665 308.842 116.232 306.252 122.328C305.258 124.4 303.905 127.16 299.144 128.407C299.061 128.432 298.678 128.403 298.607 128.436C298.538 128.811 298.376 129.28 298.299 129.663C301.085 131.412 313.752 126.382 309.435 114.94V114.941Z" fill="#858B97"/>
<path d="M307.903 95.9671C303.94 98.0981 299.847 93.159 298.131 91.8569C301.337 95.3861 303.873 99.5618 304.392 100.336C305.563 99.3429 306.97 97.5476 307.903 95.9671Z" fill="#858B97"/>
<path d="M248.775 110.523C243.221 116.163 239.466 117.179 236.906 114.989C238.416 117.958 241.142 120.348 244.158 121.004C244.069 120.194 244.211 119.037 244.24 118.852C244.348 118.177 245.235 114.131 248.775 110.523Z" fill="#858B97"/>
<path d="M170.446 223.743C168.238 222.773 166.504 221.397 165.243 219.615C163.981 217.833 163.35 215.754 163.35 213.378H170.564C170.721 215.16 171.422 216.625 172.663 217.773C173.905 218.922 175.649 219.496 177.896 219.496C180.222 219.496 182.035 218.932 183.336 217.802C184.636 216.674 185.287 215.219 185.287 213.437C185.287 212.051 184.882 210.922 184.075 210.051C183.267 209.18 182.261 208.507 181.059 208.032C179.856 207.556 178.191 207.042 176.062 206.487C173.381 205.775 171.203 205.052 169.528 204.319C167.852 203.587 166.423 202.448 165.241 200.904C164.058 199.359 163.467 197.301 163.467 194.726C163.467 192.35 164.058 190.271 165.241 188.489C166.423 186.707 168.079 185.341 170.208 184.39C172.337 183.44 174.8 182.965 177.599 182.965C181.581 182.965 184.843 183.965 187.385 185.964C189.928 187.964 191.337 190.707 191.613 194.191H184.163C184.044 192.686 183.335 191.399 182.034 190.33C180.733 189.261 179.019 188.726 176.89 188.726C174.958 188.726 173.381 189.222 172.16 190.211C170.937 191.201 170.326 192.627 170.326 194.488C170.326 195.756 170.71 196.795 171.479 197.606C172.248 198.418 173.223 199.062 174.406 199.537C175.589 200.012 177.205 200.528 179.254 201.081C181.975 201.834 184.192 202.586 185.906 203.338C187.621 204.091 189.079 205.249 190.282 206.814C191.483 208.379 192.085 210.467 192.085 213.08C192.085 215.18 191.524 217.159 190.4 219.02C189.276 220.882 187.64 222.377 185.492 223.505C183.343 224.634 180.81 225.198 177.894 225.198C175.134 225.198 172.651 224.714 170.443 223.743L170.446 223.743Z" fill="white"/>
<path d="M200.394 199.508C201.755 196.954 203.636 194.985 206.041 193.598C208.445 192.212 211.205 191.519 214.319 191.519C218.261 191.519 221.524 192.46 224.106 194.341C226.688 196.222 228.431 198.906 229.339 202.39H222.066C221.475 200.766 220.528 199.499 219.227 198.588C217.926 197.678 216.29 197.222 214.319 197.222C211.559 197.222 209.362 198.203 207.726 200.163C206.09 202.123 205.273 204.866 205.273 208.389C205.273 211.913 206.09 214.666 207.726 216.646C209.362 218.626 211.559 219.616 214.319 219.616C218.221 219.616 220.803 217.894 222.066 214.448H229.339C228.393 217.774 226.618 220.418 224.017 222.378C221.415 224.338 218.182 225.319 214.319 225.319C211.205 225.319 208.445 224.616 206.041 223.21C203.636 221.805 201.754 219.824 200.394 217.27C199.035 214.716 198.355 211.756 198.355 208.389C198.355 205.023 199.035 202.063 200.394 199.508Z" fill="white"/>
<path d="M236.404 199.538C237.764 197.004 239.617 195.034 241.962 193.628C244.307 192.222 246.899 191.519 249.738 191.519C252.3 191.519 254.536 192.024 256.449 193.034C258.36 194.044 259.888 195.301 261.032 196.806V192.054H267.832V224.783H261.032V219.913C259.888 221.457 258.331 222.745 256.36 223.773C254.388 224.803 252.141 225.318 249.619 225.318C246.82 225.318 244.258 224.595 241.932 223.15C239.606 221.704 237.764 219.684 236.404 217.091C235.044 214.497 234.364 211.557 234.364 208.27C234.364 204.983 235.044 202.073 236.404 199.538ZM259.642 202.508C258.715 200.845 257.504 199.578 256.005 198.706C254.507 197.836 252.891 197.4 251.157 197.4C249.423 197.4 247.806 197.826 246.309 198.677C244.81 199.529 243.598 200.777 242.672 202.419C241.745 204.063 241.283 206.013 241.283 208.27C241.283 210.527 241.745 212.508 242.672 214.21C243.598 215.913 244.82 217.21 246.338 218.101C247.855 218.992 249.462 219.438 251.157 219.438C252.891 219.438 254.507 219.002 256.005 218.131C257.503 217.26 258.715 215.983 259.642 214.299C260.568 212.616 261.032 210.646 261.032 208.389C261.032 206.132 260.568 204.171 259.642 202.508V202.508Z" fill="white"/>
<path d="M283.974 180.827V224.783H277.234V180.827H283.974Z" fill="white"/>
<path d="M300.116 180.827V224.783H293.375V180.827H300.116Z" fill="white"/>
<path d="M315.311 223.209C312.829 221.804 310.876 219.823 309.457 217.269C308.038 214.715 307.329 211.755 307.329 208.388C307.329 205.062 308.058 202.113 309.517 199.538C310.975 196.964 312.966 194.985 315.489 193.598C318.011 192.212 320.83 191.519 323.944 191.519C327.059 191.519 329.877 192.212 332.4 193.598C334.923 194.985 336.914 196.964 338.372 199.538C339.83 202.113 340.56 205.062 340.56 208.388C340.56 211.715 339.811 214.665 338.313 217.239C336.815 219.814 334.775 221.804 332.194 223.208C329.611 224.615 326.763 225.317 323.65 225.317C320.575 225.317 317.795 224.615 315.312 223.208L315.311 223.209ZM328.527 218.19C330.044 217.358 331.277 216.11 332.223 214.447C333.169 212.784 333.642 210.765 333.642 208.388C333.642 206.012 333.188 204.003 332.282 202.36C331.375 200.717 330.172 199.479 328.675 198.647C327.177 197.816 325.561 197.4 323.826 197.4C322.092 197.4 320.485 197.816 319.007 198.647C317.529 199.479 316.356 200.717 315.489 202.36C314.621 204.003 314.189 206.013 314.189 208.388C314.189 211.914 315.085 214.636 316.879 216.556C318.673 218.477 320.93 219.438 323.65 219.438C325.383 219.438 327.01 219.021 328.528 218.19L328.527 218.19Z" fill="white"/>
<path d="M359.186 193.063C361.156 192.034 363.384 191.519 365.867 191.519C368.705 191.519 371.297 192.222 373.643 193.628C375.988 195.034 377.831 197.005 379.172 199.538C380.512 202.073 381.181 204.983 381.181 208.27C381.181 211.557 380.511 214.498 379.172 217.091C377.831 219.685 375.988 221.704 373.643 223.15C371.297 224.595 368.705 225.318 365.867 225.318C363.384 225.318 361.175 224.813 359.244 223.803C357.313 222.793 355.735 221.537 354.514 220.031V240.346H347.773V192.054H354.514V196.865C355.657 195.361 357.213 194.094 359.186 193.063ZM372.933 202.419C372.006 200.776 370.784 199.529 369.267 198.676C367.75 197.825 366.123 197.399 364.389 197.399C362.694 197.399 361.087 197.836 359.57 198.706C358.052 199.577 356.83 200.844 355.904 202.507C354.977 204.17 354.515 206.13 354.515 208.388C354.515 210.645 354.977 212.615 355.904 214.298C356.83 215.982 358.052 217.259 359.57 218.13C361.086 219.002 362.694 219.437 364.389 219.437C366.123 219.437 367.75 218.991 369.267 218.1C370.784 217.209 372.007 215.912 372.933 214.209C373.859 212.507 374.322 210.527 374.322 208.269C374.322 206.012 373.859 204.062 372.933 202.419Z" fill="white"/>
</svg>
