<svg width="300" height="200" viewBox="0 0 300 200" fill="none" xmlns="http://www.w3.org/2000/svg">
<path d="M0 8C0 3.58173 3.58172 0 8 0H292C296.418 0 300 3.58172 300 8V192C300 196.418 296.418 200 292 200H7.99999C3.58171 200 0 196.418 0 192V8Z" fill="#1E2D45"/>
<path d="M73.8333 120.195C93.7225 120.195 109.846 111.153 109.846 99.9998C109.846 88.8463 93.7225 79.8047 73.8333 79.8047C53.9441 79.8047 37.8208 88.8463 37.8208 99.9998C37.8208 111.153 53.9441 120.195 73.8333 120.195Z" fill="#F1D6C8"/>
<path d="M95.3541 94.9202C97.4599 93.8639 99.6756 92.1581 98.6022 91.3166C97.5289 90.4752 91.7592 90.4771 89.7669 90.7025C87.1811 89.3306 84.5014 87.7612 77.4406 88.7446C76.0447 87.8363 72.8816 86.5996 71.7218 86.8905C69.3969 87.4321 68.4492 90.4144 68.4492 90.4144C61.91 91.3758 55.4944 93.2591 53.9149 93.7694C50.9625 94.66 47.9 96.4015 48.9951 98.9752C46.2618 100.38 45.6173 106.736 53.8844 108.039C57.2468 110.758 60.1526 110.636 63.8939 110.598C65.0604 112.215 69.4773 114.232 75.6598 112.103C79.8489 112.611 84.9352 112.732 88.833 110.512C94.139 110.408 100.644 107.796 98.8592 103.438C102.107 100.842 95.8763 95.4624 95.3541 94.9202Z" fill="black"/>
<path d="M98.0522 99.663C93.7923 93.3338 87.6293 89.9261 84.1892 89.3363C80.3923 88.6806 76.5723 89.5262 67.8044 91.1874C58.5098 92.9486 52.1334 94.4495 50.442 96.6369C48.8075 98.7506 51.8299 101.42 55.5196 101.868C55.4613 101.574 55.5538 101.153 55.5732 101.086C55.675 100.728 56.8519 97.7767 62.8611 96.4949C59.2307 97.6358 54.672 100.572 57.1681 103.226C58.476 104.16 60.7041 104.864 64.3629 104.336C64.6845 101.604 68.4791 98.246 73.2722 96.0012C70.0834 98.0949 66.184 101.014 65.6332 103.797C65.5894 104.015 65.5786 105.005 66.5377 105.711C69.5802 107.305 75.3084 107.976 78.7883 105.802C82.2945 103.385 81.468 98.911 80.9669 96.5761C82.5062 99.687 82.7584 103.213 80.2838 105.549C82.3115 106.711 86.0445 106.908 89.4286 105.357C91.6738 102.433 91.6272 98.6944 87.0585 95.2573C91.7753 98.3899 92.2423 100.984 90.7968 105.018C95.1682 104.356 100.299 103.643 98.0529 99.6628L98.0522 99.663Z" fill="#ABB0C0"/>
<path d="M54.0082 104.82C51.9309 104.48 48.5517 102.929 48.6522 100.884C48.1651 102.086 47.4744 106.216 54.5599 107.507C53.8216 106.651 53.8266 105.649 54.0082 104.82Z" fill="#ABB0C0"/>
<path d="M63.105 107.61C60.5741 107.709 55.9092 106.457 55.3715 104.792C54.6878 105.253 53.8231 107.023 55.7269 108.388C58.2039 110.047 60.628 110.077 64.1482 109.955C63.3351 109.111 63.0644 108.313 63.1053 107.611L63.105 107.61Z" fill="#ABB0C0"/>
<path d="M89.0925 108.01C89.0925 108.01 89.0925 108.01 89.0925 108.009C87.3804 109.058 82.6766 109.716 78.5005 108.632C78.4318 109.285 77.1156 110.822 75.7153 111.423C78.4429 111.779 83.754 112.432 87.7877 110.193C88.708 109.438 89.0473 108.674 89.0929 108.01L89.0925 108.01Z" fill="#ABB0C0"/>
<path d="M63.9931 107.645C63.8028 108.728 64.0976 109.512 64.5174 110.15C65.6209 111.438 69.4603 113.547 75.35 111.519C76.8615 110.801 77.229 109.672 77.1905 108.886C74.4039 110.07 66.3157 110.019 63.9931 107.645Z" fill="#ABB0C0"/>
<path d="M90.0364 107.833V107.834C90.0139 108.286 89.7288 109 88.291 109.904C93.2976 109.868 97.056 107.946 97.737 105.958C96.2399 107.271 92.773 108.085 90.0367 107.833H90.0364Z" fill="#ABB0C0"/>
<path d="M48.4632 103.286C48.8103 104.877 50.2391 106.72 54.5599 107.507C54.2828 107.185 54.1103 106.844 54.0125 106.498C50.4927 106.463 48.8337 104.256 48.4629 103.286L48.4632 103.286Z" fill="#858B97"/>
<path d="M54.5952 106.756C54.682 107.296 55.0056 107.871 55.7268 108.388C58.2038 110.048 60.6279 110.078 64.1481 109.955C63.9246 109.724 63.7437 109.495 63.5973 109.272C57.1874 109.754 55.3121 107.788 54.5955 106.756L54.5952 106.756Z" fill="#858B97"/>
<path d="M76.4472 110.756C76.475 110.725 76.5031 110.694 76.5299 110.664C75.0878 111.276 73.602 111.784 70.4115 111.707C66.5423 111.535 64.6927 110.438 64.1172 109.364C64.1403 109.428 64.1658 109.491 64.1922 109.552C64.1986 109.567 64.205 109.582 64.2117 109.597C64.2659 109.718 64.3266 109.835 64.3916 109.947C64.3996 109.96 64.4076 109.974 64.4157 109.988C64.4485 110.043 64.482 110.097 64.5168 110.15C65.6203 111.438 69.4598 113.547 75.3494 111.519C75.8177 111.296 76.1758 111.034 76.4465 110.755L76.4472 110.756Z" fill="#858B97"/>
<path d="M87.7874 110.193C88.1261 109.915 88.3857 109.636 88.5813 109.361C84.1637 111.772 78.3039 111.058 77.0232 110.595C76.6235 110.929 76.1743 111.227 75.7153 111.424C78.4429 111.779 83.754 112.432 87.7877 110.193H87.7874Z" fill="#858B97"/>
<path d="M89.2486 109.189C89.0071 109.411 88.6942 109.65 88.2905 109.904C92.3795 109.874 95.6347 108.587 97.0622 107.033C95.5158 108.669 90.599 109.267 89.2486 109.189V109.189Z" fill="#858B97"/>
<path d="M49.4929 99.7067C48.9703 100.092 48.8059 100.542 48.8059 100.542C48.6729 101.783 51.7874 104.702 55.7698 104.412C55.9394 106.044 61.4149 107.841 63.9345 107.036C65.6751 109.354 74.5818 109.953 78.0875 108.05C80.2074 109.143 87.7382 109.013 89.2963 107.268C91.6916 107.992 96.9269 106.739 97.9343 105.196C98.1467 104.616 97.8445 104.04 97.8445 104.04C96.7604 104.788 93.1364 106.286 90.3325 105.778C88.23 106.859 83.4284 107.929 79.7468 106.18C75.5074 109.201 65.5301 107.58 64.6356 104.965C61.8447 105.385 56.5996 105.244 55.4285 102.522C54.5625 102.319 51.5606 102.036 49.4929 99.7067Z" fill="#1E2D45"/>
<path d="M69.7617 90.144C71.2672 89.825 74.3904 89.2767 76.2359 88.977C75.1659 88.3573 72.8159 87.4086 72.1523 87.4903C71.1982 87.6381 70.0937 89.2701 69.7617 90.144Z" fill="white"/>
<path d="M90.6865 91.2666C92.7759 92.5503 94.4285 94.0691 94.7662 94.3505C96.2164 93.6645 98.2237 91.9237 97.6056 91.6686C96.4067 91.1736 92.1692 91.1501 90.6865 91.2666Z" fill="white"/>
<path d="M67.1546 91.3111C67.0407 91.3328 66.9272 91.3546 66.8143 91.3762C66.758 91.387 66.7021 91.3978 66.6461 91.4086C66.5332 91.4303 66.4206 91.452 66.3084 91.4737C66.2575 91.4835 66.2066 91.4935 66.156 91.5032C65.9979 91.5339 65.8401 91.5645 65.684 91.5951C65.6786 91.5962 65.6733 91.5972 65.6679 91.5983C65.5148 91.6282 65.3627 91.658 65.2116 91.6879C65.1621 91.6977 65.1131 91.7074 65.0636 91.7172C64.9554 91.7386 64.8472 91.76 64.74 91.7815C64.687 91.792 64.6344 91.8025 64.5815 91.813C64.473 91.8348 64.3648 91.8564 64.2572 91.878C64.211 91.8874 64.1644 91.8966 64.1185 91.906C63.816 91.9671 63.5172 92.0281 63.2227 92.089C63.1775 92.0984 63.133 92.1076 63.0881 92.117C62.9849 92.1384 62.882 92.1598 62.7799 92.1812C62.73 92.1916 62.6804 92.2021 62.6308 92.2124C62.5283 92.234 62.4264 92.2554 62.3249 92.277C62.2817 92.2862 62.2385 92.2953 62.1953 92.3045C62.0526 92.3349 61.9105 92.3653 61.7698 92.3956H61.7692C61.6295 92.4258 61.4908 92.4561 61.3531 92.4861C61.3122 92.4951 61.2717 92.504 61.2312 92.513C61.1327 92.5348 61.0345 92.5564 60.937 92.5782C60.8918 92.5883 60.8466 92.5983 60.8014 92.6084C60.7045 92.63 60.6087 92.6516 60.5133 92.6734C60.4734 92.6824 60.4332 92.6915 60.3933 92.7007C60.1267 92.7613 59.8647 92.822 59.6071 92.8829C59.5702 92.8915 59.5334 92.9004 59.4969 92.909C59.4041 92.931 59.312 92.953 59.2205 92.9749C59.1793 92.9849 59.1381 92.9949 59.0969 93.0048C59.0058 93.027 58.915 93.049 58.8252 93.0711C58.7897 93.0798 58.7542 93.0884 58.719 93.0972C58.4718 93.1583 58.2289 93.2195 57.991 93.281C57.9569 93.2898 57.923 93.2986 57.8889 93.3075C57.8034 93.3296 57.7187 93.3518 57.6343 93.3742C57.5964 93.3841 57.5586 93.3941 57.521 93.4042C57.4373 93.4266 57.3539 93.4489 57.2715 93.4713C57.239 93.4801 57.2061 93.4889 57.1736 93.4978C56.9468 93.5596 56.7247 93.6218 56.5073 93.6841C56.4765 93.693 56.446 93.702 56.4152 93.7108C56.3371 93.7333 56.2594 93.7561 56.1827 93.7786C56.1485 93.7888 56.1144 93.7989 56.0802 93.8091C56.0035 93.832 55.9274 93.8547 55.8521 93.8776C55.8229 93.8864 55.7938 93.8953 55.765 93.9041C55.5593 93.967 55.3586 94.0305 55.163 94.0942C55.1348 94.1034 55.107 94.1126 55.0789 94.1218C55.0089 94.1449 54.9392 94.1679 54.8705 94.1912C54.84 94.2015 54.8095 94.2118 54.7791 94.2222C54.7101 94.2456 54.6417 94.2693 54.5737 94.2928C54.5482 94.3016 54.5221 94.3106 54.497 94.3195C54.4045 94.352 54.3134 94.3845 54.2236 94.4172C57.9217 93.4397 70.5294 90.8388 76.8412 93.4799C83.1529 96.1211 91.4204 93.0328 87.0801 90.2528C86.0021 89.7834 85.0165 89.4781 84.189 89.3363C80.3922 88.6806 76.5722 89.5262 67.8042 91.1874C67.6394 91.2186 67.4759 91.2498 67.3131 91.2808C67.2602 91.291 67.2076 91.3009 67.1546 91.3111Z" fill="white"/>
<path d="M68.8488 98.5928C65.1524 101.202 64.1929 103.156 61.926 103.386C60.118 103.57 57.9515 103.695 56.5405 102.2C56.6457 102.544 56.8491 102.887 57.1676 103.226C58.4755 104.16 60.7036 104.864 64.3624 104.336C64.5752 102.528 66.3101 100.445 68.8488 98.5928Z" fill="#858B97"/>
<path d="M65.7827 104.775C65.9147 105.086 66.1445 105.423 66.5371 105.712C69.5796 107.306 75.3078 107.976 78.7878 105.802C80.7539 104.447 81.3572 102.445 81.4198 100.536C79.11 107.295 67.5405 107.623 65.7827 104.775Z" fill="#858B97"/>
<path d="M89.6833 105.005C89.7241 104.946 89.7647 104.887 89.8035 104.827C89.827 104.791 89.8494 104.754 89.8722 104.718C89.906 104.664 89.9395 104.61 89.9717 104.556C89.9952 104.516 90.0176 104.477 90.0404 104.437C90.0699 104.385 90.099 104.333 90.1271 104.281C90.1496 104.239 90.1714 104.197 90.1928 104.156C90.2189 104.105 90.2441 104.054 90.2685 104.003C90.2896 103.96 90.3101 103.916 90.3302 103.872C90.3529 103.822 90.3747 103.772 90.3962 103.722C90.4152 103.677 90.4347 103.632 90.4528 103.587C90.4725 103.537 90.491 103.488 90.5094 103.438C90.5268 103.392 90.5446 103.345 90.5606 103.298C90.5774 103.25 90.5921 103.202 90.6075 103.154C90.6229 103.105 90.6394 103.056 90.6534 103.007C90.6655 102.966 90.6755 102.924 90.6866 102.882C90.7171 102.767 90.7442 102.652 90.7677 102.536C90.774 102.504 90.7817 102.472 90.7878 102.439C90.7988 102.379 90.8079 102.317 90.8169 102.256C90.8226 102.219 90.8286 102.182 90.8337 102.145C90.8417 102.084 90.8474 102.022 90.8534 101.961C90.8571 101.924 90.8608 101.887 90.8638 101.85C90.8685 101.787 90.8715 101.724 90.8742 101.662C90.8755 101.626 90.8772 101.589 90.8779 101.553C90.8792 101.489 90.8792 101.424 90.8782 101.36C90.8776 101.326 90.8769 101.291 90.8755 101.257C90.8732 101.19 90.8702 101.123 90.8652 101.056C90.8628 101.025 90.8601 100.994 90.8571 100.963C90.8507 100.892 90.844 100.822 90.8347 100.751C90.8317 100.726 90.8276 100.701 90.8239 100.677C90.8129 100.599 90.8012 100.521 90.7868 100.443C90.7851 100.435 90.7831 100.426 90.7814 100.417C90.709 100.037 90.5961 99.6554 90.439 99.2718C90.4377 99.2686 90.4367 99.2652 90.4353 99.262C90.3992 99.1745 90.36 99.0867 90.3194 98.999C90.3127 98.9845 90.3064 98.9699 90.2993 98.9554C90.2598 98.8718 90.2176 98.7882 90.174 98.7046C90.1647 98.6864 90.1553 98.6682 90.1456 98.6499C90.1014 98.5675 90.0551 98.4848 90.0069 98.4023C89.9962 98.3839 89.9851 98.3655 89.9744 98.3471C89.9245 98.2633 89.8726 98.1797 89.8183 98.0959C89.8082 98.0807 89.7982 98.0655 89.7881 98.0503C89.7305 97.9629 89.6712 97.8754 89.6089 97.788C89.6039 97.7807 89.5982 97.7736 89.5932 97.7662C89.2417 97.2774 88.8136 96.7892 88.3024 96.3047C90.7871 99.8682 90.2635 104.175 86.1293 105.402C84.6234 105.85 82.5126 106.124 80.4446 105.393C80.444 105.392 80.4433 105.392 80.4426 105.392C80.3907 105.445 80.3388 105.498 80.2842 105.55C82.3119 106.712 86.0448 106.908 89.429 105.358C89.4957 105.271 89.5603 105.183 89.623 105.094C89.6437 105.065 89.6635 105.035 89.6839 105.005H89.6833Z" fill="#1E2D45"/>
<path d="M98.0525 99.6627C96.0324 96.6612 93.5843 94.3173 91.2014 92.6187C95.3366 97.0165 97.6659 100.132 95.9785 102.35C95.3306 103.104 94.4492 104.107 91.3468 104.561C91.2929 104.57 91.0433 104.559 90.9967 104.572C90.9518 104.708 90.8463 104.878 90.7964 105.018C92.6114 105.654 100.865 103.824 98.0525 99.6623V99.6627Z" fill="#858B97"/>
<path d="M97.0542 92.7616C94.4717 93.5367 91.8048 91.7402 90.6865 91.2666C92.7759 92.5503 94.4285 94.0691 94.7661 94.3505C95.5293 93.9895 96.4462 93.3365 97.0542 92.7616Z" fill="#858B97"/>
<path d="M58.5274 98.0562C54.9088 100.108 52.4619 100.477 50.7939 99.6806C51.7775 100.76 53.5537 101.63 55.5191 101.869C55.4608 101.574 55.5533 101.153 55.5727 101.086C55.6427 100.84 56.2206 99.3686 58.5274 98.0562Z" fill="#858B97"/>
<path d="M129.749 108.018C127.951 108.018 126.333 107.846 124.895 107.5C123.456 107.14 122.326 106.636 121.504 105.987C121.024 105.608 120.683 105.192 120.483 104.738C120.241 104.187 121.092 103.719 122.106 103.719H123.712C124.425 103.719 124.994 104.031 125.239 104.407C125.465 104.755 125.826 105.058 126.32 105.317C127.142 105.735 128.285 105.944 129.749 105.944C131.265 105.944 132.446 105.742 133.294 105.339C134.142 104.921 134.565 104.388 134.565 103.74C134.565 103.236 134.296 102.825 133.756 102.509C133.243 102.192 132.588 101.947 131.792 101.774C131.021 101.601 129.942 101.414 128.555 101.213C126.808 100.953 125.383 100.694 124.279 100.435C123.2 100.161 122.275 99.7434 121.504 99.1817C120.734 98.62 120.349 97.871 120.349 96.9347C120.349 96.0706 120.734 95.3142 121.504 94.6661C122.275 94.018 123.354 93.5211 124.741 93.1752C126.128 92.8296 127.733 92.6567 129.557 92.6567C132.151 92.6567 134.27 93.024 135.914 93.7585C137.07 94.2573 137.869 94.8876 138.311 95.649C138.642 96.2199 137.772 96.7401 136.702 96.7401H135.105C134.387 96.7401 133.82 96.4172 133.501 96.0563C133.268 95.7918 132.917 95.5515 132.446 95.3358C131.599 94.947 130.481 94.7525 129.094 94.7525C127.836 94.7525 126.808 94.9325 126.012 95.2926C125.216 95.6528 124.818 96.1712 124.818 96.8483C124.818 97.3093 125.061 97.6909 125.55 97.9933C126.063 98.2813 126.705 98.5118 127.476 98.6846C128.246 98.8575 129.299 99.0448 130.635 99.2464C132.407 99.5201 133.846 99.7938 134.95 100.067C136.081 100.341 137.031 100.766 137.801 101.342C138.598 101.904 138.996 102.66 138.996 103.611C138.996 104.374 138.623 105.094 137.879 105.771C137.159 106.448 136.093 106.995 134.681 107.413C133.294 107.817 131.65 108.018 129.749 108.018L129.749 108.018Z" fill="white"/>
<path d="M144.382 98.6734C145.269 97.7444 146.494 97.0281 148.061 96.5237C149.628 96.0197 151.426 95.7676 153.455 95.7676C156.024 95.7676 158.15 96.1099 159.832 96.7939C160.915 97.2342 161.771 97.7955 162.402 98.4775C162.955 99.0758 162.067 99.7215 160.865 99.7215H159.785C159.015 99.7215 158.356 99.4401 157.934 99.0788C157.591 98.7852 157.164 98.5385 156.653 98.3388C155.806 98.0076 154.74 97.8419 153.455 97.8419C151.657 97.8419 150.225 98.1985 149.159 98.9114C148.093 99.6244 147.561 100.622 147.561 101.904C147.561 103.185 148.093 104.187 149.159 104.907C150.225 105.627 151.657 105.987 153.455 105.987C155.517 105.987 157.013 105.575 157.943 104.751C158.355 104.387 159.013 104.107 159.782 104.107H160.809C162.028 104.107 162.914 104.77 162.318 105.366C161.68 106.005 160.832 106.547 159.774 106.992C158.079 107.705 155.972 108.061 153.455 108.061C151.426 108.061 149.628 107.806 148.061 107.294C146.494 106.783 145.268 106.063 144.382 105.134C143.496 104.205 143.053 103.128 143.053 101.904C143.053 100.679 143.496 99.6026 144.382 98.6734Z" fill="white"/>
<path d="M166.516 101.861C166.516 100.665 166.952 99.6066 167.826 98.6848C168.725 97.763 169.932 97.05 171.448 96.5458C172.989 96.0273 174.684 95.7681 176.533 95.7681C178.203 95.7681 179.654 95.9554 180.887 96.3298C181.757 96.5789 182.506 96.8729 183.13 97.2116C183.397 97.3561 183.892 97.2561 183.892 97.0483C183.892 96.4487 184.759 95.9625 185.828 95.9625H186.353C187.441 95.9625 188.322 96.457 188.322 97.0668V106.763C188.322 107.373 187.441 107.867 186.353 107.867H185.861C184.773 107.867 183.892 107.373 183.892 106.763C183.892 106.55 183.381 106.448 183.11 106.597C182.482 106.942 181.729 107.243 180.848 107.5C179.564 107.874 178.1 108.062 176.456 108.062C174.632 108.062 172.963 107.802 171.447 107.284C169.932 106.751 168.725 106.016 167.825 105.08C166.952 104.129 166.516 103.056 166.516 101.861H166.516ZM183.892 101.904C183.892 101.083 183.584 100.37 182.967 99.765C182.377 99.1601 181.593 98.6991 180.617 98.3822C179.641 98.0652 178.588 97.9069 177.458 97.9069C176.328 97.9069 175.275 98.0652 174.299 98.3822C173.322 98.6846 172.527 99.1383 171.91 99.7434C171.319 100.334 171.024 101.04 171.024 101.861C171.024 102.682 171.319 103.402 171.91 104.021C172.526 104.641 173.322 105.116 174.299 105.447C175.3 105.764 176.354 105.923 177.458 105.923C178.588 105.923 179.641 105.764 180.617 105.447C181.594 105.131 182.377 104.67 182.967 104.065C183.584 103.445 183.892 102.725 183.892 101.904Z" fill="white"/>
<path d="M196.644 91.8789C195.432 91.8789 194.449 92.4267 194.449 93.1023V106.643C194.449 107.319 195.432 107.867 196.644 107.867C197.857 107.867 198.841 107.319 198.841 106.643V93.1023C198.841 92.4265 197.858 91.8789 196.644 91.8789Z" fill="white"/>
<path d="M207.162 91.8789C205.95 91.8789 204.966 92.4267 204.966 93.1023V106.643C204.966 107.319 205.95 107.867 207.162 107.867C208.374 107.867 209.359 107.319 209.359 106.643V93.1023C209.359 92.4265 208.375 91.8789 207.162 91.8789Z" fill="white"/>
<path d="M219.26 107.294C217.642 106.783 216.37 106.063 215.445 105.134C214.521 104.205 214.059 103.128 214.059 101.904C214.059 100.694 214.534 99.6208 215.484 98.6843C216.434 97.7482 217.732 97.0281 219.375 96.5237C221.019 96.0197 222.855 95.7676 224.885 95.7676C226.914 95.7676 228.75 96.0197 230.395 96.5237C232.038 97.0281 233.335 97.7482 234.286 98.6843C235.236 99.6208 235.711 100.694 235.711 101.904C235.711 103.113 235.223 104.187 234.247 105.123C233.271 106.059 231.942 106.783 230.26 107.294C228.577 107.806 226.721 108.061 224.693 108.061C222.689 108.061 220.878 107.806 219.26 107.294L219.26 107.294ZM227.871 105.469C228.859 105.166 229.663 104.712 230.279 104.107C230.895 103.502 231.204 102.768 231.204 101.904C231.204 101.039 230.908 100.309 230.317 99.7108C229.726 99.1134 228.943 98.6629 227.967 98.3604C226.991 98.058 225.938 97.9068 224.808 97.9068C223.678 97.9068 222.631 98.058 221.668 98.3604C220.705 98.6629 219.94 99.1134 219.376 99.7108C218.81 100.309 218.528 101.04 218.528 101.904C218.528 103.186 219.112 104.176 220.281 104.875C221.45 105.573 222.921 105.923 224.693 105.923C225.822 105.923 226.882 105.771 227.871 105.469L227.871 105.469Z" fill="white"/>
<path d="M244.803 97.3943C244.803 97.497 245.043 97.5438 245.164 97.467C245.864 97.0257 246.759 96.6464 247.847 96.3293C249.131 95.9549 250.583 95.7676 252.201 95.7676C254.05 95.7676 255.732 96.0268 257.248 96.5453C258.789 97.0495 259.996 97.7625 260.869 98.6843C261.743 99.6061 262.179 100.665 262.179 101.86C262.179 103.056 261.743 104.129 260.869 105.079C259.996 106.016 258.789 106.75 257.248 107.283C255.732 107.802 254.05 108.061 252.201 108.061C250.583 108.061 249.144 107.881 247.885 107.521C246.883 107.223 246.027 106.869 245.318 106.461C245.137 106.358 244.803 106.426 244.803 106.572V112.296C244.803 112.976 243.82 113.527 242.608 113.527C241.395 113.527 240.412 112.976 240.412 112.296V97.1936C240.412 96.5136 241.395 95.9622 242.608 95.9622C243.82 95.9622 244.803 96.5136 244.803 97.1936L244.803 97.3943ZM257.71 101.86C257.71 101.04 257.402 100.334 256.785 99.7431C256.195 99.1382 255.399 98.6845 254.397 98.382C253.421 98.0651 252.368 97.9068 251.237 97.9068C250.133 97.9068 249.08 98.0651 248.078 98.382C247.102 98.699 246.306 99.1598 245.69 99.7647C245.099 100.37 244.803 101.083 244.803 101.904C244.803 102.725 245.099 103.445 245.69 104.064C246.306 104.669 247.102 105.13 248.078 105.447C249.08 105.764 250.133 105.922 251.237 105.922C252.368 105.922 253.421 105.764 254.397 105.447C255.399 105.116 256.195 104.64 256.785 104.021C257.402 103.402 257.71 102.682 257.71 101.86Z" fill="white"/>
<circle cx="24" cy="176" r="14" fill="white" stroke="white" stroke-width="2"/>
<path fill-rule="evenodd" clip-rule="evenodd" d="M24 163C16.8203 163 11 168.82 11 176C11 183.18 16.8203 189 24 189C31.1797 189 37 183.18 37 176C37 168.82 31.1797 163 24 163ZM21.7071 172.293C21.3166 171.902 20.6834 171.902 20.2929 172.293C19.9024 172.683 19.9024 173.317 20.2929 173.707L22.5858 176L20.2929 178.293C19.9024 178.683 19.9024 179.317 20.2929 179.707C20.6834 180.098 21.3166 180.098 21.7071 179.707L24 177.414L26.2929 179.707C26.6834 180.098 27.3166 180.098 27.7071 179.707C28.0976 179.317 28.0976 178.683 27.7071 178.293L25.4142 176L27.7071 173.707C28.0976 173.317 28.0976 172.683 27.7071 172.293C27.3166 171.902 26.6834 171.902 26.2929 172.293L24 174.586L21.7071 172.293Z" fill="#CA6460"/>
</svg>
