<svg width="760" height="305" viewBox="0 0 760 305" fill="none" xmlns="http://www.w3.org/2000/svg">
<path d="M156.159 259C214.701 259 262.159 211.542 262.159 153C262.159 94.4578 214.701 47 156.159 47C97.6169 47 50.1591 94.4578 50.1591 153C50.1591 211.542 97.6169 259 156.159 259Z" fill="#F1D6C8"/>
<path d="M219.503 126.337C225.702 120.792 232.223 111.839 229.064 107.422C225.905 103.006 208.922 103.016 203.058 104.199C195.447 96.9978 187.559 88.7604 166.777 93.9223C162.668 89.1548 153.357 82.6637 149.944 84.1901C143.101 87.0328 140.311 102.686 140.311 102.686C121.063 107.733 102.18 117.618 97.5304 120.296C88.8404 124.971 79.826 134.112 83.0493 147.62C75.0042 154.996 73.107 188.353 97.4407 195.193C107.338 209.467 115.891 208.823 126.903 208.628C130.336 217.114 143.337 227.698 161.535 216.525C173.865 219.193 188.836 219.827 200.309 208.174C215.927 207.631 235.073 193.918 229.82 171.043C239.379 157.418 221.041 129.182 219.503 126.337Z" fill="black"/>
<path d="M227.444 151.231C214.906 118.01 196.765 100.124 186.64 97.0282C175.464 93.5869 164.22 98.025 138.412 106.745C111.054 115.989 92.2859 123.866 87.3073 135.348C82.4964 146.442 91.3925 160.453 102.253 162.807C102.081 161.26 102.353 159.051 102.411 158.698C102.71 156.823 106.174 141.33 123.862 134.602C113.176 140.591 99.7581 156.003 107.105 169.932C110.955 174.834 117.513 178.529 128.282 175.759C129.229 161.417 140.398 143.793 154.506 132.011C145.12 143.001 133.643 158.321 132.022 172.929C131.892 174.072 131.861 179.271 134.684 182.978C143.639 191.344 160.5 194.864 170.743 183.453C181.063 170.768 178.63 147.284 177.155 135.028C181.686 151.357 182.428 169.865 175.144 182.128C181.113 188.227 192.1 189.257 202.061 181.119C208.67 165.771 208.533 146.147 195.085 128.106C208.969 144.549 210.343 158.167 206.088 179.34C218.955 175.863 234.057 172.123 227.446 151.23L227.444 151.231Z" fill="#ABB0C0"/>
<path d="M97.8046 178.297C91.6901 176.515 81.7439 168.375 82.0397 157.642C80.606 163.947 78.5728 185.629 99.4286 192.402C97.2554 187.908 97.2702 182.649 97.8046 178.297Z" fill="#ABB0C0"/>
<path d="M124.58 192.946C117.13 193.466 103.4 186.893 101.817 178.152C99.8044 180.574 97.2595 189.861 102.863 197.027C110.154 205.737 117.289 205.894 127.65 205.252C125.257 200.824 124.461 196.634 124.581 192.947L124.58 192.946Z" fill="#ABB0C0"/>
<path d="M201.073 195.043C201.073 195.043 201.073 195.04 201.073 195.038C196.034 200.545 182.189 203.995 169.897 198.305C169.694 201.734 165.82 209.803 161.699 212.959C169.727 214.826 185.36 218.25 197.233 206.5C199.941 202.536 200.94 198.53 201.074 195.041L201.073 195.043Z" fill="#ABB0C0"/>
<path d="M127.195 193.126C126.635 198.811 127.503 202.927 128.738 206.275C131.986 213.039 143.287 224.109 160.623 213.463C165.072 209.692 166.154 203.768 166.04 199.641C157.838 205.859 134.031 205.591 127.195 193.126Z" fill="#ABB0C0"/>
<path d="M203.85 194.113V194.115C203.784 196.489 202.945 200.236 198.713 204.982C213.449 204.793 224.512 194.706 226.516 184.269C222.11 191.163 211.904 195.438 203.85 194.113Z" fill="#ABB0C0"/>
<path d="M81.4824 170.244C82.504 178.595 86.7095 188.27 99.4275 192.401C98.612 190.713 98.1042 188.919 97.8163 187.105C87.4559 186.923 82.573 175.338 81.4814 170.245L81.4824 170.244Z" fill="#858B97"/>
<path d="M99.532 188.457C99.7874 191.292 100.74 194.311 102.863 197.026C110.154 205.736 117.289 205.892 127.65 205.25C126.992 204.034 126.46 202.836 126.029 201.661C107.162 204.193 101.642 193.874 99.533 188.458L99.532 188.457Z" fill="#858B97"/>
<path d="M163.852 209.452C163.934 209.291 164.017 209.13 164.095 208.97C159.851 212.182 155.477 214.849 146.086 214.444C134.697 213.54 129.253 207.787 127.559 202.146C127.627 202.485 127.702 202.813 127.78 203.136C127.799 203.214 127.818 203.292 127.838 203.369C127.997 204.007 128.176 204.619 128.367 205.205C128.391 205.277 128.414 205.35 128.438 205.421C128.535 205.709 128.633 205.994 128.736 206.271C131.984 213.035 143.285 224.105 160.621 213.459C161.999 212.291 163.053 210.915 163.85 209.45L163.852 209.452Z" fill="#858B97"/>
<path d="M197.232 206.5C198.229 205.041 198.993 203.576 199.569 202.134C186.566 214.786 169.318 211.038 165.548 208.61C164.372 210.362 163.049 211.924 161.698 212.959C169.727 214.826 185.36 218.25 197.233 206.5H197.232Z" fill="#858B97"/>
<path d="M201.533 201.229C200.822 202.395 199.901 203.649 198.713 204.981C210.748 204.826 220.33 198.069 224.531 189.911C219.98 198.5 205.507 201.638 201.533 201.228V201.229Z" fill="#858B97"/>
<path d="M84.5147 151.46C82.9765 153.48 82.4923 155.843 82.4923 155.843C82.1008 162.36 91.2681 177.677 102.99 176.158C103.489 184.724 119.606 194.158 127.022 189.932C132.146 202.097 158.362 205.239 168.681 195.254C174.92 200.989 197.087 200.307 201.673 191.146C208.723 194.95 224.133 188.37 227.098 180.274C227.723 177.23 226.834 174.203 226.834 174.203C223.643 178.129 212.976 185.991 204.723 183.327C198.534 189.003 184.401 194.616 173.565 185.437C161.086 201.292 131.719 192.783 129.086 179.057C120.871 181.263 105.433 180.523 101.985 166.238C99.4365 165.17 90.6006 163.686 84.5147 151.46Z" fill="#1E2D45"/>
<path d="M144.174 101.269C148.605 99.595 157.798 96.7167 163.231 95.144C160.081 91.891 153.164 86.9115 151.211 87.3404C148.402 88.1164 145.151 96.6822 144.174 101.269Z" fill="white"/>
<path d="M205.763 107.161C211.913 113.899 216.777 121.871 217.771 123.348C222.039 119.747 227.948 110.611 226.128 109.272C222.599 106.673 210.127 106.55 205.763 107.161Z" fill="white"/>
<path d="M136.499 107.394C136.164 107.509 135.829 107.623 135.497 107.737C135.331 107.793 135.167 107.85 135.002 107.906C134.67 108.021 134.338 108.134 134.008 108.248C133.858 108.3 133.708 108.352 133.559 108.403C133.094 108.564 132.63 108.725 132.17 108.885C132.154 108.891 132.138 108.896 132.123 108.902C131.672 109.059 131.224 109.216 130.78 109.372C130.634 109.424 130.49 109.475 130.344 109.526C130.025 109.639 129.707 109.751 129.391 109.864C129.236 109.919 129.081 109.974 128.925 110.029C128.605 110.144 128.287 110.257 127.97 110.37C127.834 110.42 127.697 110.468 127.562 110.517C126.672 110.838 125.792 111.158 124.926 111.478C124.792 111.527 124.661 111.575 124.529 111.625C124.225 111.737 123.923 111.849 123.622 111.962C123.475 112.016 123.329 112.071 123.183 112.126C122.881 112.239 122.582 112.351 122.283 112.465C122.156 112.513 122.029 112.56 121.901 112.609C121.481 112.768 121.063 112.928 120.649 113.087H120.647C120.236 113.246 119.828 113.404 119.422 113.562C119.302 113.61 119.183 113.656 119.063 113.703C118.774 113.818 118.485 113.931 118.198 114.045C118.065 114.099 117.932 114.151 117.798 114.204C117.513 114.317 117.231 114.431 116.95 114.545C116.833 114.593 116.715 114.64 116.597 114.688C115.813 115.007 115.041 115.325 114.283 115.645C114.175 115.69 114.066 115.736 113.959 115.782C113.686 115.897 113.414 116.013 113.145 116.128C113.024 116.18 112.903 116.232 112.781 116.285C112.513 116.401 112.246 116.516 111.982 116.633C111.877 116.678 111.773 116.723 111.669 116.77C110.941 117.09 110.227 117.412 109.526 117.734C109.426 117.78 109.326 117.827 109.226 117.873C108.974 117.99 108.725 118.106 108.476 118.223C108.365 118.275 108.253 118.328 108.143 118.381C107.897 118.498 107.651 118.616 107.408 118.733C107.313 118.779 107.216 118.826 107.121 118.872C106.453 119.196 105.799 119.523 105.159 119.85C105.069 119.897 104.979 119.944 104.888 119.99C104.658 120.109 104.43 120.228 104.204 120.346C104.103 120.399 104.003 120.453 103.902 120.506C103.676 120.626 103.452 120.746 103.231 120.866C103.145 120.912 103.059 120.959 102.974 121.005C102.369 121.335 101.778 121.668 101.202 122.003C101.119 122.051 101.038 122.099 100.955 122.148C100.749 122.269 100.544 122.389 100.341 122.512C100.252 122.566 100.162 122.62 100.072 122.674C99.8691 122.797 99.668 122.922 99.4678 123.045C99.3929 123.091 99.3159 123.139 99.242 123.185C98.9698 123.356 98.7016 123.526 98.4374 123.698C109.322 118.567 146.432 104.916 165.01 118.778C183.588 132.641 207.923 116.432 195.148 101.84C191.975 99.3759 189.074 97.7736 186.638 97.0291C175.462 93.5878 164.219 98.026 138.411 106.746C137.926 106.909 137.444 107.073 136.965 107.236C136.809 107.289 136.655 107.341 136.499 107.394Z" fill="white"/>
<path d="M141.487 145.613C130.606 159.309 127.782 169.566 121.11 170.774C115.788 171.738 109.411 172.391 105.258 164.546C105.568 166.351 106.166 168.154 107.104 169.933C110.954 174.835 117.512 178.529 128.281 175.76C128.908 166.267 134.014 155.337 141.487 145.613Z" fill="#858B97"/>
<path d="M132.461 178.06C132.85 179.696 133.526 181.463 134.682 182.979C143.637 191.346 160.497 194.865 170.74 183.454C176.527 176.34 178.303 165.832 178.488 155.811C171.689 191.291 137.635 193.011 132.461 178.06Z" fill="#858B97"/>
<path d="M202.81 179.272C202.93 178.962 203.049 178.651 203.164 178.336C203.233 178.146 203.299 177.955 203.366 177.764C203.465 177.482 203.564 177.199 203.659 176.914C203.728 176.707 203.794 176.498 203.861 176.288C203.948 176.017 204.033 175.744 204.116 175.471C204.182 175.252 204.246 175.032 204.309 174.812C204.386 174.546 204.46 174.279 204.532 174.012C204.594 173.784 204.655 173.555 204.714 173.325C204.781 173.063 204.845 172.8 204.908 172.537C204.964 172.3 205.021 172.063 205.075 171.826C205.133 171.567 205.187 171.306 205.241 171.047C205.293 170.802 205.345 170.559 205.392 170.313C205.441 170.061 205.485 169.806 205.53 169.553C205.576 169.296 205.624 169.042 205.665 168.785C205.701 168.567 205.73 168.346 205.763 168.127C205.853 167.525 205.932 166.92 206.001 166.312C206.02 166.142 206.043 165.974 206.061 165.805C206.093 165.485 206.12 165.164 206.146 164.842C206.163 164.648 206.181 164.455 206.196 164.26C206.219 163.938 206.236 163.615 206.254 163.292C206.265 163.098 206.276 162.904 206.284 162.709C206.298 162.38 206.307 162.052 206.315 161.723C206.319 161.533 206.324 161.343 206.326 161.153C206.33 160.815 206.33 160.477 206.327 160.138C206.325 159.959 206.323 159.778 206.319 159.599C206.312 159.248 206.303 158.897 206.288 158.545C206.282 158.382 206.274 158.219 206.265 158.055C206.246 157.685 206.226 157.313 206.199 156.94C206.19 156.811 206.178 156.681 206.167 156.552C206.135 156.145 206.1 155.737 206.058 155.328C206.053 155.282 206.047 155.234 206.042 155.188C205.829 153.197 205.497 151.192 205.034 149.178C205.03 149.161 205.027 149.144 205.023 149.127C204.917 148.667 204.801 148.207 204.682 147.746C204.662 147.67 204.644 147.594 204.623 147.518C204.507 147.079 204.382 146.64 204.254 146.201C204.227 146.106 204.199 146.01 204.17 145.914C204.04 145.481 203.904 145.048 203.762 144.615C203.731 144.518 203.698 144.421 203.667 144.325C203.52 143.885 203.367 143.446 203.207 143.006C203.177 142.927 203.148 142.847 203.118 142.767C202.949 142.308 202.774 141.849 202.591 141.39C202.576 141.352 202.559 141.314 202.544 141.276C201.51 138.71 200.25 136.148 198.745 133.604C206.059 152.309 204.518 174.912 192.349 181.356C187.916 183.704 181.703 185.142 175.616 181.305C175.614 181.304 175.613 181.304 175.611 181.304C175.458 181.581 175.305 181.859 175.144 182.13C181.113 188.229 192.1 189.259 202.061 181.121C202.257 180.665 202.448 180.204 202.632 179.74C202.693 179.585 202.751 179.428 202.812 179.272H202.81Z" fill="#858B97"/>
<path d="M227.444 151.231C221.498 135.477 214.292 123.174 207.278 114.258C219.45 137.341 226.306 153.696 221.339 165.335C219.432 169.291 216.838 174.559 207.706 176.94C207.548 176.988 206.813 176.932 206.676 176.996C206.544 177.711 206.233 178.606 206.086 179.339C211.429 182.677 235.722 173.074 227.444 151.229V151.231Z" fill="#858B97"/>
<path d="M224.506 115.007C216.904 119.076 209.054 109.646 205.763 107.16C211.913 113.898 216.777 121.87 217.771 123.347C220.017 121.452 222.716 118.024 224.506 115.007Z" fill="#858B97"/>
<path d="M111.106 142.797C100.455 153.565 93.2529 155.504 88.3434 151.323C91.2384 156.991 96.4664 161.553 102.252 162.808C102.08 161.261 102.352 159.052 102.409 158.699C102.615 157.41 104.316 149.685 111.106 142.797Z" fill="#858B97"/>
<path d="M306.375 192.31C302.14 190.459 298.814 187.832 296.397 184.429C293.976 181.027 292.767 177.057 292.767 172.521H306.602C306.903 175.923 308.247 178.722 310.627 180.913C313.009 183.107 316.354 184.201 320.663 184.201C325.124 184.201 328.601 183.124 331.097 180.969C333.59 178.814 334.839 176.037 334.839 172.634C334.839 169.988 334.063 167.833 332.514 166.17C330.963 164.508 329.035 163.222 326.729 162.315C324.422 161.408 321.229 160.426 317.147 159.367C312.005 158.006 307.828 156.626 304.615 155.227C301.401 153.829 298.661 151.655 296.394 148.706C294.125 145.758 292.991 141.828 292.991 136.912C292.991 132.376 294.125 128.407 296.394 125.005C298.661 121.603 301.837 118.995 305.919 117.179C310.001 115.365 314.725 114.458 320.094 114.458C327.73 114.458 333.987 116.368 338.863 120.185C343.74 124.003 346.441 129.239 346.971 135.891H332.682C332.455 133.018 331.096 130.561 328.6 128.519C326.105 126.478 322.817 125.457 318.734 125.457C315.028 125.457 312.004 126.404 309.662 128.292C307.317 130.183 306.146 132.905 306.146 136.458C306.146 138.878 306.882 140.862 308.356 142.411C309.83 143.962 311.702 145.19 313.97 146.097C316.239 147.004 319.338 147.989 323.268 149.046C328.486 150.482 332.738 151.919 336.026 153.355C339.315 154.792 342.111 157.003 344.418 159.99C346.722 162.977 347.876 166.964 347.876 171.953C347.876 175.962 346.799 179.741 344.644 183.294C342.489 186.849 339.351 189.702 335.231 191.856C331.109 194.011 326.253 195.088 320.659 195.088C315.366 195.088 310.604 194.163 306.37 192.309L306.375 192.31Z" fill="black"/>
<path d="M363.813 146.042C366.422 141.166 370.03 137.406 374.642 134.759C379.253 132.113 384.546 130.79 390.519 130.79C398.079 130.79 404.336 132.587 409.288 136.177C414.24 139.768 417.584 144.891 419.324 151.543H405.375C404.241 148.444 402.427 146.025 399.93 144.286C397.437 142.548 394.299 141.678 390.518 141.678C385.225 141.678 381.011 143.549 377.874 147.292C374.736 151.034 373.168 156.27 373.168 162.997C373.168 169.724 374.736 174.981 377.874 178.761C381.011 182.542 385.225 184.431 390.518 184.431C398.002 184.431 402.954 181.143 405.375 174.565H419.324C417.51 180.915 414.107 185.961 409.118 189.704C404.128 193.446 397.928 195.318 390.519 195.318C384.546 195.318 379.253 193.977 374.642 191.292C370.03 188.61 366.421 184.828 363.813 179.951C361.204 175.075 359.901 169.424 359.901 162.997C359.901 156.57 361.204 150.92 363.813 146.043V146.042Z" fill="black"/>
<path d="M432.874 146.099C435.482 141.262 439.036 137.5 443.533 134.816C448.031 132.133 453.002 130.79 458.446 130.79C463.36 130.79 467.65 131.754 471.317 133.682C474.983 135.61 477.913 138.011 480.107 140.883V131.811H493.148V194.296H480.107V184.998C477.913 187.945 474.928 190.404 471.148 192.369C467.366 194.334 463.056 195.317 458.22 195.317C452.851 195.317 447.937 193.937 443.477 191.177C439.015 188.419 435.482 184.562 432.874 179.61C430.265 174.659 428.962 169.046 428.962 162.77C428.962 156.495 430.265 150.939 432.874 146.099ZM477.443 151.769C475.665 148.594 473.341 146.175 470.467 144.512C467.594 142.849 464.495 142.017 461.169 142.017C457.843 142.017 454.742 142.831 451.87 144.456C448.996 146.083 446.671 148.464 444.895 151.601C443.118 154.738 442.231 158.461 442.231 162.77C442.231 167.08 443.118 170.861 444.895 174.111C446.671 177.362 449.015 179.838 451.927 181.539C454.836 183.24 457.918 184.091 461.169 184.091C464.495 184.091 467.594 183.26 470.467 181.596C473.34 179.934 475.665 177.495 477.443 174.281C479.217 171.068 480.107 167.306 480.107 162.997C480.107 158.688 479.217 154.944 477.443 151.769Z" fill="black"/>
<path d="M524.108 110.377V194.295H511.18V110.377H524.108Z" fill="black"/>
<path d="M555.066 110.377V194.295H542.138V110.377H555.066Z" fill="black"/>
<path d="M584.21 191.29C579.448 188.608 575.704 184.826 572.983 179.949C570.261 175.073 568.9 169.422 568.9 162.995C568.9 156.645 570.299 151.014 573.096 146.098C575.892 141.185 579.711 137.405 584.55 134.758C589.387 132.112 594.793 130.789 600.766 130.789C606.74 130.789 612.144 132.112 616.984 134.758C621.821 137.405 625.64 141.185 628.438 146.098C631.233 151.014 632.634 156.645 632.634 162.995C632.634 169.345 631.197 174.979 628.325 179.892C625.451 184.809 621.539 188.608 616.588 191.289C611.635 193.974 606.172 195.315 600.201 195.315C594.304 195.315 588.973 193.974 584.211 191.289L584.21 191.29ZM609.556 181.709C612.465 180.121 614.829 177.739 616.644 174.564C618.458 171.388 619.365 167.533 619.365 162.996C619.365 158.459 618.496 154.624 616.757 151.486C615.017 148.351 612.711 145.986 609.839 144.398C606.966 142.811 603.867 142.017 600.541 142.017C597.215 142.017 594.132 142.811 591.297 144.398C588.463 145.986 586.212 148.351 584.551 151.486C582.886 154.624 582.056 158.46 582.056 162.996C582.056 169.727 583.775 174.924 587.216 178.59C590.657 182.258 594.985 184.091 600.201 184.091C603.526 184.091 606.646 183.296 609.557 181.709L609.556 181.709Z" fill="black"/>
<path d="M668.354 133.738C672.133 131.773 676.406 130.79 681.169 130.79C686.612 130.79 691.581 132.133 696.081 134.816C700.578 137.5 704.113 141.263 706.685 146.099C709.254 150.939 710.539 156.495 710.539 162.77C710.539 169.046 709.253 174.66 706.685 179.61C704.113 184.563 700.578 188.419 696.081 191.177C691.581 193.937 686.612 195.317 681.169 195.317C676.406 195.317 672.17 194.353 668.466 192.425C664.762 190.497 661.737 188.098 659.395 185.224V224.008H646.467V131.811H659.395V140.997C661.587 138.124 664.572 135.705 668.354 133.738ZM694.72 151.6C692.942 148.463 690.598 146.082 687.689 144.455C684.779 142.83 681.659 142.016 678.334 142.016C675.082 142.016 672 142.849 669.091 144.511C666.18 146.174 663.836 148.593 662.06 151.768C660.282 154.943 659.396 158.685 659.396 162.995C659.396 167.305 660.282 171.066 662.06 174.279C663.836 177.493 666.18 179.932 669.091 181.594C671.999 183.259 675.082 184.089 678.334 184.089C681.659 184.089 684.779 183.238 687.689 181.537C690.598 179.836 692.943 177.36 694.72 174.109C696.496 170.859 697.384 167.079 697.384 162.769C697.384 158.459 696.496 154.737 694.72 151.6Z" fill="black"/>
</svg>
