<svg width="544" height="301" viewBox="0 0 544 301" fill="none" xmlns="http://www.w3.org/2000/svg">
<rect width="543.208" height="300.194" fill="#1E2D45"/>
<path d="M140.302 212.236C174.589 212.236 202.383 184.415 202.383 150.097C202.383 115.779 174.589 87.9585 140.302 87.9585C106.015 87.9585 78.2208 115.779 78.2208 150.097C78.2208 184.415 106.015 212.236 140.302 212.236Z" fill="#F1D6C8"/>
<path d="M177.401 134.467C181.031 131.217 184.851 125.968 183.001 123.379C181.15 120.79 171.204 120.796 167.77 121.49C163.312 117.268 158.693 112.439 146.521 115.465C144.114 112.671 138.661 108.865 136.662 109.76C132.654 111.427 131.02 120.603 131.02 120.603C119.748 123.561 108.688 129.356 105.965 130.926C100.876 133.666 95.596 139.025 97.4839 146.944C92.772 151.268 91.6609 170.822 105.912 174.832C111.709 183.199 116.718 182.822 123.168 182.708C125.178 187.682 132.793 193.887 143.451 187.337C150.672 188.901 159.44 189.272 166.16 182.441C175.307 182.123 186.52 174.084 183.444 160.675C189.042 152.687 178.302 136.135 177.401 134.467Z" fill="black"/>
<path d="M182.052 149.06C174.709 129.586 164.085 119.101 158.154 117.286C151.609 115.268 145.024 117.87 129.909 122.982C113.886 128.401 102.894 133.019 99.9781 139.749C97.1605 146.253 102.371 154.466 108.731 155.846C108.631 154.939 108.79 153.645 108.824 153.438C108.999 152.338 111.028 143.256 121.387 139.312C115.129 142.823 107.27 151.857 111.573 160.023C113.828 162.897 117.669 165.063 123.976 163.439C124.531 155.031 131.072 144.7 139.335 137.793C133.837 144.235 127.115 153.216 126.166 161.78C126.09 162.45 126.072 165.498 127.725 167.671C132.97 172.575 142.845 174.638 148.844 167.949C154.888 160.513 153.463 146.746 152.599 139.562C155.253 149.134 155.688 159.984 151.422 167.172C154.917 170.748 161.352 171.352 167.186 166.581C171.057 157.584 170.977 146.08 163.101 135.504C171.232 145.143 172.037 153.126 169.545 165.538C177.081 163.5 185.925 161.308 182.054 149.06L182.052 149.06Z" fill="#ABB0C0"/>
<path d="M106.126 164.927C102.544 163.881 96.7193 159.11 96.8925 152.818C96.0528 156.514 94.862 169.224 107.077 173.195C105.804 170.561 105.813 167.477 106.126 164.927Z" fill="#ABB0C0"/>
<path d="M121.807 173.514C117.444 173.819 109.402 169.965 108.475 164.842C107.297 166.261 105.806 171.705 109.088 175.907C113.358 181.012 117.537 181.104 123.605 180.728C122.204 178.132 121.737 175.676 121.808 173.515L121.807 173.514Z" fill="#ABB0C0"/>
<path d="M166.607 174.743C166.607 174.743 166.607 174.741 166.607 174.74C163.656 177.969 155.547 179.991 148.348 176.655C148.229 178.666 145.96 183.396 143.546 185.245C148.248 186.34 157.404 188.347 164.358 181.459C165.944 179.136 166.529 176.787 166.608 174.742L166.607 174.743Z" fill="#ABB0C0"/>
<path d="M123.339 173.619C123.011 176.952 123.519 179.365 124.242 181.327C126.145 185.293 132.763 191.782 142.916 185.541C145.522 183.33 146.156 179.858 146.089 177.438C141.286 181.083 127.342 180.926 123.339 173.619Z" fill="#ABB0C0"/>
<path d="M168.234 174.198V174.2C168.195 175.591 167.704 177.787 165.225 180.57C173.856 180.459 180.335 174.546 181.509 168.427C178.928 172.469 172.952 174.975 168.235 174.198H168.234Z" fill="#ABB0C0"/>
<path d="M96.5668 160.207C97.1651 165.102 99.6281 170.774 107.077 173.195C106.599 172.206 106.302 171.154 106.133 170.09C100.065 169.984 97.2055 163.193 96.5662 160.207L96.5668 160.207Z" fill="#858B97"/>
<path d="M107.137 170.883C107.287 172.545 107.845 174.315 109.088 175.906C113.358 181.012 117.537 181.104 123.605 180.728C123.22 180.015 122.908 179.312 122.656 178.624C111.606 180.108 108.373 174.059 107.138 170.884L107.137 170.883Z" fill="#858B97"/>
<path d="M144.808 183.191C144.856 183.097 144.904 183.002 144.95 182.908C142.464 184.791 139.903 186.354 134.403 186.117C127.733 185.587 124.544 182.215 123.552 178.908C123.592 179.106 123.636 179.299 123.682 179.489C123.693 179.534 123.704 179.58 123.715 179.625C123.809 179.999 123.913 180.357 124.025 180.701C124.039 180.743 124.053 180.786 124.067 180.828C124.123 180.997 124.181 181.164 124.241 181.326C126.143 185.291 132.762 191.78 142.915 185.54C143.723 184.855 144.34 184.049 144.807 183.19L144.808 183.191Z" fill="#858B97"/>
<path d="M164.357 181.46C164.941 180.605 165.389 179.747 165.726 178.901C158.11 186.318 148.009 184.121 145.801 182.697C145.112 183.725 144.338 184.64 143.546 185.247C148.248 186.341 157.404 188.348 164.358 181.46H164.357Z" fill="#858B97"/>
<path d="M166.876 178.37C166.46 179.054 165.92 179.789 165.225 180.569C172.274 180.479 177.885 176.517 180.346 171.735C177.68 176.77 169.204 178.61 166.876 178.369V178.37Z" fill="#858B97"/>
<path d="M98.342 149.195C97.4411 150.379 97.1576 151.764 97.1576 151.764C96.9283 155.585 102.297 164.564 109.163 163.674C109.455 168.695 118.894 174.225 123.237 171.748C126.238 178.879 141.592 180.721 147.636 174.868C151.29 178.23 164.272 177.83 166.958 172.46C171.087 174.689 180.113 170.832 181.849 166.086C182.215 164.302 181.694 162.527 181.694 162.527C179.826 164.828 173.578 169.438 168.744 167.876C165.12 171.203 156.843 174.494 150.496 169.113C143.188 178.407 125.988 173.419 124.446 165.373C119.635 166.666 110.593 166.232 108.574 157.858C107.081 157.232 101.906 156.362 98.342 149.195Z" fill="#1E2D45"/>
<path d="M133.283 119.772C135.878 118.79 141.262 117.103 144.444 116.181C142.599 114.274 138.548 111.355 137.404 111.607C135.759 112.061 133.855 117.083 133.283 119.772Z" fill="white"/>
<path d="M169.354 123.226C172.956 127.175 175.805 131.849 176.387 132.715C178.887 130.604 182.347 125.248 181.282 124.463C179.215 122.94 171.91 122.867 169.354 123.226Z" fill="white"/>
<path d="M128.788 123.362C128.592 123.429 128.396 123.497 128.202 123.563C128.105 123.596 128.008 123.629 127.912 123.662C127.717 123.729 127.523 123.796 127.33 123.863C127.242 123.893 127.154 123.924 127.067 123.954C126.794 124.048 126.522 124.142 126.253 124.236C126.244 124.24 126.235 124.243 126.225 124.246C125.962 124.338 125.699 124.43 125.439 124.522C125.353 124.552 125.269 124.582 125.184 124.612C124.997 124.678 124.811 124.744 124.626 124.81C124.535 124.842 124.444 124.875 124.353 124.907C124.166 124.974 123.979 125.04 123.794 125.107C123.714 125.136 123.634 125.164 123.555 125.193C123.033 125.381 122.518 125.569 122.01 125.756C121.932 125.785 121.856 125.813 121.778 125.842C121.6 125.908 121.423 125.974 121.247 126.04C121.161 126.072 121.075 126.104 120.99 126.136C120.813 126.202 120.638 126.268 120.463 126.335C120.388 126.363 120.314 126.391 120.239 126.419C119.993 126.513 119.748 126.606 119.506 126.699H119.505C119.264 126.793 119.025 126.886 118.787 126.978C118.717 127.006 118.647 127.033 118.577 127.061C118.407 127.128 118.238 127.194 118.07 127.261C117.992 127.293 117.914 127.323 117.836 127.354C117.669 127.421 117.504 127.487 117.339 127.554C117.271 127.582 117.201 127.61 117.133 127.638C116.673 127.825 116.221 128.012 115.777 128.199C115.714 128.225 115.65 128.253 115.587 128.279C115.427 128.347 115.269 128.414 115.111 128.482C115.04 128.513 114.969 128.543 114.898 128.574C114.741 128.642 114.584 128.71 114.429 128.778C114.368 128.805 114.307 128.831 114.246 128.858C113.82 129.046 113.401 129.235 112.991 129.424C112.933 129.451 112.874 129.478 112.815 129.505C112.668 129.573 112.522 129.642 112.376 129.71C112.311 129.741 112.246 129.772 112.181 129.803C112.037 129.872 111.893 129.94 111.751 130.009C111.695 130.036 111.638 130.064 111.582 130.091C111.191 130.281 110.809 130.472 110.434 130.664C110.381 130.691 110.328 130.719 110.275 130.746C110.14 130.816 110.006 130.886 109.874 130.955C109.815 130.986 109.756 131.017 109.697 131.049C109.565 131.119 109.434 131.189 109.304 131.26C109.254 131.287 109.204 131.314 109.154 131.341C108.799 131.535 108.453 131.73 108.116 131.926C108.068 131.954 108.02 131.983 107.971 132.011C107.851 132.082 107.73 132.153 107.612 132.224C107.56 132.256 107.507 132.288 107.454 132.32C107.335 132.392 107.218 132.465 107.1 132.537C107.056 132.564 107.011 132.592 106.968 132.619C106.809 132.719 106.652 132.819 106.497 132.92C112.872 129.912 134.606 121.909 145.487 130.036C156.367 138.162 170.62 128.66 163.138 120.106C161.279 118.662 159.58 117.723 158.154 117.286C151.608 115.269 145.023 117.871 129.908 122.982C129.624 123.078 129.342 123.174 129.062 123.269C128.97 123.301 128.88 123.331 128.788 123.362Z" fill="white"/>
<path d="M131.709 145.767C125.337 153.796 123.683 159.809 119.775 160.517C116.658 161.082 112.923 161.465 110.491 156.866C110.672 157.924 111.023 158.981 111.572 160.024C113.827 162.897 117.667 165.063 123.975 163.439C124.342 157.875 127.333 151.467 131.709 145.767Z" fill="#858B97"/>
<path d="M126.424 164.788C126.651 165.747 127.047 166.783 127.724 167.672C132.969 172.576 142.844 174.639 148.843 167.95C152.232 163.78 153.272 157.62 153.38 151.745C149.398 172.545 129.454 173.553 126.424 164.788Z" fill="#858B97"/>
<path d="M167.625 165.499C167.695 165.317 167.765 165.134 167.832 164.95C167.872 164.839 167.911 164.726 167.95 164.614C168.009 164.449 168.066 164.283 168.122 164.116C168.162 163.995 168.201 163.872 168.24 163.75C168.291 163.591 168.341 163.43 168.39 163.27C168.429 163.142 168.466 163.013 168.503 162.884C168.548 162.728 168.591 162.571 168.634 162.415C168.67 162.281 168.705 162.147 168.74 162.013C168.779 161.859 168.817 161.704 168.854 161.55C168.887 161.411 168.92 161.273 168.951 161.133C168.985 160.982 169.017 160.829 169.049 160.677C169.079 160.533 169.109 160.391 169.137 160.247C169.166 160.099 169.191 159.95 169.218 159.801C169.245 159.651 169.273 159.502 169.297 159.351C169.318 159.223 169.335 159.093 169.354 158.965C169.407 158.613 169.454 158.258 169.494 157.901C169.505 157.802 169.518 157.703 169.529 157.604C169.548 157.417 169.563 157.228 169.579 157.04C169.589 156.926 169.599 156.813 169.608 156.698C169.622 156.51 169.632 156.32 169.642 156.131C169.648 156.017 169.655 155.903 169.66 155.789C169.668 155.596 169.673 155.404 169.678 155.211C169.68 155.1 169.683 154.988 169.684 154.877C169.686 154.679 169.686 154.481 169.685 154.282C169.683 154.177 169.682 154.071 169.68 153.966C169.676 153.76 169.671 153.554 169.662 153.348C169.658 153.252 169.653 153.157 169.648 153.061C169.637 152.844 169.626 152.626 169.61 152.407C169.604 152.332 169.597 152.255 169.591 152.18C169.572 151.941 169.552 151.702 169.527 151.462C169.524 151.435 169.521 151.407 169.518 151.38C169.393 150.213 169.198 149.037 168.928 147.857C168.925 147.847 168.924 147.837 168.921 147.827C168.859 147.558 168.791 147.288 168.721 147.018C168.71 146.973 168.699 146.928 168.687 146.884C168.619 146.626 168.546 146.369 168.471 146.112C168.455 146.056 168.438 146 168.422 145.944C168.345 145.69 168.266 145.436 168.183 145.182C168.164 145.125 168.145 145.069 168.127 145.012C168.04 144.754 167.951 144.497 167.857 144.239C167.84 144.192 167.823 144.145 167.805 144.099C167.706 143.83 167.604 143.56 167.497 143.292C167.488 143.269 167.478 143.247 167.469 143.225C166.864 141.721 166.126 140.218 165.244 138.728C169.528 149.692 168.625 162.943 161.498 166.72C158.902 168.096 155.263 168.94 151.698 166.691C151.697 166.69 151.696 166.69 151.695 166.689C151.605 166.852 151.516 167.015 151.422 167.174C154.917 170.749 161.352 171.353 167.186 166.582C167.301 166.315 167.413 166.045 167.521 165.773C167.557 165.682 167.591 165.59 167.626 165.499H167.625Z" fill="#858B97"/>
<path d="M182.052 149.06C178.57 139.825 174.35 132.613 170.242 127.386C177.371 140.918 181.386 150.505 178.477 157.328C177.36 159.647 175.841 162.736 170.493 164.131C170.4 164.16 169.969 164.127 169.889 164.164C169.812 164.583 169.63 165.108 169.544 165.538C172.673 167.494 186.9 161.865 182.052 149.059V149.06Z" fill="#858B97"/>
<path d="M180.331 127.826C175.879 130.211 171.282 124.683 169.354 123.226C172.956 127.175 175.805 131.849 176.387 132.715C177.703 131.604 179.283 129.594 180.331 127.826Z" fill="#858B97"/>
<path d="M113.916 144.116C107.678 150.428 103.46 151.565 100.584 149.114C102.28 152.437 105.342 155.112 108.73 155.847C108.63 154.94 108.789 153.645 108.822 153.438C108.943 152.683 109.939 148.154 113.916 144.116Z" fill="#858B97"/>
<path d="M236.694 174.77C233.595 174.77 230.805 174.238 228.326 173.175C225.846 172.066 223.898 170.516 222.481 168.521C221.652 167.354 221.065 166.072 220.721 164.677C220.303 162.98 221.771 161.54 223.518 161.54H226.287C227.516 161.54 228.496 162.502 228.919 163.657C229.309 164.728 229.931 165.662 230.783 166.459C232.2 167.744 234.17 168.387 236.694 168.387C239.307 168.387 241.344 167.767 242.805 166.526C244.266 165.241 244.996 163.601 244.996 161.606C244.996 160.055 244.532 158.792 243.602 157.817C242.716 156.842 241.587 156.089 240.215 155.557C238.886 155.025 237.027 154.449 234.635 153.829C231.624 153.031 229.167 152.233 227.263 151.436C225.404 150.594 223.81 149.309 222.481 147.58C221.153 145.852 220.488 143.547 220.488 140.666C220.488 138.007 221.153 135.68 222.481 133.686C223.809 131.692 225.669 130.163 228.06 129.099C230.451 128.035 233.218 127.503 236.362 127.503C240.834 127.503 244.487 128.633 247.321 130.894C249.315 132.428 250.692 134.368 251.453 136.71C252.024 138.467 250.525 140.068 248.679 140.068H245.926C244.69 140.068 243.711 139.074 243.162 137.964C242.76 137.15 242.155 136.41 241.343 135.747C239.882 134.55 237.956 133.952 235.565 133.952C233.395 133.952 231.624 134.506 230.251 135.614C228.878 136.722 228.192 138.317 228.192 140.401C228.192 141.819 228.613 142.993 229.454 143.924C230.339 144.81 231.447 145.519 232.775 146.051C234.103 146.583 235.919 147.159 238.221 147.779C241.276 148.621 243.756 149.464 245.66 150.305C247.608 151.147 249.246 152.455 250.575 154.227C251.948 155.955 252.634 158.282 252.634 161.207C252.634 163.557 251.992 165.772 250.708 167.855C249.468 169.939 247.63 171.622 245.195 172.908C242.804 174.149 239.97 174.769 236.694 174.769L236.694 174.77Z" fill="white"/>
<path d="M261.919 146.017C263.448 143.159 265.561 140.955 268.262 139.403C270.963 137.852 274.063 137.076 277.56 137.076C281.988 137.076 285.653 138.129 288.553 140.234C290.42 141.589 291.896 143.316 292.983 145.414C293.937 147.255 292.406 149.242 290.334 149.242H288.472C287.145 149.242 286.008 148.376 285.28 147.265C284.689 146.361 283.953 145.602 283.073 144.988C281.612 143.969 279.775 143.459 277.56 143.459C274.46 143.459 271.992 144.556 270.155 146.75C268.317 148.943 267.399 152.013 267.399 155.957C267.399 159.9 268.317 162.981 270.155 165.198C271.992 167.414 274.46 168.521 277.56 168.521C281.114 168.521 283.693 167.254 285.297 164.719C286.006 163.598 287.142 162.737 288.468 162.737H290.238C292.339 162.737 293.866 164.775 292.839 166.61C291.739 168.576 290.278 170.243 288.454 171.613C285.531 173.806 281.9 174.903 277.56 174.903C274.063 174.903 270.963 174.117 268.262 172.543C265.561 170.971 263.447 168.754 261.919 165.895C260.392 163.037 259.629 159.724 259.629 155.957C259.629 152.189 260.392 148.876 261.919 146.017Z" fill="white"/>
<path d="M300.075 155.823C300.075 152.145 300.828 148.888 302.333 146.051C303.884 143.215 305.964 141.021 308.577 139.47C311.233 137.874 314.156 137.077 317.344 137.077C320.222 137.077 322.724 137.653 324.849 138.805C326.35 139.571 327.64 140.476 328.717 141.518C329.176 141.963 330.03 141.655 330.03 141.016C330.03 139.171 331.524 137.675 333.368 137.675H334.273C336.148 137.675 337.667 139.196 337.667 141.073V170.907C337.667 172.783 336.147 174.304 334.273 174.304H333.424C331.549 174.304 330.029 172.783 330.029 170.906C330.029 170.252 329.148 169.939 328.681 170.397C327.6 171.458 326.3 172.384 324.782 173.174C322.568 174.326 320.044 174.903 317.21 174.903C314.067 174.903 311.189 174.105 308.576 172.51C305.964 170.87 303.883 168.61 302.333 165.729C300.827 162.804 300.075 159.502 300.075 155.823H300.075ZM330.03 155.956C330.03 153.43 329.499 151.236 328.436 149.375C327.418 147.514 326.067 146.095 324.385 145.12C322.702 144.145 320.887 143.658 318.938 143.658C316.99 143.658 315.175 144.145 313.492 145.12C311.809 146.051 310.437 147.447 309.374 149.308C308.356 151.126 307.846 153.297 307.846 155.823C307.846 158.35 308.356 160.566 309.374 162.471C310.436 164.377 311.809 165.84 313.492 166.859C315.219 167.834 317.034 168.322 318.938 168.322C320.887 168.322 322.702 167.834 324.385 166.859C326.068 165.884 327.418 164.466 328.436 162.604C329.499 160.699 330.03 158.482 330.03 155.956Z" fill="white"/>
<path d="M352.013 125.11C349.923 125.11 348.228 126.796 348.228 128.875V170.54C348.228 172.619 349.923 174.304 352.013 174.304C354.103 174.304 355.8 172.618 355.8 170.54V128.875C355.8 126.795 354.105 125.11 352.013 125.11Z" fill="white"/>
<path d="M370.144 125.11C368.054 125.11 366.359 126.796 366.359 128.875V170.54C366.359 172.619 368.054 174.304 370.144 174.304C372.234 174.304 373.931 172.618 373.931 170.54V128.875C373.931 126.795 372.236 125.11 370.144 125.11Z" fill="white"/>
<path d="M390.999 172.543C388.211 170.97 386.018 168.754 384.424 165.895C382.83 163.036 382.033 159.724 382.033 155.956C382.033 152.233 382.852 148.932 384.49 146.051C386.128 143.17 388.365 140.955 391.199 139.403C394.032 137.852 397.198 137.076 400.696 137.076C404.195 137.076 407.36 137.852 410.194 139.403C413.027 140.955 415.264 143.17 416.903 146.051C418.54 148.932 419.36 152.233 419.36 155.956C419.36 159.678 418.518 162.981 416.836 165.861C415.153 168.743 412.862 170.97 409.962 172.542C407.061 174.116 403.862 174.902 400.365 174.902C396.911 174.902 393.789 174.116 391 172.542L390.999 172.543ZM405.844 166.926C407.548 165.995 408.932 164.599 409.995 162.737C411.058 160.876 411.589 158.616 411.589 155.957C411.589 153.297 411.08 151.048 410.061 149.209C409.042 147.371 407.692 145.985 406.01 145.054C404.327 144.124 402.512 143.658 400.564 143.658C398.616 143.658 396.811 144.124 395.15 145.054C393.49 145.985 392.172 147.371 391.199 149.209C390.224 151.048 389.738 153.298 389.738 155.957C389.738 159.902 390.745 162.948 392.76 165.098C394.775 167.248 397.31 168.322 400.365 168.322C402.313 168.322 404.14 167.857 405.845 166.926L405.844 166.926Z" fill="white"/>
<path d="M435.033 142.081C435.033 142.398 435.446 142.541 435.655 142.305C436.863 140.947 438.405 139.78 440.28 138.804C442.495 137.652 444.996 137.076 447.786 137.076C450.973 137.076 453.874 137.874 456.486 139.469C459.143 141.021 461.224 143.214 462.73 146.051C464.235 148.887 464.988 152.144 464.988 155.823C464.988 159.502 464.235 162.803 462.73 165.728C461.224 168.609 459.143 170.869 456.486 172.509C453.874 174.104 450.973 174.902 447.786 174.902C444.996 174.902 442.516 174.348 440.347 173.24C438.618 172.322 437.143 171.236 435.921 169.98C435.61 169.661 435.034 169.873 435.034 170.32V187.933C435.034 190.025 433.339 191.722 431.248 191.722C429.158 191.722 427.463 190.025 427.463 187.933V141.464C427.463 139.372 429.158 137.675 431.248 137.675C433.339 137.675 435.034 139.372 435.034 141.464L435.033 142.081ZM457.283 155.824C457.283 153.298 456.752 151.126 455.689 149.309C454.671 147.447 453.298 146.051 451.572 145.121C449.889 144.146 448.074 143.658 446.125 143.658C444.221 143.658 442.406 144.146 440.679 145.121C438.996 146.096 437.624 147.514 436.561 149.375C435.543 151.236 435.034 153.43 435.034 155.957C435.034 158.483 435.543 160.699 436.561 162.604C437.624 164.466 438.997 165.884 440.679 166.859C442.406 167.834 444.221 168.321 446.125 168.321C448.074 168.321 449.889 167.834 451.572 166.859C453.298 165.84 454.671 164.377 455.689 162.471C456.752 160.565 457.283 158.35 457.283 155.824Z" fill="white"/>
</svg>
