<svg width="300" height="200" viewBox="0 0 300 200" fill="none" xmlns="http://www.w3.org/2000/svg">
<path d="M0 8C0 3.58173 3.58172 0 8 0H292C296.418 0 300 3.58172 300 8V192C300 196.418 296.418 200 292 200H7.99999C3.58171 200 0 196.418 0 192V8Z" fill="#1E2D45"/>
<g filter="url(#filter0_f_1_8325)">
<path d="M73.6802 136C93.5624 136 109.68 119.882 109.68 100C109.68 80.1178 93.5624 64 73.6802 64C53.7979 64 37.6802 80.1178 37.6802 100C37.6802 119.882 53.7979 136 73.6802 136Z" fill="#F1D6C8"/>
<path d="M95.1938 90.9448C97.2989 89.0617 99.5138 86.021 98.4408 84.5211C97.3679 83.0211 91.6001 83.0245 89.6086 83.4263C87.0236 80.9807 84.3449 78.1831 77.2865 79.9362C75.8911 78.317 72.7291 76.1125 71.5697 76.6309C69.2457 77.5963 68.2983 82.9126 68.2983 82.9126C61.7613 84.6265 55.348 87.9838 53.769 88.8933C50.8177 90.481 47.7562 93.5854 48.8509 98.1733C46.1186 100.678 45.4743 112.007 53.7385 114.33C57.0998 119.178 60.0045 118.959 63.7445 118.893C64.9106 121.775 69.326 125.37 75.5063 121.575C79.694 122.481 84.7786 122.696 88.6749 118.738C93.9792 118.554 100.482 113.897 98.6977 106.128C101.944 101.501 95.7162 91.9113 95.1941 90.9448H95.1938Z" fill="black"/>
<path d="M87.7973 118.001C87.7545 118.046 87.71 118.09 87.6655 118.135C87.7097 118.091 87.7535 118.047 87.7973 118.001Z" fill="white"/>
<path d="M97.8915 99.3994C93.6331 88.1168 87.4722 82.0424 84.0333 80.9909C80.2377 79.8221 76.4191 81.3294 67.6541 84.2908C58.3628 87.4303 51.9886 90.1057 50.2978 94.0051C48.6639 97.7729 51.6852 102.531 55.3736 103.331C55.3154 102.806 55.4078 102.055 55.4272 101.935C55.529 101.299 56.7055 96.0368 62.7126 93.7519C59.0835 95.7857 54.5264 101.02 57.0216 105.751C58.329 107.416 60.5563 108.67 64.2139 107.73C64.5354 102.859 68.3286 96.8734 73.1201 92.8719C69.9324 96.6041 66.0343 101.807 65.4838 106.769C65.4399 107.157 65.4292 108.923 66.388 110.181C69.4294 113.023 75.1555 114.218 78.6343 110.343C82.1392 106.034 81.313 98.0589 80.8121 93.8966C82.3509 99.4423 82.603 105.728 80.1292 109.893C82.1563 111.964 85.8879 112.314 89.2709 109.55C91.5153 104.338 91.4687 97.6728 86.9016 91.5457C91.6168 97.1299 92.0836 101.755 90.6386 108.946C95.0085 107.765 100.137 106.495 97.8921 99.3991L97.8915 99.3994Z" fill="#ABB0C0"/>
<path d="M53.8622 108.591C51.7856 107.986 48.4076 105.221 48.5081 101.576C48.0212 103.718 47.3306 111.081 54.4138 113.381C53.6757 111.855 53.6807 110.069 53.8622 108.591Z" fill="#ABB0C0"/>
<path d="M62.955 113.567C60.425 113.743 55.7617 111.511 55.2243 108.542C54.5408 109.365 53.6764 112.519 55.5796 114.953C58.0557 117.911 60.4789 117.964 63.9979 117.746C63.1851 116.242 62.9145 114.819 62.9554 113.567L62.955 113.567Z" fill="#ABB0C0"/>
<path d="M88.9351 114.279C88.9351 114.279 88.9351 114.278 88.9351 114.277C87.2235 116.148 82.5214 117.319 78.3467 115.387C78.2781 116.552 76.9623 119.292 75.5625 120.364C78.2891 120.998 83.5984 122.161 87.6307 118.17C88.5506 116.824 88.8899 115.463 88.9354 114.278L88.9351 114.279Z" fill="#ABB0C0"/>
<path d="M63.8442 113.627C63.654 115.558 63.9487 116.956 64.3683 118.093C65.4714 120.39 69.3095 124.15 75.1971 120.534C76.7081 119.253 77.0754 117.242 77.0369 115.84C74.2514 117.952 66.1659 117.861 63.8442 113.627Z" fill="#ABB0C0"/>
<path d="M89.878 113.963V113.963C89.8556 114.769 89.5706 116.042 88.1333 117.654C93.1381 117.59 96.8952 114.164 97.576 110.619C96.0794 112.961 92.6134 114.412 89.878 113.963Z" fill="#ABB0C0"/>
<path d="M64.2663 117.804C64.2582 117.78 64.2499 117.755 64.2422 117.731C64.2502 117.755 64.2582 117.78 64.2663 117.804Z" fill="#717071"/>
<path d="M75.1968 120.534C75.723 120.211 76.0321 119.683 76.2924 119.173C76.0221 119.67 75.6644 120.138 75.1968 120.534Z" fill="#717071"/>
<path d="M48.3187 105.857C48.6656 108.693 50.0939 111.979 54.4132 113.382C54.1363 112.809 53.9638 112.199 53.866 111.583C50.3474 111.521 48.6891 107.587 48.3184 105.857L48.3187 105.857Z" fill="#858B97"/>
<path d="M54.4487 112.042C54.5355 113.005 54.859 114.031 55.58 114.953C58.0561 117.911 60.4793 117.964 63.9983 117.746C63.7749 117.333 63.5941 116.926 63.4477 116.527C57.0401 117.387 55.1654 113.882 54.4491 112.043L54.4487 112.042Z" fill="#858B97"/>
<path d="M76.293 119.173C76.3208 119.118 76.3489 119.064 76.3757 119.009C74.9341 120.1 73.4489 121.006 70.2594 120.869C66.3915 120.561 64.5426 118.607 63.9673 116.692C63.9904 116.807 64.0158 116.918 64.0423 117.028C64.0487 117.055 64.055 117.081 64.0617 117.107C64.116 117.324 64.1766 117.531 64.2416 117.731C64.2496 117.755 64.2576 117.78 64.2657 117.804C64.2985 117.902 64.332 117.999 64.3668 118.093C65.4699 120.39 69.308 124.149 75.1956 120.534C75.6638 120.137 76.0218 119.67 76.2924 119.172L76.293 119.173Z" fill="#858B97"/>
<path d="M87.6299 118.17C87.9685 117.675 88.228 117.177 88.4236 116.688C84.0074 120.984 78.1497 119.711 76.8694 118.887C76.4699 119.482 76.0208 120.013 75.562 120.364C78.2886 120.998 83.5975 122.161 87.6299 118.17Z" fill="#858B97"/>
<path d="M89.0906 116.38C88.8491 116.776 88.5363 117.202 88.1328 117.654C92.2204 117.602 95.4745 115.307 96.9014 112.536C95.3556 115.453 90.4405 116.519 89.0906 116.38V116.38Z" fill="#858B97"/>
<path d="M49.3482 99.4774C48.8258 100.164 48.6613 100.966 48.6613 100.966C48.5284 103.179 51.6418 108.381 55.6229 107.866C55.7923 110.775 61.266 113.979 63.7847 112.543C65.5247 116.675 74.4283 117.742 77.9328 114.351C80.052 116.299 87.5802 116.067 89.1377 112.956C91.5321 114.247 96.7657 112.013 97.7727 109.263C97.985 108.23 97.683 107.201 97.683 107.201C96.5993 108.535 92.9765 111.205 90.1735 110.3C88.0718 112.228 83.2719 114.134 79.5915 111.017C75.3536 116.401 65.3797 113.512 64.4856 108.85C61.6957 109.599 56.4524 109.348 55.2816 104.496C54.416 104.134 51.4151 103.63 49.3482 99.4774Z" fill="#1E2D45"/>
<path d="M69.6099 82.4313C71.1148 81.8627 74.237 80.8851 76.0818 80.351C75.0122 79.2462 72.663 77.555 71.9996 77.7007C71.0458 77.9643 69.9417 80.8734 69.6099 82.4313Z" fill="white"/>
<path d="M90.5273 84.4322C92.616 86.7205 94.268 89.428 94.6056 89.9296C96.0553 88.7067 98.0619 85.6036 97.444 85.1488C96.2455 84.2664 92.0095 84.2246 90.5273 84.4322Z" fill="white"/>
<path d="M67.0037 84.5116C66.8898 84.5505 66.7763 84.5893 66.6634 84.6278C66.6072 84.6469 66.5512 84.6664 66.4953 84.6854C66.3825 84.7243 66.2699 84.7628 66.1577 84.8016C66.1068 84.8191 66.0559 84.8368 66.0054 84.8542C65.8473 84.9088 65.6896 84.9634 65.5335 85.018C65.5282 85.02 65.5228 85.0217 65.5174 85.0237C65.3644 85.0769 65.2124 85.1302 65.0613 85.1834C65.0118 85.2008 64.9629 85.2182 64.9133 85.2357C64.8052 85.2738 64.697 85.312 64.5898 85.3502C64.5369 85.3689 64.4843 85.3877 64.4314 85.4064C64.3229 85.4453 64.2148 85.4838 64.1073 85.5223C64.061 85.5391 64.0145 85.5555 63.9686 85.5722C63.6662 85.6811 63.3675 85.7899 63.0731 85.8984C63.0279 85.9151 62.9834 85.9315 62.9385 85.9483C62.8354 85.9865 62.7326 86.0246 62.6304 86.0628C62.5805 86.0812 62.531 86.1 62.4814 86.1184C62.3789 86.1569 62.2771 86.1951 62.1756 86.2336C62.1324 86.25 62.0892 86.2661 62.046 86.2825C61.9034 86.3368 61.7614 86.391 61.6207 86.4449H61.6201C61.4804 86.4988 61.3418 86.5528 61.2041 86.6063C61.1633 86.6224 61.1228 86.6381 61.0822 86.6542C60.9838 86.6931 60.8857 86.7316 60.7882 86.7704C60.743 86.7885 60.6978 86.8063 60.6526 86.8243C60.5558 86.8629 60.46 86.9014 60.3646 86.9402C60.3247 86.9563 60.2846 86.9724 60.2447 86.9888C59.9781 87.0969 59.7163 87.2051 59.4587 87.3136C59.4219 87.329 59.3851 87.3448 59.3486 87.3602C59.2558 87.3993 59.1637 87.4385 59.0723 87.4777C59.0311 87.4955 58.9899 87.5132 58.9487 87.5309C58.8576 87.5705 58.7669 87.6096 58.6771 87.6492C58.6416 87.6646 58.6061 87.68 58.571 87.6957C58.3238 87.8046 58.081 87.9137 57.8433 88.0232C57.8091 88.039 57.7753 88.0547 57.7411 88.0704C57.6557 88.11 57.571 88.1495 57.4866 88.1893C57.4488 88.2071 57.4109 88.2248 57.3734 88.2429C57.2897 88.2828 57.2063 88.3226 57.1239 88.3625C57.0914 88.3782 57.0586 88.3939 57.0261 88.4097C56.7994 88.5199 56.5774 88.6307 56.3601 88.7419C56.3292 88.7576 56.2988 88.7737 56.268 88.7894C56.1899 88.8296 56.1122 88.8701 56.0356 88.9103C56.0014 88.9284 55.9672 88.9465 55.9331 88.9646C55.8564 89.0054 55.7804 89.046 55.705 89.0868C55.6759 89.1026 55.6467 89.1183 55.6179 89.134C55.4123 89.2462 55.2117 89.3594 55.0162 89.4729C54.988 89.4893 54.9602 89.5058 54.9321 89.5222C54.8621 89.5634 54.7925 89.6042 54.7238 89.6457C54.6933 89.6642 54.6629 89.6826 54.6324 89.701C54.5634 89.7429 54.4951 89.7851 54.4271 89.8269C54.4017 89.8427 54.3755 89.8587 54.3504 89.8745C54.258 89.9324 54.1669 89.9903 54.0771 90.0486C57.7739 88.3062 70.3773 83.6697 76.6868 88.3779C82.9964 93.086 91.261 87.5808 86.9222 82.6252C85.8446 81.7884 84.8593 81.2442 84.0322 80.9913C80.2366 79.8226 76.4179 81.3299 67.653 84.2913C67.4882 84.3469 67.3248 84.4025 67.1621 84.4577C67.1091 84.4758 67.0566 84.4936 67.0037 84.5116Z" fill="white"/>
<path d="M68.697 97.4917C65.0019 102.143 64.0428 105.627 61.7767 106.037C59.9693 106.364 57.8036 106.586 56.3931 103.922C56.4982 104.535 56.7015 105.147 57.02 105.751C58.3274 107.416 60.5547 108.671 64.2123 107.73C64.4249 104.506 66.1596 100.794 68.6974 97.4917H68.697Z" fill="#858B97"/>
<path d="M65.6323 108.511C65.7643 109.066 65.994 109.667 66.3865 110.182C69.4279 113.023 75.1541 114.218 78.6328 110.343C80.5983 107.927 81.2014 104.358 81.264 100.955C78.955 113.005 67.3895 113.589 65.6323 108.511Z" fill="#858B97"/>
<path d="M89.5242 108.922C89.5651 108.817 89.6056 108.711 89.6445 108.605C89.6679 108.54 89.6903 108.475 89.7131 108.41C89.7469 108.314 89.7804 108.218 89.8126 108.121C89.836 108.051 89.8585 107.98 89.8812 107.909C89.9107 107.817 89.9398 107.724 89.968 107.631C89.9904 107.557 90.0122 107.482 90.0336 107.408C90.0597 107.317 90.0848 107.227 90.1093 107.136C90.1304 107.058 90.1508 106.981 90.1709 106.903C90.1937 106.814 90.2154 106.724 90.2369 106.635C90.256 106.554 90.2754 106.474 90.2935 106.393C90.3132 106.306 90.3317 106.217 90.3501 106.129C90.3675 106.046 90.3852 105.963 90.4013 105.88C90.4181 105.794 90.4328 105.708 90.4482 105.621C90.4636 105.534 90.48 105.448 90.4941 105.361C90.5061 105.287 90.5162 105.212 90.5272 105.137C90.5577 104.933 90.5848 104.727 90.6083 104.521C90.6146 104.463 90.6223 104.406 90.6284 104.349C90.6394 104.24 90.6485 104.131 90.6575 104.022C90.6632 103.956 90.6692 103.89 90.6742 103.824C90.6823 103.715 90.688 103.605 90.694 103.495C90.6977 103.429 90.7014 103.363 90.7044 103.297C90.7091 103.186 90.7121 103.074 90.7148 102.962C90.7161 102.898 90.7178 102.833 90.7184 102.769C90.7198 102.654 90.7198 102.539 90.7188 102.424C90.7181 102.363 90.7174 102.302 90.7161 102.241C90.7138 102.122 90.7107 102.002 90.7057 101.883C90.7034 101.828 90.7007 101.772 90.6977 101.717C90.6913 101.591 90.6846 101.465 90.6752 101.338C90.6722 101.294 90.6682 101.25 90.6645 101.206C90.6535 101.068 90.6418 100.929 90.6274 100.79C90.6257 100.775 90.6237 100.759 90.622 100.743C90.5497 100.067 90.4368 99.3856 90.2797 98.7018C90.2784 98.6961 90.2774 98.69 90.2761 98.6843C90.2399 98.5283 90.2007 98.3719 90.1602 98.2155C90.1535 98.1897 90.1471 98.1636 90.1401 98.1378C90.1006 97.9888 90.0584 97.8398 90.0149 97.6907C90.0055 97.6583 89.9961 97.6258 89.9864 97.5933C89.9422 97.4463 89.896 97.2989 89.8477 97.1519C89.837 97.1191 89.826 97.0863 89.8153 97.0535C89.7654 96.9041 89.7135 96.7551 89.6592 96.6057C89.6492 96.5786 89.6391 96.5515 89.6291 96.5243C89.5715 96.3686 89.5122 96.2126 89.4499 96.0568C89.4449 96.0438 89.4392 96.0311 89.4342 96.018C89.0829 95.1466 88.6549 94.2763 88.1439 93.4126C90.6277 99.765 90.1043 107.442 85.9715 109.63C84.4662 110.427 82.3561 110.916 80.2888 109.613C80.2882 109.613 80.2875 109.613 80.2868 109.612C80.2349 109.706 80.183 109.801 80.1284 109.893C82.1555 111.964 85.8871 112.314 89.2701 109.55C89.3367 109.395 89.4013 109.239 89.464 109.081C89.4847 109.029 89.5045 108.975 89.5249 108.922H89.5242Z" fill="#858B97"/>
<path d="M97.8913 99.3996C95.8719 94.0491 93.4246 89.8708 91.0426 86.8428C95.1764 94.6824 97.5048 100.237 95.818 104.19C95.1703 105.533 94.2893 107.323 91.1879 108.131C91.134 108.147 90.8845 108.128 90.838 108.15C90.7931 108.393 90.6876 108.697 90.6377 108.946C92.4521 110.079 100.703 106.818 97.8913 99.3989V99.3996Z" fill="#858B97"/>
<path d="M96.8923 87.0971C94.3107 88.4789 91.6447 85.2764 90.5269 84.4321C92.6155 86.7204 94.2675 89.4279 94.6051 89.9296C95.3679 89.2859 96.2845 88.1219 96.8923 87.0971Z" fill="#858B97"/>
<path d="M58.3792 96.5347C54.7618 100.192 52.3158 100.85 50.6484 99.4304C51.6317 101.355 53.4072 102.905 55.372 103.331C55.3137 102.805 55.4061 102.055 55.4256 101.935C55.4955 101.498 56.0732 98.8742 58.3792 96.5347Z" fill="#858B97"/>
<path d="M124.697 113.351C123.259 112.722 122.13 111.83 121.308 110.674C120.486 109.518 120.076 108.17 120.076 106.63H124.774C124.877 107.785 125.333 108.736 126.141 109.48C126.95 110.225 128.086 110.596 129.55 110.596C131.065 110.596 132.246 110.231 133.093 109.499C133.94 108.767 134.364 107.824 134.364 106.668C134.364 105.769 134.101 105.037 133.575 104.473C133.048 103.908 132.393 103.471 131.61 103.163C130.826 102.855 129.742 102.522 128.356 102.162C126.609 101.7 125.191 101.231 124.1 100.756C123.008 100.281 122.077 99.543 121.307 98.5417C120.537 97.5404 120.152 96.2055 120.152 94.5361C120.152 92.9957 120.537 91.6474 121.307 90.4921C122.077 89.3367 123.156 88.451 124.542 87.8344C125.929 87.2182 127.533 86.9102 129.357 86.9102C131.95 86.9102 134.075 87.5588 135.731 88.8552C137.387 90.1518 138.305 91.9301 138.485 94.1892H133.632C133.555 93.2137 133.093 92.3791 132.245 91.6856C131.398 90.9924 130.281 90.6458 128.895 90.6458C127.636 90.6458 126.609 90.9673 125.814 91.6086C125.017 92.2509 124.619 93.1752 124.619 94.3817C124.619 95.2039 124.87 95.8777 125.37 96.4038C125.871 96.9302 126.506 97.3475 127.277 97.6556C128.047 97.9637 129.1 98.2979 130.435 98.6569C132.207 99.1448 133.651 99.6327 134.767 100.12C135.885 100.609 136.834 101.359 137.618 102.374C138.4 103.388 138.792 104.742 138.792 106.437C138.792 107.798 138.426 109.082 137.694 110.288C136.963 111.496 135.897 112.465 134.497 113.196C133.098 113.928 131.448 114.294 129.549 114.294C127.751 114.294 126.133 113.98 124.696 113.35L124.697 113.351Z" fill="white"/>
<path d="M144.204 97.6365C145.091 95.9805 146.316 94.7036 147.882 93.8045C149.448 92.906 151.246 92.4565 153.274 92.4565C155.842 92.4565 157.967 93.0667 159.649 94.286C161.331 95.5057 162.466 97.2457 163.057 99.5048H158.32C157.935 98.4523 157.319 97.6308 156.471 97.0401C155.624 96.4497 154.558 96.1543 153.274 96.1543C151.476 96.1543 150.046 96.7899 148.98 98.0608C147.914 99.3317 147.382 101.11 147.382 103.395C147.382 105.679 147.914 107.465 148.98 108.749C150.046 110.033 151.477 110.674 153.274 110.674C155.816 110.674 157.498 109.557 158.32 107.323H163.057C162.441 109.48 161.286 111.194 159.591 112.465C157.897 113.736 155.791 114.372 153.274 114.372C151.246 114.372 149.448 113.916 147.882 113.004C146.316 112.093 145.09 110.809 144.204 109.153C143.319 107.497 142.876 105.578 142.876 103.395C142.876 101.212 143.319 99.2932 144.204 97.6369V97.6365Z" fill="white"/>
<path d="M167.659 97.6559C168.545 96.013 169.752 94.7354 171.279 93.8239C172.807 92.9127 174.495 92.4565 176.344 92.4565C178.013 92.4565 179.47 92.7841 180.716 93.4388C181.961 94.0935 182.956 94.9089 183.701 95.8844V92.8031H188.13V114.025H183.701V110.867C182.956 111.868 181.942 112.703 180.658 113.37C179.374 114.037 177.91 114.371 176.267 114.371C174.444 114.371 172.775 113.903 171.26 112.965C169.745 112.028 168.545 110.719 167.659 109.037C166.773 107.356 166.331 105.449 166.331 103.318C166.331 101.187 166.773 99.2996 167.659 97.6559ZM182.796 99.5815C182.192 98.5032 181.403 97.6817 180.427 97.1168C179.451 96.5522 178.398 96.2695 177.269 96.2695C176.139 96.2695 175.086 96.5458 174.111 97.0977C173.135 97.6503 172.345 98.459 171.742 99.5243C171.138 100.59 170.837 101.854 170.837 103.318C170.837 104.781 171.138 106.066 171.742 107.169C172.345 108.273 173.141 109.114 174.13 109.692C175.118 110.27 176.165 110.559 177.269 110.559C178.398 110.559 179.451 110.276 180.427 109.711C181.402 109.147 182.192 108.319 182.796 107.227C183.399 106.136 183.701 104.858 183.701 103.395C183.701 101.931 183.399 100.66 182.796 99.5815Z" fill="white"/>
<path d="M198.645 85.5239V114.025H194.254V85.5239H198.645Z" fill="white"/>
<path d="M209.158 85.5239V114.025H204.767V85.5239H209.158Z" fill="white"/>
<path d="M219.055 113.004C217.438 112.093 216.167 110.809 215.242 109.153C214.318 107.497 213.856 105.577 213.856 103.395C213.856 101.238 214.331 99.3253 215.281 97.6559C216.231 95.9872 217.528 94.7036 219.171 93.8044C220.814 92.906 222.65 92.4565 224.678 92.4565C226.707 92.4565 228.543 92.906 230.186 93.8044C231.829 94.7036 233.126 95.9872 234.076 97.6559C235.026 99.3253 235.501 101.238 235.501 103.395C235.501 105.551 235.013 107.464 234.038 109.133C233.062 110.803 231.733 112.093 230.052 113.004C228.369 113.916 226.514 114.371 224.486 114.371C222.484 114.371 220.673 113.916 219.056 113.004L219.055 113.004ZM227.664 109.75C228.651 109.21 229.455 108.401 230.071 107.323C230.687 106.244 230.995 104.935 230.995 103.395C230.995 101.854 230.7 100.551 230.109 99.4854C229.518 98.4205 228.735 97.6174 227.76 97.0783C226.784 96.5391 225.731 96.2695 224.602 96.2695C223.472 96.2695 222.425 96.5391 221.463 97.0783C220.5 97.6174 219.736 98.4205 219.171 99.4854C218.606 100.551 218.324 101.854 218.324 103.395C218.324 105.68 218.908 107.445 220.076 108.69C221.245 109.936 222.715 110.559 224.486 110.559C225.616 110.559 226.675 110.289 227.664 109.75L227.664 109.75Z" fill="white"/>
<path d="M247.634 93.4578C248.917 92.7904 250.368 92.4565 251.986 92.4565C253.834 92.4565 255.522 92.9127 257.05 93.8239C258.578 94.7354 259.778 96.0133 260.652 97.6559C261.524 99.2996 261.961 101.187 261.961 103.318C261.961 105.449 261.524 107.356 260.652 109.037C259.778 110.719 258.578 112.028 257.05 112.965C255.522 113.903 253.834 114.371 251.986 114.371C250.368 114.371 248.93 114.044 247.672 113.389C246.414 112.734 245.386 111.92 244.591 110.943V124.115H240.2V92.8031H244.591V95.9229C245.335 94.9474 246.349 94.1259 247.634 93.4578ZM256.588 99.5239C255.984 98.4587 255.188 97.6499 254.2 97.0974C253.212 96.5455 252.152 96.2692 251.023 96.2692C249.919 96.2692 248.872 96.5522 247.884 97.1164C246.895 97.6814 246.099 98.5029 245.496 99.5812C244.892 100.66 244.591 101.93 244.591 103.394C244.591 104.858 244.892 106.135 245.496 107.226C246.099 108.318 246.895 109.146 247.884 109.711C248.872 110.276 249.919 110.558 251.023 110.558C252.152 110.558 253.212 110.269 254.2 109.691C255.188 109.114 255.985 108.273 256.588 107.169C257.191 106.065 257.493 104.781 257.493 103.317C257.493 101.853 257.191 100.589 256.588 99.5236V99.5239Z" fill="white"/>
</g>
<circle cx="24" cy="176" r="14" fill="white" stroke="white" stroke-width="2"/>
<path fill-rule="evenodd" clip-rule="evenodd" d="M24 163C16.8203 163 11 168.82 11 176C11 183.18 16.8203 189 24 189C31.1797 189 37 183.18 37 176C37 168.82 31.1797 163 24 163ZM21.7071 172.293C21.3166 171.902 20.6834 171.902 20.2929 172.293C19.9024 172.683 19.9024 173.317 20.2929 173.707L22.5858 176L20.2929 178.293C19.9024 178.683 19.9024 179.317 20.2929 179.707C20.6834 180.098 21.3166 180.098 21.7071 179.707L24 177.414L26.2929 179.707C26.6834 180.098 27.3166 180.098 27.7071 179.707C28.0976 179.317 28.0976 178.683 27.7071 178.293L25.4142 176L27.7071 173.707C28.0976 173.317 28.0976 172.683 27.7071 172.293C27.3166 171.902 26.6834 171.902 26.2929 172.293L24 174.586L21.7071 172.293Z" fill="#CA6460"/>
<defs>
<filter id="filter0_f_1_8325" x="35.6802" y="62" width="228.64" height="76" filterUnits="userSpaceOnUse" color-interpolation-filters="sRGB">
<feFlood flood-opacity="0" result="BackgroundImageFix"/>
<feBlend mode="normal" in="SourceGraphic" in2="BackgroundImageFix" result="shape"/>
<feGaussianBlur stdDeviation="1" result="effect1_foregroundBlur_1_8325"/>
</filter>
</defs>
</svg>
