<svg width="302" height="202" viewBox="0 0 302 202" fill="none" xmlns="http://www.w3.org/2000/svg">
<path d="M293 0.5C297.694 0.5 301.5 4.30558 301.5 9V193C301.5 197.694 297.694 201.5 293 201.5H9C4.30558 201.5 0.5 197.694 0.5 193V9C0.500002 4.30558 4.30558 0.5 9 0.5H293Z" fill="#1E2D45"/>
<path d="M293 0.5C297.694 0.5 301.5 4.30558 301.5 9V193C301.5 197.694 297.694 201.5 293 201.5H9C4.30558 201.5 0.5 197.694 0.5 193V9C0.500002 4.30558 4.30558 0.5 9 0.5H293Z" stroke="#ABB0C0"/>
<path d="M1 9C1 4.58173 4.58172 1 9 1H293C297.418 1 301 4.58172 301 9V193C301 197.418 297.418 201 293 201H8.99999C4.58171 201 1 197.418 1 193V9Z" fill="#1E2D45"/>
<path d="M76.8244 140.978C96.6863 139.937 111.943 122.979 110.901 103.102C109.86 83.2246 92.9139 67.9547 73.052 68.9956C53.1901 70.0365 37.9334 86.9941 38.9751 106.871C40.0168 126.749 56.9625 142.019 76.8244 140.978Z" fill="#F1D6C8"/>
<path d="M95.9551 94.8073C97.9594 92.8145 100.013 89.6586 98.8623 88.2152C97.7118 86.7718 91.9502 87.0771 89.9817 87.5831C87.2713 85.2734 84.4487 82.6167 77.4894 84.7389C76.0105 83.1932 72.7363 81.1548 71.6053 81.7338C69.3342 82.8207 68.6663 88.1852 68.6663 88.1852C62.2259 90.241 55.995 93.9331 54.4653 94.9251C51.6001 96.6669 48.7044 99.9308 50.0384 104.46C47.4401 107.108 47.39 118.467 55.7676 120.357C59.3794 125.028 62.2697 124.657 66.0024 124.395C67.3183 127.215 71.9175 130.578 77.8927 126.461C82.1236 127.147 87.2142 127.096 90.8992 122.935C96.1883 122.474 102.44 117.477 100.251 109.803C103.252 105.007 96.5273 95.7462 95.9551 94.8073Z" fill="black"/>
<path d="M99.0927 103.118C94.2475 92.0617 87.7747 86.3113 84.2842 85.44C80.4313 84.4703 76.6955 86.1771 68.0947 89.5967C58.9774 93.2219 52.7499 96.2303 51.2651 100.217C49.8303 104.07 53.0979 108.669 56.8244 109.275C56.7386 108.753 56.7917 107.998 56.8048 107.877C56.8731 107.235 57.7727 101.913 63.654 99.3142C60.1351 101.537 55.8569 107.009 58.5975 111.608C59.9907 113.204 62.2815 114.342 65.8861 113.21C65.952 108.323 69.4278 102.141 74.0047 97.8894C71.0158 101.788 67.3943 107.194 67.1043 112.182C67.0808 112.573 67.1626 114.339 68.1864 115.547C71.3735 118.229 77.1565 119.124 80.4286 115.067C83.7042 110.577 82.461 102.646 81.7425 98.5112C83.5702 103.975 84.1515 110.246 81.8984 114.539C84.0319 116.504 87.7781 116.658 91.0128 113.718C92.9818 108.389 92.5861 101.729 87.7026 95.8421C92.7055 101.178 93.4142 105.778 92.3474 113.042C96.6509 111.633 101.708 110.095 99.0934 103.118L99.0927 103.118Z" fill="#ABB0C0"/>
<path d="M55.5902 114.613C53.484 114.117 49.9646 111.53 49.874 107.88C49.4998 110.047 49.1958 117.445 56.3922 119.373C55.5749 117.886 55.4863 116.1 55.5902 114.613Z" fill="#ABB0C0"/>
<path d="M64.9351 119.111C62.4169 119.42 57.6415 117.432 56.949 114.493C56.3093 115.351 55.6111 118.549 57.6398 120.883C60.2684 123.711 62.6919 123.637 66.1959 123.235C65.3051 121.774 64.9603 120.365 64.9355 119.111L64.9351 119.111Z" fill="#ABB0C0"/>
<path d="M90.9249 118.463C90.9249 118.463 90.9248 118.462 90.9248 118.462C89.313 120.421 84.6771 121.839 80.4054 120.125C80.3979 121.293 79.227 124.102 77.8848 125.246C80.6419 125.738 86.0066 126.622 89.8257 122.422C90.6742 121.027 90.9418 119.649 90.9252 118.463L90.9249 118.463Z" fill="#ABB0C0"/>
<path d="M65.8256 119.125C65.7367 121.065 66.1044 122.448 66.5831 123.562C67.8054 125.801 71.8366 129.359 77.5287 125.436C78.9711 124.077 79.2327 122.046 79.1207 120.647C76.4487 122.904 68.3667 123.236 65.8256 119.125Z" fill="#ABB0C0"/>
<path d="M91.8508 118.098L91.8508 118.099C91.8706 118.906 91.6526 120.193 90.3012 121.88C95.2976 121.554 98.8713 117.932 99.3657 114.352C97.9933 116.772 94.6072 118.404 91.8511 118.098L91.8508 118.098Z" fill="#ABB0C0"/>
<path d="M49.9095 112.17C50.4047 114.987 52.0037 118.197 56.3921 119.374C56.0854 118.815 55.8812 118.215 55.7512 117.604C52.233 117.727 50.3702 113.88 49.9092 112.17L49.9095 112.17Z" fill="#858B97"/>
<path d="M56.3569 118.033C56.494 118.991 56.8709 119.999 57.6395 120.883C60.2681 123.711 62.6916 123.637 66.1955 123.235C65.9507 122.834 65.7488 122.436 65.5817 122.045C59.2256 123.241 57.1692 119.835 56.3573 118.034L56.3569 118.033Z" fill="#858B97"/>
<path d="M78.553 124.018C78.5779 123.962 78.6031 123.905 78.627 123.85C77.244 125.016 75.8078 125.999 72.6144 126.029C68.7344 125.924 66.785 124.068 66.1099 122.183C66.139 122.296 66.1702 122.406 66.2024 122.515C66.2102 122.541 66.2179 122.567 66.226 122.593C66.2915 122.807 66.3629 123.011 66.4383 123.207C66.4476 123.231 66.4569 123.255 66.4662 123.279C66.5041 123.375 66.5426 123.47 66.5824 123.562C67.8047 125.801 71.8359 129.359 77.528 125.436C77.9749 125.015 78.308 124.529 78.5523 124.017L78.553 124.018Z" fill="#858B97"/>
<path d="M89.8251 122.422C90.1374 121.909 90.3706 121.398 90.5403 120.898C86.3538 125.425 80.4353 124.459 79.1132 123.702C78.7453 124.318 78.3244 124.872 77.8845 125.247C80.6416 125.738 86.0063 126.623 89.8254 122.422L89.8251 122.422Z" fill="#858B97"/>
<path d="M91.1904 120.556C90.97 120.965 90.6798 121.406 90.3004 121.88C94.381 121.613 97.5115 119.149 98.7918 116.304C97.4004 119.301 92.5462 120.624 91.1904 120.556L91.1904 120.556Z" fill="#858B97"/>
<path d="M50.6038 105.738C50.1179 106.451 49.9957 107.262 49.9957 107.262C49.9788 109.482 53.3616 114.52 57.3116 113.796C57.6333 116.695 63.2693 119.612 65.7101 118.045C67.6649 122.085 76.6152 122.685 79.9385 119.111C82.1576 120.948 89.6659 120.322 91.0588 117.13C93.5185 118.296 98.6296 115.788 99.4915 112.986C99.6495 111.942 99.2938 110.93 99.2938 110.93C98.2811 112.319 94.802 115.179 91.9544 114.421C89.9559 116.458 85.2608 118.615 81.4208 115.691C77.4693 121.296 67.3543 118.93 66.2168 114.316C63.469 115.211 58.2179 115.234 56.7942 110.445C55.9104 110.128 52.8862 109.781 50.6038 105.738Z" fill="#1E2D45"/>
<path d="M69.9519 87.6352C71.4256 86.9879 74.4933 85.8472 76.3083 85.2166C75.1819 84.1681 72.7465 82.6003 72.0914 82.7807C71.1524 83.0941 70.2018 86.0603 69.9519 87.6352Z" fill="white"/>
<path d="M90.9527 88.5401C93.1591 90.7184 94.9513 93.3388 95.3148 93.8227C96.6989 92.5241 98.5409 89.3167 97.8999 88.8944C96.6563 88.075 92.4225 88.2549 90.9527 88.5401Z" fill="white"/>
<path d="M67.4569 89.851C67.3452 89.8958 67.2338 89.9406 67.1231 89.985C67.0679 90.007 67.013 90.0294 66.9582 90.0514C66.8475 90.0961 66.7371 90.1405 66.627 90.1852C66.5771 90.2053 66.5272 90.2257 66.4776 90.2458C66.3225 90.3086 66.1678 90.3714 66.0148 90.4342C66.0095 90.4365 66.0043 90.4384 65.999 90.4407C65.8489 90.502 65.6998 90.5632 65.5517 90.6243C65.5031 90.6443 65.4552 90.6643 65.4066 90.6843C65.3006 90.7281 65.1945 90.7719 65.0895 90.8157C65.0376 90.8372 64.986 90.8587 64.9342 90.8803C64.8278 90.9248 64.7218 90.9689 64.6164 91.0131C64.5711 91.0322 64.5255 91.0511 64.4805 91.0702C64.1841 91.1949 63.8914 91.3193 63.603 91.4432C63.5587 91.4623 63.5151 91.481 63.4712 91.5001C63.3701 91.5437 63.2694 91.5872 63.1694 91.6308C63.1205 91.6518 63.072 91.6731 63.0234 91.6941C62.9231 91.738 62.8234 91.7815 62.724 91.8253C62.6817 91.844 62.6394 91.8623 62.5971 91.881C62.4575 91.9427 62.3185 92.0044 62.1808 92.0656L62.1801 92.0657C62.0434 92.1269 61.9077 92.188 61.7731 92.2488C61.7331 92.267 61.6934 92.2849 61.6538 92.3031C61.5575 92.3471 61.4615 92.3907 61.3662 92.4346C61.3219 92.4551 61.2777 92.4752 61.2335 92.4956C61.1388 92.5392 61.0452 92.5827 60.9519 92.6266C60.9129 92.6447 60.8736 92.6629 60.8346 92.6814C60.574 92.8035 60.3181 92.9253 60.0665 93.0473C60.0305 93.0646 59.9945 93.0823 59.9589 93.0996C59.8682 93.1436 59.7783 93.1876 59.689 93.2316C59.6488 93.2515 59.6086 93.2714 59.5684 93.2913C59.4794 93.3355 59.3908 93.3795 59.3032 93.4237C59.2686 93.4409 59.2339 93.4582 59.1996 93.4758C58.9584 93.5975 58.7216 93.7194 58.4898 93.8413C58.4565 93.8588 58.4236 93.8763 58.3903 93.8939C58.307 93.9378 58.2245 93.9818 58.1423 94.026C58.1054 94.0458 58.0685 94.0655 58.032 94.0855C57.9504 94.1298 57.8692 94.174 57.789 94.2181C57.7574 94.2356 57.7254 94.253 57.6938 94.2704C57.4731 94.3925 57.2571 94.5149 57.0458 94.6374C57.0159 94.6548 56.9863 94.6725 56.9563 94.6898C56.8805 94.7341 56.805 94.7786 56.7305 94.8228C56.6973 94.8427 56.6641 94.8626 56.6309 94.8824C56.5565 94.9273 56.4827 94.9718 56.4095 95.0166C56.3812 95.0338 56.353 95.0511 56.325 95.0683C56.1255 95.1913 55.931 95.3149 55.7416 95.4387C55.7144 95.4565 55.6875 95.4744 55.6602 95.4923C55.5925 95.5371 55.525 95.5816 55.4586 95.6267C55.4291 95.6467 55.3996 95.6667 55.3702 95.6868C55.3034 95.7322 55.2374 95.778 55.1717 95.8234C55.1471 95.8405 55.1218 95.8579 55.0976 95.8749C55.0083 95.9377 54.9203 96.0004 54.8337 96.0634C58.4354 94.1278 70.7829 88.8327 77.3327 93.2093C83.8825 97.586 91.8502 91.6495 87.2562 86.9222C86.1358 86.142 85.1231 85.6495 84.2835 85.4401C80.4306 84.4703 76.6948 86.1772 68.094 89.5967C67.9323 89.6609 67.772 89.725 67.6123 89.7888C67.5604 89.8097 67.5088 89.8302 67.4569 89.851Z" fill="white"/>
<path d="M69.829 102.74C66.3814 107.583 65.6057 111.116 63.3634 111.645C61.575 112.067 59.4232 112.402 57.8745 109.812C58.0117 110.419 58.2468 111.021 58.5966 111.608C59.9899 113.204 62.2807 114.342 65.8852 113.21C65.9288 109.976 67.4668 106.174 69.829 102.74Z" fill="#858B97"/>
<path d="M67.3446 113.917C67.5056 114.466 67.7665 115.054 68.1856 115.548C71.3727 118.23 77.1557 119.125 80.4279 115.068C82.2647 112.55 82.6802 108.95 82.5644 105.544C80.8891 117.712 69.366 118.902 67.3446 113.917Z" fill="#858B97"/>
<path d="M91.234 113.078C91.2693 112.97 91.3042 112.862 91.3375 112.754C91.3575 112.688 91.3765 112.622 91.3958 112.555C91.4246 112.458 91.453 112.36 91.4801 112.262C91.4998 112.19 91.5185 112.118 91.5375 112.046C91.5621 111.952 91.5864 111.858 91.6096 111.764C91.6281 111.688 91.646 111.612 91.6635 111.537C91.6848 111.445 91.7052 111.353 91.7248 111.261C91.7419 111.182 91.7582 111.104 91.7742 111.024C91.7923 110.934 91.8093 110.844 91.826 110.753C91.8409 110.672 91.8561 110.59 91.8699 110.509C91.8851 110.42 91.8988 110.33 91.9126 110.241C91.9257 110.157 91.939 110.074 91.9507 109.99C91.963 109.903 91.9732 109.816 91.984 109.729C91.9949 109.641 92.0067 109.554 92.0162 109.466C92.0244 109.391 92.0305 109.316 92.0376 109.241C92.0574 109.035 92.0737 108.828 92.0863 108.62C92.0896 108.562 92.0943 108.505 92.0973 108.447C92.1027 108.338 92.106 108.228 92.1093 108.119C92.1115 108.052 92.1141 107.987 92.1157 107.92C92.118 107.81 92.1179 107.7 92.1182 107.591C92.1184 107.524 92.1186 107.458 92.1182 107.392C92.117 107.28 92.1142 107.168 92.111 107.056C92.109 106.992 92.1073 106.927 92.1045 106.863C92.0999 106.748 92.0939 106.633 92.0868 106.518C92.083 106.457 92.0791 106.396 92.0746 106.335C92.066 106.216 92.0567 106.097 92.0454 105.978C92.0402 105.923 92.0346 105.868 92.0287 105.812C92.0157 105.687 92.0024 105.561 91.9864 105.435C91.9811 105.391 91.9748 105.347 91.9688 105.303C91.9505 105.166 91.9316 105.028 91.9099 104.89C91.9074 104.874 91.9046 104.858 91.9021 104.843C91.7944 104.17 91.6459 103.495 91.4532 102.82C91.4516 102.814 91.4503 102.808 91.4486 102.803C91.4043 102.649 91.357 102.494 91.3083 102.34C91.3003 102.315 91.2925 102.289 91.2842 102.263C91.2369 102.116 91.1869 101.97 91.1356 101.823C91.1246 101.791 91.1135 101.759 91.1021 101.727C91.0502 101.582 90.9963 101.437 90.9405 101.293C90.928 101.261 90.9153 101.229 90.9028 101.196C90.8452 101.05 90.7855 100.903 90.7235 100.757C90.712 100.73 90.7006 100.704 90.6891 100.677C90.6234 100.524 90.556 100.371 90.4856 100.219C90.4799 100.206 90.4736 100.194 90.4679 100.181C90.0713 99.3283 89.5982 98.4805 89.0424 97.6438C91.8565 103.865 91.7358 111.567 87.7219 113.971C86.2599 114.847 84.1776 115.446 82.0442 114.251C82.0435 114.251 82.0429 114.251 82.0422 114.251C81.9953 114.348 81.9483 114.445 81.8986 114.54C84.0321 116.504 87.7783 116.659 91.013 113.719C91.0714 113.56 91.1278 113.4 91.1821 113.239C91.2001 113.186 91.217 113.131 91.2347 113.077L91.234 113.078Z" fill="#858B97"/>
<path d="M99.0925 103.119C96.7949 97.8754 94.1312 93.8262 91.5929 90.9236C96.1333 98.5449 98.7503 103.976 97.2724 108.016C96.6958 109.393 95.9093 111.228 92.8535 112.199C92.8005 112.218 92.5503 112.212 92.5049 112.236C92.4728 112.481 92.3834 112.791 92.3466 113.042C94.2185 114.081 102.29 110.388 99.0925 103.118L99.0925 103.119Z" fill="#858B97"/>
<path d="M97.4512 90.8716C94.9446 92.3882 92.1136 89.326 90.9526 88.5405C93.1591 90.7189 94.9512 93.3392 95.3147 93.8231C96.0431 93.1397 96.8977 91.9279 97.4512 90.8716Z" fill="#858B97"/>
<path d="M59.4719 102.324C56.0498 106.169 53.6408 106.956 51.9007 105.624C52.9838 107.496 54.8387 108.953 56.8238 109.276C56.7381 108.753 56.7911 107.999 56.8042 107.878C56.8512 107.436 57.2908 104.783 59.4719 102.324Z" fill="#858B97"/>
<path d="M131.526 116.351C129.731 116.445 128.099 116.222 126.63 115.681C125.16 115.115 123.984 114.276 123.103 113.163C122.587 112.512 122.209 111.788 121.967 110.991C121.673 110.02 122.479 109.142 123.492 109.089L125.096 109.005C125.808 108.967 126.405 109.495 126.685 110.151C126.943 110.759 127.332 111.281 127.85 111.717C128.71 112.419 129.87 112.731 131.333 112.654C132.846 112.575 134.007 112.154 134.816 111.391C135.623 110.602 135.997 109.63 135.936 108.475C135.889 107.576 135.581 106.859 135.013 106.323C134.471 105.785 133.793 105.383 132.982 105.116C132.197 104.849 131.102 104.571 129.698 104.285C127.929 103.914 126.482 103.527 125.355 103.122C124.252 102.691 123.289 101.995 122.467 101.034C121.645 100.074 121.191 98.759 121.103 97.0904C121.022 95.5503 121.337 94.1822 122.045 92.9868C122.754 91.7915 123.785 90.8495 125.138 90.1605C126.491 89.4719 128.078 89.0798 129.899 88.9844C132.49 88.8486 134.64 89.3923 136.35 90.6153C137.552 91.4437 138.409 92.5251 138.92 93.859C139.305 94.8591 138.485 95.8317 137.416 95.8877L135.821 95.9713C135.105 96.0088 134.507 95.463 134.156 94.8365C133.898 94.3773 133.525 93.9675 133.035 93.6078C132.152 92.9591 131.018 92.671 129.633 92.7436C128.376 92.8095 127.367 93.184 126.605 93.8675C125.844 94.551 125.495 95.4959 125.558 96.7025C125.601 97.5241 125.88 98.1913 126.396 98.7048C126.936 99.1912 127.598 99.5684 128.384 99.8361C129.17 100.104 130.239 100.382 131.591 100.672C133.387 101.067 134.849 101.479 135.977 101.909C137.132 102.338 138.12 103.045 138.944 104.031C139.791 104.991 140.259 106.318 140.348 108.012C140.42 109.373 140.115 110.675 139.434 111.921C138.779 113.165 137.766 114.196 136.394 115.015C135.047 115.806 133.424 116.251 131.526 116.351L131.526 116.351Z" fill="white"/>
<path d="M145.266 98.9319C146.064 97.2299 147.222 95.8892 148.739 94.9082C150.257 93.928 152.029 93.3845 154.055 93.2784C156.62 93.1439 158.775 93.6427 160.519 94.7736C161.642 95.5017 162.549 96.4573 163.243 97.6396C163.851 98.677 163.024 99.8742 161.824 99.9371L160.746 99.9936C159.977 100.034 159.292 99.5669 158.837 98.9452C158.467 98.4398 158.017 98.0226 157.489 97.6934C156.612 97.1475 155.532 96.908 154.249 96.9752C152.453 97.0694 151.057 97.7797 150.059 99.1061C149.061 100.432 148.622 102.238 148.742 104.522C148.862 106.806 149.487 108.563 150.619 109.791C151.751 111.019 153.214 111.586 155.009 111.492C157.068 111.384 158.524 110.571 159.376 109.054C159.753 108.384 160.385 107.851 161.153 107.81L162.178 107.757C163.395 107.693 164.342 108.827 163.802 109.921C163.225 111.093 162.429 112.103 161.414 112.951C159.788 114.311 157.717 115.056 155.204 115.188C153.177 115.294 151.358 114.933 149.745 114.103C148.133 113.275 146.841 112.055 145.869 110.445C144.898 108.836 144.355 106.941 144.241 104.758C144.126 102.576 144.468 100.634 145.266 98.9319Z" fill="white"/>
<path d="M167.667 103.453C167.555 101.322 167.892 99.4128 168.678 97.7243C169.49 96.0343 170.629 94.7006 172.095 93.7227C173.586 92.718 175.255 92.1672 177.101 92.0705C178.769 91.9831 180.236 92.2409 181.502 92.8436C182.394 93.242 183.169 93.7268 183.824 94.2978C184.104 94.5413 184.589 94.3373 184.57 93.967C184.514 92.8983 185.334 91.9865 186.402 91.9305L186.926 91.903C188.013 91.8461 188.939 92.6812 188.996 93.7679L189.902 111.048C189.958 112.135 189.124 113.062 188.038 113.119L187.547 113.145C186.461 113.202 185.534 112.367 185.477 111.28C185.457 110.901 184.937 110.746 184.68 111.026C184.086 111.673 183.362 112.249 182.506 112.753C181.258 113.487 179.814 113.897 178.172 113.984C176.351 114.079 174.66 113.704 173.098 112.86C171.535 111.989 170.261 110.743 169.275 109.122C168.315 107.473 167.778 105.584 167.667 103.453L167.667 103.453ZM185.023 102.621C184.947 101.157 184.572 99.9027 183.9 98.8569C183.254 97.8098 182.428 97.0292 181.424 96.5154C180.42 96.0017 179.354 95.7746 178.225 95.8337C177.096 95.8929 176.059 96.2302 175.114 96.8461C174.168 97.4363 173.415 98.2865 172.856 99.3971C172.321 100.481 172.092 101.754 172.169 103.217C172.245 104.68 172.608 105.948 173.255 107.021C173.929 108.093 174.768 108.898 175.774 109.438C176.804 109.95 177.871 110.177 178.974 110.119C180.102 110.06 181.139 109.723 182.084 109.107C183.029 108.491 183.769 107.629 184.302 106.52C184.86 105.383 185.1 104.084 185.023 102.621Z" fill="white"/>
<path d="M196.822 84.0872C195.611 84.1507 194.681 85.1784 194.744 86.3824L196.008 110.515C196.072 111.719 197.105 112.644 198.315 112.58C199.526 112.517 200.458 111.489 200.395 110.285L199.13 86.1525C199.067 84.9482 198.034 84.0237 196.822 84.0872Z" fill="white"/>
<path d="M207.325 83.5365C206.114 83.5999 205.183 84.6276 205.247 85.8316L206.511 109.964C206.574 111.169 207.607 112.093 208.818 112.03C210.029 111.966 210.961 110.938 210.898 109.734L209.633 85.6017C209.57 84.3974 208.537 83.473 207.325 83.5365Z" fill="white"/>
<path d="M220.846 110.377C219.183 109.551 217.846 108.333 216.835 106.726C215.825 105.118 215.263 103.224 215.149 101.042C215.036 98.8856 215.41 96.9487 216.272 95.23C217.133 93.5119 218.361 92.1607 219.956 91.1758C221.55 90.1915 223.36 89.6461 225.387 89.5398C227.414 89.4336 229.271 89.7868 230.96 90.5991C232.648 91.412 234.011 92.6274 235.048 94.2459C236.084 95.8652 236.659 97.7524 236.772 99.9085C236.885 102.065 236.498 104.003 235.611 105.722C234.723 107.443 233.463 108.802 231.831 109.801C230.199 110.8 228.369 111.353 226.344 111.459C224.343 111.564 222.51 111.203 220.847 110.376L220.846 110.377ZM229.275 106.673C230.234 106.082 230.994 105.231 231.553 104.121C232.112 103.01 232.351 101.685 232.27 100.145C232.19 98.6043 231.826 97.3174 231.181 96.283C230.534 95.2493 229.71 94.4874 228.707 93.9994C227.704 93.5115 226.639 93.2971 225.51 93.3562C224.382 93.4154 223.35 93.7397 222.417 94.3291C221.483 94.9186 220.762 95.7614 220.254 96.8556C219.745 97.9506 219.532 99.268 219.612 100.808C219.732 103.093 220.408 104.827 221.64 106.011C222.873 107.195 224.374 107.741 226.144 107.648C227.272 107.589 228.316 107.263 229.276 106.673L229.275 106.673Z" fill="white"/>
<path d="M245.43 91.3963C245.44 91.5794 245.683 91.6502 245.797 91.507C246.455 90.6838 247.313 89.9611 248.37 89.339C249.618 88.6045 251.05 88.1947 252.665 88.1101C254.512 88.0133 256.216 88.3873 257.778 89.232C259.364 90.0499 260.636 91.2573 261.595 92.8545C262.553 94.4516 263.088 96.3154 263.199 98.4461C263.311 100.577 262.975 102.512 262.192 104.252C261.407 105.966 260.271 107.338 258.781 108.369C257.316 109.372 255.66 109.922 253.814 110.019C252.198 110.104 250.744 109.858 249.454 109.282C248.425 108.803 247.537 108.219 246.791 107.528C246.601 107.353 246.274 107.493 246.288 107.752L246.822 117.954C246.886 119.166 245.955 120.2 244.744 120.263C243.533 120.327 242.5 119.395 242.436 118.183L241.026 91.2685C240.962 90.0565 241.893 89.0224 243.104 88.959C244.315 88.8955 245.348 89.8267 245.412 91.0387L245.43 91.3963ZM258.736 98.6803C258.66 97.2172 258.286 95.9755 257.615 94.9552C256.969 93.908 256.131 93.1411 255.103 92.6545C254.098 92.1408 253.032 91.9137 251.903 91.9728C250.8 92.0306 249.764 92.368 248.793 92.9852C247.847 93.6011 247.096 94.4641 246.537 95.5744C246.003 96.6834 245.775 97.9694 245.852 99.4328C245.928 100.896 246.291 102.164 246.938 103.237C247.61 104.283 248.448 105.063 249.453 105.576C250.482 106.088 251.549 106.316 252.652 106.258C253.781 106.199 254.817 105.861 255.763 105.245C256.732 104.603 257.483 103.714 258.015 102.579C258.573 101.443 258.813 100.144 258.736 98.6803Z" fill="white"/>
<circle cx="25" cy="177" r="14" fill="white" stroke="white" stroke-width="2"/>
<path fill-rule="evenodd" clip-rule="evenodd" d="M25 164C17.8203 164 12 169.82 12 177C12 184.18 17.8203 190 25 190C32.1797 190 38 184.18 38 177C38 169.82 32.1797 164 25 164ZM22.7071 173.293C22.3166 172.902 21.6834 172.902 21.2929 173.293C20.9024 173.683 20.9024 174.317 21.2929 174.707L23.5858 177L21.2929 179.293C20.9024 179.683 20.9024 180.317 21.2929 180.707C21.6834 181.098 22.3166 181.098 22.7071 180.707L25 178.414L27.2929 180.707C27.6834 181.098 28.3166 181.098 28.7071 180.707C29.0976 180.317 29.0976 179.683 28.7071 179.293L26.4142 177L28.7071 174.707C29.0976 174.317 29.0976 173.683 28.7071 173.293C28.3166 172.902 27.6834 172.902 27.2929 173.293L25 175.586L22.7071 173.293Z" fill="#CA6460"/>
</svg>
