<svg width="544" height="301" viewBox="0 0 544 301" fill="none" xmlns="http://www.w3.org/2000/svg">
<rect width="543.208" height="300.194" transform="translate(0.208252 0.193848)" fill="white"/>
<path d="M140.496 212.43C174.783 212.43 202.578 184.609 202.578 150.291C202.578 115.973 174.783 88.1523 140.496 88.1523C106.21 88.1523 78.4152 115.973 78.4152 150.291C78.4152 184.609 106.21 212.43 140.496 212.43Z" fill="black"/>
<path d="M177.596 134.661C181.226 131.411 185.045 126.162 183.195 123.573C181.345 120.984 171.398 120.99 167.964 121.683C163.506 117.462 158.887 112.633 146.715 115.659C144.308 112.864 138.856 109.059 136.856 109.954C132.849 111.62 131.215 120.797 131.215 120.797C119.942 123.755 108.882 129.55 106.159 131.12C101.07 133.86 95.7904 139.219 97.6783 147.138C92.9664 151.461 91.8553 171.016 106.107 175.026C111.903 183.393 116.912 183.016 123.362 182.901C125.373 187.876 132.987 194.081 143.645 187.531C150.867 189.094 159.635 189.466 166.354 182.635C175.501 182.317 186.714 174.278 183.638 160.868C189.236 152.881 178.496 136.329 177.596 134.661Z" fill="white"/>
<path d="M182.246 149.254C174.903 129.78 164.278 119.295 158.348 117.48C151.803 115.462 145.217 118.064 130.103 123.175C114.08 128.595 103.088 133.212 100.172 139.943C97.3543 146.447 102.564 154.66 108.925 156.04C108.825 155.133 108.984 153.838 109.017 153.632C109.193 152.532 111.222 143.45 121.581 139.506C115.323 143.016 107.464 152.051 111.767 160.217C114.021 163.09 117.862 165.256 124.17 163.633C124.724 155.225 131.266 144.894 139.529 137.987C134.031 144.429 127.309 153.41 126.36 161.974C126.284 162.644 126.266 165.692 127.919 167.864C133.164 172.769 143.039 174.832 149.038 168.143C155.082 160.707 153.657 146.94 152.793 139.756C155.447 149.328 155.882 160.178 151.616 167.366C155.111 170.941 161.546 171.545 167.38 166.775C171.251 157.778 171.17 146.274 163.294 135.698C171.426 145.337 172.231 153.32 169.739 165.732C177.274 163.693 186.119 161.501 182.247 149.253L182.246 149.254Z" fill="black"/>
<path d="M106.32 165.12C102.739 164.075 96.9137 159.304 97.0869 153.012C96.2472 156.708 95.0564 169.418 107.271 173.389C105.998 170.754 106.007 167.671 106.32 165.12Z" fill="black"/>
<path d="M122.001 173.708C117.638 174.013 109.597 170.159 108.67 165.036C107.491 166.455 106.001 171.899 109.283 176.1C113.553 181.206 117.731 181.298 123.8 180.922C122.398 178.326 121.932 175.87 122.002 173.708L122.001 173.708Z" fill="black"/>
<path d="M166.802 174.937C166.802 174.937 166.802 174.935 166.802 174.934C163.85 178.162 155.741 180.185 148.542 176.849C148.424 178.86 146.155 183.59 143.741 185.439C148.443 186.534 157.599 188.541 164.552 181.653C166.139 179.329 166.724 176.981 166.802 174.936L166.802 174.937Z" fill="black"/>
<path d="M123.533 173.813C123.205 177.145 123.713 179.559 124.437 181.521C126.339 185.486 132.958 191.975 143.111 185.735C145.716 183.524 146.35 180.052 146.284 177.632C141.48 181.277 127.537 181.12 123.533 173.813Z" fill="black"/>
<path d="M168.428 174.392V174.393C168.389 175.785 167.898 177.981 165.419 180.764C174.05 180.653 180.529 174.74 181.703 168.621C179.122 172.663 173.145 175.168 168.428 174.392Z" fill="black"/>
<path d="M96.7606 160.4C97.3589 165.296 99.8219 170.967 107.271 173.389C106.793 172.4 106.496 171.348 106.327 170.284C100.259 170.178 97.3993 163.387 96.76 160.401L96.7606 160.4Z" fill="black"/>
<path d="M107.332 171.077C107.481 172.739 108.039 174.509 109.283 176.1C113.553 181.206 117.731 181.298 123.8 180.922C123.415 180.208 123.103 179.506 122.85 178.818C111.8 180.302 108.568 174.253 107.332 171.078L107.332 171.077Z" fill="black"/>
<path d="M145.002 183.385C145.05 183.29 145.098 183.196 145.145 183.102C142.659 184.985 140.097 186.548 134.597 186.311C127.927 185.781 124.739 182.408 123.747 179.102C123.786 179.3 123.83 179.493 123.876 179.682C123.887 179.728 123.898 179.774 123.909 179.819C124.003 180.193 124.108 180.551 124.22 180.895C124.233 180.937 124.247 180.98 124.261 181.022C124.318 181.19 124.375 181.358 124.436 181.52C126.338 185.485 132.957 191.974 143.11 185.734C143.917 185.049 144.534 184.243 145.001 183.384L145.002 183.385Z" fill="black"/>
<path d="M164.552 181.654C165.135 180.799 165.583 179.94 165.92 179.095C158.305 186.511 148.203 184.314 145.995 182.891C145.306 183.918 144.532 184.834 143.741 185.44C148.443 186.535 157.598 188.542 164.552 181.654H164.552Z" fill="black"/>
<path d="M167.071 178.564C166.654 179.248 166.115 179.982 165.419 180.763C172.468 180.673 178.08 176.711 180.54 171.929C177.875 176.964 169.399 178.804 167.071 178.563V178.564Z" fill="black"/>
<path d="M98.5364 149.389C97.6355 150.573 97.352 151.958 97.352 151.958C97.1227 155.778 102.492 164.758 109.357 163.867C109.649 168.889 119.089 174.419 123.432 171.941C126.433 179.073 141.787 180.915 147.83 175.062C151.485 178.423 164.467 178.023 167.153 172.653C171.282 174.883 180.307 171.026 182.044 166.28C182.41 164.496 181.889 162.721 181.889 162.721C180.02 165.022 173.773 169.632 168.939 168.07C165.315 171.397 157.037 174.688 150.69 169.307C143.382 178.601 126.183 173.613 124.641 165.567C119.829 166.86 110.788 166.426 108.769 158.052C107.276 157.426 102.101 156.556 98.5364 149.389Z" fill="black"/>
<path d="M133.477 119.966C136.073 118.984 141.457 117.297 144.638 116.375C142.794 114.468 138.743 111.549 137.599 111.8C135.954 112.255 134.05 117.277 133.477 119.966Z" fill="black"/>
<path d="M169.548 123.42C173.15 127.369 175.999 132.043 176.581 132.909C179.081 130.798 182.541 125.441 181.476 124.657C179.409 123.133 172.104 123.061 169.548 123.42Z" fill="black"/>
<path d="M128.982 123.556C128.786 123.623 128.59 123.69 128.395 123.757C128.298 123.79 128.202 123.823 128.106 123.856C127.911 123.923 127.717 123.99 127.523 124.057C127.436 124.087 127.348 124.118 127.261 124.148C126.988 124.242 126.716 124.336 126.447 124.43C126.438 124.434 126.429 124.437 126.419 124.44C126.155 124.532 125.893 124.624 125.633 124.716C125.547 124.746 125.463 124.776 125.377 124.806C125.191 124.872 125.004 124.938 124.82 125.004C124.728 125.036 124.638 125.068 124.546 125.101C124.359 125.168 124.173 125.234 123.987 125.301C123.908 125.33 123.827 125.358 123.748 125.387C123.227 125.575 122.712 125.763 122.204 125.95C122.126 125.979 122.049 126.007 121.972 126.036C121.794 126.102 121.617 126.168 121.441 126.234C121.355 126.266 121.269 126.298 121.184 126.33C121.007 126.396 120.831 126.462 120.656 126.529C120.582 126.557 120.507 126.585 120.433 126.613C120.187 126.707 119.942 126.8 119.7 126.893H119.698C119.458 126.986 119.218 127.079 118.981 127.172C118.911 127.2 118.841 127.227 118.771 127.255C118.601 127.322 118.432 127.388 118.264 127.455C118.186 127.486 118.108 127.517 118.03 127.548C117.863 127.615 117.698 127.681 117.533 127.748C117.465 127.776 117.395 127.804 117.327 127.832C116.867 128.019 116.415 128.205 115.971 128.393C115.908 128.419 115.844 128.446 115.781 128.473C115.621 128.541 115.462 128.608 115.305 128.676C115.234 128.707 115.163 128.737 115.092 128.768C114.935 128.836 114.778 128.904 114.623 128.972C114.562 128.998 114.501 129.025 114.44 129.052C114.014 129.24 113.595 129.429 113.185 129.618C113.126 129.645 113.068 129.672 113.009 129.699C112.862 129.767 112.716 129.835 112.57 129.904C112.505 129.935 112.44 129.966 112.375 129.997C112.231 130.066 112.087 130.134 111.945 130.203C111.889 130.23 111.832 130.257 111.776 130.285C111.385 130.475 111.002 130.666 110.628 130.858C110.574 130.885 110.522 130.913 110.469 130.94C110.334 131.009 110.2 131.079 110.068 131.149C110.009 131.18 109.95 131.211 109.891 131.242C109.759 131.313 109.628 131.383 109.498 131.453C109.448 131.481 109.397 131.508 109.348 131.535C108.993 131.729 108.647 131.924 108.31 132.12C108.262 132.148 108.214 132.177 108.165 132.205C108.044 132.276 107.924 132.346 107.806 132.418C107.753 132.45 107.701 132.482 107.648 132.514C107.529 132.586 107.411 132.659 107.294 132.731C107.25 132.758 107.205 132.786 107.162 132.813C107.003 132.913 106.846 133.013 106.691 133.114C113.066 130.106 134.8 122.103 145.681 130.23C156.561 138.356 170.813 128.854 163.331 120.3C161.473 118.856 159.774 117.916 158.348 117.48C151.802 115.463 145.217 118.064 130.102 123.176C129.818 123.272 129.536 123.368 129.255 123.463C129.164 123.494 129.073 123.525 128.982 123.556Z" fill="black"/>
<path d="M131.903 145.961C125.531 153.99 123.877 160.003 119.969 160.711C116.852 161.275 113.117 161.659 110.685 157.06C110.866 158.118 111.217 159.175 111.766 160.218C114.02 163.091 117.861 165.257 124.169 163.633C124.536 158.068 127.527 151.661 131.903 145.961H131.903Z" fill="black"/>
<path d="M126.617 164.982C126.845 165.941 127.241 166.977 127.918 167.866C133.163 172.77 143.037 174.833 149.036 168.144C152.426 163.974 153.466 157.814 153.574 151.939C149.592 172.738 129.648 173.746 126.617 164.982Z" fill="black"/>
<path d="M167.819 165.692C167.889 165.51 167.959 165.328 168.026 165.144C168.066 165.032 168.105 164.92 168.144 164.808C168.203 164.643 168.26 164.477 168.316 164.31C168.356 164.188 168.395 164.066 168.434 163.943C168.485 163.784 168.535 163.624 168.584 163.464C168.622 163.336 168.66 163.207 168.697 163.078C168.742 162.922 168.785 162.765 168.827 162.609C168.864 162.475 168.899 162.341 168.934 162.206C168.973 162.053 169.01 161.898 169.047 161.744C169.08 161.605 169.114 161.466 169.145 161.327C169.179 161.176 169.211 161.023 169.243 160.871C169.273 160.727 169.303 160.584 169.331 160.44C169.36 160.292 169.385 160.143 169.412 159.995C169.438 159.845 169.467 159.695 169.491 159.545C169.512 159.417 169.529 159.287 169.548 159.159C169.601 158.806 169.647 158.451 169.688 158.095C169.699 157.995 169.712 157.897 169.723 157.798C169.742 157.61 169.757 157.422 169.773 157.234C169.783 157.12 169.793 157.006 169.802 156.892C169.816 156.703 169.825 156.514 169.836 156.325C169.842 156.211 169.848 156.097 169.854 155.983C169.862 155.79 169.867 155.598 169.872 155.405C169.874 155.294 169.877 155.182 169.878 155.071C169.88 154.873 169.88 154.675 169.878 154.476C169.877 154.371 169.876 154.265 169.874 154.16C169.87 153.954 169.865 153.748 169.856 153.542C169.852 153.446 169.847 153.351 169.842 153.255C169.831 153.038 169.82 152.82 169.803 152.601C169.798 152.525 169.791 152.449 169.785 152.373C169.766 152.135 169.746 151.896 169.721 151.656C169.718 151.629 169.714 151.601 169.712 151.574C169.587 150.407 169.392 149.231 169.121 148.051C169.119 148.041 169.117 148.031 169.115 148.021C169.053 147.751 168.985 147.481 168.915 147.212C168.904 147.167 168.893 147.122 168.881 147.077C168.812 146.82 168.74 146.563 168.665 146.306C168.648 146.25 168.632 146.194 168.615 146.138C168.539 145.884 168.46 145.629 168.376 145.376C168.358 145.319 168.339 145.262 168.32 145.206C168.234 144.948 168.145 144.691 168.051 144.433C168.034 144.386 168.017 144.339 167.999 144.292C167.9 144.024 167.798 143.754 167.69 143.486C167.682 143.463 167.672 143.441 167.663 143.418C167.057 141.914 166.319 140.412 165.438 138.921C169.721 149.886 168.819 163.136 161.692 166.914C159.096 168.29 155.457 169.134 151.892 166.884C151.891 166.884 151.89 166.884 151.889 166.883C151.799 167.046 151.71 167.209 151.616 167.368C155.111 170.943 161.546 171.547 167.38 166.776C167.495 166.509 167.607 166.239 167.715 165.966C167.75 165.876 167.784 165.784 167.82 165.692H167.819Z" fill="black"/>
<path d="M182.246 149.254C178.764 140.019 174.544 132.807 170.436 127.58C177.564 141.112 181.58 150.699 178.671 157.522C177.554 159.841 176.035 162.93 170.686 164.325C170.593 164.353 170.163 164.321 170.083 164.358C170.006 164.777 169.824 165.302 169.738 165.732C172.866 167.688 187.094 162.059 182.246 149.253V149.254Z" fill="black"/>
<path d="M180.525 128.019C176.073 130.404 171.476 124.877 169.548 123.419C173.15 127.369 175.999 132.043 176.581 132.908C177.896 131.797 179.477 129.788 180.525 128.019Z" fill="black"/>
<path d="M114.11 144.31C107.872 150.622 103.654 151.759 100.779 149.308C102.474 152.631 105.536 155.305 108.925 156.041C108.824 155.134 108.983 153.839 109.017 153.632C109.138 152.877 110.134 148.348 114.11 144.31Z" fill="black"/>
<path d="M236.903 174.964C233.803 174.964 231.014 174.432 228.534 173.368C226.054 172.26 224.106 170.709 222.689 168.715C221.86 167.548 221.274 166.266 220.929 164.871C220.511 163.174 221.979 161.734 223.726 161.734H226.495C227.724 161.734 228.704 162.696 229.127 163.851C229.517 164.922 230.139 165.856 230.991 166.653C232.408 167.938 234.378 168.581 236.903 168.581C239.515 168.581 241.552 167.961 243.013 166.72C244.474 165.435 245.205 163.795 245.205 161.8C245.205 160.249 244.74 158.986 243.81 158.011C242.925 157.036 241.795 156.283 240.423 155.751C239.095 155.219 237.235 154.643 234.844 154.023C231.833 153.225 229.375 152.427 227.471 151.63C225.612 150.787 224.018 149.502 222.689 147.774C221.361 146.046 220.697 143.741 220.697 140.86C220.697 138.201 221.361 135.874 222.689 133.88C224.017 131.886 225.877 130.357 228.268 129.293C230.659 128.229 233.427 127.697 236.57 127.697C241.043 127.697 244.695 128.827 247.529 131.087C249.523 132.622 250.901 134.561 251.661 136.904C252.232 138.661 250.733 140.261 248.887 140.261H246.134C244.898 140.261 243.919 139.268 243.37 138.157C242.968 137.344 242.363 136.604 241.551 135.941C240.09 134.744 238.164 134.146 235.773 134.146C233.603 134.146 231.832 134.7 230.459 135.808C229.087 136.916 228.401 138.511 228.401 140.594C228.401 142.013 228.821 143.187 229.662 144.118C230.548 145.004 231.655 145.713 232.983 146.245C234.311 146.776 236.127 147.353 238.429 147.973C241.484 148.815 243.964 149.657 245.868 150.499C247.817 151.341 249.454 152.649 250.783 154.421C252.156 156.149 252.842 158.476 252.842 161.401C252.842 163.75 252.2 165.966 250.916 168.049C249.676 170.133 247.839 171.816 245.403 173.102C243.012 174.343 240.179 174.963 236.902 174.963L236.903 174.964Z" fill="black"/>
<path d="M262.128 146.211C263.656 143.353 265.769 141.149 268.47 139.597C271.171 138.046 274.271 137.27 277.769 137.27C282.196 137.27 285.861 138.323 288.761 140.428C290.628 141.783 292.105 143.51 293.191 145.608C294.145 147.449 292.614 149.436 290.542 149.436H288.681C287.353 149.436 286.216 148.57 285.489 147.458C284.897 146.555 284.162 145.796 283.281 145.182C281.82 144.163 279.983 143.653 277.768 143.653C274.668 143.653 272.2 144.75 270.363 146.943C268.525 149.137 267.607 152.207 267.607 156.15C267.607 160.094 268.525 163.175 270.363 165.391C272.2 167.608 274.669 168.715 277.768 168.715C281.322 168.715 283.901 167.448 285.506 164.913C286.215 163.792 287.35 162.931 288.676 162.931H290.446C292.548 162.931 294.074 164.969 293.047 166.804C291.948 168.769 290.486 170.437 288.662 171.806C285.739 174 282.108 175.097 277.769 175.097C274.271 175.097 271.171 174.311 268.47 172.737C265.769 171.165 263.655 168.948 262.128 166.089C260.6 163.231 259.837 159.918 259.837 156.15C259.837 152.383 260.6 149.07 262.128 146.211Z" fill="black"/>
<path d="M300.284 156.017C300.284 152.339 301.036 149.081 302.542 146.245C304.092 143.409 306.172 141.215 308.785 139.664C311.442 138.068 314.364 137.271 317.552 137.271C320.43 137.271 322.932 137.847 325.057 138.999C326.558 139.765 327.848 140.67 328.925 141.712C329.384 142.157 330.238 141.849 330.238 141.21C330.238 139.365 331.733 137.869 333.576 137.869H334.481C336.356 137.869 337.876 139.39 337.876 141.266V171.101C337.876 172.977 336.356 174.498 334.481 174.498H333.633C331.757 174.498 330.237 172.977 330.237 171.1C330.237 170.446 329.356 170.133 328.889 170.591C327.808 171.652 326.509 172.578 324.99 173.368C322.776 174.52 320.253 175.097 317.419 175.097C314.275 175.097 311.397 174.299 308.785 172.703C306.172 171.064 304.091 168.803 302.541 165.923C301.036 162.998 300.283 159.696 300.283 156.017H300.284ZM330.238 156.15C330.238 153.624 329.707 151.43 328.644 149.569C327.626 147.708 326.275 146.289 324.593 145.314C322.91 144.339 321.095 143.851 319.147 143.851C317.198 143.851 315.383 144.339 313.7 145.314C312.017 146.244 310.645 147.64 309.582 149.502C308.564 151.32 308.055 153.491 308.055 156.017C308.055 158.544 308.564 160.76 309.582 162.665C310.645 164.571 312.017 166.034 313.7 167.053C315.427 168.028 317.243 168.516 319.147 168.516C321.095 168.516 322.91 168.028 324.593 167.053C326.276 166.078 327.626 164.66 328.644 162.798C329.707 160.892 330.238 158.676 330.238 156.15Z" fill="black"/>
<path d="M352.221 125.304C350.131 125.304 348.436 126.99 348.436 129.068V170.734C348.436 172.813 350.131 174.498 352.221 174.498C354.311 174.498 356.008 172.812 356.008 170.734V129.068C356.008 126.989 354.313 125.304 352.221 125.304Z" fill="black"/>
<path d="M370.352 125.304C368.262 125.304 366.567 126.99 366.567 129.068V170.734C366.567 172.813 368.262 174.498 370.352 174.498C372.442 174.498 374.139 172.812 374.139 170.734V129.068C374.139 126.989 372.444 125.304 370.352 125.304Z" fill="black"/>
<path d="M391.208 172.736C388.419 171.164 386.226 168.947 384.632 166.089C383.038 163.23 382.241 159.917 382.241 156.15C382.241 152.427 383.06 149.126 384.699 146.245C386.336 143.364 388.573 141.149 391.407 139.597C394.24 138.046 397.406 137.27 400.904 137.27C404.403 137.27 407.568 138.046 410.403 139.597C413.236 141.149 415.472 143.364 417.111 146.245C418.748 149.126 419.568 152.427 419.568 156.15C419.568 159.872 418.727 163.175 417.044 166.055C415.362 168.937 413.07 171.164 410.17 172.736C407.27 174.31 404.07 175.096 400.574 175.096C397.119 175.096 393.997 174.31 391.208 172.736L391.208 172.736ZM406.052 167.12C407.756 166.189 409.141 164.793 410.203 162.931C411.266 161.069 411.797 158.81 411.797 156.15C411.797 153.491 411.288 151.242 410.27 149.403C409.25 147.565 407.9 146.179 406.218 145.248C404.535 144.317 402.72 143.852 400.772 143.852C398.824 143.852 397.019 144.317 395.359 145.248C393.698 146.179 392.381 147.565 391.407 149.403C390.433 151.242 389.946 153.491 389.946 156.15C389.946 160.096 390.953 163.142 392.968 165.291C394.983 167.442 397.519 168.516 400.574 168.516C402.521 168.516 404.348 168.05 406.053 167.12L406.052 167.12Z" fill="black"/>
<path d="M435.241 142.275C435.241 142.591 435.654 142.735 435.863 142.499C437.071 141.141 438.613 139.974 440.489 138.998C442.703 137.846 445.204 137.27 447.994 137.27C451.182 137.27 454.082 138.068 456.694 139.663C459.351 141.215 461.432 143.408 462.938 146.245C464.443 149.081 465.196 152.338 465.196 156.017C465.196 159.695 464.443 162.997 462.938 165.922C461.432 168.803 459.352 171.063 456.694 172.703C454.082 174.298 451.182 175.096 447.994 175.096C445.204 175.096 442.725 174.542 440.555 173.434C438.827 172.516 437.351 171.43 436.129 170.174C435.818 169.854 435.242 170.067 435.242 170.513V188.127C435.242 190.219 433.547 191.916 431.457 191.916C429.366 191.916 427.671 190.219 427.671 188.127V141.658C427.671 139.565 429.366 137.869 431.457 137.869C433.547 137.869 435.242 139.565 435.242 141.658L435.241 142.275ZM457.491 156.017C457.491 153.491 456.96 151.32 455.897 149.502C454.879 147.641 453.507 146.245 451.78 145.315C450.097 144.339 448.282 143.852 446.333 143.852C444.429 143.852 442.614 144.339 440.887 145.315C439.204 146.29 437.832 147.708 436.77 149.569C435.751 151.43 435.242 153.624 435.242 156.15C435.242 158.677 435.751 160.893 436.77 162.798C437.832 164.66 439.205 166.078 440.887 167.053C442.614 168.028 444.429 168.515 446.333 168.515C448.282 168.515 450.097 168.028 451.78 167.053C453.507 166.034 454.879 164.571 455.897 162.665C456.96 160.759 457.491 158.544 457.491 156.017Z" fill="black"/>
</svg>
