<svg width="300" height="200" viewBox="0 0 300 200" fill="none" xmlns="http://www.w3.org/2000/svg">
<path d="M0 8C0 3.58173 3.58172 0 8 0H292C296.418 0 300 3.58172 300 8V192C300 196.418 296.418 200 292 200H7.99999C3.58171 200 0 196.418 0 192V8Z" fill="#1E2D45"/>
<path d="M73.8974 127C93.723 127 109.795 114.912 109.795 100C109.795 85.0883 93.723 73 73.8974 73C54.0718 73 38 85.0883 38 100C38 114.912 54.0718 127 73.8974 127Z" fill="#F1D6C8"/>
<path d="M95.35 93.2084C97.449 91.7961 99.6577 89.5155 98.5878 88.3906C97.5178 87.2656 91.7666 87.2681 89.7807 87.5695C87.2031 85.7353 84.532 83.637 77.4937 84.9519C76.1023 83.7375 72.9493 82.0841 71.7932 82.4729C69.4758 83.197 68.5311 87.1842 68.5311 87.1842C62.0128 88.4697 55.6177 90.9876 54.0432 91.6697C51.1003 92.8605 48.0475 95.1888 49.1391 98.6297C46.4146 100.508 45.7721 109.005 54.0128 110.747C57.3645 114.383 60.261 114.219 63.9903 114.169C65.153 116.331 69.5559 119.027 75.7186 116.181C79.8944 116.86 84.9644 117.022 88.8497 114.054C94.1388 113.915 100.623 110.423 98.8439 104.596C102.081 101.125 95.8709 93.9332 95.3503 93.2084H95.35Z" fill="black"/>
<path d="M87.9747 113.5C87.932 113.534 87.8876 113.568 87.8433 113.601C87.8873 113.568 87.931 113.535 87.9747 113.5Z" fill="white"/>
<path d="M98.0402 99.5492C93.794 91.0873 87.6507 86.5314 84.2215 85.7428C80.4368 84.8662 76.629 85.9967 67.889 88.2177C58.6242 90.5724 52.2682 92.5789 50.5821 95.5035C48.9529 98.3293 51.9656 101.898 55.6435 102.498C55.5854 102.104 55.6776 101.541 55.6969 101.451C55.7985 100.974 56.9715 97.0273 62.9616 95.3136C59.3428 96.8389 54.7987 100.765 57.2868 104.313C58.5904 105.561 60.8114 106.502 64.4586 105.797C64.7792 102.144 68.5616 97.6547 73.3394 94.6535C70.1608 97.4527 66.2738 101.355 65.7249 105.076C65.6811 105.367 65.6704 106.692 66.6265 107.636C69.6592 109.767 75.3691 110.663 78.8379 107.757C82.3328 104.525 81.509 98.5438 81.0095 95.4221C82.5439 99.5813 82.7953 104.296 80.3286 107.419C82.3499 108.973 86.0708 109.235 89.4442 107.162C91.6822 103.253 91.6358 98.2542 87.0817 93.6589C91.7834 97.8471 92.2489 101.316 90.808 106.709C95.1654 105.823 100.28 104.871 98.0409 99.5489L98.0402 99.5492Z" fill="#ABB0C0"/>
<path d="M54.1362 106.443C52.0655 105.989 48.6971 103.916 48.7973 101.182C48.3118 102.788 47.6232 108.31 54.6862 110.036C53.9502 108.891 53.9552 107.551 54.1362 106.443Z" fill="#ABB0C0"/>
<path d="M63.2032 110.174C60.6804 110.307 56.0304 108.633 55.4944 106.406C54.8129 107.023 53.951 109.389 55.8487 111.214C58.3178 113.433 60.7341 113.472 64.2431 113.309C63.4326 112.181 63.1628 111.114 63.2035 110.175L63.2032 110.174Z" fill="#ABB0C0"/>
<path d="M89.1089 110.709C89.1089 110.709 89.1089 110.708 89.1089 110.708C87.4022 112.11 82.7135 112.989 78.5507 111.54C78.4822 112.413 77.1702 114.468 75.7744 115.272C78.4933 115.748 83.7874 116.62 87.8082 113.627C88.7255 112.617 89.0638 111.597 89.1092 110.708L89.1089 110.709Z" fill="#ABB0C0"/>
<path d="M64.0896 110.22C63.8999 111.668 64.1938 112.717 64.6122 113.569C65.7122 115.292 69.5394 118.112 75.4102 115.4C76.9169 114.44 77.2832 112.931 77.2448 111.88C74.4672 113.463 66.4048 113.395 64.0896 110.22Z" fill="#ABB0C0"/>
<path d="M90.0493 110.471V110.472C90.027 111.077 89.7428 112.031 88.3096 113.24C93.3001 113.192 97.0465 110.622 97.7254 107.964C96.2331 109.72 92.7769 110.809 90.0493 110.471Z" fill="#ABB0C0"/>
<path d="M64.5103 113.353C64.5023 113.335 64.494 113.316 64.4863 113.298C64.4943 113.316 64.5023 113.335 64.5103 113.353Z" fill="#717071"/>
<path d="M75.4097 115.401C75.9344 115.158 76.2426 114.762 76.5021 114.379C76.2326 114.752 75.876 115.103 75.4097 115.401Z" fill="#717071"/>
<path d="M48.6087 104.393C48.9547 106.52 50.3789 108.984 54.6859 110.036C54.4098 109.606 54.2378 109.149 54.1403 108.687C50.6317 108.641 48.9781 105.69 48.6084 104.393L48.6087 104.393Z" fill="#858B97"/>
<path d="M54.7212 109.032C54.8077 109.754 55.1303 110.523 55.8492 111.214C58.3183 113.433 60.7346 113.473 64.2435 113.309C64.0208 112.999 63.8405 112.694 63.6945 112.395C57.3051 113.04 55.4358 110.412 54.7215 109.032L54.7212 109.032Z" fill="#858B97"/>
<path d="M76.5035 114.379C76.5312 114.338 76.5593 114.297 76.586 114.257C75.1484 115.075 73.6674 115.754 70.4871 115.651C66.6302 115.421 64.7866 113.955 64.2129 112.519C64.2359 112.605 64.2613 112.688 64.2877 112.771C64.294 112.791 64.3004 112.81 64.3071 112.83C64.3612 112.992 64.4216 113.148 64.4864 113.298C64.4944 113.316 64.5024 113.335 64.5104 113.353C64.5431 113.426 64.5765 113.499 64.6113 113.569C65.7112 115.292 69.5384 118.112 75.4092 115.4C75.8761 115.103 76.233 114.752 76.5028 114.379L76.5035 114.379Z" fill="#858B97"/>
<path d="M87.8079 113.628C88.1455 113.256 88.4043 112.883 88.5993 112.516C84.1958 115.738 78.3547 114.784 77.0781 114.165C76.6797 114.612 76.2319 115.009 75.7744 115.273C78.4933 115.749 83.7871 116.621 87.8079 113.628Z" fill="#858B97"/>
<path d="M89.2646 112.285C89.0238 112.582 88.712 112.901 88.3096 113.24C92.3855 113.201 95.6303 111.48 97.0532 109.402C95.5118 111.589 90.6107 112.389 89.2646 112.284V112.285Z" fill="#858B97"/>
<path d="M49.6348 99.6077C49.1139 100.122 48.9499 100.724 48.9499 100.724C48.8173 102.384 51.9219 106.286 55.8916 105.899C56.0606 108.081 61.5187 110.484 64.0302 109.407C65.7653 112.506 74.6434 113.306 78.138 110.763C80.2511 112.224 87.7579 112.05 89.311 109.716C91.6986 110.685 96.9172 109.009 97.9213 106.947C98.1331 106.172 97.8319 105.401 97.8319 105.401C96.7513 106.401 93.1388 108.403 90.3438 107.725C88.2481 109.17 83.4619 110.6 79.792 108.262C75.5661 112.301 65.6207 110.133 64.7291 106.637C61.9471 107.199 56.7188 107.01 55.5513 103.372C54.6881 103.1 51.6958 102.722 49.6348 99.6077Z" fill="#1E2D45"/>
<path d="M69.8394 86.8231C71.34 86.3966 74.4533 85.6635 76.2929 85.2629C75.2263 84.4343 72.8838 83.1659 72.2223 83.2752C71.2712 83.4728 70.1703 85.6547 69.8394 86.8231Z" fill="white"/>
<path d="M90.6968 88.3238C92.7795 90.04 94.4268 92.0706 94.7634 92.4469C96.209 91.5296 98.2099 89.2023 97.5938 88.8613C96.3986 88.1995 92.1747 88.1681 90.6968 88.3238Z" fill="white"/>
<path d="M67.2403 88.3835C67.1267 88.4126 67.0135 88.4418 66.901 88.4706C66.8449 88.485 66.7891 88.4995 66.7334 88.5138C66.6208 88.543 66.5086 88.5719 66.3968 88.601C66.346 88.614 66.2953 88.6274 66.2448 88.6404C66.0872 88.6814 65.9299 88.7223 65.7743 88.7632C65.769 88.7648 65.7636 88.766 65.7583 88.7675C65.6057 88.8074 65.4541 88.8474 65.3035 88.8873C65.2541 88.9004 65.2053 88.9134 65.1559 88.9265C65.048 88.9551 64.9402 88.9838 64.8333 89.0124C64.7805 89.0265 64.7281 89.0405 64.6754 89.0546C64.5672 89.0837 64.4593 89.1126 64.3521 89.1415C64.306 89.1541 64.2596 89.1664 64.2139 89.1789C63.9123 89.2605 63.6145 89.3422 63.3209 89.4235C63.2759 89.4361 63.2314 89.4484 63.1867 89.461C63.0838 89.4896 62.9813 89.5182 62.8795 89.5469C62.8297 89.5607 62.7803 89.5747 62.7309 89.5886C62.6287 89.6174 62.5272 89.6461 62.426 89.675C62.3829 89.6873 62.3399 89.6993 62.2968 89.7116C62.1545 89.7523 62.0129 89.793 61.8727 89.8334H61.872C61.7328 89.8739 61.5945 89.9143 61.4573 89.9545C61.4165 89.9666 61.3761 89.9784 61.3357 89.9904C61.2376 90.0196 61.1397 90.0484 61.0425 90.0776C60.9975 90.0911 60.9524 90.1045 60.9073 90.118C60.8108 90.1469 60.7153 90.1758 60.6201 90.2049C60.5804 90.217 60.5403 90.229 60.5006 90.2413C60.2348 90.3225 59.9736 90.4036 59.7168 90.485C59.6801 90.4965 59.6434 90.5083 59.607 90.5199C59.5145 90.5493 59.4226 90.5786 59.3315 90.608C59.2904 90.6213 59.2493 90.6347 59.2083 90.648C59.1174 90.6776 59.0269 90.707 58.9374 90.7366C58.902 90.7482 58.8667 90.7597 58.8316 90.7715C58.5852 90.8532 58.343 90.935 58.106 91.0172C58.0719 91.029 58.0382 91.0408 58.0041 91.0526C57.919 91.0822 57.8345 91.1119 57.7503 91.1418C57.7126 91.1551 57.6749 91.1684 57.6375 91.1819C57.554 91.2118 57.4708 91.2417 57.3887 91.2716C57.3563 91.2834 57.3236 91.2952 57.2912 91.307C57.0651 91.3897 56.8437 91.4728 56.627 91.5562C56.5963 91.568 56.5659 91.58 56.5352 91.5918C56.4574 91.622 56.3799 91.6524 56.3034 91.6825C56.2693 91.6961 56.2353 91.7096 56.2012 91.7232C56.1248 91.7538 56.049 91.7842 55.9738 91.8149C55.9448 91.8267 55.9157 91.8385 55.887 91.8503C55.682 91.9344 55.4819 92.0193 55.2869 92.1045C55.2589 92.1168 55.2312 92.1291 55.2031 92.1414C55.1333 92.1723 55.0639 92.2029 54.9954 92.2341C54.965 92.2479 54.9346 92.2617 54.9042 92.2755C54.8355 92.3069 54.7673 92.3385 54.6995 92.3699C54.6742 92.3817 54.6481 92.3938 54.6231 92.4056C54.5309 92.4491 54.4401 92.4925 54.3506 92.5362C58.0368 91.2294 70.6043 87.7521 76.8958 91.2832C83.1874 94.8143 91.4285 90.6854 87.1021 86.9687C86.0275 86.341 85.0451 85.9329 84.2203 85.7433C80.4355 84.8667 76.6277 85.9972 67.8878 88.2182C67.7235 88.2599 67.5605 88.3016 67.3982 88.343C67.3455 88.3566 67.293 88.3699 67.2403 88.3835Z" fill="white"/>
<path d="M68.9281 98.1182C65.2435 101.607 64.2871 104.219 62.0274 104.527C60.2252 104.772 58.0657 104.939 56.6592 102.941C56.764 103.4 56.9667 103.86 57.2843 104.313C58.588 105.561 60.8089 106.502 64.4561 105.797C64.6681 103.379 66.3979 100.595 68.9284 98.1182H68.9281Z" fill="#858B97"/>
<path d="M65.8721 106.383C66.0036 106.8 66.2327 107.25 66.6241 107.636C69.6568 109.767 75.3667 110.664 78.8356 107.757C80.7954 105.945 81.3968 103.268 81.4592 100.716C79.1568 109.753 67.6242 110.191 65.8721 106.383Z" fill="#858B97"/>
<path d="M89.6962 106.691C89.7369 106.612 89.7774 106.533 89.8161 106.453C89.8395 106.405 89.8618 106.356 89.8845 106.307C89.9183 106.235 89.9517 106.163 89.9837 106.091C90.0071 106.038 90.0295 105.985 90.0522 105.931C90.0816 105.862 90.1106 105.793 90.1387 105.723C90.161 105.667 90.1827 105.611 90.2041 105.555C90.2302 105.488 90.2552 105.42 90.2796 105.351C90.3006 105.293 90.321 105.235 90.341 105.177C90.3637 105.11 90.3854 105.043 90.4068 104.976C90.4258 104.915 90.4452 104.855 90.4632 104.795C90.4829 104.729 90.5013 104.662 90.5197 104.596C90.537 104.534 90.5547 104.472 90.5708 104.409C90.5875 104.345 90.6022 104.28 90.6175 104.216C90.6329 104.15 90.6492 104.086 90.6633 104.02C90.6753 103.965 90.6853 103.908 90.6963 103.853C90.7267 103.699 90.7538 103.545 90.7771 103.39C90.7835 103.347 90.7912 103.304 90.7972 103.261C90.8082 103.18 90.8172 103.098 90.8262 103.016C90.8319 102.966 90.8379 102.917 90.8429 102.867C90.8509 102.786 90.8566 102.703 90.8626 102.621C90.8663 102.572 90.87 102.522 90.873 102.472C90.8777 102.389 90.8807 102.305 90.8833 102.221C90.8847 102.173 90.8863 102.125 90.887 102.076C90.8883 101.99 90.8883 101.904 90.8873 101.818C90.8867 101.772 90.886 101.726 90.8847 101.68C90.8823 101.591 90.8793 101.501 90.8743 101.412C90.872 101.37 90.8693 101.329 90.8663 101.287C90.86 101.193 90.8533 101.098 90.8439 101.003C90.8409 100.97 90.8369 100.937 90.8332 100.904C90.8222 100.8 90.8105 100.697 90.7962 100.592C90.7945 100.581 90.7925 100.569 90.7908 100.557C90.7187 100.05 90.6062 99.5388 90.4496 99.0259C90.4482 99.0217 90.4472 99.0172 90.4459 99.0129C90.4098 98.8958 90.3707 98.7786 90.3303 98.6613C90.3237 98.6419 90.3173 98.6223 90.3103 98.603C90.2709 98.4912 90.2288 98.3795 90.1854 98.2677C90.1761 98.2433 90.1667 98.219 90.157 98.1946C90.113 98.0843 90.0669 97.9738 90.0188 97.8636C90.0081 97.839 89.9971 97.8143 89.9864 97.7897C89.9366 97.6777 89.8849 97.5659 89.8308 97.4539C89.8208 97.4336 89.8107 97.4132 89.8007 97.3929C89.7433 97.2761 89.6842 97.1591 89.6221 97.0423C89.6171 97.0325 89.6114 97.0229 89.6064 97.0131C89.2561 96.3596 88.8293 95.7068 88.3198 95.0591C90.7965 99.8234 90.2746 105.581 86.1536 107.222C84.6525 107.82 82.5484 108.187 80.4871 107.209C80.4864 107.209 80.4858 107.209 80.4851 107.209C80.4333 107.279 80.3816 107.35 80.3271 107.419C82.3484 108.973 86.0694 109.235 89.4428 107.162C89.5092 107.046 89.5737 106.929 89.6361 106.81C89.6568 106.771 89.6765 106.731 89.6969 106.691H89.6962Z" fill="#858B97"/>
<path d="M98.0391 99.5494C96.0255 95.5366 93.5851 92.4028 91.2099 90.1318C95.3319 96.0116 97.6537 100.177 95.9717 103.142C95.3259 104.15 94.4473 105.492 91.3548 106.098C91.301 106.11 91.0523 106.096 91.0058 106.112C90.9611 106.294 90.8559 106.522 90.8062 106.709C92.6154 107.559 100.842 105.113 98.0391 99.5489V99.5494Z" fill="#858B97"/>
<path d="M97.0436 90.3225C94.4694 91.3588 91.8109 88.9569 90.6963 88.3237C92.779 90.0399 94.4263 92.0706 94.7629 92.4468C95.5236 91.9641 96.4375 91.091 97.0436 90.3225Z" fill="#858B97"/>
<path d="M58.6399 97.4009C55.0328 100.144 52.5938 100.638 50.9312 99.5727C51.9116 101.016 53.6821 102.179 55.6412 102.498C55.5831 102.104 55.6753 101.541 55.6947 101.451C55.7645 101.123 56.3405 99.1555 58.6399 97.4009Z" fill="#858B97"/>
<path d="M124.769 110.013C123.335 109.541 122.209 108.872 121.39 108.005C120.57 107.139 120.161 106.128 120.161 104.972H124.846C124.948 105.839 125.403 106.552 126.209 107.11C127.016 107.669 128.149 107.947 129.608 107.947C131.119 107.947 132.296 107.673 133.141 107.124C133.986 106.575 134.408 105.868 134.408 105.001C134.408 104.327 134.146 103.778 133.621 103.355C133.096 102.931 132.443 102.604 131.662 102.373C130.881 102.141 129.8 101.891 128.417 101.622C126.676 101.275 125.261 100.924 124.173 100.567C123.085 100.211 122.157 99.6572 121.389 98.9063C120.62 98.1553 120.236 97.1541 120.236 95.9021C120.236 94.7467 120.62 93.7356 121.389 92.8691C122.157 92.0025 123.232 91.3382 124.615 90.8758C125.997 90.4137 127.597 90.1826 129.415 90.1826C132.001 90.1826 134.12 90.6691 135.771 91.6414C137.423 92.6139 138.338 93.9475 138.517 95.6419H133.678C133.601 94.9103 133.141 94.2844 132.296 93.7642C131.451 93.2443 130.337 92.9843 128.954 92.9843C127.699 92.9843 126.675 93.2255 125.882 93.7064C125.088 94.1882 124.691 94.8814 124.691 95.7863C124.691 96.4029 124.941 96.9083 125.44 97.3028C125.939 97.6977 126.573 98.0106 127.341 98.2417C128.11 98.4727 129.159 98.7234 130.49 98.9927C132.257 99.3586 133.697 99.7245 134.81 100.09C135.924 100.456 136.871 101.02 137.653 101.78C138.433 102.541 138.824 103.557 138.824 104.828C138.824 105.849 138.459 106.811 137.729 107.716C136.999 108.622 135.936 109.349 134.541 109.897C133.146 110.446 131.501 110.72 129.607 110.72C127.814 110.72 126.201 110.485 124.768 110.013L124.769 110.013Z" fill="white"/>
<path d="M144.221 98.2278C145.104 96.9858 146.326 96.0281 147.888 95.3537C149.45 94.6798 151.242 94.3428 153.265 94.3428C155.825 94.3428 157.944 94.8004 159.621 95.7149C161.298 96.6296 162.431 97.9347 163.02 99.629H158.296C157.912 98.8396 157.298 98.2235 156.452 97.7804C155.608 97.3376 154.545 97.1161 153.265 97.1161C151.472 97.1161 150.045 97.5928 148.983 98.546C147.92 99.4991 147.389 100.833 147.389 102.547C147.389 104.26 147.92 105.599 148.983 106.562C150.045 107.525 151.472 108.006 153.265 108.006C155.799 108.006 157.476 107.168 158.296 105.493H163.02C162.406 107.11 161.253 108.396 159.564 109.349C157.874 110.302 155.774 110.779 153.265 110.779C151.242 110.779 149.45 110.438 147.888 109.754C146.326 109.07 145.104 108.107 144.221 106.865C143.337 105.623 142.896 104.184 142.896 102.547C142.896 100.909 143.337 99.4703 144.221 98.228V98.2278Z" fill="white"/>
<path d="M167.609 98.2418C168.492 97.0096 169.695 96.0514 171.219 95.3678C172.742 94.6844 174.425 94.3423 176.269 94.3423C177.933 94.3423 179.386 94.5879 180.628 95.0789C181.869 95.57 182.861 96.1815 183.604 96.9132V94.6022H188.021V110.518H183.604V108.15C182.861 108.901 181.851 109.527 180.57 110.027C179.29 110.528 177.83 110.778 176.192 110.778C174.374 110.778 172.71 110.427 171.199 109.724C169.688 109.021 168.492 108.039 167.609 106.778C166.725 105.517 166.284 104.087 166.284 102.488C166.284 100.89 166.725 99.4745 167.609 98.2418ZM182.702 99.686C182.1 98.8773 181.313 98.2612 180.34 97.8375C179.367 97.414 178.317 97.202 177.191 97.202C176.065 97.202 175.014 97.4092 174.042 97.8231C173.068 98.2376 172.281 98.8441 171.68 99.6431C171.078 100.442 170.777 101.391 170.777 102.488C170.777 103.586 171.078 104.549 171.68 105.377C172.281 106.205 173.075 106.836 174.061 107.269C175.046 107.702 176.09 107.919 177.191 107.919C178.317 107.919 179.367 107.707 180.34 107.283C181.313 106.86 182.1 106.239 182.702 105.42C183.303 104.602 183.604 103.644 183.604 102.546C183.604 101.448 183.303 100.495 182.702 99.686Z" fill="white"/>
<path d="M198.506 89.1431V110.519H194.128V89.1431H198.506Z" fill="white"/>
<path d="M208.989 89.1431V110.519H204.611V89.1431H208.989Z" fill="white"/>
<path d="M218.858 109.753C217.246 109.07 215.978 108.107 215.056 106.864C214.135 105.622 213.674 104.183 213.674 102.546C213.674 100.928 214.147 99.4939 215.095 98.2418C216.042 96.9903 217.335 96.0276 218.974 95.3532C220.612 94.6793 222.442 94.3423 224.465 94.3423C226.488 94.3423 228.319 94.6793 229.958 95.3532C231.596 96.0276 232.889 96.9903 233.836 98.2418C234.783 99.4939 235.257 100.928 235.257 102.546C235.257 104.163 234.771 105.598 233.798 106.85C232.825 108.102 231.5 109.07 229.823 109.753C228.146 110.437 226.296 110.778 224.274 110.778C222.277 110.778 220.472 110.437 218.859 109.753L218.858 109.753ZM227.442 107.312C228.427 106.908 229.228 106.301 229.842 105.492C230.457 104.683 230.764 103.701 230.764 102.546C230.764 101.39 230.469 100.413 229.881 99.6139C229.291 98.8152 228.511 98.213 227.538 97.8086C226.565 97.4042 225.515 97.202 224.389 97.202C223.263 97.202 222.219 97.4042 221.259 97.8086C220.299 98.213 219.537 98.8152 218.974 99.6139C218.41 100.413 218.129 101.39 218.129 102.546C218.129 104.26 218.711 105.584 219.877 106.518C221.042 107.452 222.508 107.919 224.274 107.919C225.4 107.919 226.457 107.716 227.442 107.312L227.442 107.312Z" fill="white"/>
<path d="M247.355 95.0933C248.635 94.5927 250.082 94.3423 251.695 94.3423C253.538 94.3423 255.221 94.6844 256.745 95.3678C258.268 96.0514 259.465 97.0099 260.336 98.2418C261.206 99.4745 261.641 100.89 261.641 102.488C261.641 104.087 261.206 105.517 260.336 106.778C259.465 108.039 258.268 109.021 256.745 109.724C255.221 110.427 253.538 110.778 251.695 110.778C250.082 110.778 248.647 110.533 247.393 110.042C246.139 109.551 245.114 108.94 244.321 108.207V118.086H239.943V94.6022H244.321V96.9421C245.063 96.2104 246.074 95.5943 247.355 95.0933ZM256.284 99.6428C255.682 98.8439 254.888 98.2373 253.903 97.8229C252.917 97.409 251.861 97.2018 250.735 97.2018C249.634 97.2018 248.59 97.414 247.605 97.8372C246.619 98.2609 245.825 98.877 245.224 99.6858C244.622 100.495 244.321 101.448 244.321 102.546C244.321 103.643 244.622 104.601 245.224 105.42C245.825 106.238 246.619 106.859 247.605 107.283C248.59 107.707 249.634 107.918 250.735 107.918C251.861 107.918 252.917 107.702 253.903 107.268C254.888 106.835 255.682 106.204 256.284 105.376C256.885 104.549 257.186 103.586 257.186 102.488C257.186 101.39 256.885 100.442 256.284 99.6426V99.6428Z" fill="white"/>
<circle cx="24" cy="176" r="14" fill="white" stroke="white" stroke-width="2"/>
<path fill-rule="evenodd" clip-rule="evenodd" d="M24 163C16.8203 163 11 168.82 11 176C11 183.18 16.8203 189 24 189C31.1797 189 37 183.18 37 176C37 168.82 31.1797 163 24 163ZM21.7071 172.293C21.3166 171.902 20.6834 171.902 20.2929 172.293C19.9024 172.683 19.9024 173.317 20.2929 173.707L22.5858 176L20.2929 178.293C19.9024 178.683 19.9024 179.317 20.2929 179.707C20.6834 180.098 21.3166 180.098 21.7071 179.707L24 177.414L26.2929 179.707C26.6834 180.098 27.3166 180.098 27.7071 179.707C28.0976 179.317 28.0976 178.683 27.7071 178.293L25.4142 176L27.7071 173.707C28.0976 173.317 28.0976 172.683 27.7071 172.293C27.3166 171.902 26.6834 171.902 26.2929 172.293L24 174.586L21.7071 172.293Z" fill="#CA6460"/>
</svg>
