<svg width="544" height="301" viewBox="0 0 544 301" fill="none" xmlns="http://www.w3.org/2000/svg">
<rect width="543.208" height="300.194" transform="translate(0 0.193848)" fill="black"/>
<path d="M140.288 212.43C174.575 212.43 202.369 184.609 202.369 150.291C202.369 115.973 174.575 88.1523 140.288 88.1523C106.002 88.1523 78.2069 115.973 78.2069 150.291C78.2069 184.609 106.002 212.43 140.288 212.43Z" fill="white"/>
<path d="M177.387 134.661C181.017 131.411 184.837 126.162 182.987 123.573C181.136 120.984 171.19 120.99 167.756 121.683C163.298 117.462 158.679 112.633 146.507 115.659C144.1 112.864 138.647 109.059 136.648 109.954C132.64 111.62 131.007 120.797 131.007 120.797C119.734 123.755 108.674 129.55 105.951 131.12C100.862 133.86 95.5821 139.219 97.47 147.138C92.7582 151.461 91.647 171.016 105.899 175.026C111.695 183.393 116.704 183.016 123.154 182.901C125.165 187.876 132.779 194.081 143.437 187.531C150.658 189.094 159.426 189.466 166.146 182.635C175.293 182.317 186.506 174.278 183.43 160.868C189.028 152.881 178.288 136.329 177.387 134.661Z" fill="black"/>
<path d="M182.038 149.254C174.694 129.78 164.07 119.295 158.14 117.48C151.594 115.462 145.009 118.064 129.894 123.175C113.872 128.595 102.879 133.212 99.9636 139.943C97.146 146.447 102.356 154.66 108.717 156.04C108.616 155.133 108.776 153.838 108.809 153.632C108.985 152.532 111.013 143.45 121.373 139.506C115.114 143.016 107.256 152.051 111.559 160.217C113.813 163.09 117.654 165.256 123.962 163.633C124.516 155.225 131.057 144.894 139.32 137.987C133.823 144.429 127.101 153.41 126.152 161.974C126.076 162.644 126.057 165.692 127.711 167.864C132.956 172.769 142.83 174.832 148.829 168.143C154.873 160.707 153.449 146.94 152.585 139.756C155.238 149.328 155.673 160.178 151.407 167.366C154.903 170.941 161.338 171.545 167.172 166.775C171.042 157.778 170.962 146.274 163.086 135.698C171.217 145.337 172.022 153.32 169.53 165.732C177.066 163.693 185.911 161.501 182.039 149.253L182.038 149.254Z" fill="white"/>
<path d="M106.112 165.12C102.531 164.075 96.7054 159.304 96.8786 153.012C96.0389 156.708 94.8481 169.418 107.063 173.389C105.79 170.754 105.799 167.671 106.112 165.12Z" fill="white"/>
<path d="M121.793 173.708C117.43 174.013 109.388 170.159 108.462 165.036C107.283 166.455 105.792 171.899 109.074 176.1C113.344 181.206 117.523 181.298 123.591 180.922C122.19 178.326 121.723 175.87 121.794 173.708L121.793 173.708Z" fill="white"/>
<path d="M166.593 174.937C166.593 174.937 166.593 174.935 166.593 174.934C163.642 178.162 155.533 180.185 148.334 176.849C148.215 178.86 145.946 183.59 143.533 185.439C148.235 186.534 157.39 188.541 164.344 181.653C165.93 179.329 166.515 176.981 166.594 174.936L166.593 174.937Z" fill="white"/>
<path d="M123.325 173.813C122.997 177.145 123.505 179.559 124.228 181.521C126.131 185.486 132.749 191.975 142.902 185.735C145.508 183.524 146.142 180.052 146.075 177.632C141.272 181.277 127.328 181.12 123.325 173.813Z" fill="white"/>
<path d="M168.22 174.392V174.393C168.181 175.785 167.689 177.981 165.211 180.764C173.841 180.653 180.32 174.74 181.494 168.621C178.914 172.663 172.937 175.168 168.22 174.392Z" fill="white"/>
<path d="M96.5523 160.4C97.1506 165.296 99.6137 170.967 107.062 173.389C106.585 172.4 106.287 171.348 106.119 170.284C100.051 170.178 97.191 163.387 96.5517 160.401L96.5523 160.4Z" fill="white"/>
<path d="M107.123 171.077C107.273 172.739 107.831 174.509 109.074 176.1C113.344 181.206 117.523 181.298 123.591 180.922C123.206 180.208 122.894 179.506 122.642 178.818C111.592 180.302 108.359 174.253 107.124 171.078L107.123 171.077Z" fill="white"/>
<path d="M144.794 183.385C144.842 183.29 144.89 183.196 144.936 183.102C142.45 184.985 139.889 186.548 134.389 186.311C127.719 185.781 124.53 182.408 123.538 179.102C123.578 179.3 123.622 179.493 123.668 179.682C123.679 179.728 123.69 179.774 123.701 179.819C123.795 180.193 123.899 180.551 124.011 180.895C124.025 180.937 124.039 180.98 124.053 181.022C124.109 181.19 124.167 181.358 124.227 181.52C126.13 185.485 132.748 191.974 142.901 185.734C143.709 185.049 144.326 184.243 144.793 183.384L144.794 183.385Z" fill="white"/>
<path d="M164.343 181.654C164.927 180.799 165.375 179.94 165.712 179.095C158.096 186.511 147.995 184.314 145.787 182.891C145.098 183.918 144.324 184.834 143.533 185.44C148.235 186.535 157.39 188.542 164.344 181.654H164.343Z" fill="white"/>
<path d="M166.862 178.564C166.446 179.248 165.907 179.982 165.211 180.763C172.26 180.673 177.871 176.711 180.332 171.929C177.666 176.964 169.19 178.804 166.862 178.563V178.564Z" fill="white"/>
<path d="M98.3281 149.389C97.4272 150.573 97.1437 151.958 97.1437 151.958C96.9144 155.778 102.283 164.758 109.149 163.867C109.441 168.889 118.88 174.419 123.224 171.941C126.224 179.073 141.578 180.915 147.622 175.062C151.276 178.423 164.258 178.023 166.944 172.653C171.074 174.883 180.099 171.026 181.835 166.28C182.201 164.496 181.68 162.721 181.68 162.721C179.812 165.022 173.564 169.632 168.731 168.07C165.106 171.397 156.829 174.688 150.482 169.307C143.174 178.601 125.974 173.613 124.432 165.567C119.621 166.86 110.579 166.426 108.56 158.052C107.067 157.426 101.892 156.556 98.3281 149.389Z" fill="white"/>
<path d="M133.269 119.966C135.864 118.984 141.248 117.297 144.429 116.375C142.585 114.468 138.534 111.549 137.39 111.8C135.745 112.255 133.841 117.277 133.269 119.966Z" fill="white"/>
<path d="M169.34 123.42C172.942 127.369 175.791 132.043 176.373 132.909C178.873 130.798 182.333 125.441 181.268 124.657C179.201 123.133 171.896 123.061 169.34 123.42Z" fill="white"/>
<path d="M128.774 123.556C128.578 123.623 128.382 123.69 128.187 123.757C128.09 123.79 127.994 123.823 127.897 123.856C127.703 123.923 127.509 123.99 127.315 124.057C127.227 124.087 127.14 124.118 127.052 124.148C126.78 124.242 126.508 124.336 126.239 124.43C126.229 124.434 126.22 124.437 126.211 124.44C125.947 124.532 125.685 124.624 125.424 124.716C125.339 124.746 125.255 124.776 125.169 124.806C124.983 124.872 124.796 124.938 124.611 125.004C124.52 125.036 124.429 125.068 124.338 125.101C124.151 125.168 123.965 125.234 123.779 125.301C123.699 125.33 123.619 125.358 123.54 125.387C123.019 125.575 122.503 125.763 121.996 125.95C121.918 125.979 121.841 126.007 121.764 126.036C121.586 126.102 121.409 126.168 121.232 126.234C121.146 126.266 121.061 126.298 120.975 126.33C120.799 126.396 120.623 126.462 120.448 126.529C120.374 126.557 120.299 126.585 120.225 126.613C119.979 126.707 119.734 126.8 119.491 126.893H119.49C119.249 126.986 119.01 127.079 118.773 127.172C118.702 127.2 118.632 127.227 118.563 127.255C118.393 127.322 118.224 127.388 118.056 127.455C117.978 127.486 117.9 127.517 117.822 127.548C117.655 127.615 117.49 127.681 117.325 127.748C117.256 127.776 117.187 127.804 117.118 127.832C116.659 128.019 116.207 128.205 115.763 128.393C115.699 128.419 115.636 128.446 115.573 128.473C115.413 128.541 115.254 128.608 115.096 128.676C115.025 128.707 114.954 128.737 114.883 128.768C114.726 128.836 114.57 128.904 114.415 128.972C114.354 128.998 114.293 129.025 114.232 129.052C113.806 129.24 113.387 129.429 112.977 129.618C112.918 129.645 112.86 129.672 112.801 129.699C112.654 129.767 112.507 129.835 112.362 129.904C112.297 129.935 112.231 129.966 112.167 129.997C112.022 130.066 111.879 130.134 111.737 130.203C111.681 130.23 111.624 130.257 111.568 130.285C111.177 130.475 110.794 130.666 110.419 130.858C110.366 130.885 110.314 130.913 110.26 130.94C110.126 131.009 109.992 131.079 109.86 131.149C109.801 131.18 109.742 131.211 109.683 131.242C109.551 131.313 109.42 131.383 109.29 131.453C109.239 131.481 109.189 131.508 109.14 131.535C108.785 131.729 108.439 131.924 108.102 132.12C108.053 132.148 108.005 132.177 107.957 132.205C107.836 132.276 107.716 132.346 107.598 132.418C107.545 132.45 107.492 132.482 107.44 132.514C107.321 132.586 107.203 132.659 107.086 132.731C107.042 132.758 106.997 132.786 106.954 132.813C106.794 132.913 106.637 133.013 106.482 133.114C112.857 130.106 134.592 122.103 145.472 130.23C156.353 138.356 170.605 128.854 163.123 120.3C161.265 118.856 159.566 117.916 158.139 117.48C151.594 115.463 145.009 118.064 129.894 123.176C129.61 123.272 129.328 123.368 129.047 123.463C128.956 123.494 128.865 123.525 128.774 123.556Z" fill="white"/>
<path d="M131.694 145.961C125.322 153.99 123.668 160.003 119.76 160.711C116.644 161.275 112.909 161.659 110.476 157.06C110.658 158.118 111.008 159.175 111.558 160.218C113.812 163.091 117.653 165.257 123.96 163.633C124.327 158.068 127.319 151.661 131.695 145.961H131.694Z" fill="white"/>
<path d="M126.409 164.982C126.637 165.941 127.033 166.977 127.71 167.866C132.954 172.77 142.829 174.833 148.828 168.144C152.218 163.974 153.258 157.814 153.366 151.939C149.384 172.738 129.439 173.746 126.409 164.982Z" fill="white"/>
<path d="M167.61 165.692C167.681 165.51 167.751 165.328 167.818 165.144C167.858 165.032 167.897 164.92 167.936 164.808C167.994 164.643 168.052 164.477 168.107 164.31C168.148 164.188 168.187 164.066 168.226 163.943C168.277 163.784 168.327 163.624 168.375 163.464C168.414 163.336 168.452 163.207 168.489 163.078C168.534 162.922 168.577 162.765 168.619 162.609C168.656 162.475 168.691 162.341 168.725 162.206C168.765 162.053 168.802 161.898 168.839 161.744C168.872 161.605 168.906 161.466 168.937 161.327C168.971 161.176 169.003 161.023 169.034 160.871C169.064 160.727 169.095 160.584 169.123 160.44C169.152 160.292 169.177 160.143 169.204 159.995C169.23 159.845 169.258 159.695 169.283 159.545C169.303 159.417 169.321 159.287 169.34 159.159C169.392 158.806 169.439 158.451 169.48 158.095C169.491 157.995 169.504 157.897 169.514 157.798C169.533 157.61 169.549 157.422 169.564 157.234C169.574 157.12 169.585 157.006 169.593 156.892C169.607 156.703 169.617 156.514 169.627 156.325C169.634 156.211 169.64 156.097 169.645 155.983C169.653 155.79 169.659 155.598 169.663 155.405C169.666 155.294 169.668 155.182 169.67 155.071C169.672 154.873 169.672 154.675 169.67 154.476C169.669 154.371 169.668 154.265 169.666 154.16C169.662 153.954 169.656 153.748 169.648 153.542C169.644 153.446 169.639 153.351 169.634 153.255C169.623 153.038 169.611 152.82 169.595 152.601C169.59 152.525 169.583 152.449 169.577 152.373C169.558 152.135 169.537 151.896 169.513 151.656C169.51 151.629 169.506 151.601 169.503 151.574C169.379 150.407 169.184 149.231 168.913 148.051C168.911 148.041 168.909 148.031 168.907 148.021C168.844 147.751 168.777 147.481 168.707 147.212C168.695 147.167 168.684 147.122 168.672 147.077C168.604 146.82 168.531 146.563 168.456 146.306C168.44 146.25 168.424 146.194 168.407 146.138C168.331 145.884 168.251 145.629 168.168 145.376C168.15 145.319 168.131 145.262 168.112 145.206C168.026 144.948 167.937 144.691 167.843 144.433C167.826 144.386 167.808 144.339 167.791 144.292C167.692 144.024 167.589 143.754 167.482 143.486C167.473 143.463 167.464 143.441 167.455 143.418C166.849 141.914 166.111 140.412 165.23 138.921C169.513 149.886 168.61 163.136 161.484 166.914C158.888 168.29 155.249 169.134 151.684 166.884C151.683 166.884 151.682 166.884 151.68 166.883C151.591 167.046 151.501 167.209 151.407 167.368C154.903 170.943 161.338 171.547 167.172 166.776C167.287 166.509 167.398 166.239 167.506 165.966C167.542 165.876 167.576 165.784 167.611 165.692H167.61Z" fill="white"/>
<path d="M182.038 149.254C178.556 140.019 174.335 132.807 170.227 127.58C177.356 141.112 181.371 150.699 178.463 157.522C177.346 159.841 175.826 162.93 170.478 164.325C170.385 164.353 169.955 164.321 169.875 164.358C169.797 164.777 169.615 165.302 169.529 165.732C172.658 167.688 186.886 162.059 182.038 149.253V149.254Z" fill="white"/>
<path d="M180.317 128.019C175.865 130.404 171.268 124.877 169.34 123.419C172.942 127.369 175.791 132.043 176.373 132.908C177.688 131.797 179.269 129.788 180.317 128.019Z" fill="white"/>
<path d="M113.902 144.31C107.664 150.622 103.446 151.759 100.571 149.308C102.266 152.631 105.328 155.305 108.716 156.041C108.616 155.134 108.775 153.839 108.809 153.632C108.929 152.877 109.925 148.348 113.902 144.31Z" fill="white"/>
<path d="M236.694 174.964C233.595 174.964 230.805 174.432 228.326 173.368C225.846 172.26 223.898 170.709 222.481 168.715C221.652 167.548 221.065 166.266 220.721 164.871C220.303 163.174 221.771 161.734 223.518 161.734H226.287C227.516 161.734 228.496 162.696 228.919 163.851C229.309 164.922 229.931 165.856 230.783 166.653C232.2 167.938 234.17 168.581 236.694 168.581C239.307 168.581 241.344 167.961 242.805 166.72C244.266 165.435 244.996 163.795 244.996 161.8C244.996 160.249 244.532 158.986 243.602 158.011C242.716 157.036 241.587 156.283 240.215 155.751C238.886 155.219 237.027 154.643 234.635 154.023C231.624 153.225 229.167 152.427 227.263 151.63C225.404 150.787 223.81 149.502 222.481 147.774C221.153 146.046 220.488 143.741 220.488 140.86C220.488 138.201 221.153 135.874 222.481 133.88C223.809 131.886 225.669 130.357 228.06 129.293C230.451 128.229 233.218 127.697 236.362 127.697C240.834 127.697 244.487 128.827 247.321 131.087C249.315 132.622 250.692 134.561 251.453 136.904C252.024 138.661 250.525 140.261 248.679 140.261H245.926C244.69 140.261 243.711 139.268 243.162 138.157C242.76 137.344 242.155 136.604 241.343 135.941C239.882 134.744 237.956 134.146 235.565 134.146C233.395 134.146 231.624 134.7 230.251 135.808C228.878 136.916 228.192 138.511 228.192 140.594C228.192 142.013 228.613 143.187 229.454 144.118C230.339 145.004 231.447 145.713 232.775 146.245C234.103 146.776 235.919 147.353 238.221 147.973C241.276 148.815 243.756 149.657 245.66 150.499C247.608 151.341 249.246 152.649 250.575 154.421C251.948 156.149 252.634 158.476 252.634 161.401C252.634 163.75 251.992 165.966 250.708 168.049C249.468 170.133 247.63 171.816 245.195 173.102C242.804 174.343 239.97 174.963 236.694 174.963L236.694 174.964Z" fill="white"/>
<path d="M261.919 146.211C263.448 143.353 265.561 141.149 268.262 139.597C270.963 138.046 274.063 137.27 277.56 137.27C281.988 137.27 285.653 138.323 288.553 140.428C290.42 141.783 291.896 143.51 292.983 145.608C293.937 147.449 292.406 149.436 290.334 149.436H288.472C287.145 149.436 286.008 148.57 285.281 147.458C284.689 146.555 283.953 145.796 283.073 145.182C281.612 144.163 279.775 143.653 277.56 143.653C274.46 143.653 271.992 144.75 270.155 146.943C268.317 149.137 267.399 152.207 267.399 156.15C267.399 160.094 268.317 163.175 270.155 165.391C271.992 167.608 274.46 168.715 277.56 168.715C281.114 168.715 283.693 167.448 285.297 164.913C286.006 163.792 287.142 162.931 288.468 162.931H290.238C292.339 162.931 293.866 164.969 292.839 166.804C291.739 168.769 290.278 170.437 288.454 171.806C285.531 174 281.9 175.097 277.56 175.097C274.063 175.097 270.963 174.311 268.262 172.737C265.561 171.165 263.447 168.948 261.919 166.089C260.392 163.231 259.629 159.918 259.629 156.15C259.629 152.383 260.392 149.07 261.919 146.211Z" fill="white"/>
<path d="M300.075 156.017C300.075 152.339 300.828 149.081 302.333 146.245C303.884 143.409 305.964 141.215 308.577 139.664C311.233 138.068 314.156 137.271 317.344 137.271C320.222 137.271 322.724 137.847 324.849 138.999C326.35 139.765 327.64 140.67 328.717 141.712C329.176 142.157 330.03 141.849 330.03 141.21C330.03 139.365 331.524 137.869 333.368 137.869H334.273C336.148 137.869 337.667 139.39 337.667 141.266V171.101C337.667 172.977 336.147 174.498 334.273 174.498H333.424C331.549 174.498 330.029 172.977 330.029 171.1C330.029 170.446 329.148 170.133 328.681 170.591C327.6 171.652 326.3 172.578 324.782 173.368C322.568 174.52 320.044 175.097 317.21 175.097C314.067 175.097 311.189 174.299 308.576 172.703C305.964 171.064 303.883 168.803 302.333 165.923C300.827 162.998 300.075 159.696 300.075 156.017H300.075ZM330.03 156.15C330.03 153.624 329.499 151.43 328.436 149.569C327.418 147.708 326.067 146.289 324.385 145.314C322.702 144.339 320.887 143.851 318.938 143.851C316.99 143.851 315.175 144.339 313.492 145.314C311.809 146.244 310.437 147.64 309.374 149.502C308.356 151.32 307.846 153.491 307.846 156.017C307.846 158.544 308.356 160.76 309.374 162.665C310.436 164.571 311.809 166.034 313.492 167.053C315.219 168.028 317.034 168.516 318.938 168.516C320.887 168.516 322.702 168.028 324.385 167.053C326.068 166.078 327.418 164.66 328.436 162.798C329.499 160.892 330.03 158.676 330.03 156.15Z" fill="white"/>
<path d="M352.013 125.304C349.923 125.304 348.228 126.99 348.228 129.068V170.734C348.228 172.813 349.923 174.498 352.013 174.498C354.103 174.498 355.8 172.812 355.8 170.734V129.068C355.8 126.989 354.105 125.304 352.013 125.304Z" fill="white"/>
<path d="M370.144 125.304C368.054 125.304 366.359 126.99 366.359 129.068V170.734C366.359 172.813 368.054 174.498 370.144 174.498C372.234 174.498 373.931 172.812 373.931 170.734V129.068C373.931 126.989 372.236 125.304 370.144 125.304Z" fill="white"/>
<path d="M390.999 172.736C388.211 171.164 386.018 168.947 384.424 166.089C382.83 163.23 382.033 159.917 382.033 156.15C382.033 152.427 382.852 149.126 384.49 146.245C386.128 143.364 388.365 141.149 391.199 139.597C394.032 138.046 397.198 137.27 400.696 137.27C404.195 137.27 407.36 138.046 410.194 139.597C413.028 141.149 415.264 143.364 416.903 146.245C418.54 149.126 419.36 152.427 419.36 156.15C419.36 159.872 418.518 163.175 416.836 166.055C415.153 168.937 412.862 171.164 409.962 172.736C407.061 174.31 403.862 175.096 400.365 175.096C396.911 175.096 393.789 174.31 391 172.736L390.999 172.736ZM405.844 167.12C407.548 166.189 408.932 164.793 409.995 162.931C411.058 161.069 411.589 158.81 411.589 156.15C411.589 153.491 411.08 151.242 410.061 149.403C409.042 147.565 407.692 146.179 406.01 145.248C404.327 144.317 402.512 143.852 400.564 143.852C398.616 143.852 396.811 144.317 395.15 145.248C393.49 146.179 392.172 147.565 391.199 149.403C390.224 151.242 389.738 153.491 389.738 156.15C389.738 160.096 390.745 163.142 392.76 165.291C394.775 167.442 397.31 168.516 400.365 168.516C402.313 168.516 404.14 168.05 405.845 167.12L405.844 167.12Z" fill="white"/>
<path d="M435.033 142.275C435.033 142.591 435.446 142.735 435.655 142.499C436.863 141.141 438.405 139.974 440.28 138.998C442.495 137.846 444.996 137.27 447.786 137.27C450.973 137.27 453.874 138.068 456.486 139.663C459.143 141.215 461.224 143.408 462.73 146.245C464.235 149.081 464.988 152.338 464.988 156.017C464.988 159.695 464.235 162.997 462.73 165.922C461.224 168.803 459.143 171.063 456.486 172.703C453.874 174.298 450.973 175.096 447.786 175.096C444.996 175.096 442.516 174.542 440.347 173.434C438.618 172.516 437.143 171.43 435.921 170.174C435.61 169.854 435.034 170.067 435.034 170.513V188.127C435.034 190.219 433.339 191.916 431.248 191.916C429.158 191.916 427.463 190.219 427.463 188.127V141.658C427.463 139.565 429.158 137.869 431.248 137.869C433.339 137.869 435.034 139.565 435.034 141.658L435.033 142.275ZM457.283 156.017C457.283 153.491 456.752 151.32 455.689 149.502C454.671 147.641 453.298 146.245 451.572 145.315C449.889 144.339 448.074 143.852 446.125 143.852C444.221 143.852 442.406 144.339 440.679 145.315C438.996 146.29 437.624 147.708 436.561 149.569C435.543 151.43 435.034 153.624 435.034 156.15C435.034 158.677 435.543 160.893 436.561 162.798C437.624 164.66 438.997 166.078 440.679 167.053C442.406 168.028 444.221 168.515 446.125 168.515C448.074 168.515 449.889 168.028 451.572 167.053C453.298 166.034 454.671 164.571 455.689 162.665C456.752 160.759 457.283 158.544 457.283 156.017Z" fill="white"/>
</svg>
