<svg width="302" height="202" viewBox="0 0 302 202" fill="none" xmlns="http://www.w3.org/2000/svg">
<path d="M293 0.5C297.694 0.5 301.5 4.30558 301.5 9V193C301.5 197.694 297.694 201.5 293 201.5H9C4.30558 201.5 0.5 197.694 0.5 193V9C0.500002 4.30558 4.30558 0.5 9 0.5H293Z" fill="#1E2D45"/>
<path d="M293 0.5C297.694 0.5 301.5 4.30558 301.5 9V193C301.5 197.694 297.694 201.5 293 201.5H9C4.30558 201.5 0.5 197.694 0.5 193V9C0.500002 4.30558 4.30558 0.5 9 0.5H293Z" stroke="#ABB0C0"/>
<path d="M1 9C1 4.58173 4.58172 1 9 1H293C297.418 1 301 4.58172 301 9V193C301 197.418 297.418 201 293 201H8.99999C4.58171 201 1 197.418 1 193V9Z" fill="#1E2D45"/>
<path d="M74.6802 137C94.5624 137 110.68 120.882 110.68 101C110.68 81.1178 94.5624 65 74.6802 65C54.7979 65 38.6802 81.1178 38.6802 101C38.6802 120.882 54.7979 137 74.6802 137Z" fill="#F1D6C8"/>
<path d="M96.1938 91.9448C98.2989 90.0617 100.514 87.021 99.4408 85.5211C98.3679 84.0211 92.6001 84.0245 90.6086 84.4263C88.0236 81.9807 85.3449 79.1831 78.2865 80.9362C76.8911 79.317 73.7291 77.1125 72.5697 77.6309C70.2457 78.5963 69.2983 83.9126 69.2983 83.9126C62.7613 85.6265 56.348 88.9838 54.769 89.8933C51.8177 91.481 48.7562 94.5854 49.8509 99.1733C47.1186 101.678 46.4743 113.007 54.7385 115.33C58.0998 120.178 61.0045 119.959 64.7445 119.893C65.9106 122.775 70.326 126.37 76.5063 122.575C80.694 123.481 85.7786 123.696 89.6749 119.738C94.9792 119.554 101.482 114.897 99.6977 107.128C102.944 102.501 96.7162 92.9113 96.1941 91.9448H96.1938Z" fill="black"/>
<path d="M88.7973 119.001C88.7545 119.046 88.71 119.09 88.6655 119.135C88.7097 119.091 88.7535 119.047 88.7973 119.001Z" fill="white"/>
<path d="M98.8915 100.399C94.6331 89.1168 88.4722 83.0424 85.0333 81.9909C81.2377 80.8221 77.4191 82.3294 68.6541 85.2908C59.3628 88.4303 52.9886 91.1057 51.2978 95.0051C49.6639 98.7729 52.6852 103.531 56.3736 104.331C56.3154 103.806 56.4078 103.055 56.4272 102.935C56.529 102.299 57.7055 97.0368 63.7126 94.7519C60.0835 96.7857 55.5264 102.02 58.0216 106.751C59.329 108.416 61.5563 109.67 65.2139 108.73C65.5354 103.859 69.3286 97.8734 74.1201 93.8719C70.9324 97.6041 67.0343 102.807 66.4838 107.769C66.4399 108.157 66.4292 109.923 67.388 111.181C70.4294 114.023 76.1555 115.218 79.6343 111.343C83.1392 107.034 82.313 99.0589 81.8121 94.8966C83.3509 100.442 83.603 106.728 81.1292 110.893C83.1563 112.964 86.8879 113.314 90.2709 110.55C92.5153 105.338 92.4687 98.6728 87.9016 92.5457C92.6168 98.1299 93.0836 102.755 91.6386 109.946C96.0085 108.765 101.137 107.495 98.8921 100.399L98.8915 100.399Z" fill="#ABB0C0"/>
<path d="M54.8622 109.591C52.7856 108.986 49.4076 106.221 49.5081 102.576C49.0212 104.718 48.3306 112.081 55.4138 114.381C54.6757 112.855 54.6807 111.069 54.8622 109.591Z" fill="#ABB0C0"/>
<path d="M63.955 114.567C61.425 114.743 56.7617 112.511 56.2243 109.542C55.5408 110.365 54.6764 113.519 56.5796 115.953C59.0557 118.911 61.4789 118.964 64.9979 118.746C64.1851 117.242 63.9145 115.819 63.9554 114.567L63.955 114.567Z" fill="#ABB0C0"/>
<path d="M89.9351 115.279C89.9351 115.279 89.9351 115.278 89.9351 115.277C88.2235 117.148 83.5214 118.319 79.3467 116.387C79.2781 117.552 77.9623 120.292 76.5625 121.364C79.2891 121.998 84.5984 123.161 88.6307 119.17C89.5506 117.824 89.8899 116.463 89.9354 115.278L89.9351 115.279Z" fill="#ABB0C0"/>
<path d="M64.8442 114.627C64.654 116.558 64.9487 117.956 65.3683 119.093C66.4714 121.39 70.3095 125.15 76.1971 121.534C77.7081 120.253 78.0754 118.242 78.0369 116.84C75.2514 118.952 67.1659 118.861 64.8442 114.627Z" fill="#ABB0C0"/>
<path d="M90.878 114.963V114.963C90.8556 115.769 90.5706 117.042 89.1333 118.654C94.1381 118.59 97.8952 115.164 98.576 111.619C97.0794 113.961 93.6134 115.412 90.878 114.963Z" fill="#ABB0C0"/>
<path d="M65.2663 118.804C65.2582 118.78 65.2499 118.755 65.2422 118.731C65.2502 118.755 65.2582 118.78 65.2663 118.804Z" fill="#717071"/>
<path d="M76.1968 121.534C76.723 121.211 77.0321 120.683 77.2924 120.173C77.0221 120.67 76.6644 121.138 76.1968 121.534Z" fill="#717071"/>
<path d="M49.3187 106.857C49.6656 109.693 51.0939 112.979 55.4132 114.382C55.1363 113.809 54.9638 113.199 54.866 112.583C51.3474 112.521 49.6891 108.587 49.3184 106.857L49.3187 106.857Z" fill="#858B97"/>
<path d="M55.4487 113.042C55.5355 114.005 55.859 115.031 56.58 115.953C59.0561 118.911 61.4793 118.964 64.9983 118.746C64.7749 118.333 64.5941 117.926 64.4477 117.527C58.0401 118.387 56.1654 114.882 55.4491 113.043L55.4487 113.042Z" fill="#858B97"/>
<path d="M77.293 120.173C77.3208 120.118 77.3489 120.064 77.3757 120.009C75.9341 121.1 74.4489 122.006 71.2594 121.869C67.3915 121.561 65.5426 119.607 64.9673 117.692C64.9904 117.807 65.0158 117.918 65.0423 118.028C65.0487 118.055 65.055 118.081 65.0617 118.107C65.116 118.324 65.1766 118.531 65.2416 118.731C65.2496 118.755 65.2576 118.78 65.2657 118.804C65.2985 118.902 65.332 118.999 65.3668 119.093C66.4699 121.39 70.308 125.149 76.1956 121.534C76.6638 121.137 77.0218 120.67 77.2924 120.172L77.293 120.173Z" fill="#858B97"/>
<path d="M88.6299 119.17C88.9685 118.675 89.228 118.177 89.4236 117.688C85.0074 121.984 79.1497 120.711 77.8694 119.887C77.4699 120.482 77.0208 121.013 76.562 121.364C79.2886 121.998 84.5975 123.161 88.6299 119.17Z" fill="#858B97"/>
<path d="M90.0906 117.38C89.8491 117.776 89.5363 118.202 89.1328 118.654C93.2204 118.602 96.4745 116.307 97.9014 113.536C96.3556 116.453 91.4405 117.519 90.0906 117.38V117.38Z" fill="#858B97"/>
<path d="M50.3482 100.477C49.8258 101.164 49.6613 101.966 49.6613 101.966C49.5284 104.179 52.6418 109.381 56.6229 108.866C56.7923 111.775 62.266 114.979 64.7847 113.543C66.5247 117.675 75.4283 118.742 78.9329 115.351C81.052 117.299 88.5802 117.067 90.1377 113.956C92.5321 115.247 97.7657 113.013 98.7727 110.263C98.985 109.23 98.683 108.201 98.683 108.201C97.5993 109.535 93.9765 112.205 91.1735 111.3C89.0718 113.228 84.2719 115.134 80.5915 112.017C76.3536 117.401 66.3797 114.512 65.4856 109.85C62.6957 110.599 57.4524 110.348 56.2816 105.496C55.416 105.134 52.4151 104.63 50.3482 100.477Z" fill="#1E2D45"/>
<path d="M70.6099 83.4313C72.1148 82.8627 75.237 81.8851 77.0818 81.351C76.0122 80.2462 73.663 78.555 72.9996 78.7007C72.0458 78.9643 70.9417 81.8734 70.6099 83.4313Z" fill="white"/>
<path d="M91.5273 85.4322C93.616 87.7205 95.268 90.428 95.6056 90.9296C97.0553 89.7067 99.0619 86.6036 98.444 86.1488C97.2455 85.2664 93.0095 85.2246 91.5273 85.4322Z" fill="white"/>
<path d="M68.0037 85.5116C67.8898 85.5505 67.7763 85.5893 67.6634 85.6278C67.6072 85.6469 67.5512 85.6664 67.4953 85.6854C67.3825 85.7243 67.2699 85.7628 67.1577 85.8016C67.1068 85.8191 67.0559 85.8368 67.0054 85.8542C66.8473 85.9088 66.6896 85.9634 66.5335 86.018C66.5282 86.02 66.5228 86.0217 66.5174 86.0237C66.3644 86.0769 66.2124 86.1302 66.0613 86.1834C66.0118 86.2008 65.9629 86.2182 65.9133 86.2357C65.8052 86.2738 65.697 86.312 65.5898 86.3502C65.5369 86.3689 65.4843 86.3877 65.4314 86.4064C65.3229 86.4453 65.2148 86.4838 65.1073 86.5223C65.061 86.5391 65.0145 86.5555 64.9686 86.5722C64.6662 86.6811 64.3675 86.7899 64.0731 86.8984C64.0279 86.9151 63.9834 86.9315 63.9385 86.9483C63.8354 86.9865 63.7326 87.0246 63.6304 87.0628C63.5805 87.0812 63.531 87.1 63.4814 87.1184C63.3789 87.1569 63.2771 87.1951 63.1756 87.2336C63.1324 87.25 63.0892 87.2661 63.046 87.2825C62.9034 87.3368 62.7614 87.391 62.6207 87.4449H62.6201C62.4804 87.4988 62.3418 87.5528 62.2041 87.6063C62.1633 87.6224 62.1228 87.6381 62.0822 87.6542C61.9838 87.6931 61.8857 87.7316 61.7882 87.7704C61.743 87.7885 61.6978 87.8063 61.6526 87.8243C61.5558 87.8629 61.46 87.9014 61.3646 87.9402C61.3247 87.9563 61.2846 87.9724 61.2447 87.9888C60.9781 88.0969 60.7163 88.2051 60.4587 88.3136C60.4219 88.329 60.3851 88.3448 60.3486 88.3602C60.2558 88.3993 60.1637 88.4385 60.0723 88.4777C60.0311 88.4955 59.9899 88.5132 59.9487 88.5309C59.8576 88.5705 59.7669 88.6096 59.6771 88.6492C59.6416 88.6646 59.6061 88.68 59.571 88.6957C59.3238 88.8046 59.081 88.9137 58.8433 89.0232C58.8091 89.039 58.7753 89.0547 58.7411 89.0704C58.6557 89.11 58.571 89.1495 58.4866 89.1893C58.4488 89.2071 58.4109 89.2248 58.3734 89.2429C58.2897 89.2828 58.2063 89.3226 58.1239 89.3625C58.0914 89.3782 58.0586 89.3939 58.0261 89.4097C57.7994 89.5199 57.5774 89.6307 57.3601 89.7419C57.3292 89.7576 57.2988 89.7737 57.268 89.7894C57.1899 89.8296 57.1122 89.8701 57.0356 89.9103C57.0014 89.9284 56.9672 89.9465 56.9331 89.9646C56.8564 90.0054 56.7804 90.046 56.705 90.0868C56.6759 90.1026 56.6467 90.1183 56.6179 90.134C56.4123 90.2462 56.2117 90.3594 56.0162 90.4729C55.988 90.4893 55.9602 90.5058 55.9321 90.5222C55.8621 90.5634 55.7925 90.6042 55.7238 90.6457C55.6933 90.6642 55.6629 90.6826 55.6324 90.701C55.5634 90.7429 55.4951 90.7851 55.4271 90.8269C55.4017 90.8427 55.3755 90.8587 55.3504 90.8745C55.258 90.9324 55.1669 90.9903 55.0771 91.0486C58.7739 89.3062 71.3773 84.6697 77.6868 89.3779C83.9964 94.086 92.261 88.5808 87.9222 83.6252C86.8446 82.7884 85.8593 82.2442 85.0322 81.9913C81.2366 80.8226 77.4179 82.3299 68.653 85.2913C68.4882 85.3469 68.3248 85.4025 68.1621 85.4577C68.1092 85.4758 68.0566 85.4936 68.0037 85.5116Z" fill="white"/>
<path d="M69.697 98.4917C66.0019 103.143 65.0428 106.627 62.7767 107.037C60.9693 107.364 58.8036 107.586 57.3931 104.922C57.4982 105.535 57.7015 106.147 58.02 106.751C59.3274 108.416 61.5547 109.671 65.2123 108.73C65.4249 105.506 67.1596 101.794 69.6974 98.4917H69.697Z" fill="#858B97"/>
<path d="M66.6323 109.511C66.7643 110.066 66.994 110.667 67.3865 111.182C70.4279 114.023 76.1541 115.218 79.6328 111.343C81.5983 108.927 82.2014 105.358 82.264 101.955C79.955 114.005 68.3895 114.589 66.6323 109.511Z" fill="#858B97"/>
<path d="M90.5242 109.922C90.5651 109.817 90.6056 109.711 90.6445 109.605C90.6679 109.54 90.6903 109.475 90.7131 109.41C90.7469 109.314 90.7804 109.218 90.8126 109.121C90.836 109.051 90.8585 108.98 90.8812 108.909C90.9107 108.817 90.9398 108.724 90.968 108.631C90.9904 108.557 91.0122 108.482 91.0336 108.408C91.0597 108.317 91.0848 108.227 91.1093 108.136C91.1304 108.058 91.1508 107.981 91.1709 107.903C91.1937 107.814 91.2154 107.724 91.2369 107.635C91.256 107.554 91.2754 107.474 91.2935 107.393C91.3132 107.306 91.3317 107.217 91.3501 107.129C91.3675 107.046 91.3852 106.963 91.4013 106.88C91.4181 106.794 91.4328 106.708 91.4482 106.621C91.4636 106.534 91.48 106.448 91.4941 106.361C91.5061 106.287 91.5162 106.212 91.5272 106.137C91.5577 105.933 91.5848 105.727 91.6083 105.521C91.6146 105.463 91.6223 105.406 91.6284 105.349C91.6394 105.24 91.6485 105.131 91.6575 105.022C91.6632 104.956 91.6692 104.89 91.6742 104.824C91.6823 104.715 91.688 104.605 91.694 104.495C91.6977 104.429 91.7014 104.363 91.7044 104.297C91.7091 104.186 91.7121 104.074 91.7148 103.962C91.7161 103.898 91.7178 103.833 91.7184 103.769C91.7198 103.654 91.7198 103.539 91.7188 103.424C91.7181 103.363 91.7174 103.302 91.7161 103.241C91.7138 103.122 91.7107 103.002 91.7057 102.883C91.7034 102.828 91.7007 102.772 91.6977 102.717C91.6913 102.591 91.6846 102.465 91.6752 102.338C91.6722 102.294 91.6682 102.25 91.6645 102.206C91.6535 102.068 91.6418 101.929 91.6274 101.79C91.6257 101.775 91.6237 101.759 91.622 101.743C91.5497 101.067 91.4368 100.386 91.2797 99.7018C91.2784 99.6961 91.2774 99.69 91.2761 99.6843C91.2399 99.5283 91.2007 99.3719 91.1602 99.2155C91.1535 99.1897 91.1471 99.1636 91.1401 99.1378C91.1006 98.9888 91.0584 98.8398 91.0149 98.6907C91.0055 98.6583 90.9961 98.6258 90.9864 98.5933C90.9422 98.4463 90.896 98.2989 90.8477 98.1519C90.837 98.1191 90.826 98.0863 90.8153 98.0535C90.7654 97.9041 90.7135 97.7551 90.6592 97.6057C90.6492 97.5786 90.6391 97.5515 90.6291 97.5243C90.5715 97.3686 90.5122 97.2126 90.4499 97.0568C90.4449 97.0438 90.4392 97.0311 90.4342 97.018C90.0829 96.1466 89.6549 95.2763 89.1439 94.4126C91.6277 100.765 91.1043 108.442 86.9715 110.63C85.4662 111.427 83.3561 111.916 81.2888 110.613C81.2882 110.613 81.2875 110.613 81.2868 110.612C81.2349 110.706 81.183 110.801 81.1284 110.893C83.1555 112.964 86.8871 113.314 90.2701 110.55C90.3367 110.395 90.4013 110.239 90.464 110.081C90.4847 110.029 90.5045 109.975 90.5249 109.922H90.5242Z" fill="#858B97"/>
<path d="M98.8913 100.4C96.8719 95.0491 94.4246 90.8708 92.0426 87.8428C96.1764 95.6824 98.5048 101.237 96.818 105.19C96.1703 106.533 95.2893 108.323 92.1879 109.131C92.134 109.147 91.8845 109.128 91.838 109.15C91.7931 109.393 91.6876 109.697 91.6377 109.946C93.4521 111.079 101.703 107.818 98.8913 100.399V100.4Z" fill="#858B97"/>
<path d="M97.8923 88.0971C95.3107 89.4789 92.6447 86.2764 91.5269 85.4321C93.6155 87.7204 95.2675 90.4279 95.6051 90.9296C96.3679 90.2859 97.2845 89.1219 97.8923 88.0971Z" fill="#858B97"/>
<path d="M59.3792 97.5347C55.7618 101.192 53.3158 101.85 51.6484 100.43C52.6317 102.355 54.4072 103.905 56.372 104.331C56.3137 103.805 56.4061 103.055 56.4256 102.935C56.4955 102.498 57.0732 99.8742 59.3792 97.5347Z" fill="#858B97"/>
<path d="M125.697 114.351C124.259 113.722 123.13 112.83 122.308 111.674C121.486 110.518 121.076 109.17 121.076 107.63H125.774C125.877 108.785 126.333 109.736 127.141 110.48C127.95 111.225 129.086 111.596 130.55 111.596C132.065 111.596 133.246 111.231 134.093 110.499C134.94 109.767 135.364 108.824 135.364 107.668C135.364 106.769 135.101 106.037 134.575 105.473C134.048 104.908 133.393 104.471 132.61 104.163C131.826 103.855 130.742 103.522 129.356 103.162C127.609 102.7 126.191 102.231 125.1 101.756C124.008 101.281 123.077 100.543 122.307 99.5417C121.537 98.5404 121.152 97.2055 121.152 95.5361C121.152 93.9957 121.537 92.6474 122.307 91.4921C123.077 90.3367 124.156 89.451 125.542 88.8344C126.929 88.2182 128.533 87.9102 130.357 87.9102C132.95 87.9102 135.075 88.5588 136.731 89.8552C138.387 91.1518 139.305 92.9301 139.485 95.1892H134.632C134.555 94.2137 134.093 93.3791 133.245 92.6856C132.398 91.9924 131.281 91.6458 129.895 91.6458C128.636 91.6458 127.609 91.9673 126.814 92.6086C126.017 93.2509 125.619 94.1752 125.619 95.3817C125.619 96.2039 125.87 96.8777 126.37 97.4038C126.871 97.9302 127.506 98.3475 128.277 98.6556C129.047 98.9637 130.1 99.2979 131.435 99.6569C133.207 100.145 134.651 100.633 135.767 101.12C136.885 101.609 137.834 102.359 138.618 103.374C139.4 104.388 139.792 105.742 139.792 107.437C139.792 108.798 139.426 110.082 138.694 111.288C137.963 112.496 136.897 113.465 135.497 114.196C134.098 114.928 132.448 115.294 130.549 115.294C128.751 115.294 127.133 114.98 125.696 114.35L125.697 114.351Z" fill="white"/>
<path d="M145.204 98.6365C146.091 96.9805 147.316 95.7036 148.882 94.8045C150.448 93.906 152.246 93.4565 154.274 93.4565C156.842 93.4565 158.967 94.0667 160.649 95.286C162.331 96.5057 163.466 98.2457 164.057 100.505H159.32C158.935 99.4523 158.319 98.6308 157.471 98.0401C156.624 97.4497 155.558 97.1543 154.274 97.1543C152.476 97.1543 151.046 97.7899 149.98 99.0608C148.914 100.332 148.382 102.11 148.382 104.395C148.382 106.679 148.914 108.465 149.98 109.749C151.046 111.033 152.477 111.674 154.274 111.674C156.816 111.674 158.498 110.557 159.32 108.323H164.057C163.441 110.48 162.286 112.194 160.591 113.465C158.897 114.736 156.791 115.372 154.274 115.372C152.246 115.372 150.448 114.916 148.882 114.004C147.316 113.093 146.09 111.809 145.204 110.153C144.319 108.497 143.876 106.578 143.876 104.395C143.876 102.212 144.319 100.293 145.204 98.6369V98.6365Z" fill="white"/>
<path d="M168.659 98.6559C169.545 97.013 170.752 95.7354 172.279 94.8239C173.807 93.9127 175.495 93.4565 177.344 93.4565C179.013 93.4565 180.47 93.7841 181.716 94.4388C182.961 95.0935 183.956 95.9089 184.701 96.8844V93.8031H189.13V115.025H184.701V111.867C183.956 112.868 182.942 113.703 181.658 114.37C180.374 115.037 178.91 115.371 177.267 115.371C175.444 115.371 173.775 114.903 172.26 113.965C170.745 113.028 169.545 111.719 168.659 110.037C167.773 108.356 167.331 106.449 167.331 104.318C167.331 102.187 167.773 100.3 168.659 98.6559ZM183.796 100.582C183.192 99.5032 182.403 98.6817 181.427 98.1168C180.451 97.5522 179.398 97.2695 178.269 97.2695C177.139 97.2695 176.086 97.5458 175.111 98.0977C174.135 98.6503 173.345 99.459 172.742 100.524C172.138 101.59 171.837 102.854 171.837 104.318C171.837 105.781 172.138 107.066 172.742 108.169C173.345 109.273 174.141 110.114 175.13 110.692C176.118 111.27 177.165 111.559 178.269 111.559C179.398 111.559 180.451 111.276 181.427 110.711C182.402 110.147 183.192 109.319 183.796 108.227C184.399 107.136 184.701 105.858 184.701 104.395C184.701 102.931 184.399 101.66 183.796 100.582Z" fill="white"/>
<path d="M199.645 86.5239V115.025H195.254V86.5239H199.645Z" fill="white"/>
<path d="M210.158 86.5239V115.025H205.767V86.5239H210.158Z" fill="white"/>
<path d="M220.055 114.004C218.438 113.093 217.167 111.809 216.242 110.153C215.318 108.497 214.856 106.577 214.856 104.395C214.856 102.238 215.331 100.325 216.281 98.6559C217.231 96.9872 218.528 95.7036 220.171 94.8044C221.814 93.906 223.65 93.4565 225.678 93.4565C227.707 93.4565 229.543 93.906 231.186 94.8044C232.829 95.7036 234.126 96.9872 235.076 98.6559C236.026 100.325 236.501 102.238 236.501 104.395C236.501 106.551 236.013 108.464 235.038 110.133C234.062 111.803 232.733 113.093 231.052 114.004C229.369 114.916 227.514 115.371 225.486 115.371C223.484 115.371 221.673 114.916 220.056 114.004L220.055 114.004ZM228.664 110.75C229.651 110.21 230.455 109.401 231.071 108.323C231.687 107.244 231.995 105.935 231.995 104.395C231.995 102.854 231.7 101.551 231.109 100.485C230.518 99.4205 229.735 98.6174 228.76 98.0783C227.784 97.5391 226.731 97.2695 225.602 97.2695C224.472 97.2695 223.425 97.5391 222.463 98.0783C221.5 98.6174 220.736 99.4205 220.171 100.485C219.606 101.551 219.324 102.854 219.324 104.395C219.324 106.68 219.908 108.445 221.076 109.69C222.245 110.936 223.715 111.559 225.486 111.559C226.616 111.559 227.675 111.289 228.664 110.75L228.664 110.75Z" fill="white"/>
<path d="M248.634 94.4578C249.917 93.7904 251.368 93.4565 252.986 93.4565C254.834 93.4565 256.522 93.9127 258.05 94.8239C259.578 95.7354 260.778 97.0133 261.652 98.6559C262.524 100.3 262.961 102.187 262.961 104.318C262.961 106.449 262.524 108.356 261.652 110.037C260.778 111.719 259.578 113.028 258.05 113.965C256.522 114.903 254.834 115.371 252.986 115.371C251.368 115.371 249.93 115.044 248.672 114.389C247.414 113.734 246.386 112.92 245.591 111.943V125.115H241.2V93.8031H245.591V96.9229C246.335 95.9474 247.349 95.1259 248.634 94.4578ZM257.588 100.524C256.984 99.4587 256.188 98.6499 255.2 98.0974C254.212 97.5455 253.152 97.2692 252.023 97.2692C250.919 97.2692 249.872 97.5522 248.884 98.1164C247.895 98.6814 247.099 99.5029 246.496 100.581C245.892 101.66 245.591 102.93 245.591 104.394C245.591 105.858 245.892 107.135 246.496 108.226C247.099 109.318 247.895 110.146 248.884 110.711C249.872 111.276 250.919 111.558 252.023 111.558C253.152 111.558 254.212 111.269 255.2 110.691C256.188 110.114 256.985 109.273 257.588 108.169C258.191 107.065 258.493 105.781 258.493 104.317C258.493 102.853 258.191 101.589 257.588 100.524V100.524Z" fill="white"/>
<circle cx="25" cy="177" r="14" fill="white" stroke="white" stroke-width="2"/>
<path fill-rule="evenodd" clip-rule="evenodd" d="M12 177C12 169.82 17.8203 164 25 164C32.1797 164 38 169.82 38 177C38 184.18 32.1797 190 25 190C17.8203 190 12 184.18 12 177ZM29.8137 174.581C30.1347 174.132 30.0307 173.507 29.5812 173.186C29.1318 172.865 28.5073 172.969 28.1863 173.419L23.8724 179.458L21.7071 177.293C21.3166 176.902 20.6834 176.902 20.2929 177.293C19.9024 177.683 19.9024 178.317 20.2929 178.707L23.2929 181.707C23.5007 181.915 23.7895 182.021 24.0825 181.997C24.3754 181.972 24.6429 181.82 24.8137 181.581L29.8137 174.581Z" fill="#7BBBA7"/>
</svg>
