<svg width="302" height="202" viewBox="0 0 302 202" fill="none" xmlns="http://www.w3.org/2000/svg">
<path d="M293 0.5C297.694 0.5 301.5 4.30558 301.5 9V193C301.5 197.694 297.694 201.5 293 201.5H9C4.30558 201.5 0.5 197.694 0.5 193V9C0.500002 4.30558 4.30558 0.5 9 0.5H293Z" fill="#1E2D45"/>
<path d="M293 0.5C297.694 0.5 301.5 4.30558 301.5 9V193C301.5 197.694 297.694 201.5 293 201.5H9C4.30558 201.5 0.5 197.694 0.5 193V9C0.500002 4.30558 4.30558 0.5 9 0.5H293Z" stroke="#ABB0C0"/>
<path d="M1 9C1 4.58173 4.58172 1 9 1H293C297.418 1 301 4.58172 301 9V193C301 197.418 297.418 201 293 201H8.99999C4.58171 201 1 197.418 1 193V9Z" fill="#1E2D45"/>
<path d="M74.8731 137C94.7553 137 110.873 120.882 110.873 101C110.873 81.1178 94.7553 65 74.8731 65C54.9908 65 38.873 81.1178 38.873 101C38.873 120.882 54.9908 137 74.8731 137Z" fill="#F1D6C8"/>
<path d="M62.6933 79.6291C62.4602 77.7139 61.9294 75.7706 60.7818 74.196C60.617 73.9753 60.4372 73.767 60.2443 73.5717C60.0829 73.3882 60.3461 73.1491 60.5132 73.3299C61.9776 75 62.5526 77.4611 62.6933 79.6291Z" fill="#F7E8A4"/>
<path style="mix-blend-mode:multiply" opacity="0.8" d="M60.3825 74.1766C60.7809 74.1766 61.1038 73.8536 61.1038 73.4552C61.1038 73.0568 60.7809 72.7339 60.3825 72.7339C59.9841 72.7339 59.6611 73.0568 59.6611 73.4552C59.6611 73.8536 59.9841 74.1766 60.3825 74.1766Z" fill="url(#paint0_radial_968_3609)"/>
<path d="M63.5059 81.5851C61.6034 79.0206 58.6896 74.6952 55.7995 73.4016C55.7084 73.3581 55.5674 73.3058 55.4737 73.268C55.338 73.2214 55.2667 73.0701 55.32 72.9364C55.3712 72.8068 55.5175 72.7435 55.6471 72.7944C55.6502 72.7958 55.6538 72.7971 55.6568 72.7985L55.8333 72.8768C55.8782 72.8956 55.9646 72.9371 56.0075 72.9595C58.9431 74.424 61.6573 78.8572 63.5059 81.5848V81.5851Z" fill="white"/>
<path d="M61.8243 80.2974C60.6649 78.7553 59.2333 77.3377 57.452 76.5477C57.1989 76.4392 56.939 76.3485 56.6744 76.2758C56.4427 76.1978 56.5512 75.8589 56.7866 75.9322C58.89 76.6462 60.6184 78.49 61.8243 80.2974Z" fill="#F7E8A4"/>
<path style="mix-blend-mode:multiply" opacity="0.8" d="M55.5943 73.9341C56.1029 73.9341 56.5152 73.5218 56.5152 73.0132C56.5152 72.5046 56.1029 72.0923 55.5943 72.0923C55.0857 72.0923 54.6733 72.5046 54.6733 73.0132C54.6733 73.5218 55.0857 73.9341 55.5943 73.9341Z" fill="url(#paint1_radial_968_3609)"/>
<path style="mix-blend-mode:multiply" opacity="0.8" d="M56.736 76.827C57.1344 76.827 57.4573 76.504 57.4573 76.1056C57.4573 75.7072 57.1344 75.3843 56.736 75.3843C56.3376 75.3843 56.0146 75.7072 56.0146 76.1056C56.0146 76.504 56.3376 76.827 56.736 76.827Z" fill="url(#paint2_radial_968_3609)"/>
<path d="M63.5058 81.5853C60.5749 80.3154 55.8915 78.0268 52.7403 78.351C52.6395 78.3587 52.4915 78.3841 52.3913 78.3982C52.2503 78.4256 52.113 78.3302 52.0926 78.1879C52.0722 78.0502 52.1673 77.922 52.3049 77.9015C52.3079 77.9012 52.3123 77.9005 52.3153 77.9002L52.5075 77.8798C52.5558 77.8737 52.6512 77.8664 52.6998 77.8644C55.9742 77.6648 60.5414 80.1469 63.5061 81.5849L63.5058 81.5853Z" fill="white"/>
<path d="M61.4053 81.311C59.63 80.5551 57.6817 80.0434 55.7441 80.2497C55.4705 80.2822 55.2002 80.3338 54.9346 80.4031C54.6949 80.4513 54.6195 80.1034 54.86 80.0495C57.0384 79.6161 59.4572 80.3488 61.4053 81.311Z" fill="#F7E8A4"/>
<path style="mix-blend-mode:multiply" opacity="0.8" d="M52.3677 79.0381C52.8763 79.0381 53.2886 78.6258 53.2886 78.1172C53.2886 77.6086 52.8763 77.1963 52.3677 77.1963C51.8591 77.1963 51.4468 77.6086 51.4468 78.1172C51.4468 78.6258 51.8591 79.0381 52.3677 79.0381Z" fill="url(#paint3_radial_968_3609)"/>
<path style="mix-blend-mode:multiply" opacity="0.8" d="M54.903 80.9461C55.3014 80.9461 55.6243 80.6231 55.6243 80.2248C55.6243 79.8264 55.3014 79.5034 54.903 79.5034C54.5046 79.5034 54.1816 79.8264 54.1816 80.2248C54.1816 80.6231 54.5046 80.9461 54.903 80.9461Z" fill="url(#paint4_radial_968_3609)"/>
<path d="M63.5057 81.5854C60.3324 81.9511 55.1323 82.3111 52.5654 84.1674C52.482 84.2243 52.3665 84.3204 52.2868 84.3831C52.1786 84.4775 52.0118 84.4634 51.9228 84.3502C51.8364 84.2411 51.8544 84.0827 51.9633 83.9959C51.966 83.9939 51.969 83.9916 51.9717 83.9896L52.128 83.8757C52.1669 83.8462 52.2459 83.7923 52.2868 83.7665C55.0228 81.9565 60.2192 81.8222 63.5057 81.5854Z" fill="white"/>
<path d="M61.5495 82.3979C59.6343 82.631 57.691 83.1618 56.1164 84.3095C55.8957 84.4742 55.6874 84.6541 55.4921 84.847C55.3086 85.0084 55.0695 84.7451 55.2504 84.578C56.9204 83.1136 59.3815 82.5386 61.5495 82.3979Z" fill="#F7E8A4"/>
<path style="mix-blend-mode:multiply" opacity="0.8" d="M52.126 85.0718C52.6346 85.0718 53.0469 84.6595 53.0469 84.1509C53.0469 83.6423 52.6346 83.23 52.126 83.23C51.6174 83.23 51.2051 83.6423 51.2051 84.1509C51.2051 84.6595 51.6174 85.0718 52.126 85.0718Z" fill="url(#paint5_radial_968_3609)"/>
<path style="mix-blend-mode:multiply" opacity="0.8" d="M55.3756 85.43C55.774 85.43 56.097 85.107 56.097 84.7086C56.097 84.3103 55.774 83.9873 55.3756 83.9873C54.9773 83.9873 54.6543 84.3103 54.6543 84.7086C54.6543 85.107 54.9773 85.43 55.3756 85.43Z" fill="url(#paint6_radial_968_3609)"/>
<path d="M63.5056 81.5854C60.941 83.4879 56.6157 86.4017 55.322 89.2918C55.2785 89.3829 55.2262 89.5239 55.1884 89.6176C55.1418 89.7533 54.9905 89.8246 54.8568 89.7713C54.7272 89.7201 54.664 89.5738 54.7149 89.4442C54.7162 89.4412 54.7175 89.4375 54.7189 89.4345L54.7972 89.258C54.816 89.2131 54.8575 89.1267 54.88 89.0838C56.3444 86.1482 60.7776 83.434 63.5052 81.5854H63.5056Z" fill="white"/>
<path d="M62.2173 83.2671C60.6752 84.4265 59.2576 85.8581 58.4676 87.6393C58.3591 87.8925 58.2684 88.1524 58.1957 88.4169C58.1177 88.6487 57.7788 88.5402 57.8521 88.3047C58.5661 86.2013 60.41 84.473 62.2173 83.2671Z" fill="#F7E8A4"/>
<path style="mix-blend-mode:multiply" opacity="0.8" d="M54.9331 90.418C55.4418 90.418 55.8541 90.0057 55.8541 89.4971C55.8541 88.9885 55.4418 88.5762 54.9331 88.5762C54.4245 88.5762 54.0122 88.9885 54.0122 89.4971C54.0122 90.0057 54.4245 90.418 54.9331 90.418Z" fill="url(#paint7_radial_968_3609)"/>
<path style="mix-blend-mode:multiply" opacity="0.8" d="M58.026 89.0765C58.4244 89.0765 58.7474 88.7535 58.7474 88.3551C58.7474 87.9567 58.4244 87.6338 58.026 87.6338C57.6276 87.6338 57.3047 87.9567 57.3047 88.3551C57.3047 88.7535 57.6276 89.0765 58.026 89.0765Z" fill="url(#paint8_radial_968_3609)"/>
<path d="M63.5057 81.5853C62.2358 84.5162 59.9472 89.1996 60.2714 92.3508C60.2791 92.4516 60.3045 92.5996 60.3186 92.6998C60.346 92.8407 60.2506 92.978 60.1083 92.9985C59.9706 93.0189 59.8424 92.9238 59.822 92.7862C59.8216 92.7831 59.8209 92.7788 59.8206 92.7758L59.8002 92.5835C59.7942 92.5353 59.7868 92.4399 59.7848 92.3913C59.5852 89.1168 62.0673 84.5497 63.5053 81.585L63.5057 81.5853Z" fill="white"/>
<path d="M63.2314 83.6855C62.4755 85.4608 61.9638 87.4091 62.1701 89.3468C62.2026 89.6204 62.2542 89.8906 62.3235 90.1562C62.3717 90.3959 62.0238 90.4713 61.9699 90.2308C61.5365 88.0521 62.2693 85.6336 63.2314 83.6855Z" fill="#F7E8A4"/>
<path style="mix-blend-mode:multiply" opacity="0.8" d="M60.0376 93.6436C60.5462 93.6436 60.9586 93.2313 60.9586 92.7227C60.9586 92.2141 60.5462 91.8018 60.0376 91.8018C59.529 91.8018 59.1167 92.2141 59.1167 92.7227C59.1167 93.2313 59.529 93.6436 60.0376 93.6436Z" fill="url(#paint9_radial_968_3609)"/>
<path style="mix-blend-mode:multiply" opacity="0.8" d="M62.1452 90.9095C62.5435 90.9095 62.8665 90.5865 62.8665 90.1881C62.8665 89.7898 62.5435 89.4668 62.1452 89.4668C61.7468 89.4668 61.4238 89.7898 61.4238 90.1881C61.4238 90.5865 61.7468 90.9095 62.1452 90.9095Z" fill="url(#paint10_radial_968_3609)"/>
<path d="M63.9642 79.5173C63.7245 77.359 63.8611 74.8339 65.0114 72.9341C65.139 72.7325 65.4374 72.906 65.3232 73.1173C65.1665 73.3464 65.0228 73.5845 64.8979 73.8336C64.0426 75.5847 63.8591 77.5907 63.9639 79.5173H63.9642Z" fill="#F7E8A4"/>
<path style="mix-blend-mode:multiply" opacity="0.8" d="M65.1618 73.7562C65.5602 73.7562 65.8831 73.4332 65.8831 73.0348C65.8831 72.6364 65.5602 72.3135 65.1618 72.3135C64.7634 72.3135 64.4404 72.6364 64.4404 73.0348C64.4404 73.4332 64.7634 73.7562 65.1618 73.7562Z" fill="url(#paint11_radial_968_3609)"/>
<path d="M63.5059 81.5855C64.8481 78.5812 66.7479 73.7392 69.3837 71.7838C69.4209 71.755 69.5009 71.6974 69.5405 71.6719L69.7005 71.5638C69.8161 71.4857 69.9725 71.5162 70.0505 71.6317C70.1305 71.7496 70.0957 71.912 69.9745 71.987C69.8834 72.044 69.7514 72.121 69.6654 72.1826C67.0456 73.9615 64.9341 78.7226 63.5059 81.5855Z" fill="white"/>
<path d="M64.937 80.0237C65.8084 78.0349 67.1894 75.916 69.1355 74.8464C69.3468 74.7356 69.5186 75.035 69.3139 75.1609C69.0635 75.2808 68.8203 75.4154 68.5876 75.5688C66.9714 76.6575 65.8094 78.3031 64.937 80.0237Z" fill="#F7E8A4"/>
<path style="mix-blend-mode:multiply" opacity="0.8" d="M69.7998 72.6846C70.3085 72.6846 70.7208 72.2723 70.7208 71.7637C70.7208 71.2551 70.3085 70.8428 69.7998 70.8428C69.2912 70.8428 68.8789 71.2551 68.8789 71.7637C68.8789 72.2723 69.2912 72.6846 69.7998 72.6846Z" fill="url(#paint12_radial_968_3609)"/>
<path style="mix-blend-mode:multiply" opacity="0.8" d="M69.2155 75.7298C69.6139 75.7298 69.9368 75.4068 69.9368 75.0084C69.9368 74.6101 69.6139 74.2871 69.2155 74.2871C68.8171 74.2871 68.4941 74.6101 68.4941 75.0084C68.4941 75.4068 68.8171 75.7298 69.2155 75.7298Z" fill="url(#paint13_radial_968_3609)"/>
<path d="M63.5059 81.5855C66.1705 79.6549 70.2367 76.4113 73.4971 76.0359C73.5437 76.0295 73.6418 76.0198 73.689 76.0174L73.8819 76.004C74.0209 75.9943 74.1411 76.0991 74.1508 76.2378C74.1612 76.3801 74.05 76.503 73.9073 76.5074C73.8002 76.5111 73.6475 76.5117 73.5417 76.5221C70.3834 76.7528 66.1742 79.8204 63.5059 81.5855Z" fill="white"/>
<path d="M65.5259 80.9487C67.276 79.6618 69.5291 78.5178 71.7507 78.5644C71.9891 78.5741 71.9881 78.9193 71.748 78.926C71.4714 78.9046 71.1931 78.8996 70.9152 78.916C68.9712 79.0509 67.142 79.8949 65.5262 80.9491L65.5259 80.9487Z" fill="#F7E8A4"/>
<path style="mix-blend-mode:multiply" opacity="0.8" d="M73.8672 77.1475C74.3758 77.1475 74.7881 76.7352 74.7881 76.2266C74.7881 75.718 74.3758 75.3057 73.8672 75.3057C73.3586 75.3057 72.9463 75.718 72.9463 76.2266C72.9463 76.7352 73.3586 77.1475 73.8672 77.1475Z" fill="url(#paint14_radial_968_3609)"/>
<path style="mix-blend-mode:multiply" opacity="0.8" d="M71.7389 79.4656C72.1373 79.4656 72.4603 79.1427 72.4603 78.7443C72.4603 78.3459 72.1373 78.0229 71.7389 78.0229C71.3405 78.0229 71.0176 78.3459 71.0176 78.7443C71.0176 79.1427 71.3405 79.4656 71.7389 79.4656Z" fill="url(#paint15_radial_968_3609)"/>
<path d="M63.5059 81.5851C66.7787 81.2452 71.9222 80.4696 74.9331 81.7746C74.9766 81.7924 75.0664 81.8329 75.1086 81.8547L75.2824 81.9394C75.4076 82.0003 75.4595 82.1514 75.3986 82.2763C75.3363 82.4045 75.1786 82.4555 75.053 82.3881C74.9582 82.3376 74.8256 82.2619 74.7292 82.218C71.8786 80.8386 66.6993 81.3909 63.5059 81.5851Z" fill="white"/>
<path d="M65.5732 82.0438C67.7316 81.804 70.2566 81.9407 72.1564 83.091C72.358 83.2186 72.1845 83.517 71.9732 83.4028C71.7441 83.2461 71.506 83.1024 71.2569 82.9775C69.5058 82.1222 67.4998 81.9387 65.5732 82.0435V82.0438Z" fill="#F7E8A4"/>
<path style="mix-blend-mode:multiply" opacity="0.8" d="M75.1582 83.046C75.6669 83.046 76.0792 82.6336 76.0792 82.125C76.0792 81.6164 75.6669 81.2041 75.1582 81.2041C74.6496 81.2041 74.2373 81.6164 74.2373 82.125C74.2373 82.6336 74.6496 83.046 75.1582 83.046Z" fill="url(#paint16_radial_968_3609)"/>
<path style="mix-blend-mode:multiply" opacity="0.8" d="M72.0563 83.9627C72.4547 83.9627 72.7776 83.6397 72.7776 83.2414C72.7776 82.843 72.4547 82.52 72.0563 82.52C71.6579 82.52 71.335 82.843 71.335 83.2414C71.335 83.6397 71.6579 83.9627 72.0563 83.9627Z" fill="url(#paint17_radial_968_3609)"/>
<path d="M63.5057 81.5854C66.51 82.9277 71.352 84.8275 73.3074 87.4633C73.3362 87.5005 73.3938 87.5805 73.4193 87.6201L73.5274 87.7801C73.6051 87.8957 73.575 88.0521 73.4595 88.1301C73.3416 88.2101 73.1792 88.1753 73.1041 88.0541C73.0472 87.963 72.9702 87.831 72.9086 87.745C71.1297 85.1252 66.3683 83.0137 63.5054 81.5854H63.5057Z" fill="white"/>
<path d="M65.0669 83.0161C67.0558 83.8875 69.1746 85.2685 70.2442 87.2146C70.355 87.4259 70.0557 87.5977 69.9297 87.393C69.8099 87.1426 69.6752 86.8994 69.5219 86.6667C68.4331 85.0505 66.7875 83.8885 65.0669 83.0161Z" fill="#F7E8A4"/>
<path style="mix-blend-mode:multiply" opacity="0.8" d="M73.3272 88.8004C73.8358 88.8004 74.2481 88.388 74.2481 87.8794C74.2481 87.3708 73.8358 86.9585 73.3272 86.9585C72.8186 86.9585 72.4062 87.3708 72.4062 87.8794C72.4062 88.388 72.8186 88.8004 73.3272 88.8004Z" fill="url(#paint18_radial_968_3609)"/>
<path style="mix-blend-mode:multiply" opacity="0.8" d="M70.0827 88.0164C70.481 88.0164 70.804 87.6935 70.804 87.2951C70.804 86.8967 70.481 86.5737 70.0827 86.5737C69.6843 86.5737 69.3613 86.8967 69.3613 87.2951C69.3613 87.6935 69.6843 88.0164 70.0827 88.0164Z" fill="url(#paint19_radial_968_3609)"/>
<path d="M63.5059 81.5854C65.4365 84.2501 68.6801 88.3163 69.0555 91.5767C69.0619 91.6233 69.0716 91.7214 69.074 91.7686L69.0874 91.9615C69.0971 92.1005 68.9923 92.2207 68.8536 92.2304C68.7113 92.2408 68.5884 92.1296 68.584 91.9869C68.5804 91.8798 68.5797 91.7267 68.5693 91.6212C68.3386 88.463 65.271 84.2538 63.5059 81.5854Z" fill="white"/>
<path d="M64.1424 83.6055C65.4294 85.3556 66.5733 87.6087 66.5268 89.8303C66.5171 90.0687 66.1718 90.0677 66.1651 89.8276C66.1866 89.551 66.1916 89.2727 66.1752 88.9948C66.0402 87.0508 65.1963 85.2216 64.1421 83.6058L64.1424 83.6055Z" fill="#F7E8A4"/>
<path style="mix-blend-mode:multiply" opacity="0.8" d="M68.8643 92.8677C69.3729 92.8677 69.7852 92.4554 69.7852 91.9468C69.7852 91.4382 69.3729 91.0259 68.8643 91.0259C68.3557 91.0259 67.9434 91.4382 67.9434 91.9468C67.9434 92.4554 68.3557 92.8677 68.8643 92.8677Z" fill="url(#paint20_radial_968_3609)"/>
<path style="mix-blend-mode:multiply" opacity="0.8" d="M66.3468 90.5398C66.7452 90.5398 67.0682 90.2169 67.0682 89.8185C67.0682 89.4201 66.7452 89.0972 66.3468 89.0972C65.9484 89.0972 65.6255 89.4201 65.6255 89.8185C65.6255 90.2169 65.9484 90.5398 66.3468 90.5398Z" fill="url(#paint21_radial_968_3609)"/>
<path d="M63.4588 81.5896L62.077 68.858C62.0586 68.6889 62.1808 68.5369 62.35 68.5184C62.5191 68.5 62.6711 68.6223 62.6895 68.7914C62.6909 68.7977 63.5512 81.5722 63.5522 81.5812C63.5539 81.607 63.5344 81.6295 63.5087 81.6311C63.4835 81.6328 63.4614 81.6147 63.4588 81.5896Z" fill="white"/>
<path style="mix-blend-mode:multiply" opacity="0.8" d="M62.3573 69.8826C62.9367 69.8826 63.4065 69.4128 63.4065 68.8334C63.4065 68.2539 62.9367 67.7842 62.3573 67.7842C61.7778 67.7842 61.3081 68.2539 61.3081 68.8334C61.3081 69.4128 61.7778 69.8826 62.3573 69.8826Z" fill="url(#paint22_radial_968_3609)"/>
<path d="M96.3867 91.9448C98.4917 90.0617 100.707 87.021 99.6337 85.5211C98.5607 84.0211 92.793 84.0245 90.8015 84.4263C88.2165 81.9807 85.5378 79.1831 78.4794 80.9362C77.084 79.317 73.922 77.1125 72.7626 77.6309C70.4385 78.5963 69.4911 83.9126 69.4911 83.9126C62.9542 85.6265 56.5409 88.9838 54.9619 89.8933C52.0105 91.481 48.949 94.5854 50.0438 99.1733C47.3115 101.678 46.6671 113.007 54.9314 115.33C58.2926 120.178 61.1974 119.959 64.9374 119.893C66.1035 122.775 70.5189 126.37 76.6992 122.575C80.8869 123.481 85.9714 123.696 89.8678 119.738C95.172 119.554 101.674 114.897 99.8906 107.128C103.137 102.501 96.9091 92.9113 96.387 91.9448H96.3867Z" fill="#010B13"/>
<path d="M88.9899 119.001C88.947 119.046 88.9024 119.09 88.8579 119.135C88.9021 119.091 88.946 119.047 88.9899 119.001Z" fill="white"/>
<path d="M99.0834 100.399C94.825 89.1168 88.6641 83.0424 85.2252 81.9909C81.4296 80.8221 77.6109 82.3294 68.846 85.2908C59.5547 88.4303 53.1805 91.1057 51.4897 95.0051C49.8558 98.7729 52.8771 103.531 56.5655 104.331C56.5072 103.806 56.5997 103.055 56.6191 102.935C56.7209 102.299 57.8973 97.0368 63.9045 94.7519C60.2754 96.7857 55.7183 102.02 58.2135 106.751C59.5209 108.416 61.7482 109.67 65.4058 108.73C65.7273 103.859 69.5205 97.8734 74.312 93.8719C71.1243 97.6041 67.2262 102.807 66.6757 107.769C66.6318 108.157 66.6211 109.923 67.5798 111.181C70.6213 114.023 76.3474 115.218 79.8262 111.343C83.3311 107.034 82.5049 99.0589 82.004 94.8966C83.5427 100.442 83.7949 106.728 81.3211 110.893C83.3482 112.964 87.0798 113.314 90.4628 110.55C92.7072 105.338 92.6606 98.6728 88.0935 92.5457C92.8086 98.1299 93.2755 102.755 91.8304 109.946C96.2003 108.765 101.329 107.495 99.084 100.399L99.0834 100.399Z" fill="#ABB0C0"/>
<path d="M55.0546 109.591C52.978 108.986 49.6 106.221 49.7005 102.576C49.2135 104.718 48.523 112.081 55.6061 114.381C54.8681 112.855 54.8731 111.069 55.0546 109.591Z" fill="#ABB0C0"/>
<path d="M64.1479 114.566C61.6179 114.743 56.9546 112.51 56.4171 109.542C55.7336 110.364 54.8693 113.518 56.7724 115.952C59.2486 118.91 61.6718 118.964 65.1907 118.746C64.378 117.242 64.1074 115.819 64.1482 114.567L64.1479 114.566Z" fill="#ABB0C0"/>
<path d="M90.127 115.279C90.127 115.279 90.127 115.278 90.127 115.277C88.4154 117.147 83.7133 118.319 79.5386 116.386C79.47 117.551 78.1542 120.291 76.7544 121.363C79.481 121.997 84.7903 123.16 88.8226 119.17C89.7425 117.823 90.0818 116.463 90.1273 115.278L90.127 115.279Z" fill="#ABB0C0"/>
<path d="M65.0361 114.627C64.8459 116.558 65.1406 117.956 65.5602 119.093C66.6633 121.39 70.5014 125.15 76.389 121.534C77.9 120.253 78.2673 118.242 78.2288 116.84C75.4433 118.952 67.3578 118.861 65.0361 114.627Z" fill="#ABB0C0"/>
<path d="M91.0704 114.963V114.963C91.048 115.769 90.763 117.042 89.3257 118.654C94.3305 118.59 98.0876 115.164 98.7684 111.619C97.2718 113.961 93.8058 115.412 91.0704 114.963Z" fill="#ABB0C0"/>
<path d="M65.4597 118.804C65.4516 118.78 65.4432 118.755 65.4355 118.731C65.4436 118.755 65.4516 118.78 65.4597 118.804Z" fill="#717071"/>
<path d="M76.3892 121.534C76.9159 121.211 77.2254 120.683 77.4859 120.173C77.2153 120.67 76.8573 121.138 76.3892 121.534Z" fill="#717071"/>
<path d="M49.5116 106.857C49.8585 109.693 51.2868 112.979 55.6061 114.382C55.3292 113.809 55.1567 113.199 55.0589 112.583C51.5403 112.521 49.8819 108.587 49.5112 106.857L49.5116 106.857Z" fill="#858B97"/>
<path d="M55.6416 113.042C55.7283 114.005 56.0518 115.031 56.7728 115.953C59.249 118.911 61.6722 118.964 65.1911 118.746C64.9678 118.333 64.7869 117.926 64.6406 117.527C58.2329 118.387 56.3583 114.882 55.6419 113.043L55.6416 113.042Z" fill="#858B97"/>
<path d="M77.4859 120.173C77.5137 120.118 77.5418 120.064 77.5686 120.009C76.1269 121.1 74.6417 122.006 71.4523 121.869C67.5844 121.561 65.7355 119.607 65.1602 117.692C65.1833 117.807 65.2087 117.918 65.2352 118.028C65.2415 118.055 65.2479 118.081 65.2546 118.107C65.3088 118.324 65.3695 118.531 65.4344 118.731C65.4425 118.755 65.4505 118.78 65.4585 118.804C65.4914 118.902 65.5248 118.999 65.5597 119.093C66.6628 121.39 70.5009 125.149 76.3885 121.534C76.8566 121.137 77.2146 120.67 77.4852 120.172L77.4859 120.173Z" fill="#858B97"/>
<path d="M88.8228 119.17C89.1613 118.675 89.4209 118.177 89.6164 117.688C85.2003 121.984 79.3425 120.711 78.0623 119.887C77.6627 120.482 77.2137 121.013 76.7549 121.364C79.4815 121.998 84.7904 123.161 88.8228 119.17Z" fill="#858B97"/>
<path d="M90.283 117.38C90.0415 117.776 89.7287 118.202 89.3252 118.654C93.4128 118.602 96.6669 116.307 98.0938 113.536C96.548 116.453 91.6329 117.519 90.283 117.38V117.38Z" fill="#858B97"/>
<path d="M50.541 100.477C50.0186 101.164 49.8542 101.966 49.8542 101.966C49.7213 104.179 52.8347 109.381 56.8158 108.866C56.9852 111.775 62.4589 114.979 64.9776 113.543C66.7176 117.675 75.6212 118.742 79.1257 115.351C81.2449 117.299 88.7731 117.067 90.3306 113.956C92.725 115.247 97.9586 113.013 98.9656 110.263C99.1779 109.23 98.8758 108.201 98.8758 108.201C97.7921 109.535 94.1694 112.205 91.3664 111.3C89.2647 113.228 84.4648 115.134 80.7844 112.017C76.5464 117.401 66.5726 114.512 65.6785 109.85C62.8885 110.599 57.6453 110.348 56.4745 105.496C55.6088 105.134 52.6079 104.63 50.541 100.477Z" fill="#1A2544"/>
<path d="M70.8027 83.4308C72.3077 82.8622 75.4298 81.8846 77.2747 81.3505C76.2051 80.2457 73.8559 78.5546 73.1925 78.7002C72.2387 78.9638 71.1346 81.8729 70.8027 83.4308Z" fill="white"/>
<path d="M91.7202 85.4317C93.8089 87.72 95.4609 90.4275 95.7984 90.9292C97.2481 89.7062 99.2548 86.6031 98.6369 86.1484C97.4384 85.2659 93.2024 85.2241 91.7202 85.4317Z" fill="white"/>
<path d="M68.1965 85.5111C68.0827 85.55 67.9691 85.5888 67.8563 85.6274C67.8 85.6464 67.7441 85.6659 67.6882 85.685C67.5753 85.7238 67.4628 85.7623 67.3506 85.8012C67.2997 85.8186 67.2488 85.8363 67.1982 85.8537C67.0402 85.9083 66.8825 85.9629 66.7264 86.0175C66.721 86.0195 66.7157 86.0212 66.7103 86.0232C66.5573 86.0764 66.4052 86.1297 66.2542 86.1829C66.2046 86.2003 66.1558 86.2178 66.1062 86.2352C65.998 86.2733 65.8899 86.3115 65.7827 86.3497C65.7298 86.3684 65.6772 86.3872 65.6243 86.406C65.5158 86.4448 65.4076 86.4833 65.3001 86.5218C65.2539 86.5386 65.2074 86.555 65.1615 86.5717C64.8591 86.6806 64.5604 86.7894 64.266 86.8979C64.2208 86.9146 64.1763 86.9311 64.1314 86.9478C64.0282 86.986 63.9254 87.0242 63.8233 87.0623C63.7734 87.0807 63.7238 87.0995 63.6743 87.1179C63.5718 87.1564 63.47 87.1946 63.3685 87.2331C63.3253 87.2495 63.2821 87.2656 63.2389 87.282C63.0963 87.3363 62.9543 87.3905 62.8136 87.4444H62.8129C62.6733 87.4984 62.5347 87.5523 62.397 87.6058C62.3562 87.6219 62.3156 87.6377 62.2751 87.6537C62.1767 87.6926 62.0785 87.7311 61.9811 87.7699C61.9359 87.788 61.8907 87.8058 61.8455 87.8239C61.7487 87.8624 61.6529 87.9009 61.5575 87.9397C61.5176 87.9558 61.4774 87.9719 61.4376 87.9883C61.171 88.0965 60.9091 88.2046 60.6516 88.3131C60.6148 88.3285 60.5779 88.3443 60.5414 88.3597C60.4487 88.3989 60.3566 88.438 60.2651 88.4772C60.224 88.495 60.1828 88.5127 60.1416 88.5305C60.0505 88.57 59.9597 88.6092 59.87 88.6487C59.8345 88.6641 59.799 88.6795 59.7638 88.6952C59.5167 88.8041 59.2739 88.9132 59.0361 89.0227C59.002 89.0385 58.9681 89.0542 58.934 89.07C58.8486 89.1095 58.7639 89.149 58.6795 89.1888C58.6416 89.2066 58.6038 89.2243 58.5663 89.2424C58.4826 89.2823 58.3992 89.3221 58.3168 89.362C58.2843 89.3777 58.2515 89.3935 58.219 89.4092C57.9923 89.5194 57.7703 89.6302 57.5529 89.7414C57.5221 89.7571 57.4916 89.7732 57.4608 89.789C57.3828 89.8291 57.3051 89.8697 57.2284 89.9098C57.1943 89.9279 57.1601 89.946 57.1259 89.9641C57.0493 90.005 56.9732 90.0455 56.8979 90.0863C56.8688 90.1021 56.8396 90.1178 56.8108 90.1336C56.6052 90.2457 56.4046 90.3589 56.209 90.4725C56.1809 90.4889 56.1531 90.5053 56.125 90.5217C56.055 90.5629 55.9853 90.6037 55.9167 90.6453C55.8862 90.6637 55.8557 90.6821 55.8253 90.7005C55.7563 90.7424 55.688 90.7846 55.62 90.8264C55.5945 90.8422 55.5684 90.8582 55.5433 90.874C55.4509 90.9319 55.3598 90.9898 55.27 91.0481C58.9668 89.3057 71.5702 84.6692 77.8797 89.3774C84.1892 94.0855 92.4538 88.5804 88.1151 83.6247C87.0374 82.7879 86.0522 82.2437 85.225 81.9909C81.4295 80.8221 77.6108 82.3294 68.8459 85.2908C68.6811 85.3464 68.5177 85.402 68.3549 85.4572C68.302 85.4753 68.2494 85.4931 68.1965 85.5111Z" fill="white"/>
<path d="M69.8899 98.4917C66.1948 103.143 65.2357 106.627 62.9695 107.037C61.1622 107.364 58.9965 107.586 57.5859 104.922C57.6911 105.535 57.8944 106.147 58.2128 106.751C59.5202 108.416 61.7475 109.671 65.4051 108.73C65.6178 105.506 67.3525 101.794 69.8902 98.4917H69.8899Z" fill="#858B97"/>
<path d="M66.8252 109.511C66.9571 110.066 67.1869 110.667 67.5794 111.182C70.6208 114.023 76.3469 115.218 79.8257 111.343C81.7911 108.927 82.3943 105.358 82.4569 101.955C80.1479 114.005 68.5823 114.589 66.8252 109.511Z" fill="#858B97"/>
<path d="M90.7171 109.922C90.758 109.817 90.7985 109.711 90.8373 109.605C90.8608 109.54 90.8832 109.475 90.906 109.41C90.9398 109.314 90.9733 109.218 91.0055 109.121C91.0289 109.051 91.0513 108.98 91.0741 108.909C91.1036 108.817 91.1327 108.724 91.1608 108.631C91.1833 108.557 91.205 108.482 91.2265 108.408C91.2526 108.317 91.2777 108.227 91.3022 108.136C91.3233 108.058 91.3437 107.981 91.3638 107.903C91.3866 107.814 91.4083 107.724 91.4298 107.635C91.4488 107.554 91.4683 107.474 91.4863 107.393C91.5061 107.306 91.5245 107.217 91.5429 107.129C91.5604 107.046 91.5781 106.963 91.5942 106.88C91.6109 106.794 91.6257 106.708 91.6411 106.621C91.6565 106.534 91.6729 106.448 91.6869 106.361C91.699 106.287 91.709 106.212 91.7201 106.137C91.7506 105.933 91.7777 105.727 91.8011 105.521C91.8075 105.463 91.8152 105.406 91.8212 105.349C91.8323 105.24 91.8413 105.131 91.8504 105.022C91.8561 104.956 91.8621 104.89 91.8671 104.824C91.8751 104.715 91.8808 104.605 91.8869 104.495C91.8906 104.429 91.8942 104.363 91.8973 104.297C91.9019 104.186 91.905 104.074 91.9076 103.962C91.909 103.898 91.9106 103.833 91.9113 103.769C91.9127 103.654 91.9127 103.539 91.9117 103.424C91.911 103.363 91.9103 103.302 91.909 103.241C91.9066 103.122 91.9036 103.002 91.8986 102.883C91.8962 102.828 91.8936 102.772 91.8906 102.717C91.8842 102.591 91.8775 102.465 91.8681 102.338C91.8651 102.294 91.8611 102.25 91.8574 102.206C91.8463 102.068 91.8346 101.929 91.8202 101.79C91.8186 101.775 91.8165 101.759 91.8149 101.743C91.7425 101.067 91.6297 100.386 91.4726 99.7018C91.4713 99.6961 91.4703 99.69 91.4689 99.6843C91.4328 99.5283 91.3936 99.3719 91.3531 99.2155C91.3464 99.1897 91.34 99.1636 91.333 99.1378C91.2935 98.9888 91.2513 98.8398 91.2077 98.6907C91.1983 98.6583 91.189 98.6258 91.1793 98.5933C91.1351 98.4463 91.0888 98.2989 91.0406 98.1519C91.0299 98.1191 91.0189 98.0863 91.0081 98.0535C90.9582 97.9041 90.9063 97.7551 90.8521 97.6057C90.842 97.5786 90.832 97.5515 90.8219 97.5243C90.7643 97.3686 90.7051 97.2126 90.6428 97.0568C90.6378 97.0438 90.6321 97.0311 90.627 97.018C90.2757 96.1466 89.8478 95.2763 89.3367 94.4126C91.8206 100.765 91.2971 108.442 87.1643 110.63C85.659 111.427 83.5489 111.916 81.4817 110.613C81.481 110.613 81.4804 110.613 81.4797 110.612C81.4278 110.706 81.3759 110.801 81.3213 110.893C83.3483 112.964 87.0799 113.314 90.4629 110.55C90.5296 110.395 90.5942 110.239 90.6568 110.081C90.6776 110.029 90.6974 109.975 90.7178 109.922H90.7171Z" fill="#858B97"/>
<path d="M99.0832 100.399C97.0638 95.0486 94.6165 90.8703 92.2345 87.8423C96.3683 95.6819 98.6967 101.236 97.0099 105.189C96.3622 106.533 95.4812 108.322 92.3798 109.131C92.3259 109.147 92.0764 109.128 92.0299 109.15C91.985 109.392 91.8795 109.696 91.8296 109.945C93.644 111.079 101.895 107.817 99.0832 100.398V100.399Z" fill="#858B97"/>
<path d="M98.0852 88.0971C95.5036 89.4789 92.8376 86.2764 91.7197 85.4321C93.8084 87.7204 95.4604 90.4279 95.7979 90.9296C96.5608 90.2859 97.4774 89.1219 98.0852 88.0971Z" fill="#858B97"/>
<path d="M59.5721 97.5347C55.9547 101.192 53.5087 101.85 51.8413 100.43C52.8245 102.355 54.6001 103.905 56.5648 104.331C56.5066 103.805 56.599 103.055 56.6184 102.935C56.6884 102.498 57.2661 99.8742 59.5721 97.5347Z" fill="#858B97"/>
<path d="M47.6808 114.802C47.2772 114.252 46.5927 107.619 46.7716 106.573C46.9501 105.527 48.2722 103.853 48.7825 102.911C49.2929 101.97 48.5461 98.1974 48.3375 96.3083C48.1563 94.6687 47.3355 91.2636 47.1222 90.3939C47.091 90.267 46.9862 90.1722 46.857 90.1541C46.4812 90.1015 45.648 90.0158 44.6454 90.1039C43.6427 90.192 42.8373 90.422 42.4767 90.5392C42.3524 90.5798 42.2657 90.6913 42.2573 90.8219C42.1991 91.7153 41.9851 95.2112 42.0929 96.8575C42.2171 98.7539 42.1401 102.599 42.8069 103.437C43.4736 104.274 45.0677 105.692 45.426 106.691C45.7847 107.69 46.2682 114.34 45.9668 114.953C45.6654 115.565 43.8082 115.8 43.8109 116.384C43.8109 117.222 46.9882 116.747 46.9882 116.747C46.9882 116.747 50.2001 116.66 50.0534 115.835C49.9543 115.26 48.0846 115.353 47.6808 114.802Z" fill="white"/>
<path d="M45.2895 117.15C44.662 117.15 44.0438 117.076 43.7538 116.826C43.6165 116.708 43.5441 116.555 43.5441 116.384C43.5418 115.901 44.1245 115.66 44.7413 115.404C45.1365 115.241 45.6281 115.037 45.7276 114.835C45.9774 114.255 45.5337 107.78 45.175 106.781C44.9473 106.146 44.1131 105.257 43.443 104.543C43.1192 104.199 42.8134 103.873 42.5981 103.602C42.077 102.948 41.9739 100.987 41.8935 98.4908C41.8741 97.8904 41.856 97.3231 41.8265 96.8747C41.7187 95.2297 41.9253 91.8122 41.9909 90.8042C42.0067 90.5634 42.1647 90.3598 42.3941 90.2855C42.79 90.1569 43.6061 89.9275 44.6218 89.8381C45.6382 89.7487 46.4814 89.8321 46.8936 89.89C47.1324 89.9235 47.3236 90.0963 47.3809 90.3304C47.6217 91.3116 48.4214 94.6407 48.6022 96.2789C48.6518 96.7256 48.7325 97.2872 48.8182 97.882C49.1745 100.353 49.4156 102.302 49.0165 103.038C48.8517 103.342 48.6076 103.716 48.349 104.112C47.8136 104.932 47.1471 105.953 47.0339 106.617C46.8551 107.664 47.5477 114.113 47.8959 114.645C48.0299 114.826 48.5486 114.941 48.9656 115.032C49.6176 115.176 50.2334 115.312 50.3155 115.79C50.3453 115.957 50.3004 116.12 50.1862 116.26C49.6635 116.902 47.4867 116.999 47.0112 117.013C46.7583 117.05 46.0176 117.15 45.2892 117.15L45.2895 117.15ZM45.526 90.332C45.2617 90.332 44.9734 90.3424 44.6683 90.3692C43.7049 90.4539 42.933 90.6709 42.5586 90.7925C42.5381 90.7992 42.5241 90.8173 42.5227 90.8387C42.4574 91.8387 42.2528 95.227 42.3583 96.8395C42.3881 97.2969 42.4065 97.8683 42.4263 98.4734C42.4839 100.258 42.5626 102.701 43.015 103.27C43.2166 103.523 43.515 103.841 43.8311 104.178C44.5719 104.967 45.4111 105.862 45.6763 106.6C45.8766 107.158 46.0882 109.186 46.2095 110.948C46.3022 112.296 46.4248 114.625 46.2058 115.07C46.0176 115.452 45.4724 115.678 44.9453 115.896C44.6854 116.004 44.0766 116.256 44.0773 116.382C44.0773 116.392 44.0773 116.401 44.1017 116.422C44.4329 116.707 45.966 116.629 46.9486 116.483L46.9807 116.48C47.974 116.453 49.4967 116.262 49.7733 115.923C49.7937 115.898 49.7921 115.889 49.7907 115.881C49.7689 115.756 49.1256 115.614 48.851 115.553C48.2938 115.43 47.7178 115.303 47.4656 114.959C47.1719 114.559 46.8866 112.245 46.7426 110.901C46.5544 109.145 46.4087 107.111 46.5085 106.527C46.6408 105.753 47.3112 104.726 47.903 103.82C48.1555 103.433 48.3939 103.068 48.548 102.783C48.8942 102.145 48.5453 99.7245 48.2908 97.9577C48.2044 97.3586 48.1227 96.7926 48.0724 96.3372C47.8949 94.7311 47.1019 91.4305 46.8632 90.4569C46.8581 90.4358 46.8411 90.4204 46.82 90.4178C46.5537 90.3806 46.0966 90.3317 45.5263 90.3317L45.526 90.332Z" fill="#010B13"/>
<path d="M43.1374 103.173C43.2673 103.336 43.4401 103.529 43.6323 103.737C43.9424 104.014 45.0258 104.916 45.9045 104.839C46.8375 104.757 47.8167 103.608 48.0032 103.378C48.1633 103.13 48.307 102.9 48.4101 102.709C48.4838 102.573 48.5929 102.157 48.4958 100.899C48.4258 99.9941 48.2718 98.9245 48.1355 97.9805C48.0488 97.38 47.967 96.8128 47.9165 96.3546C47.7433 94.7897 46.9627 91.5263 46.7273 90.5635C46.3462 90.5139 45.5857 90.4456 44.6815 90.5253C43.7773 90.605 43.0416 90.8053 42.6739 90.9205C42.6102 91.9101 42.411 95.2589 42.5138 96.8298C42.5439 97.29 42.5624 97.8626 42.5821 98.4691C42.6129 99.4222 42.6478 100.503 42.7368 101.405C42.8607 102.662 43.0412 103.052 43.1374 103.173Z" fill="white"/>
<mask id="mask0_968_3609" style="mask-type:luminance" maskUnits="userSpaceOnUse" x="42" y="90" width="7" height="15">
<path d="M43.1374 103.173C43.2673 103.336 43.4401 103.529 43.6323 103.737C43.9424 104.014 45.0258 104.916 45.9045 104.839C46.8375 104.757 47.8167 103.608 48.0032 103.378C48.1633 103.13 48.307 102.9 48.4101 102.709C48.4838 102.573 48.5929 102.157 48.4958 100.899C48.4258 99.9941 48.2718 98.9245 48.1355 97.9805C48.0488 97.38 47.967 96.8128 47.9165 96.3546C47.7433 94.7897 46.9627 91.5263 46.7273 90.5635C46.3462 90.5139 45.5857 90.4456 44.6815 90.5253C43.7773 90.605 43.0416 90.8053 42.6739 90.9205C42.6102 91.9101 42.411 95.2589 42.5138 96.8298C42.5439 97.29 42.5624 97.8626 42.5821 98.4691C42.6129 99.4222 42.6478 100.503 42.7368 101.405C42.8607 102.662 43.0412 103.052 43.1374 103.173Z" fill="white"/>
</mask>
<g mask="url(#mask0_968_3609)">
<path d="M47.9014 95.7551C47.7004 95.4407 47.3425 95.5371 46.9804 95.4467C46.5484 95.3389 45.7276 95.4092 45.2853 95.3586C44.1644 95.23 43.501 95.2786 42.3882 95.6831L42.4387 96.0267C42.5915 96.2169 42.7442 96.4075 42.8965 96.5977C42.9772 96.6985 43.0623 96.8026 43.1802 96.8552C43.2806 96.9001 43.3938 96.9028 43.5037 96.9048C44.9638 96.9306 46.5062 96.9363 47.7721 96.2079C47.8461 96.1653 47.9235 96.1151 47.955 96.0354C47.9911 95.9433 47.955 95.8382 47.9017 95.7548L47.9014 95.7551Z" fill="#F2BAA6"/>
<path d="M48.5455 96.0874C48.4902 95.987 48.4286 95.8852 48.3348 95.8192C48.1945 95.7208 48.01 95.7204 47.8385 95.7241C46.6839 95.7479 45.5288 95.7717 44.3742 95.7954C43.6404 95.8105 42.8655 95.8159 42.2289 95.4512L41.8759 95.4672C41.8525 96.0667 41.8833 96.6668 41.9141 97.2659C42.0327 99.5669 42.168 101.938 43.1669 104.014C43.4241 104.549 43.7942 105.103 44.3698 105.247C44.8092 105.357 45.2656 105.202 45.7171 105.163C46.273 105.117 46.8459 105.249 47.3844 105.102C48.015 104.929 48.4946 104.391 48.7565 103.792C49.0183 103.193 49.094 102.531 49.1617 101.881C49.3656 99.9179 49.4962 97.8175 48.5458 96.0878L48.5455 96.0874Z" fill="url(#paint23_linear_968_3609)"/>
</g>
<path d="M43.3638 96.9292C43.4992 96.9292 43.6089 96.8195 43.6089 96.6841C43.6089 96.5487 43.4992 96.439 43.3638 96.439C43.2284 96.439 43.1187 96.5487 43.1187 96.6841C43.1187 96.8195 43.2284 96.9292 43.3638 96.9292Z" fill="white"/>
<path d="M44.192 97.2885C44.2037 97.4235 44.0651 97.5189 43.9305 97.5307C43.7958 97.5424 43.682 97.469 43.6699 97.3344C43.6579 97.1998 43.758 97.1171 43.893 97.105C44.0279 97.093 44.1803 97.1536 44.192 97.2885Z" fill="white"/>
<path d="M43.4839 98.168C43.574 98.168 43.647 98.095 43.647 98.0049C43.647 97.9148 43.574 97.8418 43.4839 97.8418C43.3938 97.8418 43.3208 97.9148 43.3208 98.0049C43.3208 98.095 43.3938 98.168 43.4839 98.168Z" fill="white"/>
<path d="M44.7758 91.1513C45.8991 91.0525 46.7984 90.8439 46.7845 90.6855C46.7706 90.527 45.8487 90.4787 44.7253 90.5775C43.602 90.6763 42.7027 90.8848 42.7166 91.0432C42.7306 91.2017 43.6525 91.25 44.7758 91.1513Z" fill="white"/>
<path d="M43.6986 91.3026C43.565 91.3026 43.4394 91.2995 43.3249 91.2935C42.7187 91.2617 42.6263 91.1586 42.6169 91.0517C42.6076 90.9452 42.6806 90.8274 43.2716 90.6901C43.6554 90.601 44.1685 90.5256 44.7163 90.4774C45.2642 90.4292 45.7826 90.4141 46.1758 90.4349C46.7819 90.4667 46.8743 90.5698 46.8837 90.6767C46.8931 90.7831 46.8201 90.901 46.2287 91.038C45.8449 91.1271 45.3318 91.2024 44.784 91.2506C44.3962 91.2848 44.0228 91.3022 43.6983 91.3022L43.6986 91.3026ZM42.855 91.031C43.057 91.1003 43.7505 91.1411 44.7666 91.0517C45.7826 90.9623 46.4584 90.8012 46.6453 90.6978C46.4433 90.6284 45.7498 90.5876 44.7337 90.677C43.7177 90.7664 43.0419 90.9275 42.855 91.031Z" fill="#010B13"/>
<path d="M90.2152 85.408C90.176 85.4026 90.1365 85.3922 90.098 85.3758C86.7984 83.9968 83.4988 82.7855 80.1995 81.7417C80.0545 81.6958 79.938 81.595 79.8887 81.4734C79.8395 81.3515 79.864 81.2239 79.9541 81.1312C82.7111 78.283 85.4686 74.7138 88.226 70.4246C88.3127 70.2897 88.4484 70.1956 88.589 70.1678C88.6282 70.1601 88.6674 70.1574 88.7062 70.1604C88.8854 70.1741 89.017 70.3061 89.0388 70.4933C89.581 75.1344 90.1231 79.9447 90.6653 84.9241C90.6831 85.0865 90.6255 85.2389 90.5119 85.3293C90.4285 85.3956 90.3231 85.4224 90.2156 85.408H90.2152Z" fill="#010B13"/>
<path d="M88.5889 70.6323C85.8314 74.9373 83.074 78.5215 80.3169 81.3854C83.6162 82.3978 86.9161 83.5779 90.2154 84.9255C89.6732 79.992 89.131 75.2276 88.5889 70.6323Z" fill="#1A2544"/>
<mask id="mask1_968_3609" style="mask-type:luminance" maskUnits="userSpaceOnUse" x="80" y="70" width="11" height="15">
<path d="M88.5889 70.6323C85.8314 74.9373 83.074 78.5215 80.3169 81.3854C83.6162 82.3978 86.9161 83.5779 90.2154 84.9255C89.6732 79.992 89.131 75.2276 88.5889 70.6323Z" fill="white"/>
</mask>
<g mask="url(#mask1_968_3609)">
<path d="M87.9354 69.021L89.3714 70.6284C89.3714 70.6284 83.03 79.8732 81.3784 82.1216C80.3978 83.4565 79.29 81.035 79.29 81.035L87.9354 69.021Z" fill="url(#paint24_linear_968_3609)"/>
<path d="M85.5513 77.2354C85.7415 77.1373 85.9079 77.0281 86.0509 76.9085C86.1939 76.7887 86.283 76.6631 86.3182 76.5331C86.3393 76.4548 86.3379 76.3895 86.3141 76.3382C86.29 76.2867 86.2435 76.2542 86.1742 76.2404C86.1022 76.226 86.0385 76.2451 85.9826 76.2967C85.9267 76.3486 85.8842 76.4317 85.8557 76.5462C85.6203 76.498 85.3848 76.4504 85.1494 76.4039C85.2161 76.1929 85.3132 76.0254 85.4414 75.9009C85.5694 75.7766 85.7144 75.6936 85.8765 75.6527C86.0385 75.6122 86.2073 75.6075 86.3835 75.6403C86.6882 75.6973 86.8948 75.8165 87.003 75.9987C87.1112 76.1805 87.1333 76.3945 87.0686 76.6363C86.9997 76.8958 86.8486 77.1188 86.6159 77.3034C86.3831 77.4879 86.1139 77.6362 85.8085 77.7491C86.1182 77.8214 86.428 77.8951 86.7378 77.9701C86.6849 78.165 86.6323 78.3596 86.5794 78.5532C85.9474 78.3917 85.3155 78.2364 84.6836 78.087C84.7325 77.9155 84.7814 77.7434 84.8299 77.5706C85.1206 77.446 85.3614 77.3335 85.5516 77.2354H85.5513Z" fill="white"/>
<path d="M84.6416 80.1336C84.8318 80.0512 84.9983 79.9561 85.1413 79.849C85.2842 79.7418 85.3733 79.6253 85.4085 79.5003C85.4296 79.425 85.4282 79.3614 85.4045 79.3091C85.3804 79.2572 85.3338 79.2217 85.2645 79.2033C85.1925 79.1842 85.1285 79.1983 85.0729 79.2448C85.017 79.2917 84.9745 79.3701 84.946 79.4799C84.7106 79.4159 84.4752 79.353 84.2397 79.291C84.3064 79.0894 84.4035 78.9324 84.5318 78.8195C84.6597 78.707 84.8047 78.6357 84.9668 78.6072C85.1289 78.5787 85.2976 78.5861 85.4738 78.6306C85.7785 78.7077 85.9852 78.8389 86.0933 79.0248C86.2015 79.2107 86.2233 79.4213 86.159 79.6537C86.09 79.9029 85.9389 80.1105 85.7062 80.2746C85.4735 80.4387 85.2042 80.5649 84.8988 80.6537C85.2086 80.7464 85.5183 80.8405 85.8281 80.9363C85.7752 81.1235 85.7226 81.3101 85.6697 81.4956C85.0378 81.2923 84.4059 81.0951 83.7739 80.9038C83.8228 80.7397 83.8717 80.5747 83.9203 80.4092C84.2109 80.3081 84.4514 80.215 84.6419 80.1326L84.6416 80.1336Z" fill="white"/>
<path d="M87.4314 77.2321C87.6705 77.0241 87.9763 76.9585 88.348 77.0435C88.7197 77.1286 88.9602 77.3211 89.069 77.6209C89.1778 77.9206 89.1755 78.296 89.061 78.7394C88.9454 79.1878 88.7679 79.512 88.5288 79.7122C88.2894 79.9125 87.983 79.9543 87.6086 79.8458C87.2342 79.7373 86.9941 79.5387 86.8876 79.2501C86.7811 78.9611 86.7858 78.6068 86.9013 78.1788C87.0155 77.7558 87.1923 77.4404 87.4314 77.2321ZM88.4063 78.0043C88.3909 77.8714 88.3098 77.787 88.1638 77.7511C88.0175 77.7153 87.905 77.7521 87.8266 77.8603C87.7479 77.9685 87.6789 78.1352 87.619 78.36C87.558 78.5897 87.5342 78.7692 87.5486 78.8994C87.563 79.0297 87.6444 79.1151 87.7931 79.156C87.9418 79.1968 88.0546 79.1643 88.1323 79.0572C88.2097 78.95 88.279 78.7802 88.34 78.5468C88.3999 78.3184 88.422 78.1373 88.4063 78.0043Z" fill="white"/>
<path d="M88.2281 81.0827C87.8563 80.9638 87.4846 80.8473 87.1129 80.7327C87.0761 80.8677 87.0392 81.0023 87.0024 81.1369C87.0627 81.1035 87.1377 81.085 87.2274 81.0817C87.3172 81.0783 87.4116 81.0924 87.5107 81.1239C87.6892 81.1808 87.8275 81.2692 87.926 81.3898C88.0241 81.5103 88.0841 81.6476 88.1052 81.8004C88.1263 81.9531 88.1155 82.1091 88.073 82.2668C87.9946 82.5579 87.85 82.7561 87.639 82.8606C87.428 82.9654 87.1752 82.9627 86.8805 82.8576C86.6749 82.7842 86.5064 82.6875 86.3755 82.5679C86.2445 82.4484 86.1561 82.3154 86.1109 82.1687C86.0654 82.022 86.0634 81.871 86.1049 81.7146C86.3417 81.7923 86.5781 81.8707 86.8149 81.95C86.8072 82.0076 86.8185 82.0639 86.8494 82.1188C86.8802 82.1738 86.9364 82.2153 87.0181 82.2434C87.1049 82.2732 87.1785 82.2668 87.2392 82.224C87.2998 82.1811 87.3433 82.1115 87.3698 82.014C87.3955 81.9192 87.3919 81.8389 87.3584 81.7736C87.3249 81.7079 87.2636 81.6607 87.1742 81.6312C87.1072 81.6091 87.0489 81.6078 86.999 81.6269C86.9491 81.646 86.914 81.6785 86.8932 81.724C86.6565 81.646 86.42 81.5686 86.1833 81.4919C86.3299 80.9688 86.477 80.4404 86.6236 79.9062C87.216 80.0764 87.8081 80.2518 88.4005 80.433C88.3429 80.6504 88.2857 80.867 88.2281 81.0827Z" fill="white"/>
</g>
<path d="M88.1187 72.9643C87.9952 72.9643 87.882 72.8956 87.8167 72.7804C87.7299 72.6277 87.7209 72.3893 87.7869 72.0879C87.5595 72.255 87.3532 72.3441 87.1861 72.3441C86.9634 72.3441 86.8539 72.196 86.8281 72.0694C86.7869 71.8689 86.9232 71.624 87.2095 71.3692C87.2035 71.3692 87.1975 71.3692 87.1914 71.3692C86.4862 71.3692 86.4102 71.0638 86.4102 70.9322C86.4102 70.8294 86.4574 70.6405 86.7738 70.5283C86.8803 70.4905 87.0109 70.464 87.1596 70.4493C86.8391 70.2195 86.6794 69.9835 86.7109 69.7742C86.733 69.6275 86.8589 69.4795 87.0896 69.4795C87.2454 69.4795 87.4406 69.5478 87.6599 69.6764C87.5581 69.371 87.5454 69.1248 87.6268 68.9627C87.6884 68.8398 87.8033 68.7662 87.9345 68.7662C88.1526 68.7662 88.3572 68.9731 88.5209 69.3485C88.5926 69.1228 88.6844 68.9487 88.7905 68.8412C88.9004 68.7297 89.0092 68.7065 89.0812 68.7065C89.2048 68.7065 89.318 68.7752 89.3833 68.8904C89.47 69.0431 89.479 69.2815 89.4131 69.5829C89.6408 69.4158 89.8467 69.3267 90.0138 69.3267C90.2365 69.3267 90.3457 69.4748 90.3718 69.6014C90.413 69.8019 90.2767 70.0467 89.9904 70.3016C89.9964 70.3016 90.0025 70.3016 90.0085 70.3016C90.7137 70.3016 90.7898 70.607 90.7898 70.7386C90.7898 70.8414 90.7425 71.0303 90.4261 71.1425C90.3196 71.1803 90.189 71.2068 90.0403 71.2215C90.3608 71.4512 90.5205 71.6873 90.489 71.8966C90.4669 72.0433 90.341 72.1913 90.1103 72.1913C89.9546 72.1913 89.7593 72.123 89.54 71.9944C89.6418 72.2998 89.6545 72.546 89.5731 72.7081C89.5115 72.831 89.3966 72.9046 89.2654 72.9046C89.0474 72.9046 88.8428 72.6977 88.679 72.3223C88.6073 72.548 88.5156 72.7221 88.4094 72.8296C88.2996 72.9411 88.1907 72.9643 88.1187 72.9643Z" fill="#F3BBA7"/>
<path d="M89.0814 68.8476C89.1548 68.8476 89.2201 68.8885 89.2606 68.9598C89.356 69.1279 89.3333 69.497 89.1286 70.0204C89.5205 69.6232 89.8326 69.4678 90.0141 69.4678C90.1514 69.4678 90.2174 69.5512 90.2334 69.6292C90.2743 69.8278 90.0318 70.1496 89.503 70.4882C89.7164 70.453 89.8838 70.4423 90.0087 70.4423C90.4092 70.4423 90.6483 70.5528 90.6483 70.7377C90.6483 70.803 90.6132 70.9249 90.3788 71.0079C90.2234 71.0629 90.0077 71.092 89.7549 71.092C89.6842 71.092 89.6112 71.0897 89.5359 71.0853C90.1075 71.3716 90.3798 71.6707 90.349 71.8743C90.3362 71.9587 90.2666 72.0488 90.1102 72.0488C89.9297 72.0488 89.6149 71.9185 89.2104 71.5876C89.4766 72.1003 89.5335 72.4697 89.4465 72.6439C89.4089 72.7192 89.3426 72.7621 89.2653 72.7621C89.0607 72.7621 88.8169 72.4299 88.6514 71.7999C88.5771 72.2926 88.4408 72.5956 88.3085 72.7296C88.2479 72.7909 88.1839 72.8223 88.1186 72.8223C88.0453 72.8223 87.98 72.7815 87.9395 72.7102C87.844 72.542 87.8668 72.173 88.0714 71.6499C87.6796 72.0471 87.3675 72.2025 87.186 72.2025C87.0487 72.2025 86.9827 72.1191 86.9666 72.0411C86.9258 71.8425 87.1682 71.5207 87.697 71.1821C87.4837 71.2172 87.3163 71.228 87.1913 71.228C86.7908 71.228 86.5517 71.1175 86.5517 70.9326C86.5517 70.8673 86.5869 70.7454 86.8213 70.6623C86.9763 70.6074 87.1923 70.5783 87.4449 70.5783C87.5155 70.5783 87.5885 70.5806 87.6639 70.585C87.0922 70.2987 86.82 69.9996 86.8508 69.796C86.8635 69.7116 86.9331 69.6215 87.0895 69.6215C87.27 69.6215 87.5848 69.7518 87.9894 70.0827C87.7231 69.57 87.6662 69.2006 87.7533 69.0264C87.7908 68.9511 87.8571 68.9082 87.9344 68.9082C88.1391 68.9082 88.3829 69.2404 88.5483 69.8703C88.6226 69.3777 88.7589 69.0747 88.8912 68.9407C88.9518 68.8794 89.0158 68.8479 89.0811 68.8479M89.0811 68.5646C88.9823 68.5646 88.8339 68.5954 88.6896 68.7415C88.6206 68.8111 88.5583 68.9019 88.5027 69.012C88.339 68.7585 88.1461 68.6246 87.9344 68.6246C87.7486 68.6246 87.5862 68.7274 87.5001 68.8992C87.4261 69.0469 87.4177 69.227 87.4482 69.4159C87.3166 69.3647 87.1957 69.3379 87.0892 69.3379C86.7744 69.3379 86.6016 69.5465 86.5705 69.7531C86.5403 69.9524 86.6321 70.1593 86.8347 70.362C86.7965 70.372 86.7603 70.3831 86.7262 70.3951C86.3126 70.5418 86.2681 70.8197 86.2681 70.9323C86.2681 71.0505 86.3183 71.4008 86.8953 71.4898C86.7218 71.7035 86.6502 71.9101 86.6887 72.0977C86.7282 72.2906 86.8973 72.4851 87.1853 72.4851C87.3102 72.4851 87.4512 72.4446 87.6032 72.3672C87.5932 72.5467 87.6163 72.7152 87.6927 72.8498C87.7837 73.0099 87.9428 73.1053 88.118 73.1053C88.2168 73.1053 88.3651 73.0745 88.5094 72.9285C88.5784 72.8588 88.6407 72.7681 88.6963 72.6579C88.8601 72.9114 89.053 73.045 89.2646 73.045C89.4505 73.045 89.6129 72.9422 89.699 72.7704C89.773 72.6228 89.7813 72.4426 89.7509 72.2537C89.8825 72.305 90.0034 72.3317 90.1099 72.3317C90.4246 72.3317 90.5974 72.1231 90.6286 71.9165C90.6587 71.7172 90.5673 71.5103 90.3644 71.3077C90.4025 71.2976 90.4387 71.2866 90.4729 71.2745C90.8864 71.1278 90.931 70.8499 90.931 70.737C90.931 70.6188 90.8808 70.2685 90.3038 70.1794C90.4772 69.9661 90.5489 69.7592 90.5104 69.5716C90.4709 69.3787 90.3017 69.1842 90.0137 69.1842C89.8888 69.1842 89.7475 69.2247 89.5958 69.302C89.6059 69.1226 89.5827 68.9541 89.5064 68.8195C89.4153 68.6594 89.2562 68.564 89.0811 68.564V68.5646Z" fill="#010B13"/>
<path d="M130.697 115.305C128.899 115.305 127.281 114.997 125.842 114.38C124.404 113.737 123.274 112.838 122.452 111.681C121.971 111.004 121.631 110.261 121.431 109.452C121.188 108.467 122.04 107.632 123.053 107.632H124.66C125.373 107.632 125.941 108.19 126.186 108.86C126.413 109.481 126.773 110.022 127.268 110.485C128.09 111.23 129.232 111.603 130.697 111.603C132.212 111.603 133.394 111.244 134.241 110.524C135.089 109.778 135.513 108.827 135.513 107.67C135.513 106.77 135.243 106.038 134.704 105.473C134.19 104.907 133.535 104.47 132.739 104.162C131.968 103.853 130.89 103.519 129.502 103.159C127.756 102.697 126.33 102.234 125.226 101.771C124.147 101.283 123.222 100.538 122.452 99.5352C121.681 98.5328 121.296 97.1961 121.296 95.5252C121.296 93.983 121.681 92.6332 122.452 91.4766C123.222 90.3199 124.301 89.4332 125.688 88.8159C127.075 88.1991 128.68 87.8906 130.504 87.8906C133.098 87.8906 135.217 88.5461 136.861 89.8569C138.018 90.747 138.817 91.8718 139.258 93.2307C139.589 94.2495 138.72 95.1778 137.649 95.1778H136.052C135.335 95.1778 134.767 94.6015 134.448 93.9575C134.215 93.4854 133.864 93.0566 133.393 92.6718C132.546 91.9778 131.429 91.6308 130.041 91.6308C128.783 91.6308 127.755 91.952 126.959 92.5947C126.163 93.2374 125.765 94.1627 125.765 95.371C125.765 96.1937 126.009 96.8746 126.497 97.4144C127.01 97.9283 127.653 98.3397 128.423 98.6481C129.194 98.9566 130.247 99.2908 131.582 99.6505C133.355 100.139 134.793 100.627 135.898 101.116C137.028 101.604 137.978 102.362 138.749 103.39C139.545 104.393 139.943 105.742 139.943 107.439C139.943 108.801 139.57 110.087 138.826 111.295C138.107 112.503 137.041 113.48 135.628 114.225C134.241 114.945 132.597 115.305 130.696 115.305L130.697 115.305Z" fill="white"/>
<path d="M145.329 98.6287C146.216 96.9708 147.442 95.6925 149.009 94.7923C150.575 93.8928 152.373 93.4429 154.403 93.4429C156.971 93.4429 159.097 94.0537 160.779 95.2744C161.862 96.0602 162.719 97.062 163.349 98.279C163.902 99.3468 163.014 100.499 161.812 100.499H160.732C159.962 100.499 159.303 99.9969 158.881 99.3522C158.538 98.8282 158.111 98.388 157.6 98.0316C156.753 97.4405 155.687 97.1448 154.402 97.1448C152.604 97.1448 151.172 97.7811 150.107 99.0534C149.041 100.326 148.508 102.106 148.508 104.393C148.508 106.681 149.041 108.468 150.107 109.753C151.172 111.039 152.604 111.681 154.402 111.681C156.464 111.681 157.96 110.946 158.891 109.476C159.302 108.826 159.961 108.326 160.73 108.326H161.756C162.976 108.326 163.861 109.508 163.265 110.573C162.627 111.713 161.78 112.68 160.722 113.474C159.026 114.746 156.92 115.383 154.403 115.383C152.373 115.383 150.575 114.927 149.009 114.014C147.442 113.102 146.216 111.816 145.329 110.158C144.443 108.5 144 106.579 144 104.393C144 102.208 144.443 100.287 145.329 98.6287Z" fill="white"/>
<path d="M167.463 104.316C167.463 102.182 167.9 100.293 168.773 98.6481C169.672 97.003 170.879 95.7307 172.395 94.8308C173.936 93.9055 175.631 93.4429 177.48 93.4429C179.15 93.4429 180.601 93.7771 181.834 94.4453C182.705 94.8899 183.453 95.4145 184.078 96.019C184.344 96.2768 184.839 96.0985 184.839 95.7277C184.839 94.6575 185.706 93.7899 186.776 93.7899H187.301C188.388 93.7899 189.27 94.6723 189.27 95.7605V113.064C189.27 114.153 188.388 115.035 187.301 115.035H186.808C185.721 115.035 184.839 114.153 184.839 113.064C184.839 112.684 184.328 112.503 184.057 112.769C183.43 113.384 182.676 113.921 181.795 114.38C180.511 115.048 179.047 115.382 177.403 115.382C175.579 115.382 173.91 114.919 172.394 113.994C170.879 113.043 169.672 111.732 168.773 110.061C167.899 108.365 167.463 106.45 167.463 104.316H167.463ZM184.839 104.393C184.839 102.928 184.531 101.655 183.915 100.576C183.324 99.4963 182.541 98.6736 181.565 98.108C180.589 97.5424 179.536 97.2598 178.405 97.2598C177.275 97.2598 176.222 97.5424 175.246 98.108C174.27 98.6478 173.474 99.4574 172.857 100.537C172.266 101.591 171.971 102.851 171.971 104.316C171.971 105.781 172.266 107.066 172.857 108.172C173.473 109.277 174.27 110.125 175.246 110.717C176.248 111.282 177.301 111.565 178.405 111.565C179.536 111.565 180.589 111.282 181.565 110.717C182.541 110.151 183.324 109.329 183.915 108.249C184.531 107.144 184.839 105.858 184.839 104.393Z" fill="white"/>
<path d="M197.592 86.5024C196.379 86.5024 195.396 87.4801 195.396 88.6857V112.852C195.396 114.057 196.379 115.035 197.592 115.035C198.804 115.035 199.788 114.057 199.788 112.852V88.6857C199.788 87.4797 198.805 86.5024 197.592 86.5024Z" fill="white"/>
<path d="M208.109 86.5024C206.897 86.5024 205.914 87.4801 205.914 88.6857V112.852C205.914 114.057 206.897 115.035 208.109 115.035C209.322 115.035 210.306 114.057 210.306 112.852V88.6857C210.306 87.4797 209.323 86.5024 208.109 86.5024Z" fill="white"/>
<path d="M220.207 114.013C218.589 113.102 217.317 111.816 216.393 110.158C215.468 108.5 215.006 106.578 215.006 104.393C215.006 102.234 215.481 100.319 216.431 98.6481C217.381 96.9775 218.679 95.6925 220.323 94.7923C221.966 93.8928 223.803 93.4429 225.832 93.4429C227.861 93.4429 229.698 93.8928 231.342 94.7923C232.985 95.6925 234.283 96.9775 235.233 98.6481C236.183 100.319 236.659 102.234 236.659 104.393C236.659 106.552 236.17 108.468 235.195 110.138C234.218 111.81 232.889 113.102 231.207 114.013C229.524 114.926 227.669 115.382 225.64 115.382C223.636 115.382 221.825 114.926 220.207 114.013L220.207 114.013ZM228.818 110.756C229.806 110.216 230.61 109.406 231.226 108.326C231.843 107.247 232.151 105.936 232.151 104.393C232.151 102.851 231.855 101.547 231.265 100.48C230.673 99.4139 229.89 98.6099 228.914 98.0701C227.938 97.5304 226.885 97.2605 225.755 97.2605C224.625 97.2605 223.578 97.5304 222.615 98.0701C221.652 98.6099 220.887 99.4139 220.323 100.48C219.758 101.547 219.475 102.851 219.475 104.393C219.475 106.682 220.059 108.449 221.228 109.695C222.397 110.942 223.868 111.566 225.64 111.566C226.77 111.566 227.83 111.295 228.819 110.756L228.818 110.756Z" fill="white"/>
<path d="M245.75 96.3459C245.75 96.5293 245.99 96.6128 246.111 96.4756C246.812 95.6881 247.706 95.0112 248.794 94.4453C250.079 93.7771 251.53 93.4429 253.148 93.4429C254.997 93.4429 256.679 93.9055 258.195 94.8308C259.736 95.7307 260.943 97.003 261.817 98.6481C262.69 100.293 263.127 102.182 263.127 104.316C263.127 106.45 262.69 108.365 261.817 110.061C260.943 111.732 259.736 113.043 258.195 113.994C256.679 114.919 254.997 115.382 253.148 115.382C251.53 115.382 250.091 115.061 248.833 114.418C247.83 113.886 246.974 113.255 246.265 112.527C246.085 112.342 245.751 112.465 245.751 112.724V122.94C245.751 124.153 244.768 125.137 243.555 125.137C242.342 125.137 241.359 124.153 241.359 122.94V95.9878C241.359 94.7742 242.342 93.7902 243.555 93.7902C244.768 93.7902 245.751 94.7742 245.751 95.9878L245.75 96.3459ZM258.657 104.316C258.657 102.851 258.349 101.592 257.733 100.538C257.142 99.4581 256.346 98.6485 255.344 98.1087C254.368 97.5431 253.315 97.2605 252.185 97.2605C251.08 97.2605 250.027 97.5431 249.025 98.1087C248.049 98.6743 247.253 99.4967 246.637 100.576C246.046 101.656 245.751 102.928 245.751 104.393C245.751 105.859 246.046 107.144 246.637 108.249C247.253 109.329 248.05 110.152 249.025 110.717C250.027 111.282 251.08 111.565 252.185 111.565C253.315 111.565 254.368 111.282 255.344 110.717C256.346 110.126 257.142 109.277 257.733 108.172C258.349 107.067 258.657 105.782 258.657 104.316Z" fill="white"/>
<circle cx="25" cy="177" r="14" fill="white" stroke="white" stroke-width="2"/>
<path fill-rule="evenodd" clip-rule="evenodd" d="M25 164C17.8203 164 12 169.82 12 177C12 184.18 17.8203 190 25 190C32.1797 190 38 184.18 38 177C38 169.82 32.1797 164 25 164ZM22.7071 173.293C22.3166 172.902 21.6834 172.902 21.2929 173.293C20.9024 173.683 20.9024 174.317 21.2929 174.707L23.5858 177L21.2929 179.293C20.9024 179.683 20.9024 180.317 21.2929 180.707C21.6834 181.098 22.3166 181.098 22.7071 180.707L25 178.414L27.2929 180.707C27.6834 181.098 28.3166 181.098 28.7071 180.707C29.0976 180.317 29.0976 179.683 28.7071 179.293L26.4142 177L28.7071 174.707C29.0976 174.317 29.0976 173.683 28.7071 173.293C28.3166 172.902 27.6834 172.902 27.2929 173.293L25 175.586L22.7071 173.293Z" fill="#CA6460"/>
<defs>
<radialGradient id="paint0_radial_968_3609" cx="0" cy="0" r="1" gradientUnits="userSpaceOnUse" gradientTransform="translate(60.3822 73.4551) rotate(-0.658001) scale(0.721339 0.721341)">
<stop stop-color="#F3BBA7"/>
<stop offset="1" stop-color="white"/>
</radialGradient>
<radialGradient id="paint1_radial_968_3609" cx="0" cy="0" r="1" gradientUnits="userSpaceOnUse" gradientTransform="translate(55.594 73.0131) rotate(-0.658) scale(0.92093)">
<stop stop-color="#F3BBA7"/>
<stop offset="1" stop-color="white"/>
</radialGradient>
<radialGradient id="paint2_radial_968_3609" cx="0" cy="0" r="1" gradientUnits="userSpaceOnUse" gradientTransform="translate(56.7358 76.1056) rotate(-0.658001) scale(0.721339 0.721341)">
<stop stop-color="#F3BBA7"/>
<stop offset="1" stop-color="white"/>
</radialGradient>
<radialGradient id="paint3_radial_968_3609" cx="0" cy="0" r="1" gradientUnits="userSpaceOnUse" gradientTransform="translate(52.3675 78.117) rotate(-0.658) scale(0.92093)">
<stop stop-color="#F3BBA7"/>
<stop offset="1" stop-color="white"/>
</radialGradient>
<radialGradient id="paint4_radial_968_3609" cx="0" cy="0" r="1" gradientUnits="userSpaceOnUse" gradientTransform="translate(54.9027 80.2247) rotate(-0.658002) scale(0.721339 0.721342)">
<stop stop-color="#F3BBA7"/>
<stop offset="1" stop-color="white"/>
</radialGradient>
<radialGradient id="paint5_radial_968_3609" cx="0" cy="0" r="1" gradientUnits="userSpaceOnUse" gradientTransform="translate(52.1258 84.1505) rotate(-0.658) scale(0.92093)">
<stop stop-color="#F3BBA7"/>
<stop offset="1" stop-color="white"/>
</radialGradient>
<radialGradient id="paint6_radial_968_3609" cx="0" cy="0" r="1" gradientUnits="userSpaceOnUse" gradientTransform="translate(55.3753 84.7085) rotate(-0.658) scale(0.167442)">
<stop stop-color="#F3BBA7"/>
<stop offset="1" stop-color="white"/>
</radialGradient>
<radialGradient id="paint7_radial_968_3609" cx="0" cy="0" r="1" gradientUnits="userSpaceOnUse" gradientTransform="translate(54.9329 89.4969) rotate(-0.658) scale(0.92093)">
<stop stop-color="#F3BBA7"/>
<stop offset="1" stop-color="white"/>
</radialGradient>
<radialGradient id="paint8_radial_968_3609" cx="0" cy="0" r="1" gradientUnits="userSpaceOnUse" gradientTransform="translate(58.0259 88.3552) rotate(-0.658002) scale(0.721339 0.721342)">
<stop stop-color="#F3BBA7"/>
<stop offset="1" stop-color="white"/>
</radialGradient>
<radialGradient id="paint9_radial_968_3609" cx="0" cy="0" r="1" gradientUnits="userSpaceOnUse" gradientTransform="translate(60.0373 92.7227) rotate(-0.658) scale(0.92093)">
<stop stop-color="#F3BBA7"/>
<stop offset="1" stop-color="white"/>
</radialGradient>
<radialGradient id="paint10_radial_968_3609" cx="0" cy="0" r="1" gradientUnits="userSpaceOnUse" gradientTransform="translate(62.145 90.1879) rotate(-0.658) scale(0.721339)">
<stop stop-color="#F3BBA7"/>
<stop offset="1" stop-color="white"/>
</radialGradient>
<radialGradient id="paint11_radial_968_3609" cx="0" cy="0" r="1" gradientUnits="userSpaceOnUse" gradientTransform="translate(65.1613 73.0347) rotate(-0.658) scale(0.721339)">
<stop stop-color="#F3BBA7"/>
<stop offset="1" stop-color="white"/>
</radialGradient>
<radialGradient id="paint12_radial_968_3609" cx="0" cy="0" r="1" gradientUnits="userSpaceOnUse" gradientTransform="translate(69.7995 71.7634) rotate(-0.658) scale(0.92093)">
<stop stop-color="#F3BBA7"/>
<stop offset="1" stop-color="white"/>
</radialGradient>
<radialGradient id="paint13_radial_968_3609" cx="0" cy="0" r="1" gradientUnits="userSpaceOnUse" gradientTransform="translate(69.2152 75.0084) rotate(-0.658001) scale(0.721339 0.721341)">
<stop stop-color="#F3BBA7"/>
<stop offset="1" stop-color="white"/>
</radialGradient>
<radialGradient id="paint14_radial_968_3609" cx="0" cy="0" r="1" gradientUnits="userSpaceOnUse" gradientTransform="translate(73.8669 76.2265) rotate(-0.658001) scale(0.92093 0.920932)">
<stop stop-color="#F3BBA7"/>
<stop offset="1" stop-color="white"/>
</radialGradient>
<radialGradient id="paint15_radial_968_3609" cx="0" cy="0" r="1" gradientUnits="userSpaceOnUse" gradientTransform="translate(71.7385 78.7443) rotate(-0.658) scale(0.721339)">
<stop stop-color="#F3BBA7"/>
<stop offset="1" stop-color="white"/>
</radialGradient>
<radialGradient id="paint16_radial_968_3609" cx="0" cy="0" r="1" gradientUnits="userSpaceOnUse" gradientTransform="translate(75.158 82.1249) rotate(-0.658) scale(0.92093)">
<stop stop-color="#F3BBA7"/>
<stop offset="1" stop-color="white"/>
</radialGradient>
<radialGradient id="paint17_radial_968_3609" cx="0" cy="0" r="1" gradientUnits="userSpaceOnUse" gradientTransform="translate(72.056 83.2414) rotate(-0.658) scale(0.721339)">
<stop stop-color="#F3BBA7"/>
<stop offset="1" stop-color="white"/>
</radialGradient>
<radialGradient id="paint18_radial_968_3609" cx="0" cy="0" r="1" gradientUnits="userSpaceOnUse" gradientTransform="translate(73.327 87.8792) rotate(-0.658) scale(0.92093)">
<stop stop-color="#F3BBA7"/>
<stop offset="1" stop-color="white"/>
</radialGradient>
<radialGradient id="paint19_radial_968_3609" cx="0" cy="0" r="1" gradientUnits="userSpaceOnUse" gradientTransform="translate(70.0826 87.2949) rotate(-0.658002) scale(0.721339 0.721342)">
<stop stop-color="#F3BBA7"/>
<stop offset="1" stop-color="white"/>
</radialGradient>
<radialGradient id="paint20_radial_968_3609" cx="0" cy="0" r="1" gradientUnits="userSpaceOnUse" gradientTransform="translate(68.8643 91.9469) rotate(-0.658) scale(0.92093)">
<stop stop-color="#F3BBA7"/>
<stop offset="1" stop-color="white"/>
</radialGradient>
<radialGradient id="paint21_radial_968_3609" cx="0" cy="0" r="1" gradientUnits="userSpaceOnUse" gradientTransform="translate(66.3467 89.8182) rotate(-0.658) scale(0.721339)">
<stop stop-color="#F3BBA7"/>
<stop offset="1" stop-color="white"/>
</radialGradient>
<radialGradient id="paint22_radial_968_3609" cx="0" cy="0" r="1" gradientUnits="userSpaceOnUse" gradientTransform="translate(62.357 68.833) rotate(-0.657999) scale(1.04919 1.04919)">
<stop stop-color="#F3BBA7"/>
<stop offset="1" stop-color="white"/>
</radialGradient>
<linearGradient id="paint23_linear_968_3609" x1="41.1906" y1="96.2855" x2="49.4165" y2="103.181" gradientUnits="userSpaceOnUse">
<stop offset="0.017" stop-color="#F7E8A4"/>
<stop offset="0.412" stop-color="#F6E5A4"/>
<stop offset="0.643" stop-color="#F6DDA4"/>
<stop offset="0.832" stop-color="#F4CFA5"/>
<stop offset="0.998" stop-color="#F3BBA6"/>
<stop offset="1" stop-color="#F3BBA7"/>
</linearGradient>
<linearGradient id="paint24_linear_968_3609" x1="89.3731" y1="80.3756" x2="83.8096" y2="75.433" gradientUnits="userSpaceOnUse">
<stop stop-color="#010B13" stop-opacity="0"/>
<stop offset="0.205" stop-color="#010B14" stop-opacity="0.034"/>
<stop offset="0.315" stop-color="#040E1A" stop-opacity="0.151"/>
<stop offset="0.402" stop-color="#091424" stop-opacity="0.35"/>
<stop offset="0.477" stop-color="#101B31" stop-opacity="0.631"/>
<stop offset="0.544" stop-color="#192443" stop-opacity="0.994"/>
<stop offset="0.545" stop-color="#1A2544"/>
<stop offset="0.593" stop-color="#1F2946"/>
<stop offset="0.655" stop-color="#2F374D"/>
<stop offset="0.723" stop-color="#494E58"/>
<stop offset="0.797" stop-color="#6D6E68"/>
<stop offset="0.875" stop-color="#9C987C"/>
<stop offset="0.955" stop-color="#D4C995"/>
<stop offset="1" stop-color="#F7E8A4"/>
</linearGradient>
</defs>
</svg>
