<svg width="544" height="301" viewBox="0 0 544 301" fill="none" xmlns="http://www.w3.org/2000/svg">
<rect width="543.208" height="300.194" transform="translate(0 0.194092)" fill="#1E2D45"/>
<g clip-path="url(#clip0_485_19539)">
<path d="M271.604 210.291C304.741 210.291 331.604 183.428 331.604 150.291C331.604 117.154 304.741 90.291 271.604 90.291C238.467 90.291 211.604 117.154 211.604 150.291C211.604 183.428 238.467 210.291 271.604 210.291Z" fill="#F1D6C8"/>
<path d="M307.46 135.199C310.968 132.061 314.66 126.993 312.871 124.493C311.083 121.993 301.47 121.998 298.151 122.668C293.843 118.592 289.378 113.929 277.614 116.851C275.288 114.153 270.018 110.478 268.086 111.342C264.213 112.952 262.634 121.812 262.634 121.812C251.739 124.669 241.05 130.264 238.418 131.78C233.499 134.426 228.397 139.6 230.221 147.246C225.668 151.421 224.594 170.303 238.367 174.174C243.97 182.254 248.811 181.89 255.044 181.779C256.988 186.582 264.347 192.574 274.647 186.249C281.627 187.759 290.101 188.118 296.595 181.522C305.435 181.215 316.273 173.453 313.299 160.505C318.71 152.792 308.33 136.81 307.46 135.199H307.46Z" fill="black"/>
<path d="M295.132 180.293C295.061 180.367 294.986 180.442 294.912 180.517C294.986 180.443 295.059 180.369 295.132 180.293Z" fill="white"/>
<path d="M311.955 149.29C304.858 130.485 294.589 120.361 288.858 118.609C282.532 116.661 276.168 119.173 261.559 124.109C246.074 129.341 235.45 133.8 232.632 140.299C229.909 146.579 234.944 154.509 241.092 155.842C240.995 154.967 241.149 153.716 241.181 153.516C241.351 152.455 243.312 143.685 253.323 139.877C247.275 143.267 239.68 151.991 243.838 159.875C246.017 162.65 249.73 164.741 255.826 163.173C256.361 155.055 262.683 145.08 270.669 138.41C265.356 144.631 258.86 153.303 257.942 161.572C257.869 162.218 257.851 165.162 259.449 167.26C264.518 171.995 274.062 173.987 279.86 167.529C285.701 160.348 284.324 147.055 283.489 140.118C286.054 149.361 286.474 159.837 282.351 166.778C285.73 170.231 291.949 170.814 297.587 166.207C301.328 157.52 301.25 146.412 293.638 136.2C301.497 145.507 302.275 153.216 299.867 165.201C307.15 163.232 315.698 161.116 311.956 149.289L311.955 149.29Z" fill="#ABB0C0"/>
<path d="M238.573 164.61C235.112 163.601 229.482 158.994 229.65 152.918C228.838 156.488 227.687 168.76 239.493 172.594C238.263 170.05 238.271 167.073 238.573 164.61Z" fill="#ABB0C0"/>
<path d="M253.729 172.902C249.512 173.196 241.74 169.475 240.845 164.528C239.705 165.899 238.265 171.155 241.437 175.212C245.564 180.142 249.602 180.231 255.467 179.867C254.113 177.361 253.662 174.989 253.73 172.902L253.729 172.902Z" fill="#ABB0C0"/>
<path d="M297.027 174.089C297.027 174.089 297.027 174.087 297.027 174.086C294.175 177.203 286.338 179.156 279.38 175.935C279.266 177.877 277.073 182.444 274.74 184.23C279.284 185.287 288.133 187.225 294.853 180.574C296.387 178.33 296.952 176.063 297.028 174.088L297.027 174.089Z" fill="#ABB0C0"/>
<path d="M255.209 173.003C254.892 176.221 255.384 178.551 256.083 180.446C257.921 184.275 264.318 190.541 274.131 184.515C276.649 182.38 277.261 179.027 277.197 176.691C272.555 180.211 259.079 180.059 255.209 173.003Z" fill="#ABB0C0"/>
<path d="M298.6 173.563V173.564C298.562 174.907 298.087 177.028 295.692 179.715C304.033 179.608 310.295 173.898 311.43 167.99C308.935 171.893 303.159 174.312 298.6 173.563Z" fill="#ABB0C0"/>
<path d="M255.914 179.965C255.901 179.925 255.887 179.884 255.874 179.843C255.887 179.884 255.901 179.925 255.914 179.965Z" fill="#717071"/>
<path d="M274.131 184.515C275.009 183.976 275.525 183.096 275.959 182.246C275.508 183.074 274.911 183.854 274.131 184.515Z" fill="#717071"/>
<path d="M229.335 160.052C229.913 164.779 232.294 170.256 239.493 172.594C239.031 171.639 238.744 170.623 238.581 169.596C232.716 169.493 229.952 162.936 229.335 160.053L229.335 160.052Z" fill="#858B97"/>
<path d="M239.551 170.362C239.696 171.966 240.235 173.675 241.437 175.212C245.564 180.142 249.602 180.231 255.467 179.867C255.095 179.179 254.794 178.501 254.55 177.836C243.87 179.269 240.746 173.428 239.552 170.362L239.551 170.362Z" fill="#858B97"/>
<path d="M275.959 182.246C276.005 182.155 276.052 182.063 276.097 181.973C273.694 183.791 271.218 185.301 265.903 185.072C259.456 184.56 256.375 181.303 255.416 178.111C255.454 178.302 255.497 178.488 255.541 178.671C255.551 178.715 255.562 178.759 255.573 178.803C255.664 179.164 255.765 179.51 255.873 179.842C255.886 179.883 255.9 179.924 255.913 179.964C255.968 180.127 256.024 180.288 256.082 180.445C257.92 184.274 264.317 190.54 274.13 184.514C274.91 183.853 275.507 183.074 275.958 182.245L275.959 182.246Z" fill="#858B97"/>
<path d="M294.853 180.575C295.417 179.749 295.85 178.92 296.176 178.103C288.816 185.265 279.053 183.143 276.919 181.769C276.253 182.761 275.504 183.645 274.74 184.231C279.284 185.288 288.132 187.225 294.853 180.575Z" fill="#858B97"/>
<path d="M297.288 177.591C296.885 178.251 296.364 178.961 295.691 179.715C302.504 179.627 307.927 175.802 310.306 171.185C307.729 176.046 299.537 177.823 297.288 177.59V177.591Z" fill="#858B97"/>
<path d="M231.051 149.42C230.18 150.563 229.906 151.901 229.906 151.901C229.685 155.589 234.874 164.26 241.509 163.4C241.791 168.249 250.914 173.588 255.112 171.196C258.012 178.082 272.851 179.861 278.692 174.209C282.224 177.455 294.771 177.069 297.367 171.884C301.357 174.036 310.08 170.312 311.758 165.73C312.112 164.007 311.609 162.293 311.609 162.293C309.803 164.515 303.765 168.966 299.093 167.458C295.59 170.67 287.59 173.848 281.456 168.652C274.393 177.626 257.77 172.81 256.28 165.041C251.63 166.29 242.891 165.87 240.94 157.785C239.497 157.18 234.496 156.34 231.051 149.42Z" fill="#1E2D45"/>
<path d="M264.82 121.009C267.329 120.062 272.532 118.432 275.607 117.542C273.824 115.701 269.909 112.882 268.803 113.125C267.214 113.564 265.374 118.413 264.82 121.009Z" fill="white"/>
<path d="M299.682 124.344C303.163 128.158 305.916 132.671 306.479 133.507C308.895 131.468 312.239 126.297 311.21 125.539C309.212 124.068 302.152 123.998 299.682 124.344Z" fill="white"/>
<path d="M260.476 124.476C260.287 124.541 260.098 124.606 259.909 124.67C259.816 124.702 259.722 124.734 259.629 124.766C259.441 124.831 259.254 124.895 259.067 124.96C258.982 124.989 258.897 125.018 258.813 125.047C258.549 125.138 258.286 125.229 258.026 125.32C258.017 125.324 258.008 125.326 257.999 125.33C257.744 125.419 257.491 125.507 257.239 125.596C257.157 125.625 257.075 125.654 256.993 125.683C256.812 125.747 256.632 125.81 256.453 125.874C256.365 125.905 256.278 125.937 256.189 125.968C256.009 126.033 255.828 126.097 255.649 126.161C255.572 126.189 255.495 126.216 255.418 126.244C254.914 126.425 254.416 126.607 253.926 126.788C253.85 126.816 253.776 126.843 253.701 126.871C253.529 126.934 253.358 126.998 253.188 127.062C253.105 127.092 253.022 127.124 252.939 127.154C252.769 127.219 252.599 127.282 252.43 127.346C252.358 127.374 252.286 127.401 252.214 127.428C251.976 127.518 251.739 127.609 251.505 127.699H251.504C251.271 127.788 251.04 127.878 250.811 127.968C250.743 127.994 250.675 128.021 250.607 128.047C250.443 128.112 250.28 128.176 250.117 128.241C250.042 128.271 249.967 128.301 249.891 128.331C249.73 128.395 249.57 128.459 249.411 128.524C249.345 128.551 249.278 128.578 249.212 128.605C248.767 128.785 248.331 128.966 247.902 129.146C247.84 129.172 247.779 129.198 247.718 129.224C247.563 129.289 247.41 129.355 247.258 129.42C247.189 129.449 247.12 129.479 247.052 129.509C246.9 129.574 246.748 129.64 246.599 129.706C246.54 129.731 246.481 129.757 246.422 129.783C246.01 129.965 245.605 130.147 245.209 130.329C245.152 130.355 245.096 130.382 245.039 130.408C244.897 130.474 244.755 130.539 244.615 130.606C244.552 130.635 244.489 130.665 244.426 130.695C244.287 130.762 244.148 130.828 244.01 130.894C243.956 130.921 243.901 130.947 243.847 130.973C243.469 131.157 243.099 131.342 242.737 131.527C242.686 131.553 242.635 131.58 242.584 131.606C242.454 131.673 242.324 131.741 242.196 131.808C242.139 131.838 242.082 131.868 242.026 131.898C241.898 131.966 241.771 132.034 241.645 132.102C241.597 132.128 241.548 132.154 241.5 132.18C241.158 132.367 240.823 132.556 240.497 132.745C240.45 132.773 240.404 132.8 240.357 132.827C240.241 132.896 240.124 132.964 240.01 133.033C239.959 133.064 239.908 133.095 239.858 133.125C239.743 133.195 239.629 133.265 239.516 133.335C239.473 133.361 239.43 133.388 239.388 133.414C239.234 133.511 239.082 133.608 238.932 133.705C245.094 130.801 266.099 123.073 276.615 130.92C287.131 138.767 300.905 129.592 293.674 121.332C291.878 119.938 290.236 119.031 288.857 118.609C282.531 116.661 276.167 119.174 261.559 124.109C261.284 124.202 261.012 124.294 260.74 124.387C260.652 124.417 260.565 124.446 260.476 124.476Z" fill="white"/>
<path d="M263.299 146.11C257.141 153.863 255.542 159.668 251.765 160.352C248.753 160.897 245.143 161.268 242.792 156.827C242.968 157.848 243.306 158.869 243.837 159.876C246.016 162.651 249.728 164.742 255.824 163.174C256.179 157.801 259.069 151.614 263.299 146.11Z" fill="#858B97"/>
<path d="M258.191 164.476C258.411 165.402 258.794 166.402 259.448 167.261C264.517 171.997 274.06 173.989 279.858 167.53C283.134 163.503 284.139 157.555 284.244 151.882C280.395 171.966 261.119 172.939 258.191 164.476Z" fill="#858B97"/>
<path d="M298.01 165.162C298.078 164.986 298.146 164.811 298.211 164.632C298.25 164.525 298.287 164.416 298.325 164.308C298.381 164.149 298.437 163.988 298.491 163.827C298.53 163.71 298.567 163.592 298.605 163.473C298.654 163.32 298.703 163.165 298.75 163.011C298.787 162.887 298.823 162.762 298.859 162.638C298.903 162.487 298.945 162.336 298.985 162.184C299.02 162.056 299.055 161.926 299.088 161.796C299.126 161.648 299.162 161.499 299.198 161.35C299.23 161.216 299.262 161.082 299.292 160.947C299.325 160.801 299.356 160.653 299.387 160.506C299.416 160.368 299.445 160.23 299.472 160.091C299.5 159.948 299.524 159.804 299.55 159.661C299.576 159.515 299.603 159.371 299.627 159.226C299.647 159.102 299.663 158.977 299.682 158.854C299.733 158.513 299.778 158.17 299.817 157.826C299.828 157.73 299.84 157.635 299.85 157.539C299.869 157.358 299.884 157.176 299.899 156.994C299.908 156.884 299.919 156.775 299.927 156.664C299.94 156.483 299.95 156.299 299.96 156.117C299.966 156.007 299.972 155.897 299.977 155.787C299.985 155.601 299.99 155.415 299.994 155.228C299.997 155.121 299.999 155.014 300.001 154.906C300.003 154.715 300.003 154.523 300.001 154.331C300 154.23 299.999 154.128 299.997 154.026C299.993 153.827 299.988 153.629 299.979 153.43C299.975 153.337 299.971 153.245 299.966 153.153C299.955 152.943 299.944 152.732 299.929 152.521C299.924 152.448 299.917 152.375 299.911 152.302C299.892 152.071 299.873 151.84 299.849 151.609C299.846 151.583 299.843 151.556 299.84 151.53C299.719 150.403 299.531 149.267 299.269 148.128C299.267 148.118 299.266 148.108 299.263 148.099C299.203 147.839 299.138 147.578 299.07 147.317C299.059 147.274 299.048 147.231 299.037 147.188C298.971 146.939 298.9 146.691 298.828 146.443C298.812 146.389 298.797 146.334 298.78 146.28C298.707 146.035 298.63 145.79 298.549 145.545C298.532 145.49 298.513 145.435 298.495 145.381C298.412 145.132 298.326 144.883 298.235 144.634C298.218 144.589 298.202 144.544 298.185 144.499C298.089 144.239 297.99 143.979 297.886 143.72C297.878 143.698 297.868 143.677 297.86 143.655C297.275 142.203 296.561 140.752 295.71 139.312C299.849 149.9 298.977 162.694 292.089 166.342C289.58 167.67 286.063 168.485 282.618 166.313C282.617 166.312 282.616 166.312 282.615 166.312C282.528 166.469 282.442 166.626 282.351 166.78C285.729 170.232 291.948 170.815 297.587 166.209C297.698 165.95 297.805 165.69 297.91 165.427C297.944 165.339 297.977 165.25 298.011 165.162H298.01Z" fill="#858B97"/>
<path d="M311.955 149.29C308.589 140.372 304.51 133.409 300.54 128.362C307.43 141.428 311.311 150.685 308.499 157.273C307.42 159.513 305.951 162.495 300.783 163.842C300.693 163.87 300.277 163.838 300.199 163.874C300.124 164.279 299.949 164.785 299.866 165.2C302.89 167.089 316.64 161.654 311.955 149.289V149.29Z" fill="#858B97"/>
<path d="M310.292 128.786C305.989 131.089 301.546 125.751 299.682 124.344C303.164 128.158 305.917 132.671 306.479 133.507C307.751 132.434 309.279 130.494 310.292 128.786Z" fill="#858B97"/>
<path d="M246.103 144.516C240.074 150.611 235.997 151.709 233.218 149.342C234.857 152.55 237.816 155.133 241.091 155.843C240.994 154.967 241.148 153.717 241.18 153.517C241.297 152.787 242.259 148.415 246.103 144.516Z" fill="#858B97"/>
</g>
<defs>
<clipPath id="clip0_485_19539">
<rect width="120" height="120" fill="white" transform="translate(211.604 90.291)"/>
</clipPath>
</defs>
</svg>
