<svg width="544" height="301" viewBox="0 0 544 301" fill="none" xmlns="http://www.w3.org/2000/svg">
<rect width="543.208" height="300.194" transform="translate(0 0.582031)" fill="#1E2D45"/>
<g clip-path="url(#clip0_967_1612)">
<path d="M141.851 166.862C138.961 166.862 136.36 166.366 134.048 165.374C131.736 164.34 129.92 162.893 128.599 161.033C127.826 159.944 127.279 158.748 126.958 157.447C126.568 155.864 127.937 154.521 129.566 154.521H132.148C133.294 154.521 134.207 155.418 134.601 156.496C134.965 157.495 135.545 158.366 136.339 159.111C137.66 160.309 139.498 160.909 141.851 160.909C144.287 160.909 146.186 160.33 147.549 159.173C148.911 157.974 149.592 156.444 149.592 154.584C149.592 153.137 149.159 151.959 148.292 151.049C147.466 150.14 146.413 149.437 145.133 148.94C143.895 148.444 142.161 147.907 139.932 147.328C137.124 146.584 134.833 145.84 133.058 145.096C131.324 144.311 129.837 143.111 128.599 141.499C127.36 139.886 126.741 137.736 126.741 135.049C126.741 132.568 127.36 130.398 128.599 128.537C129.837 126.677 131.571 125.25 133.8 124.258C136.029 123.266 138.61 122.77 141.541 122.77C145.71 122.77 149.117 123.824 151.759 125.932C153.618 127.364 154.903 129.173 155.611 131.358C156.144 132.997 154.746 134.49 153.025 134.49H150.458C149.305 134.49 148.392 133.564 147.88 132.528C147.506 131.769 146.941 131.079 146.185 130.46C144.822 129.344 143.026 128.786 140.797 128.786C138.774 128.786 137.123 129.302 135.843 130.336C134.563 131.369 133.923 132.858 133.923 134.801C133.923 136.124 134.315 137.219 135.1 138.088C135.925 138.915 136.957 139.577 138.196 140.073C139.435 140.569 141.128 141.106 143.274 141.685C146.123 142.47 148.435 143.256 150.21 144.041C152.027 144.826 153.555 146.046 154.793 147.7C156.073 149.312 156.713 151.483 156.713 154.211C156.713 156.403 156.114 158.47 154.917 160.413C153.761 162.356 152.047 163.927 149.776 165.126C147.547 166.284 144.905 166.862 141.85 166.862H141.851Z" fill="white"/>
<path d="M164.224 140.043C165.649 137.377 167.619 135.321 170.138 133.873C172.656 132.426 175.546 131.703 178.808 131.703C182.936 131.703 186.353 132.685 189.057 134.649C190.797 135.913 192.174 137.523 193.188 139.481C194.077 141.199 192.649 143.052 190.717 143.052H188.982C187.744 143.052 186.684 142.244 186.005 141.207C185.454 140.364 184.768 139.656 183.947 139.083C182.585 138.133 180.872 137.657 178.807 137.657C175.916 137.657 173.615 138.681 171.902 140.727C170.188 142.773 169.333 145.637 169.333 149.315C169.333 152.994 170.189 155.868 171.902 157.936C173.615 160.003 175.917 161.037 178.807 161.037C182.12 161.037 184.525 159.855 186.021 157.49C186.682 156.444 187.741 155.642 188.977 155.642H190.627C192.586 155.642 194.009 157.543 193.052 159.255C192.027 161.088 190.664 162.643 188.963 163.921C186.238 165.967 182.852 166.99 178.807 166.99C175.545 166.99 172.655 166.257 170.137 164.789C167.618 163.322 165.647 161.254 164.223 158.587C162.799 155.921 162.087 152.83 162.087 149.316C162.087 145.802 162.799 142.711 164.223 140.044L164.224 140.043Z" fill="white"/>
<path d="M198.625 149.188C198.625 145.757 199.327 142.718 200.731 140.072C202.176 137.426 204.116 135.38 206.552 133.933C209.029 132.445 211.753 131.7 214.726 131.7C217.41 131.7 219.743 132.238 221.724 133.312C223.124 134.027 224.326 134.871 225.33 135.844C225.758 136.258 226.555 135.972 226.555 135.374C226.555 133.653 227.948 132.258 229.667 132.258H230.511C232.259 132.258 233.677 133.677 233.677 135.428V163.259C233.677 165.009 232.26 166.428 230.511 166.428H229.72C227.972 166.428 226.555 165.008 226.555 163.258C226.555 162.647 225.733 162.356 225.298 162.783C224.29 163.773 223.078 164.637 221.662 165.373C219.598 166.448 217.245 166.985 214.603 166.985C211.671 166.985 208.989 166.241 206.552 164.753C204.117 163.223 202.176 161.115 200.731 158.427C199.328 155.698 198.626 152.619 198.626 149.187L198.625 149.188ZM226.554 149.312C226.554 146.956 226.059 144.909 225.068 143.173C224.118 141.437 222.859 140.114 221.29 139.204C219.721 138.294 218.029 137.839 216.212 137.839C214.395 137.839 212.702 138.294 211.133 139.204C209.564 140.072 208.285 141.374 207.294 143.111C206.344 144.806 205.869 146.832 205.869 149.188C205.869 151.545 206.344 153.612 207.294 155.39C208.284 157.168 209.564 158.532 211.133 159.483C212.743 160.392 214.436 160.847 216.212 160.847C218.028 160.847 219.721 160.392 221.29 159.483C222.859 158.573 224.118 157.25 225.068 155.514C226.058 153.736 226.554 151.669 226.554 149.312Z" fill="white"/>
<path d="M245.872 120.537C243.923 120.537 242.343 122.109 242.343 124.048V162.916C242.343 164.855 243.923 166.428 245.872 166.428C247.821 166.428 249.403 164.855 249.403 162.916V124.048C249.403 122.109 247.822 120.537 245.872 120.537Z" fill="white"/>
<path d="M261.602 120.537C259.653 120.537 258.073 122.109 258.073 124.048V162.916C258.073 164.855 259.653 166.428 261.602 166.428C263.551 166.428 265.133 164.855 265.133 162.916V124.048C265.133 122.109 263.552 120.537 261.602 120.537Z" fill="white"/>
<path d="M279.87 164.785C277.27 163.318 275.226 161.25 273.74 158.583C272.254 155.917 271.51 152.826 271.51 149.312C271.51 145.839 272.274 142.76 273.802 140.072C275.329 137.384 277.414 135.318 280.056 133.87C282.698 132.424 285.65 131.7 288.912 131.7C292.173 131.7 295.125 132.424 297.768 133.87C300.409 135.318 302.495 137.384 304.023 140.072C305.549 142.76 306.314 145.839 306.314 149.312C306.314 152.785 305.529 155.865 303.961 158.552C302.392 161.241 300.254 163.318 297.551 164.785C294.846 166.253 291.863 166.986 288.602 166.986C285.382 166.986 282.471 166.253 279.87 164.785ZM293.711 159.545C295.3 158.676 296.591 157.374 297.582 155.638C298.572 153.901 299.068 151.793 299.068 149.312C299.068 146.831 298.593 144.733 297.644 143.017C296.693 141.302 295.434 140.009 293.866 139.142C292.297 138.274 290.605 137.839 288.788 137.839C286.972 137.839 285.289 138.273 283.741 139.142C282.193 140.009 280.964 141.303 280.056 143.017C279.148 144.733 278.694 146.831 278.694 149.312C278.694 152.993 279.633 155.834 281.512 157.839C283.39 159.845 285.754 160.847 288.602 160.847C290.418 160.847 292.122 160.413 293.711 159.545Z" fill="white"/>
<path d="M319.751 136.369C319.751 136.664 320.136 136.798 320.331 136.578C321.458 135.311 322.895 134.222 324.644 133.312C326.708 132.237 329.041 131.7 331.641 131.7C334.613 131.7 337.317 132.445 339.754 133.933C342.231 135.38 344.171 137.426 345.575 140.072C346.978 142.718 347.68 145.757 347.68 149.188C347.68 152.62 346.979 155.7 345.575 158.429C344.171 161.116 342.231 163.224 339.754 164.754C337.318 166.243 334.613 166.987 331.641 166.987C329.04 166.987 326.728 166.47 324.705 165.437C323.093 164.58 321.718 163.566 320.578 162.395C320.287 162.097 319.751 162.295 319.751 162.711V179.142C319.751 181.094 318.17 182.677 316.221 182.677C314.272 182.677 312.691 181.094 312.691 179.142V135.792C312.691 133.84 314.272 132.258 316.221 132.258C318.17 132.258 319.751 133.84 319.751 135.792V136.368L319.751 136.369ZM340.497 149.188C340.497 146.831 340.002 144.805 339.01 143.11C338.061 141.374 336.781 140.071 335.171 139.203C333.602 138.293 331.909 137.838 330.092 137.838C328.317 137.838 326.625 138.293 325.014 139.203C323.445 140.112 322.166 141.435 321.175 143.172C320.225 144.908 319.75 146.955 319.75 149.311C319.75 151.668 320.225 153.735 321.175 155.513C322.165 157.249 323.445 158.572 325.014 159.481C326.624 160.391 328.317 160.846 330.092 160.846C331.909 160.846 333.602 160.391 335.171 159.481C336.781 158.53 338.061 157.166 339.01 155.389C340.001 153.611 340.497 151.544 340.497 149.188Z" fill="white"/>
<path d="M353.688 165.563C352.821 164.694 352.389 163.619 352.389 162.338C352.389 161.058 352.821 159.981 353.688 159.113C354.556 158.244 355.63 157.812 356.909 157.812C358.149 157.812 359.201 158.245 360.069 159.113C360.933 159.981 361.368 161.058 361.368 162.338C361.368 163.619 360.933 164.694 360.069 165.563C359.201 166.431 358.149 166.865 356.909 166.865C355.63 166.865 354.556 166.43 353.688 165.563Z" fill="white"/>
<path d="M371.955 127.733C370.675 127.733 369.602 127.3 368.735 126.431C367.867 125.563 367.434 124.488 367.434 123.206C367.434 121.924 367.867 120.85 368.735 119.981C369.602 119.113 370.675 118.679 371.955 118.679C373.194 118.679 374.246 119.113 375.113 119.981C375.981 120.85 376.414 121.924 376.414 123.206C376.414 124.488 375.981 125.563 375.113 126.431C374.246 127.3 373.194 127.733 371.955 127.733ZM371.893 132.261C373.842 132.261 375.423 133.844 375.423 135.796V162.896C375.423 164.848 373.842 166.43 371.893 166.43C369.944 166.43 368.363 164.848 368.363 162.896V135.796C368.363 133.844 369.943 132.261 371.893 132.261Z" fill="white"/>
<path d="M390.161 164.785C387.56 163.318 385.517 161.25 384.03 158.583C382.544 155.917 381.801 152.826 381.801 149.312C381.801 145.839 382.565 142.76 384.092 140.072C385.62 137.384 387.704 135.318 390.347 133.87C392.988 132.424 395.941 131.7 399.202 131.7C402.464 131.7 405.415 132.424 408.058 133.87C410.7 135.318 412.786 137.384 414.313 140.072C415.84 142.76 416.604 145.839 416.604 149.312C416.604 152.785 415.819 155.865 414.251 158.552C412.682 161.241 410.545 163.318 407.842 164.785C405.137 166.253 402.154 166.986 398.893 166.986C395.673 166.986 392.761 166.253 390.161 164.785ZM404.002 159.545C405.591 158.676 406.882 157.374 407.873 155.638C408.863 153.901 409.359 151.793 409.359 149.312C409.359 146.831 408.884 144.733 407.935 143.017C406.984 141.302 405.725 140.009 404.157 139.142C402.588 138.274 400.896 137.839 399.08 137.839C397.263 137.839 395.58 138.273 394.032 139.142C392.483 140.01 391.255 141.303 390.348 143.017C389.439 144.733 388.985 146.831 388.985 149.312C388.985 152.993 389.924 155.834 391.803 157.839C393.681 159.845 396.045 160.847 398.894 160.847C400.709 160.847 402.413 160.413 404.002 159.545Z" fill="white"/>
</g>
<defs>
<clipPath id="clip0_967_1612">
<rect width="290" height="64" fill="white" transform="translate(126.604 118.679)"/>
</clipPath>
</defs>
</svg>
